<svg xmlns="http://www.w3.org/2000/svg" width="2712.6" height="2548.59" viewBox="143.7 225.705 2712.6 2548.59" id="delivery-man-picking-up-delivery-for-different-locations">
  <g id="gps">
    <path d="M435.77 2555a6 6 0 0 1-5.4-3.32c-4.54-9-8.95-18.25-13.11-27.47a6 6 0 0 1 11-5c4.08 9.06 8.41 18.14 12.88 27a6 6 0 0 1-5.38 8.75ZM400.39 2471.69a6 6 0 0 1-5.7-4.05 681.975 681.975 0 0 1-17.49-58.36 6 6 0 1 1 11.71-2.94c4.82 19.19 10.6 38.48 17.17 57.32a6 6 0 0 1-3.71 7.69 5.93 5.93 0 0 1-1.98.34Zm-29.36-117a6 6 0 0 1-5.95-5.11c-3.13-20.17-5.3-40.56-6.47-60.62a6 6 0 0 1 12.06-.7c1.13 19.68 3.27 39.69 6.34 59.47a6 6 0 0 1-5 6.89 7.57 7.57 0 0 1-1.01.05Zm-6.86-120.42h-.26a6 6 0 0 1-5.77-6.29 577.71 577.71 0 0 1 5.81-60.73 6 6 0 1 1 11.93 1.78 567.37 567.37 0 0 0-5.68 59.47 6 6 0 0 1-6.03 5.75Zm18.1-119.2a6.2 6.2 0 0 1-1.59-.21 6 6 0 0 1-4.24-7.41 510.78 510.78 0 0 1 19.56-57.88 6 6 0 0 1 11.18 4.54 500.48 500.48 0 0 0-19.12 56.49 6 6 0 0 1-5.79 4.45ZM2103.45 2007a6 6 0 0 1 0-12.07c20.14-.12 40.31-.91 59.94-2.34a6 6 0 1 1 .88 12c-19.9 1.46-40.34 2.26-60.75 2.38Zm-60.35-1.51h-.34c-19.74-1.1-40.1-2.8-60.51-5.07a6 6 0 0 1 1.34-12c20.19 2.25 40.32 3.94 59.83 5a6 6 0 0 1-.32 12.06Zm-1615.51-2.06a6 6 0 0 1-2.9-.75 6 6 0 0 1-2.38-8.19 533.33 533.33 0 0 1 32.49-51.71 6 6 0 1 1 9.83 7 519.1 519.1 0 0 0-31.74 50.53 6 6 0 0 1-5.3 3.07Zm1796.24-5.3a6 6 0 0 1-.86-12c21.15-3.06 40.37-6.73 58.75-11.21a6 6 0 1 1 2.86 11.72c-18.76 4.58-38.34 8.32-59.88 11.44a6.36 6.36 0 0 1-.87 0Zm-300.74-5.85a5.36 5.36 0 0 1-1-.08c-19.37-3.11-39.44-6.79-59.66-10.93a6 6 0 1 1 2.41-11.82c20.06 4.1 40 7.75 59.17 10.84a6 6 0 0 1-1 12Zm417.68-23.45a6 6 0 0 1-2.19-11.66 339.34 339.34 0 0 0 53.19-26.12 6 6 0 1 1 6.29 10.3 351.75 351.75 0 0 1-55.09 27.06 5.88 5.88 0 0 1-2.2.37Zm-536-.63a5.88 5.88 0 0 1-1.43-.17c-18.85-4.56-38.59-9.66-58.66-15.14a6 6 0 0 1 3.18-11.65c20 5.46 39.58 10.53 58.32 15.06a6 6 0 0 1-1.41 11.9Zm-116.57-31.74a6 6 0 0 1-1.73-.25c-18.45-5.51-37.37-11.35-57.83-17.85a6 6 0 1 1 3.65-11.51c20.4 6.49 39.25 12.31 57.63 17.79a6 6 0 0 1-1.72 11.82Zm755.73-29.46a6 6 0 0 1-3.82-10.72 553.79 553.79 0 0 0 44.19-40.14 6 6 0 1 1 8.58 8.49 565 565 0 0 1-45.15 41 6 6 0 0 1-3.8 1.37Zm-1946.47-1.81a6 6 0 0 1-4.48-10.08 539.52 539.52 0 0 1 43.36-43 6 6 0 0 1 8 9.05 525.08 525.08 0 0 0-42.38 42 6 6 0 0 1-4.5 2Zm1075.5-5.24a6 6 0 0 1-1.9-.31c-16.92-5.6-35.13-11.71-57.32-19.22a6 6 0 0 1 3.87-11.43c22.16 7.5 40.35 13.6 57.24 19.19a6 6 0 0 1-1.89 11.77Zm-114.49-38.63a6 6 0 0 1-1.94-.32c-18.25-6.2-37.81-12.83-57.21-19.34a6 6 0 1 1 3.84-11.44c19.42 6.51 39 13.15 57.25 19.35a6 6 0 0 1-1.94 11.75Zm-870.68-36a6 6 0 0 1-3.45-11 524.75 524.75 0 0 1 52-31.94 6 6 0 1 1 5.7 10.64 514.58 514.58 0 0 0-50.85 31.2 6 6 0 0 1-3.4 1.12Zm756.09-2.35a6.06 6.06 0 0 1-1.86-.29c-20.52-6.67-39.33-12.63-57.5-18.22a6 6 0 1 1 3.56-11.54c18.22 5.62 37.08 11.59 57.67 18.27a6 6 0 0 1-1.87 11.78Zm1184.92-1.6a6 6 0 0 1-4.69-9.83c12.34-15.27 24.23-31.49 35.35-48.23a6 6 0 1 1 10.05 6.68c-11.32 17-23.44 33.58-36 49.14a6 6 0 0 1-4.71 2.26Zm-1300.39-33.85a6.07 6.07 0 0 1-1.67-.24l-4.44-1.26c-18.3-5.19-36.36-10-53.69-14.38a6 6 0 0 1 2.94-11.7c17.45 4.38 35.63 9.25 54 14.46l4.48 1.28a6 6 0 0 1-1.66 11.84Zm-534.25-18.8a6 6 0 0 1-2.13-11.69 501.87 501.87 0 0 1 58.38-18 6 6 0 1 1 2.86 11.72 490.43 490.43 0 0 0-57 17.58 6 6 0 0 1-2.11.41Zm417.07-10.5a6.51 6.51 0 0 1-1.24-.12c-20.11-4.23-40-7.93-59.11-11a6 6 0 1 1 1.92-11.91c19.31 3.11 39.38 6.85 59.67 11.11a6 6 0 0 1-1.24 11.94Zm-300.05-18.37a6 6 0 0 1-.79-12c19.53-2.59 40-4.32 60.72-5.15a6 6 0 1 1 .48 12.06c-20.4.82-40.45 2.52-59.61 5.06a7.31 7.31 0 0 1-.8.05Zm180.8-.7a4.68 4.68 0 0 1-.64 0c-20.38-2.13-40.51-3.59-59.84-4.34a6 6 0 1 1 .47-12.06c19.59.76 40 2.23 60.63 4.4a6 6 0 0 1-.62 12ZM2595.63 1721a6 6 0 0 1-2.88-.74 6 6 0 0 1-2.42-8.19 723.562 723.562 0 0 0 26.42-53.74 6 6 0 0 1 11 4.88c-8.22 18.63-17.26 37-26.86 54.64a6 6 0 0 1-5.26 3.15Zm48.78-110.39a6.29 6.29 0 0 1-2-.33 6 6 0 0 1-3.71-7.69 767.216 767.216 0 0 0 17.49-57.33 6 6 0 0 1 11.67 3.07 775.758 775.758 0 0 1-17.76 58.23 6 6 0 0 1-5.69 4.04ZM807.09 1507.39H807a485.74 485.74 0 0 1-60.89-5.19 6 6 0 1 1 1.78-11.93 477.08 477.08 0 0 0 59.39 5.06 6 6 0 0 1-.14 12.07Zm60.32-2.24a6 6 0 0 1-.57-12 533.31 533.31 0 0 0 56.6-8.57l2.4-.5a6 6 0 1 1 2.5 11.81l-2.46.51a541.8 541.8 0 0 1-57.89 8.76 5.63 5.63 0 0 1-.58-.01Zm1807.67-11.33a5.64 5.64 0 0 1-1.08-.1 6 6 0 0 1-4.87-7c3.54-19.7 6.32-39.68 8.24-59.38a6 6 0 1 1 12 1.18c-2 20-4.78 40.32-8.38 60.34a6 6 0 0 1-5.91 4.96ZM688 1489.38a6.21 6.21 0 0 1-1.69-.24 425.78 425.78 0 0 1-57.4-21.26 6 6 0 0 1 5-11 413.46 413.46 0 0 0 55.77 20.65 6 6 0 0 1-1.69 11.83Zm297.58-8.38a6 6 0 0 1-1.73-11.81c18.46-5.55 37.55-12.06 56.74-19.36a6 6 0 1 1 4.29 11.29c-19.46 7.39-38.82 14-57.56 19.63a6.15 6.15 0 0 1-1.74.25Zm-407-41.78a6.05 6.05 0 0 1-3.32-1 372.39 372.39 0 0 1-48.21-37.88 6 6 0 1 1 8.23-8.83 360.59 360.59 0 0 0 46.63 36.64 6 6 0 0 1-3.33 11.07Zm519.94-.85a6 6 0 0 1-2.47-11.55c17.53-7.84 35.3-16.3 54.31-25.83a6 6 0 1 1 5.41 10.79c-19.17 9.61-37.09 18.14-54.79 26.06a6 6 0 0 1-2.45.53Zm108.09-53.93a6 6 0 0 1-2.88-11.34c15.8-8.55 33-18.11 52.74-29.23a6 6 0 1 1 5.93 10.51c-19.75 11.15-37.06 20.75-52.93 29.33a5.94 5.94 0 0 1-2.85.73Zm1480.13-10.81h-.08a6 6 0 0 1-6-6.11q.06-4.65.06-9.28c0-17-.64-34-1.9-50.54a6 6 0 0 1 12-.92c1.29 16.88 1.94 34.19 1.94 51.46q0 4.71-.06 9.44a6 6 0 0 1-5.95 5.95Zm-2196-16.37a6 6 0 0 1-4.81-2.38 358.28 358.28 0 0 1-32.79-51.88 6 6 0 1 1 10.71-5.55 346.81 346.81 0 0 0 31.66 50.09 6 6 0 0 1-4.8 9.69Zm821.21-32a6 6 0 0 1-3-11.26c16.47-9.48 33.49-19.47 52-30.53a6 6 0 1 1 6.19 10.36c-18.58 11.1-35.65 21.12-52.18 30.63a6.09 6.09 0 0 1-3.04.77Zm103.8-61.83a6 6 0 0 1-3.15-11.19c18-11 36-22.06 51.46-31.6a6 6 0 0 1 6.33 10.27c-15.48 9.55-33.51 20.65-51.5 31.63a6 6 0 0 1-3.17.86Zm1261.74-10.06a6 6 0 0 1-5.94-5 575.9 575.9 0 0 0-13.18-58.28 6 6 0 1 1 11.61-3.29 583.94 583.94 0 0 1 13.46 59.51 6 6 0 0 1-4.92 7 6 6 0 0 1-1.06.03Zm-2242.17-2.7a6 6 0 0 1-5.74-4.17 406.54 406.54 0 0 1-14.4-59.5 6 6 0 1 1 11.91-2 395.81 395.81 0 0 0 13.91 57.74 6.05 6.05 0 0 1-5.74 7.9Zm1083.35-50.53a6 6 0 0 1-3.16-11.18c19.78-12.14 36.18-22.13 51.63-31.45a6 6 0 0 1 6.24 10.34c-15.42 9.3-31.81 19.28-51.56 31.4a6 6 0 0 1-3.18.86Zm103.52-62.28a6 6 0 0 1-3.05-11.25c18.47-10.79 35.65-20.62 52.53-30a6 6 0 1 1 5.89 10.54c-16.81 9.39-33.93 19.18-52.33 29.93a6 6 0 0 1-3.07.75Zm1022.09-.4a6 6 0 0 1-5.56-3.69 387.21 387.21 0 0 0-27.13-52.88 6 6 0 0 1 10.26-6.35 398.89 398.89 0 0 1 28 54.53 6 6 0 0 1-5.55 8.39ZM415.47 1132a6 6 0 0 1-6-5.87c-.1-3.58-.15-7.23-.15-10.85a413.8 413.8 0 0 1 3.1-50.32 6 6 0 0 1 12 1.46 402 402 0 0 0-3 48.86c0 3.51.05 7 .14 10.52a6 6 0 0 1-5.87 6.2Zm1312.22-52.89a6 6 0 0 1-2.81-11.38c18.38-9.65 36.57-18.84 54.07-27.33a6 6 0 1 1 5.27 10.86c-17.39 8.43-35.47 17.57-53.73 27.15a6 6 0 0 1-2.8.65Zm852.61-43.43a6 6 0 0 1-4.42-1.92 255 255 0 0 0-35.82-32.05 316.73 316.73 0 0 0-8.91-6.31 6 6 0 1 1 6.8-10c3.11 2.12 6.23 4.33 9.26 6.55a268.27 268.27 0 0 1 37.51 33.56 6 6 0 0 1-4.42 10.14Zm-743.89-9.15a6 6 0 0 1-2.43-11.56c18.83-8.26 37.69-16.06 56.07-23.17a6 6 0 1 1 4.35 11.25c-18.2 7-36.9 14.78-55.57 23a6 6 0 0 1-2.42.43Zm-1406.48-14a6.42 6.42 0 0 1-1.56-.2 6 6 0 0 1-4.28-7.39 491.78 491.78 0 0 1 19.48-57.93 6 6 0 1 1 11.18 4.54 479.77 479.77 0 0 0-19 56.5 6 6 0 0 1-5.82 4.39ZM1949.06 983a6 6 0 0 1-1.9-11.77q6.72-2.22 13.46-4.37c14.74-4.68 29.79-9.11 44.71-13.15a6 6 0 0 1 3.16 11.65c-14.76 4-29.64 8.37-44.21 13-4.46 1.42-8.89 2.86-13.32 4.33a6 6 0 0 1-1.9.31Zm532.74-15.81a5.91 5.91 0 0 1-2.45-.53 392.83 392.83 0 0 0-56-19.78 6 6 0 1 1 3.17-11.64 404.23 404.23 0 0 1 57.76 20.39 6 6 0 0 1-2.45 11.56Zm-416.18-15.79a6 6 0 0 1-1.25-11.94c19.77-4.18 39.87-7.85 59.75-10.9a6 6 0 1 1 1.83 11.93 1052 1052 0 0 0-59.08 10.78 6 6 0 0 1-1.25.11Zm300.16-16.4a6.36 6.36 0 0 1-.87-.06c-18.9-2.72-38.93-4.56-59.54-5.48a6 6 0 0 1 .54-12.06c21 .94 41.43 2.82 60.72 5.59a6 6 0 0 1-.85 12ZM2185 933.1a6 6 0 0 1-.57-12c20.85-2 41.26-3.31 60.65-4a6 6 0 1 1 .39 12.07c-19.14.63-39.29 2-59.89 3.91ZM475 900.67a6 6 0 0 1-5.31-8.92c9.46-17.46 20.12-35 31.69-52.09a6 6 0 0 1 10 6.76c-11.35 16.78-21.8 34-31.07 51.08a6 6 0 0 1-5.31 3.17Zm67.4-100.06a6 6 0 0 1-4.68-9.85c.87-1.06 1.74-2.13 2.62-3.19a646.176 646.176 0 0 1 38-42.25 6 6 0 0 1 8.61 8.46c-13 13.27-25.58 27.22-37.29 41.45l-2.57 3.15a6 6 0 0 1-4.7 2.23Zm84.51-86.1a6 6 0 0 1-3.91-10.64c15.37-13 31.59-25.54 48.22-37.23a6 6 0 1 1 6.94 9.87 676.554 676.554 0 0 0-47.36 36.57 6 6 0 0 1-3.9 1.43ZM725.53 645a6 6 0 0 1-3-11.25 713.61 713.61 0 0 1 53.91-28.32 6 6 0 1 1 5.16 10.91c-18 8.51-35.86 17.88-53 27.84a6 6 0 0 1-3.07.82Zm109.1-51.53a6 6 0 0 1-2.11-11.7c19-7.06 38.44-13.41 57.91-18.85a6 6 0 0 1 3.25 11.62c-19.15 5.36-38.3 11.6-56.94 18.54a6 6 0 0 1-2.11.43ZM950.84 561a6 6 0 0 1-1.13-12c19.94-3.79 40.21-6.76 60.27-8.82a6 6 0 1 1 1.23 12c-19.71 2-39.64 4.95-59.24 8.68a6.27 6.27 0 0 1-1.13.14Zm180.4-10.47h-.47c-19.72-1.5-39.86-2.11-59.81-1.82a6 6 0 1 1-.17-12.07c20.31-.29 40.81.33 60.9 1.85a6 6 0 0 1-.45 12ZM1221.24 563.76a5.76 5.76 0 0 1-1.3-.15 633.4 633.4 0 0 0-29.34-5.74 6 6 0 0 1 2-11.9c10 1.72 20 3.68 29.9 5.86a6 6 0 0 1-1.3 11.93ZM2506.79 1300.16a73.93 73.93 0 1 1 73.92-73.92 74 74 0 0 1-73.92 73.92Zm0-137.74a63.82 63.82 0 1 0 63.82 63.82 63.89 63.89 0 0 0-63.82-63.82Z" style="fill:#dfe9f4"></path>
    <path d="M476.51 1721.33a73.93 73.93 0 1 1 73.93-73.93 74 74 0 0 1-73.93 73.93Zm0-137.75a63.82 63.82 0 1 0 63.82 63.82 63.89 63.89 0 0 0-63.82-63.82Z" style="fill:#ccdbe2"></path>
    <path d="M350.34 2557s-43.54-25.27-33.46-54 35.12 1.1 35.12 1.1-66.56-70.83-57.62-111.78 67 9.39 67 9.39-84.7-126.06-41.91-173.56 90 8.25 102.21 55.58 19 77.12 19 77.12 12.69-62.77 35.41-55.94 14.19 83 14.19 83 24.12-37.46 35.57-12.67-2.37 74.76-2.37 74.76 38.16-46.13 50.65-6-21.61 103.16-21.61 103.16Z" style="fill:#cedbee"></path>
    <path d="M2433.35 2549s-55.83-141.52-44.95-248.59 79.51-154 79.51-154 126.27 112.5 84.22 249.68S2433.35 2549 2433.35 2549Z" style="fill:#b6cad6"></path>
    <path d="M2732.71 2195.4s-.08.84-.3 2.45c-1.45 11.2-8.79 59.65-33.17 118q-.94 2.28-1.94 4.58a462.65 462.65 0 0 1-39.56 73.55q-1.41 2.17-2.91 4.34a399.27 399.27 0 0 1-41.74 51.72c-86.27 90.14-135.09 93-149.46 91.25a21.92 21.92 0 0 1-4.53-.93s-42.47-44.23-19.34-156.88c7.95-38.68 37.78-74.12 76-103.61 1.94-1.49 3.9-3 5.9-4.45a458.13 458.13 0 0 1 73.93-43.93c2.15-1 4.29-2 6.44-3 50.71-23.35 100.21-36 127-33.52 1.27.09 2.5.24 3.68.43Z" style="fill:#cedbee"></path>
    <path d="M2732.41 2197.85a2.19 2.19 0 0 1-.63.48c-1 .51-97.83 52.26-171.78 147.51a1076.92 1076.92 0 0 1 139.24-30q-.94 2.28-1.94 4.58a1077.69 1077.69 0 0 0-141.59 31.07 522.57 522.57 0 0 0-42.52 66.72 541.37 541.37 0 0 1 144.55-24.21q-1.41 2.17-2.91 4.34a533.6 533.6 0 0 0-141.83 24.33 2.61 2.61 0 0 1-2.06-.17 601.72 601.72 0 0 0-20.17 42.22c0 .34 0 .71-.08 1.06a1.93 1.93 0 0 1-1.07 1.64 587.49 587.49 0 0 0-26 73.85c-2.73 9.93-3.94 15.7-4 15.94a2.37 2.37 0 0 1-1.93 1.78 3.21 3.21 0 0 1-.82 0 2.07 2.07 0 0 1-1.86-2.43c0-.26 1.3-6.14 4.07-16.24a599 599 0 0 1 27-76.42 1024.28 1024.28 0 0 1 29.64-184.07c1.94-1.49 3.9-3 5.9-4.45a1022.13 1022.13 0 0 0-29.92 175.85c14.88-32.61 35-69.18 61.75-104.26q8.53-11.2 17.44-21.6a1.39 1.39 0 0 1 0-.58 279.12 279.12 0 0 1 24.7-93.34c2.15-1 4.29-2 6.44-3a276.7 276.7 0 0 0-25.93 91c68-77.32 145.7-120.54 152.9-124.47l.54-.28a2.42 2.42 0 0 1 3.17.75 2 2 0 0 1-.3 2.4Z" style="fill:#aec6d3"></path>
    <path d="M980.11 2555.62s38.43-97.42 30.94-171.11-54.73-106-54.73-106-86.91 77.43-58 171.86 81.79 105.25 81.79 105.25Z" style="fill:#b6cad6"></path>
    <path d="M774.05 2312.22s.06.57.21 1.68c1 7.71 6 41.06 22.83 81.21.44 1 .88 2.1 1.34 3.15a318.16 318.16 0 0 0 27.23 50.63c.65 1 1.31 2 2 3a276 276 0 0 0 28.73 35.6c59.38 62 93 64 102.88 62.81a15.18 15.18 0 0 0 3.12-.65s29.23-30.44 13.31-108c-5.47-26.62-26-51-52.31-71.31-1.34-1-2.69-2.06-4.06-3.07a315.39 315.39 0 0 0-50.89-30.27l-4.44-2c-34.91-16.07-69-24.77-87.4-23.06-.88.06-1.73.15-2.55.28Z" style="fill:#cedbee"></path>
    <path d="M774.26 2313.9a1.67 1.67 0 0 0 .44.34c.68.35 67.33 36 118.23 101.53a740.61 740.61 0 0 0-95.84-20.66c.44 1 .88 2.1 1.34 3.15a741.86 741.86 0 0 1 97.46 21.39 359.83 359.83 0 0 1 29.26 45.92 372.3 372.3 0 0 0-99.49-16.68c.65 1 1.31 2 2 3a367.25 367.25 0 0 1 97.65 16.77 1.77 1.77 0 0 0 1.41-.12c5.31 10.08 9.92 19.86 13.89 29.06v.73a1.31 1.31 0 0 0 .74 1.13 405.79 405.79 0 0 1 17.87 50.84c1.87 6.83 2.71 10.8 2.75 11a1.62 1.62 0 0 0 1.32 1.22 1.81 1.81 0 0 0 .57 0 1.43 1.43 0 0 0 1.28-1.67c0-.17-.89-4.22-2.8-11.18a412.75 412.75 0 0 0-18.61-52.59 703.93 703.93 0 0 0-20.39-126.7c-1.34-1-2.69-2.06-4.06-3.07a704 704 0 0 1 20.59 121 377.52 377.52 0 0 0-42.51-71.76q-5.86-7.71-12-14.87a1.05 1.05 0 0 0 0-.4 192.17 192.17 0 0 0-17-64.25L864 2335a190.49 190.49 0 0 1 17.84 62.61c-46.79-53.22-100.28-83-105.24-85.67l-.37-.2a1.67 1.67 0 0 0-2.19.52 1.38 1.38 0 0 0 .22 1.64Z" style="fill:#aec6d3"></path>
    <path d="M1021.33 2521s-29.56-74.94-23.8-131.63 42.1-81.56 42.1-81.56 66.86 59.57 44.6 132.21-62.9 80.98-62.9 80.98Z" style="fill:#b6cad6"></path>
    <path d="M1179.85 2333.75s0 .45-.16 1.3c-.77 5.93-4.66 31.59-17.56 62.47-.34.81-.68 1.62-1 2.43a246.47 246.47 0 0 1-20.95 39c-.5.77-1 1.53-1.54 2.29a211.66 211.66 0 0 1-22.1 27.39c-45.68 47.73-71.54 49.24-79.15 48.32a11.68 11.68 0 0 1-2.4-.5s-22.48-23.41-10.24-83.06c4.21-20.49 20-39.25 40.25-54.87 1-.79 2.06-1.58 3.12-2.35a242.19 242.19 0 0 1 39.15-23.27l3.41-1.6c26.85-12.36 53.06-19.05 67.23-17.74.66.01 1.32.09 1.94.19Z" style="fill:#cedbee"></path>
    <path d="M1179.69 2335.05a1.23 1.23 0 0 1-.33.26c-.53.27-51.81 27.67-91 78.1a571.94 571.94 0 0 1 73.73-15.89c-.34.81-.68 1.62-1 2.43a569.58 569.58 0 0 0-75 16.45 276.45 276.45 0 0 0-22.51 35.33 286.59 286.59 0 0 1 76.54-12.83c-.5.77-1 1.53-1.54 2.29a282.51 282.51 0 0 0-75.12 12.91 1.38 1.38 0 0 1-1.09-.09c-4.08 7.75-7.63 15.27-10.68 22.35v.57a1 1 0 0 1-.57.86 313.6 313.6 0 0 0-13.75 39.11c-1.44 5.25-2.08 8.31-2.11 8.44a1.25 1.25 0 0 1-1 .94 1.61 1.61 0 0 1-.44 0 1.1 1.1 0 0 1-1-1.29c0-.13.69-3.25 2.15-8.6a318.65 318.65 0 0 1 14.32-40.46 541.34 541.34 0 0 1 15.69-97.47c1-.79 2.06-1.58 3.12-2.35a542 542 0 0 0-15.84 93.11A290.49 290.49 0 0 1 1085 2414c3-3.95 6.1-7.76 9.23-11.43a1.06 1.06 0 0 1 0-.31 147.92 147.92 0 0 1 13.08-49.43l3.41-1.6a146.41 146.41 0 0 0-13.73 48.17c36-41 77.15-63.84 81-65.91l.29-.15a1.28 1.28 0 0 1 1.68.39 1.07 1.07 0 0 1-.27 1.32Z" style="fill:#aec6d3"></path>
    <path d="M267 2559.24a49.25 49.25 0 0 0 49.24 49.24h68a42.74 42.74 0 0 0-.7 7.64 42.34 42.34 0 0 0 42.34 42.33H1075a42.33 42.33 0 0 0 42.34-42.33 42.74 42.74 0 0 0-.7-7.64h40.45a42.74 42.74 0 0 0-.7 7.64 42.34 42.34 0 0 0 42.34 42.33H2541a42.34 42.34 0 0 0 42.34-42.33 42.74 42.74 0 0 0-.7-7.64h87.62a49.25 49.25 0 0 0 49.25-49.24H267Z" style="fill:#dfe9f4"></path>
    <rect width="2463.33" height="25.37" x="269.67" y="2542.49" rx="7.2" style="fill:#92b1dd"></rect>
    <rect width="1073.22" height="22.72" x="1281.6" y="2586.13" rx="7.2" style="fill:#92b1dd"></rect>
    <rect width="638.49" height="21.73" x="550.44" y="2586.62" rx="7.03" style="fill:#92b1dd"></rect>
    <path d="M2345.15 557.37v1529.07a55.52 55.52 0 0 1-55.54 55.53h-766.44a55.51 55.51 0 0 1-55.52-55.53V557.37a55.51 55.51 0 0 1 55.52-55.52h766.44a55.52 55.52 0 0 1 55.54 55.52Z" style="fill:#92b1dd"></path>
    <path d="M2314.28 557.37v1529.07a55.52 55.52 0 0 1-55.54 55.53H1492.3a55.51 55.51 0 0 1-55.52-55.53V557.37a55.51 55.51 0 0 1 55.52-55.52h766.44a55.52 55.52 0 0 1 55.54 55.52Z" style="fill:#cedbee"></path>
    <path d="M2275.7 608.34v1415.74c0 28.38-22.67 51.41-50.65 51.41H1526c-28 0-50.64-23-50.64-51.41V608.34c0-28.4 22.67-51.41 50.64-51.41h174.7a32.85 32.85 0 0 0 32.85 32.85h284a32.84 32.84 0 0 0 32.85-32.85h174.69c27.91 0 50.61 23.01 50.61 51.41Z" style="fill:#fff"></path>
    <path d="M2278.15 1369.64a3 3 0 0 1-3-3V688.33a3 3 0 1 1 6 0v678.31a3 3 0 0 1-3 3ZM1700.68 559.93H1526a3 3 0 0 1 0-6h174.7a3 3 0 0 1 0 6ZM1475.34 1708a3 3 0 0 1-3-3V669.52a3 3 0 1 1 6 0V1705a3 3 0 0 1-3 3ZM2273.93 1963.69a3 3 0 0 1-3-3v-535.15a3 3 0 0 1 6 0v535.15a3 3 0 0 1-3 3Z" style="fill:#92b1dd"></path>
    <path d="M1847.91 1662.15v850.92c0 16.25-13.72 29.42-30.65 29.42h-479.79c-16.92 0-30.65-13.17-30.65-29.42v-850.92c0-16.24 13.73-29.42 30.65-29.42h479.79c16.93 0 30.65 13.18 30.65 29.42Z" style="fill:#ef997b"></path>
    <path d="M1590.7 1662.15v850.92c0 16.25-10.83 29.42-24.18 29.42h-378.71c-13.35 0-24.19-13.17-24.19-29.42v-850.92c0-16.24 10.84-29.42 24.19-29.42h378.71c13.35 0 24.18 13.18 24.18 29.42Z" style="fill:#fccd89"></path>
    <path d="M1590.7 1738.41v774.66c0 16.25-10.83 29.42-24.18 29.42h-378.71c-13.35 0-24.19-13.17-24.19-29.42v-36.5h308.54c21.48 0 38.89-21.17 38.89-47.28V2008c0-26.12-17.41-47.3-38.89-47.3h-304.75a32 32 0 0 1-3.79-.23v-222Z" style="opacity:.63;fill:#f28c70"></path>
    <path d="M1608.86 1641.92v265.8c0 5.08-11.75 9.19-26.24 9.19h-410.91c-14.5 0-26.25-4.11-26.25-9.19v-265.8c0-5.07 11.75-9.19 26.25-9.19h410.91c14.49 0 26.24 4.12 26.24 9.19Z" style="fill:#fccd89"></path>
    <ellipse cx="1200.99" cy="1847.45" rx="12.06" ry="14.67" style="fill:#ef997b"></ellipse>
    <ellipse cx="1532.86" cy="1847.45" rx="12.06" ry="14.67" style="fill:#ef997b"></ellipse>
    <path d="M1544.93 1919.91h-373.22a3 3 0 0 1 0-6h373.22a3 3 0 0 1 0 6ZM1559.05 1635.73h-387.34a3 3 0 0 1 0-6h387.34a3 3 0 0 1 0 6ZM1167.41 2469.15a3 3 0 0 1-3-3v-505.46a3 3 0 0 1 6 0v505.46a3 3 0 0 1-3 3Z" style="fill:#ea8165"></path>
    <path d="M2474.77 1460.05V2525.2c0 20.34-12.25 36.83-27.35 36.83h-428.16c-15.1 0-27.35-16.49-27.35-36.83V1460.05c0-20.34 12.25-36.83 27.35-36.83h428.16c15.1 0 27.35 16.49 27.35 36.83Z" style="fill:#ef997b"></path>
    <path d="M2316.83 1460.05V2525.2c0 20.34-11.41 36.83-25.48 36.83h-398.84c-14.07 0-25.47-16.49-25.47-36.83V1460.05c0-20.34 11.4-36.83 25.47-36.83h398.84c14.07 0 25.48 16.49 25.48 36.83Z" style="fill:#fccd89"></path>
    <path d="M2316.83 1518.4v1005.44c0 21.1-11.41 38.19-25.48 38.19h-398.84c-14.07 0-25.47-17.09-25.47-38.19v-47.37H2192c22.62 0 41-27.47 41-61.37v-546.81c0-33.9-18.34-61.39-41-61.39h-321a26.63 26.63 0 0 1-4-.3v-288.2Z" style="fill:#ef997b"></path>
    <path d="M2336 1433.8v306c0 5.84-12.38 10.58-27.65 10.58h-432.8c-15.26 0-27.64-4.74-27.64-10.58v-306c0-5.84 12.38-10.58 27.64-10.58h432.76c15.27 0 27.69 4.78 27.69 10.58Z" style="fill:#fccd89"></path>
    <ellipse cx="1906.4" cy="1670.38" rx="12.71" ry="16.89" style="fill:#ef997b"></ellipse>
    <ellipse cx="2255.92" cy="1670.38" rx="12.71" ry="16.89" style="fill:#ef997b"></ellipse>
    <path d="M2278.15 1426.22h-402.6a3 3 0 0 1 0-6h402.6a3 3 0 0 1 0 6ZM1847.91 1708a3 3 0 0 1-3-3v-241a3 3 0 0 1 6 0v241a3 3 0 0 1-3 3ZM1867 2434.09a3 3 0 0 1-3-3v-612.81a3 3 0 1 1 6 0v612.81a3 3 0 0 1-3 3ZM2308.31 2434.09a3 3 0 0 1-3-3v-683.76h166.46V1518.4a3 3 0 0 1 6 0v234.93h-166.46v677.76a3 3 0 0 1-3 3Z" style="fill:#ea8165"></path>
    <path d="M2474.77 2454.25a3 3 0 0 1-3-3v-700.92a3 3 0 0 1 6 0v700.92a3 3 0 0 1-3 3Z" style="fill:#ea8165"></path>
    <path d="M2226.43 1954.47v595.26c0 20.1-15.19 36.4-33.94 36.4h-765c-18.76 0-34-16.3-34-36.4v-595.26c0-20.11 15.19-36.39 34-36.39h765c18.75 0 33.94 16.28 33.94 36.39Z" style="fill:#f9b78a"></path>
    <path d="M1868.85 1954.47v595.26c0 20.11 15.19 36.4 34 36.4h289.68c18.76 0 33.95-16.29 33.95-36.4v-595.26c0-20.11-15.19-36.4-33.95-36.4H1902.8c-18.8 0-33.95 16.29-33.95 36.4Z" style="fill:#ea8165"></path>
    <path d="M2005.48 1918.07v668.06h187c18.76 0 33.95-16.29 33.95-36.4v-595.26c0-20.11-15.19-36.4-33.95-36.4ZM1902.8 1918.08a31.53 31.53 0 0 0-9.75 1.52 33.44 33.44 0 0 0-3.17 1.21 34 34 0 0 0-12.93 10.08 37.77 37.77 0 0 0-8.1 23.58v182.08c0 6.77-18.33 77-29.48 119.07-4.92 18.56-20.73 31.39-38.75 31.39h-407v-332.54c0-20.11 15.19-36.39 34-36.39Z" style="fill:#ef997b"></path>
    <path d="M1868.85 1954.47v182.09c0-6.7 11.78 67.78 19 114.38 3.26 20.82 20 36.06 39.74 36.06h298.8v-332.53c0-20.11-15.19-36.4-33.95-36.4H1902.8c-18.8 0-33.95 16.29-33.95 36.4Z" style="fill:#ea8165"></path>
    <path d="M2273.93 2202.78c-4 13.15-12.88 22.65-23.57 22.65H1957c-11.34 0-21.36-11-24.7-27.13l-58-280.23H2212c11.88 0 22.23 12 25.09 29.22l38.34 230.43a55.5 55.5 0 0 1-1.5 25.06Z" style="fill:#f9b78a"></path>
    <path d="M2273.93 2202.78c-4 13.15-12.88 22.65-23.57 22.65H1957c-11.34 0-21.36-11-24.7-27.13l-58-280.23h15l55.91 259c3.3 15.3 12.87 25.67 23.66 25.67Z" style="fill:#ef997b"></path>
    <path d="m1893.49 1918.08-.44 1.52-2 6.81-8.75 30.49-13.49 46.92-55.81 194.49c-4.63 16.12-18.54 27.12-34.28 27.12h-407.2c-14.83 0-27.14-9.49-32.71-22.64a40.68 40.68 0 0 1-2.11-25.06l53.21-230.44c4-17.17 18.33-29.21 34.83-29.21Z" style="fill:#fccd89"></path>
    <path d="m1893.49 1918.08-.44 1.52-2 6.81-8.75 30.49-13.49 46.92-55.81 194.49c-4.63 16.12-18.54 27.12-34.28 27.12h-407.2c-14.83 0-27.14-9.49-32.71-22.64h423.41c15 0 28.26-10.37 32.85-25.68l77.6-259Z" style="fill:#f9b78a"></path>
    <rect width="265.55" height="196.28" x="1485.11" y="2329.5" rx="18.67" style="fill:#ef997b"></rect>
    <rect width="265.55" height="196.28" x="1462.98" y="2329.5" rx="18.67" style="fill:#fccd89"></rect>
    <rect width="236.53" height="196.28" x="1929.37" y="2329.5" rx="18.67" style="fill:#ef997b"></rect>
    <rect width="236.53" height="196.28" x="1955.48" y="2329.5" rx="18.67" style="fill:#f9b78a"></rect>
    <path d="M1681.19 2210.87c6.54 0 11.34 6.58 9.76 13.39-4 17.33-11.77 45.52-19.75 47-11.57 2.15-169 2.15-173.52-2.16-3.45-3.29 5.69-33.91 10.21-48.22a10.15 10.15 0 0 1 9.53-7.32h1.16c6.39 0 11.13 6.32 9.82 13-2 10.47-3.72 23.72.47 25.5 7 3 117.68 2.94 122.21 0 3.21-2.09 8.69-21.95 11.61-33.32a10.18 10.18 0 0 1 9.7-7.91Z" style="fill:#fccd89"></path>
    <path d="m1389.91 1947.29-53.21 230.44M1424.74 1918.08h393.47M1393.58 2233.5v309.08M1335.63 2191.25s.89 27.06 24.49 32.21 118.19 0 118.19 0M1893.49 1937.49l-86.7 273.38M1462.98 2376.69v149.61h214.26" style="fill:none;stroke:#ea8165;stroke-linecap:round;stroke-miterlimit:10;stroke-width:6px"></path>
    <path d="m2158 1199.62-112.55-175.49a3.51 3.51 0 0 0-4.74-1.32l-6.27 3.56a4.6 4.6 0 0 0-1.28 6.48L2152 1204.79c2.22 3.2 6.75 1.42 6.75-2.65a4.69 4.69 0 0 0-.75-2.52ZM2163.73 1210.18l2.8-160.54a4 4 0 0 1 3.78-4.2h14.19c2.25 0 4 2.22 3.76 4.75l-15.39 160.53a4 4 0 0 1-3.76 3.82h-1.6a4.06 4.06 0 0 1-3.78-4.36Z" style="fill:#92b1dd"></path>
    <path d="M2286.4 1197.51a95.45 95.45 0 0 1-40.28 1.11 2.6 2.6 0 0 0-2.81-1.63l-3 .35q-4.31-1.11-8.54-2.62c1.35-2 .5-6-2.53-6.44-4.41-.59-9.53-1.35-15-2-15.38-9.37-28.23-22.14-46.34-25.19a94.75 94.75 0 0 0-27.66-.67c-7-8-14.58-15.09-24.21-18.89-19.16-7.55-47.52-1.32-63 13.34-12.71 12-18.25 30.22-21.74 48.31a150.61 150.61 0 0 0-24 12.41c-3.72 2.38-.38 8.89 3.35 6.5a143.45 143.45 0 0 1 19.15-10.21c-.35 2.11-.69 4.22-1 6.29-.74 4.74 5.65 6.77 6.4 2 .57-3.68 1.18-7.48 1.86-11.3 17.44-6.71 35.81-10.29 54.37-12-3.05 5.24-5.86 10.66-8.58 15.95-2.11 4.09 3.28 7.77 5.54 4.08-1.3 12.62 6.81 19.42 13.39 32 2.18 4.17 7.91.39 5.73-3.79-6-11.54-16.38-20-10.49-34.82a29.55 29.55 0 0 1 11.61-14.53c10.95-.42 21.88-.35 32.62-.07 1.56 0 3.12.1 4.68.17-18 6.42-31.76 23-36.72 44.45-1.08 4.69 5.31 6.69 6.39 2 .23-1 .51-1.92.78-2.88 1.12 1.65 3.22 2.36 4.78.37a30.78 30.78 0 0 1 11.39-8.86 55.38 55.38 0 0 0 .34 6.65c.53 4.74 7.17 4.8 6.63 0a53.44 53.44 0 0 1-.24-9.2h.1q2.88-.17 5.75-.46c-2.11 6.41-2.12 13.81 1.05 22.14 1.69 4.44 7.41.61 5.73-3.8-2.82-7.4-2.15-13.78.55-19.11.08 22.53 10.52 47.29 33.16 45.07 16.12-1.58 30.92-23.93 27.37-42.28 2.37.5 4.87 1 7.42 1.42 1.37 1.45 2.71 2.9 4 4.39 1.82 2 4.23.94 5.22-1a283.6 283.6 0 0 0 35.77 17c4 1.58 5.78-5.69 1.77-7.26-6.7-2.63-13.2-5.58-19.58-8.76a49.35 49.35 0 0 0 7.51.66c4.27 0 4.27-7.49 0-7.53a43.11 43.11 0 0 1-5.49-.41 16.7 16.7 0 0 0 1.67-1.35c4.88 1 9.75 2 14.61 3.07 4.17.94 6-6.31 1.76-7.26q-6.06-1.37-12.14-2.59a4.25 4.25 0 0 0-.15-2.14c11.62 3.64 22.9 4 27.94-9.92a3.45 3.45 0 0 0 0-2.49c1.63-.32 3.26-.65 4.88-1 4.16-1.03 2.39-8.28-1.77-7.27Zm-65.72 2a120.79 120.79 0 0 0-17.41-1.19c-1.66-1.56-3.33-3-5-4.44q8.13-.11 16.22.47 4.55 2.65 9.29 4.88Zm-115.39-10.86c6.29-8 13.78-14.51 23.41-17.8a68.4 68.4 0 0 1 9.12-2.41c5.77 6.77 11.33 14 17.51 20.31l-1 .54c-.54-.07-1.1-.12-1.65-.18-10.94-4.89-22.71-7-34.43-4.9a36 36 0 0 0-12 4.39Zm87.56 10.15-1.76.2c-1-.16-2-.34-3-.55a70.3 70.3 0 0 0-9.36-3.3 51.28 51.28 0 0 1 6.15-.82 43.28 43.28 0 0 1 7.97 4.44Zm-10.47 12.2c-.83-.9-1.66-1.8-2.52-2.67l.58-.14c2.26-.51 4.54-.93 6.83-1.28 2.38 1.43 4.71 3 7 4.55a32.52 32.52 0 0 0-7-.16Zm-9.58-9.23c.44.2.9.37 1.34.56l-.5.17c-.31-.27-.63-.53-.95-.79Zm-6.57 3.87a55.89 55.89 0 0 0-4.34 2.43 27.09 27.09 0 0 1 2.23-4c.71.53 1.41 1.05 2.11 1.59Zm-15.91 12.59a85 85 0 0 0-9.92 1.87c.19-.83.42-1.65.65-2.47a92.86 92.86 0 0 1 9.73 0Zm8.4-17.5a33.7 33.7 0 0 0-4.18 9.35c-3.56 0-7.11.1-10.64.3a37.32 37.32 0 0 1 5.06-7.65 43.6 43.6 0 0 1 9.76-1.98Zm-22.34 10.27c-1 .12-1.89.27-2.81.46a46.19 46.19 0 0 1 3.95-3c-.41.83-.78 1.69-1.14 2.54Zm-2.46 7.73q-.27 1.13-.48 2.25h-4.87a19.92 19.92 0 0 1 5.35-2.22Zm58.94-38.79 7.62 5.32a88.86 88.86 0 0 0-15.45.76 33.79 33.79 0 0 0-10.78-2 36.07 36.07 0 0 0-11.91 1.66c-.36-.33-.73-.65-1.08-1-5.4-5.24-10.29-11.35-15.25-17.36a72.47 72.47 0 0 1 46.85 12.68Zm-154.23 20.43c3.75-17.37 9.94-34.23 23.77-43.82 11-7.66 27.74-11.28 40.56-10.32 11.61.86 20.83 7.19 29.1 15.75a55 55 0 0 0-16.26 6.8c-7.88 5-14.18 12.26-19.62 20.36-19.57 1.48-39.01 4.7-57.55 11.26Zm80.49 31c.51-1.17 1-2.32 1.6-3.44h.07c.71.07 1.4.09 2.11.15a37.69 37.69 0 0 0-3.78 3.36Zm87.13 6.52c-.81 11.63-8.38 23.71-18.7 26.36-19 4.88-29.53-17.84-29.24-38.4 1.67-.33 3.34-.68 5-1.07a138.29 138.29 0 0 1 21.64.35c.56.79 1.13 1.58 1.66 2.38 2 3 6 1.32 6.34-1.44 3 .42 5.95.9 8.94 1.47 1 .19 2.07.41 3.23.67a22.94 22.94 0 0 1 1.13 9.79Zm29.46-13.55-.24-.12.63.1Zm13.75-7a9.1 9.1 0 0 1-.83 1.58q-14.07-2.65-28.21-4.51c-2.65-2.17-5.22-4.49-7.73-6.91 2.64-.14 5.28-.34 7.9-.57 3.15.48 6.29 1 9.38 1.77 5.46 1.29 12.69 4.78 20.14 7.59a3.92 3.92 0 0 0-.65 1.17Zm-1-10.66c-.19-.07-.38-.13-.57-.21a100.16 100.16 0 0 0 28.67.33c-5.13 12.5-20.36 3.06-28.1 0Z" style="fill:#cedbee"></path>
    <path d="m2166.61 1430.11 5.89-197.35h-184.94l33 184.25c1.37 7.62 7.27 13.1 14.12 13.1Z" style="fill:#cedbee"></path>
    <path d="m2172.5 1232.76-52.63-69.55a3.33 3.33 0 0 0-2.93-1.38l-180.22 15c-3.18.27-4.44 4.81-2 7.09l52.81 48.84ZM2172.5 1232.76h140.73L2278.15 1417c-1.46 7.63-7.41 13.08-14.29 13.08h-97.25Z" style="fill:#aec6d3"></path>
    <path d="m2172.5 1232.76 29.35-62.65a5 5 0 0 1 5-3l142.76 15.14c4.42.47 6.24 6.67 3 10.06l-39.32 40.5Z" style="fill:#92b1dd"></path>
    <path d="M2110.76 1400.42h-60.7c-7.92 0-14.74-6.41-16.22-15.24l-15.61-93a20.58 20.58 0 0 1 3.51-15.46 15.75 15.75 0 0 1 12.72-6.8h72.4c8.83 0 16.08 7.84 16.5 17.86l3.9 93a20.09 20.09 0 0 1-4.54 13.83 15.52 15.52 0 0 1-11.96 5.81Zm-76.3-122.92a9.46 9.46 0 0 0-7.62 4.06 12.36 12.36 0 0 0-2.09 9.26l15.6 93c.89 5.28 5 9.12 9.71 9.12h60.7a9.31 9.31 0 0 0 7.16-3.48 12 12 0 0 0 2.72-8.28l-3.9-93c-.25-6-4.59-10.68-9.88-10.68Z" style="fill:#fff"></path>
    <path d="M757.09 825.91 885 867.31l32-61.86s-34-32.09-20.38-88.2c5.48-22.57-10.55-45.22-32.62-61.62-32.81-24.41-79-35.06-88-11.16 0 0 23.18 70.38 2.16 125.91Z" style="fill:#ffb2a8"></path>
    <path d="M791.58 668.76s20.11 100.42 77.9 138.76a60.32 60.32 0 0 0 5.61 3.3l41.9-5.37s-34-32.09-20.38-88.2c5.48-22.57-10.55-45.22-32.62-61.62-42.81-1.28-72.41 13.13-72.41 13.13Z" style="fill:#f27c85"></path>
    <path d="M723.78 648.51c21.1 37.19 57.44 49 57.44 49l174.53-147.23s10.45-92.69-74.56-127.87c-20.22 1.31-43.34 6-69.51 14.93C683 481.46 702.7 611.33 723.78 648.51Z" style="fill:#343468"></path>
    <path d="M741.45 631.68c-1 14.65 29 29.45 29 29.45s11.74 41.79 17 55.22c4.22 10.37 67.04 28.65 101.55 34.72a.65.65 0 0 0 .19 0c24.05 3.07 20.63-16.89 32.78-30.93 12.62-14.62 26.93-54.53 27.83-57a.41.41 0 0 0 0-.13 101.87 101.87 0 0 0 2-14c1.53-27.66-7.7-40.51 2-56.33s.11-50 .11-50l-32.57-2.82s-14.31 15.42-53.46 13-70.09-19.94-75.83-17.67 3.45 45.69 2.25 59.48 6.3 23.71-5.73 23.6-21.6-28.75-36.7-25.41-9.44 24.14-10.42 38.82Z" style="fill:#ffb2a8"></path>
    <ellipse cx="925.68" cy="617.92" rx="11.56" ry="7.51" style="fill:#343a28" transform="rotate(-85.05 925.747 617.902)"></ellipse>
    <ellipse cx="852.56" cy="614.9" rx="11.56" ry="7.51" style="fill:#343a28" transform="rotate(-85.05 852.622 614.895)"></ellipse>
    <path d="M905.14 629.55c-8.76 12.58 7.05 16.54 8.66 26.92 1.05 6.75-4.53 6.62-7.39 10.87-2.24 3.33-6.66-.57-4.42-3.9 1.4-2.08 6-4.06 5.56-7-.21-1.38-3.62-4.68-4.34-5.6a72.43 72.43 0 0 1-4.76-6.11c-4-6.37-1.79-13.25 2.26-19.08 2.29-3.29 6.72.61 4.43 3.9Z" style="fill:#f27c85"></path>
    <path d="M941.46 597.46c.7.44-5.34-8.47-9.93-9.7s-9.21-2.18-10.79.17-3.24 5.52-.5 5.76 14.68-.39 21.22 3.77ZM862.61 585.87s.63 5.1-.56 6.38-6.45-1.12-12.66 1.66-11.62 4.8-11.62 4.8 3.65-7.42 7.88-11.47 16.88-5.88 16.96-1.37Z" style="fill:#343a28"></path>
    <circle cx="921.17" cy="609.85" r="3.91" style="fill:#fff"></circle>
    <circle cx="848.46" cy="607.48" r="3.91" style="fill:#fff"></circle>
    <path d="M769.75 625.94s-11.89-27.94-16.37-24.28-7.49 11.12-7.18 19.22 4.09 19.52 8.89 22 15.16 2 13.31-1.2-12-6.42-9.6-10.92 11.27.59 10.95-4.82Z" style="fill:#f27c85"></path>
    <path d="M967.86 553.22s-91.33-22.64-147.27-2.94-80.18 32.61-96.39 35-23.37-10.28-23.84-15.76c0 0-16.34-137.35 81.85-159.28a135.73 135.73 0 0 1 37.09-2.7c139.15 7.57 149.44 74.55 149.93 104.33.11 5.8.12 10.88.06 15.36-.22 18.46-1.43 25.99-1.43 25.99Z" style="fill:#6cc58d"></path>
    <path d="M967.86 553.22s-91.33-22.64-147.27-2.94-80.18 32.61-96.39 35-23.37-10.28-23.84-15.76c0 0-16.34-137.35 81.85-159.28-11.76 12.09-27.17 30.1-35.59 48.94-14.85 33.24-2.88 96.54.67 94.14s95.72-70.51 222-26.09c-.22 18.46-1.43 25.99-1.43 25.99Z" style="fill:#3e9a83"></path>
    <path d="M735.19 582.55s73.55-56.95 119.64-61.41 113.66 8.41 122.17 14.73 36.06 31.62 31.82 38.32S941.73 545 892.55 549 812 590.46 778.16 591s-42.97-8.45-42.97-8.45Z" style="fill:#abdda8"></path>
    <path d="M764.82 658s15 49.88 19.27 48.5-13.59-45.38-13.59-45.38ZM774.19 607.48s7.33-.12 10.57 3.91 20.16 35.12 20.16 35.12h-9Z" style="fill:#fff"></path>
    <path d="M953.55 668.61c.52 3.74-32.53 78.25-44.07 86.12S797.6 732.2 786.89 719.07c-5.3-6.51-8-19-8.5-31.79 3 3.36 20.78 22 22.47-.51a85.37 85.37 0 0 0-7.73-42.64c9.88-3.26 22.42.25 22.42.25s49.85.94 76.61 2.12 60.84 18.38 61.39 22.11Z" style="fill:#fff"></path>
    <path d="M839.18 667.31c33.23-13.7 67.5-.41 98.63 13.58 1.92.86 2.76-2.56.85-3.42C907 663.25 872.07 650 838.32 663.9c-1.93.79-1.09 4.22.86 3.41ZM858.24 682.72a236.47 236.47 0 0 1 71.25 14.67c2 .74 2.82-2.68.86-3.41a239 239 0 0 0-72.11-14.8c-2.08-.1-2.07 3.44 0 3.54ZM846.35 701c26.17 5.81 51.87 15.61 78.9 14.5 2.07-.08 2.08-3.63 0-3.54-26.74 1.09-52.16-8.63-78-14.38-2-.45-2.9 3-.86 3.42Z" style="fill:#cedbee"></path>
    <path d="M671.25 2461.44S619 2545.94 634 2564s32.18 23.14 70.41 24.14 47.27 12.07 58.34-16.09-9.06-105.94-9.06-105.94ZM933.53 2454.4s-17.85 108.64 5.28 120.71 205.2 17.1 210.23 0-28.17-43.3-60.35-54.85-71.09-31.66-77.29-36.69-9.22-29.17-9.22-29.17Z" style="fill:#343468"></path>
    <path d="M1059.59 1825.1c.21 52.59-35.65 478.69-48.19 602.72-2 20.07-3.45 32.22-4 33.62-4 10.06-67.4 1-75.44 0s-8.39-84.15-22-170.15-15.84-280.62-15.84-305.51-38.48-287.41-38.48-294.2-36.37 165.84-43.92 230.72c-6.53 56.2-39.11 412.46-48.69 517.52-1.48 16.22-2.41 26.45-2.61 28.67-1.51 16.59-83 3-96.56 0s-33.19-235.38-37.72-328.92 21.12-172 27.91-209.72-14.33-67.9-9.8-179.55 19.61-363.59 19.61-363.59l144.18 20.68 251.53 36.09s-.23 320.52.02 381.62Z" style="fill:#2c4fa0"></path>
    <g style="opacity:.63">
      <path d="M710.41 1623.68c-2.26 45.26-4.53 296.46 0 330.41s-6.79 9.05-20.37 67.9-2.26 391.52 13.58 407.36c8 8 34.73 10.2 59.43 10.47-1.48 16.22-2.41 26.45-2.61 28.67-1.51 16.59-83 3-96.56 0s-33.19-235.38-37.72-328.92 21.12-172 27.91-209.72-14.33-67.9-9.8-179.55 19.61-363.59 19.61-363.59l144.18 20.68 1.92 1.3s-97.31 169.73-99.57 214.99Z" style="fill:#273657"></path>
    </g>
    <g style="opacity:.63">
      <path d="M1011.4 2427.82c-2 20.07-3.45 32.22-4 33.62-4 10.06-67.4 1-75.44 0s-8.39-84.15-22-170.15-15.84-280.62-15.84-305.51-38.48-287.41-38.48-294.2l1.27-97.85S896 1809.26 911.82 1893s63.37 110.89 56.58 138-18.11 38.47-20.37 70.16c-2.03 28 29.5 269.68 63.37 326.66Z" style="fill:#273657"></path>
    </g>
    <path d="M1347.2 1150.81c-3.53 6.53-158.94 41.23-171.51 36.21s-34.2-20.63-55.82-43.76c-8.35-8.94-19.93-20.8-31-32-17.57-17.79-33.87-33.88-33.87-33.88-5.55-5.51 85.5-84 85.5-84s6.63 7.48 16 18c21.83 24.47 58.63 65.32 61.45 66 4 1 141.83-6 146.85-5.54s-14.09 72.42-17.6 78.97Z" style="fill:#ffb2a8"></path>
    <path d="M1156.49 1011.35c-19.42 29-47.74 71.11-67.63 99.91-17.57-17.79-33.87-33.88-33.87-33.88-5.55-5.51 85.5-84 85.5-84s6.63 7.48 16 17.97Z" style="fill:#f27c85"></path>
    <path d="M1144 993.83c1 11.12-74.43 90.41-88.52 95-2.81.92-6.87-9.19-11.56-26-8.72-31.1-19.63-85.11-28.88-134.31-10.79-57.52-19.3-108.42-19.3-108.42s40.65 21.9 55.73 39c11.08 12.55 55.18 73.24 78.27 109 1.14 1.77 2.23 3.49 3.25 5.12 6.55 10.44 10.78 18.05 11.01 20.61Z" style="fill:#6cc58d"></path>
    <path d="M1144 993.83c1 11.12-74.43 90.41-88.52 95-2.81.92-6.87-9.19-11.56-26-8.72-31.1-19.63-85.11-28.88-134.31l5.24-16.4s47.13 104.86 49.59 103c2.1-1.6 46.58-36.56 59.86-47 1.14 1.77 2.23 3.49 3.25 5.12 6.56 10.42 10.79 18.03 11.02 20.59Z" style="fill:#3e9a83"></path>
    <path d="M1144 993.83c1 11.12-74.43 90.41-88.52 95-2.81.92-6.87-9.19-11.56-26l89.08-89.56c6.54 10.39 10.77 18 11 20.56Z" style="fill:#abdda8"></path>
    <path d="M1092.71 1471.17c-1.51 10.56-79.47 43.76-182.07 56.84s-169-8.06-169-14.09-6-76.44-10-64.37-13.08 57.33-22.13 57.33-83.8-43.25-88.18-52.31c-1-2.17 1.3-16 5.46-36.52 6.88-33.71 18.68-85.43 28.4-132.84 8.93-43.5 16.1-83.36 16.1-102.32 0-52.21 10-202.08-2-252.37a213.38 213.38 0 0 0-13.52-38.27 314.13 314.13 0 0 0-34.42-57.52s50-16.87 60-21.89 79.46-35.22 79.46-35.22S860.14 835 892.93 840s17.71-68.41 27.78-62.38 74.2 37.23 79.86 47.29 34.81 136.29 55.93 309.8c18.12 148.84 32.91 282.14 35.79 323.7.48 6.89.63 11.25.42 12.76Z" style="fill:#6cc58d"></path>
    <path d="M836.11 1096.08c-1.28 9.8-2.91 17.46-4.89 21-8.74 15.81-56.13 13.7-77.26-1.31-17.22-12.24-21.38-84.39-22.35-110.72-.21-6-.26-9.62-.26-9.62a6.06 6.06 0 0 1 2.52-1.62c16.4-6.42 95.6 1.23 101.73 5.93 1.2.92 2.11 4.89 2.73 10.85 2.03 19.41 1.14 59.78-2.22 85.49Z" style="fill:#abdda8"></path>
    <path d="M838.33 1010.61c-28.37 0-78.55-3.42-106.72-5.54-.21-6-.26-9.62-.26-9.62 7.17-9.16 97.68-.73 104.25 4.31 1.2.92 2.11 4.89 2.73 10.85Z" style="fill:#fff"></path>
    <path d="m1024.06 1078.88-21.41 137.82s-41.51 23.63-164.32 52.29-183.17 16.22-183.17 16.22c8.93-43.5 16.1-83.36 16.1-102.32 0-52.21 10-202.08-2-252.37a213.38 213.38 0 0 0-13.52-38.27c30.29-17.48 55.57-12.87 61.36 20.65 0 0 9 39.58 16.79 80.93a6.06 6.06 0 0 0-2.52 1.62s0 3.62.26 9.62c1 26.33 5.13 98.48 22.35 110.72 21.13 15 68.52 17.12 77.26 1.31 2-3.56 3.61-11.22 4.89-21 23.23 4.23 48.14 7.37 56.82.91 14.2-10.56 24-37.28 24-37.28Z" style="fill:#3e9a83"></path>
    <path d="M836.11 1096.08c-1.28 9.8-2.91 17.46-4.89 21-8.74 15.81-56.13 13.7-77.26-1.31-17.22-12.24-21.38-84.39-22.35-110.72-.21-6-.26-9.62-.26-9.62a6.06 6.06 0 0 1 2.52-1.62c2.75 14.61 5.33 29.43 7.29 42.81 7.54 51.3 34.7 48.6 57.33 52.22 8.8 1.42 22.86 4.56 37.62 7.24Z" style="fill:#6cc58d"></path>
    <path d="M1092.71 1471.17c-1.51 10.56-79.47 43.76-182.07 56.84s-169-8.06-169-14.09-6-76.44-10-64.37-13.08 57.33-22.13 57.33-83.8-43.25-88.18-52.31c-1-2.17 1.3-16 5.46-36.52 26.11 18.46 58.41 40.3 65.36 40.3 12.08 0 29.43-43.76 44.51-43s20.37 52.05 25.65 66.38 115.71 26.41 130.65 25.65c11.33-.57 138.49-33.21 199.36-49 .45 6.92.6 11.28.39 12.79ZM724.41 793.52S761.78 751 770.83 752s122.72 82.26 125.74 79.35 12.07-71.81 15.59-70.8 33.88 27.11 35 31.15 6.2 20.65-3.36 47.81-16.09 38.72-22.13 32.19-23.74-34.74-25.2-31.46-31.13 40-36.66 39-124.48-59.24-135.4-85.72Z" style="fill:#abdda8"></path>
    <path d="M896.51 840.22s9.11 57.61 12.63 100.36 8.55 58.46 4.53 60.41-5 2.08-6 0-16.5-153.38-16.5-153.38Z" style="fill:#abdda8"></path>
    <circle cx="871.92" cy="907.89" r="8.05" style="fill:#3e9a83"></circle>
    <circle cx="877.46" cy="957.17" r="8.05" style="fill:#3e9a83"></circle>
    <path d="M893.13 1207.74 925 1029.16a12 12 0 0 1 11.79-9.87H1029a12 12 0 0 1 11.72 14.41l-38 183a12 12 0 0 1-12.34 9.52l-86-4.42a12 12 0 0 1-11.25-14.06Z" style="fill:#343468"></path>
    <path d="m848.29 1134.71-8.3 63.37H806c-20.37 0-67.9.75-104.86 3s-104.86-15.09-114.67-20-21.88-4.15-30.18-18.67 3.78-133.35 3.78-133.35l126 27.92 1.43 35.8.08 1.92s25.65 12.82 55.82 16.25c15.21 1.72 41.74 7.74 64.29 13.29 22.22 5.48 40.6 10.47 40.6 10.47Z" style="fill:#ffb2a8"></path>
    <path d="M807.71 1124.27c22.2 5.45 40.58 10.44 40.58 10.44l-8.3 63.37H806c-20.37 0-67.9.75-104.86 3s-104.86-15.09-114.67-20-21.88-4.15-30.18-18.67 3.78-133.35 3.78-133.35l126 27.92 1.43 35.8c-7.31.85-14.9 1.52-22.55 1.92-43.76 2.26-89-13.58-92.79-7.92s-6 63.74 0 68.27 80 24.89 169 26c61.73.84 68.32-34.83 66.55-56.78Z" style="fill:#f27c85"></path>
    <path d="M711 1068.25c-2.35 12.8-4.17 20.6-4.17 20.6s-63.44-.26-108.19-19.17-46.21-17.89-45.85-36.11c0-3 .42-9.45 1.24-18.43 4-42.84 18.68-141.85 62.13-177a30.55 30.55 0 0 1 25-6.2c20 3.92 57.62 17.88 72.66 67.75 15.53 51.59 4.03 131.24-2.82 168.56Z" style="fill:#6cc58d"></path>
    <path d="M711 1068.25c-2.35 12.8-4.17 20.6-4.17 20.6s-63.44-.26-108.19-19.17-46.21-17.89-45.85-36.11c0-3 .42-9.45 1.24-18.43 17.45 9.88 41.86 21.33 75.54 33a467.43 467.43 0 0 0 81.43 20.11Z" style="fill:#abdda8"></path>
    <path d="M1006.26 1170.6a40.64 40.64 0 0 1 10.71-2c4.75 0 6.65 5 5.06 11s-14.25 13.37-14.25 13.37c5.39 0 7.29 4 6.65 10.7s-27.23 17-37.37 17.38-47.19-13.7-54.79-15.62-71.58.58-79.81 0-17.42 7.94-23.44 6.6-7.29-5.69-8.87-34.44 1.27-47.47 3.8-56.83 30.09-1.67 30.09-1.67 39.27 12 55.43 12 26.92-11.7 38.63-19.51 28.19-7.9 30.73-7.9 8.86 1 7.91 7.9-5.38 7.14-11.71 10.15-20 3-18.06 8c1.76 4.65 25 10.45 35.7 7.81a12 12 0 0 0 2.31-.78c9.18-4.35 23.12-16 29.45-6 6.17 9.76-9.59 17-10.41 17.37a122.16 122.16 0 0 1 12-2.33c7-1 10.13 8.69 6.56 14-3.43 5.26-15.39 10.41-16.32 10.8Z" style="fill:#fccd89"></path>
    <path d="M982.12 1160.37c-9.77 0-20-5.5-20.48-5.77a1.57 1.57 0 0 1-.55-1.74c.19-.68.75-1 1.24-.76.14.08 14.16 7.63 24.57 5.06a41.8 41.8 0 0 0 17.78-10 .8.8 0 0 1 1.33.29 1.7 1.7 0 0 1-.21 1.87 42.73 42.73 0 0 1-18.57 10.49 21.25 21.25 0 0 1-5.11.56ZM985.16 1182.89c-10 0-21.45-7.25-22-7.6a1.59 1.59 0 0 1-.47-1.77c.22-.67.78-1 1.26-.66.15.09 14.47 9.17 24.55 7s17.74-10.25 17.82-10.33a.78.78 0 0 1 1.33.25 1.71 1.71 0 0 1-.18 1.87c-.32.35-8.09 8.6-18.69 10.85a17.39 17.39 0 0 1-3.62.39ZM986.21 1203.53c-6.77 0-20.05-4.44-20.64-4.64a1.43 1.43 0 0 1-.71-1.61c.13-.72.64-1.16 1.15-1 .15 0 14.86 4.94 21 4.53s20.56-8.94 20.71-9c.48-.29 1 0 1.25.71a1.58 1.58 0 0 1-.51 1.75c-.61.36-14.92 8.79-21.36 9.25q-.41.01-.89.01Z" style="fill:#e99c82"></path>
    <path d="M1006.26 1170.6a40.64 40.64 0 0 1 10.71-2c4.75 0 6.65 5 5.06 11s-14.25 13.37-14.25 13.37c5.39 0 7.29 4 6.65 10.7s-27.23 17-37.37 17.38c10.43-33.6 8.3-65.56 5.61-83.46a12 12 0 0 0 2.31-.78c9.18-4.35 23.12-16 29.45-6 6.17 9.76-9.59 17-10.41 17.37a122.16 122.16 0 0 1 12-2.33c7-1 10.13 8.69 6.56 14-3.43 5.21-15.39 10.36-16.32 10.75Z" style="fill:#e99c82;opacity:.48"></path>
    <rect width="567.06" height="57.79" x="1203.14" y="1122.69" rx="3.92" style="fill:#aec6d3" transform="rotate(-180 1486.67 1151.59)"></rect>
    <rect width="584.33" height="33.71" x="1194" y="1122.69" rx="4.5" style="fill:#cedbee" transform="rotate(-180 1486.16 1139.55)"></rect>
    <path d="M1203.14 1156.4h568.33v6.42h-568.33z" style="fill:#83a3b2;opacity:.78" transform="rotate(-180 1487.305 1159.615)"></path>
    <rect width="567.06" height="57.79" x="1180.33" y="1180.48" rx="3.92" style="fill:#aec6d3" transform="rotate(-180 1463.86 1209.375)"></rect>
    <rect width="584.33" height="33.71" x="1171.18" y="1180.48" rx="4.5" style="fill:#cedbee" transform="rotate(-180 1463.35 1197.34)"></rect>
    <path d="M1180.33 1214.19h568.33v6.42h-568.33z" style="fill:#83a3b2;opacity:.78" transform="rotate(-180 1464.495 1217.405)"></path>
    <rect width="567.06" height="57.79" x="1202" y="1237.26" rx="3.92" style="fill:#aec6d3" transform="rotate(-180 1485.525 1266.15)"></rect>
    <rect width="584.33" height="33.71" x="1192.85" y="1237.26" rx="4.5" style="fill:#cedbee" transform="rotate(-180 1485.02 1254.11)"></rect>
    <path d="M1202 1270.97h568.33v6.42H1202z" style="fill:#83a3b2;opacity:.78" transform="rotate(-180 1486.16 1274.175)"></path>
    <rect width="567.06" height="57.79" x="1181.35" y="1293.01" rx="3.92" style="fill:#aec6d3" transform="rotate(-180 1464.875 1321.905)"></rect>
    <rect width="584.33" height="33.71" x="1172.2" y="1293.01" rx="4.5" style="fill:#cedbee" transform="rotate(-180 1464.365 1309.87)"></rect>
    <path d="M1181.35 1326.72h568.33v6.42h-568.33z" style="fill:#83a3b2;opacity:.78" transform="rotate(-180 1465.51 1329.935)"></path>
    <rect width="567.06" height="57.79" x="1159.9" y="1349.79" rx="3.92" style="fill:#aec6d3" transform="rotate(-180 1443.435 1378.68)"></rect>
    <rect width="584.33" height="33.71" x="1150.76" y="1349.79" rx="4.5" style="fill:#cedbee" transform="rotate(-180 1442.925 1366.64)"></rect>
    <path d="M1159.9 1383.5h568.33v6.42H1159.9z" style="fill:#83a3b2;opacity:.78" transform="rotate(-180 1444.07 1386.705)"></path>
    <rect width="567.06" height="57.79" x="1195.57" y="1406.56" rx="3.92" style="fill:#aec6d3" transform="rotate(-180 1479.1 1435.455)"></rect>
    <rect width="584.33" height="33.71" x="1186.43" y="1406.56" rx="4.5" style="fill:#cedbee" transform="rotate(-180 1478.595 1423.415)"></rect>
    <path d="M1195.57 1440.27h568.33v6.42h-568.33z" style="fill:#83a3b2;opacity:.78" transform="rotate(-180 1479.735 1443.48)"></path>
    <rect width="567.06" height="57.79" x="1226.66" y="1463.33" rx="3.92" style="fill:#aec6d3" transform="rotate(-180 1510.185 1492.225)"></rect>
    <rect width="584.33" height="33.71" x="1217.51" y="1463.33" rx="4.5" style="fill:#cedbee" transform="rotate(-180 1509.68 1480.185)"></rect>
    <path d="M1226.66 1497.04h568.33v6.42h-568.33z" style="fill:#83a3b2;opacity:.78" transform="rotate(-180 1510.82 1500.25)"></path>
    <rect width="567.06" height="57.79" x="1180.6" y="1520.1" rx="3.92" style="fill:#aec6d3" transform="rotate(-180 1464.13 1549)"></rect>
    <rect width="584.33" height="33.71" x="1171.46" y="1520.1" rx="4.5" style="fill:#cedbee" transform="rotate(-180 1463.62 1536.96)"></rect>
    <path d="M1180.6 1553.81h568.33v6.42H1180.6z" style="fill:#83a3b2;opacity:.78" transform="rotate(-180 1464.765 1557.025)"></path>
    <rect width="567.06" height="57.79" x="1216.15" y="1576.88" rx="3.92" style="fill:#aec6d3" transform="rotate(-180 1499.68 1605.77)"></rect>
    <rect width="584.33" height="33.71" x="1207.01" y="1576.88" rx="4.5" style="fill:#cedbee" transform="rotate(-180 1499.175 1593.73)"></rect>
    <path d="M1216.15 1610.59h568.33v6.42h-568.33z" style="fill:#83a3b2;opacity:.78" transform="rotate(-180 1500.315 1613.8)"></path>
    <path d="M1328.59 1122.69s67.43 51.65 151.15 78.61 137 26.45 133-46.47Z" style="fill:#92b1dd;opacity:.5"></path>
    <path d="M1328.59 1122.69s89.27 16.34 94.55 19.46 32.24 20.68 32.24 20.68l25.59 4.07s4.78-27 10.82-27.35 46.55 48 46.55 48h67.28s10-63.37-43.25-89-233.78 24.14-233.78 24.14Z" style="fill:#92b1dd"></path>
    <path d="M1328.59 1122.69s10.05-43.81 16.09-54.37 16.6-3.77 24.89-3.77 55.83 5.51 84.5-2.15 64.87-12.5 73.93-10.08c0 0 59.6 33.1 74.18 42.16s10.56 40.73 10.56 60.35-3 36.2-11.06 32.69-13.08-19.62-13.08-19.62 2.52 17-6 20.09-21.63 1.54-23.14-8l-1.51-9.55s-4.52 14.58-10.06 17.1-13.58-.51-16.09-5-2.51-22.13-8.55-38.73-34.37-24.79-36.55-23.21-5.7 8.12-6.2 16.67 7.54 29.17.5 29.68-26.15 0-31.68-9.56-2.52-15.09-11.57-23.13-109.16-11.57-109.16-11.57Z" style="fill:#fccd89"></path>
    <path d="M1557.92 1170.42s-2.51-37.72-5.53-44.26-19.11-16.09-19.11-16.09 19.11 4.52 22.63 16.59 6.46 58.92 6.46 58.92-4.12-10.66-4.45-15.16ZM1588.6 1167.9s-3-39.23-4.53-45.26S1571 1106 1571 1106s16.09 5.89 17.6 14.51 4.52 57.7 4.52 57.7Z" style="fill:#e99c82"></path>
    <rect width="790.61" height="556.9" x="1137.97" y="341.55" rx="46.77" style="fill:#cedbee"></rect>
    <path d="M1910.48 407.15v425.69c0 23.74-20 43-44.63 43h-665.14a45.7 45.7 0 0 1-23-6.11 44.14 44.14 0 0 1-11-9 41.87 41.87 0 0 1-10.7-27.9V407.15a41.21 41.21 0 0 1 1.27-10.18c4.73-18.82 22.36-32.79 43.36-32.79h665.14a45.64 45.64 0 0 1 23.93 6.7 44 44 0 0 1 10.69 9.16 41.7 41.7 0 0 1 10 27.11Z" style="fill:#f5f5f7"></path>
    <path d="m1910.48 568.58-66.42 54.69-130.77-116.42L1900.47 380a44 44 0 0 0-10.69-9.16l-186.94 126.7L1553 364.18h-20.4l82.91 73.82L1484 533.89l-180.75-169.71h-19.86L1483 551.5l142.94-104.28 65.34 58.18-276.68 187.44-258.52-258.33v19.19l247.06 246.9-236.36 160.14a44.14 44.14 0 0 0 11 9l298.68-202.37 147.37 136.88-94.83 71.56h22.54l82.42-62.22.18.18 209.61-172.63 66.77 59.43v-18.18l-56.16-50 56.16-46.25Zm-275.84 227.15L1488 659.51l213.73-144.8L1833.45 632Z" style="fill:#fff"></path>
    <path d="m1543.1 664.26 95.4 87.8a10.49 10.49 0 0 0 13.41.67l81-60.91a10.49 10.49 0 0 0 1.36-15.55L1651 587.2a10.5 10.5 0 0 0-13.49-1.56l-93.14 62.17a10.49 10.49 0 0 0-1.27 16.45Z" style="fill:#fff"></path>
    <g style="opacity:.59">
      <path d="m1741.78 620.92 19.59-18.84a8.88 8.88 0 0 1 11.88-.38l24.31 20.58a8.86 8.86 0 0 1-.65 14l-34.08 23.75a8.87 8.87 0 0 1-11.5-1.16l-10.16-10.7a19.36 19.36 0 0 1 .61-27.25Z" style="fill:#aec6d3"></path>
    </g>
    <path d="m1423.08 542.91-63.9 50.77a10.46 10.46 0 0 1-14-.95L1157.35 397c4.73-18.82 22.36-32.79 43.36-32.79h62.6L1424 527.39a10.45 10.45 0 0 1-.92 15.52Z" style="fill:#fff"></path>
    <path d="m1228.5 875.81 241.41-151.03 84.49 70.95-95.05 80.08H1228.5z" style="fill:#dfe9f4"></path>
    <g style="opacity:.59">
      <path d="M1910.48 786.15v46.69c0 23.74-20 43-44.63 43h-242l202.17-151Z" style="fill:#dfe9f4"></path>
    </g>
    <path d="m1335.63 364.18 139.83 120.47a15.57 15.57 0 0 0 18.9 1.09l69.19-46.93a15.56 15.56 0 0 0 2.34-23.82l-50.21-50.81Z" style="fill:#dfe9f4"></path>
    <g style="opacity:.59">
      <path d="m1401.44 623.36 57.87-42.13a10.45 10.45 0 0 1 14.32 1.93l15 18.79a10.45 10.45 0 0 1-2.14 15.07l-56.24 39.63a10.44 10.44 0 0 1-13.33-1.08l-16.64-16.29a10.46 10.46 0 0 1 1.16-15.92Z" style="fill:#dfe9f4"></path>
    </g>
    <path d="M1505.28 555.05 1617.11 477a10.45 10.45 0 0 1 12.85.69l20.29 17.69a10.45 10.45 0 0 1-1.19 16.66l-117.87 76.16a10.45 10.45 0 0 1-13.43-1.78l-14.26-15.78a10.46 10.46 0 0 1 1.78-15.59Z" style="fill:#dfe9f4"></path>
    <g style="opacity:.93">
      <path d="m1833.6 364.18-124.67 73.63-85.89-73.63h210.56z" style="fill:#dfe9f4"></path>
    </g>
    <g style="opacity:.93">
      <path d="m1156.08 492.43 184.07 194.63-184.07 129.76V492.43z" style="fill:#cedbee"></path>
    </g>
    <g style="opacity:.93">
      <path d="m1674.7 561.82 25.23-19.56a10.48 10.48 0 0 1 13.37.43l30.39 26.84a10.49 10.49 0 0 1 .47 15.28l-22.74 22.74a10.49 10.49 0 0 1-14.49.33l-32.88-30a10.5 10.5 0 0 1 .65-16.06Z" style="fill:#cedbee"></path>
    </g>
    <g style="opacity:.59">
      <path d="M1910.48 407.15v127.78l-67.9 49-87.51-80.93 154.19-105.86a42 42 0 0 1 1.22 10.01Z" style="fill:#cedbee"></path>
    </g>
    <path d="M1865.85 878.81h-665.14a48.86 48.86 0 0 1-24.45-6.51 47 47 0 0 1-11.73-9.57 45 45 0 0 1-11.45-29.89V407.15a44.39 44.39 0 0 1 1.36-10.92c5.19-20.63 24.22-35.05 46.27-35.05h665.14a48.76 48.76 0 0 1 25.5 7.14 47.59 47.59 0 0 1 11.42 9.78 45.31 45.31 0 0 1 9.4 18.32 44.4 44.4 0 0 1 1.31 10.73v425.69c0 25.35-21.37 45.97-47.63 45.97Zm-665.14-511.63c-19.29 0-35.93 12.55-40.45 30.52a37.94 37.94 0 0 0-1.18 9.45v425.69a39 39 0 0 0 9.94 25.91 41.19 41.19 0 0 0 10.24 8.36 42.88 42.88 0 0 0 21.45 5.7h665.14c23 0 41.63-17.93 41.63-40V407.15a38.12 38.12 0 0 0-1.14-9.29 38.61 38.61 0 0 0-8.16-15.88 40.82 40.82 0 0 0-10-8.54 42.66 42.66 0 0 0-22.36-6.26Z" style="fill:#aec6d3"></path>
    <path d="m1168.46 863.23-3.37-4.97 526.39-356.65 1.75 1.55 219.24 195.17-3.99 4.48-217.5-193.61-522.52 354.03z" style="fill:#aec6d3"></path>
    <path d="M1340.15 372.89a69.07 69.07 0 0 0-69.07 69.11c0 28.31 38 95.89 57.66 128.87a13.28 13.28 0 0 0 22.83 0c19.62-33 57.66-100.56 57.66-128.87a69.07 69.07 0 0 0-69.08-69.11Zm0 97.46a31.23 31.23 0 1 1 31.23-31.23 31.23 31.23 0 0 1-31.23 31.23ZM1533.28 674.32a46.69 46.69 0 0 0-46.7 46.69c0 19.14 25.72 64.83 39 87.12a9 9 0 0 0 15.43 0c13.27-22.29 39-68 39-87.12a46.69 46.69 0 0 0-46.73-46.69Zm0 65.88a21.11 21.11 0 1 1 21.11-21.11 21.11 21.11 0 0 1-21.11 21.11ZM1708.94 406a46.7 46.7 0 0 0-46.7 46.7c0 19.14 25.72 64.82 39 87.12a9 9 0 0 0 15.43 0c13.27-22.3 39-68 39-87.12a46.69 46.69 0 0 0-46.73-46.7Zm0 65.89a21.11 21.11 0 1 1 21.1-21.11 21.11 21.11 0 0 1-21.1 21.11Z" style="fill:#69bf8e"></path>
  </g>
</svg>
