<svg xmlns="http://www.w3.org/2000/svg" width="2831.709" height="2379.124" viewBox="84.145 310.438 2831.709 2379.124" id="delivery-man-picking-up-food-parcel-from-the-restaurant">
  <g id="ground">
    <path d="M224.49 2449.93s-46.56-129.57 46.63-192.48 120.3-179 103.36-242.53-137.25-206.75-103.36-367.12 138.94-211.24 167.74-333.26-86.41-216.87 52.53-366.91 259.24-70.71 389.7-205.24 147.63-323.81 635.46-323.81 640.18 135.68 691.65 280.55 47 209.27 123.77 257.56 219.15 128.85 162.67 318.53-121 264.42-46.42 375.29 247.41 167.34 240.63 315-101.68 215.14-13.56 264.22 111.85 224.7 111.85 224.7Z" style="fill:#f5f5f7;opacity:.65"></path>
    <path d="M665.13 1020.88c-27.21 0-49.34-23.77-49.34-53s22.13-53 49.34-53 49.33 23.77 49.33 53-22.13 53-49.33 53Zm0-93.88c-21 0-38.08 18.34-38.08 40.89s17.08 40.9 38.08 40.9 38.07-18.35 38.07-40.9S686.12 927 665.13 927ZM432 1745.86c-20.86 0-37.83-18.23-37.83-40.63s17-40.63 37.83-40.63 37.83 18.22 37.83 40.63-16.96 40.63-37.83 40.63Zm0-69.17c-14.65 0-26.57 12.8-26.57 28.54s11.92 28.53 26.57 28.53 26.56-12.8 26.56-28.53-11.9-28.54-26.56-28.54ZM860.86 1329.91c-19.72 0-35.76-17.23-35.76-38.41s16-38.41 35.76-38.41 35.76 17.23 35.76 38.41-16.04 38.41-35.76 38.41Zm0-64.72c-13.51 0-24.5 11.8-24.5 26.31s11 26.31 24.5 26.31 24.5-11.8 24.5-26.31-10.99-26.31-24.5-26.31ZM1567 599.17c-24.22 0-43.92-21.16-43.92-47.17s19.7-47.18 43.92-47.18 43.94 21.18 43.94 47.18-19.7 47.17-43.94 47.17Zm0-82.26c-18 0-32.66 15.74-32.66 35.09s14.66 35.08 32.66 35.08 32.66-15.74 32.66-35.08-14.66-35.09-32.66-35.09ZM2323.83 1500.41c-19.82 0-35.95-17.32-35.95-38.6s16.13-38.61 35.95-38.61 35.94 17.32 35.94 38.61-16.13 38.6-35.94 38.6Zm0-65.11c-13.61 0-24.68 11.89-24.68 26.51s11.07 26.51 24.68 26.51 24.68-11.9 24.68-26.51-11.07-26.51-24.68-26.51ZM2496 2063.14c-27.09 0-49.12-23.66-49.12-52.75s22-52.75 49.12-52.75 49.11 23.66 49.11 52.75-22.01 52.75-49.11 52.75Zm0-93.41c-20.88 0-37.86 18.24-37.86 40.66s17 40.65 37.86 40.65 37.85-18.23 37.85-40.65-16.96-40.66-37.85-40.66ZM431.76 2500.53a56.18 56.18 0 0 1-11-1.11 7.47 7.47 0 0 1-5.78-8.76 7.34 7.34 0 0 1 8.59-5.91 37.72 37.72 0 0 0 23.18-2.34 7.25 7.25 0 0 1 9.67 3.77 7.53 7.53 0 0 1-3.69 9.87 50.33 50.33 0 0 1-20.97 4.48ZM379.51 2466.14a7.32 7.32 0 0 1-6.51-4c-7.87-15.5-11.87-31-11.87-46a83.9 83.9 0 0 1 1.09-13.46 7.33 7.33 0 0 1 8.42-6.14 7.46 7.46 0 0 1 6 8.6 68.3 68.3 0 0 0-.89 11c0 12.61 3.44 25.77 10.23 39.13a7.55 7.55 0 0 1-3.13 10.07 7.18 7.18 0 0 1-3.34.8Zm16.86-103.26a7.25 7.25 0 0 1-5.34-2.35 7.59 7.59 0 0 1 .32-10.57c13.15-12.64 30.29-23.33 49.56-30.92a7.29 7.29 0 0 1 9.47 4.29 7.53 7.53 0 0 1-4.2 9.66c-17.52 6.89-33 16.53-44.8 27.85a7.21 7.21 0 0 1-5.01 2.04Zm101.36-41.09a7.48 7.48 0 0 1-.32-14.94c1.48-.07 2.95-.12 4.42-.14a720.38 720.38 0 0 0 50.8-2.68 7.47 7.47 0 0 1 1.26 14.89 730.708 730.708 0 0 1-51.81 2.73c-1.33 0-2.68.07-4 .13Zm110.69-9.79a7.37 7.37 0 0 1-7.22-6.28 7.46 7.46 0 0 1 6.06-8.57c18-3 36.21-6.68 54-11a7.32 7.32 0 0 1 8.82 5.54 7.47 7.47 0 0 1-5.42 9 750.465 750.465 0 0 1-55 11.23 7.68 7.68 0 0 1-1.24.08Zm108.08-26.3a7.34 7.34 0 0 1-7-5.21 7.5 7.5 0 0 1 4.75-9.39 743.417 743.417 0 0 0 51.8-19 7.27 7.27 0 0 1 9.52 4.14 7.52 7.52 0 0 1-4.06 9.72c-17.25 7.1-35 13.62-52.82 19.4a7.16 7.16 0 0 1-2.19.32Zm102.69-43.16a7.28 7.28 0 0 1-6.4-3.84 7.56 7.56 0 0 1 2.84-10.17 223 223 0 0 0 39-27.55c1.57-1.4 3.13-2.85 4.64-4.3a7.2 7.2 0 0 1 10.34.31 7.57 7.57 0 0 1-.29 10.56c-1.64 1.58-3.34 3.16-5 4.68a237.93 237.93 0 0 1-41.53 29.37 7.19 7.19 0 0 1-3.6.92Zm79.18-77.54a7.17 7.17 0 0 1-3.6-1 7.54 7.54 0 0 1-2.76-10.18 197 197 0 0 0 19.53-50.72 7.32 7.32 0 0 1 8.82-5.53 7.49 7.49 0 0 1 5.42 9 211.93 211.93 0 0 1-21 54.61 7.27 7.27 0 0 1-6.41 3.82Zm25.37-109a7.39 7.39 0 0 1-7.31-7.07 180.31 180.31 0 0 0-3.79-28.48 216.86 216.86 0 0 0-7-24.84 7.52 7.52 0 0 1 4.48-9.53 7.29 7.29 0 0 1 9.34 4.57 232 232 0 0 1 7.49 26.57 195.45 195.45 0 0 1 4.12 30.9 7.42 7.42 0 0 1-6.91 7.87Zm-33.8-107.21a7.32 7.32 0 0 1-6.53-4.08c-2.93-5.86-6-11.81-8.93-17.57-5.53-10.8-11.25-22-16.51-33.11a7.54 7.54 0 0 1 3.41-10 7.25 7.25 0 0 1 9.77 3.49c5.16 10.93 10.82 22 16.3 32.67 3 5.79 6 11.77 9 17.7a7.56 7.56 0 0 1-3.19 10.06 7.21 7.21 0 0 1-3.32.83Zm-45.45-103.37a7.36 7.36 0 0 1-7.07-5.54 204 204 0 0 1-4.43-21.36 179.27 179.27 0 0 1-2-26.48c0-3.55.1-7.17.31-10.74a7.32 7.32 0 1 1 14.62.89c-.19 3.28-.29 6.59-.29 9.85a163.75 163.75 0 0 0 1.79 24.22 189.62 189.62 0 0 0 4.1 19.74 7.49 7.49 0 0 1-5.17 9.16 7.31 7.31 0 0 1-1.86.25Zm5.92-111.42a7.19 7.19 0 0 1-2.59-.48 7.52 7.52 0 0 1-4.26-9.63 222 222 0 0 1 27.32-51.53 7.22 7.22 0 0 1 10.22-1.66 7.58 7.58 0 0 1 1.63 10.44 207 207 0 0 0-25.47 48 7.33 7.33 0 0 1-6.85 4.86Zm64.43-91a7.24 7.24 0 0 1-5.67-2.74 7.58 7.58 0 0 1 1-10.52 215.35 215.35 0 0 1 20.35-15.06 240 240 0 0 1 28.32-15.8 7.25 7.25 0 0 1 9.72 3.64 7.54 7.54 0 0 1-3.57 9.92 224.62 224.62 0 0 0-26.59 14.84 199.8 199.8 0 0 0-19 14 7.18 7.18 0 0 1-4.56 1.72Zm99.73-47.82a7.36 7.36 0 0 1-7.14-5.87 7.47 7.47 0 0 1 5.58-8.9 294.29 294.29 0 0 1 56.51-6.91 7.48 7.48 0 0 1 .37 15 280 280 0 0 0-53.74 6.55 7.16 7.16 0 0 1-1.58.1ZM1153 1597.33a7 7 0 0 1-1.68-.2c-8.91-2.14-18-3.92-27-5.28a7.46 7.46 0 0 1-6.17-8.49 7.35 7.35 0 0 1 8.32-6.3c9.43 1.43 18.94 3.29 28.25 5.52a7.48 7.48 0 0 1 5.44 9 7.35 7.35 0 0 1-7.16 5.75ZM1957.87 1504.86a7.34 7.34 0 0 1-6.94-5.09 7.52 7.52 0 0 1 4.6-9.47 281.36 281.36 0 0 1 27.83-8 7.32 7.32 0 0 1 8.75 5.65 7.46 7.46 0 0 1-5.53 8.93 267.24 267.24 0 0 0-26.38 7.54 7 7 0 0 1-2.33.44ZM2600.34 2411.62a7.34 7.34 0 0 1-1.31-.12 7.47 7.47 0 0 1-5.9-8.69 165.66 165.66 0 0 0 .2-56.18 7.45 7.45 0 0 1 6-8.63 7.34 7.34 0 0 1 8.46 6.09 181.14 181.14 0 0 1-.22 61.38 7.38 7.38 0 0 1-7.23 6.15Zm-19.28-114.11a7.29 7.29 0 0 1-6.4-3.83 197.28 197.28 0 0 0-33.95-44.9 7.58 7.58 0 0 1-.13-10.57 7.2 7.2 0 0 1 10.35-.13 212.28 212.28 0 0 1 36.51 48.31 7.56 7.56 0 0 1-2.82 10.17 7.1 7.1 0 0 1-3.56.95Zm-81.46-81.9a7.15 7.15 0 0 1-3.59-1 224.01 224.01 0 0 0-9.87-5.35c-13-6.64-26.73-12.11-42-18.06a7.52 7.52 0 0 1-4.23-9.65 7.27 7.27 0 0 1 9.45-4.31c15.64 6.09 29.69 11.71 43.31 18.64 3.54 1.8 7.09 3.73 10.54 5.72a7.57 7.57 0 0 1 2.78 10.18 7.31 7.31 0 0 1-6.39 3.83Zm-106-47.15a7.22 7.22 0 0 1-3.46-.89 163.56 163.56 0 0 1-31.35-21.9 140.89 140.89 0 0 1-15.67-16.68 7.6 7.6 0 0 1 1.06-10.52 7.23 7.23 0 0 1 10.3 1.08 124 124 0 0 0 14 14.92 148.66 148.66 0 0 0 28.58 19.93 7.55 7.55 0 0 1 3 10.12 7.29 7.29 0 0 1-6.46 3.94Zm-71.68-88.63a7.35 7.35 0 0 1-7-5.19 249.26 249.26 0 0 1-10.54-59.84 7.32 7.32 0 1 1 14.61-.91 234 234 0 0 0 9.87 56.17 7.52 7.52 0 0 1-4.73 9.41 7.28 7.28 0 0 1-2.21.36Zm-8.34-117a8.24 8.24 0 0 1-.85 0 7.45 7.45 0 0 1-6.44-8.28c2.3-20.47 5.86-41.11 9-58.84a7.33 7.33 0 0 1 8.51-6 7.47 7.47 0 0 1 5.9 8.69c-3.12 17.5-6.63 37.85-8.87 57.87a7.39 7.39 0 0 1-7.25 6.58Zm18.8-116.58a6.51 6.51 0 0 1-1.07-.08 7.45 7.45 0 0 1-6.18-8.48c3.2-22.14 4.79-40.51 5-57.81a7.39 7.39 0 0 1 7.31-7.38h.09a7.4 7.4 0 0 1 7.23 7.57c-.21 18-1.85 37-5.14 59.8a7.38 7.38 0 0 1-7.24 6.4Zm-.14-117.53a7.37 7.37 0 0 1-7.18-6 295.24 295.24 0 0 0-16.29-55 7.52 7.52 0 0 1 4-9.76 7.26 7.26 0 0 1 9.56 4 310.09 310.09 0 0 1 17.14 57.87 7.48 7.48 0 0 1-5.77 8.78 7.68 7.68 0 0 1-1.46.13Zm-43.86-108.53a7.26 7.26 0 0 1-6.1-3.34 289.46 289.46 0 0 0-35.63-44.53 7.58 7.58 0 0 1 0-10.57 7.2 7.2 0 0 1 10.35 0 303.45 303.45 0 0 1 37.46 46.82 7.57 7.57 0 0 1-2 10.36 7.25 7.25 0 0 1-4.08 1.28Zm-81.38-82.83a7.14 7.14 0 0 1-4-1.21 273.52 273.52 0 0 0-50.09-26.15 7.53 7.53 0 0 1-4.17-9.68 7.26 7.26 0 0 1 9.47-4.25 287.42 287.42 0 0 1 52.77 27.55 7.57 7.57 0 0 1 2.15 10.34 7.29 7.29 0 0 1-6.13 3.4Zm-107-42.72a6.93 6.93 0 0 1-1.28-.12 284.28 284.28 0 0 0-56.18-4.46 7.48 7.48 0 0 1-.29-15 299.14 299.14 0 0 1 59 4.69 7.47 7.47 0 0 1 5.94 8.66 7.37 7.37 0 0 1-7.25 6.23ZM2562.36 2489.18a7.26 7.26 0 0 1-5.11-2.12 7.59 7.59 0 0 1-.13-10.57 128.94 128.94 0 0 0 16.41-21.33 7.24 7.24 0 0 1 10.1-2.34 7.57 7.57 0 0 1 2.29 10.31 144.08 144.08 0 0 1-18.32 23.79 7.22 7.22 0 0 1-5.24 2.26ZM1183.09 1193.51a7.29 7.29 0 0 1-6.26-3.59 7.56 7.56 0 0 1 2.44-10.27 149.69 149.69 0 0 0 21.57-16.24 7.22 7.22 0 0 1 10.33.61 7.59 7.59 0 0 1-.6 10.56 164.68 164.68 0 0 1-23.68 17.84 7.19 7.19 0 0 1-3.8 1.09Z" style="fill:#fff"></path>
    <path d="M974.62 1235.13c-5.66 0-11.17-.13-16.39-.39a7.47 7.47 0 0 1 .71-14.93c5 .25 10.26.37 15.68.37 12.06 0 25.08-.59 41-1.87a7.47 7.47 0 0 1 1.15 14.9c-16.31 1.31-29.7 1.92-42.15 1.92Zm98.9-7.8a7.48 7.48 0 0 1-.93-14.88c21.84-2.89 39.49-6.36 55.53-10.92a7.31 7.31 0 0 1 9 5.2 7.51 7.51 0 0 1-5.09 9.21c-16.74 4.75-35 8.35-57.58 11.33a7.69 7.69 0 0 1-.93.06Zm-171.47-2.95a7.27 7.27 0 0 1-2.45-.43 130.14 130.14 0 0 1-42.4-24.86c-2.94-2.62-5.83-5.45-8.58-8.42a7.58 7.58 0 0 1 .28-10.56 7.21 7.21 0 0 1 10.35.29c2.43 2.62 5 5.11 7.55 7.41a114.21 114.21 0 0 0 37.69 22 7.51 7.51 0 0 1 4.46 9.54 7.35 7.35 0 0 1-6.9 5.03Zm-78.63-80.94a7.31 7.31 0 0 1-6.73-4.52c-1.59-3.76-3.16-7.75-4.68-11.84a278.84 278.84 0 0 1-12.8-45.85 7.47 7.47 0 0 1 5.84-8.73 7.33 7.33 0 0 1 8.55 6 263.44 263.44 0 0 0 12.1 43.33c1.44 3.88 2.94 7.66 4.44 11.22a7.54 7.54 0 0 1-3.83 9.82 7.29 7.29 0 0 1-2.89.57Zm-19.59-114.69a6.18 6.18 0 0 1-.85-.06 7.44 7.44 0 0 1-6.43-8.28 160.36 160.36 0 0 1 8.59-36.86A154.45 154.45 0 0 1 815 962a7.23 7.23 0 0 1 10-2.82 7.55 7.55 0 0 1 2.77 10.18 140.06 140.06 0 0 0-8.9 19.48 144.56 144.56 0 0 0-7.76 33.34 7.37 7.37 0 0 1-7.28 6.57Zm54.44-100.44a7.26 7.26 0 0 1-5.58-2.62 7.59 7.59 0 0 1 .83-10.54 248.44 248.44 0 0 1 49.66-33 7.25 7.25 0 0 1 9.82 3.33 7.54 7.54 0 0 1-3.25 10 234.07 234.07 0 0 0-46.74 31 7.16 7.16 0 0 1-4.74 1.83ZM960 874.49a7.34 7.34 0 0 1-7-5.24 7.51 7.51 0 0 1 4.8-9.37c7.23-2.31 14.73-4.49 22.31-6.47 9.95-2.61 20.81-5.21 34.17-8.19a7.32 7.32 0 0 1 8.71 5.71 7.47 7.47 0 0 1-5.59 8.89c-13.19 2.94-23.87 5.5-33.64 8.06-7.34 1.93-14.6 4-21.59 6.27a7.29 7.29 0 0 1-2.17.34Zm112.22-26.85a7.36 7.36 0 0 1-7.14-5.83 7.48 7.48 0 0 1 5.53-8.93c22.35-5.15 39.32-9.78 55-15a7.29 7.29 0 0 1 9.23 4.78 7.52 7.52 0 0 1-4.69 9.43c-15.94 5.3-33.84 10.19-56.33 15.37a7.59 7.59 0 0 1-1.64.18Zm108.69-38a7.29 7.29 0 0 1-6.43-3.9 7.56 7.56 0 0 1 2.92-10.14c3-1.67 6-3.41 8.85-5.17a265.35 265.35 0 0 0 37-27.61 7.21 7.21 0 0 1 10.32.76 7.57 7.57 0 0 1-.74 10.54 278.29 278.29 0 0 1-39 29.12c-3 1.87-6.2 3.71-9.38 5.49a7.25 7.25 0 0 1-3.58.86Zm87.68-75.4a7.2 7.2 0 0 1-4.83-1.87 7.58 7.58 0 0 1-.66-10.55c13-15 25.59-31.17 36.41-45.12a7.22 7.22 0 0 1 10.28-1.22 7.58 7.58 0 0 1 1.2 10.5c-10.94 14.1-23.71 30.42-36.9 45.72a7.25 7.25 0 0 1-5.54 2.49Zm571.23-8.55a7.35 7.35 0 0 1-7.06-5.53 286.31 286.31 0 0 0-20.08-53.44 7.55 7.55 0 0 1 3.24-10 7.24 7.24 0 0 1 9.83 3.31 301.12 301.12 0 0 1 21.14 56.27 7.38 7.38 0 0 1-7.07 9.43Zm-498.52-82.83a7.19 7.19 0 0 1-4.69-1.74 7.57 7.57 0 0 1-.93-10.52 553 553 0 0 1 39.45-44 7.21 7.21 0 0 1 10.35.17 7.59 7.59 0 0 1-.16 10.57 538.41 538.41 0 0 0-38.4 42.8 7.25 7.25 0 0 1-5.62 2.72Zm447-21.63a7.25 7.25 0 0 1-5.75-2.85 272.27 272.27 0 0 0-39.06-41 7.59 7.59 0 0 1-.94-10.53 7.22 7.22 0 0 1 10.31-1 287.27 287.27 0 0 1 41.14 43.27 7.59 7.59 0 0 1-1.21 10.5 7.2 7.2 0 0 1-4.54 1.61Zm-363.4-58.78a7.29 7.29 0 0 1-6.13-3.38 7.58 7.58 0 0 1 2.12-10.35 270 270 0 0 1 52.73-27.3 7.29 7.29 0 0 1 9.44 4.35 7.53 7.53 0 0 1-4.26 9.64 254.67 254.67 0 0 0-49.89 25.82 7.25 7.25 0 0 1-4.01 1.22Zm275.2-15.66a7.17 7.17 0 0 1-3.31-.82 252.87 252.87 0 0 0-52.36-20 7.49 7.49 0 0 1-5.29-9.09 7.32 7.32 0 0 1 8.91-5.39 266.59 266.59 0 0 1 55.37 21.19 7.54 7.54 0 0 1 3.21 10 7.3 7.3 0 0 1-6.53 4.11Zm-168.26-25.89a7.37 7.37 0 0 1-7.22-6.31 7.46 7.46 0 0 1 6.09-8.55 289.8 289.8 0 0 1 58.92-3.37 7.47 7.47 0 0 1-.65 14.93 275.43 275.43 0 0 0-56 3.21 7.52 7.52 0 0 1-1.14.09ZM1848.74 812.56h-.46a7.42 7.42 0 0 1-6.86-7.91 259.69 259.69 0 0 0 .15-27.91 7.32 7.32 0 1 1 14.62-.74 274.84 274.84 0 0 1-.15 29.56 7.39 7.39 0 0 1-7.3 7ZM1917.56 897.3a7.48 7.48 0 0 1-.82-14.9 281.87 281.87 0 0 1 28.83-1.83 7.48 7.48 0 0 1 .17 14.95 264.54 264.54 0 0 0-27.35 1.74 7.81 7.81 0 0 1-.83.04ZM2014.39 1328a7.35 7.35 0 0 1-7.05-5.5 7.48 7.48 0 0 1 5.12-9.18 354.85 354.85 0 0 0 52.31-19 7.25 7.25 0 0 1 9.68 3.74 7.55 7.55 0 0 1-3.67 9.89 368 368 0 0 1-54.44 19.8 7 7 0 0 1-1.95.25Zm102.61-48a7.25 7.25 0 0 1-6-3.13 7.56 7.56 0 0 1 1.71-10.42l1.3-1a229.36 229.36 0 0 0 39.17-36.8 7.21 7.21 0 0 1 10.32-.8 7.58 7.58 0 0 1 .79 10.54 243.9 243.9 0 0 1-41.7 39.17l-1.38 1a7.17 7.17 0 0 1-4.21 1.44Zm72.89-87.2a7.12 7.12 0 0 1-3.18-.74 7.54 7.54 0 0 1-3.41-10 183 183 0 0 0 16-52.9 7.35 7.35 0 0 1 8.28-6.35 7.46 7.46 0 0 1 6.22 8.46 198.08 198.08 0 0 1-17.37 57.29 7.29 7.29 0 0 1-6.58 4.2Zm14.81-112.66a7.36 7.36 0 0 1-7.16-5.93 183 183 0 0 0-19.49-51.69 7.56 7.56 0 0 1 2.76-10.19 7.25 7.25 0 0 1 10 2.82 198.24 198.24 0 0 1 21.07 56 7.48 7.48 0 0 1-5.64 8.86 7.21 7.21 0 0 1-1.58.09Zm-54.3-100a7.24 7.24 0 0 1-5.27-2.29 245.63 245.63 0 0 0-37.69-32.52c-1.56-1.09-3.12-2.16-4.7-3.22a7.56 7.56 0 0 1-2.11-10.34 7.22 7.22 0 0 1 10.13-2.16q2.51 1.67 5 3.39a260.62 260.62 0 0 1 40 34.47 7.58 7.58 0 0 1-.19 10.57 7.21 7.21 0 0 1-5.21 2.07Zm-93.9-63.45a7 7 0 0 1-2.71-.54 280.44 280.44 0 0 0-53-15.7 7.47 7.47 0 0 1-5.85-8.72 7.34 7.34 0 0 1 8.55-6 295.06 295.06 0 0 1 55.75 16.51 7.52 7.52 0 0 1 4.09 9.71 7.33 7.33 0 0 1-6.87 4.71ZM1930.89 1343.52a7.48 7.48 0 0 1-.75-14.9c9.42-1 18.7-2.21 27.59-3.58a7.33 7.33 0 0 1 8.33 6.27 7.43 7.43 0 0 1-6.14 8.5c-9.11 1.41-18.62 2.65-28.27 3.67a6.45 6.45 0 0 1-.76.04Z" style="fill:#fff"></path>
    <path d="M760.64 2451.05s-12.33-50.83 13-62.17 28.85 16.47 28.85 16.47 4.94-26.62 18.24-24.19 16.94 16.91 16.94 16.91-30.24-58.72 0-77.13 37.49 25.14 37.49 25.14 2.42-21.77 19.35-18.14 19.36 9.68 19.36 9.68-67.74-70.16-48.38-111.28 42-35.21 56.66-4.91l14.7 30.31s23.24-21.77 37-12.1 18.62 33.89 18.62 33.89 9.68-13.32 18.14-7.28 6 20.06 6 20.06 25.82-56.85 56.4-17.64 16.17 93.14 16.17 93.14 60.48-8.56 73.79 30.8 14.51 61.54 14.51 61.54ZM2517.92 2450.74s13.55-55.86-14.28-68.32-31.71 18.1-31.71 18.1-5.42-29.25-20-26.59-18.61 18.59-18.61 18.59 33.24-64.53 0-84.76-41.2 27.63-41.2 27.63-2.66-23.93-21.27-19.94-21.27 10.63-21.27 10.63 74.44-77.1 53.17-122.29-46.13-38.7-62.28-5.39l-16.15 33.3s-25.54-23.92-40.68-13.29-20.46 37.24-20.46 37.24-10.64-14.64-19.94-8-6.65 22-6.65 22-28.38-62.49-62-19.39-17.77 102.36-17.77 102.36-66.46-9.4-81.08 33.85-16 67.63-16 67.63Z" style="fill:#dfe9f4"></path>
    <path d="M2305.67 2011.84c-1.61-25-15.72-70.15-15.72-70.15s-13.31 0-20.57-3.94 5.65-20.25 5.43-24.29-51.39-62.09-76.07-67.73-126.3 49.19-126.3 49.19c20.78 0 108.24 27.41 112.27 36.28s12.1 33.87 17.74 41.94 18.55-12.1 26.61 6.14-7.25 18.85-7.25 18.85 72.57 48.39 75 57.26 10.47-18.55 8.86-43.55Zm-90.8-60.63a10 10 0 1 1 10-10 10 10 0 0 1-10 10Zm55 24a12 12 0 1 1 12-12 12 12 0 0 1-12.04 11.99ZM1082.26 2123s-21.63-150.62-32.92-177.23l-11.29-26.61s-29 11.29-34.67 0-4.84-24.19 4.83-30.64l9.68-6.45s-6.45-24.2-39.51-48.39-112.89-32.25-112.89-28.22 18.51 76.54 29.83 90.26S926 1931.2 926 1931.2s10.49-3.22 17.74 0-.8 18.75-4 20.67 12.9 31.75 38.71 61.59 75.45 97.23 103.81 109.54Z" style="fill:#aec6d3"></path>
    <path d="M2458.29 1883.43c-16.43-32.53-40.68-64.56-99.24-94.37s-108.36-19.89-117.83-14.61-13.19 5.15-16.53 18.31-3.53 15.26-19.13 14.38-1.59-19.77-5.77-26.76-15.56-3.69-47.83 22.33-55.18 101.94-55.18 101.94c44 21.37 143.26-2.27 151.55-5.34s7.22-4.61 2.34-14.81 6.75-24.71 19.36-23.55 13.14 19.4 14.76 26.89 16.75 11 51 22.86 145.62 29.66 147.2 26.73-8.27-21.43-24.7-54ZM2164.75 1838c-5.75-3.12-7.16-11.66-3.14-19.08s11.93-10.91 17.69-7.79 7.16 11.65 3.15 19.07-11.94 10.91-17.7 7.8Zm7.37 48c-3-1.64-4.55-4.69-3.4-6.81s4.53-2.51 7.56-.87 4.55 4.69 3.41 6.81-4.54 2.46-7.57.87Zm38.36-4.06c-8.18-4.42-12.68-11.94-10.06-16.79s11.38-5.18 19.56-.76 12.68 12 10.06 16.79-11.38 5.14-19.56.71Zm50-39.6c-4-2.17-6.41-5.53-5.34-7.5s5.18-1.8 9.2.37 6.4 5.53 5.33 7.5-5.2 1.75-9.21-.42Zm28-34.45c-11.86-6.42-18.13-17.81-14-25.43s17.09-8.6 29-2.18 18.14 17.81 14 25.43-17.12 8.55-28.98 2.13Zm34.59 59.14c-11.07-6-17.39-15.76-14.11-21.82s14.91-6.1 26-.1 17.4 15.76 14.12 21.81-14.91 6.08-25.99.08Zm42.71-30.06c-11.29-6.12-18.58-14.51-16.29-18.75s13.31-2.72 24.6 3.39 18.59 14.5 16.29 18.74-13.29 2.65-24.58-3.43Zm13.27 60.35c-8.33-4.5-13.22-11.6-10.93-15.84s10.91-4 19.24.49 13.22 11.6 10.92 15.84-10.88 3.97-19.21-.54Z" style="fill:#cedbee"></path>
    <path d="M2064 1927.17a2.5 2.5 0 0 1-.18-4.28c6.61-4.33 162.06-106 189.62-107.38s122.17 38.16 160.9 64l37.51 25a2.49 2.49 0 1 1-2.77 4.15l-37.51-25c-37.63-25.1-131.91-64.45-157.88-63.17-21 1-131.58 70.17-187.13 106.57a2.51 2.51 0 0 1-2.56.11Z" style="fill:#aec6d3"></path>
    <path d="M2421.8 1591.69c-39.73-19.32-86.65-32.42-165-18.19s-119.14 60.35-124.41 72.39-8.94 14.65-2.51 29.8 7.8 17.31-7.89 27.92-16.05-17.91-25.22-21.58-17.72 7.85-29.76 56.65 21.6 138.85 21.6 138.85c58.12-11.67 136.55-107.35 142.28-116.4s3.59-9.74-8.6-16-11.62-28.8 1.39-36.94 26.91 9.08 34 15.12 24.22-1.73 66-15.36 162.25-78.27 161.63-82.26-23.78-14.69-63.51-34Zm-316.55 171.64c-7.84 1.22-15.46-6-17-16.1s3.51-19.28 11.35-20.5 15.47 6 17 16.09-3.51 19.29-11.35 20.51Zm42.31 40.85c-4.12.64-7.83-1.18-8.28-4.07s2.53-5.75 6.66-6.39 7.83 1.18 8.28 4.07-2.53 5.75-6.66 6.39Zm34-32.07c-11.14 1.73-21-2.21-22-8.81s7.18-13.36 18.31-15.09 21 2.21 22 8.81-7.14 13.36-18.28 15.09Zm19.15-74.89c-5.47.85-10.24-.63-10.66-3.31s3.68-5.55 9.15-6.4 10.23.64 10.65 3.32-3.65 5.54-9.11 6.39Zm1.76-53.82c-16.15 2.51-30.56-3.87-32.18-14.25s10.18-20.84 26.34-23.35 30.56 3.86 32.17 14.25-10.14 20.83-26.3 23.35Zm76.79 31.66c-15.09 2.35-28.35-2.44-29.64-10.68s9.91-16.83 25-19.18 28.36 2.44 29.64 10.68-9.89 16.83-24.97 19.18Zm19.13-60.35c-15.38 2.39-28.57-.35-29.47-6.13s10.84-12.4 26.22-14.79 28.58.35 29.48 6.13-10.82 12.4-26.2 14.79Zm57.11 48.49c-11.35 1.77-21.27-1.48-22.17-7.26s7.57-11.89 18.91-13.65 21.27 1.49 22.17 7.26-7.54 11.89-18.88 13.65Z" style="fill:#dfe9f4"></path>
    <path d="M2073.52 1923.31a3.1 3.1 0 0 1-1.47-.14 3 3 0 0 1-1.84-3.86c3.19-9 78.52-221.23 104.11-242.78s145.87-52.87 202.21-56.36l54.56-3.39a3 3 0 0 1 .37 6l-54.56 3.38c-54.73 3.41-174.57 34.65-198.69 55-19.48 16.4-75.44 164.27-102.3 240.17a3.06 3.06 0 0 1-2.39 1.98ZM760.65 1989.88c-1 3.13 87.82 71 119.73 87.45s44.74 25 51.22 21 19.95-16 29.39-7.77 7 26.52-3.68 30-12.48 3.74-9 11.79 54.28 95.5 99.67 112.49c0 0 38.88-68.31 35.52-109.25s-8.75-51.37-16.63-49.6-11.88 24.73-23.16 14.13-9.91-12.18-2.74-23.56 4.54-14 1.86-24.38-29.57-52.94-91-74.64-101-17.23-135.55-6.81-54.61 16.01-55.63 19.15Zm282.24 142.57c2.59-7.95 9.69-12.78 15.85-10.77s9.07 10.08 6.49 18-9.68 12.77-15.85 10.77-9.07-10.05-6.49-18Zm-37.52 39.46c.74-2.27 4-3.26 7.21-2.2s5.28 3.75 4.54 6-4 3.26-7.21 2.2-5.28-3.73-4.54-6Zm-31.56-38.86c1.69-5.19 10.17-7.09 18.93-4.24s14.5 9.37 12.81 14.56-10.16 7.1-18.93 4.25-14.49-9.37-12.81-14.57Zm.58-54.72c.68-2.11 4.73-2.69 9-1.29s7.23 4.24 6.54 6.35-4.73 2.69-9 1.29-7.23-4.24-6.54-6.35Zm-6.08-59.59c2.66-8.17 15.12-11.44 27.83-7.31s20.86 14.11 18.21 22.27-15.12 11.44-27.83 7.31-20.86-14.11-18.21-22.27Zm-65.56 19.09c2.11-6.49 13.44-8.62 25.31-4.76s19.78 12.24 17.67 18.73-13.44 8.62-25.31 4.76-19.78-12.25-17.67-18.73Zm-9.14-47.83c1.48-4.54 12.48-5 24.59-1.1s20.71 10.81 19.23 15.35-12.48 5-24.59 1.11-20.71-10.81-19.23-15.36ZM847 2023.57c1.48-4.54 9.91-5.87 18.84-3s15 8.94 13.49 13.48-9.91 5.88-18.84 3-15.02-8.93-13.49-13.48Z" style="fill:#cedbee"></path>
    <path d="M1054.14 2283.73a2.59 2.59 0 0 0 1.21.08 2.48 2.48 0 0 0 2-2.88c-1.4-7.7-34.55-188.78-52.39-209.51s-110.84-61.67-155.85-71.83l-43.59-9.84a2.47 2.47 0 1 0-1.09 4.82l43.59 9.84c43.73 9.88 136.38 50.71 153.19 70.24 13.59 15.78 39.48 142.41 51.27 207.17a2.51 2.51 0 0 0 1.66 1.91Z" style="fill:#aec6d3"></path>
    <path d="M891 2423.06c.31-6.55-5.34-12.31-4.86-18.84.41-5.48 5.19-9.81 10.4-11.53s10.85-1.4 16.33-1.25a5.6 5.6 0 0 0 2.79-.42c2.23-1.2 1.81-4.45 1.41-6.95-1.08-6.89.85-14.47 6-19.17s13.66-5.76 19.23-1.55a205.65 205.65 0 0 1-10.61-47.7c-.62-6.21-.77-13.09 3.13-18 2.82-3.53 7.25-5.31 11.55-6.7 5.3-1.71 10.84-3.07 16.38-2.51s11.09 3.35 13.78 8.22M976.7 2304.5c.15-7.38 5.45-13.88 11.88-17.49s13.89-4.84 21.2-5.87c6.67-.95 13.84-1.7 19.83 1.39 4.49 2.31 7.68 6.47 10.72 10.5M1010.33 2393a10 10 0 0 1 15.42-9.68c.55-13.38-1.87-27.84 5-39.33 2.06-3.44 5.11-6.54 9-7.48 6.58-1.58 13 3.42 16.75 9a41.34 41.34 0 0 1 7 21.38c.14 3.64.46 8.31 3.94 9.41 1 .31 2 .23 3 .5 3.08.84 4.29 4.47 5 7.57M822 2426.5c-.35-3.75-.52-7.52-.53-11.29 0-4.51.26-9.22 2.48-13.14 2.42-4.29 6.93-7.12 11.68-8.44s9.76-1.29 14.68-1M2242 2328.16c-.72-4.74 4-8.37 8.31-10.55 16.34-8.32 35.15-12.59 53.22-9.5s35.16 14.2 43.15 30.7M2315.26 2309c-.36-6.09 3.46-11.84 8.47-15.32s11.08-5.06 17.06-6.28c5.54-1.13 11.25-2 16.83-1.1s11.08 3.86 13.82 8.8M2383.71 2358.18a16.83 16.83 0 0 1 31.86-9.85" style="fill:none;stroke-linecap:round;stroke-miterlimit:10;stroke-width:6px;stroke:#cedbee"></path>
    <path d="M2348.05 2371c-.39-4.09 2.48-7.94 6.08-9.9s7.82-2.42 11.91-2.7q8.49-.58 17-.47c3.29 0 6.69.2 9.65 1.64 4.77 2.32 7.4 7.46 9.54 12.31a240.43 240.43 0 0 1 11.89 33.58 27.91 27.91 0 0 1 43.34 16" style="fill:none;stroke-linecap:round;stroke-miterlimit:10;stroke-width:6px;stroke:#cedbee"></path>
    <path d="M2042.23 712.28v1653.36a81.66 81.66 0 0 1-81.66 81.66h-863.18a81.66 81.66 0 0 1-81.65-81.66V712.28a81.66 81.66 0 0 1 81.65-81.66h863.18a81.66 81.66 0 0 1 81.66 81.66Z" style="fill:#cedbee"></path>
    <path d="M1998.67 753.17v1525.89c0 41.61-33.45 75.36-74.72 75.36H1134c-41.27 0-74.73-33.75-74.73-75.36V753.17c0-41.64 33.46-75.37 74.73-75.37h790c41.22 0 74.67 33.73 74.67 75.37Z" style="fill:#f5f5f7"></path>
    <path d="M950.29 909.89H1095v84.43a52.69 52.69 0 0 1-52.69 52.69H1003a52.69 52.69 0 0 1-52.69-52.69v-84.43ZM1239.64 909.89h144.67v84.43a52.69 52.69 0 0 1-52.69 52.69h-39.3a52.69 52.69 0 0 1-52.69-52.69v-84.43h.01ZM1529 909.89h144.67v84.43A52.69 52.69 0 0 1 1621 1047h-39.3a52.69 52.69 0 0 1-52.7-52.67v-84.44ZM1818.33 909.89H1963v84.43a52.69 52.69 0 0 1-52.69 52.69H1871a52.69 52.69 0 0 1-52.69-52.69v-84.43h.02Z" style="fill:#cedbee"></path>
    <path d="M1095 909.89h144.67v84.43a52.69 52.69 0 0 1-52.69 52.69h-39.3a52.69 52.69 0 0 1-52.68-52.68v-84.44ZM1384.31 909.89H1529v84.43a52.69 52.69 0 0 1-52.7 52.68H1437a52.69 52.69 0 0 1-52.69-52.69v-84.42ZM1673.66 909.89h144.67v84.43a52.69 52.69 0 0 1-52.69 52.69h-39.3a52.69 52.69 0 0 1-52.69-52.69v-84.43ZM1963 909.89h144.67v84.43A52.69 52.69 0 0 1 2055 1047h-39.3a52.69 52.69 0 0 1-52.7-52.67v-84.44Z" style="fill:#aec6d3"></path>
    <path d="M1786.32 677.8c14.08 63.75 32.09 158.45 31.51 232.09h-144.18c.33-9.52 6.9-117.93-30.63-232.09ZM2107.68 909.89h-145.17S1928.4 770 1869.77 677.8h78.85s93.74 21.64 159.06 232.09ZM1239.64 909.89H1095s34.07-139.89 92.7-232.09h83.45c-14.08 63.75-32.09 158.45-31.51 232.09ZM1529 677.8v232.09h-144.69c-.32-9.52-6.89-117.93 30.63-232.09Z" style="fill:#cedbee"></path>
    <path d="M1187.7 677.8c-58.63 92.2-92.7 232.09-92.7 232.09H950.29c65.31-210.45 159-232.09 159-232.09ZM1384.31 909.89h-144.67c-.58-73.64 17.43-168.34 31.51-232.09h143.79c-37.52 114.2-30.94 222.57-30.63 232.09ZM1817.83 909.89c.58-73.64-17.43-168.34-31.51-232.09h83.45c58.63 92.19 92.74 232.09 92.74 232.09ZM1673.65 909.89H1529V677.8h114c37.55 114.2 31 222.57 30.65 232.09Z" style="fill:#f5f5f7"></path>
    <path d="M1242.66 912.89h-151.52l.91-3.71c.34-1.41 34.9-141.44 93.12-233l.88-1.39h88.83l-.8 3.64c-21.31 96.51-31.89 174.37-31.44 231.42Zm-143.84-6h137.8c-.06-56.49 10.29-132.51 30.8-226.09h-78.07c-51.89 82.37-84.67 203.44-90.53 226.09ZM1532 912.89h-150.58l-.1-2.9c0-.4 0-1-.07-1.72-1.58-36.56-1.74-132.3 30.84-231.41l.68-2.06H1532Zm-144.79-6H1526V680.8h-108.88c-31.27 96.44-31.43 189.32-29.93 226.09Z" style="fill:#aec6d3"></path>
    <path d="M2111.75 912.89H946.43l1-3.74a613.43 613.43 0 0 1 39-103.49c15.31-31.37 32.13-57.87 50-78.77 22.49-26.31 46.75-43.79 72.09-51.95l.45-.14h840.29c1 .18 24.41 4.7 56.16 36.09 28.94 28.61 70.69 86.2 105.23 198.07Zm-1157.54-6H2103.6c-33.77-107.63-74-163.33-102-191.17-28.89-28.76-50.84-34.37-53.32-34.92h-838.46c-54.92 18-94.5 79.15-118 127.4a616.35 616.35 0 0 0-37.61 98.69Z" style="fill:#aec6d3"></path>
    <path d="m1242.64 910-6-.25c.07-1.58 6.86-159.34 31.66-232.92l5.69 1.92c-24.53 72.78-31.29 229.69-31.35 231.25ZM1387.31 909.91h-6c0-6.79 1.32-167 30.89-233.29l5.48 2.44c-29.06 65.15-30.36 229.2-30.37 230.85ZM1525.98 677.8h6v232.09h-6zM1676.62 910.32l-5.94-.86c11.35-77.83-30.14-229.34-30.56-230.86l5.79-1.6c1.73 6.26 42.24 154.24 30.71 233.32ZM1820.83 910.09l-6-.4c4.18-63.21-31.09-229.59-31.45-231.27l5.87-1.25c1.47 6.83 35.81 168.83 31.58 232.92ZM1959.53 910.28c-12.82-98.58-91.53-229.62-92.33-230.93l5.14-3.11c.8 1.33 80.15 133.43 93.14 233.26ZM1045 1050h-44.67a53.06 53.06 0 0 1-53-53v-87.11h6V997a47.05 47.05 0 0 0 47 47H1045a47.05 47.05 0 0 0 47-47v-87.52l.11-.4c.45-1.6 45-160.85 93.14-233l5 3.33c-46.44 69.57-89.75 222-92.24 230.84V997a53.06 53.06 0 0 1-53.01 53Z" style="fill:#aec6d3"></path>
    <path d="M1189.64 1050H1145a53.07 53.07 0 0 1-53-53v-87.11h6V997a47.06 47.06 0 0 0 47 47h44.68a47.06 47.06 0 0 0 47-47v-87.11h6V997a53.07 53.07 0 0 1-53.04 53Z" style="fill:#aec6d3"></path>
    <path d="M1334.31 1050h-44.68a53.07 53.07 0 0 1-53-53v-87.11h6V997a47.06 47.06 0 0 0 47 47h44.68a47.05 47.05 0 0 0 47-47v-87.11h6V997a53.07 53.07 0 0 1-53 53Z" style="fill:#aec6d3"></path>
    <path d="M1479 1050h-44.67a53.06 53.06 0 0 1-53-53v-87.11h6V997a47.05 47.05 0 0 0 47 47H1479a47.05 47.05 0 0 0 47-47v-87.11h6V997a53.06 53.06 0 0 1-53 53Z" style="fill:#aec6d3"></path>
    <path d="M1623.65 1050H1579a53.06 53.06 0 0 1-53-53v-87.11h6V997a47.05 47.05 0 0 0 47 47h44.67a47.05 47.05 0 0 0 47-47v-87.11h6V997a53.06 53.06 0 0 1-53.02 53Z" style="fill:#aec6d3"></path>
    <path d="M1768.33 1050h-44.68a53.07 53.07 0 0 1-53-53v-87.11h6V997a47.05 47.05 0 0 0 47 47h44.68a47.06 47.06 0 0 0 47-47v-87.11h6V997a53.07 53.07 0 0 1-53 53Z" style="fill:#aec6d3"></path>
    <path d="M1913 1050h-44.68a53.07 53.07 0 0 1-53-53v-87.11h6V997a47.06 47.06 0 0 0 47 47H1913a47.06 47.06 0 0 0 47-47v-87.11h6V997a53.07 53.07 0 0 1-53 53Z" style="fill:#aec6d3"></path>
    <path d="M2057.67 1050H2013a53.07 53.07 0 0 1-53-53v-87.11h6V997a47.06 47.06 0 0 0 47 47h44.68a47.06 47.06 0 0 0 47-47v-87.11h6V997a53.07 53.07 0 0 1-53.01 53Z" style="fill:#aec6d3"></path>
    <path d="M1998.67 1082.09v723.32H1604a28.31 28.31 0 0 1-28.3-28.3V1110.4a28.31 28.31 0 0 1 28.3-28.31Z" style="fill:#cedbee"></path>
    <path d="M1998.67 1103.87v679.77h-376.8a26.83 26.83 0 0 1-27-26.6v-626.58a26.82 26.82 0 0 1 27-26.59Z" style="fill:#fff"></path>
    <path d="M1557.35 1082.09h441.32v21.77h-441.32z" style="fill:#cedbee"></path>
    <circle cx="1544.2" cy="1089.5" r="24.34" style="fill:#aec6d3"></circle>
    <path d="M1866.48 1308.2v220.79h132.19v19.94h-132.19v234.71h-19.94v-234.71h-251.69v-19.94h251.69V1308.2h-251.69v-19.96h251.69v-184.37h19.94v184.37h132.19v19.96h-132.19z" style="fill:#dfe9f4"></path>
    <path d="M1699.58 1103.87s4.13 157.26-35.78 225l-39.92 67.73v20.4s17.76 36.4 37.91 153.73 22.57 181.43 12.89 181.43-20.56 24.71-32.66 24.45-12.09-11.14-25.4-11.14-47.17 29.55-54.43 11.14 13.55-359.87 13.55-359.87v-312.9Z" style="fill:#cedbee"></path>
    <rect width="65.01" height="26.6" x="1568.55" y="1395.77" rx="6.5" style="fill:#92b1dd"></rect>
    <path d="M1657 1170.84c4.8 31.52 8.84 63 2.82 94.7a190.15 190.15 0 0 1-34.33 77.84c-1.39 1.87 1.76 3.69 3.14 1.83a192.77 192.77 0 0 0 35.06-80.73c5.69-31.64 1.6-63.14-3.19-94.6-.35-2.3-3.84-1.32-3.5 1ZM1610.39 1219.51a193.87 193.87 0 0 1-9.53 134.61c-1 2.11 2.16 4 3.13 1.84a197.82 197.82 0 0 0 9.9-137.41c-.66-2.24-4.16-1.29-3.5 1ZM1619.05 1453.4a895.93 895.93 0 0 1 33.95 209.3c.1 2.33 3.73 2.34 3.63 0a900.34 900.34 0 0 0-34-210.26c-.64-2.24-4.15-1.29-3.5 1ZM1588.26 1470.44c11.22 15.94 15.2 35.09 17.15 54.17a486.25 486.25 0 0 1 2.17 62 516.7 516.7 0 0 1-18.71 124.69 1.82 1.82 0 0 0 3.5 1 521 521 0 0 0 18.9-128 465 465 0 0 0-2.67-63.76c-2.15-18.37-6.42-36.63-17.21-52-1.33-1.9-4.48-.09-3.13 1.83Z" style="fill:#aec6d3"></path>
    <path d="M1998.67 2088.45v190.61c0 41.61-33.45 75.36-74.72 75.36H1134c-41.27 0-74.73-33.75-74.73-75.36v-190.61Z" style="fill:#fff"></path>
    <path d="M1998.67 1825.42V1858h-501.83a8.42 8.42 0 0 1-8.43-8.43v-15.72a8.42 8.42 0 0 1 8.43-8.43Z" style="fill:#dfe9f4"></path>
    <path d="M1544.05 1858 1509 2091.65h20c6.6 0 70.69-233.65 70.69-233.65ZM1086.2 1627.42h16.22a28.12 28.12 0 0 1 28.07 26.54l13.11 233.77a28.12 28.12 0 0 0 28.07 26.54h117.53v174.18h-49.43l-25.16-55.64h-92.74v55.64h-35.67Z" style="fill:#cedbee"></path>
    <path d="M1059.29 1627.42h16.21a28.11 28.11 0 0 1 28.07 26.54l13.12 233.77a28.11 28.11 0 0 0 28.07 26.54h117.53v174.18h-49.43l-25.16-55.64H1095v55.64h-35.67ZM1534.37 2354.42s-29.43-33.74-16.53-45.83 28.22 16.93 28.22 16.93-38.32-82.25 8.26-95.15 52.22 36.66 52.22 36.66 0-25.37 13.71-24.56 14.52 20.91 14.52 20.91 6.45-45.42 23.38-47.68 17.68 26.77 17.68 26.77 19.41-56.45 53.28-49.19 30 58.06 30 58.06 18.73-25.81 41.14 5.64 8.93 55.64 8.93 55.64 26.71-14.78 37.43-3.23-5.69 45-5.69 45ZM1207.5 2354.42H1134c-41.27 0-74.73-33.75-74.73-75.36v-55.43c5.13-4.53 11.51-7 19.08-4.3 20.27 7.25 18.89 36 18.29 42.67.53-3.26 2.94-11 13.88-9.05 13.79 2.42 0 25.4 0 25.4s15-5.94 33.14 5.5 10.89 51.35 10.89 51.35 35.08-19.22 49.59 0c4.57 6.02 4.97 12.8 3.36 19.22Z" style="fill:#dfe9f4"></path>
    <path d="M1056.29 1044.93h6v1043.52h-6zM1994.74 1043.87h6v1130.35h-6zM1086.2 2085.45h779.31v6H1086.2z" style="fill:#aec6d3"></path>
    <path d="M1688.68 1434.18a3 3 0 0 1-2.12-5.12l89.33-89.33a3 3 0 1 1 4.24 4.24l-89.33 89.33a3 3 0 0 1-2.12.88ZM1699.7 1496.52a3 3 0 0 1-2.15-5.1l104.88-107a3 3 0 0 1 4.29 4.2l-104.88 107a3 3 0 0 1-2.14.9ZM1890.67 1398.77a3 3 0 0 1-1.75-5.44l75.48-53.92a3 3 0 0 1 3.49 4.88l-75.48 53.92a3 3 0 0 1-1.74.56ZM1890.66 1641.56a3 3 0 0 1-1.7-5.47l59.88-41.23a3 3 0 0 1 3.41 4.94l-59.89 41.2a3 3 0 0 1-1.7.56ZM1707.08 1677.75a3 3 0 0 1-1.85-5.36l89.68-70.41a3 3 0 0 1 3.71 4.72l-89.69 70.41a3 3 0 0 1-1.85.64ZM1890.67 1184.09a3 3 0 0 1-2.46-1.28 3 3 0 0 1 .74-4.18l59.88-41.85a3 3 0 0 1 3.43 4.92l-59.87 41.85a3 3 0 0 1-1.72.54ZM1589.67 2357.42a3 3 0 0 1-2.45-1.27c-.65-.92-15.81-22.6-12.86-38.48A17.37 17.37 0 0 1 1582 2306c5.91-3.94 11.62-5.09 17-3.45a19.6 19.6 0 0 1 8.13 5.16c.37-14.38 3.84-38.75 22.9-40.86 18-2 28.15 10.64 32.77 18.81a9.9 9.9 0 0 1 3.38-2.88c3.66-1.91 8.27-1.31 13.67 1.78 10.12 5.78 12.56 15.48 13 21.8 4.77-2.68 11.91-5.39 17.25-1.66 8.09 5.67 4.33 23.16 3.87 25.14a3 3 0 0 1-5.84-1.35c1.46-6.39 2-16.46-1.47-18.87-3.65-2.55-11.73 2.11-15.07 4.77l-6 4.8 1.2-7.62c.09-.59 2.13-15-9.86-21.8-2.42-1.39-5.76-2.8-7.93-1.67-2.43 1.26-2.92 5.31-2.92 5.35l-1.35 14.12-4.49-13.46c-.32-1-8.23-23.65-29.49-21.3-20.81 2.31-17.38 44.33-17.34 44.76l1.74 19.86-7.51-18.47c0-.08-3.61-8.62-10.37-10.68-3.55-1.08-7.53-.17-11.85 2.71a11.44 11.44 0 0 0-5.07 7.79c-2.5 13.4 11.71 33.73 11.86 33.94a3 3 0 0 1-2.45 4.73ZM1819 2340.13a3.34 3.34 0 0 1-.62-.06 3 3 0 0 1-2.31-3.56c0-.2 4-20-6.48-26.12-11-6.43-25.17.06-25.31.12l-5 2.36.8-5.51c.06-.38 5.4-38.72-16.43-50.24-21.32-11.25-34.92 7.22-35.49 8a3 3 0 0 1-4.89-3.48c.17-.24 17.16-23.57 43.18-9.84 20.67 10.91 20.88 39.87 20.06 51.53 6-1.81 16.71-3.64 26.15 1.87 14.28 8.33 9.53 31.56 9.32 32.54a3 3 0 0 1-2.98 2.39Z" style="fill:#cedbee"></path>
    <path d="M1599.67 1855h349.77v6h-349.77zM1097.39 627.62h812.85v6h-812.85z" style="fill:#aec6d3"></path>
    <rect width="317.49" height="275.83" x="2089.64" y="1057.43" rx="15.75" style="fill:#cedbee"></rect>
    <path d="M2042.23 1057.43h386.7a11.41 11.41 0 0 1 11.41 11.41v8.51a11.41 11.41 0 0 1-11.41 11.41h-386.7V1057.43Z" style="fill:#aec6d3"></path>
    <path d="M2345.25 1288.74q-41-38.22-81.84-76.52c-.24-.22-.5-.43-.86-.73.36-.4.64-.73.94-1q9.75-10.39 19.5-20.79a1.6 1.6 0 0 1 1.91-.51c11 3.2 21.44 1.75 31-4.5 15.31-10.05 25.52-24 30.16-41.77a29.75 29.75 0 0 0 .58-13.27c-1.6-8.13-7.6-13.23-15.93-13.76a43.1 43.1 0 0 0-20.21 4c-13.73 6-25 15.06-32.87 28a36.37 36.37 0 0 0-3.94 30.27 1.69 1.69 0 0 1-.35 1.46q-10.93 10.37-21.94 20.63a4.84 4.84 0 0 1-.46.35l-15.46-14.46c1-1 2-1.84 3-2.77a8.89 8.89 0 0 0 .29-12.78c-.86-.94-1.82-1.8-2.7-2.73-12.41-13-26.22-24.57-39.58-36.58-6.76-6.08-13.57-12.1-20.35-18.15-.25-.22-.47-.46-.7-.69h-.25c-.5.63-1 1.27-1.57 2l45.75 45.22-4 3.79-47.25-43.76c-.57.66-1.07 1.25-1.7 2l44.78 46.09-3.73 3.75-46.14-44.81-1.93 1.78 43.82 47.27c-1.32 1.28-2.58 2.5-3.95 3.81l-45.17-45.67-2 1.57v.49a5.23 5.23 0 0 1 .75.56c9.52 10.67 19.09 21.28 28.53 32 9.08 10.35 18.45 20.42 28.35 30a12.93 12.93 0 0 0 1.1 1 8.83 8.83 0 0 0 12.12-.69c1-1 1.88-2 2.89-3l14.18 15.15-.95.85-80.35 75.43a9.83 9.83 0 0 0-.41 14.28c.91 1 1.85 1.88 2.8 2.8a9.83 9.83 0 0 0 14.54-.29c1.71-1.8 3.4-3.61 5.1-5.42q34.92-37.17 69.83-74.37a6.84 6.84 0 0 0 .73-1.32c.57.67.74.9.94 1.11q38.07 40.68 76.13 81.38c2.38 2.56 4.77 4.93 8.45 5.36h1.73c4.24-.52 6.89-3.47 9.39-6.44 1.16-1.38 1.7-3.29 2.51-5v-3c-.71-3.26-2.88-5.44-5.21-7.62Z" style="fill:#fff"></path>
    <path d="M2089.64 1089.5v224.76a19 19 0 0 0 19 19h167.69M2407.13 1116.47v160.66" style="fill:none;stroke-linecap:round;stroke-miterlimit:10;stroke-width:6px;stroke:#aec6d3"></path>
    <path d="M1445.38 1233.38s32.34-26.27 52 .44-9.54 68.32 0 75.88c4.55 3.6 8.86 3.69 12.12 2.79a1.65 1.65 0 0 1 1.73 2.64c-7.91 9.66-26.91 27.21-55.65 18.56-38.79-11.66-38.57-45.75-28.87-65.82s18.67-34.49 18.67-34.49Z" style="fill:#343468"></path>
    <path d="M1456.76 1219.85c-5.71 25-3.42 20.64-3.42 20.64s-22 56.45-49.67 66.79a18.48 18.48 0 0 0-3.93 2c-31.16-9.46-99-57.47-99-57.47s-27.86-38.49-21.22-71.79 42.33-44.12 42.33-44.12 17.32-35.37 75.62-16.46 65 75.46 59.29 100.41Z" style="fill:#343468"></path>
    <path d="M1450.34 1364.34c-.46 1.57-41.47 60-41.47 60s-35.09 11.93-60.43 10.7c-10.78 6-20.32 9.21-26.12 6.48-7-3.3-6.53-14.61-2.77-28.21-6.73-22.18-2.51-55.69 1.69-61.36a14.73 14.73 0 0 1 4.28-3.64c8.33-5 23.2-7.3 26.4-10.21 3.89-3.53 8.36-27 8.36-27h-.11a30 30 0 0 1-9.29 1.31c5.92-1 9.4-1.36 9.4-1.36s28.58-12.29 38.82-25.39c0 0 .41 6.73 1.29 17.19a61.28 61.28 0 0 0 2 9.19c0 .16.08.33.13.49a.93.93 0 0 0 0 .13c2.11 6.74 14.25 24.47 24.91 33.46 2.84 2.4 5.77 4.66 8.55 6.73 8.02 6 14.7 10.33 14.36 11.49Z" style="fill:#ffb2a8"></path>
    <path d="M1383.6 1294.4c-.35 1.4-11.92 46.33-20.67 53.83-2.75 2.34-4.64 4-6 5.1l3-34.14a84.8 84.8 0 0 0 11.22-6.66c6.42-4.35 12.1-17.33 12.45-18.13Z" style="fill:#f27c85"></path>
    <path d="M1435.18 1293.65a27.32 27.32 0 0 0-1.8 4.57c-.22-.66-.43-1.34-.65-2a2 2 0 0 1 2.45-2.57Z" style="fill:#343468"></path>
    <path d="M1435.18 1293.65a27.32 27.32 0 0 0-1.8 4.57c-.22-.66-.43-1.34-.65-2a2 2 0 0 1 2.45-2.57ZM1286.49 1198.68c-5.55 17.72-11.08 39-5.91 57.47a43 43 0 0 0 30.71 29.66c2.72.72 4-3.47 1.27-4.19a38.8 38.8 0 0 1-28.81-31.37c-2.81-16.51 2-34.63 6.94-50.3.84-2.7-3.35-4-4.2-1.27Z" style="fill:#343468"></path>
    <path d="M1432.34 1280.83c-1.53 5.5-8.21 8.11-13.51 9.34a45.48 45.48 0 0 1-6.94 1c-12.37 13.88-46.87 26.88-46.87 26.88s-4.2.35-11.36 1.44c-8.26 0-20.49-1.78-34.91-9.7-7.48-4.1-12-14.16-14.57-26.57q-.56-2.64-1-5.4c-.25-1.54-.48-3.11-.68-4.7-.11-.91-.22-1.83-.31-2.75-.66-6-1-12.27-1.14-18.42-.1-4.39-.08-8.73 0-12.9 0-.91 0-1.83.07-2.72.52-18.71 2.4-33.52 2.4-33.52s12.34-13.3 17.29-17.53l4.93-4.24s3 4.67 29.66 20.9 35.23 16 38.56 17.15 3.87 19.37 7.62 23.77a6.88 6.88 0 0 0 1.87 1.58 3.27 3.27 0 0 0 2.49.35 4.57 4.57 0 0 0 2.3-1.6c3.31-6.22 9.82-9.26 16.29-2.59 8.66 8.99 10.47 30.75 7.81 40.23Z" style="fill:#ffb2a8"></path>
    <path d="M1412.81 1273.22c1.47-1.81 3.19 3.28 3.85 4a5.43 5.43 0 0 0 3.66 1.73c3 .08 5.28-2.37 6.11-5.14 2.08-7-.48-16.87-7.88-19.11-2.54-.77-3.75 3.28-1.2 4.06 4.09 1.23 5.35 5.36 5.49 9.34a13.05 13.05 0 0 1-.33 4.38c-.77 2.54-1.92 2.66-3.47.35a5.86 5.86 0 0 0-.37-1.44c-2.09-3.45-5.87-4.73-8.68-1.29-1.67 2 1.13 5.22 2.82 3.15ZM1332 1275.26a15.25 15.25 0 0 1-2.51-.32 4.69 4.69 0 0 1-1.76-.68 4.93 4.93 0 0 1-1.87-4 12 12 0 0 1 1.81-7 21 21 0 0 1 1.38-1.87 18.52 18.52 0 0 0 1.2-1.6 9.25 9.25 0 0 0 1.32-6.14 1.38 1.38 0 0 1 1.16-1.58 1.41 1.41 0 0 1 1.55 1.23 12.2 12.2 0 0 1-1.75 8.09 20.56 20.56 0 0 1-1.36 1.85 18.91 18.91 0 0 0-1.21 1.62 9.05 9.05 0 0 0-1.37 5.32 1.56 1.56 0 0 0 1.4 2 13.13 13.13 0 0 0 6.92-.42 1.38 1.38 0 0 1 1.73.91 1.42 1.42 0 0 1-.84 1.8 15.68 15.68 0 0 1-5.8.79Z" style="fill:#f27c85"></path>
    <path d="M1328.34 1288.14s4.21 8.74 11 9.54 11.79-6.19 12.31-8.42 1.36-4 .56-3.88-8.51 2.79-14.41 1.8-10.94-3.25-9.46.96Z" style="fill:#d63646"></path>
    <path d="M1349.67 1244.82c5.69-4.07 12.27-5.38 17.59.12 1.54 1.59 4-.85 2.44-2.44-6.36-6.57-14.81-5.64-21.77-.66-1.79 1.28-.07 4.27 1.74 3ZM1325.33 1241.91c-5.82-4.16-12.93-4.9-18.23.59-1.54 1.59.89 4 2.44 2.44 4.27-4.43 9.5-3.31 14 0 1.81 1.29 3.53-1.7 1.74-3ZM1312.09 1226.87a12.59 12.59 0 0 1 6.37-3.42c1.63-.35.94-2.84-.69-2.5a15.12 15.12 0 0 0-7.5 4.09 1.29 1.29 0 0 0 1.82 1.83ZM1353.46 1221.89a16.73 16.73 0 0 1 8.17 3.42c1.29 1 3.13-.8 1.82-1.83a20 20 0 0 0-10-4.18c-1.64-.21-1.63 2.38 0 2.59ZM1273.68 2381.16s12.26 49.5 5 59.07-117.59 7.07-122.57 5.82-8.81-12.06-5.74-16.64 82.82-35.82 82.82-35.82Z" style="fill:#343468"></path>
    <path d="M1328.8 1996.79c-7.65 23.29-21.44 68.22-21.44 75.7s-.77 54.09-9.19 124-22.23 182.21-23 187.2c-.48 3.08-15.24 11.23-27.74 12.91-7.76 1-14.64-.41-16.7-7.1-5.37-17.47-7.16-326.12-7.41-340.26-.08-4.3.57-14.94 1.52-27.71 2.17-29.28 5.89-69.63 5.89-69.63Z" style="fill:#2c4fa0"></path>
    <g style="opacity:.6">
      <path d="M1328.8 1996.79c-7.65 23.29-21.44 68.22-21.44 75.7s-.77 54.09-9.19 124-22.23 182.21-23 187.2c-.48 3.08-15.24 11.23-27.74 12.91 2.4-7.78 5.25-16.13 8.61-25 21.84-57.41 20.69-297 20-310.74-.45-9-30.47-27.56-51.21-39.35 2.17-29.28 5.89-69.63 5.89-69.63Z" style="fill:#273657"></path>
    </g>
    <path d="M1504.24 2370.13s21 45.89 15.63 56.83-114 32.19-119.09 32-10.83-9.93-8.66-15.07 74.67-52.91 74.67-52.91Z" style="fill:#343468"></path>
    <path d="M1488.29 1981.52c-3.27 24.47-8.6 71.47-7.24 78.81s9.09 53.18 13.56 123.5 11.39 183.37 11.55 188.43c.1 3.12-12.89 14.28-24.84 18.62-7.41 2.68-14.42 2.74-17.66-3.38-8.44-16-66.39-318.15-69.21-332-.86-4.19-2.16-14.76-3.56-27.48-3.2-29.16-6.9-69.53-6.9-69.53Z" style="fill:#2c4fa0"></path>
    <g style="opacity:.6">
      <path d="M1488.29 1981.52c-3.27 24.47-8.6 71.47-7.24 78.81s9.09 53.18 13.56 123.5 11.39 183.37 11.55 188.43c.1 3.12-12.89 14.28-24.84 18.62.94-8.15 2.21-17 3.9-26.35 11-61-33.8-295.59-37-308.9-2.08-8.7-34.89-20.46-57.37-27.57-3.2-29.16-6.9-69.53-6.9-69.53Z" style="fill:#273657"></path>
    </g>
    <path d="M1156.88 1398.3s-7.21-26.75-11.09-31.74-35.8-20.81-37.18-17.48-1.67 6.38 1.66 10.82 11.65 6 11.1 7.88-43.56-.17-50.78 0-50.22 6-46.89 10.72 7.5 8.32 12.21 8.32 29.41-1.67 32.74-1.11 34.41 3 35.79 4.44 16.65 30.52 16.65 30.52Z" style="fill:#ffb2a8"></path>
    <path d="M1307.1 1488.7c-13.53 17.89-66.06 61.31-93 68.41a22.78 22.78 0 0 1-8.48.89c-22.33-2.77-88.1-126-88.1-131s41.61-25.53 43.83-26.08 52.17 64.37 54.94 66.46c.39.3 1.51-1.34 3.15-4.4 10.08-18.7 40-90.24 46.2-99.9 7.21-11.24 37.45-16.39 37.45-16.39s1.61 10.26 3.53 25.34c4.71 36.85 11.23 102.45.48 116.67Z" style="fill:#6cc58d"></path>
    <path d="M1307.1 1488.7c-13.53 17.89-66.06 61.31-93 68.41 24.39-14.66 24.39-31.66 24.39-47.94 0-16.65-22.2-41.75-22.2-41.75l3.15-4.4s23.45 29.54 26.22 34.36 14.43-47.55 22.2-59.76 29.87-69.8 29.87-69.8l8.89 4.25c4.71 36.81 11.23 102.41.48 116.63Z" style="fill:#3e9a83"></path>
    <rect width="73.25" height="27.19" x="1104.17" y="1403.18" rx="6.75" style="fill:#abdda8" transform="matrix(.87 -.5 .5 .87 -555.55 760.21)"></rect>
    <ellipse cx="1068.11" cy="1228.38" rx="13.67" ry="14.43" style="fill:#cedbee"></ellipse>
    <path d="M1214.07 1358v11.15a3.06 3.06 0 0 1-3.06 3.07H925.23a3.07 3.07 0 0 1-3.08-3.07V1358a3.08 3.08 0 0 1 3.08-3.08H1211a3.07 3.07 0 0 1 3.07 3.08Z" style="fill:#92b1dd"></path>
    <path d="M1200.72 1354.9H935.51a130 130 0 0 1 1.18-17.42c8.72-63.3 64.24-112.08 131.43-112.08a134.94 134.94 0 0 1 43.12 7c52.07 17.48 89.48 65.72 89.48 122.5Z" style="fill:#cedbee"></path>
    <path d="M1200.72 1354.9H935.51a130 130 0 0 1 1.18-17.42h203.38c6.68 0 11.84-6.23 10.91-13.21-2-15.23-7.38-41.43-21.38-67a127.5 127.5 0 0 0-18.36-24.83c52.07 17.44 89.48 65.68 89.48 122.46Z" style="fill:#aec6d3"></path>
    <path d="M1442.59 1341.85s-2.18 12-6.22 28.77c-8 33.27-23.25 85.14-43.12 98.25-29.88 19.72-78.14-3.27-85-23.95-2.66-8-1-25 2.09-43 4.88-28.71 13.31-59.73 13.31-59.73l24.24-8.71s21.23 27.58 23.54 26.43 32.76-24.71 36.79-26.43 34.37 8.37 34.37 8.37Z" style="fill:#6cc58d"></path>
    <path d="M1436.37 1370.62c-8 33.27-23.25 85.14-43.12 98.25-29.88 19.72-78.14-3.27-85-23.95-2.66-8-1-25 2.09-43 5.1-5.05 8.43-8.08 8.43-8.08s1 37 6.71 39.61 44.82 13.79 55.16 8.62 52.88-73.69 52.88-73.69Z" style="fill:#3e9a83"></path>
    <path d="M1614.45 1511.57c0 5.17-87.62 135.59-94.68 133.87a35.38 35.38 0 0 1-7.26-3.45 194.08 194.08 0 0 1-21.46-14.57 80.9 80.9 0 0 1-8.86-7.83c-1.78-1.89-2.89-3.5-3-4.6-.59-6.32 62.92-100 61.75-102.85s-45.87-35.62-45.87-35.62l-11.17 50s-42.93 2.29-54.1-32.75c-4.87-15.29 0-44.34 7-72.22 9.06-36 21.74-70.16 21.74-70.16s50.66 21.72 53.6 25.17 63.51 71.82 78.8 92.5 23.51 37.34 23.51 42.51Z" style="fill:#6cc58d"></path>
    <path d="m1495.08 1476.52-11.17 50s-42.92 2.29-54.1-32.75c-4.87-15.29 0-44.34 7-72.22a97.69 97.69 0 0 1 9.49-4.51s-1.77 54.32 8.82 67.53 20 20.69 24.69 16.67 14.12-23 10-24.71-37.63-34.47-26.46-25.85 31.73 25.84 31.73 25.84Z" style="fill:#3e9a83"></path>
    <path d="M1335.63 2045.92c-10.34.27-129.86-41.35-133.45-47s18.82-199.37 39.69-276.92c3.64-13.49 6.85-25.58 9.68-36.4 13.5-51.43 18.37-74.5 18.09-84.62-.18-6.91-5-15.63-10.09-27.53a137.91 137.91 0 0 1-9.94-34c-4.68-31.29 8.26-63.05 21.43-86.4s33.13-107.42 33.13-107.42l19.45-3.39s-13.54 94.61 2.8 103.95 50.89 11.85 70-3.6 46.15-100.67 46.15-100.67l20.94 9.2s-4.39 7.6-9.07 26.11c-3.86 15.29-13.07 65.22-10.71 91.71.49 5.59 1.51 10.14 3.18 13.1a34.52 34.52 0 0 0 4 5.56c.17.19.33.39.5.57a67.22 67.22 0 0 0 5.84 5.68l1.4 1.2c.24.2.48.4.73.59q2.2 1.82 4.56 3.55l1.41 1c1.72 1.23 3.46 2.42 5.18 3.56.64.41 1.26.83 1.88 1.22 1.32.85 2.63 1.66 3.9 2.43.59.37 1.16.71 1.74 1.05 4.12 2.47 7.81 4.48 10.44 5.86s4.13 2.1 4.13 2.1-.67 1.54-1.83 4.24v.05c-.07.17-.15.34-.22.53s-.28.62-.42 1c-.38.91-.82 1.91-1.29 3l-.54 1.26c-.21.5-.43 1-.65 1.51l-1 2.27-1 2.43c-.25.55-.49 1.11-.73 1.7-.37.86-.75 1.75-1.12 2.64-.18.42-.36.83-.53 1.25-.11.23-.2.48-.3.7-.24.59-.5 1.18-.75 1.77-.8 1.92-1.64 3.91-2.5 5.95-.43 1-.85 2-1.28 3.05l-3.09 7.43q-.23.53-.45 1.08c-.6 1.43-1.19 2.89-1.79 4.34l-.45 1.09c-.45 1.09-.9 2.2-1.34 3.29-.15.35-.3.72-.45 1.09q-1.56 3.83-3.08 7.61l-.81 2c-1.43 3.61-2.82 7.15-4.13 10.52-.26.64-.5 1.29-.74 1.92-.14.34-.26.69-.39 1-.38 1-.73 1.91-1.08 2.84-1.29 3.41-2.45 6.58-3.42 9.4-.35 1-.68 2-1 2.92-.16.47-.3.92-.44 1.35s-.3.92-.42 1.36-.21.69-.31 1a41.06 41.06 0 0 0-1 4.07c0 .19 0 .35-.08.51a.25.25 0 0 0 0 .09c0 .18 0 .35-.06.5-.8 11 1.9 74.29 14.35 124.69v.08a.31.31 0 0 0 0 .07c.59 2.35 1.17 4.64 1.79 6.92 14 51.35 48 245.86 50.6 257.28s-174.67 41.43-185.04 41.71Z" style="fill:#fccd89"></path>
    <path d="M1490.85 1520.61v.05c-.07.17-.15.34-.22.53s-.28.62-.42 1c-.38.91-.82 1.91-1.29 3l-.54 1.26c-.21.5-.43 1-.65 1.51-.31.72-.63 1.49-1 2.27l-1 2.43c-.25.55-.49 1.12-.73 1.7-.37.86-.75 1.75-1.12 2.64-.18.42-.36.83-.53 1.25-.11.23-.2.48-.3.7l-.75 1.77c-.8 1.92-1.64 3.91-2.5 5.95-.43 1-.85 2-1.28 3.05l-3.09 7.43-.45 1.08c-.6 1.43-1.19 2.89-1.79 4.34l-.45 1.09c-.45 1.09-.9 2.2-1.34 3.29l-.45 1.09q-1.56 3.83-3.08 7.61l-.81 2c-1.43 3.61-2.82 7.15-4.13 10.52-.26.64-.5 1.29-.74 1.92-.14.34-.26.69-.39 1-.38 1-.73 1.91-1.08 2.84-1.29 3.41-2.45 6.58-3.42 9.4-.36 1-.69 2-1 2.92-.16.47-.3.92-.44 1.35s-.3.92-.42 1.36-.22.69-.31 1a41.06 41.06 0 0 0-1 4.07c0 .19 0 .35-.08.51a.25.25 0 0 0 0 .09c0 .18 0 .34-.06.5-.8 11 1.9 74.29 14.35 124.69-1.4-4.31-31.27-96.72-33.59-99.66s-59.51 10-66.39 11-89.88-8.31-92.92-7.46-23 40.3-23.84 41.85c13.5-51.43 18.37-74.5 18.09-84.62-.18-6.91-5-15.63-10.09-27.53 1.2.42 79.19 28.74 91 26.9s90.83-25.43 95.93-25.57 26-42.08 10.83-63.13-13.55-42.71-13.55-42.71c.49 5.59 1.51 10.14 3.18 13.1a34.52 34.52 0 0 0 4 5.56l.5.57a67.22 67.22 0 0 0 5.84 5.68l1.4 1.2c.24.2.48.4.73.59q2.2 1.82 4.56 3.55l1.41 1c1.72 1.23 3.46 2.42 5.18 3.56.64.41 1.26.83 1.88 1.22 1.32.85 2.63 1.66 3.9 2.43.59.37 1.16.71 1.74 1.05 4.12 2.47 7.81 4.48 10.44 5.86a5 5 0 0 1 2.28 6.35Z" style="fill:#f28c70;opacity:.45"></path>
    <path d="M1572.11 1512.14c-6.47.58-14.7 0-17.64 2.88-2.09 2-41.08 72.11-63.42 112.4-6.54-5.14-11.62-10-11.84-12.43-.59-6.32 62.91-100 61.74-102.85s-45.87-35.62-45.87-35.62l-31.75-25.85s-9.41-6.32-4.7-21.84c4.57-15.08 10.81-24.2 11.16-24.69-.23.64-8.33 23.65-6.24 31s73.87 55.29 86.81 63.27 28.22 13.16 21.75 13.73Z" style="fill:#3e9a83"></path>
    <path d="M1297 1677.7a4.22 4.22 0 0 1 5.86-2.52c8.39 4 26.72 12.48 35.85 13.35 9.52.91 38.39-4.46 50.12-6.75a4.22 4.22 0 0 1 5 4.14 4.22 4.22 0 0 1-2.49 3.86c-7.85 3.53-32.29 13.87-45.19 12-12.38-1.83-38.3-9.81-48.27-13a4.21 4.21 0 0 1-2.74-5.3Z" style="fill:#fff"></path>
    <path d="m1335.63 2045.92 114.69-93.67-22.48-319.36 48.53-125.53c.59.37 1.16.71 1.74 1.05 4.12 2.47 7.81 4.48 10.44 5.86s4.13 2.1 4.13 2.1-.67 1.54-1.83 4.24v.05c-.07.17-.15.34-.22.53s-.28.62-.42 1c-.38.91-.82 1.91-1.29 3l-.54 1.26c-.21.5-.43 1-.65 1.51l-1 2.27-1 2.43c-.25.55-.49 1.11-.73 1.7-.37.86-.75 1.75-1.12 2.64-.18.42-.36.83-.53 1.25-.11.23-.2.48-.3.7-.24.59-.5 1.18-.75 1.77-.8 1.92-1.64 3.91-2.5 5.95-.43 1-.85 2-1.28 3.05l-3.09 7.43q-.23.53-.45 1.08c-.6 1.43-1.19 2.89-1.79 4.34l-.45 1.09c-.45 1.09-.9 2.2-1.34 3.29-.15.35-.3.72-.45 1.09q-1.56 3.83-3.08 7.61l-.81 2c-1.43 3.61-2.82 7.15-4.13 10.52-.26.64-.5 1.29-.74 1.92-.14.34-.26.69-.39 1-.38 1-.73 1.91-1.08 2.84-1.29 3.41-2.45 6.58-3.42 9.4-.35 1-.68 2-1 2.92-.16.47-.3.92-.44 1.35s-.3.92-.42 1.36-.21.69-.31 1a41.06 41.06 0 0 0-1 4.07c0 .19 0 .35-.08.51a.25.25 0 0 0 0 .09c0 .18 0 .35-.06.5-.8 11 1.9 74.29 14.35 124.69v.08a.31.31 0 0 0 0 .07c.59 2.35 1.17 4.64 1.79 6.92 14 51.35 48 245.86 50.6 257.28s-174.73 41.47-185.1 41.75Z" style="fill:#f28c70;opacity:.63"></path>
    <path d="M1512.51 1642c-1.69 1.8-3.38 3.54-4.79 4.88-5 4.77-15.28 19.83-26.45 21.55s-24.41-5.46-28.88-6.26-8.47 1.66-11.11 1.09-5.58.86-7.94 0-2.94-4-2.64-6 4.85-4 4.85-4a20.3 20.3 0 0 1-6.32 0c-3-.57-3-2.29-3.24-4.31s5.84-5.74 5.84-5.74a17.59 17.59 0 0 1-4 0c-1.1-.29-5.39-3-5.67-6s30.38-15.42 33.52-15 19.59 8.42 21.17 5.34a87.65 87.65 0 0 1 5.33-7.83 80.9 80.9 0 0 0 8.86 7.83 194.08 194.08 0 0 0 21.47 14.45Z" style="fill:#ffb2a8"></path>
    <path d="M1431.84 1644.29a1.21 1.21 0 0 1-1-.5 1.15 1.15 0 0 1 .31-1.6c1.43-1 14.07-9.29 19.24-9.34h9.7a1.15 1.15 0 1 1 0 2.3s-4.74-.05-9.64 0c-3.78 0-14.23 6.46-17.94 8.94a1.22 1.22 0 0 1-.67.2ZM1435.55 1654.34a1.2 1.2 0 0 1-1-.58 1.14 1.14 0 0 1 .45-1.57c.58-.32 14.44-7.94 22.56-6.45l7.78 1.44a1.15 1.15 0 0 1 .94 1.34 1.18 1.18 0 0 1-1.37.92l-7.79-1.44c-7.28-1.34-20.83 6.12-21 6.19a1.25 1.25 0 0 1-.57.15Z" style="fill:#f27c85"></path>
    <path d="M1338.45 1336.84s10-8.55 11.32-6.64 18.77 24.71 20.69 24.71 35.62-26.62 37.53-26.05 18.39 10.73 18.2 11.88-49.85 39.26-51.45 37-3.71-14.17-4.28-14.36-9.39 12.44-10.92 11.29-21.09-37.83-21.09-37.83Z" style="fill:#abdda8"></path>
    <rect width="75.84" height="28.15" x="1457.16" y="1613.34" rx="6.75" style="fill:#abdda8" transform="rotate(35.78 1495.066 1627.372)"></rect>
    <path d="M666.63 1242.63s24-1.18 26.47-32.7-18.1-33.44-18.1-33.44 23.25-24.44 0-45.66-44.44-2.58-53.46 12.22c0 0-13.52-25.09-39.89-14.15s-22.47 28.3-22.47 28.3-23.83-10.29-30.26 3.85 0 29 0 29-14.15-6.44-21.23 4.5 3.72 20.58 3.72 20.58-11.77.64-11.6 12.22 11.6 22.51 11.6 22.51-9.15 11.57 0 32.15 24.85 43.34 34.87 46.31 21.23 0 21.23 0Z" style="fill:#343468"></path>
    <path d="M672.38 1318.89c-7.72 20.75-31.36 30.89-31.36 30.89l-.19.07-8.27 3.05s5.67 7.29 11.08 15c4 5.66 7.75 11.54 9.09 15 3.16 8.12 1.2 28-8.66 32s-55.89 6.59-75.29-5.28-25.37-8.26-20.35-22.25 15.87-29 15.87-29l1-14s-7.23-10.6-12.07-17.83l-.36-.57c-4.44-7.19-4.44-16.81-4.44-16.81s-10.15-1-18.35-11.09-7.71-23.64-2.4-26.53 15.42 1 15.42 1 5.28 9.87 9.24 15.92c2.48 3.81 4.41 6.1 4.16 3.48v-.12c-.82-7.23-6.62-48.23-6.62-48.23s12.78 1 17.6-11.34 5.56-14.47 5.56-14.47 24.36 5.06 32.79 1.69 21.17-14.64 21.17-14.64-1.92 6.27 8.21 8.2 15.19-1.68 15.19-1.68l11.34 2.88s6.74 35.7 6.74 45.34c0 3.83 1.84 10.74 3.56 19 2.65 12.43 4.96 27.84.34 40.32Z" style="fill:#c66161"></path>
    <ellipse cx="645.67" cy="1252.91" rx="5.08" ry="8.53" style="fill:#343468" transform="rotate(-2.46 644.598 1250.737)"></ellipse>
    <ellipse cx="594.96" cy="1259.14" rx="5.08" ry="8.53" style="fill:#343468" transform="rotate(-2.46 593.909 1256.872)"></ellipse>
    <path d="M654.72 1238.14a16.93 16.93 0 0 0-9.58-5.26c-1.87-.35-1.08-3.19.78-2.85a19.6 19.6 0 0 1 10.88 6c1.29 1.4-.79 3.49-2.08 2.09ZM599.29 1238.13a19.49 19.49 0 0 0-11.21 6.91c-1.2 1.47-3.28-.63-2.09-2.09a22.06 22.06 0 0 1 12.52-7.67c1.85-.4 2.64 2.44.78 2.85Z" style="fill:#343468"></path>
    <path d="M624.29 1263.14a26.07 26.07 0 0 0 3.54 16.18c1.37 2.24 3.46 3.78 4.93 5.85 2.78 3.94.23 5.14-.82 8.48-.43 1.36 1.73 1.88 2.15.53.68-2.17 3.15-3.41 3.23-5.82.06-1.87-1.32-3.18-2.55-4.37-5.95-5.71-9.08-12.55-8.27-20.91.14-1.42-2.07-1.34-2.21.06ZM626.71 1293.89c.49-.34.57-1.08-.5-2.5-1.17.46-1.38 1.29-2 2.35-.15.26 1.71.71 2.5.15ZM548.25 1286.78s-8.25-10-14.74-8-7.2 5.22-5.76 8.59S537 1299 539 1298.52s4.5-1.77 2-5.24-1.31-7.26.73-5.78 7.76.65 6.52-.72Z" style="fill:#9b4b4b"></path>
    <path d="M600.33 1316.36c0 3 2 7.73 6.66 11.26 4.34 3.3 11 5.55 20.57 4.33 6.84-.87 11.48-3.39 14.62-6.3a21.11 21.11 0 0 0 6.55-12.56 4.35 4.35 0 0 0-.38-3.69c-1.39-2-5-1.67-7.65-.16-3.72 2.13-20.53 4.63-28.26 2.33-4.41-1.31-7.75-1.44-9.79-.23-1.54.9-2.34 2.55-2.32 5.02Z" style="fill:#844444"></path>
    <path d="M607 1327.62c4.34 3.3 11 5.55 20.57 4.33 6.84-.87 11.48-3.39 14.62-6.3a34.92 34.92 0 0 0-13.77-4.36c-9.42-1.15-16.84 2.82-21.42 6.33Z" style="fill:#c66161;opacity:.66"></path>
    <path d="M602.65 1311.34c.79 1.87 2.11 3.63 4.24 4.05 5 1 40.37-4 40.37-4l1.09-2c-1.39-2-5-1.67-7.65-.16-3.72 2.13-20.53 4.63-28.26 2.33-4.44-1.3-7.75-1.43-9.79-.22Z" style="fill:#fff"></path>
    <path d="M632.56 1352.9s-22.22 3.8-29.91 2.45-20.79-8.13-20.79-8.13 41.94 31.38 43.76 30.14 6.94-24.46 6.94-24.46Z" style="fill:#9b4b4b"></path>
    <path d="M853.69 1459.67s22.73-24.67 29.76-29.67 17.47-9 17.47-4.49-14.63 17.27-12.54 16.11 23-8.06 28.43-16.11 9.19-19.33 12.54-18.08 4.6 6.69 4.6 6.69-5.44 15.05-10 21.32a53.38 53.38 0 0 1-11.28 10.86s12.12-7.94 13.37-9.61 10.87-22 12.54-20.6 3.77 7.86 3.77 9.42-7.95 17-11.29 20.79-11.7 8.78-11.7 8.78a30.33 30.33 0 0 0 17.13-8.36c7.53-7.52 7.95-18.39 11.29-18s5.43 5.43 5.43 8.36-15 30.51-21.31 34.69-36.79 5.44-41.39 7.53-25.49 15-25.49 15-15.96-29.67-11.33-34.63Z" style="fill:#c66161"></path>
    <path d="M883.37 1499c-1.68 5-120.38 92.8-128.74 90.29s-36.21-13.26-59.91-50.52c-13.33-21-18-69-19.6-107-1.21-29.54-.52-53-.52-53s32.71 20.82 44.25 33.32c10.19 11 32.93 75 44.43 89.74 1.5 1.93 2.82 3 3.89 3 9.19 0 81.09-53.51 86.11-49.75 4.1 3.09 22.77 27.16 28.49 38.55 1.28 2.52 1.9 4.42 1.6 5.37Z" style="fill:#6cc58d"></path>
    <path d="M883.37 1499c-1.68 5-120.38 92.8-128.74 90.29s-36.21-13.26-59.91-50.52c-13.33-21-18-69-19.6-107 10.39-8.89 18.91-9.13 23.89 4.49 0 0 28.94 106.18 33.92 114.53s29.85-47.85 30.35-49l3.89 3s-25.08 55.26-24.24 60.65 39.28-1.18 76.9-26.74c20.1-13.66 44-31.48 61.94-45.11 1.28 2.56 1.9 4.46 1.6 5.41Z" style="fill:#3e9a83"></path>
    <path d="M726.8 1747c-2.27 6.56-86.63 22.86-121.56 26.62-21.81 2.35-59.3-4.81-84.41-12.89-15.13-4.86-25.78-10.07-25.78-13.73 0-9.74 12.54-115.08 12.54-126.36 0-6.47-9.92-76.09-18.37-134.28-6.3-43.25-11.78-80.19-11.78-80.19s13.22-16.89 33.29-25 52.66-18.81 52.66-18.81 33.23 31.6 55.81 40.25 25.7-15.8 20.06-28.34c-1.46-3.25-2.86-6-4.14-8.24a3.66 3.66 0 0 1 4.51-5.21c12.93 5 34 14.42 42.89 25.36 12 14.91 28.4 112.69 40.89 201.23 1.17 8.26 2.3 16.45 3.39 24.49 4 29.58 5.73 53.27 6.13 72 .85 40.92-4.58 58.56-6.13 63.1Z" style="fill:#6cc58d"></path>
    <path d="M732.93 1683.87c-5.49-1.21-11.47-2.3-11.71-1.26-.45 1.94-21.24 25.55-21.24 25.55s-148.45-7.93-156.31-5.43c-6 1.92-17.67 40.07-22.84 58-15.13-4.86-25.78-10.07-25.78-13.73 0-9.74 12.54-115.08 12.54-126.36 0-6.47-9.92-76.09-18.37-134.28 30.9-22.66 54.45-34.33 54.45-34.33s7.18 126 11 132.24 85.27 18.46 87.15 19.26 11.73-16.16 11.73-16.16h69.91c1.17 8.26 2.3 16.45 3.39 24.49 3.96 29.54 5.68 53.23 6.08 72.01Z" style="fill:#3e9a83"></path>
    <path d="m633.75 1696.47 21-115.76a6.18 6.18 0 0 1 5.95-5.26h60.08c3.85 0 6.73 3.8 5.93 7.83L703 1703a6.13 6.13 0 0 1-6.32 5.12l-57.35-4a6.42 6.42 0 0 1-5.58-7.65Z" style="fill:#343468"></path>
    <path d="M720.14 1653.62c-.49.85-.93 1.53-1.29 2.05a8.45 8.45 0 0 1-1.53 1.77s.18.51.39 1.32c.44 1.68 1 4.6.4 6.5a7.25 7.25 0 0 1-.68 1.46 10.34 10.34 0 0 1-2.93 3.1s0 .2 0 .55c.08 1.73.21 7.08-1.61 9.94a8.36 8.36 0 0 1-3.69 3.21 6.78 6.78 0 0 1-1.94.55 14 14 0 0 1-.34 2 12 12 0 0 1-2.17 4.73c-2.19 2.66-6.27 3.91-7.21 4.24s-14.84.78-18.6 1.19-34.07-14-41-15.67-25.92-2.3-25.92-2.3l9.61-37.2s26.34-10.45 31.77-10.45 28 2.09 28.42 7.11-20.47 4.18-21.73 6.27 4.59 5.43 6.69 5.84 20.9 3.77 24.66 3.77 27.53-9.82 28.63-8.09a8.14 8.14 0 0 1 .07 8.11Z" style="fill:#c66161"></path>
    <path d="M611.67 1689.57c-5 1.25-100.39-18.88-148.43-39.25-15.68-6.64-26.31-13.31-27.13-19.28-.61-4.46-.32-14.29.73-27.55 4-50.21 18.86-149.42 36.73-190.88a28.2 28.2 0 0 1 26.22-17.15c17.69.26 43.08 6.62 44.17 40.8 1.66 52.67-28.43 159.67-19.23 163s100.32 23.41 103.66 31.76-10.03 56.88-16.72 58.55Z" style="fill:#6cc58d"></path>
    <path d="M717.32 1657.44s.18.51.39 1.32c-7.2 2.6-17 5.94-19.93 5.94-4.41 0-16.95-1.42-17.49-1.48a1.25 1.25 0 1 1 .29-2.48c.12 0 12.93 1.45 17.2 1.45 1.53 0 6-1.3 11.19-3 3.17-1.07 6.63-2.3 9.88-3.49a8.45 8.45 0 0 1-1.53 1.74ZM714.5 1669.82v.55c-5.75 2-11.57 3.92-13 4.14a10.4 10.4 0 0 1-1.11.06c-4.32 0-15.45-1.73-16.82-1.94a1.26 1.26 0 1 1 .4-2.49c5.8.92 15.17 2.18 17.18 1.88 1.44-.2 8.86-2.7 16.27-5.3a10.34 10.34 0 0 1-2.92 3.1ZM709.23 1683.52a6.78 6.78 0 0 1-1.94.55 14 14 0 0 1-.34 2 2.68 2.68 0 0 1-.4 0c-12.23 0-24.91-4.36-25.48-4.56a1.24 1.24 0 0 1-.78-1.59 1.26 1.26 0 0 1 1.59-.78c.12.09 14.84 5.14 27.35 4.38Z" style="fill:#9b4b4b"></path>
    <path d="M467.05 1635.23a31.61 31.61 0 0 1-3.81 15.09c-15.68-6.64-26.31-13.31-27.13-19.28-.61-4.46-.32-14.29.73-27.55a31.79 31.79 0 0 1 30.21 31.74Z" style="fill:#abdda8"></path>
    <path d="M773.44 2064.31c-3.77 14.85-33.86 327.49-40.42 328.74-3 .58-13.1 1.7-23.07 2.74-11.59 1.19-23 2.28-23 2.28s-5-47.65-14.95-107.84-1.35-141.7-.1-154.24-10-36.37-26.33-81.51c-15.41-42.71-23-144.9-23.76-155.8v-.95s-23.82 155.49-27.58 171.86S386 2389.29 373.41 2391.8c-6.34 1.27-14.63-.68-21.9-2.92-7.09-2.2-13.23-4.67-15.72-4.74-5-.14 28.85-145.33 58.94-211.79s62.7-110.35 67.72-124.14 0-43.89 0-122.89 32.6-178.32 32.6-178.32H726.8s.89 5.37 2.43 14.72c10.05 60.76 47.47 289.72 44.21 302.59Z" style="fill:#2c4fa0"></path>
    <g style="opacity:.6">
      <path d="M710 2395.79c-11.59 1.19-23 2.28-23 2.28s-5-47.65-14.95-107.84-1.35-141.7-.1-154.24-10-36.37-26.33-81.51c-15.41-42.71-23-144.9-23.76-155.8v-.95l7.21-74s30.41 154.24 43 200.64 40.88 47.65 37.37 63.95-6.9 32.61-10.22 47.66c-2.75 11.55 4.03 174.16 10.78 259.81Z" style="fill:#273657"></path>
      <path d="M729.23 1761.68c-64 28.07-176.16 25.27-185.27 23.45-11.29-2.23-57.69 195.36-54.74 206.65s12.1 47.65 0 61.44-23 40.13-45.58 86.53c-16.39 33.69-66.13 174.54-92.13 249.13-7.09-2.2-13.23-4.67-15.72-4.74-5-.14 28.85-145.33 58.94-211.79s62.7-110.35 67.72-124.14 0-43.89 0-122.89 32.6-178.32 32.6-178.32H726.8s.89 5.33 2.43 14.68Z" style="fill:#273657"></path>
    </g>
    <path d="M686.91 2398.07S676 2445.72 684 2449.9s139.61.42 142.12-3.76-.42-25.92-13.37-30.52-79.75-22.57-79.75-22.57ZM335.79 2384.14s-25.44 52.81-18 57.81 138.77 15.22 141.71 11.33 2.33-25.81-10.06-31.76-76.87-30.89-76.87-30.89Z" style="fill:#343468"></path>
    <path d="m1885.2 2433.57-71.83-514.21a21.47 21.47 0 0 1 21.27-24.44h342.48a21.47 21.47 0 0 1 21.27 18.5l71.83 514.21a21.47 21.47 0 0 1-21.27 24.44h-14.74a21.48 21.48 0 0 1-21.13-17.63l-7.24-39.88a21.48 21.48 0 0 0-21.13-17.63H1958a21.47 21.47 0 0 0-21.3 24.18l3.41 26.78a21.48 21.48 0 0 1-21.31 24.18h-12.34a21.47 21.47 0 0 1-21.26-18.5Z" style="fill:#7394bc"></path>
    <path d="m2126.35 2433.57 71.83-514.21a21.48 21.48 0 0 0-21.27-24.44h-342.49a21.48 21.48 0 0 0-21.27 18.5l-71.83 514.21a21.48 21.48 0 0 0 21.27 24.44h14.74a21.47 21.47 0 0 0 21.13-17.63l7.25-39.88a21.47 21.47 0 0 1 21.13-17.63h226.69a21.47 21.47 0 0 1 21.3 24.18l-3.4 26.78a21.46 21.46 0 0 0 21.3 24.18h12.35a21.48 21.48 0 0 0 21.27-18.5Z" style="fill:#aec6d3"></path>
    <path d="M1852.38 1925H2148a13.75 13.75 0 0 1 13.6 15.76l-54.6 368.46a13.75 13.75 0 0 1-13.6 11.72h-289.31a13.75 13.75 0 0 1-13.63-15.53l48.29-368.49a13.75 13.75 0 0 1 13.63-11.92Z" style="fill:#dfe9f4"></path>
    <path d="M1911 2013.54c.34.86.67 1.73 1 2.6.33-.9.66-1.79 1-2.66s.72-1.72 1.11-2.52l14.88-30a4.4 4.4 0 0 1 .57-.9 1.73 1.73 0 0 1 .67-.49 2.9 2.9 0 0 1 .82-.19H1939.24l.17 54.15h-8.29l-.12-35v-2.14c0-.78.08-1.56.15-2.36l-15.15 30.71a4.24 4.24 0 0 1-1.36 1.63 3.34 3.34 0 0 1-2 .59h-1.29a3.4 3.4 0 0 1-2-.57 4.26 4.26 0 0 1-1.37-1.63l-15.6-30.77c.1.83.17 1.63.2 2.42s.06 1.51.06 2.19l.11 35h-8.29l-.17-54.15h8.19a2.9 2.9 0 0 1 .82.18 2 2 0 0 1 .68.49 3.69 3.69 0 0 1 .6.9l15.21 30q.68 1.23 1.21 2.52ZM1981.34 1979.14v8l-22.42.07v15h17.67v7.75l-17.59.04v15.31l22.42-.07v8l-31.91.11-.17-54.16ZM1995.48 1979.15a2.2 2.2 0 0 1 .75.23 2.53 2.53 0 0 1 .65.48 7.72 7.72 0 0 1 .7.84l26.67 36.13c-.1-.87-.17-1.73-.2-2.56s-.06-1.62-.06-2.34l-.11-32.92h8.29l.17 54.15h-4.86a4.06 4.06 0 0 1-1.85-.37 4.33 4.33 0 0 1-1.44-1.34l-26.56-36c.07.8.12 1.59.16 2.37s.06 1.51.06 2.16l.11 33.25h-8.29l-.18-54.15h4.94a10 10 0 0 1 1.05.07ZM2062.9 2024.91a11.67 11.67 0 0 0 4.87-1 10.26 10.26 0 0 0 3.63-2.74 12.23 12.23 0 0 0 2.26-4.28 18.59 18.59 0 0 0 .77-5.62l-.1-32.43h9.41l.1 32.43a26.61 26.61 0 0 1-1.42 8.94 20.54 20.54 0 0 1-4.16 7.09 19 19 0 0 1-6.6 4.66 23.73 23.73 0 0 1-17.49.06 18.89 18.89 0 0 1-6.61-4.63 20.41 20.41 0 0 1-4.18-7.06 26.51 26.51 0 0 1-1.48-8.93l-.11-32.43h9.42l.1 32.4a18.49 18.49 0 0 0 .8 5.61 12.58 12.58 0 0 0 2.27 4.28 9.87 9.87 0 0 0 3.62 2.74 11.6 11.6 0 0 0 4.9.91Z" style="fill:#7394bc"></path>
    <rect width="50.07" height="7.28" x="1848.97" y="2076.98" rx="2.65" style="fill:#7394bc"></rect>
    <rect width="183.09" height="7.28" x="1924.41" y="2076.98" rx="2.65" style="fill:#7394bc"></rect>
    <rect width="50.07" height="7.28" x="1840.48" y="2127.61" rx="2.65" style="fill:#7394bc"></rect>
    <rect width="183.09" height="7.28" x="1915.93" y="2127.61" rx="2.65" style="fill:#7394bc"></rect>
    <rect width="50.07" height="7.28" x="1836.21" y="2171.65" rx="2.65" style="fill:#7394bc"></rect>
    <rect width="183.09" height="7.28" x="1911.65" y="2171.65" rx="2.65" style="fill:#7394bc"></rect>
    <rect width="50.07" height="7.28" x="1830.75" y="2215.7" rx="2.65" style="fill:#7394bc"></rect>
    <rect width="183.09" height="7.28" x="1906.19" y="2215.7" rx="2.65" style="fill:#7394bc"></rect>
    <rect width="50.07" height="7.28" x="1824.38" y="2259.74" rx="2.65" style="fill:#7394bc"></rect>
    <rect width="183.09" height="7.28" x="1899.82" y="2259.74" rx="2.65" style="fill:#7394bc"></rect>
    <path d="M1790.35 2289.31h-.42a3 3 0 0 1-2.56-3.39l45.87-330a3 3 0 1 1 5.94.82l-45.86 330a3 3 0 0 1-2.97 2.57ZM2107.49 1926.34H1939.4a3 3 0 0 1 0-6h168.09a3 3 0 0 1 0 6ZM2110.07 2324h-194.14a3 3 0 0 1 0-6h189l44.17-285.14a3 3 0 1 1 5.93.92ZM2053.53 2379.93h-226.7a3 3 0 0 1 0-6h226.7a3 3 0 0 1 0 6Z" style="fill:#7394bc"></path>
    <path d="M222.11 2470.08h2565v34.09a77.25 77.25 0 0 1-77.25 77.25H299.36a77.25 77.25 0 0 1-77.25-77.25v-34.09Z" style="fill:#dfe9f4"></path>
    <rect width="2574.28" height="22.78" x="212.86" y="2447.3" rx="7.2" style="fill:#92b1dd"></rect>
    <rect width="1121.55" height="20.41" x="1222.15" y="2506.89" rx="7.2" style="fill:#92b1dd"></rect>
    <rect width="667.25" height="19.52" x="458.05" y="2507.34" rx="7.03" style="fill:#92b1dd"></rect>
    <rect width="158.91" height="19.96" x="2405.29" y="2506.89" rx="7.03" style="fill:#92b1dd"></rect>
  </g>
</svg>
