<svg xmlns="http://www.w3.org/2000/svg" width="2732.895" height="2102.936" viewBox="132.578 447.032 2732.895 2102.936" id="delivery-man-checking-delivery-drop-off-location">
  <g id="character">
    <path d="M291.65 2368.89v-304.72a25.23 25.23 0 0 1 25.23-25.17H392a25.24 25.24 0 0 0 25.23-25.23v-761.72a25.23 25.23 0 0 1 25.22-25.23h252.48a25.23 25.23 0 0 1 25.22 25.23v328.58a25.23 25.23 0 0 0 25.23 25.23h54.83a25.23 25.23 0 0 0 25.22-25.23V794.06a25.22 25.22 0 0 1 25.23-25.23H1902.5a25.22 25.22 0 0 1 25.22 25.23v322.61a25.24 25.24 0 0 0 25.28 25.23h204.37a25.23 25.23 0 0 1 25.23 25.22v455.27a25.23 25.23 0 0 0 25.22 25.23h75.65a25.24 25.24 0 0 0 25.23-25.23V1379a25.22 25.22 0 0 1 25.22-25.23h198.76a25.23 25.23 0 0 1 25.23 25.23v278.71a25.23 25.23 0 0 0 25.22 25.23h82.45a25.22 25.22 0 0 1 25.22 25.22v170.53a25.23 25.23 0 0 0 25.23 25.23 25.22 25.22 0 0 1 25.22 25.22v439.19a25.22 25.22 0 0 1-25.22 25.22l-2399.1.57a25.23 25.23 0 0 1-25.28-25.23Z" style="fill:#f5f5f7"></path>
    <path d="M2182.55 1218.56v16.53H1978.3a8.27 8.27 0 0 1 0-16.53ZM2182.55 1300.87v16.53H1978.3a8.27 8.27 0 0 1 0-16.53ZM2182.55 1383.18v16.52H1978.3a8.26 8.26 0 0 1 0-16.52ZM2182.55 1465.49V1482H1978.3a8.26 8.26 0 0 1 0-16.52ZM2182.55 1547.8v16.52H1978.3a8.26 8.26 0 0 1-8.28-8.25 8.31 8.31 0 0 1 8.28-8.27ZM2555.35 1396.25v12.12H2404.1a6.09 6.09 0 0 1-6.13-6 6 6 0 0 1 1.8-4.29 6.13 6.13 0 0 1 4.33-1.78ZM2555.35 1456.63v12.12H2404.1a6.09 6.09 0 0 1-6.13-6 6 6 0 0 1 1.8-4.29 6.13 6.13 0 0 1 4.33-1.78ZM2555.35 1517v12.12H2404.1a6.1 6.1 0 0 1-6.13-6.06 6 6 0 0 1 1.8-4.28 6.13 6.13 0 0 1 4.33-1.78ZM2555.35 1577.38v12.13H2404.1a6.1 6.1 0 0 1-6.13-6.06 6 6 0 0 1 1.8-4.28 6.1 6.1 0 0 1 4.33-1.79ZM2555.35 1637.76v12.12H2404.1a6.09 6.09 0 0 1-6.13-6.05 6 6 0 0 1 1.8-4.29 6.13 6.13 0 0 1 4.33-1.78ZM1874.34 1204.6v59.28a12 12 0 0 1-12 12h-59.26a12 12 0 0 1-12-12v-59.28a12 12 0 0 1 12-12h59.26a12 12 0 0 1 12 12ZM1874.34 1056v59.28a12 12 0 0 1-12 12h-59.26a12 12 0 0 1-12-12V1056a12 12 0 0 1 12-12h59.26a12 12 0 0 1 12 12ZM1874.34 907.3v59.28a12 12 0 0 1-12 12h-59.26a12 12 0 0 1-12-12V907.3a12 12 0 0 1 12-12h59.26a12 12 0 0 1 12 12ZM1874.34 1650.55v59.28a12 12 0 0 1-12 12h-59.26a12 12 0 0 1-12-12v-59.28a12 12 0 0 1 12-12h59.26a12 12 0 0 1 12 12ZM1874.34 1501.9v59.28a12 12 0 0 1-12 12h-59.26a12 12 0 0 1-12-12v-59.28a12 12 0 0 1 12-12h59.26a12 12 0 0 1 12 12ZM1874.34 1353.25v59.28a12 12 0 0 1-12 12h-59.26a12 12 0 0 1-12-12v-59.28a12 12 0 0 1 12-12h59.26a12 12 0 0 1 12 12ZM2501.94 1814.21h-59.28a12 12 0 0 1-12-12v-59.26a12 12 0 0 1 12-12h59.28a12 12 0 0 1 12 12v59.26a12 12 0 0 1-12 12ZM2056 1814.21h-59.28a12 12 0 0 1-12-12v-59.26a12 12 0 0 1 12-12H2056a12 12 0 0 1 12 12v59.26a12 12 0 0 1-12 12ZM2204.64 1814.21h-59.28a12 12 0 0 1-12-12v-59.26a12 12 0 0 1 12-12h59.28a12 12 0 0 1 12 12v59.26a12 12 0 0 1-12 12ZM2353.29 1814.21H2294a12 12 0 0 1-12-12v-59.26a12 12 0 0 1 12-12h59.28a12 12 0 0 1 12 12v59.26a12 12 0 0 1-11.99 12ZM2501.94 2052.5h-59.28a12 12 0 0 1-12-12v-59.26a12 12 0 0 1 12-12h59.28a12 12 0 0 1 12 12v59.26a12 12 0 0 1-12 12ZM2056 2052.5h-59.28a12 12 0 0 1-12-12v-59.26a12 12 0 0 1 12-12H2056a12 12 0 0 1 12 12v59.26a12 12 0 0 1-12 12ZM2204.64 2052.5h-59.28a12 12 0 0 1-12-12v-59.26a12 12 0 0 1 12-12h59.28a12 12 0 0 1 12 12v59.26a12 12 0 0 1-12 12ZM2353.29 2052.5H2294a12 12 0 0 1-12-12v-59.26a12 12 0 0 1 12-12h59.28a12 12 0 0 1 12 12v59.26a12 12 0 0 1-11.99 12Z" style="fill:#dfe9f4"></path>
    <rect width="2449.55" height="25.23" x="291.65" y="2368.89" rx="7.2" style="fill:#92b1dd"></rect>
    <rect width="1386.96" height="22.59" x="1198.82" y="2431.79" rx="7.2" style="fill:#92b1dd"></rect>
    <rect width="1108.07" height="21.61" x="766.27" y="2325.45" rx="7.2" style="fill:#92b1dd"></rect>
    <path d="M1813.07 606v1662.84a60.38 60.38 0 0 1-60.4 60.38H919.18a60.38 60.38 0 0 1-60.38-60.38V606a60.38 60.38 0 0 1 60.38-60.38h833.49a60.38 60.38 0 0 1 60.4 60.38Z" style="fill:#cedbee"></path>
    <path d="M1771.12 651.9v1548.78c0 31.06-24.66 56.24-55.08 56.24H955.81c-30.41 0-55.06-25.18-55.06-56.24V651.9c0-31.06 24.65-56.24 55.06-56.24H1716c30.46 0 55.12 25.18 55.12 56.24Z" style="fill:#f5f5f7"></path>
    <path d="M1771.12 1495.12v705.56c0 31.06-24.66 56.24-55.08 56.24H955.81c-30.41 0-55.06-25.18-55.06-56.24v-705.56Z" style="fill:#fff"></path>
    <g style="opacity:.43">
      <rect width="121.82" height="18.15" x="1275.02" y="1529.17" rx="5.19" style="fill:#92b1dd"></rect>
    </g>
    <path d="M1034.07 2048.56s-32.67-106-30.67-118.39 13.93-14.54 20-13.55 34.68 99 34.68 99-4.67-129.88 0-132.38 18-10.17 18.67-5.16 16.2 140.49 16.2 140.49l30.48-.59s19.34-139.61 26-139.9 21.34 2.66 21.34 2.66l-14 133.71s28.68-90.49 32-90.31 18.68 7.81 18.68 10.48-24.68 127.53-24.68 127.53-138.93 19.01-148.7-13.59Z" style="fill:#aec6d3"></path>
    <path d="M1046.08 2021.46s-20-112.5-17.34-117.8 12-12.27 17.34-8.2 28 126 28 126-5.33-111.91 0-114.26 15.84-3 18.59 1.17S1105 2025 1105 2025s1.12-137.24 5.79-139 21.34-5.3 24 0 0 131.35 0 131.35 14-115.44 22.67-117.21 20.67 4.12 21.34 6.48-12.67 122.51-12.67 122.51-119.39 24.73-120.05-7.67Z" style="fill:#cedbee"></path>
    <path d="m1207.3 2017.27-25 117.51c-.94 4.48-5.94 7.77-11.81 7.77h-131.08c-5.85 0-10.85-3.29-11.81-7.77l-4.86-22.88-20.09-94.63c-1.2-5.67 4.43-10.82 11.81-10.82h181c7.41 0 13.04 5.15 11.84 10.82Z" style="fill:#cedbee"></path>
    <path d="m1207.3 2017.27-25 117.51c-.94 4.48-5.94 7.77-11.81 7.77h-131.08c-5.85 0-10.85-3.29-11.81-7.77l-4.86-22.88h60a40.89 40.89 0 0 0 39-28.49l24.5-77h49.23c7.4.04 13.03 5.19 11.83 10.86Z" style="fill:#aec6d3"></path>
    <g style="opacity:.43">
      <rect width="326.12" height="26.31" x="1283.99" y="1647.62" rx="7.52" style="fill:#92b1dd"></rect>
      <rect width="163.06" height="26.31" x="1283.99" y="1692.63" rx="7.52" style="fill:#92b1dd"></rect>
      <path d="M1440.49 1768.59V1793a13.16 13.16 0 0 1-13.15 13.15h-130.2A13.16 13.16 0 0 1 1284 1793v-24.43a13.16 13.16 0 0 1 13.15-13.17h130.2a13.16 13.16 0 0 1 13.14 13.19Z" style="fill:#92b1dd"></path>
    </g>
    <g style="opacity:.43">
      <rect width="326.12" height="26.31" x="1283.99" y="1928.8" rx="7.52" style="fill:#92b1dd"></rect>
      <rect width="163.06" height="26.31" x="1283.99" y="1973.82" rx="7.52" style="fill:#92b1dd"></rect>
      <path d="M1440.49 2049.77v24.43a13.15 13.15 0 0 1-13.15 13.15h-130.2a13.15 13.15 0 0 1-13.14-13.15v-24.43a13.16 13.16 0 0 1 13.15-13.16h130.2a13.16 13.16 0 0 1 13.14 13.16Z" style="fill:#92b1dd"></path>
    </g>
    <path d="m1771.12 654.84-148.61 259.53-240.6-318.71h-26.28l75.87 100.53-368.73 233.46L956.6 763l228.58-167.29h-35.53L945.3 745.22l-44.55-69.94v39.05l27.59 43.31-27.59 20.19v26l38.89-28.45 314.89 494.38-135.91 82.24-217.87-88.1v22.62l195.44 79-195.44 118.19v11.41h21.72L1113 1379.88l30.64 115.24h21.72l-33.65-126.55 381.65-230.78 257.75 183.57v-25.76l-243.46-173.39 243.46-425.14Zm-265 462.82-233.62 141.25-198.45-311.55L1444.2 713l167 221.16Z" style="fill:#fff"></path>
    <path d="m1452.92 1222.08 60.88-43.85a12.93 12.93 0 0 1 15.32.14l108.35 81.17a12.94 12.94 0 0 1 .34 20.45l-88.37 70.93a12.94 12.94 0 0 1-18.46-2.34l-80.86-108.26a12.94 12.94 0 0 1 2.8-18.24ZM1003.73 760.25l116.43-87.13a15.87 15.87 0 0 1 22.54 3.65L1213.82 779a15.88 15.88 0 0 1-4.24 22.29l-127.69 84.89a15.86 15.86 0 0 1-22.4-5.06l-59.87-100a15.88 15.88 0 0 1 4.11-20.87ZM1205.6 1495.12l-22.76-87.12a31.56 31.56 0 0 1 14.54-35.18L1392 1258.5a31.54 31.54 0 0 1 42.28 9.78l150.31 226.84ZM1571.73 1377l100.81-65.73a12.94 12.94 0 0 1 14.73.42l54.24 39.91a12.94 12.94 0 0 1 2.67 18.2l-67 89a12.93 12.93 0 0 1-17.88 2.73l-88-63.2a12.94 12.94 0 0 1 .43-21.33ZM1172.38 931.67l205.42-128.59a29.83 29.83 0 0 1 40.8 9l99.4 152.28a29.79 29.79 0 0 1 3 26.67l-37.43 100.8a29.77 29.77 0 0 1-14 16l-154 81.31a29.82 29.82 0 0 1-40-12l-113.33-205.8a29.83 29.83 0 0 1 10.14-39.67ZM1180.93 647l58-29.4a15.86 15.86 0 0 1 20.84 6.08L1289 673.1a15.87 15.87 0 0 1-6.65 22.31l-55 27.14a15.88 15.88 0 0 1-20.13-5.29L1175 670.14a15.88 15.88 0 0 1 5.93-23.14ZM1312.48 694.43l35.77-18a15.87 15.87 0 0 1 20.84 6.19l4.41 7.55a15.88 15.88 0 0 1-6 21.84l-86.09 48.24a15.86 15.86 0 0 1-22.28-7.44l-2.68-6.06a15.88 15.88 0 0 1 5.84-19.69l48.59-31.77a17.46 17.46 0 0 1 1.6-.86ZM915 1134.09l53.32-96.84a30.43 30.43 0 0 1 49.34-5.62l173.45 193.88a30.44 30.44 0 0 1-8.06 47l-57.83 31.69a30.42 30.42 0 0 1-24.07 2.24L937.2 1252.9a30.42 30.42 0 0 1-20.91-26.9l-5-75.21a30.46 30.46 0 0 1 3.71-16.7ZM1771.12 792.26l-160.4 280.26a27.11 27.11 0 0 0 6.88 34.86l153.52 119.44Z" style="fill:#dfe9f4"></path>
    <path d="M1089.82 915.2a87 87 0 0 0-87 87c0 35.65 47.9 120.76 72.61 162.29a16.72 16.72 0 0 0 28.75 0c24.71-41.53 72.62-126.64 72.62-162.29a87 87 0 0 0-86.98-87Zm0 122.75a39.33 39.33 0 1 1 39.32-39.33 39.33 39.33 0 0 1-39.32 39.38ZM1636.05 663.28a37 37 0 0 0-37 37c0 15.17 20.39 51.38 30.9 69.05a7.11 7.11 0 0 0 12.23 0c10.51-17.67 30.9-53.88 30.9-69.05a37 37 0 0 0-37.03-37Zm0 52.22a16.73 16.73 0 1 1 16.73-16.73 16.73 16.73 0 0 1-16.73 16.73Z" style="fill:#69bf8e"></path>
    <path d="M1206.49 1768.38v4.38a23.3 23.3 0 0 1-23.3 23.3H1021a23.31 23.31 0 0 1-23.13-20.43 24.71 24.71 0 0 1-.18-2.87v-4.38a23.31 23.31 0 0 1 23.31-23.3h162.23a23.3 23.3 0 0 1 23.26 23.3Z" style="fill:#cedbee"></path>
    <path d="M1206.49 1768.38v4.38a23.3 23.3 0 0 1-13.14 21c-2.69-5.1-7.19-11.54-13.64-13.87-11.33-4.1-20.6-3.37-35 3s-25.49.57-39.4-3-12.62.77-26.26 2.77-25-7.66-39.4-2.25-12.36 0-26-5a21.32 21.32 0 0 0-15.79.25 24.71 24.71 0 0 1-.18-2.87v-4.38a23.31 23.31 0 0 1 23.31-23.3h162.23a23.3 23.3 0 0 1 23.27 23.27Z" style="fill:#aec6d3"></path>
    <path d="M1204.69 1771.09c-6.44-2.06-9.79-2.06-19.06 2.06s-13.39-8.5-29.87-2.06-27.29 4.89-36.56.25-8.5-1-17.26-.25-13.13-6.7-22.4-2.06-13.39 8.75-26.26 3.09-18 3.6-28.07-1.12-6.18-6.61-19.57-2.49-20.09 3.09-17.68-2.83c1.33-3.28 5.07-6.55 8.15-8.82a53.62 53.62 0 0 1 4.52-3l191.44-4.16s10.86 2.82 18.21 7.26c3.09 1.87 5.55 4 6.34 6.39 2.66 7.99-5.49 9.8-11.93 7.74Z" style="fill:#cedbee"></path>
    <path d="M1210.28 1757c-10.65 2-32 4.46-74.6 5.58-61.8 1.63-117.68-2.91-139.57-5.69a53.62 53.62 0 0 1 4.52-3l191.44-4.16s10.86 2.8 18.21 7.27Z" style="fill:#aec6d3"></path>
    <path d="M1213.32 1738.41v.37a16.33 16.33 0 0 1-16.34 16.34H1006.9a16.34 16.34 0 0 1-16.34-16.34v-.37a16.36 16.36 0 0 1 16.34-16.34H1197a16.31 16.31 0 0 1 16.34 16.34Z" style="fill:#aec6d3"></path>
    <path d="M1216.62 1720.53s-40.11 12.9-71.16 22c-17.28 5.07-31.74 9-34.93 8.86-7.06-.27-79.46-19.39-109.55-27.42-8-2.13-13-3.48-13-3.48l19.91-1.71c6.5-2.37 208.73 1.75 208.73 1.75Z" style="fill:#dfe9f4"></path>
    <path d="M1210.8 1705.1a11.2 11.2 0 0 1-10.23 6.51h-197.25a11.19 11.19 0 0 1-10.23-6.51c-1.68-3.73-3-9.48-2.39-18.21 1.38-20.94 23-68 111.24-68s109.87 47 111.25 68c.57 8.73-.71 14.48-2.39 18.21Z" style="fill:#cedbee"></path>
    <ellipse cx="1056.98" cy="1636.25" rx="9.27" ry="3.26" style="fill:#fff"></ellipse>
    <ellipse cx="1112.54" cy="1631.26" rx="9.27" ry="3.26" style="fill:#fff"></ellipse>
    <ellipse cx="1044.27" cy="1657.47" rx="9.27" ry="3.26" style="fill:#fff"></ellipse>
    <ellipse cx="1085.37" cy="1646.45" rx="9.27" ry="3.26" style="fill:#fff"></ellipse>
    <ellipse cx="1142.81" cy="1649.72" rx="9.27" ry="3.26" style="fill:#fff"></ellipse>
    <rect width="188.49" height="8.93" x="1007.87" y="1711.61" rx="2.87" style="fill:#aec6d3"></rect>
    <path d="M1636.56 793.43a4.1 4.1 0 0 1-1-.13c-4.66-1.23-9.48-2.27-14.3-3.07a4 4 0 0 1 1.32-7.89c5.07.84 10.12 1.93 15 3.22a4 4 0 0 1-1 7.87ZM1204.63 1241.54c-4.69 0-9.42-.15-14.06-.45a4 4 0 0 1 .52-8 211.86 211.86 0 0 0 28.91-.09 4 4 0 1 1 .57 8c-5.28.34-10.66.54-15.94.54Zm-43-4.44a4 4 0 0 1-.84-.09 196 196 0 0 1-28.88-8.46 4 4 0 1 1 2.84-7.48 189.22 189.22 0 0 0 27.7 8.12 4 4 0 0 1-.82 7.91Zm87.9-.16a4 4 0 0 1-.8-7.92 227.83 227.83 0 0 0 28-7.64 4 4 0 1 1 2.6 7.56 232.8 232.8 0 0 1-28.94 7.91 3.72 3.72 0 0 1-.86.09Zm55.67-19.13a4 4 0 0 1-1.78-7.59 218.22 218.22 0 0 0 25.06-14.53 4 4 0 0 1 4.46 6.64 228.71 228.71 0 0 1-26 15.06 4 4 0 0 1-1.74.42Zm48.81-32.87a4 4 0 0 1-2.67-7 204.19 204.19 0 0 0 19.22-19.6l.94-1.12a4 4 0 0 1 6.13 5.14c-.33.4-.66.79-1 1.18a210.7 210.7 0 0 1-20 20.37 4 4 0 0 1-2.63 1.03Zm37.52-45.23a4 4 0 0 1-2-.55 4 4 0 0 1-1.41-5.48 214.06 214.06 0 0 0 12.9-25.9 4 4 0 0 1 7.38 3.09 222.94 222.94 0 0 1-13.39 26.88 4 4 0 0 1-3.48 1.96Zm23-54.17a4.17 4.17 0 0 1-1.16-.17 4 4 0 0 1-2.68-5c2.66-8.81 5.06-18.06 7.33-28.28a4 4 0 0 1 7.81 1.74c-2.32 10.41-4.76 19.85-7.48 28.85a4 4 0 0 1-3.77 2.86Zm13-57.53a4 4 0 0 1-3.95-4.68c.92-5.3 1.83-10.92 2.8-17.18.61-3.91 1.2-7.87 1.8-11.88a4 4 0 1 1 7.91 1.18c-.6 4-1.19 8-1.8 11.92-1 6.31-1.9 12-2.82 17.32a4 4 0 0 1-3.85 3.31Zm9-58.34a4.46 4.46 0 0 1-.63 0 4 4 0 0 1-3.33-4.58c1.78-11.25 3.42-20.53 5.15-29.23a4 4 0 0 1 7.85 1.56c-1.71 8.59-3.33 17.78-5.1 28.92a4 4 0 0 1-3.83 3.33Zm11.81-57.82a3.88 3.88 0 0 1-1.06-.15 4 4 0 0 1-2.81-4.91 280.14 280.14 0 0 1 9.31-28.44 4 4 0 0 1 7.45 2.91 272.72 272.72 0 0 0-9 27.64 4 4 0 0 1-3.78 2.95Zm21.83-54.66a4 4 0 0 1-3.46-6 152.51 152.51 0 0 1 17.55-24.61 4 4 0 1 1 6 5.29 144.75 144.75 0 0 0-16.63 23.32 4 4 0 0 1-3.35 2Zm38.91-43.69a4 4 0 0 1-2.32-7.26 133.46 133.46 0 0 1 15.71-9.61c3.49-1.82 7.13-3.52 10.83-5a4 4 0 1 1 3.06 7.39c-3.48 1.44-6.91 3-10.19 4.75a126.7 126.7 0 0 0-14.77 9 4 4 0 0 1-2.21.73Zm54-22.63a4 4 0 0 1-.75-7.92 166.89 166.89 0 0 1 30-3 4 4 0 1 1 .07 8 159.18 159.18 0 0 0-28.6 2.82 4 4 0 0 1-.62.1ZM1106.64 1216.11a4 4 0 0 1-2-.54c-4.42-2.57-8.76-5.35-12.92-8.27a4 4 0 0 1 4.61-6.55c4 2.79 8.11 5.45 12.33 7.91a4 4 0 0 1-2 7.45Z" style="fill:#92b1dd"></path>
    <path d="M1771.12 1498.12H900.75a3 3 0 0 1 0-6h870.37a3 3 0 0 1 0 6Z" style="fill:#cedbee"></path>
    <path d="M1771.12 1389.54a3 3 0 0 1-3-3V724.18a3 3 0 1 1 6 0v662.36a3 3 0 0 1-3 3ZM1428.54 598.66h-450.2a3 3 0 0 1 0-6h450.2a3 3 0 0 1 0 6ZM900.75 959.85a3 3 0 0 1-3-3V714.33a3 3 0 1 1 6 0v242.52a3 3 0 0 1-3 3ZM900.75 1376.18a3 3 0 0 1-3-3V999.63a3 3 0 0 1 6 0v373.55a3 3 0 0 1-3 3ZM1813.07 1935a3 3 0 0 1-3-3V615.91a3 3 0 0 1 6 0V1932a3 3 0 0 1-3 3ZM1709.63 548.62h-775a3 3 0 0 1 0-6h775a3 3 0 0 1 0 6ZM1666.8 2259.92h-711a3 3 0 0 1 0-6h711a3 3 0 1 1 0 6ZM858.8 2102.88a3 3 0 0 1-3-3v-746.11a3 3 0 0 1 6 0v746.11a3 3 0 0 1-3 3Z" style="fill:#92b1dd"></path>
    <path d="m1936.13 2253.43-60.62 165.54h-36.14l61.79-171.37 34.97 5.83z" style="fill:#7297b5"></path>
    <path d="M2716.14 2234.08c-3.09 12.44-7.89 22.46-14.17 29.92-24.23 28.85-1147-25.38-1147-25.38l-147.79-218.06-14.6-21.56-2.57-3.8s.82-36.66 13-86.59c8.23-33.64 21.64-73.32 43.48-111.88 30.26-53.44 75-117.61 108.62-163.88 8.38-11.53 16-21.94 22.65-30.79 14.4-19.32 23.65-31.28 23.65-31.28l88.79 10.22 26.3 3s-8.82 21.13-21.39 55.21c-23.18 62.89-59.07 169.87-75.54 269.42-25.38 153.47 8.39 169.31 54.41 203.08a234.65 234.65 0 0 0 55.27 29.82 305.89 305.89 0 0 0 61.74 16.17c8.31 1.29 17 2.37 26 3.16H1817.35c26.3 2.29 55.65 2.27 88.39-.74 113.08-10.36 140.78-31 155.77-79.52 10.1-32.68-7-92.54-19.29-128.15-6-17.28-10.77-28.85-10.77-28.85h454.66a185.83 185.83 0 0 1 94 25.45q2.8 1.65 5.67 3.4c40.33 24.49 90.47 64.39 109.27 118.85 24.79 71.85 29.95 127.2 21.09 162.78Z" style="fill:#6cc58d"></path>
    <g style="opacity:.54">
      <path d="M1729.3 2141.51c-19-.79-148.09-10.79-190.6-138.41-45.92-137.87 56.57-298.54 57.25-330.88.27-13.1-18.43-27.23-40.79-39.42 8.38-11.53 16-21.94 22.65-30.79 14.4-19.32 23.65-31.28 23.65-31.28l88.79 10.22 26.3 3s-8.82 21.13-21.39 55.21c-23.18 62.89-59.07 169.87-75.54 269.42-25.38 153.47 8.39 169.31 54.41 203.08a234.65 234.65 0 0 0 55.27 29.85Z" style="fill:#3e9a83"></path>
    </g>
    <path d="M2519.13 2256.9a176.43 176.43 0 0 1-5.86 45.21c-1.2 4.59-2.6 9.1-4.16 13.54a176.43 176.43 0 1 1 10-58.75Z" style="fill:#343468"></path>
    <circle cx="2342.82" cy="2256.91" r="114.36" style="fill:#f2f2f2"></circle>
    <path d="M2457.18 2256.92a114.36 114.36 0 1 1-224.18-31.85 114.41 114.41 0 0 0 219.74 0 114.59 114.59 0 0 1 4.44 31.85Z" style="fill:#ccdbe2"></path>
    <circle cx="2342.82" cy="2256.91" r="38.04" style="fill:#343468"></circle>
    <g style="opacity:.32">
      <path d="M2519.13 2256.9a176.43 176.43 0 0 1-5.86 45.21h-340.91a176.33 176.33 0 1 1 346.77-45.21Z" style="fill:#272744"></path>
    </g>
    <path d="M1505.92 2256.91a176.31 176.31 0 1 1-176.3-176.3 176 176 0 0 1 176.3 176.3Z" style="fill:#343468"></path>
    <circle cx="1329.62" cy="2256.91" r="114.36" style="fill:#f2f2f2"></circle>
    <path d="M1444 2256.92a114.36 114.36 0 1 1-224.22-31.85 114.4 114.4 0 0 0 219.73 0 114.22 114.22 0 0 1 4.49 31.85Z" style="fill:#ccdbe2"></path>
    <circle cx="1329.62" cy="2256.91" r="38.04" style="fill:#343468"></circle>
    <g style="opacity:.32">
      <path d="M1505.92 2256.91a176 176 0 0 1-10 58.74q-26.12-28.21-52.13-51.93-7.52-6.9-15-13.43c-50-43.66-98.71-75.66-142.76-99.1a666.38 666.38 0 0 0-67.38-31.24 176.31 176.31 0 0 1 287.31 137Z" style="fill:#272744"></path>
    </g>
    <path d="M1791.05 2157.67c-124.65-15.84-235.34-72.42-207.71-236.07 16.25-96.3 56.5-211.67 86.87-290.32l-92.4-29.27c14.4-19.33 23.65-31.28 23.65-31.28l88.78 10.22 26.31 3s-8.83 21.12-21.39 55.2c-23.18 62.88-59.07 169.87-75.53 269.42-25.39 153.47 8.38 169.31 54.4 203.08 28.06 20.64 66.03 37.97 117.02 46.02Z" style="fill:#3e9a83"></path>
    <path d="M1764.44 1562.1c-3.46 24.57-26.94 38-32.8 38.81s-63.55-1-63.55-1-61.16 4.62-75-6.34-12.12-34.62 0-64.62a74 74 0 0 1 8.07-14.71c15.26-21.83 40.49-36.4 51.93-41.47 13.85-6.13 70-18.82 78.55-14.78 5.87 2.77 20.72 39.06 28.37 69.54 3.52 14.05 5.51 26.82 4.43 34.57Z" style="fill:#6cc58d"></path>
    <g style="opacity:.54">
      <path d="M1764.44 1562.1c-3.46 24.57-26.94 38-32.8 38.81s-63.55-1-63.55-1-61.16 4.62-75-6.34-12.12-34.62 0-64.62a74 74 0 0 1 8.07-14.71c-4.12 26.19-5.45 55.59 6.35 66.06 23 20.43 68.48-15 68.48-15l23 2.43s44.13-26.92 49.32-28.5c2.5-.75 7.1-8.44 11.73-11.66 3.49 14.01 5.48 26.78 4.4 34.53Z" style="fill:#3e9a83"></path>
    </g>
    <circle cx="1688.21" cy="1547.72" r="21.41" style="fill:#343468"></circle>
    <path d="M1452.26 1905.65c-12.52 35.64-38.46 59-57.94 52.13a6.3 6.3 0 0 1-.72-.28c-18.91-7.42-24.28-41.43-11.91-76.63 12.51-35.62 38.45-59 57.94-52.12 7.63 2.68 13.15 9.59 16.27 19.15v.11a53.5 53.5 0 0 1 1.91 7.84c2.46 14.01.79 31.75-5.55 49.8Z" style="fill:#6cc58d"></path>
    <ellipse cx="1404.23" cy="1888.79" rx="68.38" ry="28.16" style="fill:#abdda8" transform="rotate(-70.65 1404.17 1888.768)"></ellipse>
    <path d="M2716.14 2234.08c-3.09 12.43-7.89 22.46-14.17 29.92-24.23 28.85-1147-25.38-1147-25.38l-147.79-218.06a40.52 40.52 0 0 1 50.72-13.56c33.88 16 86.58 46.76 119.91 94.69 25.4 36.54 40.5 57.79 49.33 70a40.49 40.49 0 0 0 30.66 16.69l375.92 20a40.41 40.41 0 0 0 38.85-23.34c23.17-50.06 92.64-158.21 260.24-158.21 175.09 0 265.39 133.64 294.18 186.33a40.4 40.4 0 0 0 35.49 21Z" style="fill:#3e9a83"></path>
    <path d="M1525.3 2265.78c-16.14 3.9-25.86-14.09-41-39.83a255.88 255.88 0 0 0-161.68-119.65c-36.44-8.62-81.56-21.63-87.67-34.36-1.91-4-.16-10.92 4.8-19.21 17.28-28.83 73.54-73.88 150.68-66.13 22.22 2.23 46.16 8.84 71.4 21.48 27 13.5 47.26 31.23 62.14 51.07 61.38 81.72 31.35 199.37 1.33 206.63Z" style="fill:#abdda8"></path>
    <path d="M1525.3 2265.78c-16.14 3.9-25.85-14.09-41-39.83a255.86 255.86 0 0 0-161.68-119.65c-36.44-8.62-81.56-21.62-87.67-34.36-1.91-4-.16-10.91 4.8-19.21 13.79 12.92 34.83 25.22 66.7 30.28 79.62 12.62 105.57 28.79 148.84 64.83 32.26 26.88 57.78-48.54 68.68-88.7 61.37 81.72 31.35 199.38 1.33 206.64Z" style="fill:#6cc58d"></path>
    <path d="M2585.71 2282.83h-485.77c-15.2 0-26.94-11.64-25.37-25a208.11 208.11 0 0 1 4.2-23.76c25.48-108.09 134-189.31 264.06-189.31s238.56 81.22 264.05 189.31a210.31 210.31 0 0 1 4.19 23.76c1.59 13.36-10.16 25-25.36 25Z" style="fill:#abdda8"></path>
    <rect width="163.85" height="20.16" x="2260.9" y="2135.75" rx="4.9" style="fill:#6cc58d"></rect>
    <rect width="163.85" height="20.16" x="2260.9" y="2185.53" rx="4.9" style="fill:#6cc58d"></rect>
    <path d="M2585.79 1952.46h-543.52c-6-17.28-10.77-28.85-10.77-28.85h454.66a185.86 185.86 0 0 1 94 25.45q2.76 1.65 5.63 3.4Z" style="fill:#3e9a83"></path>
    <path d="M2080 2101.7c-21.43 80.81-252.17 60.15-262.63 59.17 26.3 2.29 55.65 2.26 88.39-.74 113.08-10.36 140.77-31 155.77-79.52 10.1-32.68-7-92.53-19.29-128.15-6-17.28-10.77-28.85-10.77-28.85h29c11.62 31.98 36.76 113.22 19.53 178.09Z" style="fill:#fff;opacity:.5"></path>
    <path d="M2514.27 1860v34.92c0 17.78-13.62 32.19-30.42 32.19h-443.78c-16.8 0-30.43-14.41-30.43-32.19V1860c0-17.78 13.63-32.2 30.43-32.2h443.78c16.8-.04 30.42 14.38 30.42 32.2Z" style="fill:#abdda8"></path>
    <path d="M2514.27 1880.76v14.12c0 17.78-13.62 32.19-30.42 32.19h-443.78c-16.8 0-30.43-14.41-30.43-32.19v-14.12Z" style="fill:#6cc58d"></path>
    <rect width="414.63" height="44.62" x="2326.57" y="1742.45" rx="10.85" style="fill:#abdda8"></rect>
    <path d="M2601.2 1787.07 2499 1928.29a15.68 15.68 0 0 1-12.69 6.47 15.65 15.65 0 0 1-13.49-23.6l73-124.09Z" style="fill:#6cc58d"></path>
    <circle cx="2489.23" cy="1916.1" r="12.19" style="fill:#fff"></circle>
    <g style="opacity:.72">
      <path d="M1692.09 1487.05a5.77 5.77 0 0 1-2.8-6.48c3.88-15.21 17.77-66.2 33.42-81.91a118 118 0 0 1 28-21.19 5.78 5.78 0 0 1 8.29 3.7 5.79 5.79 0 0 1-3.61 6.86c-7.21 2.67-20.82 9.76-31.11 27.21-11.18 19-19.2 53.37-22.39 68.7a5.78 5.78 0 0 1-8.47 3.87Z" style="fill:#3092b8"></path>
    </g>
    <ellipse cx="1782.62" cy="1373.25" rx="29.15" ry="41.99" style="fill:#abdda8"></ellipse>
    <path d="M1466.54 1938c-1.14 47.54-4.68 70-4.68 70-25.24-12.64-49.18-19.25-71.4-21.48.46-6.53 1.37-16.54 3.14-29.1a6.3 6.3 0 0 0 .72.28c19.48 6.84 45.42-16.49 57.94-52.13 6.34-18.05 8-35.79 5.58-49.8 3.3 14.56 9.54 47.06 8.7 82.23Z" style="fill:#3e9a83"></path>
    <path d="M2585.71 2282.83h-485.77c-15.2 0-26.94-11.64-25.37-25a208.11 208.11 0 0 1 4.2-23.76h528.11a210.31 210.31 0 0 1 4.19 23.76c1.59 13.36-10.16 25-25.36 25Z" style="fill:#6cc58d"></path>
    <rect width="113.08" height="39.64" x="1805.57" y="2411.97" rx="10.33" style="fill:#eeeef8"></rect>
    <path d="M1901.15 2167.86c-21.79 0-37.22-.94-39.24-1.06a3 3 0 1 1 .39-6c1.64.11 164.87 10 203.39-36.71s6.17-169.63 5.84-170.87a3 3 0 0 1 5.8-1.55 465.74 465.74 0 0 1 11.86 69.12c4.56 50.37-1.78 86.41-18.87 107.12-28.53 34.59-117.05 39.95-169.17 39.95ZM2308.64 1883.76h-299a3 3 0 0 1 0-6h299a3 3 0 0 1 0 6ZM2658.12 1790.07h-303.54a3 3 0 0 1 0-6h303.54a3 3 0 0 1 0 6ZM1640.5 2121.77a3 3 0 0 1-1.54-.43c-68-40.84-109.85-108.77-115-186.38-2.4-36.51 8.29-90.71 31.78-161.09 17.45-52.28 35.85-94.46 36-94.88a3 3 0 1 1 5.5 2.4c-.73 1.67-72.94 167.82-67.32 253.18 5 75.61 45.81 141.81 112 181.62a3 3 0 0 1-1.55 5.58ZM1524 2062.14a3 3 0 0 1-2.19-.95c-49.73-53.43-105.89-66.41-144.23-67.88-41.56-1.61-71.63 9.51-71.93 9.63a3 3 0 0 1-2.11-5.62c1.26-.48 31.5-11.65 74.27-10a207.56 207.56 0 0 1 71.88 15.6c28.21 11.72 54 29.95 76.51 54.19a3 3 0 0 1-2.2 5ZM2606.88 2237.08h-528.11a3 3 0 0 1 0-6h528.11a3 3 0 0 1 0 6Z" style="fill:#3e9a83"></path>
    <path d="M758.63 2302.23s-12 61 0 63.16 164.35 11.72 162.7-3.84-114-59.32-114-59.32ZM438.92 2302.23s-12 61 0 63.16 164.34 11.72 162.7-3.84-114-59.32-114-59.32Z" style="fill:#343468"></path>
    <path d="m806.45 2311.46-40.18 3.18-12.62 1s-19.8-356.67-22.5-369.9-8.17-28.67-27.23-71-45.18-212.8-45.18-212.8-46.36 228.67-52.41 260-111.22 389.57-111.22 389.57l-37.45-4.05-24.08-2.61 62.82-382.91s-14-94.83-12.08-173.86c.71-29.3 6.12-69.57 12.64-108.64 11-66.24 25.28-129 25.28-129l89.85.85 184.7 1.74s5.67 57.6 12.92 129.11c11.5 113.48 27 262 30.11 270.93 5.08 14.51-33.37 398.39-33.37 398.39Z" style="fill:#2c4fa0"></path>
    <g style="opacity:.6">
      <path d="M612.09 1511.23c-31.74 93.29-86.12 264.38-77.43 318.32 10.34 64.27-56.79 384.09-77 477.86l-24.08-2.61 62.82-382.91s-14-94.83-12.08-173.86c.71-29.3 6.12-69.57 12.64-108.64 11-66.24 25.28-129 25.28-129Z" style="fill:#273657"></path>
    </g>
    <g style="opacity:.6">
      <path d="M766.93 1942c-2.87 12-1.64 239-.66 372.69l-12.62 1s-19.8-356.67-22.5-369.9-8.17-28.67-27.23-71-45.18-212.8-45.18-212.8l16.44-18.51S771 1924.85 766.93 1942Z" style="fill:#273657"></path>
    </g>
    <g style="opacity:.6">
      <path d="M809.71 1642.08c-29.65 8.35-52.37 14.15-56.69 13.59-14.31-1.85-21.39-77.09-21.39-77.09l-126.41-20.9s-24.65 88.58-36.5 98c-4.89 3.89-36.45-4.77-71.76-16.28 11-66.24 25.28-129 25.28-129l274.55 2.6s5.67 57.57 12.92 129.08Z" style="fill:#273657"></path>
    </g>
    <path d="M737.68 886.94s18.2-8.91 27.11-38.41-1.67-82.38-20.6-79.59-38.4 30-38.4 30 0-25.6-13.36-25-17.15 27.84-17.15 27.84-45.19-11.14-76.37 23.37-31.17 64.57-31.17 64.57-20.59 0-24.49 19.48 11.69 25.61 11.69 25.61-11.69 15-2.78 31.72 42.86 26.72 61.78 40.36S649 1032.7 649 1032.7Z" style="fill:#343468"></path>
    <path d="m717.75 1061.06 39.9 26.06s-2.79 7-8.69 21.25-28.67 54.17-28.67 54.17-31.56 31.69-71.84 23-57-110.32-30.2-111.56 30.2-46.26 30.2-46.26-16.7-27.27-23.94-29.49-16.69 2.22-17.24-18.37 0-20 15.58-18.37 16.69 14.47 18.92 8.9 1.11-7.24-2.78-17.25-8.69-30.06-8.69-30.06 25.91-7.24 52.09-16.15 55.29-20 55.29-20 29.9 74.59 16.54 110.76-41.53 36.18-41.53 36.18Z" style="fill:#ffb2a8"></path>
    <ellipse cx="682.37" cy="949.7" rx="4.7" ry="7.3" style="fill:#343468" transform="rotate(-15.17 682.576 949.907)"></ellipse>
    <ellipse cx="736.07" cy="937.37" rx="4.7" ry="7.3" style="fill:#343468" transform="rotate(-6.79 736.304 937.61)"></ellipse>
    <path d="M709.43 939.94c-.71 5.93 1.57 11.29 5.55 15.63 2 2.18 4.4 3.72 6.62 5.64 4.2 3.62 1.41 7.8.48 12.17-.33 1.57 2.08 2.25 2.42.67 1.15-5.41 4.07-10-.82-14.38-6.26-5.59-12.89-10.19-11.74-19.73.19-1.6-2.32-1.58-2.51 0Z" style="fill:#f27c85"></path>
    <path d="M712 1005.77a20 20 0 0 1-7.15 4.46c-12 4.46-23.87-1.53-26.82-8.6a8.55 8.55 0 0 1-.52-1.63c-1.46-6.76-2.35-12.13.31-12.47a3.18 3.18 0 0 1 1.36.17s7.93 3.34 20.66 2.92c9.35-.31 14.2-2.4 16.49-2.42a1.42 1.42 0 0 1 1.57 1c.68 2.04.23 10.58-5.9 16.57Z" style="fill:#d81262"></path>
    <path d="m716.29 988.19-.86 3.25s-2.06 1.88-11.87 2.93-21.92-2.09-24-2.93c-1-.39-1.49-2.15-1.77-3.91a3.18 3.18 0 0 1 1.36.17s7.93 3.34 20.66 2.92c9.34-.32 14.19-2.41 16.48-2.43Z" style="fill:#fff"></path>
    <path d="M712 1005.77a20 20 0 0 1-7.15 4.46c-12 4.46-23.87-1.53-26.82-8.6a40.82 40.82 0 0 1 12.84-2c8.37 0 15.92 2.37 21.13 6.14Z" style="fill:#ffb2a8;opacity:.44"></path>
    <path d="M720 1085.21a103.49 103.49 0 0 0-9.57-5.89c-19.21-10.44-34-18.58-36.76-22.38s27.36 15.28 31.12 15.49-43.21-46.55-43.21-46.55l14.47 4.39c14.46 4.38 36.61 3.61 36.61 3.61l7.58 40.64s.18 4.48-.24 10.69Z" style="fill:#f27c85"></path>
    <path d="M667.73 938.75s2.21-6 5.61-8 6.21-3.55 7.25-2.52 1.94 2.37 1.78 3.26-6.66 1.33-9.17 3.25-6.71 6.69-5.47 4.01ZM729.28 914.91a6.35 6.35 0 0 1 5.52 0c2.61 1.48 5.13 4.58 4.68 4.73s-4.43-2.22-6.35-1.48a7.5 7.5 0 0 1-3.85.74c-.74-.15-3.08-3.34 0-3.99Z" style="fill:#343468"></path>
    <path d="M781.63 1524.84s-45.46 35.08-103.16 30.66-109.75-21.91-109.75-21.91l17.35-131.33L631 1062.33l8.86-1.24 5.72-.8s11.07 21.58 38.75 32.94 34.69-5.54 32.94-16.47-3.22-20-3.22-20l4.27 1.59 4.84 1.82 9.57 3.59Z" style="fill:#fafafc"></path>
    <path d="M781.63 1524.84s-45.46 35.08-103.16 30.66-109.75-21.91-109.75-21.91l17.35-131.33c42.68-14 80.68-9.44 76.66 21.93-9.62 75.07-74.18 80.54-74.18 80.54l-8.88 24.48s120.65 13.12 127.65 7.87 9.61-100.54 15.74-146c5.73-42.56.73-298.31.06-330.87l9.57 3.59Z" style="fill:#cedaea"></path>
    <path d="M693.63 1104.6c-30-4.2-48-32.58-53.81-43.51l5.72-.8s11.07 21.58 38.75 32.94 34.69-5.54 32.94-16.47-3.22-20-3.22-20l4.27 1.59c4.22 14.49 11.3 51.28-24.65 46.25Z" style="fill:#ffb149"></path>
    <path d="M651.36 1241.48c-4.16 50.43-21.52 149.49-37.61 232-10.09 51.85-19.69 97.17-25.2 119.85-2.31 9.51-3.9 15-4.51 15.41-4.37 2.62-37.47 14-77.74 3.49s-98-34.09-94.94-41.09c.55-1.26 3.61-7 8.33-15.68 7-13 17.69-32.74 29.25-54.6 23.66-44.81 50.9-98.51 57.36-121.19 11.71-41.15 43.64-218.58 43.64-218.58l19.25-75.09 3.78-14.73s13.92-7 25.76-10.08c.79-.21 1.59-.39 2.36-.56 12.24-2.63 37.59-2.19 39.34 2.18s18.8 83.3 10.93 178.67Z" style="fill:#6cc58d"></path>
    <path d="M653.43 1191.71c0 15.81-.63 32.51-2.07 49.75-4.16 50.43-21.52 149.49-37.61 232l-164.81 27.44c23.66-44.81 50.9-98.51 57.36-121.19 11.71-41.15 43.64-218.58 43.64-218.58l19.25-75.13c7.49.3 15.27.91 23.33 1.89 0 0 9.27 47.93 3.45 75.9s44.9 30.6 45.77 23.61c.76-6-33-98.81-43-126.21.79-.21 1.59-.39 2.36-.56a86 86 0 0 1 13.25-1.51c11.84-.52 24.85.6 26.09 3.69 1.43 3.55 13.13 57.19 12.99 128.9Z" style="fill:#3e9a83"></path>
    <path d="M588.55 1593.37c-2.31 9.51-3.9 15-4.51 15.41-4.37 2.62-37.47 14-77.74 3.49s-98-34.09-94.94-41.09c.55-1.26 3.61-7 8.33-15.68 29.34 15 80.22 40 101.4 43.66 14.71 2.52 42.53-1.23 67.46-5.79ZM653.43 1191.71l-39.09-132.61c11.84-.52 24.85.6 26.09 3.69 1.44 3.57 13.14 57.21 13 128.92Z" style="fill:#b1dbad"></path>
    <path d="M662.73 1219.18v222.25c0 9.68-8.26 17.55-18.43 17.55H295.65c-10.17 0-18.43-7.87-18.43-17.55v-222.25c0-9.69 8.26-17.55 18.43-17.55H644.3c10.17 0 18.43 7.86 18.43 17.55Z" style="fill:#fcbe8d"></path>
    <path d="M662.73 1219.18v222.25c0 9.68-8.26 17.55-18.43 17.55h-57.16c-10.17 0-18.43-7.87-18.43-17.55v-222.25c0-9.69 8.26-17.55 18.43-17.55h57.16c10.17 0 18.43 7.86 18.43 17.55Z" style="fill:#e99c82"></path>
    <rect width="329.76" height="118.78" x="258.8" y="1191.73" rx="9.75" style="fill:#fccd89"></rect>
    <rect width="329.76" height="35.09" x="332.97" y="1191.73" rx="9.75" style="fill:#fad28c"></rect>
    <path d="M277.22 1310.51h291.49v11.7H277.22z" style="fill:#e99c82"></path>
    <rect width="144.25" height="101.98" x="350.14" y="1322.21" rx="8" style="fill:#fccd89"></rect>
    <path d="M588.56 1273.18a2 2 0 0 1-2-2v-69.35a7 7 0 0 0-2-4.73c-2.16-2.25-5.84-3.39-10.95-3.39a2 2 0 0 1 0-4c6.3 0 11 1.59 13.92 4.71a11.09 11.09 0 0 1 3 7.56v69.2a2 2 0 0 1-1.97 2ZM436.85 1193.73H277.22a2 2 0 0 1 0-4h159.63a2 2 0 0 1 0 4ZM258.8 1291.62a2 2 0 0 1-2-2v-68.12a2 2 0 0 1 4 0v68.12a2 2 0 0 1-2 2ZM386.63 1461h-87.58c-22 0-23.75-11.17-23.81-11.65v-104.5a2 2 0 0 1 4 0v104c.21.82 2.58 8.1 19.83 8.1h87.58a2 2 0 1 1 0 4ZM506.29 1312.51H303a2 2 0 0 1 0-4h203.29a2 2 0 0 1 0 4Z" style="fill:#e99c82"></path>
    <path d="M398.07 1426.19h-30.38c-9.48 0-15.62-1.71-18.26-5.08a5.8 5.8 0 0 1-1.3-4.28v-75.14a2 2 0 0 1 4 0v75.63l-.05.14a2.06 2.06 0 0 0 .62 1.32c1.11 1.27 4.53 3.41 15 3.41h30.38a2 2 0 0 1 0 4ZM494.89 1412a2 2 0 0 1-2-2v-65.14a2 2 0 0 1 4 0V1410a2 2 0 0 1-2 2Z" style="fill:#e99c82"></path>
    <path d="M590.58 1075.13c0-.19-.05-.28-.05-.28a1.41 1.41 0 0 0 .05.28Z" style="fill:#fff"></path>
    <g style="opacity:.58">
      <path d="m534.66 1205.38-30.77 246.02-38.88-22.15 26.94-208.67 42.71-15.2z" style="fill:#847163"></path>
    </g>
    <path d="M429 1403.61s-4.37 41.09-2.33 49.25 7.28 12.24 11.65 12 4.67-2 4.67-2 5.53 3.49 9 4.08 9-3.21 9-3.21 3.79 5.25 9.91 4.66a13.4 13.4 0 0 0 9.33-5.53s4.37 4.66 8.74 3.49 10.2-2.33 11.08-4.08 3.79-10.78 3.79-10.78-11.37-11.32-15.45-15.42 1.75-16.64-5-30.63-54.39-1.83-54.39-1.83Z" style="fill:#ffb2a8"></path>
    <path d="M589.08 1164.63c-15.53 19.23-84.6 56.83-86.35 65.57s-9.62 175.74-15.74 181c-1.85 1.59-8.72 3.43-17.48 4.6-20.06 2.69-50 1.87-52.46-13.34-3.5-21.86 14.86-195.85 29.72-225.57s133.34-119.78 142.31-110.16c0 0 .61 3.06 1.47 8.14a1.41 1.41 0 0 0 0 .28v.21l.15 1c.05.27.11.58.16.93 3.65 22.06 10.21 72.47-1.78 87.34Z" style="fill:#6cc58d"></path>
    <path d="M589.08 1164.63c-15.53 19.23-84.6 56.83-86.35 65.57s-9.62 175.74-15.74 181c-1.85 1.59-8.72 3.43-17.48 4.6 7.06-64 19.55-183.57 14.86-190-6.42-8.74-3.5-7 10.49-10.49s58.88-32 82.19-60.63c20.3-24.88 15.45-67 13.88-77.46 3.58 22.13 10.14 72.54-1.85 87.41Z" style="fill:#3e9a83"></path>
    <path d="M443 1463.64a.89.89 0 0 1-.67-.3c-.23-.27-5.76-6.74-5.45-12a.87.87 0 0 1 1.74.1c-.27 4.55 5 10.68 5 10.75a.88.88 0 0 1-.09 1.23.89.89 0 0 1-.53.22ZM461.05 1464.52a.81.81 0 0 1-.51-.18c-5.72-4.21-8.38-13.76-8.49-14.17a.87.87 0 0 1 .61-1.07.89.89 0 0 1 1.08.61c0 .1 2.61 9.37 7.83 13.23a.88.88 0 0 1 .19 1.22.89.89 0 0 1-.71.36ZM480.29 1463.64a.88.88 0 0 1-.44-.12c-6.3-3.68-9.85-12.88-10-13.27a.88.88 0 0 1 1.64-.62c0 .09 3.48 9 9.24 12.38a.87.87 0 0 1 .31 1.2.86.86 0 0 1-.75.43Z" style="fill:#f27c85"></path>
    <path d="M953 1120.91s32.93-45.46 37-48.08 65.28-28.27 66.45-24.48-3.79 10.2-4.67 12.24-36.13 19.52-37.88 22.44l-1.75 2.91s6.12 2.91 6.12 7.58a48.65 48.65 0 0 1-1.17 9.62 8.87 8.87 0 0 1 3.21 7.28c-.29 4.66-1.46 6.12-1.46 6.12s3.21 5.83 2.62 10.49-6.41 11.08-12.53 17.78-40.21 12.24-40.21 12.24S946.3 1128 953 1120.91Z" style="fill:#ffb2a8"></path>
    <path d="m808.51 1241.57-.07-.09s16.33 147.55 30.32 215.17c9.85 47.61 20.84 74.42 25.08 89.56 1.78 6.37 2.36 10.67 1.15 13.6a10 10 0 0 1-1.94 2.75c-10.95 11.89-60.33 38.24-72.67 40.39-13.42 2.33-31.48 7.57-35.55 2.91-.75-.86-1.33-8.07-1.8-19.64-2.08-51.36-2.08-188.55-6.37-235.66-2.34-25.74-6.31-86.54-10-146-.46-7.33-.91-14.64-1.35-21.84-.93-15.3-1.82-30.22-2.64-44.08-.37-6.12-.72-12.05-1.07-17.7-2.15-36.37-3.62-62-3.62-62s12.1 4.6 26 10.37a2.14 2.14 0 0 0 .28.12c16.17 6.73 34.66 15 39 19.41 6.94 6.94 33.78 57.44 45.9 71.9 2.11 2.52 3.77 4 4.81 3.87 7-.58 102-65.28 109-59.45 4.81 4 19.53 28.93 28.08 46.4 3.88 8 6.49 14.36 6.31 16.55-.59 7-144 95.59-152.13 95.59-7.84.02-25.43-20.61-26.72-22.13Z" style="fill:#6cc58d"></path>
    <path d="M863.05 1562.56c-10.95 11.89-60.33 38.24-72.67 40.39-13.42 2.33-31.48 7.57-35.55 2.91s-2.92-197.6-8.17-255.3c-2.34-25.74-6.31-86.54-10-146-.46-7.33-.91-14.64-1.35-21.84-.93-15.3-1.82-30.22-2.64-44.08 4.07 1.66 7.64 8.67 10.56 22 0 0 22.65 375.89 33.14 385.21 7.63 6.73 26.19 30.56 86.68 16.71Z" style="fill:#3e9a83"></path>
    <path d="M754.25 1164.63c-3.27 14.6-10.47 28.66-17.57 39.92-1.84-29.73-3.61-59.12-5.06-83.62 5.69-29.24 13.21-52.63 22.61-51.48s7.61 61.38.02 95.18Z" style="fill:#3e9a83"></path>
    <path d="M754 1069.33c-.91 30.49-4.54 85.26-18.6 113.34-1.35-22.07-2.61-43.31-3.71-61.78-2.15-36.37-3.62-62-3.62-62s12.03 4.67 25.93 10.44Z" style="fill:#b1dbad"></path>
    <path d="M987.39 1168.13c-.59 7-144 95.59-152.13 95.59-7.87 0-25.46-20.63-26.75-22.15l-.07-.09s-3.5-33.12-13.39-58.77-18.66-40.81-18.66-40.81 25.63 25.65 32.05 47.21 30.76-28.35 30.76-28.35l4.81 3.87s-29.73 39.64-28.58 55.38 30.9 12.81 55.38 1.15c16.44-7.82 74.13-45.6 110.27-69.58 3.92 7.96 6.49 14.36 6.31 16.55Z" style="fill:#3e9a83"></path>
    <path d="M793 1277.85c-3.93 7-18.36 16.61-24.48 17.05s-20.55-6.56-21-7.87c-.34-1-4.48-42.86-4.29-60.92 0-5.12.44-8.32 1.37-8.15 0 0 2.92 2.19 23.9 0s27.1-7 27.54-3.5c.1.81.21 4.3.24 9.29.18 16.37-.28 48.73-3.28 54.1Z" style="fill:#b1dbad"></path>
    <path d="M796.3 1223.75c-8.86 3.29-18.32 5.86-26.52 6a89.28 89.28 0 0 1-26.53-3.65c0-5.12.44-8.32 1.37-8.15 0 0 2.92 2.19 23.9 0s27.1-7 27.54-3.5c.1.82.21 4.31.24 9.3Z" style="fill:#fff"></path>
    <path d="M865 1559.81a10 10 0 0 1-1.94 2.75c-10.95 11.89-60.33 38.24-72.67 40.39-13.42 2.33-31.48 7.57-35.55 2.91-.75-.86-1.33-8.07-1.8-19.64 17.41 0 44.57-.39 51.91-3.1 6.75-2.48 36.58-22 58.9-36.91 1.77 6.37 2.35 10.67 1.15 13.6Z" style="fill:#b1dbad"></path>
  </g>
</svg>
