<svg xmlns="http://www.w3.org/2000/svg" width="2752.488" height="2503.215" viewBox="123.735 248.388 2752.488 2503.215" id="female-serving-food-to-man-at-restaurant">
  <g id="ground">
    <path d="M733.31 1561.67v24.27a4.94 4.94 0 0 1-4.94 4.94H602.61a4.94 4.94 0 0 1-4.94-4.94v-24.27a4.94 4.94 0 0 1 4.94-4.93h125.76a4.94 4.94 0 0 1 4.94 4.93ZM815.91 1527.52v24.28a4.94 4.94 0 0 1-4.94 4.94H685.22a4.94 4.94 0 0 1-4.94-4.94v-24.28a4.94 4.94 0 0 1 4.94-4.93H811a4.94 4.94 0 0 1 4.91 4.93ZM952.94 1963.78v24.28A4.94 4.94 0 0 1 948 1993H822.24a5 5 0 0 1-4.94-4.94v-24.28a5 5 0 0 1 4.94-4.93H948a4.94 4.94 0 0 1 4.94 4.93Z" style="fill:#f5f5f7"></path>
    <path d="M1035.54 1929.63v24.28a4.94 4.94 0 0 1-4.94 4.94H904.85a4.94 4.94 0 0 1-4.94-4.94v-24.28a4.93 4.93 0 0 1 4.94-4.92h125.75a4.93 4.93 0 0 1 4.94 4.92ZM1565.38 1919.82v24.28a4.94 4.94 0 0 1-4.94 4.94h-125.75a5 5 0 0 1-5-4.94v-24.28a4.94 4.94 0 0 1 5-4.92h125.75a4.93 4.93 0 0 1 4.94 4.92Z" style="fill:#f5f5f7"></path>
    <path d="M1648 1885.68V1910a5 5 0 0 1-4.94 5h-125.77a5 5 0 0 1-4.94-5v-24.27a4.94 4.94 0 0 1 4.94-4.93h125.76a4.94 4.94 0 0 1 4.95 4.88ZM737.92 835.58v24.27a4.94 4.94 0 0 1-4.94 4.94H607.22a4.94 4.94 0 0 1-4.94-4.94v-24.27a4.94 4.94 0 0 1 4.94-4.93H733a4.94 4.94 0 0 1 4.92 4.93ZM820.52 801.43v24.28a4.94 4.94 0 0 1-4.94 4.94H689.83a4.94 4.94 0 0 1-4.94-4.94v-24.28a4.94 4.94 0 0 1 4.94-4.93h125.75a4.94 4.94 0 0 1 4.94 4.93Z" style="fill:#f5f5f7"></path>
    <path d="M2620.46 426.67v1203a64.48 64.48 0 0 1-64.48 64.48H1353a64.48 64.48 0 0 1-64.49-64.48v-1203a64.5 64.5 0 0 1 64.49-64.5h1203a64.5 64.5 0 0 1 64.46 64.5Z" style="fill:#cedbee"></path>
    <path d="M2582.08 461.82v1132.71a60.73 60.73 0 0 1-60.76 60.71H1387.61a60.74 60.74 0 0 1-60.78-60.71V461.82a60.75 60.75 0 0 1 60.78-60.72h1133.71a60.74 60.74 0 0 1 60.76 60.72Z" style="fill:#f5f5f7"></path>
    <path d="M2638.74 412.53a11.09 11.09 0 0 1-3.58 8.08 12.64 12.64 0 0 1-8.64 3.34H1281.44c-6.75 0-12.22-5.11-12.22-11.42a11.11 11.11 0 0 1 3.58-8.09 12.68 12.68 0 0 1 8.64-3.34h1345.08c6.75 0 12.22 5.12 12.22 11.43ZM2638.74 475.36a11.11 11.11 0 0 1-3.58 8.09 12.68 12.68 0 0 1-8.64 3.34H1281.44c-6.75 0-12.22-5.12-12.22-11.43a11.09 11.09 0 0 1 3.58-8.08 12.64 12.64 0 0 1 8.64-3.34h1345.08c6.75 0 12.22 5.11 12.22 11.42ZM2638.74 538.2a11.09 11.09 0 0 1-3.58 8.08 12.64 12.64 0 0 1-8.64 3.34H1281.44c-6.75 0-12.22-5.11-12.22-11.42a11.09 11.09 0 0 1 3.58-8.09 12.68 12.68 0 0 1 8.64-3.34h1345.08c6.75 0 12.22 5.11 12.22 11.43ZM2638.74 601a11.07 11.07 0 0 1-3.58 8.08 12.64 12.64 0 0 1-8.64 3.35H1281.44c-6.75 0-12.22-5.12-12.22-11.43a11.09 11.09 0 0 1 3.58-8.08 12.64 12.64 0 0 1 8.64-3.34h1345.08c6.75.03 12.22 5.14 12.22 11.42ZM2638.74 663.87a11.09 11.09 0 0 1-3.58 8.08 12.64 12.64 0 0 1-8.64 3.34H1281.44c-6.75 0-12.22-5.11-12.22-11.42a11.09 11.09 0 0 1 3.58-8.09 12.68 12.68 0 0 1 8.64-3.34h1345.08c6.75 0 12.22 5.11 12.22 11.43ZM2638.74 726.7a11.07 11.07 0 0 1-3.58 8.08 12.64 12.64 0 0 1-8.64 3.35H1281.44c-6.75 0-12.22-5.12-12.22-11.43a11.09 11.09 0 0 1 3.58-8.08 12.64 12.64 0 0 1 8.64-3.34h1345.08c6.75 0 12.22 5.11 12.22 11.42ZM2638.74 789.54a11.09 11.09 0 0 1-3.58 8.08 12.64 12.64 0 0 1-8.64 3.34H1281.44c-6.75 0-12.22-5.11-12.22-11.42a11.09 11.09 0 0 1 3.58-8.09 12.68 12.68 0 0 1 8.64-3.34h1345.08c6.75 0 12.22 5.11 12.22 11.43Z" style="fill:#fff"></path>
    <path d="M2582.08 850.14v744.39a60.73 60.73 0 0 1-60.76 60.71H1387.61a60.74 60.74 0 0 1-60.78-60.71V933.24l218.34 151.36v426.55h68.2v-191.56h204.23v-309.78h172.61v353h127.73v-126.7h218.83v-323.5l62.48-62.47Z" style="fill:#dfe9f4"></path>
    <path d="M1326.83 1508.87a3 3 0 0 1-3-3V856.72a3 3 0 0 1 6 0v649.15a3 3 0 0 1-3 3ZM2446.38 1658.24H1387.61a3 3 0 0 1 0-6h1058.77a3 3 0 0 1 0 6ZM2582.08 1576.81a3 3 0 0 1-3-3V830.65a3 3 0 0 1 6 0v743.16a3 3 0 0 1-3 3Z" style="fill:#92b1dd"></path>
    <rect width="19.43" height="124.96" x="578.58" y="430.13" rx="6.8" style="fill:#dfe9f4"></rect>
    <ellipse cx="598" cy="683.26" rx="78.19" ry="44.63" style="fill:#dfe9f4"></ellipse>
    <path d="M821.9 687.9H374.1a14.91 14.91 0 0 1-14.16-19.68C390.59 578.94 485.58 513.86 598 513.86s207.41 65.08 238.06 154.36a14.92 14.92 0 0 1-14.16 19.68Z" style="fill:#f5f5f7"></path>
    <path d="M370.29 646.64a3.09 3.09 0 0 1-1.51-.41 3 3 0 0 1-1.08-4.1c39.33-67.59 94.52-99.68 133.9-114.7 42.68-16.28 75.59-16.56 77-16.57a3 3 0 0 1 0 6c-.33 0-33.39.32-75.09 16.27-38.39 14.69-92.22 46-130.62 112a3 3 0 0 1-2.6 1.51ZM479 690.9h-72a3 3 0 0 1 0-6h72a3 3 0 1 1 0 6ZM801 690.9H701a3 3 0 0 1 0-6h100a3 3 0 0 1 0 6ZM823.11 641.63a3 3 0 0 1-2.54-1.41c-36.15-57.81-78.94-86.64-108.47-100.64-32-15.18-55.79-16.72-56-16.73a3 3 0 0 1 .34-6c1 .06 25 1.56 58 17.16 30.34 14.33 74.27 43.84 111.27 103a3 3 0 0 1-.95 4.14 3 3 0 0 1-1.65.48Z" style="fill:#dfe9f4"></path>
    <path d="M528 633.6H378.35a3 3 0 0 1 0-6H528a3 3 0 0 1 0 6ZM770 661H578.58a3 3 0 1 1 0-6H770a3 3 0 0 1 0 6Z" style="fill:#dfe9f4"></path>
    <path d="M1061.2 2472.16s-36.41-27.51-45-79.84 10.71-66.83 45-47.8 58.39 47.8 58.39 47.8-25.24-43.27 4.24-47.8 33.76 44.15 33.76 44.15 4-63.18 47-44.15 34.44 65.31 34.44 65.31 32.6-32.54 46.28-13.71-31.29 76-31.29 76Z" style="fill:#cedbee"></path>
    <path d="M2438.08 2472.22h-74.55s-36.42-147.23 0-194.35 57.83 66.65 57.83 66.65 53.55-29 75-11.41 14.58 59.21 14.58 59.21 31.89-23.51 50.43-3.65 20.74 31.09 20.74 31.09-21.34-57.73 0-64.47 21.35 49.05 21.35 49.05 34.27-29.89 53.55 0 12.85 67.82 12.85 67.82ZM473.07 2293.14c0-28.57 42.84-148.57 102.23-235.71s165.51-98.58 165.51-98.58-35 71.43-89.25 145.72-156.78 197.57-156.78 197.57Z" style="fill:#dfe9f4"></path>
    <path d="M442.43 2146.76S409.16 2001 420 1802.05s45.82-253.2 45.82-253.2 36.1 61.42 49.41 228.57-21.67 444.29-21.67 444.29l-39.14-3.66Z" style="fill:#cedbee"></path>
    <path d="M430.25 2210.29s-87.43-325.72-94.67-391.44 0-168.57 0-168.57 68.73 71.43 94.67 190 35.58 381.43 35.58 381.43Z" style="fill:#aec6d3"></path>
    <path d="M444.13 2247.43S379 2126 348.85 2048.85s-48.24-181.43-48.24-181.43 77.18 18.57 109.75 137.15 48.24 242.86 48.24 242.86Z" style="fill:#cedbee"></path>
    <path d="M473.07 2264.57s10.86-157.14 36.18-290 89.25-221.44 89.25-221.44 16.88 94.29 0 204.29-98.45 327.15-98.45 327.15Z" style="fill:#aec6d3"></path>
    <path d="m657.5 2213.92-44 233.13c-2.08 11-10.21 18.84-19.57 18.84H397.47c-9.37 0-17.49-7.82-19.57-18.84l-7.73-41-36.26-192.14c-2.86-15.17 6.69-29.6 19.57-29.6h284.45c12.88.01 22.42 14.44 19.57 29.61Z" style="fill:#dfe9f4"></path>
    <path d="m657.5 2213.92-44 233.13c-2.08 11-10.21 18.84-19.57 18.84H397.47c-9.37 0-17.49-7.82-19.57-18.84l-7.73-41h72.44c56.77 0 105.87-41.27 118-99.17l25.7-122.57h51.62c12.88.01 22.42 14.44 19.57 29.61Z" style="fill:#cedbee"></path>
    <path d="M443.78 2157.12a3 3 0 0 1-2.93-2.37l-26-121.1c-13.22-61.73-43.93-102.89-67.35-126.55-25.43-25.67-48-36.87-48.26-37a3 3 0 1 1 2.63-5.39c.95.46 23.58 11.64 49.7 38 24.06 24.25 55.59 66.43 69.15 129.7l25.94 121.1a3 3 0 0 1-2.3 3.57 3.44 3.44 0 0 1-.58.04ZM458.6 2108a3 3 0 0 1-3-2.84c0-.67-3.76-68.17-14.8-168.84-11-100.39-33.38-160.81-33.61-161.41a3 3 0 1 1 5.62-2.1c.23.6 22.85 61.73 33.95 162.86 11.07 100.84 14.8 168.5 14.83 169.17a3 3 0 0 1-2.83 3.16ZM497.37 2047.91h-.36a3 3 0 0 1-2.62-3.33c9.53-78.89 32.22-147.37 49.58-190.93 18.82-47.21 35.64-76.21 35.81-76.5a3 3 0 1 1 5.18 3c-.66 1.13-66.53 115.43-84.61 265.11a3 3 0 0 1-2.98 2.65ZM518.26 1842.07a3 3 0 0 1-3-3c-2.34-143.28-44.59-262.07-45-263.26a3 3 0 1 1 5.64-2c.43 1.19 43 120.87 45.37 265.19a3 3 0 0 1-3 3ZM582.37 2047.91a3 3 0 0 1-2.39-4.81c39.52-52.3 155.11-85.73 160-87.13a3 3 0 1 1 1.64 5.77c-1.18.33-118.55 34.28-156.86 85a3 3 0 0 1-2.39 1.17ZM586.31 2187.32h-217.4a3 3 0 1 1 0-6h217.4a3 3 0 0 1 0 6ZM539.87 2463.17H377.1l-32.8-178.05a3 3 0 1 1 5.9-1.09l31.9 173.14h157.77a3 3 0 0 1 0 6ZM620 2372.33a3 3 0 0 1-2.9-3.78l27.64-102.89a3 3 0 0 1 5.8 1.55l-27.65 102.9a3 3 0 0 1-2.89 2.22Z" style="fill:#92b1dd"></path>
    <path d="M2385 2383.73c1.56 16.24 2.58 26.1 2.58 26.1h-109.93s20.45-199.26 20.45-281.92c0-54.56-8.93-139.19-15-190.4-3.13-26.36-5.48-43.87-5.48-43.87h109.94s-2.36 17.51-5.48 43.87c-6.06 51.21-15 135.84-15 190.4.05 64.28 12.42 199.09 17.92 255.82Z" style="fill:#cedbee"></path>
    <path d="M2277.65 2409.83s20.45-199.26 20.45-281.92c0-54.56-8.93-139.19-15-190.4-3.13-26.36-5.48-43.87-5.48-43.87h27.5c6.51 73.09 17 198.56 17.88 258.1 1.27 86.88-17.9 225.62-11.51 230 2.42 1.68 34.52 2.09 73.49 1.95 1.56 16.24 2.58 26.1 2.58 26.1ZM2477.71 2423.87v22.25c0 7.77-2.58 14.05-5.76 14.05h-278.67c-3.18 0-5.77-6.28-5.77-14.05v-22.25c0-7.75 2.59-14 5.77-14H2472c3.13-.04 5.71 6.25 5.71 14Z" style="fill:#aec6d3"></path>
    <path d="M2387.58 1893.64s-2.36 17.51-5.48 43.87h-99c-3.12-26.36-5.48-43.87-5.48-43.87Z" style="fill:#aec6d3"></path>
    <path d="M2592.98 1445.31h-270.97l-115.2 400.36h340.71l45.46-400.36z" style="fill:#cedbee"></path>
    <path d="M2511.12 1845.55c11.23-75 52.47-320.12 63.35-384.59a18.77 18.77 0 0 1 18.51-15.65 18.78 18.78 0 0 1 18.61 21.29l-52 384.24a18.77 18.77 0 0 1-18.61 16.25h-11.29a18.77 18.77 0 0 1-18.57-21.54Z" style="fill:#aec6d3"></path>
    <rect width="454.17" height="53.09" x="2103.21" y="1840.55" rx="18.59" style="fill:#dfe9f4"></rect>
    <path d="M2539.54 1448.31H2322a3 3 0 0 1 0-6h217.53a3 3 0 0 1 0 6Z" style="fill:#92b1dd"></path>
    <path d="M2519.84 1793a4.21 4.21 0 0 1-.5 0 3 3 0 0 1-2.47-3.46l51.2-308.65a3 3 0 0 1 5.92 1l-51.2 308.66a3 3 0 0 1-2.95 2.45ZM2557.39 1862.14a3.11 3.11 0 0 1-.43 0 3 3 0 0 1-2.54-3.4l19.4-135.39a3 3 0 0 1 5.94.85l-19.4 135.39a3 3 0 0 1-2.97 2.55Z" style="fill:#7297b5"></path>
    <path d="M2490 1843.55h-236.84a3 3 0 0 1 0-6H2490a3 3 0 0 1 0 6ZM2387.58 2412.83a3 3 0 0 1-3-2.74c-.17-1.91-16.52-191.9-20.27-267-3.77-75.27 20-248.17 20.28-249.91a3 3 0 0 1 5.95.82c-.24 1.74-24 174.08-20.24 248.79 3.74 74.95 20.09 264.82 20.26 266.73a3 3 0 0 1-2.73 3.25Z" style="fill:#92b1dd"></path>
    <path d="M2377.19 1259.69s.49 53.52 6.56 65.07 25.29 22.07 25.29 22.07-40.67 59.73-79.74 64.41-84.22-17.65-84.22-17.65l-10.08-64.32s54.63-25.84 59.35-36.69 82.84-32.89 82.84-32.89Z" style="fill:#c66161"></path>
    <path d="M2251.68 1143.78a7.5 7.5 0 0 1-1.63 6.64 36.42 36.42 0 0 0 16.5 8.58s.72-1.27 1.85-3.42l109.42 85.17-8.86 8.88s15.7 13.31 33.24 8 17.88-24.61 17.88-24.61c.53-.06 21.67-2.66 26.91-17.19 1.75-4.89 1.84-10.86 1.14-16.72 6.68-10.22 11.69-21.29 13.92-32.63 5.13-26.23-21.52-36.71-22.4-37 12.52-11.55 17.29-27.14 6.86-45.2l-6.08 40c1.34-15.08-1.72-58.42-77.16-74-91.96-19.1-117.77 58.15-111.59 93.5Z" style="fill:#272744"></path>
    <path d="M2272.83 1096.62s-26.45 43-31.71 94.68 22.94 72.57 34.71 80.62a62.61 62.61 0 0 0 23.21 9.81l-11 25.21s-53.43 51.53-10.09 66.62 93.67-37.3 93.67-37.3-3.08-47.11 3.11-68.58 14.84-42.23 20-45.06 10.68 6.46 22.59-7.28 3.28-36.34-6.34-39-31.13 35.45-35.38 34.25-10.71-4.21-6.8-9.77 14.24-19.09 13.18-23.38-18.88-27.26-23.37-41.49-4.11-19.9-4.11-19.9-14.77 6.34-42.49-2.2-39.18-17.23-39.18-17.23Z" style="fill:#c66161"></path>
    <path d="M2299 1281.73s10.73 3.77 27.28-5.62 39.72-38.46 39.72-38.46-7.16 25.5-29.53 47.61-48.44 21.68-48.44 21.68Z" style="fill:#9b4b4b"></path>
    <ellipse cx="2268.38" cy="1171.02" rx="6.66" ry="4.29" style="fill:#272744" transform="rotate(-70.39 2268.383 1171.018)"></ellipse>
    <ellipse cx="2315.81" cy="1182.68" rx="6.66" ry="4.29" style="fill:#272744" transform="rotate(-70.39 2315.817 1182.679)"></ellipse>
    <path d="M2310.9 1162.06c5-2.77 10.81-4.52 16.23-1.81 5 2.5 10 8.23 12.54 13.15.84 1.64 3.35.27 2.51-1.37-3-5.81-8.76-12.45-14.93-15-5.95-2.41-12.36-.48-17.72 2.47a1.43 1.43 0 0 0 1.37 2.51ZM2261.33 1147c7.27-3.35 13.32 3.4 17.53 8.41 1.18 1.41 3.23-.59 2-2-5.2-6.19-12.35-12.89-20.95-8.93-1.68.77-.29 3.27 1.37 2.51Z" style="fill:#272744"></path>
    <g style="opacity:.49">
      <ellipse cx="2332.44" cy="1220.81" rx="11.39" ry="8.94" style="fill:#9b4b4b" transform="rotate(-44.07 2332.68 1220.83)"></ellipse>
    </g>
    <g style="opacity:.49">
      <ellipse cx="2250.14" cy="1203.59" rx="7.47" ry="6.27" style="fill:#9b4b4b" transform="rotate(-44.07 2250.377 1203.62)"></ellipse>
    </g>
    <path d="M2280.87 1215.79a22.88 22.88 0 0 1-3.56-.89 6.86 6.86 0 0 1-2.41-1.27c-1.46-1.28-2.11-3.34-1.89-6a17 17 0 0 1 4-9.61 33.67 33.67 0 0 1 2.37-2.4c.73-.69 1.43-1.35 2-2.05a13.21 13.21 0 0 0 3.13-8.44 2 2 0 0 1 2-2 2 2 0 0 1 2 2 17.32 17.32 0 0 1-4.12 11.12 30.73 30.73 0 0 1-2.34 2.36 28.74 28.74 0 0 0-2.06 2.08 12.93 12.93 0 0 0-3 7.28 3.25 3.25 0 0 0 .54 2.58 3.75 3.75 0 0 0 1.08.51 19.46 19.46 0 0 0 10.07.62 2 2 0 0 1 2.33 1.59 2 2 0 0 1-1.58 2.38 23.3 23.3 0 0 1-8.56.14ZM2273 1233.33s4.34 13.06 14 15.38 18.24-6.68 19.43-9.73 2.75-5.36 1.58-5.38-12.83 2.45-21.15 0-15.19-6.48-13.86-.27Z" style="fill:#9b4b4b"></path>
    <path d="m2440.45 1124.18-.79 5.19v.06-.07a40 40 0 0 0 .79-5.18Z" style="fill:#fff"></path>
    <path d="M2413.57 1070.24s-16.3-41.49-42.07-47.28-47.79 14.31-47.79 14.31a42.39 42.39 0 0 0-37.68-12.48c-23.94 3.73-19.67 44.49-19.67 44.49s-13.6-7.93-16.9 19.41 2.12 33.3 2.12 33.3 25-35 68.35-53.42 93.64 1.67 93.64 1.67Z" style="fill:#272744"></path>
    <path d="M2193.8 2366.59s20.78 72.26 13 81.14-170.33 15.87-173 8 4.37-21.85 20.1-24.47 82.16-23.6 86.53-28.84 5-17.74 5-17.74ZM1793.73 2344.52c1 8.44 7.11 59 0 64.89s-151.42 42-156.66 38-11.8-9 0-21.85 91.77-48.29 99-60.74 7.32-17.29 7.32-17.29Z" style="fill:#343468"></path>
    <path d="M2332.6 1713.19c.85 30.18-47.38 63.75-108.67 94.87-102 51.79-240.09 96.8-248.38 108.06-13.3 18-31.1 6.44-48 98.24S1817 2332.53 1803.1 2347.55s-51.77 4.3-59.73 0c-.85-.45-.16-7.48 1.79-19.7 16.26-101.85 119.37-564.11 133.6-581.75 15.93-19.76 276.42-114.63 276.42-114.63 26.27-9.67 175.17 1.32 177.42 81.72Z" style="fill:#2c4fa0"></path>
    <g style="opacity:.6">
      <path d="M2223.93 1808.06c-102 51.79-240.09 96.8-248.38 108.06-13.3 18-31.1 6.44-48 98.24S1817 2332.53 1803.1 2347.55s-51.77 4.3-59.73 0c-.85-.45-.16-7.48 1.79-19.7 22.21-2.86 43.29-7.43 50-14.64 15.92-17.17 93.57-339.14 103.52-369.2s38.94-170 40-176.3c1.84-10.71 137.39 6.82 285.25 40.35Z" style="fill:#273657"></path>
    </g>
    <path d="M2406.93 1822.27c-46.45 42.94-308.42 70.13-308.18 74.42s61.3 137.38 78.55 260.45 25.22 213.23 21.24 217.52c-2.15 2.32-14.43 10.09-26.9 14-10.58 3.33-21.32 3.89-26.19-4-10.62-17.18-168.57-510.89-169.9-538.08-.81-16.57 99.48-95.35 177.92-154.34 50.25-37.79 91.53-67.47 91.53-67.47l189.12 17.73s19.27 136.84-27.19 179.77Z" style="fill:#2c4fa0"></path>
    <g style="opacity:.6">
      <path d="M2406.93 1822.27c-46.45 42.94-308.42 70.13-308.18 74.42s61.3 137.38 78.55 260.45 25.22 213.23 21.24 217.52c-2.15 2.32-14.43 10.09-26.9 14-1.22-122.18-73.8-439.18-72.89-447.62 1.08-10-25.08-38.52-30.38-44.36s146.1-45.78 172.63-68.68 95.56-101.61 91.58-114.81c-3-9.94-120.89-17.69-179.13-20.93 50.25-37.79 91.53-67.47 91.53-67.47l189.12 17.73s19.29 136.82-27.17 179.75Z" style="fill:#273657"></path>
    </g>
    <path d="M2074.11 1049.92s-3.51-17-7-21.39-13.77-17.29-17.88-22-10-20.22-11.13-26.08-.88-12.6 3.22-10 17.29 26.08 17.58 25.2-15.53-42.2-14.06-45.72 4.39-4.39 7.32-1.76S2070 987.8 2070 984s-16.13-44.55-14.22-48.36 6.31-5.56 11.58 2 17.29 50.12 17.59 43.08-5.57-41.9-5-44.54 7.92-3.81 10.26.59 7.33 38.68 10 47.47 4.4 10.26 6.45 2.64 1.17-15.24 6.16-17.29 6.15-.88 6.15 2.63-1.76 25.79-4.4 35.46-3.22 12.86-2.05 22 4.1 14.36 4.1 14.36-34.3 24.05-42.51 5.88ZM2670.94 1119s3.51-17 7-21.39 13.77-17.29 17.87-22 10-20.22 11.14-26.08.88-12.6-3.22-10-17.29 26.08-17.59 25.2 15.54-42.19 14.07-45.71-4.4-4.4-7.33-1.76S2675 1056.82 2675 1053s16.13-44.54 14.22-48.35-6.31-5.57-11.58 2.05-17.29 50.11-17.59 43.08 5.57-41.91 5-44.54-7.91-3.81-10.25.58-7.33 38.68-10 47.48-4.39 10.25-6.44 2.63-1.18-15.24-6.16-17.29-6.15-.88-6.15 2.64 1.76 25.79 4.39 35.46 3.22 12.85 2.06 22-4.11 14.36-4.11 14.36 34.34 24.02 42.55 5.9Z" style="fill:#c66161"></path>
    <path d="M2684.11 1125.53c.87 6.11-89.14 193.15-97 201s-129.35 58.56-140.72 67.29-11.35 243-12.23 249.09-95.27 21-111.87 21-169.56-26.22-172.18-27.09c-1.88-.63-3.31-21.33-.78-60.17 1-15.54 2.67-34 5.16-55.2 8.73-74.29 32.33-171.3 32.33-171.3s-93.52-103.14-97-108.38-27.08-166.93-25.34-183.64c.26-2.47 1.72-4.51 4-6.19 13.35-9.75 55.31-7.68 59.78-7.68 5.24 0 21 156.44 28.84 166.92s108.36 75.16 108.36 75.16 13.11.88 18.36 2.63-3.49 35 14.86 39.32 80.23-30.35 80.23-30.35 12.41 13.76 17.65 13.76 133.72-42 137.22-45.45 76.92-154.7 83.91-160.82c5.29-4.63 40.19 5.78 57.18 13.76 5.43 2.55 9.03 4.86 9.24 6.34Z" style="fill:#6cc58d"></path>
    <g style="opacity:.69">
      <path d="M2209.31 1297.7c-7.86 10.49-22.5 52.44-22.5 52.44s-93.52-103.14-97-108.38-27.08-166.93-25.34-183.64c.26-2.47 1.72-4.51 4-6.19 9.72 51 33.62 174.88 37.27 179.56 4.59 5.9 68.17 82.6 76 81.29s35.44-25.57 27.57-15.08Z" style="fill:#3e9a83"></path>
    </g>
    <g style="opacity:.69">
      <path d="M2684.11 1125.53c.87 6.11-89.14 193.15-97 201s-129.35 58.56-140.72 67.29c0 0-20.1-69.26-14.85-60.73s22.94 22.1 36 20.88 94.39-31.37 102.25-39.24c5.33-5.32 66.26-121.26 105-195.56 5.51 2.57 9.11 4.88 9.32 6.36Z" style="fill:#3e9a83"></path>
    </g>
    <g style="opacity:.69">
      <path d="M2446.38 1393.83c-11.35 8.75-11.35 243-12.23 249.09s-95.27 21-111.87 21-169.56-26.22-172.18-27.09c-1.88-.63-3.31-21.33-.78-60.17 70.6.21 200.37.5 203.55-.13 4.36-.88 64.67-88.29 66.42-113.63s12.24-129.78 12.24-129.78Z" style="fill:#3e9a83"></path>
    </g>
    <path d="M2090.4 2355.11c2.41 22.32 4 35.87 4 35.87h-169.14s31.45-273.86 31.45-387.47c0-75-13.72-191.31-23-261.69-4.81-36.23-8.43-60.29-8.43-60.29h169.11s-3.63 24.06-8.43 60.29c-9.32 70.38-23 186.7-23 261.69-.06 88.34 18.97 273.57 27.44 351.6Z" style="fill:#aec6d3"></path>
    <path d="M1925.26 2391s31.45-273.86 31.45-387.47c0-75-13.72-191.31-23-261.69-4.81-36.23-8.43-60.29-8.43-60.29h42.31c10 100.45 26.14 272.9 27.49 354.72 2 119.41-27.53 310.1-17.7 316.19 3.73 2.29 53.1 2.86 113 2.67 2.41 22.32 4 35.87 4 35.87Z" style="fill:#92b1dd"></path>
    <path d="M2480.75 1631.63v30.59c0 10.66-8.38 19.31-18.7 19.31h-904.47c-10.34 0-18.71-8.65-18.71-19.31v-30.59c0-10.65 8.37-19.3 18.71-19.3h904.47c10.32 0 18.7 8.67 18.7 19.3ZM2233 2410.28v30.58c0 10.67-4 19.31-8.86 19.31H1795.5c-4.9 0-8.87-8.64-8.87-19.31v-30.58c0-10.66 4-19.3 8.87-19.3h428.63c4.87.02 8.87 8.64 8.87 19.3Z" style="fill:#cedbee"></path>
    <path d="M2094.36 1681.53s-3.63 24.06-8.43 60.29h-152.24c-4.8-36.23-8.43-60.29-8.43-60.29Z" style="fill:#92b1dd"></path>
    <path d="M2480.75 1631.63v13.86h-941.88v-13.86c0-10.65 8.37-19.3 18.71-19.3h904.47c10.32 0 18.7 8.67 18.7 19.3Z" style="fill:#fff"></path>
    <path d="M2148 1648.49h-550.41a3 3 0 0 1 0-6H2148a3 3 0 0 1 0 6ZM2399.9 1684.53h-557.83a3 3 0 0 1 0-6h557.83a3 3 0 0 1 0 6Z" style="fill:#92b1dd"></path>
    <path d="M2322 1615.33h-485.93a3 3 0 1 1 0-6H2322a3 3 0 0 1 0 6ZM1793.94 1615.33h-213.77a3 3 0 0 1 0-6h213.77a3 3 0 0 1 0 6Z" style="fill:#cedbee"></path>
    <path d="M2387.59 1648.49h-180.78a3 3 0 0 1 0-6h180.78a3 3 0 0 1 0 6Z" style="fill:#92b1dd"></path>
    <path d="M1973.45 2316.05h-.31a3 3 0 0 1-2.67-3.29c.17-1.66 17.44-166.37 21.59-276.6 4.15-110.06-21.32-292.07-21.58-293.9a3 3 0 0 1 5.94-.84c.26 1.83 25.81 184.37 21.64 295-4.16 110.43-21.45 275.34-21.63 277a3 3 0 0 1-2.98 2.63ZM1923.25 2381.47h-.4a3 3 0 0 1-2.57-3.37c.15-1.12 15.33-113.49 31.2-251.41 15.82-137.57-28.74-441.64-29.19-444.69a3 3 0 1 1 5.94-.88c.45 3.06 45.12 307.91 29.21 446.25-15.88 138-31.06 250.41-31.22 251.53a3 3 0 0 1-2.97 2.57ZM1995.52 2358.29a3 3 0 1 1 0-6l94.87-.18a3 3 0 1 1 0 6l-94.87.18ZM2085.94 1744.82h-.42a3 3 0 0 1-2.56-3.38l8.43-60.3a3 3 0 0 1 5.94.83l-8.43 60.3a3 3 0 0 1-2.96 2.55Z" style="fill:#7297b5"></path>
    <path d="M2187.51 2394h-392a3 3 0 1 1 0-6h392a3 3 0 0 1 0 6ZM2139.83 2463.17h-356.21v-52.89a3 3 0 1 1 6 0v46.89h350.21a3 3 0 0 1 0 6Z" style="fill:#92b1dd"></path>
    <path d="M2148 2432.54h-184.77a3 3 0 0 1 0-6H2148a3 3 0 0 1 0 6Z" style="fill:#92b1dd"></path>
    <path d="M1866.03 1615.12h57.22l-34.12-179.38-3.56 27.69-19.54 151.69z" style="fill:#cddde8"></path>
    <path d="M1866.03 1615.12h46.52l-26.98-151.69-19.54 151.69z" style="fill:#7297b5"></path>
    <path d="m1866 1615.12 23.21-175.12c1-7.74-4.33-14.7-11.31-14.7h-133.82c-5.39 0-10 4.22-11.18 10.13l-34.35 179.68Z" style="fill:#cddde8"></path>
    <path d="M1869.07 1435.74h-119.46c-4.55 0-8.49 3.56-9.45 8.54l-29.29 150.91c-1.31 6.76 3.28 13.15 9.46 13.15h126.77c4.74 0 8.79-3.85 9.55-9.1l22-150.91c.93-6.6-3.65-12.59-9.58-12.59Z" style="fill:#fff"></path>
    <rect width="104.68" height="6.98" x="1758.56" y="1454.62" rx="2.44" style="fill:#cddde8" transform="rotate(-180 1810.9 1458.11)"></rect>
    <rect width="104.68" height="6.98" x="1746" y="1522.04" rx="2.44" style="fill:#cddde8" transform="rotate(180 1798.34 1525.53)"></rect>
    <rect width="104.68" height="6.98" x="1753.44" y="1474.39" rx="2.44" style="fill:#cddde8" transform="rotate(180 1805.78 1477.88)"></rect>
    <rect width="104.68" height="6.98" x="1753.44" y="1503.93" rx="2.44" style="fill:#cddde8" transform="rotate(180 1805.78 1507.425)"></rect>
    <rect width="104.68" height="6.98" x="1734.83" y="1571.36" rx="2.44" style="fill:#cddde8" transform="rotate(-180 1787.17 1574.845)"></rect>
    <rect width="104.68" height="6.98" x="1742.28" y="1553.25" rx="2.44" style="fill:#cddde8" transform="rotate(-180 1794.615 1556.74)"></rect>
    <path d="M996.45 905.07s-35-13.41-48.81 16.39-31 38.36-48.26 21.58-8.62-30.56-17.23-16.77-36.12 67.4 41.36 111.39 103.42-18.89 107.73-37.56-20.68-66.94-20.68-66.94 25.37 68.63 81.92 48 43.32-93.64-19.3-107.44-79.64-14.85-76.73 31.35Z" style="fill:#3d237c"></path>
    <path d="M1077.06 977.1s5.82 54.07-13.08 68.47-24.25 69.84 7.15 85.55S1187 1152.9 1187 1152.9l67.68-64.59-42.31-49.53s-32.16-13.12-42.22-22-13.27-21.86-13.27-21.86-86.5-46.56-79.82-17.82Z" style="fill:#ffb2a8"></path>
    <path d="M1156.77 994.64s-25.49 6.14-42.32-3.85a61.19 61.19 0 0 1-23.4-24.63s19 38.57 38.83 51.72 35.09 9.95 35.09 9.95Z" style="fill:#f27c85"></path>
    <path d="M1201.49 830.66s-77 109.73-96.2 112.77c-14.31 2.27-57.64-7.21-78.67-12.18-7.17-1.67-11.74-2.83-11.74-2.83s-2.57-3.31-6.38-9.08a.6.6 0 0 1-.09-.13c-2.8-4.3-64.42-100.94 37.42-145.68 104.17-45.78 138.6-31.27 155.66 57.13Z" style="fill:#3d237c"></path>
    <path d="M1208 951.23c-10.22 34.64-40.53 41.7-40.53 41.7l.06.25a128.86 128.86 0 0 1-40.86 2.52c-18.62-2-36.07-10.19-49.61-18.6-.22-.13-.45-.28-.69-.44-7.23-5-21-24.53-21-24.53l-11.44-1.73a16.9 16.9 0 0 0-3.77-1.44c-14.06-3.65-37.85-23.38-28.53-55.15s41.88-10.72 41.88-10.72 12.39 32.85 22 34 1.63-60.4 1.63-60.4 19.81-10.93 49.6-15.65 74.79-10.42 74.79-10.42 1.72 8.32 3.79 24.28 12.89 61.71 2.68 96.33Z" style="fill:#ffb2a8"></path>
    <ellipse cx="1129.49" cy="899.95" rx="4.04" ry="6.03" style="fill:#3d325e" transform="rotate(-9.02 1129.49 899.977)"></ellipse>
    <ellipse cx="1183.25" cy="891.42" rx="4.04" ry="6.03" style="fill:#3d325e" transform="rotate(-9.2 1158.063 874.978)"></ellipse>
    <path d="m1134.25 876.25-.14-.56 1.11 1.41c-5.51-2.56-14 .68-18.74 3.4-2 1.12-3.44-2.18-1.47-3.3a31.39 31.39 0 0 1 14.36-4.23c2.71-.11 7.52-.73 8.35 2.73.55 2.26-2.93 2.8-3.47.55ZM1190.27 867.36l-.14-.56 1.11 1.4c-5.51-2.55-14 .69-18.74 3.41-2 1.12-3.44-2.18-1.47-3.3a31.39 31.39 0 0 1 14.36-4.23c2.71-.11 7.52-.73 8.35 2.72.55 2.27-2.93 2.81-3.47.56Z" style="fill:#3d325e"></path>
    <path d="M1174.51 950.85s-3.51 10.32-11.15 12.08-14.34-5.46-15.25-7.89-2.13-4.27-1.21-4.28 10.1 2.06 16.67.2 12.01-5.03 10.94-.11Z" style="fill:#d63646"></path>
    <path d="M1158.26 904.8c3 4.7 14.08 17.57 3.81 20.64-2.76.82-2.08 5.31.71 4.48 4.7-1.41 8.25-5.16 8.25-10.29 0-6.16-6.19-12.82-9.26-17.7-1.55-2.47-5 .43-3.51 2.87Z" style="fill:#f27c85"></path>
    <path d="M1008.5 919.34Z" style="fill:#5e45ad"></path>
    <path d="M1053.47 883.09s13 8.14 18.68-6.29 5-20.08 5-20.08 21.89 48.42 13.68 62.62-13.42 22.9-28.5 7.83-8.86-44.08-8.86-44.08Z" style="fill:#ffb2a8"></path>
    <path d="M1043.15 898.19s-16.63-11.81-21.27-4.47-2.32 25.52.78 32.48 17.4 9.67 17.78 5.8-4.25-5.8-3.86-8.89 5.8-4.26 6.57-1.94 11.98-12.7 0-22.98Z" style="fill:#f27c85"></path>
    <path d="M1202.53 832.63s-77.85-7.27-121.13 18.74-61.47 41.24-74.45 45.73-20.49-5.86-21.6-10.79c0 0-31.42-122.25 46.2-156.41a103.58 103.58 0 0 1 30.06-7.84c115.07-13.37 132.31 45.91 136.62 72.85.85 5.25 1.52 9.86 2.06 13.93 2.24 16.78 2.24 23.79 2.24 23.79Z" style="fill:#6cc58d"></path>
    <path d="M1202.53 832.63s-77.85-7.27-121.13 18.74-61.47 41.24-74.45 45.73-20.49-5.86-21.6-10.79c0 0-31.42-122.25 46.2-156.41-8.06 12.68-18.32 31.25-22.75 49.57-7.82 32.32 10.3 88 12.9 85.32s69.23-77.9 178.59-55.95c2.24 16.78 2.24 23.79 2.24 23.79Z" style="fill:#3e9a83"></path>
    <path d="M1015.62 893.06s52.82-62.36 90-73.1 94.3-8.9 102.08-4.4 33.72 23.44 31.12 30.14-58.81-16.69-98.61-6-60.6 49.34-88.28 54.7-36.31-1.34-36.31-1.34Z" style="fill:#abdda8"></path>
    <path d="M1572.17 974.24v3.2a17 17 0 0 1-17 17h-118.69a17.06 17.06 0 0 1-16.92-14.94 18.22 18.22 0 0 1-.12-2.1v-3.2a17 17 0 0 1 17-17h118.65a17 17 0 0 1 17.08 17.04Z" style="fill:#cedbee"></path>
    <path d="M1572.17 974.24v3.2a17 17 0 0 1-9.61 15.34c-2-3.74-5.25-8.44-10-10.15-8.29-3-15.07-2.46-25.62 2.21s-18.64.41-28.81-2.22-9.23.56-19.21 2-18.27-5.6-28.82-1.65-9 0-19-3.63a15.58 15.58 0 0 0-11.55.18 18.22 18.22 0 0 1-.12-2.1v-3.2a17 17 0 0 1 17-17h118.65a17 17 0 0 1 17.09 17.02Z" style="fill:#aec6d3"></path>
    <path d="M1570.86 976.22c-4.71-1.51-7.16-1.51-13.94 1.5s-9.79-6.21-21.85-1.5-20 3.57-26.74.18-6.22-.75-12.62-.18-9.6-4.9-16.38-1.51-9.8 6.4-19.21 2.26-13.19 2.64-20.53-.82-4.52-4.83-14.32-1.82-14.69 2.26-12.93-2.07c1-2.4 3.72-4.79 6-6.45 1.81-1.33 3.3-2.19 3.3-2.19l140-3s7.94 2.06 13.31 5.31c2.26 1.37 4.07 3 4.64 4.68 1.94 5.79-4.03 7.11-8.73 5.61Z" style="fill:#cedbee"></path>
    <path d="M1574.94 965.89c-7.78 1.47-23.41 3.26-54.56 4.08-45.2 1.19-86.06-2.12-102.07-4.16 1.81-1.33 3.3-2.19 3.3-2.19l140-3s7.96 2.02 13.33 5.27Z" style="fill:#aec6d3"></path>
    <path d="M1577.17 952.31v.28a12 12 0 0 1-12 11.95h-139a12 12 0 0 1-12-11.95v-.28a11.93 11.93 0 0 1 12-11.94h139a11.94 11.94 0 0 1 10.74 6.7 11.8 11.8 0 0 1 1.26 5.24Z" style="fill:#aec6d3"></path>
    <path d="M1579.58 939.24s-29.34 9.44-52 16.12c-12.64 3.71-23.22 6.57-25.55 6.48-5.16-.2-58.11-14.19-80.13-20.05l-9.52-2.55 14.52-1.24c4.78-1.77 152.68 1.24 152.68 1.24Z" style="fill:#dfe9f4"></path>
    <path d="M1575.32 928a8.18 8.18 0 0 1-7.48 4.75h-144.26a8.18 8.18 0 0 1-7.48-4.75c-1.23-2.73-2.17-6.94-1.75-13.32 1-15.32 16.83-49.72 81.36-49.72s80.35 34.4 81.36 49.72c.42 6.32-.52 10.55-1.75 13.32Z" style="fill:#cedbee"></path>
    <ellipse cx="1462.82" cy="877.6" rx="6.78" ry="2.39" style="fill:#fff"></ellipse>
    <ellipse cx="1503.46" cy="873.95" rx="6.78" ry="2.39" style="fill:#fff"></ellipse>
    <ellipse cx="1453.53" cy="893.12" rx="6.78" ry="2.39" style="fill:#fff"></ellipse>
    <ellipse cx="1483.59" cy="885.06" rx="6.78" ry="2.39" style="fill:#fff"></ellipse>
    <ellipse cx="1525.6" cy="887.45" rx="6.78" ry="2.39" style="fill:#fff"></ellipse>
    <rect width="137.86" height="6.53" x="1426.91" y="932.71" rx="2.29" style="fill:#aec6d3"></rect>
    <path d="m1694.77 884.8-55.36-86.32a1.72 1.72 0 0 0-2.33-.64l-3.08 1.75a2.26 2.26 0 0 0-.63 3.18l58.44 84.57c1.09 1.58 3.32.7 3.32-1.3a2.31 2.31 0 0 0-.36-1.24ZM1697.59 890l1.38-79a2 2 0 0 1 1.86-2.06h7a2 2 0 0 1 1.84 2.33l-7.56 79a2 2 0 0 1-1.85 1.88h-.79a2 2 0 0 1-1.88-2.15Z" style="fill:#92b1dd"></path>
    <path d="M1757.92 883.76a47 47 0 0 1-19.81.55 1.26 1.26 0 0 0-1.38-.8l-1.49.17q-2.12-.54-4.2-1.29c.67-1 .25-3-1.24-3.17-2.17-.29-4.69-.66-7.37-1-7.57-4.61-13.89-10.89-22.79-12.39a46.74 46.74 0 0 0-13.61-.33c-3.45-3.92-7.17-7.42-11.91-9.29-9.42-3.71-23.37-.65-31 6.56-6.25 5.92-9 14.86-10.7 23.76a73.33 73.33 0 0 0-11.83 6.11c-1.82 1.17-.18 4.36 1.65 3.19a70.58 70.58 0 0 1 9.42-5c-.17 1-.34 2.07-.5 3.09-.36 2.33 2.78 3.33 3.15 1 .28-1.82.58-3.68.92-5.56a99.54 99.54 0 0 1 26.74-5.9c-1.5 2.57-2.89 5.24-4.22 7.84-1 2 1.61 3.82 2.72 2-.64 6.2 3.35 9.55 6.59 15.74 1.07 2.05 3.89.19 2.82-1.86-3-5.68-8.06-9.82-5.16-17.13a14.41 14.41 0 0 1 5.71-7.14c5.38-.21 10.76-.18 16 0 .77 0 1.53.05 2.3.09-8.85 3.15-15.62 11.3-18.06 21.86-.53 2.31 2.62 3.29 3.15 1 .11-.48.25-.94.38-1.41a1.37 1.37 0 0 0 2.35.18 15.22 15.22 0 0 1 5.6-4.36 25.78 25.78 0 0 0 .17 3.27c.26 2.33 3.52 2.36 3.26 0a26.27 26.27 0 0 1-.12-4.52c1-.06 1.89-.13 2.83-.23a15.92 15.92 0 0 0 .52 10.89c.83 2.18 3.64.3 2.81-1.86a11.28 11.28 0 0 1 .27-9.41c0 11.08 5.18 23.26 16.31 22.17 7.93-.78 15.21-11.77 13.47-20.79 1.16.24 2.39.49 3.65.7.67.71 1.33 1.42 2 2.15a1.5 1.5 0 0 0 2.56-.49 140.73 140.73 0 0 0 17.6 8.36c2 .78 2.84-2.8.87-3.57-3.3-1.3-6.49-2.75-9.63-4.31a24.58 24.58 0 0 0 3.69.32c2.1 0 2.1-3.68 0-3.7a24 24 0 0 1-2.7-.2 6.65 6.65 0 0 0 .82-.67c2.4.48 4.8 1 7.19 1.51 2 .47 2.92-3.1.86-3.57s-4-.87-6-1.27a2.05 2.05 0 0 0-.07-1c5.72 1.79 11.26 2 13.74-4.88a1.74 1.74 0 0 0 0-1.23c.8-.16 1.6-.32 2.4-.51 2.19-.6 1.35-4.17-.73-3.67Zm-32.32 1a59.86 59.86 0 0 0-8.56-.58c-.82-.77-1.64-1.5-2.48-2.19q4 0 8 .23 2.24 1.3 4.57 2.4Zm-56.75-5.34c3.09-3.94 6.77-7.14 11.51-8.76a34.89 34.89 0 0 1 4.49-1.18c2.84 3.33 5.57 6.89 8.61 10l-.47.26-.81-.09a29.1 29.1 0 0 0-16.94-2.41 17.76 17.76 0 0 0-5.91 2.17Zm43.06 5-.86.1c-.49-.08-1-.17-1.46-.27a34 34 0 0 0-4.6-1.62 25.48 25.48 0 0 1 3-.41 21.93 21.93 0 0 1 3.92 2.16Zm-5.15 6c-.4-.45-.81-.89-1.24-1.32l.29-.07c1.11-.25 2.23-.45 3.36-.62 1.17.7 2.32 1.45 3.45 2.23a16.45 16.45 0 0 0-3.44-.08Zm-4.71-4.54.66.27-.24.09-.47-.39Zm-3.23 1.9q-1.1.56-2.13 1.2a13.31 13.31 0 0 1 1.09-2ZM1691 894a42.62 42.62 0 0 0-4.87.92c.09-.41.2-.81.32-1.21a42.34 42.34 0 0 1 4.78 0c-.09.05-.16.15-.23.29Zm4.14-8.61a16.59 16.59 0 0 0-2.06 4.6c-1.75 0-3.49 0-5.23.15a18 18 0 0 1 2.49-3.76 21.88 21.88 0 0 1 4.79-1.03Zm-11 5.06c-.47.06-.93.14-1.38.23a21.37 21.37 0 0 1 1.94-1.5c-.2.37-.38.82-.56 1.23Zm-1.21 3.8q-.14.56-.24 1.11h-2.39a10 10 0 0 1 2.63-1.15Zm29-19.07 3.75 2.61a43.46 43.46 0 0 0-7.6.38 16.8 16.8 0 0 0-5.3-1 18 18 0 0 0-5.86.82l-.54-.49a105.37 105.37 0 0 1-7.49-8.54 35.58 35.58 0 0 1 23.03 6.18Zm-75.86 10.05c1.85-8.55 4.89-16.84 11.69-21.56 5.43-3.77 13.65-5.55 20-5.08 5.71.43 10.25 3.54 14.31 7.75a26.73 26.73 0 0 0-8 3.35 33.93 33.93 0 0 0-9.65 10 108.44 108.44 0 0 0-28.36 5.5Zm39.59 15.26c.25-.57.51-1.14.79-1.69l1 .07a18.82 18.82 0 0 0-1.8 1.58Zm42.85 3.2c-.39 5.72-4.12 11.67-9.19 13-9.33 2.4-14.53-8.77-14.38-18.88.82-.17 1.64-.34 2.46-.53a67.44 67.44 0 0 1 10.64.17c.28.39.56.78.82 1.17a1.71 1.71 0 0 0 3.12-.71c1.46.21 2.93.45 4.39.72l1.59.33a11.08 11.08 0 0 1 .54 4.69ZM1733 897l-.13-.06.31.05Zm6.76-3.41a4.7 4.7 0 0 1-.41.77q-6.91-1.3-13.88-2.22c-1.3-1.06-2.56-2.2-3.8-3.4 1.3-.06 2.6-.16 3.89-.28 1.55.24 3.09.52 4.61.87 2.69.64 6.24 2.35 9.91 3.74a1.85 1.85 0 0 0-.32.51Zm-.5-5.25-.27-.1a49 49 0 0 0 14.1.16c-2.53 6.08-10.02 1.43-13.83-.07Z" style="fill:#cedbee"></path>
    <path d="m1699 998.16 2.9-97.06h-91l16.24 90.62c.67 3.75 3.57 6.44 6.94 6.44Z" style="fill:#dfe9f4"></path>
    <path d="M1701.91 901.1 1676 866.89a1.66 1.66 0 0 0-1.44-.68l-88.64 7.38c-1.56.13-2.18 2.36-1 3.49l26 24ZM1701.91 901.1h69.21l-17.25 90.63c-.72 3.75-3.65 6.43-7 6.43H1699Z" style="fill:#cedbee"></path>
    <path d="m1701.91 901.1 14.43-30.82a2.48 2.48 0 0 1 2.45-1.5l70.21 7.45c2.18.23 3.07 3.28 1.46 4.95l-19.34 19.92Z" style="fill:#aec6d3"></path>
    <path d="M1671.54 983.56h-29.85c-3.9 0-7.26-3.15-8-7.49l-7.69-45.72a10.19 10.19 0 0 1 1.72-7.61 7.77 7.77 0 0 1 6.26-3.34h35.61c4.34 0 7.91 3.86 8.12 8.78l1.92 45.72a9.88 9.88 0 0 1-2.24 6.8 7.62 7.62 0 0 1-5.85 2.86ZM1634 923.1a4.63 4.63 0 0 0-3.74 2 6 6 0 0 0-1 4.55l7.67 45.72a5.07 5.07 0 0 0 4.78 4.49h29.85a4.59 4.59 0 0 0 3.52-1.71 5.91 5.91 0 0 0 1.34-4.07l-1.92-45.72c-.12-3-2.26-5.26-4.86-5.26Z" style="fill:#fff"></path>
    <rect width="439.72" height="25.1" x="1378.47" y="995.4" rx="8.79" style="fill:#aec6d3"></rect>
    <path d="m1428 1020.51 29.88 18.56a97.19 97.19 0 0 0 51.3 14.64h179.32a97.24 97.24 0 0 0 52.58-15.45l27.61-17.75Z" style="fill:#92b1dd"></path>
    <path d="M1600.45 1050.33c-2.17 1.7-25 13.61-30.72 15.59s-68.93-.56-73.18 2.84-49.81 118.79-66.41 142.21-16.59 23-23.48 23.42-39.27 1.51-47.77-3.78c-2.7-1.66-10.75-6.73-20.57-13.09-21.17-13.71-50.53-33.46-51.91-38.37-2-7.18 53-67.25 61.34-62 0 0 10.26 10.83 19.16 19.11 5.79 5.37 11 9.67 12.42 9.22 3.64-1.13 14.57-14.17 37.05-39.66s41.3-41.93 43.12-46.47 12.14-19.55 19.43-25.21 45.86-9.63 50.72-9.63 6.37 2.55 4.55 5.38-13.66 2.55-19.13 6-5.16 7.36-2.13 7.93 52.84-2.55 57.4-3.4 28.85-13 29.76-10.76 0 6.23-2.13 8.78c-2 2.39-6.39 4.79-6.92 5.08.8-.26 8.59-2.75 9.4-1.53s2.17 6.65 0 8.34Z" style="fill:#ffb2a8"></path>
    <path d="M1366.91 1136.31c-7.48 23.31-20.73 59.81-28.59 81.21-21.17-13.71-50.53-33.46-51.91-38.37-2-7.18 53-67.25 61.34-62 0 .05 10.25 10.85 19.16 19.16ZM1591 1043.54s-16.7 10.17-18.83 10.78-37.35 1.82-37.35 1.82 34.92 1.21 40.08 0 23.44-14.42 23.44-14.42Z" style="fill:#f27c85"></path>
    <path d="M860.62 2335.52s-19.47 37-18 44.79 19.73 31.94 19.73 31.94-13.11 9.77-29.61 5.19-44-25.14-44-25.14 10.61-16.14 14.53-25.88 15.26-53.94 15.26-53.94 43.25 1.89 42.09 23.04Z" style="fill:#ffb2a8"></path>
    <path d="M772.51 2416.63s10.14-34.33 22.28-29.18 21.55 16 38.06 22.83 26-8.82 33.35-1.94 56.64 46.22 56.75 53.92-1.14 8.56-7.16 9.83-42.57-13.78-70.57-24.62S802.1 2424 802.1 2424s-5.19 4.94-7.54 3.93-24.56-4.14-22.05-11.3Z" style="fill:#343468"></path>
    <path d="M1381.2 2354.55s-4.27 41.45 0 48.15 30.29 22.6 30.29 22.6-8.53 13.82-25.6 15.49-50.34-7.53-50.34-7.53 3.84-18.84 3.84-29.31-6-55.68-6-55.68 40.98-13.81 47.81 6.28Z" style="fill:#ffb2a8"></path>
    <path d="M1382.05 2373.39c-1.18 3.08-5.71 4.5-11.57 4.94-13.31 1-33.51-3.19-37.07-4.94-5.12-2.51-20.48-74.1-39.68-172.06s-11.94-195.93-14.5-215.18-22.19-31.83-58-101.32c-27.25-52.86-40.6-150.22-45.44-193.8a3.74 3.74 0 0 0-7.33-.44c-15.86 66.76-63.36 265.64-69.74 279.73-7.68 17-232.3 382.41-245.74 384.3-10.53 1.48-27-13.25-36.35-21.51a71.48 71.48 0 0 0-5.88-4.87c-5.76-3.77 65.27-177.07 96-261.85s84.43-135.63 88.25-163.89-16.16-158.33-17.86-251.27 53.76-199.91 53.76-199.91l74.4 15.2 197.17 40.28s84.68 385.57 87.24 408.1-3.82 448.44-7.66 458.49Z" style="fill:#2c4fa0"></path>
    <g style="opacity:.54">
      <path d="M1028.45 1644.42c-12.63 62.17-.79 203.45 3 229.82s-1.92 50.87-36.48 94.2c-25.12 31.56-125.59 248.84-178.37 364.67a71.48 71.48 0 0 0-5.88-4.87c-5.76-3.77 65.27-177.07 96-261.85s84.46-135.63 88.28-163.89-16.16-158.33-17.86-251.27 53.76-199.91 53.76-199.91l74.4 15.2c-28.72 56.06-68.9 138.82-76.85 177.9Z" style="fill:#273657"></path>
    </g>
    <g style="opacity:.54">
      <path d="M1370.48 2378.33c-13.31 1-33.51-3.19-37.07-4.94-5.12-2.51-20.48-74.1-39.68-172.06s-11.94-195.93-14.5-215.18-22.19-31.83-58-101.32c-27.25-52.86-40.6-150.22-45.44-193.8v-84.29s55.4 203.45 88 256.2 65.27 65.94 65.27 81-25 35.79-15.36 128.09c6.2 59.48 36.21 208.1 56.78 306.3Z" style="fill:#273657"></path>
    </g>
    <path d="M1329.57 2461.73s-3.41-35.59 9.82-35.17 26 7.12 43.94 7.54 20.91-17.59 30.29-13.82 70 22.61 73 29.72 2.14 8.38-3 11.73-44.76 2.51-74.86 2.51-48.87-6.28-48.87-6.28-3 6.46-5.55 6.37-24.34 4.95-24.77-2.6Z" style="fill:#343468"></path>
    <path d="M686.12 1353h115.23s-36.51 22.54-58.38 36.68c-34 1.79-62.69 2.59-62.69 2.59Z" style="fill:#ffb2a8"></path>
    <path d="M968.56 1290.67s-10.4 17.77-21.42 35.27c-9.26 14.74-19 29.29-23.27 32.88-9.39 7.88-72 22.32-122.73 26.92-18.27 1.65-39 3-58.17 4-34 1.79-62.69 2.59-62.69 2.59l5.84-39.27 1.68-11.27s77.64-23 126.48-29.54 54.49-11.82 58.25-17.73c1.38-2.17 5.79-10.78 10.82-20.83 8.68-17.33 19.23-38.9 19.23-38.9s76.17 35.01 65.98 55.88Z" style="fill:#ffb2a8"></path>
    <path d="M968.56 1290.67s-10.4 17.77-21.42 35.27a282.34 282.34 0 0 1-36.47-25.14c-8.7-6.94-18.1-16.58-27.32-27.14 8.68-17.33 19.23-38.9 19.23-38.9s76.17 35.04 65.98 55.91Z" style="fill:#f27c85"></path>
    <rect width="439.72" height="25.1" x="368.91" y="1327.92" rx="8.79" style="fill:#aec6d3"></rect>
    <path d="m418.41 1353 29.89 18.56a97.19 97.19 0 0 0 51.3 14.64h179.34a97.27 97.27 0 0 0 52.59-15.45l27.6-17.75Z" style="fill:#92b1dd"></path>
    <path d="M757.66 1358.79s-10.12 13.47-20.24 13.47H727.3s-.41 9.72-8.1 11.74-17.41 0-17.41 0a13.29 13.29 0 0 1-11.34 8.91c-8.91.81-37.65-11-48.18-17.06s-36-31.53-36-36.18 4-8.71 8.1-8.71 16.2 5.67 16.2 5.67-5.27-6.89-.81-12.55 6.88-4 10.93-4 12.15 6.88 12.15 6.88-4.46-10.53 0-14.58 13.76-4.45 18.62-2 32 19.84 40.09 26.32 46.11 22.09 46.11 22.09Z" style="fill:#ffb2a8"></path>
    <path d="M701.79 1385.22a1.21 1.21 0 0 1-.49-.11c-48.28-21.32-71.46-47.42-71.69-47.68a1.22 1.22 0 1 1 1.83-1.6c.23.25 23.1 26 70.84 47.06a1.22 1.22 0 0 1 .62 1.6 1.23 1.23 0 0 1-1.11.73ZM729.32 1373.47a1.25 1.25 0 0 1-.46-.09c-40.19-16.47-76.46-45.23-76.82-45.52a1.21 1.21 0 0 1 1.51-1.9c.36.29 36.38 28.83 76.23 45.17a1.21 1.21 0 0 1-.46 2.34Z" style="fill:#f27c85"></path>
    <path d="M1299.51 1205.24c-4.5 5.47-47.93 56.69-42.26 97.17s38.06 157.1 42.12 166.34-74.51 40.16-81.36 44.07-91.18.15-109-7c-10.15-4-38.83-9.62-62.31-14.85-17.63-3.92-32.31-7.67-34-10.45-2.87-4.58 18.8-45.18 31.79-70.15 5.4-10.39 9.3-18.08 9.3-19.33 0-1.5-1.88-8.94-4.5-18.44-4.84-17.47-12.17-41.9-14.93-49-1.11-2.84-3.06-7.72-5.46-13.45-6.77-16.31-17-39.41-20.26-41.21-4.44-2.43-39.27 46.16-45.34 49.2s-37.66-27.94-47.37-38.27-30.37-16.4-34-21.25 68-159.13 80.16-170.06 46.56-31.58 46.56-31.58 37.26-21.87 42.12-22.47 92.31 55.87 117.21 50.41 11.54-74.71 11.54-74.71 51 7.9 58.31 9.72 25.51 15.18 43.73 26.12c16.49 9.9 66.31 61.58 78.32 76.7a24.05 24.05 0 0 1 2.45 3.47c3.67 7.35-58.33 73.55-62.82 79.02Z" style="fill:#f5f5f7"></path>
    <path d="M1299.51 1205.24c-4.5 5.47-47.93 56.69-42.26 97.17s38.06 157.1 42.12 166.34-74.51 40.16-81.36 44.07-91.18.15-109-7c-10.15-4-38.83-9.62-62.31-14.85 3.82-3.16 6.69-6.65 8-10.45 8.1-22.68 21.87-85 19.44-84.22-1.3.43-16.16 7.53-29.75 14.07 5.4-10.39 9.3-18.08 9.3-19.33 0-1.5-1.88-8.94-4.5-18.44 14.11-7.14 28.61-15.45 28.19-19.22-.81-7.29-4.86-28.34-10.53-31.58-4.47-2.56-28.22-9-38-11.63-6.77-16.31-17-39.41-20.26-41.21 0 0 29.16-48.38 27.54-43.52l-15.39 46.16s8.92 23.48 27.54-1.63 4.53-121.57-11.08-149.54 1.86-52.16 1.86-52.16 62.66 84.29 67.52 84.29 41.7 1.72 59.92 7.94 28.75 13.51 31.18 12.71 33.2-57.51 33.61-62-17.1-68.07-17.1-68.07l20.76 3.25s35.21 60 42.5 65.62 20.65 16.2 28.74 26.32 19.44 11.75 23.89 8.5c2.21-1.6 16.16-13 29.74-24.11a24.05 24.05 0 0 1 2.45 3.47c3.73 7.38-58.27 73.58-62.76 79.05Z" style="fill:#dfe9f4"></path>
    <path d="M1368.35 1877c-5.42 10.93-104.42 59.87-198.25 53.63a23.68 23.68 0 0 1-6.83-1.41q-8-.92-16.46-2.48a265.41 265.41 0 0 1-29.25-7.23c-91.1-27.93-144.54-103.24-140.9-115.39s71.06-239.29 80.78-280.59 32.19-143.34 29.15-143.94-29.76 23.68-32.8 21.86-4.86-11.54-4.86-15.18 38.27-15.79 39.48-29.76-2.43-37.66-6.07-42.52-54.06-1.82-57.7-4.85-12.15-12.15-5.47-12.76 54.06-20.65 55.88-42.51c1.32-15.87-8.87-57.63-21.28-93.28a354.5 354.5 0 0 0-14.54-36.07c-12-24.9-27.76-48.38-36.5-60.76a8.86 8.86 0 0 1 4.56-13.55c4.85-1.57 10.1-2.7 13.11-1.6 6.68 2.42 26.72 27.93 35.83 48.58s37 68.63 41.91 69.24 45.55 3 68.63 6.07 27.94 9.72 32.19 6.08 21.25-24.9 33.4-37 14-23.68 14-27.62-18.22-46.14-29.15-65.74-29.15-34.18-27.94-38.43 24.29-3 26.72 0 20 37 34 69.84 27.94 48 34.62 54 34 56.49 25.51 85.64q-.93 3.21-2 6.19c-9.08 25.12-25.09 38.92-30.16 56.36-4.13 14.22-2.72 44.57-1.08 62.44.54 5.81 1.08 10.29 1.48 12.47 1.27 6.94 9.42 25.21 16.79 49.81 2.08 7 4.1 14.39 5.88 22.24.84 3.71 1.9 7.58 3.09 11.66a84.4 84.4 0 0 0-3.14-20.77c8.63 23.12 25.86 82.65 45 222.9 27.3 200.5 27.79 223.43 22.37 234.43Z" style="fill:#fccd89"></path>
    <path d="M1295.52 1407.19a50.72 50.72 0 0 1 5.41 12.44 95.55 95.55 0 0 0-5.41-12.44Z" style="fill:#fff"></path>
    <g style="opacity:.63">
      <path d="M1123.83 1446.35s-9.53 54.67 0 104.47 61.15 75.92 73.9 77.13 35.23-9.72 40.09-13.36 33.66-64 33.66-64Z" style="fill:#f28c70"></path>
    </g>
    <path d="M1124.24 1431.78s-3 71.66 7.29 104.46 43.12 48 55.88 48 65.59 0 80.17-25.51 22.47-92.31 14.57-103.85-55.26-5.47-72.88-7.9-81.38-29.78-85.03-15.2Z" style="fill:#ffe89f"></path>
    <g style="opacity:.63">
      <path d="M1277.9 1281.76c-4.13 14.22-2.72 44.57-1.08 62.44 0 0-11.67-32.07-14.71-34.5s-156.09 2.43-160.34 6.08-11.33 156.69-42.11 264.4-62.82 234.93-55.54 245.86c6.7 10 91.32 81.21 142.69 100.66a265.41 265.41 0 0 1-29.25-7.23c-91.1-27.93-144.54-103.24-140.9-115.39s71.06-239.29 80.78-280.59 32.19-143.34 29.15-143.94-29.76 23.68-32.8 21.86-4.86-11.54-4.86-15.18 38.27-15.79 39.48-29.76-2.43-37.66-6.07-42.52-54.06-1.82-57.7-4.85-12.15-12.15-5.47-12.76 54.06-20.65 55.88-42.51c1.32-15.87-8.87-57.63-21.28-93.28.63 1.25 20.73 41.4 24.92 63.52 4.26 22.47 27.33 30.36 31 32.19s60.73 6.07 75.31 0 18.83-6.08 23.08-4.86 37 1.82 55.27-2.43c12.7-3 33.38-16 44.73-23.57-9.08 25.12-25.08 38.92-30.18 56.36Z" style="fill:#f28c70"></path>
    </g>
    <path d="M514.27 1148.56a5 5 0 0 1-1.95-.41 4.85 4.85 0 0 1-2.5-6.4l25.71-58.75a22 22 0 0 1 19.08-13l38-1.58a4.86 4.86 0 0 1 .4 9.71l-38 1.58a12.16 12.16 0 0 0-10.58 7.24l-25.72 58.72a4.86 4.86 0 0 1-4.44 2.89ZM582.29 1179.73l-1.41 13.36-14.22 134.83h-98.3l-12.9-122.28-1.32-12.55-1.41-13.36h129.56z" style="fill:#cedbee"></path>
    <path d="M452.73 1179.73s6.48-42.92 64.78-42.92 64.78 42.92 64.78 42.92Z" style="fill:#dfe9f4"></path>
    <rect width="141.31" height="13.36" x="447.46" y="1179.73" rx="4.68" style="fill:#fff"></rect>
    <circle cx="519.53" cy="1248.16" r="24.7" style="fill:#fff"></circle>
    <path d="m580.88 1193.09-14.22 134.83h-37.82l18.27-108.15a12.11 12.11 0 0 0-11.94-14.13h-79.71l-1.32-12.55Z" style="fill:#aec6d3"></path>
    <path d="m613.17 1275.96-18.32-84.3 18.32-9.17L623.8 1247l-11.36-104.09 16.13-3.67 17.22 97.5 1.84-72.21 16.12-.73 3.3 77.71 11.36-98.6 17.97.73-6.6 104.83 13.93-66.34 15.76 3.66-14.3 92.37-92-2.2z" style="fill:#cedbee"></path>
    <path d="m616.1 1266.43-12.09-103.73 17.59 1.47 13.2 95.66v-110.32h19.06l2.56 107.76 3.39-80.28 16.41-.36v83.2l17.22-104.09 17.96 1.46-8.79 109.23H616.1z" style="fill:#dfe9f4"></path>
    <path d="M717.6 1233.44a4.51 4.51 0 0 1 4.56 5.14l-.55 3.46-13.27 83a4.57 4.57 0 0 1-4.55 3.78h-87.95a4.56 4.56 0 0 1-4.55-3.78l-12-74.92L598 1242l-.55-3.46a4.51 4.51 0 0 1 4.55-5.14Z" style="fill:#cedbee"></path>
    <path d="M2751.1 2481.93c0 47.54-32.63 86.05-72.79 86l-336.6-.37c-6.28 40-35.93 70.29-71.53 70.26l-1730.37-1.89c-35.61 0-65.18-30.39-71.39-70.42l-146.93-.16c-20.07 0-38.23-9.68-51.38-25.26s-21.25-37.14-21.22-60.9c0-1.53 0-3 .1-4.54a103.07 103.07 0 0 1 1.31-12.34c1.89-4 5.51-6.71 9.66-6.71l2480.13 2.71c4.15 0 7.75 2.71 9.63 6.73a103.08 103.08 0 0 1 1.29 12.34c.06 1.52.09 3.02.09 4.55Z" style="fill:#dfe9f4"></path>
    <path d="M2751.11 2471.4v4.38a14.2 14.2 0 0 1-.1 1.61c-.66 6.46-5.31 11.45-11 11.44l-2480.13-2.71c-5.64 0-10.29-5-10.94-11.46a10.85 10.85 0 0 1-.09-1.62v-4.37a14.79 14.79 0 0 1 1.4-6.35c1.89-4 5.51-6.71 9.66-6.71l2480.13 2.71c4.15 0 7.75 2.71 9.63 6.73a14.82 14.82 0 0 1 1.44 6.35Z" style="fill:#92b1dd"></path>
    <rect width="31.51" height="1275.96" x="1082.28" y="1912.48" rx="8.68" style="fill:#92b1dd" transform="rotate(-89.94 1097.95 2550.422)"></rect>
    <rect width="31.51" height="637.98" x="2124.08" y="2232.6" rx="8.68" style="fill:#92b1dd" transform="rotate(-89.94 2139.726 2551.587)"></rect>
  </g>
</svg>
