<svg xmlns="http://www.w3.org/2000/svg" width="2797.805" height="2178.594" viewBox="101.117 410.703 2797.805 2178.594" id="female-customer-accepting-food-delivery">
  <g id="bubbletext">
    <path d="M279 2285.21a6.05 6.05 0 0 1-6-5.41c-1.24-11.53-2.24-21.12-3.15-30.17a6.06 6.06 0 0 1 12.05-1.21c.91 9 1.91 18.58 3.15 30.08a6.07 6.07 0 0 1-5.38 6.68ZM2712 2200.45a6 6 0 0 1-2.79-.69 6 6 0 0 1-2.57-8.16c9.69-18.52 18.82-36 23.94-53.91a6.06 6.06 0 1 1 11.65 3.33c-5.46 19.1-15.31 37.95-24.84 56.17a6.08 6.08 0 0 1-5.39 3.26ZM270.54 2195a6.06 6.06 0 0 1-6-5.62c-1.58-21.74-2.59-41.53-3.07-60.51a6.06 6.06 0 0 1 5.9-6.21h.15a6.06 6.06 0 0 1 6.06 5.9c.48 18.79 1.48 38.4 3 59.94a6.07 6.07 0 0 1-5.58 6.5Zm2464-108.66a6.07 6.07 0 0 1-5.62-3.77c-6.17-15.13-17.07-28.87-35.33-44.57a6.06 6.06 0 0 1 7.9-9.19c19.52 16.78 31.8 32.41 38.65 49.18a6.06 6.06 0 0 1-3.31 7.9 6.18 6.18 0 0 1-2.28.45Zm-2466.7-11.86h-.25a6.06 6.06 0 0 1-5.81-6.3c.86-20.94 2.54-41.34 5-60.61a6.05 6.05 0 1 1 12 1.54c-2.42 18.93-4.08 39-4.92 59.56a6.07 6.07 0 0 1-6.02 5.81Zm2382-72a6.09 6.09 0 0 1-3.73-1.28c-11.67-9.14-26.57-21.52-38.33-36.24-1.9-2.38-3.77-4.88-5.53-7.41a6.06 6.06 0 0 1 9.94-6.92c1.61 2.31 3.31 4.58 5.06 6.77 11 13.74 25.18 25.52 36.33 34.25a6.06 6.06 0 0 1-3.74 10.83Zm-2366.29-47.41a6.31 6.31 0 0 1-1.42-.16 6.06 6.06 0 0 1-4.47-7.31 485.22 485.22 0 0 1 17.92-58.35 6.06 6.06 0 0 1 11.33 4.28 476.71 476.71 0 0 0-17.47 56.9 6.06 6.06 0 0 1-5.89 4.64Zm2300.83-50.23a6.06 6.06 0 0 1-5.94-4.9 207.37 207.37 0 0 1-3.64-39.63c0-7.12.32-14.55.94-22.1a6.06 6.06 0 0 1 12.08 1c-.6 7.22-.9 14.31-.9 21.1a195.22 195.22 0 0 0 3.41 37.3 6.06 6.06 0 0 1-4.78 7.11 6 6 0 0 1-1.17.12Zm-2258.1-62.21a6.05 6.05 0 0 1-5.32-9 404.34 404.34 0 0 1 33.14-51.42 6.06 6.06 0 1 1 9.65 7.33 392 392 0 0 0-32.14 49.88 6.06 6.06 0 0 1-5.33 3.21ZM2592 1785.39a6.14 6.14 0 0 1-1.46-.18 6.07 6.07 0 0 1-4.43-7.34c1.85-7.47 4-15.32 6.31-23.31 2.38-8.15 4.91-16.48 7.35-24.54q1.58-5.19 3.14-10.39a6.06 6.06 0 0 1 11.61 3.5l-3.15 10.4c-2.44 8-5 16.34-7.32 24.43a568.94 568.94 0 0 0-6.18 22.82 6.06 6.06 0 0 1-5.87 4.61Zm-2192.75-38.15a6.06 6.06 0 0 1-4.14-10.49 333.2 333.2 0 0 1 48.47-37.57 6.06 6.06 0 1 1 6.5 10.22 321.51 321.51 0 0 0-46.7 36.21 6 6 0 0 1-4.13 1.63Zm101-64.7a6.06 6.06 0 0 1-2.36-11.64 481.71 481.71 0 0 1 57.65-20 6.06 6.06 0 0 1 3.28 11.66 468.84 468.84 0 0 0-56.21 19.46 6.15 6.15 0 0 1-2.37.52Zm2124.27-13.29a6.07 6.07 0 0 1-5.92-7.38c4.86-21.79 7.43-40.92 7.83-58.5a6.07 6.07 0 0 1 6.06-5.92h.14a6.06 6.06 0 0 1 5.92 6.2c-.43 18.38-3.09 38.29-8.13 60.86a6.06 6.06 0 0 1-5.91 4.74Zm-2008.64-20.1a6.06 6.06 0 0 1-1.15-12c17.49-3.38 36.47-6.55 59.75-10a6.06 6.06 0 1 1 1.77 12c-23.1 3.41-41.91 6.55-59.22 9.9a6.48 6.48 0 0 1-1.16.1Zm119.21-18.33a6.06 6.06 0 0 1-.82-12.06c19-2.64 39.41-5.53 59.52-8.85a6.06 6.06 0 1 1 2 12c-20.24 3.34-40.72 6.25-59.83 8.9a5.92 5.92 0 0 1-.88.01ZM854 1610.5a6.06 6.06 0 0 1-1.33-12c19.41-4.37 38.92-9.43 58-15a6.06 6.06 0 0 1 3.41 11.63 966.163 966.163 0 0 1-58.75 15.21 5.62 5.62 0 0 1-1.33.16Zm115.68-33.92a6.06 6.06 0 0 1-2.07-11.75c18.73-6.81 37.44-14.3 55.62-22.27a6.05 6.05 0 1 1 4.86 11.09 942.131 942.131 0 0 1-56.34 22.57 6 6 0 0 1-2.1.36Zm1655-26.53a6.07 6.07 0 0 1-5.78-4.26 175 175 0 0 0-26.53-51.57 6.06 6.06 0 1 1 9.75-7.19 187.19 187.19 0 0 1 28.35 55.15 6.06 6.06 0 0 1-4 7.59 6 6 0 0 1-1.84.28Zm-1544.86-22.41a6.06 6.06 0 0 1-3-11.33 317.48 317.48 0 0 0 48.56-33.68 6.06 6.06 0 1 1 7.86 9.22 329.53 329.53 0 0 1-50.41 35 6.05 6.05 0 0 1-3.06.79Zm1475.84-74.45a6.06 6.06 0 0 1-3.88-1.41 374 374 0 0 0-48.58-34 6.06 6.06 0 1 1 6.2-10.42 387.18 387.18 0 0 1 50.14 35.12 6.06 6.06 0 0 1-3.88 10.71ZM1169.9 1449a6 6 0 0 1-3.46-1.09 6 6 0 0 1-1.5-8.43 198.49 198.49 0 0 0 26-52.16 6.06 6.06 0 0 1 11.52 3.76 210.27 210.27 0 0 1-27.62 55.33 6 6 0 0 1-4.94 2.59Zm1282.83-58.16a6.05 6.05 0 0 1-2.51-.55c-4.47-2-9.08-4.08-13.72-6.08-13.67-5.89-27.68-11.56-41.62-16.85a6.06 6.06 0 1 1 4.29-11.33 1111.88 1111.88 0 0 1 42.12 17c4.72 2 9.42 4.12 14 6.19a6.06 6.06 0 0 1-2.52 11.57ZM2340 1348a6 6 0 0 1-1.81-.28c-19-6-38.38-11.44-57.7-16.3a6.06 6.06 0 0 1 2.95-11.75c19.55 4.91 39.19 10.46 58.38 16.49A6.06 6.06 0 0 1 2340 1348Zm-1132.55-11.93h-.41a6.07 6.07 0 0 1-5.64-6.46c.55-8.07.82-16.62.82-25.41 0-10.53-.38-21.67-1.16-34.06a6.06 6.06 0 0 1 12.09-.77c.8 12.65 1.19 24 1.19 34.83 0 9.06-.29 17.89-.85 26.23a6.06 6.06 0 0 1-6 5.66Zm1015.64-17.49a5.67 5.67 0 0 1-1.15-.11c-18.91-3.61-38.19-6.74-57.27-9.29l-1.92-.26a6.06 6.06 0 0 1 1.59-12l1.94.26c19.3 2.58 38.8 5.74 57.94 9.4a6.06 6.06 0 0 1-1.13 12Zm-119.42-16.91a6.13 6.13 0 0 1-.74 0c-18-2.18-39.18-4.87-60-8.34a6.06 6.06 0 0 1 2-12c20.6 3.43 41.64 6.1 59.49 8.27a6.06 6.06 0 0 1-.72 12.07Zm-118.7-21a6.15 6.15 0 0 1-1.63-.22c-21.63-6-40.42-13.07-57.45-21.55a6.06 6.06 0 1 1 5.4-10.85c16.33 8.14 34.42 14.92 55.3 20.73a6.06 6.06 0 0 1-1.62 11.89Zm-106-55a6 6 0 0 1-4.12-1.61 195.3 195.3 0 0 1-12.75-13 198.83 198.83 0 0 1-25.32-35.81 6.06 6.06 0 0 1 10.59-5.9 186.17 186.17 0 0 0 23.78 33.66c3.75 4.21 7.77 8.3 11.94 12.17a6.06 6.06 0 0 1-4.12 10.5Zm-677.24-10a6.05 6.05 0 0 1-6-5.45c-2.07-20.39-4-40.36-4.93-60.44a6.06 6.06 0 0 1 12.11-.56c.92 19.78 2.83 39.56 4.87 59.78a6.06 6.06 0 0 1-5.42 6.64Zm617.4-93a6.07 6.07 0 0 1-5.79-4.29c-5.69-18.59-10.17-37.66-15-58.86a6.06 6.06 0 0 1 11.81-2.71c4.8 21 9.23 39.82 14.8 58a6.07 6.07 0 0 1-5.8 7.84ZM1198 1095.41a4.4 4.4 0 0 1-.62 0 6.05 6.05 0 0 1-5.42-6.63c.41-4 .88-8 1.43-11.82a230.49 230.49 0 0 1 12.11-48.29 6.06 6.06 0 1 1 11.36 4.22 217.6 217.6 0 0 0-11.47 45.75c-.52 3.71-1 7.53-1.37 11.36a6.07 6.07 0 0 1-6.02 5.41Zm591.67-89.59a6.06 6.06 0 0 1-5.81-4.36c-6.35-21.74-13.12-39.23-21.33-55a6.06 6.06 0 0 1 10.75-5.58c8.58 16.52 15.64 34.7 22.21 57.21a6.05 6.05 0 0 1-4.12 7.51 5.93 5.93 0 0 1-1.67.22Zm-550-21.89a6.05 6.05 0 0 1-4.89-9.63 256.67 256.67 0 0 1 42.23-44.83 6.06 6.06 0 1 1 7.8 9.27 245 245 0 0 0-40.25 42.71 6 6 0 0 1-4.84 2.48Zm91-77.72a6.05 6.05 0 0 1-2.94-11.35 406.47 406.47 0 0 1 55.63-25.45 6.06 6.06 0 1 1 4.23 11.35 395.37 395.37 0 0 0-54 24.69 6 6 0 0 1-2.9.76Zm401.06-4.31a6 6 0 0 1-4.06-1.57 172.13 172.13 0 0 0-49.13-30.76 6.06 6.06 0 0 1 4.69-11.17 184 184 0 0 1 52.57 33 6.06 6.06 0 0 1-4.07 10.55Zm-288.51-38.13a6.06 6.06 0 0 1-1.38-11.95 544.07 544.07 0 0 1 60.06-10.61 6.06 6.06 0 0 1 1.44 12 534.31 534.31 0 0 0-58.72 10.37 6.14 6.14 0 0 1-1.38.19Zm179.7-9.77a6.32 6.32 0 0 1-1-.08 370.17 370.17 0 0 0-58.3-4.36h-.84a6.06 6.06 0 0 1 0-12.12h.84a381.36 381.36 0 0 1 60.24 4.51 6.06 6.06 0 0 1-1 12ZM2682.38 2285.89h-.1a6.05 6.05 0 0 1-6-6.16 117.15 117.15 0 0 1 5.1-31.42 6.06 6.06 0 0 1 11.62 3.42 105.66 105.66 0 0 0-4.61 28.21 6.06 6.06 0 0 1-6.01 5.95ZM1087.21 2307.16h-.39a6.06 6.06 0 0 1-5.66-6.43c.62-9.6 1.3-19.91 2.09-30.29a6.06 6.06 0 1 1 12.08.92c-.78 10.32-1.46 20.58-2.08 30.14a6.05 6.05 0 0 1-6.04 5.66ZM1096 2214.79a5.67 5.67 0 0 1-.91-.07 6.06 6.06 0 0 1-5.08-6.9 435.9 435.9 0 0 1 13.58-61.87 6.06 6.06 0 1 1 11.59 3.52 424.94 424.94 0 0 0-13.19 60.16 6.07 6.07 0 0 1-5.99 5.16Zm37.59-118.53a6 6 0 0 1-3-.79 6.06 6.06 0 0 1-2.28-8.26 235.24 235.24 0 0 1 38.69-51 6.06 6.06 0 0 1 8.53 8.61 222.76 222.76 0 0 0-36.68 48.35 6.07 6.07 0 0 1-5.27 3.09Zm477.56-28.09h-3.48c-7.45-.07-15-.32-22.42-.74a6.06 6.06 0 0 1 .68-12.1c7.24.41 14.59.65 21.85.72h3.37a222 222 0 0 0 35.84-2.56 6.06 6.06 0 1 1 2 12 233.55 233.55 0 0 1-37.85 2.68Zm-87.58-8.32a6.27 6.27 0 0 1-1.13-.11 483.78 483.78 0 0 1-53.25-13.23q-4-1.23-8-2.55a6.06 6.06 0 0 1 3.76-11.52c2.61.86 5.23 1.69 7.84 2.5a473 473 0 0 0 51.91 12.9 6.06 6.06 0 0 1-1.12 12ZM1704 2040a6.06 6.06 0 0 1-4.19-10.44c12.29-11.76 21.15-27.6 28.74-51.35a6.06 6.06 0 1 1 11.54 3.69c-8.23 25.78-18.07 43.18-31.9 56.42a6 6 0 0 1-4.19 1.68Zm-299.81-16.7a6.17 6.17 0 0 1-2.06-.36c-18.65-6.74-38.7-13.65-59-18.63a6.06 6.06 0 1 1 2.89-11.77c20.83 5.12 41.25 12.16 60.21 19a6.06 6.06 0 0 1-2 11.76Zm-182-12.46a6.06 6.06 0 0 1-2.53-11.57 156.65 156.65 0 0 1 29.27-10.07 168.46 168.46 0 0 1 33.6-4.33h.18a6.06 6.06 0 0 1 .18 12.11 156.76 156.76 0 0 0-31.18 4 144.94 144.94 0 0 0-27 9.29 6 6 0 0 1-2.56.56Zm528.84-85a6 6 0 0 1-1.81-.28 6.06 6.06 0 0 1-4-7.6q.93-3 1.94-6a224.39 224.39 0 0 1 25.54-51.86 6.06 6.06 0 0 1 10.1 6.7 212 212 0 0 0-24.17 49.05c-.64 1.88-1.25 3.78-1.85 5.69a6.06 6.06 0 0 1-5.78 4.31Zm68-103a6.06 6.06 0 0 1-4-10.65 229.47 229.47 0 0 1 53.77-34.73 6.06 6.06 0 0 1 5.07 11 217.33 217.33 0 0 0-50.93 32.89 6 6 0 0 1-3.94 1.47Zm112.12-51.36a6.05 6.05 0 0 1-.84-12 235.1 235.1 0 0 1 64-.22 6.06 6.06 0 0 1-1.61 12 223.28 223.28 0 0 0-60.67.2 6.22 6.22 0 0 1-.94 0ZM2080.46 1802a6 6 0 0 1-3.17-.9 209.8 209.8 0 0 0-26.07-13.61 6.06 6.06 0 1 1 4.84-11.11 222.67 222.67 0 0 1 27.59 14.4 6.06 6.06 0 0 1-3.19 11.22Z" style="fill:#eeeef8"></path>
    <path d="M647 1081.45a55.94 55.94 0 1 1 56-55.93 56 56 0 0 1-56 55.93Zm0-102a46.09 46.09 0 1 0 46.08 46.09A46.14 46.14 0 0 0 647 979.43ZM1555.15 1991.92a40.26 40.26 0 1 1 40.25-40.25 40.3 40.3 0 0 1-40.25 40.25Zm0-70.66a30.41 30.41 0 1 0 30.4 30.41 30.44 30.44 0 0 0-30.4-30.41ZM1586.38 766.76a48.35 48.35 0 1 1 48.35-48.35 48.41 48.41 0 0 1-48.35 48.35Zm0-86.84a38.5 38.5 0 1 0 38.5 38.49 38.54 38.54 0 0 0-38.5-38.49ZM2439.52 1265.35a38.52 38.52 0 1 1 38.52-38.52 38.56 38.56 0 0 1-38.52 38.52Zm0-67.18a28.67 28.67 0 1 0 28.66 28.66 28.7 28.7 0 0 0-28.66-28.66Z" style="fill:#ccdbe2"></path>
    <path d="M2385.52 2273.89s-32.13-161.11 0-272.79 114.08-148.4 114.08-148.4 112.56 143.81 41.52 281.49-155.6 139.7-155.6 139.7Z" style="fill:#aec6d3"></path>
    <path d="M2771.56 1955.65s-.25.88-.79 2.54c-3.69 11.63-20.8 61.7-57.91 119-1 1.5-2 3-2.94 4.5a501.13 501.13 0 0 1-56.17 70.56 248.29 248.29 0 0 1-3.92 4.05 433.09 433.09 0 0 1-54.3 46.94c-109 79.2-161.41 72.85-176.35 68.24a24.14 24.14 0 0 1-4.63-1.86s-36.63-55.15 9.59-170.41c15.88-39.58 54.39-71.51 100.66-95.49 2.36-1.21 4.72-2.42 7.13-3.6 27.58-13.58 57.58-24.43 87-32.48q3.72-1 7.42-2c58.37-15.07 113.4-19 141.36-11.21 1.35.4 2.64.8 3.85 1.22Z" style="fill:#cedbee"></path>
    <path d="M2770.77 1958.19a2.4 2.4 0 0 1-.76.4c-1.15.35-114 36.73-210.87 123.73a1165.24 1165.24 0 0 1 153.72-5.14c-1 1.5-2 3-2.94 4.5a1165.53 1165.53 0 0 0-156.43 5.81 564.87 564.87 0 0 0-58 62.73 584.41 584.41 0 0 1 158.26 2 248.29 248.29 0 0 1-3.92 4.05 576.16 576.16 0 0 0-155.43-1.36 2.81 2.81 0 0 1-2.15-.58c-11 14.07-20.86 27.89-29.55 41-.08.37-.19.75-.29 1.12a2.05 2.05 0 0 1-1.41 1.55 635.7 635.7 0 0 0-41.78 73.49c-4.8 10-7.2 15.93-7.3 16.17a2.55 2.55 0 0 1-2.39 1.52 3 3 0 0 1-.88-.14 2.23 2.23 0 0 1-1.5-2.94c.1-.26 2.55-6.27 7.44-16.47a647.12 647.12 0 0 1 43.4-76 1105.27 1105.27 0 0 1 66.85-189.89c2.36-1.21 4.72-2.42 7.13-3.6a1103.37 1103.37 0 0 0-65.58 181.1c22.08-31.79 50.52-66.77 85.65-98.92q11.22-10.24 22.68-19.59a1.53 1.53 0 0 1 .07-.63 301.39 301.39 0 0 1 44.18-94.44q3.72-1 7.42-2a298.67 298.67 0 0 0-45 91.67c87.08-69.11 178-100.1 186.38-102.88.37-.13.57-.19.62-.2a2.61 2.61 0 0 1 3.23 1.4 2.15 2.15 0 0 1-.85 2.54Z" style="fill:#aec6d3"></path>
    <path d="M2742.44 2025.65s-64.27 136.32-187.79 205.06" style="fill:none;stroke:#aec6d3;stroke-linecap:round;stroke-miterlimit:10;stroke-width:4px"></path>
    <path d="M377.31 2090s.29.62.88 1.8c4 8.21 22.25 43.46 54.89 81.68.85 1 1.72 2 2.59 3a375.1 375.1 0 0 0 47.26 45.8c1.05.86 2.11 1.71 3.19 2.55a306 306 0 0 0 42.88 28.4c84 45.87 118.5 34.82 128 29.59a15.28 15.28 0 0 0 2.87-2s17.34-45.51-29.18-125.82c-16-27.58-46.2-46.72-80.58-59-1.75-.61-3.51-1.23-5.28-1.82a319.41 319.41 0 0 0-63-13.7c-1.77-.21-3.52-.4-5.27-.58-41.35-4.19-79-.47-96.77 8.69-.9.48-1.71.93-2.48 1.41Z" style="fill:#aec6d3"></path>
    <path d="M378.19 2091.79a1.56 1.56 0 0 0 .56.2c.83.12 81.73 13.62 158.63 66.77a720.19 720.19 0 0 0-104.3 14.71c.85 1 1.72 2 2.59 3a720.67 720.67 0 0 1 106.2-14.53 415 415 0 0 1 47.46 39.74 362.46 362.46 0 0 0-106.4 20.59c1.05.86 2.11 1.71 3.19 2.55a356.71 356.71 0 0 1 104.57-19.76 1.81 1.81 0 0 0 1.37-.69c9.3 9.16 17.78 18.26 25.38 27 .11.26.23.54.35.8a1.48 1.48 0 0 0 1.18 1 499 499 0 0 1 38 49.73c4.57 6.88 7 11 7.08 11.17a1.74 1.74 0 0 0 1.81.84 2.07 2.07 0 0 0 .57-.21 1.73 1.73 0 0 0 .62-2.37c-.1-.18-2.55-4.37-7.21-11.38a505.91 505.91 0 0 0-39.38-51.4A897.91 897.91 0 0 0 550 2096c-1.75-.61-3.51-1.23-5.28-1.82a895 895 0 0 1 68.34 127c-19.12-21-43-43.66-70.92-63.38q-8.92-6.28-17.9-11.86a1.31 1.31 0 0 0-.12-.46 239.75 239.75 0 0 0-42.37-65c-1.77-.21-3.52-.4-5.27-.58a236.74 236.74 0 0 1 42.57 62.88c-67.91-41-133.3-53.12-139.34-54.19l-.45-.07a1.74 1.74 0 0 0-1.11 3.24Z" style="fill:#92b1dd"></path>
    <path d="M522.27 2251.46a2.06 2.06 0 0 1-.76-.15c-1-.41-25.19-10.6-67.07-51.89s-77.65-106-78-106.67a2 2 0 1 1 3.5-1.93c.36.65 35.92 64.94 77.31 105.75 41.21 40.63 65.54 50.94 65.78 51a2 2 0 0 1-.76 3.85ZM603.57 2126.56a2 2 0 0 1-1.17-.38c-53.75-39-120.07-43.64-120.74-43.68a2 2 0 1 1 .26-4c.67 0 68.15 4.72 122.83 44.43a2 2 0 0 1-1.18 3.62Z" style="fill:#92b1dd"></path>
    <path d="M2728.86 2325.28a61.2 61.2 0 0 1-61.2 61.21h-460.2a61.19 61.19 0 0 1-43.92 103.78H670.79a61.19 61.19 0 0 1-43.93-103.78H289.48a61.21 61.21 0 0 1 0-122.41h2378.18a61.21 61.21 0 0 1 61.2 61.2Z" style="fill:#dfe9f4"></path>
    <rect width="2500.57" height="39.29" x="228.29" y="2267.71" rx="13.19" style="fill:#92b1dd"></rect>
    <rect width="915.36" height="37.19" x="633.65" y="2367.88" rx="12.48" style="fill:#92b1dd"></rect>
    <rect width="538.63" height="37.19" x="1656.95" y="2367.88" rx="12.48" style="fill:#92b1dd"></rect>
    <path d="M2310.49 1262.76c-1 3-91.38 115.86-91.38 115.86s-77.3 23.06-133.15 20.66c-23.75 11.65-44.77 17.8-57.54 12.53-15.45-6.38-14.39-28.22-6.12-54.5-14.81-42.84-5.51-107.58 3.73-118.53a31.68 31.68 0 0 1 9.43-7c18.36-9.71 51.12-14.11 58.18-19.72 8.56-6.82 18.42-52.09 18.42-52.09l-.26.07c-1.41.44-8.74 2.5-20.46 2.53 13-2 20.72-2.62 20.72-2.62s63-23.73 85.53-49.06c0 0 .89 13 2.83 33.22.4 3.92 2 10.19 4.32 17.75.09.32.2.64.3 1 0 .08.05.16.08.25 4.65 13 31.41 47.28 54.89 64.64 6.25 4.64 12.72 9 18.84 13 17.58 11.39 32.4 19.76 31.64 22.01Z" style="fill:#ffb2a8"></path>
    <path d="M2163.44 1127.62c-.79 2.72-26.28 89.52-45.56 104-6.05 4.52-10.21 7.66-13.1 9.85l6.69-65.94a196.31 196.31 0 0 0 24.73-12.87c13.95-8.41 26.46-33.49 27.24-35.04Z" style="fill:#f27c85"></path>
    <path d="M2003.28 1045.29s-53.81-74.34-41-138.68 81.78-85.26 81.78-85.26 33.48-68.32 146.09-31.78 125.52 145.83 114.5 194.06-6.6 39.86-6.6 39.86 101.51 2.63 104.49 54.79-52 111.51-96.74 93.52-59.51-46.56-59.51-46.56 1.5 7.65-25.32 31.41-217.69-111.36-217.69-111.36Z" style="fill:#343468"></path>
    <path d="M2263 1126.18a50.74 50.74 0 0 0-3.48 8.82c-.43-1.27-.84-2.58-1.27-3.86-1.11-3.38 1.97-5.41 4.75-4.96Z" style="fill:#7a4661"></path>
    <path d="M2263 1126.18a50.74 50.74 0 0 0-3.48 8.82c-.43-1.27-.84-2.58-1.27-3.86-1.11-3.38 1.97-5.41 4.75-4.96ZM1975.72 942.72c-10.73 34.22-21.42 75.42-11.41 111 8 28.49 31 49.82 59.32 57.3 5.26 1.39 7.71-6.71 2.44-8.1-29.22-7.72-50.54-30.68-55.64-60.59-5.44-31.91 3.9-66.91 13.4-97.19 1.63-5.2-6.48-7.64-8.11-2.44Z" style="fill:#7a4661"></path>
    <path d="M2257.49 1101.41c-3 10.63-15.86 15.68-26.11 18a87 87 0 0 1-13.4 2c-23.9 26.82-90.56 51.94-90.56 51.94s-8.11.68-21.94 2.78c-15.95 0-39.59-3.45-67.44-18.75-14.45-7.92-23.14-27.36-28.14-51.31q-1.1-5.1-1.93-10.44-.72-4.48-1.3-9.08c-.22-1.76-.43-3.54-.61-5.32-1.26-11.63-1.94-23.7-2.19-35.59-.2-8.46-.16-16.85 0-24.92 0-1.76.08-3.52.12-5.26 1-36.12 4.65-64.75 4.65-64.75s23.83-25.69 33.39-33.87l9.54-8.17s5.86 9 57.3 40.37 68.05 30.82 74.48 33.12 7.48 37.43 14.73 45.92a13 13 0 0 0 3.6 3 6.27 6.27 0 0 0 4.81.69 8.94 8.94 0 0 0 4.45-3.09c6.38-12 19-17.9 31.46-5 16.72 17.38 20.2 59.41 15.09 77.73Z" style="fill:#ffb2a8"></path>
    <path d="M2219.75 1086.71c2.84-3.49 6.18 6.34 7.44 7.66a10.49 10.49 0 0 0 7.07 3.36c5.72.15 10.21-4.59 11.8-9.94 4-13.53-.92-32.59-15.21-36.91-4.92-1.49-7.24 6.34-2.32 7.83 7.89 2.39 10.34 10.36 10.6 18.06.09 2.52.21 6.13-.64 8.46q-2.22 7.37-6.7.68a11.2 11.2 0 0 0-.72-2.8c-4-6.66-11.34-9.13-16.76-2.49-3.23 4 2.17 10.09 5.44 6.09Z" style="fill:#f27c85"></path>
    <ellipse cx="2125.28" cy="1039.22" rx="10.29" ry="6.82" style="fill:#7a4661" transform="rotate(-89.38 2125.398 1039.18)"></ellipse>
    <ellipse cx="2029.52" cy="1047.44" rx="10.29" ry="6.82" style="fill:#7a4661" transform="rotate(-89.38 2029.637 1047.406)"></ellipse>
    <path d="M2068.28 1109.21a30.52 30.52 0 0 1-4.85-.63 9.16 9.16 0 0 1-3.41-1.32c-2.16-1.48-3.4-4.15-3.6-7.73a23 23 0 0 1 3.5-13.59 39.24 39.24 0 0 1 2.67-3.61 36.56 36.56 0 0 0 2.31-3.1 17.87 17.87 0 0 0 2.55-11.85 2.68 2.68 0 0 1 2.24-3.07 2.73 2.73 0 0 1 3 2.39 23.6 23.6 0 0 1-3.37 15.63 43.83 43.83 0 0 1-2.64 3.56 36.67 36.67 0 0 0-2.33 3.13 17.53 17.53 0 0 0-2.65 10.29c.1 1.7.52 2.93 1.18 3.38a4.59 4.59 0 0 0 1.52.51 25.21 25.21 0 0 0 13.37-.8 2.68 2.68 0 0 1 3.36 1.76 2.74 2.74 0 0 1-1.64 3.47 30.24 30.24 0 0 1-11.21 1.58Z" style="fill:#f27c85"></path>
    <path d="M2011 996.07a36.12 36.12 0 0 1 25.28-2.93c3.72.9 5.48-5 1.74-5.88a42.55 42.55 0 0 0-29.87 3.33c-3.41 1.73-.56 7.2 2.85 5.48ZM2106.33 980.65l.1-1-1.54 2.6c8.64-5.37 23.48-1.45 32.08 2.26 3.55 1.54 5.26-4.35 1.73-5.87a52.81 52.81 0 0 0-24.94-4.49c-4.56.32-12.73.17-13.37 6.19-.42 3.94 5.52 4.21 5.94.29Z" style="fill:#7a4661"></path>
    <path d="M2061.13 1134.09s8.12 16.87 21.29 18.41 22.78-12 23.78-16.25 2.62-7.65 1.08-7.5-16.44 5.39-27.83 3.47-21.18-6.28-18.32 1.87Z" style="fill:#d63646"></path>
    <path d="m2167 1035 39.56.36-.05-3.46v-.64h-4.8l-35.42-.34c-4.62-21.19-22.4-36.85-42.67-36.09s-36.19 17.7-38.29 39.19a35.08 35.08 0 0 0-14.31-2 17.86 17.86 0 0 0-9.73 3.52c-6.27-16-21.23-27.05-38-26.42a35.47 35.47 0 0 0-19.23 6.47 39 39 0 0 0-11.54 12.75 43.1 43.1 0 0 0-5.49 24 43.75 43.75 0 0 0 19.71 34.38 37 37 0 0 0 21.41 5.93 36.28 36.28 0 0 0 26.2-12.76 42.53 42.53 0 0 0 10.07-30.44 44.76 44.76 0 0 0-1.66-9.67c.89-1 3.35-3.12 8.73-3.62a31.86 31.86 0 0 1 13.64 2.15v3.51c1.46 25 21.09 44.74 43.78 43.89s39.95-21.9 38.49-46.95c-.11-1.35-.26-2.57-.4-3.76Zm-116.15 42.56a32.46 32.46 0 0 1-23 10.9 33.65 33.65 0 0 1-21.8-7.15 39.7 39.7 0 0 1-15.14-29.2 39.3 39.3 0 0 1 3.95-19.76 35.45 35.45 0 0 1 9-11.55 32 32 0 0 1 19.59-7.63c19.16-.72 35.73 15.59 36.93 36.35a38.31 38.31 0 0 1-9.55 28.03Zm77.81 4c-20.49.75-38.26-17.16-39.58-39.93s14.28-41.94 34.77-42.71 38.25 17.15 39.58 39.93-14.3 41.89-34.79 42.66ZM2231.38 1119.46a87 87 0 0 1-13.4 2c2.77-3.1 7.4-3.58 13.4-2Z" style="fill:#fff"></path>
    <path d="M2310.49 1262.76c-1 3-91.38 115.86-91.38 115.86s-77.3 23.06-133.15 20.66c-23.75 11.65-44.77 17.8-57.54 12.53-15.45-6.38-14.39-28.22-6.12-54.5-14.81-42.84-5.51-107.58 3.73-118.53a31.68 31.68 0 0 1 9.43-7c5.76 25.5 16.54 57.07 35.84 68.82 34.47 21 145.75-2.71 166.44-18.87 9.7-7.57 26.25-24.81 41.11-41 17.58 11.41 32.4 19.78 31.64 22.03Z" style="fill:#f27c85"></path>
    <path d="M2076.71 1218.23s-34 38.72-37.08 71.54-6.06 32.31-6.06 32.31-6.06-4.55-6.56-16.66 12.85-65.57 24.85-80.24 24.85-6.95 24.85-6.95ZM2260 1227.66s-21.46 23.74-28.53 55.54-8.58 44.43-4.54 44.94 14.2 4.54 15.43 0-1.8-30.8 11.33-54.53 22.36-28.77 22.28-34.83-8.64-14.66-15.97-11.12Z" style="fill:#fff"></path>
    <path d="M2402.67 2267.71h-512.11s-13.63-41.56 0-130.15 47.88-236.64 47.88-236.64 390.48-55.79 432.8 59.32a382.42 382.42 0 0 1 13.18 44.88c26.66 114.13 18.25 262.59 18.25 262.59Z" style="fill:#2c4fa0"></path>
    <g style="opacity:.6">
      <path d="M2384.42 2005.12c-31.08 21.1-61.8 39.52-84.27 47.52-68.16 24.23-182.46 30.15-204.83 24.91s-84.47-26.43-84.47-21.88c0 2.56-3.47 114.82-6.5 212h-113.79s-13.63-41.56 0-130.15 47.88-236.64 47.88-236.64 390.48-55.79 432.8 59.32a382.42 382.42 0 0 1 13.18 44.92Z" style="fill:#273657"></path>
    </g>
    <path d="M1786.69 1326.12s-22.72-53.52-34.34-65.64-42-24-42-24l19.41 134.52Z" style="fill:#ffb2a8"></path>
    <path d="M2014.89 1238.78v208s-116.12 92.9-121.17 93.91-27.26 8.07-45.43 0-113.91-137.07-122.19-155.51c-3.56-7.92 5.26-21.52 17-34.62 15.52-17.39 36.14-33.9 39.59-35 6.06-2 83.82 55.54 101 63.11 1.94.87 4.32.41 7-1.06 21.36-11.63 63.79-87.43 80.81-104.45 19.16-19.23 43.39-34.38 43.39-34.38Z" style="fill:#fccd89"></path>
    <path d="M2014.89 1266.36v180.42s-116.12 92.9-121.17 93.91-27.26 8.07-45.43 0-113.91-137.07-122.19-155.51c-3.56-7.92 5.26-21.52 17-34.62 11.45 32.2 28.4 73.81 52.72 99.25 43.43 45.44 74.72 61.92 88.87 61.75s-1-132.94-1-132.94l7-1.07c.2 1.85 12.83 119.63 21.54 110.62s77.82-194.87 99.85-220.12a5 5 0 0 1 2.81-1.69Z" style="fill:#e99c82"></path>
    <path d="M2342.56 1717.84c-9.09 97 45.15 254.52 41.51 260.58s-100.59 27.26-174.8 33.32c-16.25 1.33-31.55 2.44-45.76 3.33-50.68 3.24-87.42 3.91-103.4 2.73-20.48-1.51-153.77-39.38-147.71-57.56 5.33-16 44.74-209.41 45.79-285.32.15-10.29-.43-18.42-1.87-23.66-5.42-19.66-13-49.21-17.88-80.73-6.08-38.9-8.14-80.78 2.74-110.63 19.69-54 65.13-132.77 65.13-132.77l8.58-88.35 20.19-11.12s-15.14 76.75 70.69 101 159.54-46.45 177.71-67.66 29.28-9.08 46.46-2 72.73 58.3 72.73 58.3-6.28 37.45-14.84 90.24c-15.83 97.46-39.38 247.37-45.27 310.3Z" style="fill:#fccd89"></path>
    <path d="M2384.07 1978.42c-3.65 6.06-100.59 27.26-174.8 33.32-16.25 1.33-31.55 2.44-45.76 3.33l-119.37-60-37.33-133.43s238.81-68.85 254-77.94 10-43.92 10-43.92-255.4-31.81-280.4-31.81c-11.16 0-22.77 3.32-32.2 7 .15-10.29-.43-18.42-1.87-23.66-5.42-19.66-13-49.21-17.88-80.73a351.2 351.2 0 0 0 83.16 42.86c68.33 24.24 248.25 12.12 267.94 0s10.61-12.11 9.09-84.82 14.8-177.28 14.8-177.28l74.4 56.22c-15.83 97.51-39.38 247.4-45.27 310.33-9.11 96.95 45.13 254.47 41.49 260.53Z" style="fill:#e99c82"></path>
    <path d="m2044.14 1955-53.05-189.62a19 19 0 0 1 13.6-23.51l92.22-23.46a19 19 0 0 1 22.62 12.21l62 180.17a19 19 0 0 1-12.08 24.23L2068.29 1968a19 19 0 0 1-24.15-13Z" style="fill:#343468"></path>
    <path d="M2270.79 1886.21c-8.4.09-14.54.53-17.58 1.45-16.24 4.91-58.91 25.68-74 32.75s-93.12 29.76-99.28 29.16-50.5-7.21-53.11-11.8c-1.77-3.14-.54-7.12.14-9.62.32-1.17.52-2 .24-2.27a10.82 10.82 0 0 0-2.06-1c-4.43-1.8-14.55-5.87-16-12.36-1.4-6.33 8.36-12 12.74-14.16 1.24-.62 2.05-1 2.05-1s-.87-.09-2.24-.32c-4.26-.73-13.39-2.85-16.74-8.12-4.44-7-7.68-15.16-1.59-19s11.77-4.12 15.92-2.83 29.38 4.89 53.24 2.67c18.2-1.7 42.41-13.24 50.75-20.85l30-23.8c10.11 3.35 22.07 6.18 27.47 6.7 3.89.38 37.23-4.06 78.51-10.45Z" style="fill:#ffb2a8"></path>
    <path d="M2075.58 1899c10.78-1.92 23.23-4.62 24-4.79a2.27 2.27 0 0 0 1.74-2.7 2.24 2.24 0 0 0-2.7-1.74c-.3.06-29.15 6.32-36.88 6.58s-37.47-1.13-37.77-1.14a2.27 2.27 0 0 0-.22 4.54c1.23.06 30.12 1.42 38.15 1.15a121.84 121.84 0 0 0 13.68-1.9ZM2078.6 1928.06c6.43-1.15 13.75-2.89 15-3.19a2.27 2.27 0 0 0-1.07-4.41c-7.27 1.75-19.25 4.27-22.42 4-4.68-.32-41.34-.87-42.9-.89a2.27 2.27 0 0 0-.07 4.54c.38 0 38.1.57 42.66.89a46.25 46.25 0 0 0 8.8-.94Z" style="fill:#f27c85"></path>
    <path d="M2464.23 1847.66c-76.74 17.16-228.2 60.59-243.35 60.59-11.32 0-26.61-55.92-31.48-86.66-1.66-10.34-2.11-17.84-.84-19.37 5.06-6.06 209-76.74 206-77.76-1.41-.47.24-2.68 2.41-5.74 2.5-3.5 5.68-8.1 5.68-12.43a17.56 17.56 0 0 0-.76-3.34c-8.28-28.93-81.54-226.3-90.12-300.59-7.3-63.33 18.68-92.71 29.14-101.8a37.9 37.9 0 0 1 4.18-3.23c34.33-17.16 72.71 19.19 121.18 133.29s83.8 317.08 87.84 344.34-13.11 55.53-89.88 72.7Z" style="fill:#fccd89"></path>
    <path d="M2311.76 1402.36c-7.3-63.33 18.68-92.71 29.14-101.8-12.48 21.52-23.37 49.41-20.05 78.06 7.06 61.09 81.79 310.5 100 320.61s40.38 21.2 36.35 23.22c-3.53 1.75-36.26-15.7-55.29-19.5-8.31-28.95-81.57-226.3-90.15-300.59ZM2524.69 1766.39c-13.81-7.37-30.63-15.23-46.32-19.71-35.35-10.1-122.18 7.07-141.37 12.12-11 2.91-86 35.58-147.6 62.79-1.66-10.34-2.11-17.84-.84-19.37 5.06-6.06 209-76.74 206-77.76-1.41-.47.24-2.68 2.41-5.74a97.34 97.34 0 0 0 15.77 3.85c35.35 5.93 82.3 15.08 112.08 38.24l2.32 1.8a2.26 2.26 0 0 1-2.45 3.78Z" style="fill:#e99c82"></path>
    <path d="M1078.26 919.37c-1.31 4.35-.77 8 1.33 11-13 9.64-28.26 10.62-28.26 10.62s-.92-2.18-2.33-5.86l-193 116 12.55 16s-27.89 18.42-55.15 6.39-24-43.14-24-43.14c-.83-.21-34.42-8.51-40-33-1.86-8.23-.85-17.87 1.42-27.19-8.82-17.68-14.75-36.49-16.14-55.19-3.17-43.29 41.84-55 43.32-55.35h.06a.18.18 0 0 1 0-.08c-17.93-21.06-22.58-47.12-2.25-74.21l2 65.69c.78-24.58 14.16-93.86 138.81-104.29 151.91-12.76 178.5 116.82 161.64 172.61Z" style="fill:#272744"></path>
    <path d="M1053.35 839.21S1087.62 913.72 1086 998s-51.11 112.52-71.67 123.21a101.45 101.45 0 0 1-39.32 11.31l12.78 42.77s76.12 93.49 3.3 109.37-143.75-78.37-143.75-78.37 14.12-75.36 8.32-111.17-15.7-71-23.55-76.56-18.48 8.34-35-16.12 1.78-59.24 17.8-61.6 43.29 63.21 50.37 62.11 18.1-4.71 12.88-14.43S859 955 861.5 948.3s35.75-40.3 45.75-62.3 10.5-31.28 10.5-31.28 22.58 13.1 68.94 4.73 66.66-20.24 66.66-20.24Z" style="fill:#ffb2a8"></path>
    <path d="M975.05 1132.56s-18 4-42.89-14.38-56.54-69.73-56.54-69.73S882.19 1091 914 1131s73.87 44.38 73.87 44.38Z" style="fill:#f27c85"></path>
    <ellipse cx="1046.04" cy="960.03" rx="6.97" ry="10.81" style="fill:#272744" transform="rotate(-12.72 1046.481 960.335)"></ellipse>
    <ellipse cx="967.3" cy="969.59" rx="6.97" ry="10.81" style="fill:#272744" transform="rotate(-12.72 967.708 969.903)"></ellipse>
    <path d="M979.22 937.31c-7.56-5.44-16.54-9.4-25.8-6.09-8.57 3.07-17.78 11.32-22.79 18.77-1.67 2.49-5.44-.22-3.78-2.7 5.91-8.79 16.55-18.36 27-21.19 10.06-2.73 20 1.62 28.08 7.43 2.43 1.75-.27 5.53-2.7 3.78ZM1062.09 922.59c-11.08-6.82-22.14 2.9-29.9 10.15-2.18 2-5.1-1.57-2.92-3.61 9.6-9 22.42-18.38 35.52-10.32 2.55 1.57-.17 5.34-2.7 3.78Z" style="fill:#272744"></path>
    <g style="opacity:.49">
      <ellipse cx="933.06" cy="1027.84" rx="14.52" ry="18.5" style="fill:#ff2d5e" transform="rotate(-39.04 933.09 1027.847)"></ellipse>
    </g>
    <g style="opacity:.49">
      <ellipse cx="1069.09" cy="1016.1" rx="10.19" ry="12.12" style="fill:#ff2d5e" transform="rotate(-39.04 1069.121 1016.107)"></ellipse>
    </g>
    <path d="M1017.19 1029.79a39.47 39.47 0 0 0 5.91-.75 11.17 11.17 0 0 0 4.13-1.58c2.6-1.77 4.06-5 4.22-9.27a27.74 27.74 0 0 0-4.59-16.28 50.32 50.32 0 0 0-3.35-4.32 44.62 44.62 0 0 1-2.89-3.72 21.31 21.31 0 0 1-3.4-14.2 3.28 3.28 0 0 0-2.81-3.67 3.22 3.22 0 0 0-3.59 2.86 28.1 28.1 0 0 0 4.48 18.72 48.73 48.73 0 0 0 3.31 4.27 45.56 45.56 0 0 1 2.92 3.76 21 21 0 0 1 3.47 12.32c-.08 2-.57 3.51-1.36 4.05a5.65 5.65 0 0 1-1.85.61 31.54 31.54 0 0 1-16.35-1 3.21 3.21 0 0 0-4.06 2.11 3.3 3.3 0 0 0 2.07 4.14 38 38 0 0 0 13.74 1.95Z" style="fill:#f27c85"></path>
    <path d="M1026.5 1059.6s-9.54 20.21-25.59 22.07-28.11-14.32-29.43-19.48-3.39-9.17-1.5-9 20.21 6.46 34.09 4.15 25.74-7.5 22.43 2.26Z" style="fill:#d63646"></path>
    <path d="m777.74 851 .27 8.51v.1-.11a62.44 62.44 0 0 1-.27-8.5Z" style="fill:#fff"></path>
    <path d="M882.89 859.7s10.83 78.12-7.91 124.11-31.58 50.34-38.34 45.54-17.54-4.84-11.53-10.38 30.85-24.46 37.8-67-6-80.3-6-80.3Z" style="fill:#b6cad6"></path>
    <path d="M1116.17 817.53c-.58 17.22-10.34 30-26.59 33.34-24.74 5.13-89.15 0-137.17 9.26s-105.86 72.43-129.6 79-67.53.89-67.53.89-23-6-37.91-32.58c-8.51-15.21-14.32-37.18-11.57-68.6 7.58-86.24 89.59-141.74 209-152.44s179.53 69.86 194.35 101.17c5.12 10.74 7.32 20.97 7.02 29.96Z" style="fill:#cedbee"></path>
    <path d="M1116.17 817.53c-.58 17.22-10.34 30-26.59 33.34-24.74 5.13-89.15 0-137.17 9.26s-105.86 72.43-129.6 79-67.53.89-67.53.89-23-6-37.91-32.58c20.66 7.64 48.13 8.3 80.7-13.33 74.88-49.7 134.75-87.08 218.07-67 51.2 12.38 82.36 2.67 100.03-9.58Z" style="fill:#aec6d3"></path>
    <ellipse cx="784.41" cy="826.61" rx="24.43" ry="10.24" style="fill:#83a3b2" transform="rotate(-17.64 784.642 826.783)"></ellipse>
    <ellipse cx="819.3" cy="781.61" rx="22.46" ry="9.46" style="fill:#83a3b2" transform="rotate(-17.64 819.543 781.775)"></ellipse>
    <ellipse cx="881.07" cy="792.56" rx="29.15" ry="13.4" style="fill:#83a3b2" transform="rotate(-17.5 891.19 799.97)"></ellipse>
    <ellipse cx="899.11" cy="749.2" rx="19.3" ry="6.7" style="fill:#83a3b2" transform="matrix(.95 -.3 .3 .95 -184.79 307.78)"></ellipse>
    <path d="M830.5 1187.78s-2 16.07-5.38 43.64c-9.3 75.34-29.28 236.57-48.79 390.26-22.43 176.85-44.22 343.71-48.37 358.25-3.8 13.3-60.85 14.15-128.82 9.73-94.56-6.2-210.26-22.6-233.18-30-11.87-3.83-20.6-8.2-27.51-14.12a54.66 54.66 0 0 1-7.87-8.4c-10.68-14.08-17-35.34-28.23-70.81-19.69-62.1 10.6-352.91 16.66-365.76 2.84-6 13.69-10.24 24.41-13a190.82 190.82 0 0 1 24.05-4.43s.72-4.16 2-11.4l.12-.71c1-5.73 2.32-13.24 3.89-22.06 10.77-60.84 33-183.64 41-205.14 6.65-18.07 18.08-48.07 47.42-68.41 17.39-12.06 41.06-20.72 73.75-21.5 55.54-1.3 158.75 12.59 227.12 23 39.72 6.01 67.73 10.86 67.73 10.86Z" style="fill:#cedbee"></path>
    <g style="opacity:.66">
      <path d="M830.5 1187.78s-2 16.07-5.38 43.64c-9.3 75.34-29.28 236.57-48.79 390.26-22.43 176.85-44.22 343.71-48.37 358.25-3.8 13.3-60.85 14.15-128.82 9.73l163.58-812.77c39.77 6.04 67.78 10.89 67.78 10.89Z" style="fill:#92b1dd"></path>
    </g>
    <g style="opacity:.66">
      <path d="m379.59 1567.83-41.14 377.72a54.66 54.66 0 0 1-7.87-8.4s17.2-219.22 21.1-266.17-16-42.41-20.56-71.26c-2.77-17.56 5.46-72.12 12.3-112.13a190.82 190.82 0 0 1 24.05-4.43s.72-4.16 2-11.4l.12-.71c1-5.73 2.32-13.24 3.89-22.06 8.22 37.31 6.11 118.84 6.11 118.84Z" style="fill:#92b1dd"></path>
    </g>
    <g style="opacity:.66">
      <path d="M830.5 1187.78s-2 16.07-5.38 43.64c-9.3 75.34-29.28 236.57-48.79 390.26-49-37.34-109.26-95.44-125.62-164.29-28.78-121.17 16.54-206.9 16.54-206.9s-151.34.91-158.91 0-117.92 343.76-119.65 349.13l73.16-424.21c17.39-12.06 41.06-20.72 73.75-21.5 87.85-2.06 294.9 33.87 294.9 33.87Z" style="fill:#92b1dd"></path>
    </g>
    <path d="M830.5 1187.78s-2 16.07-5.38 43.64c-44.26-5.36-103.42-19-148.43-24-82-9.09-168.35-9.09-183.5 1.52s-28.78 56.54-48.47 127.47-48.47 255.59-56 263.23-42.17 7.58-36.35-26.74l17.13-101.22.12-.71c7.91-45.2 35.79-202.6 44.85-227.2C425 1215 447.75 1156 535.6 1153.91s294.9 33.87 294.9 33.87Z" style="fill:#cedbee"></path>
    <path d="m430.39 1912.52-7.14-117.37 228.06 31.23s-24.26 102.06-41.71 112.15c-13.65 7.9-114.79-.39-158.25-4.39a23.11 23.11 0 0 1-20.96-21.62Z" style="fill:#aec6d3"></path>
    <path d="M423.52 1771.92s-4 104 19.18 125.21 155.5 25.25 173.68 18.18 44.43-108 35.34-120.16-228.03-51.52-228.2-23.23Z" style="fill:#fff"></path>
    <g style="opacity:.66">
      <path d="m570.44 1201.11-93.89 488.15a6.73 6.73 0 0 0 6.61 8 6.72 6.72 0 0 0 6.59-5.37l101.34-490.59Z" style="fill:#92b1dd"></path>
    </g>
    <path d="M408.06 1517.43a4.43 4.43 0 0 1-.8-.08 4 4 0 0 1-3.12-4.72c5.66-28 55.94-274 77.74-296.77 23.45-24.56 121.38-20.47 169.89-14.87s58.47 7.13 58.88 7.2a4 4 0 0 1-1.24 7.9c-.1 0-10.47-1.61-58.56-7.15-52.69-6.08-143.59-8.08-163.18 12.44-17.1 17.9-60.44 217.46-75.69 292.84a4 4 0 0 1-3.92 3.21ZM341.4 1922.51h-.43a4 4 0 0 1-3.55-4.41l33.83-310.6a4 4 0 0 1 7.95.87l-33.82 310.59a4 4 0 0 1-3.98 3.55Z" style="fill:#92b1dd"></path>
    <path d="M494.21 1680.94a4.26 4.26 0 0 1-.8-.08 4 4 0 0 1-3.13-4.72l80.28-395.25a4 4 0 0 1 7.84 1.59l-80.28 395.25a4 4 0 0 1-3.91 3.21ZM547.94 1921.81h-.36l-71.51-6.39a51.52 51.52 0 0 1-37-20c-31-39-20-120.57-19.52-124a4 4 0 0 1 7.93 1.11c-.12.81-11 81.66 17.86 118a43.77 43.77 0 0 0 31.45 17l71.5 6.39a4 4 0 0 1-.35 8Z" style="fill:#92b1dd"></path>
    <path d="M1191.33 2267.71h-234.5c-15.39-53.34-28.06-96.83-29-100.16v-.1c-.8-2.94-11.77 43.27-24.78 100.26H667.3c-.2-27.53.22-54.7 1.78-79.35 2.25-35.2 7.89-73.87 14.53-110.14.65-3.58 1.32-7.14 2-10.65 7.12-37.46 15.06-71.64 21.06-95.78 5.49-22.21 9.33-35.92 9.33-35.92l95-3.25 10.92-.37 317-10.86s3.72 23.84 9.46 61.1c10.84 70.51 29 189.2 42.95 285.22Z" style="fill:#2c4fa0"></path>
    <path d="M821.91 1932.25c-11.72 38-25.65 76.88-56.08 105.71-10.63 10.04-22.83 17.76-36.07 23.94 1.32 20.59 7.15 114.57 10.87 205.8h-7c-3.61-87.86-9.15-178.5-10.67-202.8q-7 3-14.28 5.49-12.41 4.3-25.09 7.81 1-5.36 2-10.65 7.2-2.08 14.32-4.43c21.86-7.21 42.19-16.43 58.54-32 28.33-26.92 41.51-63 52.54-98.51Z" style="fill:#8484ce"></path>
    <g style="opacity:.6">
      <path d="M1148.35 1982.49c-50.5 6.4-117.89 12.66-199.69 15-110.28 3.2-192.16-12.09-242-25.73 5.5-22.19 9.32-35.91 9.32-35.91l422.91-14.48s3.71 23.86 9.46 61.12Z" style="fill:#273657"></path>
    </g>
    <g style="opacity:.6">
      <path d="M1042.44 2092c-25.84 17.9-67.66 47.57-69.1 53.11-.88 3.38 15.45 58.21 34.85 122.64h-51.36c-15.39-53.34-28.06-96.83-29-100.16a4 4 0 0 1 .08-.59l14.4-82.33a8.11 8.11 0 0 1 8.15-6.41h87c7.96-.04 11.33 9.29 4.98 13.74Z" style="fill:#273657"></path>
    </g>
    <path d="M1236.35 1356.75s25.91 10.12 28.46 10.12 12.3 1.94 12.3 1.94L1264.32 1516s-55.92-13.43-63.27-18.62-23.75-18.61-23.75-18.61Z" style="fill:#f27c85"></path>
    <path d="M1158.11 1500.55c-7.57 1.52-58.31-72.87-58.31-72.87l1.45-126.8.82-72.36s89.67 78 114.73 106c3.9 4.35 6.25 7.5 6.44 9 1.52 10.87-57.55 155.48-65.13 157.03Z" style="fill:#6cc58d"></path>
    <path d="M1158.11 1500.55c-7.57 1.52-58.31-72.87-58.31-72.87l1.45-126.8c7.88-4.77 12.8-7.7 12.8-7.7s45.61 164.21 47.49 157.39c1.37-5 36.79-78.08 55.26-116 3.9 4.35 6.25 7.5 6.44 9 1.52 10.82-57.55 155.43-65.13 156.98Z" style="fill:#3e9a83"></path>
    <path d="m1156.92 1499.79 66.52-158.1a8.54 8.54 0 0 1 13.82-2.81l5.23 5.08a8.53 8.53 0 0 1 2.06 9.07l-60.12 163.62a8.54 8.54 0 0 1-13.77 3.36l-11.62-10.6a8.53 8.53 0 0 1-2.12-9.62Z" style="fill:#abdda8"></path>
    <path d="M1607.94 1140.39c.61 4.62-39.36 15.58-46.93 20.89s-22 34.07-22 34.07h-120.38s2.26-2.53 6-6.81c16.54-18.72 62.22-70.77 75-88.94 1-1.35 1.71-2.5 2.27-3.45 9.85-16.67 17.42-58.32 26.51-71.19s32.59-26.51 32.59-26.51 21 27 37.22 71.87c.37 1 .75 2.06 1.11 3.11 16.37 46.66 7.99 62.32 8.61 66.96Z" style="fill:#ffb2a8"></path>
    <path d="M1607.94 1140.39c.61 4.62-39.36 15.58-46.93 20.89s-22 34.07-22 34.07h-120.38s2.26-2.53 6-6.81h67.42c5.3 0 32.56-37.87 31.9-42.41-.58-3.86-18.89-36.81-24.33-46.53l-1.51-2.7 3.78-.75s25 40.89 34.58 43.92-2.77-25-3.19-43.26 6.42-46.56 6.42-46.56 25.43 7.85 58.49 20.07c.37 1 .75 2.06 1.11 3.11 16.4 46.66 8.02 62.32 8.64 66.96Z" style="fill:#f27c85"></path>
    <path d="M1561 998.45s17.92-8.58 20.19-9.34 46.88 1.52 47.92 3.79-3.21 12.39-9.53 16.28-17.68 3.66-20.08 4.92-18.86 16.29-18.86 16.29Z" style="fill:#ffb2a8"></path>
    <path d="M1173.26 1970.85c-3 16.66-42.41 45.44-157.52 47s-240.83-22.77-240.83-31.85-15.15-60.58-17.42-48.47-17.42 40.9-29.53 42.41-57.1-12.11-51.27-24.23c1.71-3.54 9.11-35.82 18.82-81.38 23.5-110.33 60.38-298.58 62-345.75.9-26.35-7.81-70.91-18.67-115.17-16.6-67.64-38.23-134.54-38.23-134.54s27.87-35 40.5-47.65 81.27-53 84.82-53 159 61.09 165.09 58.06 42.91-42.41 46.44-42.41 58.57 25.43 64.63 34.68c4.65 7.08 36 220 56.5 370.74 6.25 46 11.51 86.15 14.69 113 1.62 13.59 2.89 27.36 3.86 41.08 7.34 102.17-1.22 202.78-3.88 217.48Z" style="fill:#6cc58d"></path>
    <path d="M990.55 1250.49s24.81 60.36 28.22 91 7.19 98.45 9.84 100 9.47 0 9.47 0-3.79-92.39-5.3-105.64-26.84-85.35-26.84-85.35l-11.41-5.66Z" style="fill:#e5dcd3"></path>
    <circle cx="986.2" cy="1330.16" r="11.36" style="fill:#fff"></circle>
    <circle cx="997.56" cy="1398.45" r="11.36" style="fill:#fff"></circle>
    <path d="M733.84 1239s3.71-20.38 14.31-28 29.81-14.24 36.87-9.9 79.25 85.88 94.4 140.41 6.82 118.89 0 118.89-32.56-17.41-31.81-28.77 2.28-89.37-22-138.59-56.8-59.83-68.16-59.07-23.61 5.03-23.61 5.03Z" style="fill:#fff"></path>
    <path d="M1356.81 1268.06a5.29 5.29 0 0 1-5.07-3.78 668.84 668.84 0 0 1-20.54-104.37c-8.66-77 0-134.45 25.71-170.73 19.25-27.15 47.92-41.78 85.2-43.48 36.87-1.68 68.16 10.36 93 35.79 33.71 34.5 55.26 92.47 64.06 172.31a690.67 690.67 0 0 1 3.16 109.32 5.3 5.3 0 0 1-10.57-.73c.13-1.94 12.42-195.07-64.24-273.49-22.65-23.18-51.22-34.15-84.94-32.61s-59.77 14.67-77 39c-58 81.75-4.23 264.1-3.68 265.93a5.3 5.3 0 0 1-3.55 6.6 5.41 5.41 0 0 1-1.54.24Z" style="fill:#d8765b"></path>
    <path d="M1769.57 1683.35a55.45 55.45 0 0 1-53.56 41.11h-428.15a55.39 55.39 0 0 1-54.86-63.16l59.23-418.3a55.4 55.4 0 0 1 54.85-47.64h309.71a55.4 55.4 0 0 1 54.85 47.64l59.23 418.31a55.19 55.19 0 0 1-1.3 22.04Z" style="fill:#fccd89"></path>
    <path d="M1438.89 1437.7s10.6 151.46 17.67 156 26.76 6.06 28.27 0-25.75-156-25.75-156 24.87-8.33 28.65-14-6.43-77.25-9.08-78.77-6.06 0-6.06 4.17 2.65 57.56-.76 62.1-17.8 6.06-19.69 4.92-3.41-72-7.57-71.76-7.58 2.09-7.58 7.77 1.9 60.58-1.89 64.75-17.42 1.14-19.69-2.27-5.3-66.65-8-67-6.06 4.55-6.82 9.09-1.89 68.16 5.3 74.22 33 6.78 33 6.78ZM1568.47 1464.07s-25.54 131-19.83 133.69 16.62 2.31 19.83.32 21.83-151.89 21.83-151.89 31.68-4.66 40.24-34-8.56-70.54-36-68.58-40.24 21.56-43.24 44.09 20.55 52.41 20.55 52.41Z" style="fill:#fff"></path>
    <circle cx="1378.02" cy="1262.76" r="18.93" style="fill:#d8765b"></circle>
    <circle cx="1618.27" cy="1262.76" r="18.93" style="fill:#d8765b"></circle>
    <path d="M1378 1268.06a5.29 5.29 0 0 1-5.07-3.78 668.84 668.84 0 0 1-20.54-104.37c-8.66-77 0-134.45 25.71-170.73 19.25-27.15 47.91-41.78 85.2-43.48 36.87-1.68 68.16 10.36 93 35.79 33.71 34.5 55.26 92.47 64.06 172.31a690.67 690.67 0 0 1 3.16 109.32 5.3 5.3 0 0 1-10.58-.73c.14-1.94 12.43-195.07-64.23-273.49-22.65-23.18-51.22-34.15-84.94-32.61s-59.77 14.67-77 39c-58 81.75-4.22 264.1-3.67 265.93a5.3 5.3 0 0 1-3.55 6.6 5.41 5.41 0 0 1-1.55.24Z" style="fill:#e99c82"></path>
    <path d="M1769.57 1683.35a55.45 55.45 0 0 1-53.56 41.11h-428.15a55.39 55.39 0 0 1-54.86-63.16l59.23-418.3a55.4 55.4 0 0 1 54.85-47.64h11.81c-20.2 132.47-65.49 433.78-58.4 426.87 9.09-8.83 77.53-34.8 77.53-34.8s-33 50.86-18.93 54.31 101.93 6.91 101.93 6.91l-23.55 34.71Z" style="fill:#e99c82;opacity:.68"></path>
    <path d="M1760 1588.48a4 4 0 0 1-4-3.44l-45.62-322.19a4 4 0 1 1 7.92-1.13l45.7 322.19a4 4 0 0 1-3.4 4.53 5.46 5.46 0 0 1-.6.04ZM1569.89 1199.35h-169.81a4 4 0 0 1 0-8h169.81a4 4 0 0 1 0 8Z" style="fill:#d8765b"></path>
    <path d="m1654 1110.26-41 22.56a11.44 11.44 0 0 1-15.53-4.5l-2.69-4.88a11.43 11.43 0 0 1 4.51-15.54l-12.56 6.91a11.43 11.43 0 0 1-15.52-4.5l-2.7-4.88a11.44 11.44 0 0 1 4.52-15.54l-8.26 4.54a11.44 11.44 0 0 1-15.54-4.51l-2.68-4.88a11.43 11.43 0 0 1 4.5-15.52l8.22-4.53a11.44 11.44 0 0 1-15.51-4.51l-2.68-4.88a11.43 11.43 0 0 1 4.5-15.54l53.5-29.46a11.45 11.45 0 0 1 15.54 4.5l2.68 4.87a11.46 11.46 0 0 1-4.5 15.55 11.45 11.45 0 0 1 15.54 4.49l2.68 4.88a11.44 11.44 0 0 1-4.5 15.54 11.44 11.44 0 0 1 15.53 4.5l2.69 4.88a11.44 11.44 0 0 1-4.51 15.54 11.44 11.44 0 0 1 15.54 4.49l2.7 4.88a11.44 11.44 0 0 1-4.47 15.54Z" style="fill:#ffb2a8"></path>
    <path d="M1559.36 1066.5a1.52 1.52 0 0 1-.74-2.84l53.53-29.47a1.51 1.51 0 1 1 1.46 2.65l-53.53 29.48a1.57 1.57 0 0 1-.72.18ZM1571.41 1092.34a1.51 1.51 0 0 1-.73-2.84l56.2-31a1.51 1.51 0 1 1 1.46 2.65l-56.2 31a1.47 1.47 0 0 1-.73.19ZM1598 1110.34a1.52 1.52 0 0 1-.74-2.84l43.25-24a1.49 1.49 0 0 1 2 .59 1.51 1.51 0 0 1-.58 2.06l-43.25 24a1.47 1.47 0 0 1-.68.19Z" style="fill:#f27c85"></path>
    <path d="M1177.12 1753.3c-77.91 21.78-264.56 72-289.19 60-31.23-15.14-77-88.86-77-88.86s-54.58 95.41-115.37 149.86c23.5-110.33 60.38-298.58 62-345.75.9-26.35-7.81-70.91-18.67-115.17 56.34-43.94 105.46-71.88 105.46-71.88S987 1593.79 1008.92 1596c14.91 1.51 97.85 2.67 149.65 3.24 6.25 46 11.51 86.15 14.69 113 1.62 13.57 2.89 27.34 3.86 41.06Z" style="fill:#3e9a83"></path>
    <path d="M1445.57 1679.21s17.56 4 17.21 12.28-14.75 15.29-15.45 16.29 4.21 6.65 2.46 11.63-44.23 19.27-50.21 20.93-86.7-7-102.86-11.3-61.79-17.28-78.64-19.26-117.95 25.22-183.95 35.22-146.74 12.62-155.13 12-28.1-17.29-33-25.25-19-23.93-41.42-56.48c-6.92-10-14-21.89-20.59-33.49-14.69-26.08-26.46-50.91-26.46-50.91l151.72-40.53s11.71 30.75 21.87 56.51c7.09 17.92 13.42 33.43 14.58 34.52 2.81 2.67 44.93.67 114.44 4s211.58-.88 219.53-3.09 30-12.4 37.93-19 21-15.06 35.09-25.69 29.49-6.65 32.31-2.66-5.15 11.52-17.33 17.72-28.08 25.68-31.82 31.46 33.23 18.6 57.1 16.6 48.09-10 51.95-11.95 9.48-2.67 16.16 0 4.91 11.29 1.76 18.93-17.25 11.52-17.25 11.52Z" style="fill:#ffb2a8"></path>
    <path d="M931.08 1606.81a169.92 169.92 0 0 1-30 15.42C866 1636.1 820.06 1640.6 784 1641.74c-14.69-26.08-26.46-50.91-26.46-50.91l151.72-40.53s11.66 30.75 21.82 56.51Z" style="fill:#f27c85"></path>
    <path d="M906.18 1521.78c-3 8.07-142.37 66.64-149.44 65.63s-74.72-101-79.78-211c-2.76-60.14 15.89-91.93 33.37-108.42 14.51-13.68 28.23-16.8 28.23-16.8 74.78-37 145.89 179.18 163.52 249.34 3.1 12.24 4.56 20.05 4.1 21.25Z" style="fill:#6cc58d"></path>
    <path d="M906.18 1521.78c-3 8.07-142.37 66.64-149.44 65.63s-74.72-101-79.78-211c-2.76-60.14 15.89-91.93 33.37-108.42-10.45 20.78-20 49.5-21.25 86.2-2.87 85 77.76 170.65 85.83 170.65 4.59 0 70.84-13.06 127.17-24.31 3.1 12.24 4.56 20.05 4.1 21.25Z" style="fill:#3e9a83"></path>
    <path d="M753.71 1619.72s-18.88-32.82-13.13-38.37 167.62-72.7 173.68-67.65 9.08 53.51 6.06 63.61-159.51 56.04-166.61 42.41Z" style="fill:#abdda8"></path>
    <path d="M1394.94 1689.77c-11 0-23.68-.47-24.49-.5a2.28 2.28 0 0 1-2.18-2.36 2.24 2.24 0 0 1 2.36-2.18c.29 0 29.8 1.11 37.45 0s36.7-7.69 37-7.75a2.27 2.27 0 0 1 1 4.43c-1.2.27-29.4 6.68-37.35 7.82a123.38 123.38 0 0 1-13.79.54ZM1397.07 1718.93c-6.53 0-14-.43-15.31-.51a2.27 2.27 0 1 1 .28-4.53c7.47.44 19.7.83 22.79.06 4.55-1.14 40.54-8.11 42.07-8.4a2.27 2.27 0 1 1 .86 4.46c-.37.07-37.4 7.24-41.83 8.35a45.94 45.94 0 0 1-8.86.57Z" style="fill:#f27c85"></path>
    <path d="M784 1641.74s.81 14.06-26.46 51.93-62.85 43.92-62.85 43.92l-9.09 57.56s38.62-4.55 65.88-34.84 53.11-85.08 53.11-85.08Z" style="fill:#fff"></path>
    <path d="M811.48 1201.11s138.12 98.25 149.23 98.75 37.36-32 40.89-31.9 29.28 14.23 33.83 12.72 28.31-62.06 28.31-62.06-99.5 22.68-119.7 22.68-132.56-40.19-132.56-40.19Z" style="fill:#3e9a83"></path>
    <path d="M1053.33 1199.74s10.6 5.21 20.47 10.52 36.23 43 56.64 141 11.1 126.08 11.1 126.08-20.17-140.37-40.2-184.19-55.76-85.34-55.76-85.34Z" style="fill:#fff"></path>
    <path d="M805.71 1194.85s33.83-42.41 41.4-40.9 136.32 66.14 139.34 64.63 37.87-41.4 44.43-40.39 33.83 34.84 34.34 36.85-30.3 55.34-35.35 52.92-32.81-26.16-35.34-23.13-26.76 40.9-33.32 38.37-160.91-81.75-155.5-88.35Z" style="fill:#abdda8"></path>
    <path d="M1415.1 509.73h-165.61a63.62 63.62 0 0 0-63.61 63.61v85.83a63.62 63.62 0 0 0 51.5 62.45V748a7.73 7.73 0 0 0 13.09 5.57l32-30.81h132.63a63.63 63.63 0 0 0 63.62-63.62v-85.8a63.63 63.63 0 0 0-63.62-63.61Z" style="fill:#cedbee"></path>
    <circle cx="1260.73" cy="614.95" r="17.8" style="fill:#fff"></circle>
    <circle cx="1327.75" cy="614.95" r="17.8" style="fill:#fff"></circle>
    <circle cx="1394.77" cy="614.95" r="17.8" style="fill:#fff"></circle>
    <path d="M1757.66 597.16h165.61a63.63 63.63 0 0 1 63.62 63.61v85.83a63.62 63.62 0 0 1-51.51 62.45v26.41a7.72 7.72 0 0 1-13.08 5.54l-32-30.81h-132.64a63.62 63.62 0 0 1-63.61-63.62v-85.8a63.62 63.62 0 0 1 63.61-63.61Z" style="fill:#cedbee"></path>
    <circle cx="1838.94" cy="703.02" r="80.53" style="fill:#fff"></circle>
    <circle cx="1838.94" cy="703.02" r="80.53" style="fill:#fff"></circle>
    <path d="M1887.15 725.79c-9.28 19.07-27.4 32-48.21 32s-38.93-12.93-48.21-32a5.1 5.1 0 0 1 4.53-7.38h87.36a5.1 5.1 0 0 1 4.53 7.38Z" style="fill:#7394bc"></path>
    <path d="M1878.58 718.41v.14a10.24 10.24 0 0 1-10.23 10.22H1806a10.23 10.23 0 0 1-10.23-10.22v-.14Z" style="fill:#fff;opacity:.64"></path>
    <path d="M1792 692.94c1.17-11.72 13.72-16.25 23.39-11.14 2.58 1.37 4.88-2.56 2.29-3.92-12.94-6.85-28.71-.09-30.22 15.06-.29 2.91 4.25 2.89 4.54 0ZM1887.66 692.94c-1.51-15.15-17.27-21.91-30.22-15.06-2.59 1.36-.3 5.29 2.29 3.92 9.67-5.11 22.22-.58 23.39 11.14.29 2.89 4.83 2.92 4.54 0ZM1791.5 668.36c2.44-4.08 5.66-8.32 10.85-8.49 2.19-.07 2.2-3.47 0-3.41-6.47.21-10.69 5-13.79 10.18-1.13 1.89 1.81 3.6 2.94 1.72ZM1885.78 666.64c-3.1-5.19-7.32-10-13.79-10.18-2.2-.06-2.19 3.34 0 3.41 5.19.17 8.41 4.41 10.85 8.49 1.12 1.88 4.07.17 2.94-1.72Z" style="fill:#7297b5"></path>
  </g>
</svg>
