<svg xmlns="http://www.w3.org/2000/svg" width="2778.845" height="2321.918" viewBox="110.579 339.043 2778.845 2321.918" id="male-delivery-executive-delivering-groceries-at-specified-location">
  <g id="map_pin">
    <path d="M310.77 2436.41s-88.73-187.86 0-361.95 157.73-283 76.4-475-153.86-496.36 22.11-699.23 325.17-95.65 507.52-236.14 245.91-244 521-214.44 269.8 284.69 594.1 277.29 422.26 93.35 406.55 255.57 15.85 170.94 116.53 214.64 163.54 210 108.09 402.29-96.13 266.6-29.58 368.09 224.87 157.12 50.26 468.88Z" style="fill:#f5f5f7"></path>
    <ellipse cx="318.84" cy="1735.81" rx="81.95" ry="135.11" style="fill:#f5f5f7"></ellipse>
    <ellipse cx="2699.43" cy="1848.99" rx="63.68" ry="92.61" style="fill:#f5f5f7"></ellipse>
    <ellipse cx="807.99" cy="628.8" rx="105.56" ry="43.95" style="fill:#f5f5f7" transform="rotate(-26.38 808.04 628.808)"></ellipse>
    <ellipse cx="1900.12" cy="614.64" rx="43.95" ry="105.56" style="fill:#f5f5f7" transform="rotate(-65.24 1900.013 614.67)"></ellipse>
    <ellipse cx="2529.54" cy="1057.6" rx="50.71" ry="68.94" style="fill:#f5f5f7" transform="rotate(-19.54 2530.199 1057.745)"></ellipse>
    <path d="M1287.4 735.39H1760s1.23-49.91-22.18-54.22-32 5.54-32 5.54 11.71-40.66.61-49.9-18.48 22.79-18.48 22.79 4.31-32.63-11.71-45-33.27 9.23-33.27 9.23 3.7-45.6-38.2-51.76-52.37 39.43-52.37 39.43-14.79-19.71-25.26-16.63-9.86 13.55-9.86 13.55-3.08-23.41-34.5-27.72-30.19 33.9-30.19 33.9-22.65-8.64-28 3.07 0 31.42 0 31.42-16.4-9.82-23.8 4.33-4.93 20.31-4.93 20.31-19.71-24-46.82-24.64-29 46.82-29 46.82-29.58-8-41.9 3.7 9.26 35.78 9.26 35.78ZM344.71 1273h472.58s1.23-49.9-22.18-54.22-32 5.55-32 5.55 11.71-40.67.62-49.91-18.49 22.8-18.49 22.8 4.32-32.63-11.7-45-33.28 9.23-33.28 9.23 3.7-45.59-38.2-51.75-52.37 39.43-52.37 39.43-14.78-19.72-25.26-16.64-9.86 13.56-9.86 13.56-3.08-23.41-34.5-27.73-30.19 33.9-30.19 33.9-22.65-8.64-28 3.07 0 31.42 0 31.42-16.4-9.81-23.8 4.34-4.93 20.31-4.93 20.31-19.71-24-46.82-24.65-29 46.83-29 46.83-29.57-8-41.9 3.7 9.28 35.76 9.28 35.76ZM1379.26 954.55c-14.24-13.52-48.41-4.27-48.41-4.27s-2.13-54.81-33.46-54.1-54.09 28.47-54.09 28.47 2.84-7.11-5.7-23.46-27.49-5-27.49-5 6.14-22.78 0-36.3c-2.56-5.64-8.61-7.19-14.78-7.08a39.22 39.22 0 0 0-47.55-45.22 98 98 0 1 0-189.13 44.76 69.8 69.8 0 0 0-.8 14.66s-19.93-24.92-38.44-10.67-13.52 51.95-13.52 51.95-8.55-37-21.36-26.34.71 57.66.71 57.66-10-11.39-37-6.4-25.63 62.64-25.63 62.64h546s24.88-27.77 10.65-41.3Z" style="fill:#fff"></path>
    <path d="M358.44 2436.29v-311.87a48.37 48.37 0 0 1 16.25-36.17l85-75.54a48.39 48.39 0 0 0 16.31-36.18v-532.59a48.39 48.39 0 0 1 48.39-48.39h270.7a48.4 48.4 0 0 0 48.39-48.39V912.55a48.38 48.38 0 0 1 48.39-48.39h166a48.39 48.39 0 0 1 48.39 48.39V1233a48.39 48.39 0 0 0 48.39 48.39h142.9a48.39 48.39 0 0 1 48.39 48.39v123a48.38 48.38 0 0 0 48.39 48.39h823.32a48.39 48.39 0 0 0 48.39-48.39V1246.5a48.38 48.38 0 0 1 48.39-48.39h149.4a48.38 48.38 0 0 1 48.39 48.39v770a48.4 48.4 0 0 0 48.39 48.39h53a48.38 48.38 0 0 1 48.39 48.41v323Z" style="fill:#e1e9f4"></path>
    <path d="M2364.23 1266.78v18.74c0 7.8-5.37 14.14-12 14.14h-35.59c-6.61 0-12-6.34-12-14.14v-18.74c0-7.8 5.37-14.13 12-14.13h35.59c6.63 0 12 6.35 12 14.13ZM2364.23 1352.91v18.74c0 7.8-5.37 14.14-12 14.14h-35.59c-6.61 0-12-6.34-12-14.14v-18.74c0-7.8 5.37-14.13 12-14.13h35.59c6.63 0 12 6.33 12 14.13ZM2364.23 1439v18.75c0 7.8-5.37 14.13-12 14.13h-35.59c-6.61 0-12-6.33-12-14.13V1439c0-7.8 5.37-14.13 12-14.13h35.59c6.63.04 12 6.37 12 14.13ZM2364.23 1525.18v18.74c0 7.8-5.37 14.13-12 14.13h-35.59c-6.61 0-12-6.33-12-14.13v-18.74c0-7.81 5.37-14.14 12-14.14h35.59c6.63-.04 12 6.33 12 14.14ZM2447.59 1266.78v18.74c0 7.8-5.38 14.14-12 14.14H2400c-6.62 0-12-6.34-12-14.14v-18.74c0-7.8 5.37-14.13 12-14.13h35.59c6.62 0 12 6.35 12 14.13ZM2447.59 1352.91v18.74c0 7.8-5.38 14.14-12 14.14H2400c-6.62 0-12-6.34-12-14.14v-18.74c0-7.8 5.37-14.13 12-14.13h35.59c6.62 0 12 6.33 12 14.13ZM2447.59 1439v18.75c0 7.8-5.38 14.13-12 14.13H2400c-6.62 0-12-6.33-12-14.13V1439c0-7.8 5.37-14.13 12-14.13h35.59c6.62.04 12 6.37 12 14.13ZM2447.59 1525.18v18.74c0 7.8-5.38 14.13-12 14.13H2400c-6.62 0-12-6.33-12-14.13v-18.74c0-7.81 5.37-14.14 12-14.14h35.59c6.62-.04 12 6.33 12 14.14ZM948 937.55v18.74c0 7.8-5.38 14.14-12 14.14h-35.55c-6.62 0-12-6.34-12-14.14v-18.74c0-7.8 5.37-14.13 12-14.13H936c6.66 0 12 6.33 12 14.13ZM948 1023.68v18.74c0 7.8-5.38 14.14-12 14.14h-35.55c-6.62 0-12-6.34-12-14.14v-18.74c0-7.8 5.37-14.13 12-14.13H936c6.66 0 12 6.33 12 14.13ZM948 1109.81v18.75c0 7.8-5.38 14.13-12 14.13h-35.55c-6.62 0-12-6.33-12-14.13v-18.75c0-7.8 5.37-14.13 12-14.13H936c6.66 0 12 6.32 12 14.13ZM948 1196v18.74c0 7.8-5.38 14.13-12 14.13h-35.55c-6.62 0-12-6.33-12-14.13V1196c0-7.8 5.37-14.14 12-14.14H936c6.66-.05 12 6.29 12 14.14ZM1031.39 937.55v18.74c0 7.8-5.37 14.14-12 14.14H983.8c-6.62 0-12-6.34-12-14.14v-18.74c0-7.8 5.37-14.13 12-14.13h35.59c6.61 0 12 6.33 12 14.13ZM1031.39 1023.68v18.74c0 7.8-5.37 14.14-12 14.14H983.8c-6.62 0-12-6.34-12-14.14v-18.74c0-7.8 5.37-14.13 12-14.13h35.59c6.61 0 12 6.33 12 14.13ZM1031.39 1109.81v18.75c0 7.8-5.37 14.13-12 14.13H983.8c-6.62 0-12-6.33-12-14.13v-18.75c0-7.8 5.37-14.13 12-14.13h35.59c6.61 0 12 6.32 12 14.13ZM1031.39 1196v18.74c0 7.8-5.37 14.13-12 14.13H983.8c-6.62 0-12-6.33-12-14.13V1196c0-7.8 5.37-14.14 12-14.14h35.59c6.61-.05 12 6.29 12 14.14Z" style="fill:#cedbee"></path>
    <path d="M2237.67 846.48v1599.93h-813.1V846.48a51.61 51.61 0 0 1 51.62-51.62h709.86a51.61 51.61 0 0 1 51.62 51.62Z" style="fill:#dfe9f4"></path>
    <path d="M1716.94 846.48v1599.93h-292.37V846.48a51.61 51.61 0 0 1 51.62-51.62h189.13a51.62 51.62 0 0 1 51.62 51.62ZM2237.67 894.2v36.5h-374.8a18.25 18.25 0 0 1 0-36.5ZM2237.67 1017.19v36.5h-374.8a18.25 18.25 0 0 1 0-36.5ZM2237.67 1140.17v36.5h-374.8a18.25 18.25 0 0 1 0-36.5ZM2237.67 1263.16v36.5h-374.8a18.25 18.25 0 0 1 0-36.5ZM2237.67 1386.14v36.5h-374.8a18.25 18.25 0 0 1 0-36.5ZM2237.67 1509.13v36.5h-374.8a18.25 18.25 0 0 1 0-36.5Z" style="fill:#cedbee"></path>
    <path d="M278.8 2456.53h2411.13v21.64a77.25 77.25 0 0 1-77.25 77.25H356.05a77.25 77.25 0 0 1-77.25-77.25v-21.64Z" style="fill:#eeeef8"></path>
    <rect width="2419.83" height="20.24" x="270.1" y="2436.29" rx="7.2" style="fill:#aebfce"></rect>
    <rect width="1054.26" height="18.12" x="1218.84" y="2489.23" rx="7.2" style="fill:#aebfce"></rect>
    <rect width="627.22" height="17.34" x="500.58" y="2489.62" rx="7.03" style="fill:#aebfce"></rect>
    <rect width="149.37" height="17.73" x="2330.99" y="2489.23" rx="7.03" style="fill:#aebfce"></rect>
    <path d="M310.77 2436.41s-55.4-89.59-17.19-115 59.14 51.59 59.14 51.59-17.25-94.29 14.79-105.93 29.58 29 29.58 29 7.25-52.56 27-46.87.07 46.87.07 46.87 50.52-50.65 87.49-29 13.55 93.21 13.55 93.21 17.25-36.84 33.27-30.18 0 33.15 0 33.15 44.37-75.79 76.4-59.77 18.49 76.4 18.49 76.4 6.16-24.64 19.71-16.63 9.86 44.35 9.86 44.35 9.86-53.59 30.81-44.35 4.93 73.07 4.93 73.07ZM1218.84 2436.29s-18.62-27.22 2.24-42.1 31.94 21 31.94 21 3.5-71.44 25.78-76.79 38.91 34.52 38.91 34.52 0-32 18.49-35 12.94 35 12.94 35 19.63-119.5 75.43-99.09 36.63 162.41 36.63 162.41Z" style="fill:#aebfce"></path>
    <path d="M2467.35 2251.62s-35-153.84-47.22-291.59c-10.36-116.49 38.92-276.42 54.37-323 2.08-6.25 8.93-7.41 12.29-2.06 19.22 30.62 66.85 126.28 59 313.19-9.79 233.2-78.44 303.46-78.44 303.46Z" style="fill:#aec6d3"></path>
    <path d="M2468.43 2269.35s12.68-176.83 14.26-343.95 0-219.87 0-219.87 11.44 250 6.51 367.42-20.77 196.4-20.77 196.4Z" style="fill:#aec6d3"></path>
    <path d="M2482.88 2228.44s76.41-27.33 94.87-149.44-34.65-200.87-41.4-198-31.81 15.38-57.47 125.47 4 221.97 4 221.97Z" style="fill:#cedbee"></path>
    <path d="M2454.24 2269.81c.23-.15 22.32-16 55.18-130.13 1.06-40.51-18-91.79-18.16-92.31a2.34 2.34 0 0 1 .93-2.86 1.73 1.73 0 0 1 2.42 1.1c.72 1.93 16.07 43.28 18.26 81.83 12.82-46.74 18.91-85.49 21.58-115.3l-14.58-70.48a2.22 2.22 0 0 1 1.35-2.62 1.84 1.84 0 0 1 2.21 1.59l12 58.16c2.29-37-.85-56.85-.91-57.22a2.19 2.19 0 0 1 1.48-2.57 1.87 1.87 0 0 1 2.15 1.71c.07.41 4 25.3 0 71.12a2.72 2.72 0 0 1-.11 1.18c-1.42 15.7-3.77 33.82-7.52 54.22 16.47-22 29-61.09 29.13-61.52a1.78 1.78 0 0 1 2.36-1.27 2.31 2.31 0 0 1 1.08 2.79c-.61 1.93-15.06 47.06-34.11 68.09-3.54 18-8.16 37.67-14.14 58.91-3.12 11.06-6.14 21.24-9.07 30.63 37.88-38.2 61.62-101.12 61.87-101.78a1.72 1.72 0 0 1 2.41-1.11 2.32 2.32 0 0 1 .94 2.85c-.26.7-26.36 69.92-67.76 108.09-28.15 87.74-46.39 100.15-47.24 100.7a1.64 1.64 0 0 1-.86.25 1.81 1.81 0 0 1-1.6-1.13 2.4 2.4 0 0 1 .71-2.92Z" style="fill:#92b1dd"></path>
    <path d="M2508.91 2250.08s54.77 9.28 94.93-61.66 24.87-139.31 19.92-139.83-23.74-1.32-65.66 59.49-49.19 142-49.19 142Z" style="fill:#aec6d3"></path>
    <g style="opacity:.71">
      <path d="M2481.12 2266.32c.18 0 17.86-2.35 65.29-63.23 10.11-25.3 10-64.41 10-64.8a1.36 1.36 0 0 1 1.25-1.49 1.45 1.45 0 0 1 1.28 1.54c0 1.47.09 33-7.51 58.19A388.49 388.49 0 0 0 2592 2131l7.19-49.72a1.26 1.26 0 0 1 1.47-1.19 1.54 1.54 0 0 1 1 1.77l-5.94 41c10.07-22.61 12.72-36.31 12.76-36.56a1.25 1.25 0 0 1 1.51-1.12 1.59 1.59 0 0 1 1 1.83c-.05.29-3.35 17.43-16.58 45.06a1.57 1.57 0 0 1-.34.71 355.84 355.84 0 0 1-17.41 31.74c15.56-8.18 32.62-28.62 32.8-28.84a1.12 1.12 0 0 1 1.79 0 1.73 1.73 0 0 1 0 2.14c-.83 1-20.5 24.57-37.48 31.26-6.44 10.18-13.94 21-22.69 32.4-4.55 5.92-8.84 11.32-12.88 16.25 32.9-11 62.61-42.62 62.92-43a1.13 1.13 0 0 1 1.79.14 1.73 1.73 0 0 1-.07 2.13c-.33.35-33 35.12-68.13 44.9-38.28 45.79-52.72 47.3-53.39 47.35a1.11 1.11 0 0 1-.6-.14 1.58 1.58 0 0 1-.76-1.28 1.43 1.43 0 0 1 1.16-1.51Z" style="fill:#aec6d3"></path>
    </g>
    <path d="M2459.58 2210.76s-102.73-38-127.54-207.58 46.59-279 55.66-275 42.76 21.37 77.26 174.3-5.38 308.28-5.38 308.28Z" style="fill:#cedbee"></path>
    <path d="M2498.08 2268.23c-.3-.21-30-22.18-74.18-180.76-1.43-56.27 24.16-127.51 24.42-128.23a3.3 3.3 0 0 0-1.25-4 2.3 2.3 0 0 0-3.25 1.53c-1 2.68-21.61 60.12-24.55 113.67-17.25-64.93-25.43-118.76-29-160.17l19.59-97.89a3.1 3.1 0 0 0-1.81-3.65 2.48 2.48 0 0 0-3 2.21l-16.18 80.79c-3.08-51.34 1.15-79 1.23-79.49a3 3 0 0 0-1.94-3.53c-1.32-.33-2.63.73-2.9 2.36-.09.57-5.41 35.15 0 98.8a3.6 3.6 0 0 0 .15 1.64c1.9 21.81 5.06 47 10.11 75.32-22.15-30.49-39-84.86-39.17-85.46a2.37 2.37 0 0 0-3.17-1.76 3.24 3.24 0 0 0-1.45 3.88c.82 2.67 20.24 65.36 45.86 94.58 4.76 25 11 52.32 19 81.83 4.19 15.36 8.26 29.5 12.19 42.54-50.93-53.06-82.84-140.47-83.18-141.39a2.31 2.31 0 0 0-3.24-1.54 3.31 3.31 0 0 0-1.27 4c.35 1 35.44 97.12 91.11 150.15 37.84 121.88 62.36 139.11 63.51 139.87a2.17 2.17 0 0 0 1.15.35 2.44 2.44 0 0 0 2.16-1.57 3.4 3.4 0 0 0-.94-4.08Z" style="fill:#92b1dd"></path>
    <path d="m2601.54 2261.63-25 145.85-2.29 13.34c-1.43 8.37-8.94 14.56-17.8 14.68l-57.38.79-4.32.06-4.31-.06-57.39-.79a18.06 18.06 0 0 1-17.79-14.68l-27.31-159.19c-1.82-10.67 6.78-20.37 18.07-20.37h177.47c11.28 0 19.88 9.74 18.05 20.37Z" style="fill:#aebfce"></path>
    <path d="M2499.06 2436.29v.12l-4.32-.06 4.32-.06zM2494.74 2436.35l-4.31.06v-.12l4.31.06z" style="fill:#fff"></path>
    <g style="opacity:.71">
      <path d="m2576.53 2407.48-2.29 13.34c-1.43 8.37-8.94 14.56-17.8 14.68l-57.38.79-4.32.06-4.31-.06-57.39-.79a18.06 18.06 0 0 1-17.79-14.68l-27.31-159.19c-1.82-10.67 6.78-20.37 18.07-20.37h21.48l35.05 142.36c3.46 14 16.49 23.86 31.49 23.86Z" style="fill:#8da5b7"></path>
    </g>
    <path d="M2322.18 1637.63v770.14a28.83 28.83 0 0 1-28.83 28.83h-467.06a28.83 28.83 0 0 0 28.83-28.83v-770.14a28.83 28.83 0 0 0-28.83-28.84h467.06a28.83 28.83 0 0 1 28.83 28.84Z" style="fill:#cedbee"></path>
    <path d="M1855.12 1637.63v770.14a28.83 28.83 0 0 1-28.83 28.83h-203.46a28.83 28.83 0 0 1-28.83-28.83v-770.14a28.83 28.83 0 0 1 28.83-28.84h203.46a28.83 28.83 0 0 1 28.83 28.84Z" style="fill:#aebfce"></path>
    <path d="M1687 1608.79h73.26V1709a12 12 0 0 1-12 12H1699a12 12 0 0 1-12-12v-100.21Z" style="fill:#cedbee"></path>
    <rect width="124.9" height="55.42" x="1900.12" y="1655.01" rx="8.67" style="fill:#fff"></rect>
    <path d="M2209.3 1608.79h56.7v453.76a17.08 17.08 0 0 1-17.08 17.08h-22.58a17.08 17.08 0 0 1-17.08-17.08v-453.76h.04Z" style="fill:#fff"></path>
    <path d="M2322.18 2315.12v92.65a28.83 28.83 0 0 1-28.83 28.83h-467.06a28.83 28.83 0 0 0 28.83-28.83V2048h286.64l-33.26 267.17Z" style="fill:#aebfce"></path>
    <path d="M1855.12 2048v359.82a28.83 28.83 0 0 1-28.83 28.83h-203.46a28.83 28.83 0 0 1-28.83-28.83V2048Z" style="fill:#92b1dd"></path>
    <path d="M1624.25 2407.57s-50.65-13.07-48.74-40.52 48.74 20.26 48.74 20.26-24.51-46-4.72-43 21.6 24.09 21.6 24.09 37.59-31.38 46.25-7.92l8.67 23.47s15-49.25 31.67-45.47 9.82 47.07 9.82 47.07 50-59.37 68.91-25.07 11.47 47.12 11.47 47.12h167.44s-21.82-35.33-4.49-47.12 22.61 12.46 22.61 12.46.76-42.88 17.53-42.84 12.1 29.07 12.1 29.07 17.47-32.35 28.88-14.86-4.39 24.54-4.39 24.54 41.93-17.6 38.76 6.15-34.37 40.9-34.37 40.9h-437.74Z" style="fill:#638bba"></path>
    <path d="M1703.74 1904.7c1.56-23.51-24.09-28.76-24.09-28.76s9.34-32.62-4.83-57.28-46.73-10.85-46.73-10.85 8-18.15-3.84-25-21.54 14.05-21.54 14.05 1.45-12.32-13.78-18.2-23.92 16.75-23.92 16.75l-7.26-8c-7.25-8-37-24.66-52.2 0s7 34.07 7 34.07-22.28 10.88-21.55 45 16.67 61.64 16.67 61.64-21 14.49-8.7 27.52c2.53 2.67 5 3.56 7.46 3.32-4.9 7.87-8.49 17.54-6.73 27.78 4.35 25.28 34.8 10.77 34.8 10.77s-3.62 31.38 3.9 33.31 12.78 0 12.78 0 2.17 12.58 11.6 15.19 11.6-10.59 11.6-10.59 2.9 14.25 23 9.68 26.83-24.91 26.83-24.91 1.9 12.72 14 6.89 3.62-19.76 3.62-19.76 9.43-1.63 30.46-9.81 2.54-39 2.54-39a38 38 0 0 0 19.18-2.92c10.12-4.36-11.57-27.19-11.57-27.19s19.75-.19 21.3-23.7Z" style="fill:#3e9a83"></path>
    <path d="M1808.66 2285.77c-.22 2.1-3.38 5.22-8.41 8.83-2.89 2.07-6.38 4.32-10.3 6.63-5.25 3.1-11.25 6.33-17.5 9.45-3.48 1.76-7 3.47-10.6 5.11a260.17 260.17 0 0 1-29.38 11.69c-7.46 2.3-13 3.26-15.2 2.08-8.12-4.43-24.75-102-35.17-146.87-2-8.54-3.75-15.18-5.19-18.89-8.94-23.2-97.88-81-97.88-88.82s-1-3.56 4.83-2.82 73.22 59.73 78.17 53.93-7.59-30.51-20.17-50.53-80.16-82.91-76.38-88.78c0 0 6.78-14.52 12.58-6.25 5.32 7.6 87.66 95.33 97.24 101.54.86.56 1.13.46.71-.42-.2-.41-.49-1-.85-1.82-9.28-19.49-69.77-148.93-63.27-151.33 6.77-2.53 7.9-1 13.14-.34s61.5 152.25 65.25 139.93 13.46-163.39 13.46-163.39l16.21 8s-17.79 159.53-7.29 162.33a1.18 1.18 0 0 0 .59 0c11.75-3 28-117.22 28.57-119.29s8.33 9.89 8.33 9.9-7.92 62.08-12.27 109.39c-1.25 13.7-2.21 26.16-2.58 35.5-.32 7.57-.25 13.09.34 15.61 3.86 16.38 74.19 148.67 73.02 159.63Z" style="fill:#fccd89"></path>
    <path d="M1733.7 2226.86c11.3 22.48 25.64 54.08 38.75 83.82-3.48 1.76-7 3.47-10.6 5.11-23.77-51.83-48.68-108.91-48.6-102.22.08 5.94 9.56 60.16 19.22 113.91-7.46 2.3-13 3.26-15.2 2.08-8.12-4.43-24.75-102-35.17-146.87l-6.8-100.62-.14-2.24-.34-4.85h63.06c-1.25 13.7-2.21 26.16-2.58 35.5-8.85.78-18.57 3.33-18 10.78.7 9.66 53 114.2 83 173.34-2.89 2.07-6.38 4.32-10.3 6.63-26.87-60.26-73.72-163.53-79.31-163.53-7.92 0-5.02 33.3 23.01 89.16Z" style="fill:#f28c70"></path>
    <path d="M1630.26 1873s-25.38-29-26.1-49.3 13-9.43 13-9.43 10.15-45 39.88-45 46.72 16 46.72 16 19.26-12.88 34.49-2.45 15.22 38.34 15.22 38.34 11.61-10.51 21 3.26 0 36.59 0 36.59 17.4 7.47 14.5 21.7a42.53 42.53 0 0 1-11.6 22s16.68 24.9 5.08 35-16.68 11-16.68 11 18.13 30.38 5.08 39.08-26.11-3-26.11-3-6 19.54-16 15.62-10.79-12.62-10.79-12.62-.1 14.08-14.19 7.77-16.81-17-16.81-17-10.33 19.2-16.86 6.25.73-27.45.73-27.45-22.48 13.74-24.66-3.65 13.59-33.77 13.59-33.77-35 2.76-35.55-11.45 14.71-24.32 14.71-24.32Z" style="fill:#3e9a83"></path>
    <path d="M1808.67 2394.83s-.17-.42-.52-1.24c2.51-.34.52 1.24.52 1.24Z" style="fill:#fff"></path>
    <path d="M1480.9 1923.8s-9.43-19.22 8.34-30.09 25.37 0 25.37 0-3.62-30.82 17-32.27 31.54 29 31.54 29 5.8-13.06 24.29-4 13.78 32.63 13.78 32.63 13 3.66 10.51 13.43-14.86 16.29-14.86 16.29 29.73 7.62 27.19 31.72-12 27-12 27 6.86 9.43-3.27 14.51-20.66 0-20.66 0-3.26 13.77-26.1 6.88-25-18.56-25-18.56-18.85 13.13-27.55 5.15-6.53-18.85-6.53-18.85-24.65 18.13-29 5.07 17.4-15.58 17.4-15.58-25.74 1.08-26.83-8 11.6-6.53 11.6-6.53-28.27-7.25-22.84-30.45 27.62-17.35 27.62-17.35Z" style="fill:#3e9a83"></path>
    <path d="M1627.36 1946.13s25 8.85 32.44-8.55-4.16-29-4.16-29 20.24 7.61 19.18-16.49-18.46-29.84-18.46-29.84 6.53-2.25 0-12.4-11.6 5.8-11.6 5.8 3.63-16-11.6-22.87-19.57 22.87-19.57 22.87-14.51-24.65-25.38-16-5.08 21.7-5.08 21.7-37.7-14.45-39.88 8 15.23 27.55 15.23 27.55-17.4 13.78-4.35 20.3 26.1-.72 26.1-.72-12.32 20.73-.72 29.58 27.63-24.22 27.63-24.22-12.22 28.14 1.83 28.79 15.28-16.75 15.28-16.75-4.64 10.45 3.11 12.25ZM2045.7 1976.36s-19.37-139.33-10-163 19.43-12.78 30.42 12.38.21 154.32.21 154.32Z" style="fill:#69bf8e"></path>
    <path d="M2052.13 1990.27c2.68-60.21 1.65-129.77 22.32-186.88a19.7 19.7 0 0 1 3.8-7.09c21.12-22.37 37.31 16.52 34.92 33.64-3.11 22.24-9.87 44.44-15.47 66.14-1.78 6.9-29.76 101.37-27.94 102.19Z" style="fill:#3e9a83"></path>
    <path d="M2054.22 2001.23s57.88-157.06 93.49-176.71 30.32 16.18 14.91 58.46-85.95 125.33-85.95 125.33Z" style="fill:#69bf8e"></path>
    <path d="M2108.08 1998c1.14 6.94-.08 18.77-2.86 33.38-.82 4.3-1.79 8.87-2.86 13.61-1.73 7.62-3.75 15.72-6 24.07-1.46 5.55-3 11.21-4.7 16.93-2.55 8.9-5.29 17.89-8.1 26.74-.71 2.22-1.43 4.42-2.13 6.6-.27.84-.54 1.69-.81 2.52-8.43 25.75-17.16 49.39-23.75 64.26-19.07 43-63.39 179.76-82.78 165.43s-13.83-138.53-8.13-185.9c0 0 19.15-197.42 54.61-208a68.33 68.33 0 0 1 12.7-2.42c33.14-2.94 70.59 17.01 74.81 42.78Z" style="fill:#fccd89"></path>
    <path d="M2083.56 2112.74c-1 3.07-2 6.11-2.94 9.12-19.42-6.37-38.21-13.39-40-17.23-2.73-5.79 25.9 2.66 42.94 8.11ZM2056.11 2183.58c-1 3.07-2 6.12-2.94 9.12-19.41-6.36-38.21-13.39-40-17.22-2.72-5.8 25.9 2.65 42.94 8.1ZM2037.4 2234.47q-1.47 4.61-2.94 9.11c-19.41-6.36-38.21-13.38-40-17.22-2.72-5.79 25.9 2.64 42.94 8.11ZM2096.36 2069.07c-1.46 5.55-3 11.21-4.7 16.93-17.52-6.77-42.86-18-41.34-25.76 1.55-7.96 28.27 2.07 46.04 8.83ZM2105.22 2031.39c-.82 4.3-1.79 8.87-2.86 13.61-18.18-6.64-50.24-19-55.16-25-5.36-6.57 37.99 5.55 58.02 11.39Z" style="fill:#f28c70"></path>
    <path d="M1827.5 2420.75c-.73-.14-1.47-.29-2.19-.46-77.77-17.81-48.89-164.11-45.14-216.07 18-249.22 74.88-479.92 151.25-473s49.57 264.88 31.45 403.31c-9.47 72.42-9.08 151.23-38 220-10.48 25-26.38 46.62-52.6 59.3-13.66 6.66-29.69 9.76-44.77 6.92Z" style="fill:#fccd89"></path>
    <g style="opacity:.56">
      <path d="M1930.38 2340.47q-2.54 7.13-5.47 14.11c-10.49 25-26.38 46.62-52.61 59.3-13.68 6.62-29.71 9.71-44.79 6.87-.74-.14-1.48-.29-2.21-.46-77.76-17.81-48.88-164.11-45.13-216.07 16-221.5 62.69-428.36 126.51-466.76-38.23 86.92-65.65 238.73-77.14 398.11-3.75 52-32.63 198.26 45.14 216.07.72.16 1.45.32 2.19.46 15.08 2.84 31.11-.26 44.8-6.87a99.18 99.18 0 0 0 8.71-4.76Z" style="fill:#f28c70"></path>
    </g>
    <g style="opacity:.56">
      <path d="M1849.93 1908a3.79 3.79 0 0 1-3.28-6.66c12-9.15 30.46-22.23 50-32.15 24-12.18 50-14.82 62.81-15.34a3.78 3.78 0 0 1 2.78 6.51c-9.76 9.37-37.16 27.64-112.31 47.64ZM1840.26 1988.5a3.78 3.78 0 0 1-3.28-6.65c12-9.16 30.46-22.24 50-32.16 24-12.18 50-14.82 62.81-15.34a3.78 3.78 0 0 1 2.78 6.51c-9.77 9.35-37.16 27.57-112.31 47.64ZM1831.9 2074.43a3.79 3.79 0 0 1-3.28-6.66c12-9.15 30.46-22.23 50-32.15 24-12.18 50-14.82 62.81-15.34a3.78 3.78 0 0 1 2.78 6.51c-9.76 9.35-37.16 27.57-112.31 47.64ZM1822.88 2173.38a3.78 3.78 0 0 1-3.29-6.65c12-9.16 30.47-22.24 50-32.15 24-12.19 50-14.82 62.81-15.34a3.78 3.78 0 0 1 2.78 6.51c-9.76 9.34-37.18 27.57-112.3 47.63ZM1813.12 2261a3.78 3.78 0 0 1-3.29-6.65c12-9.16 30.46-22.24 50-32.15 24-12.19 50-14.82 62.81-15.34a3.77 3.77 0 0 1 2.77 6.5c-9.75 9.35-37.15 27.58-112.29 47.64ZM1821.29 2338.33c-2.81.92-4.62-3.56-2.31-5.72 8.43-7.87 21.44-19.11 35.19-27.63 16.89-10.47 35.22-12.73 44.21-13.18 2.45-.12 3.73 3.52 2 5.59-6.91 8.04-26.19 23.69-79.09 40.94ZM1884.47 1826.94c-2.14.89-3.53-3.47-1.76-5.57 6.43-7.66 16.35-18.6 26.83-26.89a61.36 61.36 0 0 1 33.72-12.84c1.87-.11 2.84 3.43 1.49 5.45-5.24 7.82-19.94 23.06-60.28 39.85Z" style="fill:#f28c70"></path>
    </g>
    <ellipse cx="1661.21" cy="2321.44" rx="85.7" ry="86.13" style="fill:#3e9a83"></ellipse>
    <path d="M1656.67 2223s1.72-19.94 6.11-25.45 13.27-9.34 15.7-8.49 8.07 6.36 8.07 8.06-18.17 13.16-18.17 18.67.41 10.91 3.23 10.33 14.94-6.5 36.34 9.19 38 4 35.94 9.42-11 15.05-23.65 14.27-26.82-6.72-26.82-6.72 2.42 12.73 13.72 15.7 14.14 2.12 14.14 3.4-15.75 10.6-33.11 6.79a41.43 41.43 0 0 1-25.39-17.4s.76 8.09-19.43 13.38-40.78 3.2-35.54 0 19.39-4 25.44-10.84a55.76 55.76 0 0 0 9.29-15.27s-21.4 17.82-38.36 14-25.44-15.27-21.4-15.27 12.52 3.57 23.42-2 27.86-31.96 50.47-21.77Z" style="fill:#69bf8e"></path>
    <ellipse cx="1935.76" cy="2344.28" rx="62.57" ry="62.89" style="fill:#3e9a83" transform="rotate(-12.49 1935.279 2343.795)"></ellipse>
    <path d="M1917 2274.82s-1.93-14.48.33-19.11 8-8.75 9.85-8.53 6.76 3.27 7 4.48-10.88 12.24-10 16.17 2 7.71 3.93 6.86 9.62-7 27.35.81 27.69-3.14 27.11 1-5.43 12.46-14.6 13.91-20.19-.56-20.19-.56 3.74 8.7 12.27 9 10.41-.72 10.61.19-9.55 10-22.53 10.06a30.28 30.28 0 0 1-20.85-8.39s1.82 5.65-11.74 12.61-28.56 8.72-25.33 5.61 13.18-5.95 16.43-11.74a40.91 40.91 0 0 0 4.2-12.36s-12.44 16.08-25.13 16-20.54-6.87-17.67-7.51 9.49.57 16.38-5.15 14.83-27.03 32.58-23.35Z" style="fill:#69bf8e"></path>
    <path d="m2129.41 2066-4 27.95-4.41 30.25h-112.4l2.48-30.27 2-24.7-28.94-2.37-2.21 27.07-2.48 30.27h-144v-55.77h-29v55.77h-131.69l-2.48-30.27-2.22-27.07-28.93 2.37 2 24.7 2.48 30.27h-117.68l-4.36-30.27-4-27.95-28.72 4.14 3.43 23.81 40.53 281.45a71.77 71.77 0 0 0 70.67 61.22h438.06a71.76 71.76 0 0 0 70.66-61.22l40.54-281.45 3.43-23.81Zm-597.29 87.25H1648l7.87 96h-110Zm73.33 254.34a42.59 42.59 0 0 1-41.94-36.34l-13.4-93h108.16l10.59 129.35Zm201 0H1698l-10.61-129.35h119.07Zm0-158.38H1685l-7.88-96h129.32Zm149.79 158.38h-120.76v-129.37h131.37Zm13-158.38h-133.76v-96h141.61Zm116.22 122a42.58 42.58 0 0 1-41.93 36.34h-58.15l10.62-129.33h102.87Zm17.59-122h-104.69l7.86-96h110.62Z" style="fill:#fff"></path>
    <path d="m1519.54 2065.98 4.03 27.95h-29.32l-3.43-23.81 28.72-4.14zM1670.06 2066.86l2.22 27.07h-29.12l-2.03-24.7 28.93-2.37zM1806.45 2068.43h29.03v25.5h-29.03zM1984.17 2066.86l28.94 2.37-2.03 24.7h-29.12l2.21-27.07zM2158.14 2070.12l-3.43 23.81h-29.32l4.02-27.95 28.73 4.14z" style="fill:#638bba"></path>
    <path d="M2193 2047.75a23.3 23.3 0 0 1-23.32 23.32h-685.17a23.32 23.32 0 1 1 0-46.63h685.21a23.32 23.32 0 0 1 23.28 23.31Z" style="fill:#fff"></path>
    <circle cx="1672.28" cy="2047.42" r="17.48" style="fill:#638bba"></circle>
    <circle cx="1998.36" cy="2047.42" r="17.48" style="fill:#638bba"></circle>
    <path d="M1975.09 1899.72c-8.52-30.53-39.4-51.86-75.07-51.86h-129.09c-35.67 0-66.54 21.33-75.07 51.86l-36.12 129.39a14.84 14.84 0 0 0 11.15 18.5 14.84 14.84 0 0 0 17.45-10.52l36.59-131.09c5.23-18.71 24.14-31.78 46-31.78H1900c21.86 0 40.77 13.07 46 31.78l36.59 131.06a14.85 14.85 0 0 0 17.45 10.52 14.84 14.84 0 0 0 11.15-18.5Z" style="fill:#fff"></path>
    <path d="M1963.41 2026.44h-253.17a2 2 0 0 1 0-4h253.17a2 2 0 1 1 0 4ZM2114.18 2377.38h-.29a2 2 0 0 1-1.69-2.27l40.53-281.44a2 2 0 1 1 4 .57l-40.54 281.44a2 2 0 0 1-2.01 1.7ZM2116.84 2155.23h-584.72a2 2 0 0 1 0-4h584.72a2 2 0 0 1 0 4ZM2098.84 2280.22h-548.73a2 2 0 0 1 0-4h548.73a2 2 0 0 1 0 4Z" style="fill:#638bba"></path>
    <path d="M1987.2 2409.57H1667l-27.15-333.85a2 2 0 1 1 4-.33l26.84 330.18h312.82l27.6-336.5a2 2 0 0 1 2.15-1.83 2 2 0 0 1 1.83 2.16Z" style="fill:#638bba"></path>
    <path d="M1698 2409.57a2 2 0 0 1-2-1.86l-23.17-332.59a2 2 0 0 1 1.86-2.14 2 2 0 0 1 2.13 1.86l23.18 332.59a2 2 0 0 1-1.86 2.14ZM1806.45 2409.57a2 2 0 0 1-2-2v-333a2 2 0 0 1 4 0v333a2 2 0 0 1-2 2ZM1835.48 2409.57a2 2 0 0 1-2-2l-3.58-333.14a2 2 0 0 1 2-2 2 2 0 0 1 2 2l3.58 333.14a2 2 0 0 1-2 2ZM1956.24 2409.57h-.16a2 2 0 0 1-1.83-2.15l26.36-335.92a2 2 0 0 1 4 .32l-26.36 335.92a2 2 0 0 1-2.01 1.83Z" style="fill:#638bba"></path>
    <path d="M2103 2251.19h-557.1a2 2 0 1 1 0-4H2103a2 2 0 0 1 0 4ZM2121 2126.2h-593.07a2 2 0 0 1 0-4H2121a2 2 0 0 1 0 4Z" style="fill:#638bba"></path>
    <path d="M2062.07 1385.79h-.34a2.64 2.64 0 0 1-2.28-3c.1-.75 9.57-75.54-11.09-99.82-4-4.67-8.68-7-14.41-7.21a24.14 24.14 0 0 0-19 7.9c-24.1 24.88-19.73 98.56-19.68 99.3a2.64 2.64 0 0 1-5.27.34c-.2-3.13-4.55-76.77 21.15-103.32a29.54 29.54 0 0 1 23-9.49 24.21 24.21 0 0 1 18.27 9.06c22.17 26.06 12.72 100.75 12.3 103.92a2.63 2.63 0 0 1-2.65 2.32Z" style="fill:#8da5b7"></path>
    <path d="m1919.53 1592.82 35.63-226.06c1.1-7 7.92-12.14 16-12.14H2103c8.47 0 15.49 5.71 16.08 13.07l18.14 226.06c.66 8.13-6.73 15-16.08 15H1935.5c-9.77.04-17.3-7.49-15.97-15.93Z" style="fill:#cedbee"></path>
    <path d="m1894.64 1592.82 34.61-226.06c1.07-7 7.69-12.14 15.52-12.14h128.1c8.23 0 15.05 5.71 15.63 13.07l17.62 226.06c.63 8.13-6.55 15-15.62 15h-180.35c-9.49.04-16.8-7.49-15.51-15.93Z" style="fill:#aebfce"></path>
    <circle cx="1969.53" cy="1383.15" r="7.09" style="fill:#8da5b7"></circle>
    <circle cx="2037.48" cy="1383.15" r="7.09" style="fill:#8da5b7"></circle>
    <path d="M2039 1385.79h-.34a2.64 2.64 0 0 1-2.28-3c.1-.75 9.57-75.54-11.09-99.82-4-4.67-8.69-7-14.41-7.21-7.42-.24-13.64 2.35-19 7.9-24.09 24.88-19.72 98.56-19.67 99.3a2.64 2.64 0 0 1-5.27.34c-.2-3.13-4.55-76.77 21.15-103.32a29.54 29.54 0 0 1 23-9.49 24.21 24.21 0 0 1 18.27 9.06c22.17 26.06 12.72 100.75 12.3 103.92a2.63 2.63 0 0 1-2.66 2.32ZM1950.47 1385.79h-.34a2.64 2.64 0 0 1-2.28-3c.1-.75 9.57-75.54-11.09-99.82-4-4.67-8.69-7-14.41-7.21-7.42-.24-13.64 2.35-19 7.9-24.09 24.88-19.72 98.56-19.67 99.3a2.64 2.64 0 0 1-5.27.34c-.2-3.13-4.55-76.77 21.15-103.32a29.54 29.54 0 0 1 23-9.49 24.21 24.21 0 0 1 18.27 9.06c22.17 26.06 12.72 100.75 12.3 103.92a2.63 2.63 0 0 1-2.66 2.32Z" style="fill:#8da5b7"></path>
    <path d="m1807.93 1592.82 35.63-226.06c1.1-7 7.92-12.14 16-12.14h131.84c8.47 0 15.49 5.71 16.08 13.07l18.14 226.06c.65 8.13-6.73 15-16.08 15H1823.9c-9.77.04-17.3-7.49-15.97-15.93Z" style="fill:#cedbee"></path>
    <path d="m1783 1592.82 34.61-226.06c1.07-7 7.69-12.14 15.52-12.14h128.1c8.23 0 15 5.71 15.63 13.07l17.62 226.06c.63 8.13-6.55 15-15.63 15h-180.3c-9.49.04-16.8-7.49-15.55-15.93Z" style="fill:#aebfce"></path>
    <circle cx="1857.93" cy="1383.15" r="7.09" style="fill:#8da5b7"></circle>
    <circle cx="1925.88" cy="1383.15" r="7.09" style="fill:#8da5b7"></circle>
    <path d="M1927.37 1385.79h-.35a2.64 2.64 0 0 1-2.27-3c.1-.75 9.57-75.54-11.09-99.82-4-4.67-8.69-7-14.41-7.21-7.42-.24-13.64 2.35-19 7.9-24.09 24.88-19.72 98.56-19.67 99.3a2.64 2.64 0 0 1-5.27.34c-.2-3.13-4.55-76.77 21.15-103.32a29.52 29.52 0 0 1 23-9.49 24.21 24.21 0 0 1 18.27 9.06c22.17 26.06 12.72 100.75 12.3 103.92a2.63 2.63 0 0 1-2.66 2.32Z" style="fill:#8da5b7"></path>
    <path d="M1876.3 1385.79h-.34a2.64 2.64 0 0 1-2.28-3c.1-.75 9.57-75.54-11.09-99.82-4-4.67-8.68-7-14.41-7.21a24.14 24.14 0 0 0-19 7.9c-24.1 24.88-19.73 98.56-19.68 99.3a2.64 2.64 0 0 1-5.27.34c-.2-3.13-4.55-76.77 21.15-103.32a29.54 29.54 0 0 1 23-9.49 24.21 24.21 0 0 1 18.27 9.06c22.17 26.06 12.72 100.75 12.3 103.92a2.63 2.63 0 0 1-2.65 2.32Z" style="fill:#8da5b7"></path>
    <path d="m1733.76 1592.82 35.63-226.06c1.1-7 7.92-12.14 16-12.14h131.87c8.47 0 15.49 5.71 16.08 13.07l18.14 226.06c.65 8.13-6.73 15-16.08 15h-185.67c-9.73.04-17.3-7.49-15.97-15.93Z" style="fill:#cedbee"></path>
    <path d="m1708.87 1592.82 34.61-226.06c1.07-7 7.69-12.14 15.52-12.14h128.1c8.23 0 15.05 5.71 15.63 13.07l17.62 226.06c.63 8.13-6.55 15-15.63 15h-180.34c-9.49.04-16.8-7.49-15.51-15.93Z" style="fill:#aebfce"></path>
    <circle cx="1783.76" cy="1383.15" r="7.09" style="fill:#8da5b7"></circle>
    <circle cx="1851.71" cy="1383.15" r="7.09" style="fill:#8da5b7"></circle>
    <path d="M1853.2 1385.79h-.34a2.64 2.64 0 0 1-2.28-3c.1-.75 9.57-75.54-11.09-99.82-4-4.67-8.69-7-14.41-7.21-7.42-.24-13.64 2.35-19 7.9-24.09 24.88-19.72 98.56-19.67 99.3a2.64 2.64 0 0 1-5.27.34c-.2-3.13-4.55-76.77 21.15-103.32a29.54 29.54 0 0 1 23-9.49 24.21 24.21 0 0 1 18.27 9.06c22.17 26.06 12.72 100.75 12.3 103.92a2.63 2.63 0 0 1-2.66 2.32Z" style="fill:#8da5b7"></path>
    <path d="m660.32 1199.74 97 20.08 18.48-47.89s-27.45-20.78-22-63c2.2-17-11.35-32.28-28.84-42.53-26-15.25-60.69-19.35-65.39-1.12 0 0 22.62 49.7 11.68 92.07Z" style="fill:#ffb2a8"></path>
    <path d="M673 1081.86s22.79 71.94 68.19 95.4a42.46 42.46 0 0 0 4.38 2l30.26-7.29s-27.45-20.78-22-63c2.2-17-11.35-32.28-28.84-42.53-31.48 2.49-51.99 15.42-51.99 15.42Z" style="fill:#f27c85"></path>
    <path d="M621.69 1072.45a83.47 83.47 0 0 0 46 31.31l116-121.86s.23-68.74-64.87-87.7c-14.71 2.58-31.28 7.84-49.73 16.51-90.68 42.63-65.82 136.19-47.4 161.74Z" style="fill:#343468"></path>
    <path d="M633.28 1058.71c.46 10.81 23.65 19.24 23.65 19.24s12 29.67 16.92 39.09c3.85 7.26 51.33 15.6 77.09 17.3a.26.26 0 0 0 .15 0c17.86.33 13.75-14 21.53-25.28 8.07-11.73 15.35-42.11 15.81-44a.32.32 0 0 0 0-.09 75.5 75.5 0 0 0 .38-10.43c-1.1-20.39-8.89-29.06-3.05-41.43s-3.94-36.66-3.94-36.66l-24.08.55s-9.25 12.45-38.12 13.78-52.95-9-57-6.87 6.19 33.2 6.42 43.4 6.52 16.86-2.3 17.74-18.13-19.32-28.92-15.67-5 18.51-4.54 29.33Z" style="fill:#ffb2a8"></path>
    <ellipse cx="767.14" cy="1033.85" rx="5.53" ry="8.52" style="fill:#343a28" transform="rotate(-1.3 767.118 1033.945)"></ellipse>
    <ellipse cx="713.34" cy="1037.51" rx="5.53" ry="8.52" style="fill:#343a28" transform="rotate(-1.3 713.3 1037.742)"></ellipse>
    <path d="M753 1044c-5.41 9.92 6.49 11.55 8.5 19 1.31 4.86-2.79 5.21-4.54 8.55-1.37 2.62-4.92.12-3.55-2.5.86-1.63 4.06-3.45 3.51-5.57-.26-1-3-3.14-3.63-3.75a55.07 55.07 0 0 1-4-4.1c-3.44-4.34-2.37-9.56.14-14.16 1.41-2.59 5-.09 3.55 2.5Z" style="fill:#f27c85"></path>
    <path d="M777.07 1017.6c.54.27-4.6-5.78-8.06-6.31s-6.92-.85-7.89 1-1.93 4.31.1 4.26 10.72-1.47 15.85 1.05ZM718.37 1015.44s.87 3.68.1 4.71-4.81-.3-9.14 2.24-8.13 4.44-8.13 4.44 2.08-5.73 4.86-9 11.94-5.69 12.31-2.39Z" style="fill:#343a28"></path>
    <circle cx="763.19" cy="1028.3" r="2.88" style="fill:#fff"></circle>
    <circle cx="709.74" cy="1032.4" r="2.88" style="fill:#fff"></circle>
    <path d="M653.56 1052.23s-10.95-19.5-13.94-16.47-4.6 8.75-3.72 14.65 4.56 14 8.27 15.37 11.27.24 9.65-1.94-9.3-3.74-7.9-7.23 8.31-.44 7.64-4.38Z" style="fill:#f27c85"></path>
    <path d="M792.86 983.08s-68.72-9.27-108.13 9.65-56.12 30.32-67.81 33.34-17.93-5.61-18.72-9.6c0 0-23-99.32 47.19-123.25a99.81 99.81 0 0 1 27-5c102.54-5.62 115.45 42.63 118.2 64.4.54 4.25 1 8 1.27 11.25 1.28 13.6 1 19.21 1 19.21Z" style="fill:#6cc58d"></path>
    <path d="M792.86 983.08s-68.72-9.27-108.13 9.65-56.12 30.32-67.81 33.34-17.93-5.61-18.72-9.6c0 0-23-99.32 47.19-123.25-7.65 9.8-17.49 24.23-22.14 38.7-8.22 25.54 5.62 71 8 68.92s64.47-59.34 160.54-36.92c1.35 13.55 1.07 19.16 1.07 19.16Z" style="fill:#3e9a83"></path>
    <path d="M624.76 1023.22s49.31-47.62 82.72-54.58 83.94-2.95 90.66 1 29 20.27 26.38 25.52-51.46-16-87.17-9.14-55.68 36.84-80.44 39.91-32.15-2.71-32.15-2.71Z" style="fill:#abdda8"></path>
    <path d="M652.52 1076.12s15 35.34 18 34-13.59-32.12-13.59-32.12ZM655.33 1038.35s5.36-.67 8 2 17.67 24.13 17.67 24.13l-6.63.73Z" style="fill:#fff"></path>
    <path d="M791.63 1068.75c.68 2.71-17.57 59.94-25.39 66.63s-83.76-7.53-92.66-16.29c-4.41-4.35-7.37-13.27-8.77-22.62 2.49 2.23 17 14.48 16.41-2.17a62.92 62.92 0 0 0-9.08-30.62c7-3.18 16.44-1.61 16.44-1.61s36.6-3.3 56.3-4.58 46.06 8.57 46.75 11.26Z" style="fill:#fff"></path>
    <path d="M707.74 1077c23.24-12.7 49.41-5.72 73.34 2 1.47.48 1.81-2.09.35-2.57-24.32-7.88-51-14.8-74.6-1.9-1.35.74-.46 3.18.91 2.44ZM722.94 1086.73a174.36 174.36 0 0 1 53.37 5c1.5.38 1.85-2.19.35-2.57a176.29 176.29 0 0 0-54-5.06c-1.53.09-1.24 2.69.29 2.59ZM715.68 1101c19.64 2.16 39.25 7.28 59 4.3 1.51-.23 1.23-2.82-.29-2.59-19.49 2.94-38.9-2.14-58.32-4.28-1.52-.17-1.89 2.4-.36 2.57Z" style="fill:#cedbee"></path>
    <path d="M1029.65 1449c-2.47 6.61-109.26 13.1-125.69 0s-81.37-96.9-81.37-96.9v-161s16.06 14.81 27.41 25.9 64.69 148.29 72.08 152.39c3.39 1.87 26.2 6.29 50.44 11.08 28.7 5.67 59.4 11.89 62.08 15.08 4.91 5.88-2.49 46.88-4.95 53.45Z" style="fill:#6cc58d"></path>
    <g style="opacity:.74">
      <path d="M1029.65 1449c-2.47 6.61-109.26 13.1-125.69 0s-81.37-96.9-81.37-96.9v-52.27l20.89-28.75s51.44 132 57.2 138.13 37 21.9 43.53 24.29c4.21 1.53 18.51-30.09 28.26-53.07 28.7 5.67 59.4 11.89 62.08 15.08 4.96 5.92-2.44 46.92-4.9 53.49Z" style="fill:#3e9a83"></path>
    </g>
    <path d="M824.68 2355.9s-12.32 66.47-4.92 74.48 146.64 9.85 151.56 6.16-1.23-17.87-17.25-27.73-57.91-23.41-68.39-31.42-8-21.49-8-21.49Z" style="fill:#343468"></path>
    <path d="M909.71 2033.59c-7.39 46.82-24.64 313-32 322.31-5.94 7.49-30.2 8.86-44.61 4.35a22.34 22.34 0 0 1-8.38-4.35c-9.85-9.17-8.62-268.09-13.55-281.65s-54.22-215.65-57.92-221.81-65.31 210.72-85 231.67S482.11 2335.49 471 2335.49c-6.36 0-19.62-11.35-30.46-22a223.25 223.25 0 0 1-16.36-17.47c-3.7-4.93 144.17-263.71 145.05-282.19s29.93-377.08 29.93-377.08l305.6-6.16s12.34 356.17 4.95 403Z" style="fill:#2c4fa0"></path>
    <g style="opacity:.54">
      <path d="M844.4 2101.36c1.53 6.12-5.67 150.45-11.34 258.89a22.34 22.34 0 0 1-8.38-4.35c-9.85-9.17-8.62-268.09-13.55-281.65s-54.22-215.65-57.92-221.81c0 0 34.91-124 34.91-119.12s9.45 190.59 15.62 206.61 38.2 151.57 40.66 161.43Z" style="fill:#273657"></path>
    </g>
    <g style="opacity:.54">
      <path d="M904.78 1630.63C804.22 1735.88 641.24 1675 641.24 1675s-40.67 343.85-40.67 351.25c0 6-116.21 210.42-160 287.25a223.25 223.25 0 0 1-16.36-17.47c-3.7-4.93 144.17-263.71 145.05-282.19s29.93-377.08 29.93-377.08Z" style="fill:#273657"></path>
    </g>
    <path d="M424.2 2296.06s-38.2 40.66-33.28 49.94 41.9 45 76.41 64.69 50.52 19.72 63.46 19.72 11.7-12.94 6.78-19.1-66.57-75.82-66.57-75.82Z" style="fill:#343468"></path>
    <path d="M904.78 1630.63c-3.76 4.32-13 11.07-27.66 18-26.3 12.46-69.91 25.56-130.07 26.34-93.65 1.24-147.87-27.11-147.87-38.2 0-4.63 3-23.5 6.52-48 4.89-34.12 10.73-79.19 10.73-112.18 0-30.67-24.6-83.82-47.18-126.16-19.14-35.92-36.85-64.06-36.85-64.06s16.66-32 30.64-44.32 74.25-49.29 88.47-55.87 18.31-7.39 18.31-7.39 69.42 33.69 84 33.69 13.76-41.9 16.23-42.73 43.45 12.33 52.53 21.36 52 189.89 67.4 284.25q.54 3.32 1.08 6.56c14.78 90.08 23.99 136.91 13.72 148.71Z" style="fill:#6cc58d"></path>
    <g style="opacity:.74">
      <path d="M904.78 1630.63c-3.76 4.32-13 11.07-27.66 18-4.67-31.47-11.2-72.07-15.1-80.86-6.53-14.79-124.83 8.62-169.19 0s-60.38-17.26-60.38-17.26l-26.74 38.25c4.89-34.12 10.73-79.19 10.73-112.18 0-30.67-24.6-83.82-47.18-126.16 20.64-13 39.31-18.61 51.06-15.06 0 0 107 114.11 133.52 119 23.17 4.31 114.6 22.91 137.24 27.51 14.76 90.13 23.97 136.96 13.7 148.76Z" style="fill:#3e9a83"></path>
    </g>
    <path d="M637.05 1194s27.23-28.54 30.73-26.9 82.15 41.28 85 41.28 11.09-50.11 13.56-50.11 23.85 17.16 25.67 17.82-20.74 52.42-25.26 52-13.15-14-15.61-11.09-14.79 21-17.66 21-96.43-44-96.43-44Z" style="fill:#abdda8"></path>
    <path d="M751.16 1217s15 53.81 20.23 79.69 5.85 38.2 5.85 39.43c0 .31-.44.56-1.11.76a5.54 5.54 0 0 1-7-4.36c-3.18-16.64-13.3-68.84-18-84.82-5.65-19.1-6.53-22-6.53-22Z" style="fill:#abdda8"></path>
    <circle cx="728.16" cy="1271.12" r="7.39" style="fill:#abdda8"></circle>
    <circle cx="739.19" cy="1315.94" r="7.39" style="fill:#abdda8"></circle>
    <path d="m964.22 1421.84 42.78 192.49a12.64 12.64 0 0 0 14.61 9.54l270.33-50.26a11.64 11.64 0 0 0 9.38-14l-42.74-192.5a12.66 12.66 0 0 0-14.61-9.54l-270.33 50.27a11.63 11.63 0 0 0-9.42 14Z" style="fill:#f9b78a"></path>
    <path d="m1090.59 1398.34 42.74 192.5a11.62 11.62 0 0 1-9.38 14l-102.37 19a12.64 12.64 0 0 1-14.61-9.54l-42.74-192.49a11.63 11.63 0 0 1 9.38-14l102.37-19a12.65 12.65 0 0 1 14.61 9.53Z" style="fill:#ea8165"></path>
    <path d="m1039.69 1395.55 48 216-66.08 12.28a12.64 12.64 0 0 1-14.61-9.54l-42.74-192.49a11.63 11.63 0 0 1 9.38-14ZM1076 1388.8a13 13 0 0 1 3.56-.15 12 12 0 0 1 1.2.19 12.59 12.59 0 0 1 5.29 2.41 12.2 12.2 0 0 1 4.56 7.09l13.08 58.88c.48 2.19 12 23.7 19 36.57a15.08 15.08 0 0 0 15.95 7.6l143.84-26.74-23.87-107.54a12.66 12.66 0 0 0-14.61-9.54Z" style="fill:#ef997b"></path>
    <path d="m1090.59 1398.34 13.08 58.88c-.48-2.16.7 22.7 1.48 38.25a13.84 13.84 0 0 1-11.45 14.27l-105.6 19.63-23.87-107.53a11.63 11.63 0 0 1 9.38-14l102.37-19a12.65 12.65 0 0 1 14.61 9.5Z" style="fill:#ea8165"></path>
    <path d="M965.27 1505.26c2.36 4 6.18 6.47 10 5.77l103.67-19.27c4-.75 6.76-5 6.78-10.4l.38-94.43-119.4 22.19c-4.19.78-7 5.36-6.76 11.09l3 77a17.21 17.21 0 0 0 2.33 8.05Z" style="fill:#f9b78a"></path>
    <path d="M965.27 1505.26c2.36 4 6.18 6.47 10 5.77l103.67-19.27c4-.75 6.76-5 6.78-10.4l.38-94.43-5.3 1-1.16 87.45c-.06 5.16-2.7 9.14-6.51 9.85Z" style="fill:#ef997b"></path>
    <path d="m1079.27 1388.19.27.46 1.18 2.08 5.28 9.27 8.14 14.29 33.71 59.22a13.44 13.44 0 0 0 14.06 6.52l143.89-26.75a12.31 12.31 0 0 0 8.88-17.72l-35.35-71a13.45 13.45 0 0 0-14.41-7.16Z" style="fill:#fccd89"></path>
    <path d="m1079.27 1388.19.27.46 1.18 2.08 5.28 9.27 8.14 14.29 33.71 59.22a13.44 13.44 0 0 0 14.06 6.52l143.89-26.75a12.36 12.36 0 0 0 9.93-9.48l-149.63 27.83a12.94 12.94 0 0 1-13.45-6.15l-46-78.67Z" style="fill:#f9b78a"></path>
    <path d="m1245.49 1561.92-50.37 9.37c-12 2.23-23.72-4.87-26.15-15.85l-5.27-23.7c-2.44-11 5.32-21.7 17.32-23.93l50.38-9.36c12-2.24 23.71 4.86 26.15 15.84l5.26 23.7c2.44 11.01-5.32 21.7-17.32 23.93Z" style="fill:#ef997b"></path>
    <path d="m1253.31 1560.47-50.37 9.36c-12 2.23-23.72-4.86-26.15-15.85l-5.27-23.69c-2.43-11 5.32-21.7 17.32-23.93l50.38-9.37c12-2.23 23.71 4.87 26.15 15.85l5.26 23.7c2.44 10.98-5.32 21.69-17.32 23.93Z" style="fill:#fccd89"></path>
    <path d="m1088.49 1591.11-40.12 7.46c-12 2.23-23.71-4.86-26.15-15.85L1017 1559c-2.44-11 5.31-21.7 17.32-23.93l40.12-7.46c12-2.23 23.71 4.86 26.15 15.84l5.26 23.7c2.4 11.02-5.36 21.73-17.36 23.96Z" style="fill:#ef997b"></path>
    <path d="m1079.27 1592.83-40.12 7.46c-12 2.23-23.71-4.87-26.15-15.85l-5.26-23.7c-2.44-11 5.31-21.7 17.31-23.93l40.12-7.46c12-2.23 23.71 4.87 26.15 15.85l5.26 23.7c2.42 10.98-5.31 21.69-17.31 23.93Z" style="fill:#f9b78a"></path>
    <path d="M1175.32 1468.93a3.45 3.45 0 0 0-2.49 5c2.67 5.34 7.43 13.94 10.36 13.9 4.24-.06 59.87-10.41 61.16-12.1 1-1.29-4.44-10.59-7.07-14.92a3.75 3.75 0 0 0-3.89-1.74l-.41.07a3.46 3.46 0 0 0-2.54 4.86c1.48 3.26 3 7.43 1.67 8.28-2.27 1.43-41.38 8.68-43.19 8-1.28-.46-4.65-6.53-6.5-10a3.74 3.74 0 0 0-4-1.92Z" style="fill:#fccd89"></path>
    <path d="M1297.4 1544.12a2 2 0 0 1-2-1.57l-15-67.47a2 2 0 0 1 3.91-.87l15 67.48a2 2 0 0 1-1.52 2.38 1.65 1.65 0 0 1-.39.05ZM1097 1386.89a2 2 0 0 1-.36-4l124-23.06a2 2 0 1 1 .73 3.93l-124 23.06a1.55 1.55 0 0 1-.37.07ZM1171 1469a2 2 0 0 1-2-1.64 2 2 0 0 1 1.6-2.33l113.65-21.13a2 2 0 0 1 .73 3.93L1171.32 1469a2.46 2.46 0 0 1-.32 0ZM1294.68 1437.57a2 2 0 0 1-1.79-1.11l-35.35-71a2 2 0 1 1 3.58-1.78l35.35 71a2 2 0 0 1-.9 2.68 2 2 0 0 1-.89.21ZM1181 1509.81a2 2 0 0 1-.35-4l63.45-11.23a2 2 0 1 1 .7 3.94l-63.45 11.23Z" style="fill:#ef997b"></path>
    <path d="m915.46 1675.03 130.81-30.33 3.57 20.66L915.46 1698v-22.97zM1002.47 2027.07l130.81-30.34 3.57 20.66-134.38 32.64v-22.96zM1033.85 2173.84l130.81-30.34 3.57 20.66-134.38 32.64v-22.96z" style="fill:#527ba3"></path>
    <path d="M767.38 1529.89s15.41-3.38 23.73-1.84 39.43 20 29.57-9.55 1.85-27.11-13.56-28-81.33-2.5-39.74 39.39Z" style="fill:#ffb2a8"></path>
    <path d="M772.81 1521.92c1.22 8.94 1.4 16-.41 17.31-5.19 3.81-144.77-7.91-170.23-20.19-23.21-11.18-72.17-143.3-73.29-219a26.54 26.54 0 0 1 10.36-21.5 26.87 26.87 0 0 1 11.47-5.14c19.95-3.77 48.72-2.43 60.3 31.52 18.57 54.32 33.68 141.75 49.67 152.33s107.74 15.57 112.52 23.91a8.57 8.57 0 0 1 .88 3.52 73.12 73.12 0 0 1-.63 11.4c-.79 7.73-1.85 17.14-.64 25.84Z" style="fill:#6cc58d"></path>
    <path d="M772.81 1521.92c1.21 8.93 1.41 16-.41 17.31-5.18 3.81-144.77-7.9-170.23-20.19-23.21-11.18-72.17-143.3-73.3-219a26.59 26.59 0 0 1 10.37-21.5c-4 10.51-5.74 25.06-1.72 44.92 11.41 56.39 70.4 185.42 83.2 182.37s15.28 1.54 21.65 4.6c5.26 2.57 98.21 9.24 130.44 11.49Z" style="fill:#3e9a83;opacity:.68"></path>
    <path d="M1068.18 2355.9a13.57 13.57 0 0 1-13.2-10.54l-186.63-816a11.61 11.61 0 0 0-11.91-9l-60.65 3.05a13.56 13.56 0 0 1-1.36-27.08l60.65-3a38.67 38.67 0 0 1 39.69 30l186.64 816a13.55 13.55 0 0 1-10.2 16.23 13.11 13.11 0 0 1-3.03.34Z" style="fill:#4e5d7a"></path>
    <path d="M861.65 1531.13c-1.85.92-3.39 1.23-6.77 0s-5.55-5.24-5.55-5.24.92 8-3.08 8-4.93 4.31-8.63 0c-3.51-4.09-5.34-6.52-5.53-6.75.12.51 2 8.44-1.86 8.67s-6.16.85-8.63-1.92-.24-1.54-6.43-9.86-9.28-12.63-12-18.48a62 62 0 0 1-3.73-9.48h-25.99a73.12 73.12 0 0 0 .63-11.4c14.86-.6 53.76-2.11 60.46-1.61 8.32.61 21.57 19.41 22.49 20.64s6.47 26.5 4.62 27.43Z" style="fill:#ffb2a8"></path>
    <path d="M832.44 1529.58a.62.62 0 0 1-.59-.42c-.06-.19-6.48-19.1-11.39-27a.62.62 0 0 1 .2-.85.62.62 0 0 1 .85.19c5 8 11.25 26.45 11.51 27.23a.62.62 0 0 1-.38.79ZM849.33 1526.51a.62.62 0 0 1-.6-.47c-2.41-9.64-11.53-23.7-11.62-23.84a.62.62 0 0 1 .18-.86.62.62 0 0 1 .85.18c.38.59 9.33 14.37 11.79 24.22a.63.63 0 0 1-.45.75Z" style="fill:#f27c85"></path>
    <path d="m1452.65 2213.66-173.85 53.38-14.34-72.37 175.6-51.17 12.59 70.16z" style="fill:#fff"></path>
    <path d="m1452.65 2213.66-173.85 53.38-151.38 46.49-154.44-690.18 33.6-5.84 138.74-24.11 190.01-33.01 104.73 583.11 12.59 70.16z" style="fill:#fccd89"></path>
    <path d="m1278.8 2267.04-151.38 46.49-154.44-690.18 33.6-5.84 138.74-24.11 119.14 601.27 14.34 72.37z" style="fill:#f9b78a"></path>
    <path d="m1196.82 1584.46 45.18 216.23a12.93 12.93 0 0 0 16.53 9.69l17-5.35a12.91 12.91 0 0 0 8.77-15l-45.59-212.81Z" style="fill:#fff"></path>
    <path d="m1026.17 1648.86 83-17.18a5.26 5.26 0 0 1 6.19 4l1.81 7.94a5.27 5.27 0 0 1-3.88 6.28l-81.41 19.85a5.26 5.26 0 0 1-6.25-3.48l-3.45-10.61a5.26 5.26 0 0 1 3.99-6.8Z" style="fill:#fccd89"></path>
    <path d="m1278.8 2267-151.38 46.49L973 1623.35l33.6-5.84 119.81 566.87a45.11 45.11 0 0 0 56.77 34l81.3-23.69ZM1252.23 2136a3 3 0 0 1-2.94-2.42l-95.55-482.24a3 3 0 1 1 5.88-1.17l95.56 482.25a3 3 0 0 1-3 3.58ZM1393.83 1889.14a3 3 0 0 1-2.95-2.47l-52.58-292.73a3 3 0 1 1 5.91-1.06l52.57 292.73a3 3 0 0 1-2.42 3.48 2.44 2.44 0 0 1-.53.05Z" style="fill:#ef997b"></path>
    <path d="M1278.8 2270a3 3 0 0 1-.88-5.87l171.31-52.6-43.4-241.63a3 3 0 0 1 5.91-1.06l44.33 246.86-176.39 54.17a3 3 0 0 1-.88.13ZM1006.58 1620.51a3 3 0 0 1-.51-6l328.74-57.11a3 3 0 1 1 1 5.91l-328.75 57.11a2.21 2.21 0 0 1-.48.09Z" style="fill:#ef997b"></path>
    <path d="M1096.55 2323 1456 2212.63a17.29 17.29 0 0 1 21.74 11.9 17.3 17.3 0 0 1-11.52 21.14L1107 2357.46a17.29 17.29 0 0 1-22.12-13.29l-.27-1.41a17.29 17.29 0 0 1 11.94-19.76Z" style="fill:#638bba"></path>
    <circle cx="1071.32" cy="2355.82" r="81.95" style="fill:#4e5d7a"></circle>
    <circle cx="1071.32" cy="2355.82" r="42.29" style="fill:#fff"></circle>
    <circle cx="1071.32" cy="2355.82" r="13.06" style="fill:#4e5d7a"></circle>
    <path d="M1522.58 959.9a156.24 156.24 0 0 0-156.25 156.24c0 64 86.05 216.91 130.43 291.51a30 30 0 0 0 51.63 0c44.38-74.6 130.43-227.47 130.43-291.51a156.24 156.24 0 0 0-156.24-156.24Zm0 220.45a70.63 70.63 0 1 1 70.63-70.63 70.64 70.64 0 0 1-70.63 70.63Z" style="fill:#69bf8e"></path>
  </g>
</svg>
