<svg xmlns="http://www.w3.org/2000/svg" width="2752.684" height="2474.45" viewBox="123.658 260.525 2752.684 2474.45" id="man-delivering-food-using-bicycle">
  <g id="ground">
    <path d="M312.76 1834a7.7 7.7 0 0 1-7.05-4.62c-4.27-9.83-8.34-20-12.09-30.12A7.69 7.69 0 0 1 308 1794a564.89 564.89 0 0 0 11.77 29.31 7.69 7.69 0 0 1-4 10.11 7.58 7.58 0 0 1-3.01.58ZM2456.33 2443.83a7.69 7.69 0 0 1-3.13-14.71 360.17 360.17 0 0 0 54.38-30 7.69 7.69 0 1 1 8.57 12.76 376.47 376.47 0 0 1-56.7 31.3 7.64 7.64 0 0 1-3.12.65ZM2561 2373.1a7.68 7.68 0 0 1-5.4-13.15 298.17 298.17 0 0 0 39.29-47.7 7.69 7.69 0 0 1 12.83 8.47 313.62 313.62 0 0 1-41.32 50.16 7.67 7.67 0 0 1-5.4 2.22Zm69-105.47a7.84 7.84 0 0 1-2.63-.46 7.68 7.68 0 0 1-4.59-9.85 267.73 267.73 0 0 0 14.17-60 7.69 7.69 0 0 1 15.27 1.8 283.37 283.37 0 0 1-15 63.4 7.68 7.68 0 0 1-7.22 5.11Zm14.77-125.05a7.68 7.68 0 0 1-7.62-6.82 248.93 248.93 0 0 0-14.28-59.77 7.69 7.69 0 0 1 14.38-5.43 263.59 263.59 0 0 1 15.17 63.47 7.69 7.69 0 0 1-6.77 8.5c-.35.03-.65.05-.93.05Zm-44.95-117.23a7.68 7.68 0 0 1-6.17-3.09 206.64 206.64 0 0 0-13.88-16.71 272.74 272.74 0 0 0-29.26-27 7.69 7.69 0 0 1 9.66-12 287.09 287.09 0 0 1 30.88 28.52 224.16 224.16 0 0 1 14.93 18 7.68 7.68 0 0 1-6.16 12.28Zm-95.97-82.35a7.59 7.59 0 0 1-4.36-1.37c-17.9-12.36-35.3-24.61-51.48-38.5a7.69 7.69 0 1 1 10-11.67c15.61 13.41 32.66 25.4 50.21 37.53a7.69 7.69 0 0 1-4.38 14Zm-92.57-85.61a7.69 7.69 0 0 1-6.49-3.56c-13.17-20.66-21.1-41.54-23.57-62.07a7.69 7.69 0 0 1 15.26-1.84c2.19 18.22 9.35 37 21.28 55.65a7.69 7.69 0 0 1-6.48 11.82ZM282.17 1743.64a7.68 7.68 0 0 1-7.45-5.83 609.83 609.83 0 0 1-12.18-63.14 7.69 7.69 0 1 1 15.23-2.11 592.65 592.65 0 0 0 11.86 61.54 7.67 7.67 0 0 1-5.6 9.31 7.46 7.46 0 0 1-1.86.23Zm2118.76-6.35a7.69 7.69 0 0 1-6.75-11.35c7.61-14 17.61-26.89 27.28-39.3 3.38-4.34 6.88-8.83 10.2-13.27a7.68 7.68 0 1 1 12.31 9.2c-3.41 4.57-6.95 9.12-10.38 13.52-9.71 12.46-18.89 24.24-25.89 37.17a7.69 7.69 0 0 1-6.77 4.03Zm65.56-107.8a7.87 7.87 0 0 1-1.91-.24 7.68 7.68 0 0 1-5.54-9.36 140.83 140.83 0 0 0 4.3-35 158 158 0 0 0-2-25 7.69 7.69 0 0 1 15.18-2.43 175.55 175.55 0 0 1 2.21 27.38 156.75 156.75 0 0 1-4.79 38.77 7.7 7.7 0 0 1-7.45 5.88Zm-2201.77-11.44a7.68 7.68 0 0 1-7.67-7.43c-.25-7.07-.37-14.25-.37-21.34 0-14.26.49-28.69 1.47-42.92a7.68 7.68 0 1 1 15.33 1.05c-1 13.88-1.43 28-1.43 41.87 0 6.91.12 13.92.36 20.82a7.69 7.69 0 0 1-7.41 7.9Zm1579.52-33.27c-3.56 0-7.29-.09-11.09-.27a7.68 7.68 0 1 1 .7-15.35c3.57.16 7.06.24 10.39.24 15.88 0 29.62-1.84 42-5.64 2.33-.72 4.7-1.53 7-2.42a7.69 7.69 0 0 1 5.44 14.38c-2.65 1-5.33 1.92-8 2.73-13.79 4.26-29.01 6.33-46.44 6.33Zm-73.68-8.23a8 8 0 0 1-1.44-.14 597.37 597.37 0 0 1-62.33-15.39 7.68 7.68 0 1 1 4.47-14.7 584.76 584.76 0 0 0 60.72 15 7.69 7.69 0 0 1-1.42 15.24Zm179.62-33a7.69 7.69 0 0 1-4.71-13.77c4.54-3.5 9.12-7.14 13.55-10.66l4.8-3.81c11.27-8.92 21.75-16.94 32-24.51a7.69 7.69 0 0 1 9.11 12.38c-10.13 7.46-20.47 15.37-31.6 24.18l-4.78 3.8c-4.47 3.55-9.09 7.22-13.71 10.79a7.65 7.65 0 0 1-4.66 1.55Zm-300.9-3.49a7.65 7.65 0 0 1-2.91-.57c-19-7.8-38.63-16.78-58.28-26.69a7.69 7.69 0 1 1 6.91-13.8c19.29 9.73 38.53 18.54 57.18 26.18a7.69 7.69 0 0 1-2.92 14.8Zm798.93-33.27a7.67 7.67 0 0 1-6.74-4 175.09 175.09 0 0 0-37.76-47.33 7.69 7.69 0 1 1 10.15-11.55 190.73 190.73 0 0 1 41.08 51.47 7.68 7.68 0 0 1-6.73 11.39Zm-2174.84-15.26a8.37 8.37 0 0 1-1.31-.11 7.69 7.69 0 0 1-6.27-8.88 625.9 625.9 0 0 1 14.14-62.71 7.69 7.69 0 0 1 14.8 4.16 609.26 609.26 0 0 0-13.79 61.15 7.69 7.69 0 0 1-7.57 6.39Zm1262.44-8.37a7.67 7.67 0 0 1-3.87-1.05c-17.59-10.29-35.36-21.28-54.33-33.6a7.68 7.68 0 0 1 8.37-12.89c18.77 12.18 36.34 23.05 53.72 33.22a7.69 7.69 0 0 1-3.89 14.32ZM2053 1469a7.68 7.68 0 0 1-4-14.23 545 545 0 0 1 56.64-30.63 7.68 7.68 0 0 1 6.45 14 529.57 529.57 0 0 0-55 29.77 7.69 7.69 0 0 1-4.09 1.09Zm302-45a7.7 7.7 0 0 1-3-.62 235.19 235.19 0 0 0-59.13-16.28 7.69 7.69 0 0 1 2.18-15.22 251.31 251.31 0 0 1 63 17.36 7.69 7.69 0 0 1-3 14.76Zm-186.83-7.46a7.69 7.69 0 0 1-2.09-15.08q3.06-.87 6.13-1.68a323.22 323.22 0 0 1 57.78-9.85 7.69 7.69 0 0 1 1.18 15.33 308 308 0 0 0-55 9.37q-2.94.78-5.87 1.62a7.72 7.72 0 0 1-2.1.29Zm-739.08-2.32a7.67 7.67 0 0 1-4.39-1.38c-15.67-10.92-32.64-23-51.87-37a7.69 7.69 0 0 1 9-12.44c19.15 13.91 36 25.95 51.63 36.82a7.69 7.69 0 0 1-4.4 14Zm-1121.42-44.76a7.69 7.69 0 0 1-7.14-10.53 590.57 590.57 0 0 1 27-58.38 7.68 7.68 0 1 1 13.57 7.21 579.93 579.93 0 0 0-26.3 56.85 7.7 7.7 0 0 1-7.13 4.85Zm1018.45-29.73a7.68 7.68 0 0 1-4.56-1.5l-4.3-3.17c-15.35-11.32-31.23-23-46.86-34.43a7.69 7.69 0 1 1 9.06-12.42c15.66 11.43 31.55 23.15 46.92 34.48l4.3 3.17a7.68 7.68 0 0 1-4.56 13.87Zm-102.8-74.67a7.59 7.59 0 0 1-4.41-1.4c-18.71-13.16-35.8-24.83-52.26-35.67a7.68 7.68 0 1 1 8.46-12.83c16.59 10.93 33.81 22.68 52.64 35.93a7.68 7.68 0 0 1-4.43 14Zm-856.13-7.53a7.69 7.69 0 0 1-6.33-12 452.94 452.94 0 0 1 40.11-50.6 7.69 7.69 0 1 1 11.29 10.43 436.8 436.8 0 0 0-38.73 48.88 7.66 7.66 0 0 1-6.34 3.29Zm749.92-62.1a7.6 7.6 0 0 1-3.93-1.09c-18.77-11.2-37.29-21.55-55-30.76a7.68 7.68 0 1 1 7.08-13.64c18 9.34 36.79 19.84 55.83 31.2a7.69 7.69 0 0 1-4 14.29Zm-663.38-30.1a7.68 7.68 0 0 1-4.56-13.88 285.45 285.45 0 0 1 26.07-17.06 296.88 296.88 0 0 1 30.43-15.27 7.68 7.68 0 1 1 6.11 14.1 283.39 283.39 0 0 0-28.85 14.48 270.65 270.65 0 0 0-24.66 16.14 7.64 7.64 0 0 1-4.54 1.49Zm550.57-28a7.77 7.77 0 0 1-3-.61c-19.72-8.4-39.49-15.78-58.76-22a7.69 7.69 0 1 1 4.69-14.64c19.71 6.31 39.93 13.86 60.09 22.44a7.69 7.69 0 0 1-3 14.76Zm-435.4-23.56a7.69 7.69 0 0 1-1.89-15.14c18.26-4.64 38.24-8.71 62.86-12.79a7.68 7.68 0 1 1 2.51 15.16c-24.18 4-43.75 8-61.59 12.53a7.71 7.71 0 0 1-1.89.22ZM883.56 1099a7.51 7.51 0 0 1-1.56-.16 536.54 536.54 0 0 0-60.27-8.89l-1.55-.13a7.69 7.69 0 0 1 1.31-15.32l1.61.14a550.92 550.92 0 0 1 62 9.15 7.68 7.68 0 0 1-1.54 15.21ZM694 1092.35a7.69 7.69 0 0 1-.81-15.33c22.63-2.44 43.56-3.87 64-4.38a7.69 7.69 0 0 1 .38 15.37c-20 .49-40.51 1.9-62.71 4.29a7.89 7.89 0 0 1-.86.05ZM2364.51 2471.59a7.69 7.69 0 0 1-1.27-15.27 368.78 368.78 0 0 0 30.68-6.54 7.69 7.69 0 1 1 3.83 14.89c-10.52 2.71-21.27 5-31.94 6.81a8.25 8.25 0 0 1-1.3.11ZM1312.82 567.54a7.65 7.65 0 0 1-5.46-2.28 184.11 184.11 0 0 1-21.24-25.76 7.69 7.69 0 1 1 12.71-8.65 168.67 168.67 0 0 0 19.45 23.6 7.69 7.69 0 0 1-5.46 13.09ZM1462.12 1276.94a7.69 7.69 0 0 1-5.07-13.47c14.7-12.85 31.6-25.22 51.69-37.82a7.69 7.69 0 0 1 8.17 13c-19.39 12.16-35.66 24.06-49.74 36.37a7.61 7.61 0 0 1-5.05 1.92Zm105.4-68.11a7.69 7.69 0 0 1-3.58-14.49 2264.34 2264.34 0 0 1 56.23-28.62 7.68 7.68 0 1 1 6.78 13.79c-18.67 9.18-37.47 18.75-55.85 28.43a7.68 7.68 0 0 1-3.58.89Zm112.85-55.5a7.68 7.68 0 0 1-3.2-14.67c19-8.72 38.46-17.29 57.72-25.48a7.69 7.69 0 1 1 6 14.15 2281.66 2281.66 0 0 0-57.33 25.3 7.61 7.61 0 0 1-3.19.7Zm115.74-49.19a7.68 7.68 0 0 1-2.81-14.84 2399.81 2399.81 0 0 1 59-22.26 7.69 7.69 0 0 1 5.22 14.46c-19.55 7.07-39.28 14.51-58.64 22.11a7.77 7.77 0 0 1-2.77.53Zm118.27-42.74a7.68 7.68 0 0 1-2.41-15c18.09-6 36.51-11.81 54.74-17.34l5.43-1.63a7.68 7.68 0 1 1 4.42 14.72l-5.39 1.63c-18.12 5.48-36.41 11.27-54.38 17.21a7.5 7.5 0 0 1-2.41.41Zm120.26-36.79a7.69 7.69 0 0 1-2.21-15c24.15-7.28 42.5-13.2 59.49-19.22a7.68 7.68 0 1 1 5.12 14.49c-17.22 6.1-35.78 12.1-60.18 19.45a7.76 7.76 0 0 1-2.22.28Zm118.12-42.89a7.68 7.68 0 0 1-3.25-14.65 452.64 452.64 0 0 0 40.14-21.13c4.66-2.77 9.32-5.7 13.85-8.7a7.68 7.68 0 1 1 8.49 12.81c-4.73 3.14-9.6 6.2-14.48 9.1-12.85 7.65-26.82 15-41.5 21.85a7.67 7.67 0 0 1-3.25.72Zm103.86-69.84a7.69 7.69 0 0 1-5.38-13.17 268.64 268.64 0 0 0 38.57-47.25 7.68 7.68 0 1 1 13 8.24 283.83 283.83 0 0 1-40.77 50 7.66 7.66 0 0 1-5.42 2.18Zm65.64-105.63a7.79 7.79 0 0 1-2.11-.3 7.68 7.68 0 0 1-5.28-9.5 182.08 182.08 0 0 0 6.19-32.77 178.26 178.26 0 0 0 .52-26.89 7.68 7.68 0 1 1 15.34-.85c.2 3.61.31 7.28.31 10.9 0 6.09-.29 12.24-.86 18.28a197.31 197.31 0 0 1-6.72 35.54 7.69 7.69 0 0 1-7.39 5.59ZM2316 682.86a7.7 7.7 0 0 1-7.2-5 252.41 252.41 0 0 0-28.47-53.82 7.69 7.69 0 0 1 12.67-8.71 268.24 268.24 0 0 1 30.19 57.11 7.68 7.68 0 0 1-4.49 9.9 7.54 7.54 0 0 1-2.7.52ZM1487.67 632h-2.61a7.69 7.69 0 0 1 .06-15.37h.07a309.12 309.12 0 0 0 49.62-3.59c3.78-.58 7.63-1.23 11.46-1.93a7.68 7.68 0 1 1 2.78 15.11c-4 .74-8 1.41-11.9 2a327.07 327.07 0 0 1-49.48 3.78Zm-64.93-6.93a7.38 7.38 0 0 1-1.67-.19 255.85 255.85 0 0 1-61-21.54 7.68 7.68 0 0 1 7-13.69 241 241 0 0 0 57.31 20.22 7.69 7.69 0 0 1-1.65 15.2Zm185.78-14.36a7.69 7.69 0 0 1-2.37-15c18.06-5.84 37.11-13 58.25-21.86a7.68 7.68 0 0 1 5.95 14.17c-21.54 9-41 16.34-59.46 22.32a7.86 7.86 0 0 1-2.37.38Zm637.65-31.31a7.66 7.66 0 0 1-5.39-2.2 367.4 367.4 0 0 0-47.4-39.24 7.68 7.68 0 1 1 8.78-12.61 383 383 0 0 1 49.39 40.88 7.69 7.69 0 0 1-5.38 13.17ZM1724.8 563a7.68 7.68 0 0 1-3.25-14.65q10.46-4.87 20.88-9.77c11.85-5.56 24.09-11.3 36.16-16.83a7.68 7.68 0 1 1 6.4 14c-12 5.51-24.22 11.23-36 16.77q-10.45 4.9-20.93 9.79a7.62 7.62 0 0 1-3.26.69Zm114.77-51.41a7.68 7.68 0 0 1-2.82-14.83c21.38-8.42 41-15.18 60.14-20.68a7.69 7.69 0 1 1 4.26 14.77c-18.62 5.36-37.85 12-58.77 20.21a7.69 7.69 0 0 1-2.81.51Zm304.06-4.12a7.62 7.62 0 0 1-3.39-.79 333.65 333.65 0 0 0-57.24-22.16 7.69 7.69 0 0 1 4.14-14.81 349.4 349.4 0 0 1 59.9 23.16 7.69 7.69 0 0 1-3.4 14.58Zm-183.22-29.7a7.68 7.68 0 0 1-1.06-15.29 349.53 349.53 0 0 1 48.6-3.53c5.21 0 10.45.13 15.57.39a7.68 7.68 0 1 1-.77 15.35c-4.87-.25-9.85-.37-14.8-.37a334 334 0 0 0-46.45 3.38 8.08 8.08 0 0 1-1.09.05ZM1404.8 1351.8a7.58 7.58 0 0 1-3.1-.66 7.68 7.68 0 0 1-3.92-10.14 195.61 195.61 0 0 1 16.07-29.16 7.68 7.68 0 0 1 12.79 8.52 180.1 180.1 0 0 0-14.8 26.87 7.69 7.69 0 0 1-7.04 4.57ZM1377.78 2196.13a7.69 7.69 0 0 1-2.19-15.06c10.31-3.06 20.89-5.84 31.45-8.26a7.69 7.69 0 0 1 3.43 15c-10.24 2.34-20.5 5-30.5 8a8 8 0 0 1-2.19.32ZM1850 2356.66a7.67 7.67 0 0 1-7.54-6.28c-4.27-23-11-42.26-20.42-58.88a7.69 7.69 0 0 1 13.36-7.61c10.33 18.13 17.58 39 22.17 63.68a7.68 7.68 0 0 1-6.16 9 7.47 7.47 0 0 1-1.41.09Zm-64.81-109.11a7.66 7.66 0 0 1-4.53-1.48c-14.51-10.6-31.59-20-53.72-29.57l-1.83-.78a7.69 7.69 0 1 1 6-14.14l1.9.82c23.2 10 41.22 20 56.68 31.26a7.68 7.68 0 0 1-4.54 13.89Zm-118.49-52.89a8 8 0 0 1-2.09-.29 513 513 0 0 0-62.74-13.53 7.69 7.69 0 0 1 2.3-15.2 529.8 529.8 0 0 1 64.62 13.93 7.69 7.69 0 0 1-2.09 15.09Zm-193.7-17.13a7.69 7.69 0 0 1-.74-15.34 536 536 0 0 1 66-2.37 7.69 7.69 0 0 1-.4 15.37 519.13 519.13 0 0 0-64.15 2.3c-.16.02-.42.04-.71.04ZM1856.39 2453.59a7.7 7.7 0 0 1-7.69-7.68c0-9.47 0-20.66-.34-31.82a7.67 7.67 0 0 1 7.48-7.89h.2a7.68 7.68 0 0 1 7.68 7.48c.3 11.34.35 22.65.35 32.22a7.68 7.68 0 0 1-7.68 7.69Z" style="fill:#cedbee"></path>
    <path d="M248.78 2429.83V2062.3c0-16.8 11.47-30.42 25.62-30.42h76.32c14.14 0 25.61-13.62 25.61-30.43v-918.66c0-16.8 11.47-30.42 25.62-30.42h256.36c14.15 0 25.62 13.62 25.62 30.42v396.3c0 16.81 11.47 30.43 25.62 30.43h55.68c14.15 0 25.62-13.62 25.62-30.43V530.4c0-16.8 11.46-30.43 25.61-30.43h1068.18c14.15 0 25.62 13.63 25.62 30.43v389.11c0 16.8 11.47 30.42 25.61 30.42h207.55c14.14 0 25.61 13.62 25.61 30.43v549.1c0 16.81 11.47 30.43 25.62 30.43h76.82c14.15 0 25.62-13.62 25.62-30.43V1235.9c0-16.8 11.47-30.42 25.62-30.42h201.85c14.14 0 25.61 13.62 25.61 30.42v336.16c0 16.81 11.47 30.43 25.62 30.43h83.72c14.15 0 25.62 13.62 25.62 30.42v205.68c0 16.8 11.47 30.42 25.62 30.42s25.62 13.62 25.62 30.43v529.7c0 16.8-11.47 30.43-25.62 30.43l-2436.35.68c-14.15.01-25.62-13.62-25.62-30.42Z" style="fill:#eeeef8"></path>
    <path d="M2169 1042.4v19.93h-207.39c-4.63 0-8.4-4.45-8.4-9.95a10.91 10.91 0 0 1 2.47-7.05 7.75 7.75 0 0 1 5.93-2.93ZM2169 1141.67v19.93h-207.39c-4.63 0-8.4-4.45-8.4-9.95a10.87 10.87 0 0 1 2.47-7 7.72 7.72 0 0 1 5.93-2.94ZM2169 1241v19.93h-207.39c-4.63 0-8.4-4.45-8.4-10a10.87 10.87 0 0 1 2.47-7 7.75 7.75 0 0 1 5.93-2.93ZM2169 1340.22v19.93h-207.39c-4.63 0-8.4-4.45-8.4-10a10.91 10.91 0 0 1 2.47-7 7.75 7.75 0 0 1 5.93-2.93ZM2169 1439.5v19.93h-207.39c-4.63 0-8.4-4.45-8.4-10a10.87 10.87 0 0 1 2.47-7 7.71 7.71 0 0 1 5.93-2.93ZM2547.63 1256.71v14.62H2394c-3.43 0-6.22-3.26-6.22-7.3a7.92 7.92 0 0 1 1.83-5.17 5.73 5.73 0 0 1 4.39-2.15ZM2547.63 1329.54v14.61H2394c-3.43 0-6.22-3.26-6.22-7.3a7.87 7.87 0 0 1 1.83-5.16 5.7 5.7 0 0 1 4.39-2.15ZM2547.63 1402.36V1417H2394c-3.43 0-6.22-3.27-6.22-7.31a7.87 7.87 0 0 1 1.83-5.16 5.73 5.73 0 0 1 4.39-2.15ZM2547.63 1475.18v14.62H2394c-3.43 0-6.22-3.27-6.22-7.3a7.9 7.9 0 0 1 1.83-5.17 5.73 5.73 0 0 1 4.39-2.15ZM2547.63 1548v14.62H2394c-3.43 0-6.22-3.26-6.22-7.3a7.92 7.92 0 0 1 1.83-5.17 5.73 5.73 0 0 1 4.39-2.15ZM1856 1025.56v71.5c0 8-5.45 14.49-12.2 14.49h-60.18c-6.74 0-12.2-6.5-12.2-14.49v-71.5c0-8 5.46-14.49 12.2-14.49h60.18c6.79 0 12.2 6.48 12.2 14.49ZM1856 846.27v71.5c0 8-5.45 14.49-12.2 14.49h-60.18c-6.74 0-12.2-6.5-12.2-14.49v-71.5c0-8 5.46-14.48 12.2-14.48h60.18c6.79 0 12.2 6.47 12.2 14.48ZM1856 667v71.49c0 8-5.45 14.49-12.2 14.49h-60.18c-6.74 0-12.2-6.49-12.2-14.49V667c0-8 5.46-14.49 12.2-14.49h60.18c6.79-.01 12.2 6.49 12.2 14.49ZM1856 1563.43v71.49c0 8-5.45 14.49-12.2 14.49h-60.18c-6.74 0-12.2-6.49-12.2-14.49v-71.49c0-8 5.46-14.49 12.2-14.49h60.18c6.79 0 12.2 6.47 12.2 14.49ZM1856 1384.14v71.49c0 8-5.45 14.49-12.2 14.49h-60.18c-6.74 0-12.2-6.49-12.2-14.49v-71.49c0-8 5.46-14.49 12.2-14.49h60.18c6.79 0 12.2 6.47 12.2 14.49ZM1856 1204.85v71.5c0 8-5.45 14.49-12.2 14.49h-60.18c-6.74 0-12.2-6.5-12.2-14.49v-71.5c0-8 5.46-14.49 12.2-14.49h60.18c6.79 0 12.2 6.48 12.2 14.49ZM2493.39 1760.82h-60.2c-6.73 0-12.2-6.48-12.2-14.49v-71.48c0-8 5.47-14.48 12.2-14.48h60.2c6.74 0 12.2 6.47 12.2 14.48v71.48c0 8.01-5.46 14.49-12.2 14.49ZM2040.51 1760.82h-60.2c-6.73 0-12.2-6.48-12.2-14.49v-71.48c0-8 5.47-14.48 12.2-14.48h60.2c6.75 0 12.2 6.47 12.2 14.48v71.48c0 8.01-5.45 14.49-12.2 14.49ZM2191.47 1760.82h-60.2c-6.73 0-12.2-6.48-12.2-14.49v-71.48c0-8 5.47-14.48 12.2-14.48h60.2c6.75 0 12.2 6.47 12.2 14.48v71.48c0 8.01-5.45 14.49-12.2 14.49ZM2342.43 1760.82h-60.2c-6.73 0-12.2-6.48-12.2-14.49v-71.48c0-8 5.47-14.48 12.2-14.48h60.2c6.75 0 12.2 6.47 12.2 14.48v71.48c0 8.01-5.45 14.49-12.2 14.49ZM2493.39 2048.23h-60.2c-6.73 0-12.2-6.48-12.2-14.49v-71.48c0-8 5.47-14.49 12.2-14.49h60.2c6.74 0 12.2 6.48 12.2 14.49v71.48c0 8.01-5.46 14.49-12.2 14.49ZM2040.51 2048.23h-60.2c-6.73 0-12.2-6.48-12.2-14.49v-71.48c0-8 5.47-14.49 12.2-14.49h60.2c6.75 0 12.2 6.48 12.2 14.49v71.48c0 8.01-5.45 14.49-12.2 14.49ZM2191.47 2048.23h-60.2c-6.73 0-12.2-6.48-12.2-14.49v-71.48c0-8 5.47-14.49 12.2-14.49h60.2c6.75 0 12.2 6.48 12.2 14.49v71.48c0 8.01-5.45 14.49-12.2 14.49ZM2342.43 2048.23h-60.2c-6.73 0-12.2-6.48-12.2-14.49v-71.48c0-8 5.47-14.49 12.2-14.49h60.2c6.75 0 12.2 6.48 12.2 14.49v71.48c0 8.01-5.45 14.49-12.2 14.49Z" style="fill:#dddcec"></path>
    <path d="M367.8 2454.08s-102.13-118.92-50.35-200.27-26.54-77.46-51.27-139.71 45.34-72.38 24.73-129.56-74.77-140.83 23.4-148.61 35.45 150.86 114.69 171.22 56.42 108.09 25.12 157.13 106.79 75.88 90.3 121.79-81.76 83 1.37 104.32-131.45 137.48-177.99 63.69ZM1449.54 2446.4s-96.9-178.53 35.39-235.39 127.85-59.22 108.7-199.83 58.62-214.55 128.61-154.53 145.28 116.49 53.83 212.51-106.85 128-59.44 173.5-122.6 124.9-65.77 145.4-108.49 142.21-201.32 58.34ZM2258.43 2455.39s-57.89-101.1-30.33-112.33 84.13 38 84.13 38-82.22-167.71-26.67-205.39 85.5 74.68 85.5 74.68 3.14-158.17 50-180.2 63.4 104.45 63.4 104.45 30.33-53.7 60.65-33.91 11 84.38 11 84.38 46.87-78.46 79.94-50.47 0 141.32 0 141.32 46.87-32.74 60.65 0 0 65.14 0 65.14 15.73-18.15 36.81 0 0 82.3 0 82.3Z" style="fill:#cedbee"></path>
    <path d="M1552.6 447.54v1928.81c0 38.69-33.35 70.05-74.5 70.05H450c-41.13 0-74.47-31.36-74.47-70.05V447.54c0-38.69 33.34-70 74.47-70h1028.1c41.15-.04 74.5 31.31 74.5 70Z" style="fill:#cedbee"></path>
    <path d="M1500.86 500.79v1796.49c0 36-30.42 65.24-67.94 65.24H495.16c-37.52 0-67.92-29.19-67.92-65.24V500.79c0-36 30.4-65.24 67.92-65.24h264c0 24.45 18.18 44.28 40.61 44.28h294.73a38.89 38.89 0 0 0 28.72-13 46.21 46.21 0 0 0 11.9-31.31h297.8c37.52.03 67.94 29.25 67.94 65.27Z" style="fill:#f5f5f7"></path>
    <rect width="894.14" height="894.14" x="519.14" y="568.31" rx="60.04" style="fill:#fff"></rect>
    <path d="M1353.24 1467h-774a64.63 64.63 0 0 1-64.55-64.55V628.36a64.63 64.63 0 0 1 64.55-64.55h774.05a64.62 64.62 0 0 1 64.54 64.55v774.05a64.62 64.62 0 0 1-64.59 64.59Zm-774-894.15a55.61 55.61 0 0 0-55.55 55.55v774.05a55.61 55.61 0 0 0 55.5 55.55h774.05a55.6 55.6 0 0 0 55.54-55.55V628.36a55.6 55.6 0 0 0-55.54-55.55Z" style="fill:#cedbee"></path>
    <path d="M1500.86 1567.3v730c0 36-30.42 65.24-67.94 65.24H495.16c-37.52 0-67.92-29.19-67.92-65.24v-730Z" style="fill:#fff"></path>
    <path d="M1236.59 1127.37v11.45a60.93 60.93 0 0 1-61 61H751.24a61 61 0 0 1-60.51-53.44 62.23 62.23 0 0 1-.46-7.52v-11.45a61 61 0 0 1 61-61h424.39a61 61 0 0 1 60.93 60.96Z" style="fill:#fccd89"></path>
    <g style="opacity:.39">
      <path d="M1236.59 1127.37v11.45a61 61 0 0 1-34.38 54.87c-7-13.36-18.79-30.19-35.67-36.29-29.64-10.72-53.9-8.81-91.62 7.91s-66.69 1.47-103.07-8-33 2-68.71 7.23-65.34-20-103.06-5.89-32.34 0-68-13a55.71 55.71 0 0 0-41.31.66 62.23 62.23 0 0 1-.46-7.52v-11.45a61 61 0 0 1 61-61h424.39a61 61 0 0 1 60.89 61.03Z" style="fill:#f28c70"></path>
    </g>
    <path d="M1231.88 1134.44c-16.84-5.39-25.6-5.39-49.85 5.39s-35-22.23-78.14-5.39-71.41 12.8-95.66.68-22.23-2.7-45.13-.68-34.36-17.51-58.61-5.39-35 22.91-68.71 8.09-47.16 9.43-73.43-2.93-16.17-17.28-51.2-6.5-52.54 8.08-46.25-7.41c3.49-8.58 13.29-17.14 21.33-23.07a139.21 139.21 0 0 1 11.82-7.82l500.82-10.87s28.4 7.35 47.63 19c8.08 4.89 14.53 10.55 16.59 16.72 6.97 20.86-14.37 25.57-31.21 20.18Z" style="fill:#6cc58d"></path>
    <path d="M1246.5 1097.52c-27.85 5.26-83.74 11.65-195.16 14.59-161.67 4.25-307.84-7.6-365.11-14.88a139.21 139.21 0 0 1 11.82-7.82l500.82-10.87s28.4 7.35 47.63 18.98Z" style="fill:#3e9a83"></path>
    <path d="M1254.47 1049v1a42.74 42.74 0 0 1-42.75 42.74H714.47a42.74 42.74 0 0 1-42.75-42.74v-1a42.74 42.74 0 0 1 42.75-42.73h497.25a42.73 42.73 0 0 1 42.75 42.73Z" style="fill:#f27c85"></path>
    <path d="M1250.13 1030.19c-59 17.47-160.79 47.31-219.28 62.49H947.7c-68.38-17.11-207.23-52.78-268.1-68.45a42.7 42.7 0 0 1 34.87-18h497.25a42.74 42.74 0 0 1 38.41 23.96Z" style="fill:#c9616e"></path>
    <path d="M1263.09 1002.19s-104.93 33.75-186.16 57.65c-45.19 13.27-83 23.51-91.37 23.18-18.46-.7-207.86-50.73-286.6-71.72-21-5.58-34.06-9.11-34.06-9.11l52.1-4.48c17.06-6.3 546.09 4.48 546.09 4.48Z" style="fill:#fccd89"></path>
    <g style="opacity:.39">
      <path d="M1263.09 1002.19s-104.93 33.75-186.16 57.65c-26.34-13.14-62.22-28.29-98.57-35.19-56.11-10.65-215.29-12.88-279.36-13.35-21-5.58-34.06-9.11-34.06-9.11l52.06-4.48c17.06-6.3 546.09 4.48 546.09 4.48Z" style="fill:#f28c70"></path>
    </g>
    <path d="M1247.86 961.83a29.28 29.28 0 0 1-26.76 17h-516a29.27 29.27 0 0 1-26.75-17c-4.41-9.77-7.75-24.8-6.26-47.65 3.6-54.79 60.19-177.83 291-177.83s287.41 123 291 177.83c1.51 22.82-1.83 37.88-6.23 47.65Z" style="fill:#fccd89"></path>
    <g style="opacity:.39">
      <path d="M1247.86 961.83a29.28 29.28 0 0 1-26.76 17h-516a29.27 29.27 0 0 1-26.75-17c-4.41-9.77-7.75-24.8-6.26-47.65A115.24 115.24 0 0 1 675 895.6c57.94 34.53 142.63 56.3 236.95 56.3 146.13 0 269.11-52.24 305.33-123.21 25.68 31.27 35.45 63.75 36.88 85.49 1.44 22.82-1.9 37.88-6.3 47.65Z" style="fill:#f28c70"></path>
    </g>
    <ellipse cx="845.46" cy="781.71" rx="24.25" ry="8.53" style="fill:#fff"></ellipse>
    <ellipse cx="990.81" cy="768.66" rx="24.25" ry="8.53" style="fill:#fff"></ellipse>
    <ellipse cx="812.23" cy="837.22" rx="24.25" ry="8.53" style="fill:#fff"></ellipse>
    <ellipse cx="919.75" cy="808.4" rx="24.25" ry="8.53" style="fill:#fff"></ellipse>
    <ellipse cx="1070.01" cy="816.93" rx="24.25" ry="8.53" style="fill:#fff"></ellipse>
    <rect width="493.1" height="23.35" x="716.99" y="978.85" rx="2.87" style="fill:#3e9a83"></rect>
    <g style="opacity:.43">
      <rect width="284.37" height="119.31" x="494.52" y="1644.15" rx="21.83" style="fill:#92b1dd"></rect>
      <rect width="549.86" height="37.43" x="863.42" y="1655.93" rx="14.61" style="fill:#92b1dd"></rect>
      <rect width="263.87" height="37.43" x="863.42" y="1720.2" rx="14.61" style="fill:#92b1dd"></rect>
    </g>
    <g style="opacity:.43">
      <rect width="284.37" height="119.31" x="494.52" y="1856.65" rx="21.83" style="fill:#92b1dd"></rect>
      <rect width="549.86" height="37.43" x="863.42" y="1868.43" rx="14.61" style="fill:#92b1dd"></rect>
      <rect width="263.87" height="37.43" x="863.42" y="1932.71" rx="14.61" style="fill:#92b1dd"></rect>
    </g>
    <g style="opacity:.43">
      <rect width="284.37" height="119.31" x="494.52" y="2069.16" rx="21.83" style="fill:#92b1dd"></rect>
      <rect width="549.86" height="37.43" x="863.42" y="2080.94" rx="14.61" style="fill:#92b1dd"></rect>
      <rect width="263.87" height="37.43" x="863.42" y="2145.22" rx="14.61" style="fill:#92b1dd"></rect>
    </g>
    <path d="M427.24 1562.8h1073.62v9H427.24z" style="fill:#cedbee"></path>
    <path d="M427.24 1454a4.5 4.5 0 0 1-4.5-4.5V547.51a4.5 4.5 0 0 1 9 0v902a4.49 4.49 0 0 1-4.5 4.49ZM1504.29 1406.86a4.51 4.51 0 0 1-4.5-4.5V702.73a4.5 4.5 0 0 1 9 0v699.63a4.5 4.5 0 0 1-4.5 4.5ZM1432.92 440.05h-297.8a4.5 4.5 0 0 1 0-9h297.8a4.5 4.5 0 0 1 0 9ZM1316.79 382H494.52a4.5 4.5 0 0 1 0-9h822.27a4.5 4.5 0 0 1 0 9Z" style="fill:#92b1dd"></path>
    <path d="M2605.73 722.55v475.57c0 25-19.87 45.22-44.36 45.22h-690.08c-21.48 0-39.39-15.57-43.48-36.23a46 46 0 0 1-.88-9V722.55a45.16 45.16 0 0 1 29.3-42.53 43.32 43.32 0 0 1 15.06-2.69h690.08c24.49 0 44.36 20.25 44.36 45.22Z" style="fill:#cedbee"></path>
    <path d="M2590.83 736v448.6a42.67 42.67 0 0 1-42.66 42.66H1884.5a42.64 42.64 0 0 1-42.67-42.66V736a42.65 42.65 0 0 1 42.67-42.65h663.67a42.66 42.66 0 0 1 42.66 42.65Z" style="fill:#f5f5f7"></path>
    <path d="M2521.29 1069.43 2319.06 750l89-56.66h-33.85l-349.78 222.8-71.18-117.73 42.45-105h-19.61l-34.6 85.59-51.76-85.59h-5.23a42.4 42.4 0 0 0-14.49 2.53l59 97.64-87.23 23.19v18.81l97-25.79 199.91 330.59-61.92 86.94h22.31l53.11-74.57 130.21 74.57h59.88l248.47-187.58V1017Zm-206.14 155.62-159-91-122.3-202.34 269.87-171.9 203 320.62Zm196.68-531.67h-22.54l101.54 138.74v-30.8Z" style="fill:#fff"></path>
    <path d="m2025.73 1071.83-183 121.29a42.52 42.52 0 0 1-.85-8.49V870.46l62.79-16.46a27.35 27.35 0 0 1 30.47 12.6l99 168.57a27.33 27.33 0 0 1-8.41 36.66Z" style="fill:#cedbee"></path>
    <path d="m2103.61 1154-54.91 73.31h-49.85l-44.71-55.7a11.22 11.22 0 0 1 2-16l93.78-70a11.19 11.19 0 0 1 15.8 2.43l38 52.73a11.19 11.19 0 0 1-.11 13.23Z" style="fill:#dfe9f4"></path>
    <path d="M1955.31 1227.29h-68.64l26.43-36.8a11.21 11.21 0 0 1 18.49.41Z" style="fill:#cedbee"></path>
    <path d="m2317.31 845 111.38 177.94a25.83 25.83 0 0 1-7.78 35.34L2289 1144.32a25.83 25.83 0 0 1-23.11 2.59l-87.32-32.43a25.85 25.85 0 0 1-13.85-12.16l-70.43-133.42a25.83 25.83 0 0 1 10.39-34.69L2283 836.05a25.83 25.83 0 0 1 34.31 8.95ZM2538.11 819.27l-88.51 61.6a13.75 13.75 0 0 1-19.31-3.68l-73.53-110.6a13.74 13.74 0 0 1 4.38-19.4l86.59-51.86a13.36 13.36 0 0 1 6.74-2h.71a13.74 13.74 0 0 1 10.62 5.5l75.47 100.86a13.75 13.75 0 0 1-3.16 19.58Z" style="fill:#dfe9f4"></path>
    <path d="m2563.87 852.38 25.47 50.26a13.74 13.74 0 0 1-5.27 18.05L2541.29 946a13.75 13.75 0 0 1-19.33-5.76l-23.5-47.68a13.75 13.75 0 0 1 4.58-17.44l40.82-27.86a13.74 13.74 0 0 1 20.01 5.12ZM2522.81 966.34l15.56 31a13.75 13.75 0 0 1-5.36 18l-6.54 3.81a13.75 13.75 0 0 1-18.92-5.15l-41.79-74.58a13.74 13.74 0 0 1 6.45-19.3l5.24-2.31a13.75 13.75 0 0 1 17.06 5L2522 965a12.25 12.25 0 0 1 .81 1.34Z" style="fill:#cedbee"></path>
    <path d="M2239.41 693.38a26 26 0 0 1-8.69 17.54l-167.95 150.24a26.35 26.35 0 0 1-40.68-7l-27.46-50.1a26.35 26.35 0 0 1-1.93-20.85l29.3-89.83Z" style="fill:#dfe9f4"></path>
    <path d="M2199.87 1227.29h-31.59a23.45 23.45 0 0 1 27-2.61Z" style="fill:#cedbee"></path>
    <path d="M2548.17 1231.79H1884.5a47.15 47.15 0 0 1-47.17-47.16V736a47.24 47.24 0 0 1 31.16-44.35 46.67 46.67 0 0 1 16-2.8h663.67a47.21 47.21 0 0 1 47.17 47.15v448.6a47.21 47.21 0 0 1-47.16 47.19ZM1884.5 697.88a38.14 38.14 0 0 0-38.17 38.12v448.6a38.15 38.15 0 0 0 38.17 38.16h663.67a38.21 38.21 0 0 0 38.16-38.16V736a38.2 38.2 0 0 0-38.16-38.15Z" style="fill:#cedbee"></path>
    <path d="m2502.93 1082.84-200.55-316.73L2047.95 936l-4.99-7.48 262.09-175.02 205.48 324.52-7.6 4.82z" style="fill:#cedbee"></path>
    <path d="M1954.67 671.91h9v281.26h-9z" style="fill:#cedbee" transform="rotate(-32.07 1959.382 812.558)"></path>
    <path d="M1988.48 759.47a75.36 75.36 0 0 0-75.36 75.35c0 30.89 41.5 104.62 62.91 140.59a14.48 14.48 0 0 0 24.9 0c21.4-36 62.9-109.7 62.9-140.59a75.35 75.35 0 0 0-75.35-75.35Zm0 106.32a34.07 34.07 0 1 1 34.06-34.06 34.07 34.07 0 0 1-34.06 34.06ZM2475.13 916.78a44.4 44.4 0 0 0-44.4 44.41c0 18.2 24.45 61.64 37.07 82.84a8.53 8.53 0 0 0 14.67 0c12.61-21.2 37.07-64.64 37.07-82.84a44.41 44.41 0 0 0-44.41-44.41Zm0 62.66a20.08 20.08 0 1 1 20.08-20.08 20.08 20.08 0 0 1-20.08 20.08ZM1994.84 1003.83a6.15 6.15 0 0 1-3-11.51l13.4-7.54a6.15 6.15 0 1 1 6 10.72l-13.4 7.54a6.18 6.18 0 0 1-3 .79ZM2323.57 1190.16a32.08 32.08 0 0 1-10.72-1.83 6.15 6.15 0 1 1 4.08-11.6 20 20 0 0 0 6.64 1.13 19.92 19.92 0 0 0 12.1-4l4.43-3.35a6.15 6.15 0 1 1 7.41 9.82l-4.43 3.34a32.53 32.53 0 0 1-19.5 6.54Zm-36.51-15.93a6.12 6.12 0 0 1-2.88-.72l-27.69-14.73a6.15 6.15 0 1 1 5.77-10.86l27.7 14.72a6.16 6.16 0 0 1-2.9 11.59Zm81.78-11.6a6.15 6.15 0 0 1-3.71-11.06l25-18.9a6.15 6.15 0 0 1 7.41 9.82l-25 18.89a6.12 6.12 0 0 1-3.7 1.25Zm-137.16-17.85a6.13 6.13 0 0 1-2.89-.72l-27.69-14.72a6.15 6.15 0 1 1 5.78-10.86l27.69 14.72a6.15 6.15 0 0 1-2.89 11.58Zm187.23-20a6.15 6.15 0 0 1-3.71-11.06l25-18.89a6.15 6.15 0 1 1 7.41 9.81l-25 18.9a6.1 6.1 0 0 1-3.7 1.29Zm-242.62-9.49a6.13 6.13 0 0 1-2.88-.73l-6.09-3.23a32.43 32.43 0 0 1-12.32-11.43l-5.65-9.08a6.15 6.15 0 0 1 10.45-6.5l5.65 9.08a20.05 20.05 0 0 0 7.62 7.12l6.08 3.23a6.15 6.15 0 0 1-2.89 11.59ZM2138 1067.1a6.14 6.14 0 0 1-5.23-2.9l-16.58-26.63a6.15 6.15 0 0 1 10.45-6.5l16.57 26.63a6.15 6.15 0 0 1-5.21 9.4Zm-33.15-53.26a6.15 6.15 0 0 1-5.23-2.9l-16.57-26.62a6.15 6.15 0 1 1 10.44-6.51l16.57 26.63a6.15 6.15 0 0 1-5.21 9.4Zm-69.31-32.93a6.15 6.15 0 0 1-3-11.51l14.28-8a32.5 32.5 0 0 1 17.77-4.11 6.15 6.15 0 1 1-.73 12.28 20.14 20.14 0 0 0-11 2.55l-14.28 8a6.18 6.18 0 0 1-3 .79ZM2469 1087a6.15 6.15 0 0 1-3.71-11.06l12.27-9.27a6.15 6.15 0 0 1 7.42 9.82l-12.28 9.27a6.17 6.17 0 0 1-3.7 1.24Z" style="fill:#69bf8e"></path>
    <path d="m1552.66 1110.42-40.76 82.95-129.21 263a31.86 31.86 0 0 1-42.15 14.77l-291.65-137.46a31.86 31.86 0 0 1-18.21-30.81c0-.59.1-1.18.17-1.77a31.59 31.59 0 0 1 3-10.13l127.91-263.34 38-78.29a31.85 31.85 0 0 1 41.71-15.12l295.7 133.16a31.84 31.84 0 0 1 15.49 43.04Z" style="fill:#fccd89"></path>
    <path d="m1552.66 1110.42-170 345.92a31.86 31.86 0 0 1-42.15 14.77l-291.65-137.46a31.86 31.86 0 0 1-18.21-30.81l219.45 104.06a26.53 26.53 0 0 0 37.12-17.49 483.15 483.15 0 0 1 30.87-87.09c18.51-39.22 60.72-82.58 89.3-109.19a26.56 26.56 0 0 0-6-43.08l-239.66-122.45 38-78.29a31.85 31.85 0 0 1 41.71-15.12l295.7 133.16a31.84 31.84 0 0 1 15.52 43.07Z" style="fill:#f28c70;opacity:.56"></path>
    <path d="m1175.31 1026.87 322.9 163.66a26.82 26.82 0 0 0 36.16-12l37.29-75.32a26.83 26.83 0 0 0-12.5-36.11L1233.57 912a26.82 26.82 0 0 0-35.34 11.88l-34.61 66.78a26.82 26.82 0 0 0 11.69 36.21Z" style="fill:#f28c70"></path>
    <path d="M1250.44 1064.85 1309 952.67a9.89 9.89 0 0 1 13.49-4.12l6.33 3.44a9.9 9.9 0 0 1 4 13.36l-59.57 111.52a9.9 9.9 0 0 1-13.31 4.11l-5.32-2.78a9.89 9.89 0 0 1-4.18-13.35ZM1394.88 1135l58.55-112.19a9.89 9.89 0 0 1 13.49-4.11l6.33 3.44a9.89 9.89 0 0 1 4 13.35L1417.69 1147a9.9 9.9 0 0 1-13.31 4.11l-5.32-2.78a9.89 9.89 0 0 1-4.18-13.33Z" style="fill:#d66c54"></path>
    <path d="M1186.43 1285.36c-3.24 0-10.09-4.85-12-8.48 0-6.32 26.07-63.27 42.68-98l.78-1.63-1.55-.94c-5.31-3.21-14.21-9.72-15.51-13.54-1.32-4.6 18.67-40.52 21.78-44.46a9.18 9.18 0 0 1 2.8-2.33c-1.57 4.13-5.68 13-8.85 19.87-7 15-8.82 19.33-8.75 20.89.18 3.6 6.64 9.72 11.32 9.72a5.08 5.08 0 0 0 1.76-.3c2.3-.84 6.82-7.14 22.2-35.87.9-1.67 1.55-2.88 1.84-3.39 1.1-2 2.1-2 2.48-2a3 3 0 0 1 .7.09c-1.17 4.24-8.12 18.44-12.42 27.22-8.09 16.53-8 16.64-7.34 18 1.11 2.06 8.13 4.79 12.33 4.79a7.17 7.17 0 0 0 3.12-.62c2.15-1 6.33-7.13 20.46-34.4 1-1.83 1.64-3.16 1.87-3.55.36-.65.74-.87 1-.87a.2.2 0 0 1 .11 0c-1.18 6.34-17.07 45-20.48 47.86-.33.16-1.48.56-4.65.56a111.26 111.26 0 0 1-15-1.5l-1.66-.29-.56 1.58c-13.8 38.7-35.18 97.42-37.81 101.44a1.19 1.19 0 0 1-.58.11Z" style="fill:#fff"></path>
    <path d="M1212.3 1140.23c-5.71 12.43-6.62 14.88-6.54 16.63.25 5 7.84 11.63 13.32 11.63a7.13 7.13 0 0 0 2.45-.42c2-.73 4.3-2.75 13-18l-.66 1.36c-8.39 17.13-8.55 17.45-7.31 19.77 1.7 3.17 9.86 5.85 14.09 5.85a9.27 9.27 0 0 0 4-.81c1.74-.83 3.89-2.89 11.63-16.93-6.12 14.73-9.54 20.91-10.72 22.46a15.54 15.54 0 0 1-3.5.28 106.66 106.66 0 0 1-14.64-1.48l-3.32-.57-1.13 3.17c-12.5 35.07-32.93 91.26-37.14 100.13-2.51-.58-7.49-4-9.34-6.82 1.34-8 22.55-55.16 42.41-96.67l1.56-3.28-3.1-1.87c-6.14-3.72-13.32-9.37-14.57-12.25 0-.89.76-5.49 9.55-22.15m14.58-26.74c-1.68 0-4.31 1.61-5.89 3.61-2 2.49-24.13 40.41-22.11 46.35s16.37 14.6 16.37 14.6-45.23 94.53-42.76 99.52c2 4.14 9.72 9.79 13.94 9.79a2.69 2.69 0 0 0 2.08-.78c2.91-3.17 38.19-102.09 38.19-102.09A111.58 111.58 0 0 0 1242 1186a13.66 13.66 0 0 0 5.66-.83c4.07-2.22 22.49-48.54 21.5-50.3a2.45 2.45 0 0 0-2.14-1.31 3.21 3.21 0 0 0-2.71 1.89c-1.41 2.5-18 35.48-21.44 37.13a5.34 5.34 0 0 1-2.26.42c-4 0-10-2.68-10.56-3.74-.69-1.28 22.41-44.39 20-45.6a6.14 6.14 0 0 0-2.69-.71c-1.53 0-3 .81-4.23 3-1.92 3.41-19.42 37.06-23 38.36a3.12 3.12 0 0 1-1.07.18c-3.68 0-9.2-5.31-9.32-7.82-.14-2.78 19.54-41.8 18.17-42.87a1.68 1.68 0 0 0-1-.31Z" style="fill:#f28c70"></path>
    <path d="M1233.82 1313.84a17.64 17.64 0 0 1-8.46-5.07c2.47-6.61 35.29-47.43 56-72.27l10.61-14.08-.1-.81c0-.25-3-24.84 5.71-36.65 7.12-9.63 16-14.93 25.12-14.93a28 28 0 0 1 11.85 2.8c5.81 2.71 8 8.46 8.74 12.8 2.11 11.8-3.1 27.58-12.13 36.71a29.23 29.23 0 0 1-21.55 8.85 34.15 34.15 0 0 1-10.67-1.65l-1.42-.52-.89 1.22c-22.9 31.45-57.81 78.76-62.81 83.6Z" style="fill:#fff"></path>
    <path d="M1322.66 1172a26.09 26.09 0 0 1 11 2.61c5 2.35 6.92 7.46 7.61 11.34 2 11.22-3 26.25-11.59 35a27.27 27.27 0 0 1-20.12 8.25 32.37 32.37 0 0 1-10-1.52l-2.85-1.07-1.79 2.46c-20.92 28.78-54.77 74.66-61.8 82.55a18.47 18.47 0 0 1-5.4-3.21c4.82-8.83 34.3-45.63 55.09-70.63l.06-.07.06-.08 10.06-13.35 1-1.3-.21-1.61c0-.24-2.91-24.06 5.34-35.21 4.76-6.44 12.71-14.12 23.51-14.12m0-4c-10.75 0-20 6.57-26.73 15.74-9.32 12.61-6.08 38.09-6.08 38.09l-10.07 13.36s-58.78 70.67-56.47 74.13 8.31 6.52 10.93 6.52h.2c2.5-.18 63.77-84.46 63.77-84.46a35.61 35.61 0 0 0 11.36 1.78 31.49 31.49 0 0 0 23-9.44c14.8-15 19-45.18 2.82-52.73a29.91 29.91 0 0 0-12.7-3Z" style="fill:#f28c70"></path>
    <path d="m1511.9 1193.37-129.21 263a31.86 31.86 0 0 1-42.15 14.77l-291.65-137.46a31.86 31.86 0 0 1-18.21-30.81c0-.59.1-1.18.17-1.77Z" style="fill:#f28c70;opacity:.33"></path>
    <path d="M1033.82 1293.94a3.06 3.06 0 0 1-1.31-.3 3 3 0 0 1-1.39-4L1159 1026.29a3 3 0 1 1 5.4 2.62l-127.91 263.34a3 3 0 0 1-2.67 1.69ZM1223.24 1418.82a3 3 0 0 1-1.29-.29l-180.16-85.71a3 3 0 1 1 2.58-5.42l180.16 85.71a3 3 0 0 1-1.29 5.71Z" style="fill:#f28c70"></path>
    <path d="M1488.19 1188.45a2.9 2.9 0 0 1-1.36-.33L1174 1029.54a3 3 0 0 1 2.71-5.35l312.89 158.58a3 3 0 0 1-1.36 5.68Z" style="fill:#d66c54"></path>
    <path d="M1580.24 968.84s-21.92 44.89-.13 69.23 107.68 32.71 146.37-10.65 58.8-66.18 27.08-95.85-174.09-.77-173.32 37.27Z" style="fill:#273657"></path>
    <path d="M1779.33 999.45c-4.14 9.67-6.91 19.32-4.84 25.53s-1.8 29.67-12.62 46.23-21.71 38.42-35.26 43.06c-13.22 4.54-34.7-1.74-35.69-2-16.64-8.36-18.18-14.06-20.9-12.54s-16.24 35.74-16.24 35.74l-109.4-34.47s11.25-11.89 23.66-24.92c11.59-12.15 24.2-25.28 29.61-30.65 11.22-11.13 41-49 36.36-51.82s-5.8-9.13.58-13.7 23.79-7.41 28.44 0 2.9 36.52 7.54 37.66 14.51 8.56 17.41 0 5.23-34.23 9.29-40.5 32.5-18.26 32.5-18.26l50.07-3c-.17.07-.34.14-.51.23 0-.04 4.14 33.76 0 43.41Z" style="fill:#ffb2a8"></path>
    <path d="M1892.06 943.31a5.34 5.34 0 0 1-1.46 3.65 5.58 5.58 0 0 1-3.61 1.69l-306.75 20.19S1572.5 845.61 1677 834.2s110.64 108 121.48 108c9.1 0 69-3.22 87.9-4.25a5.39 5.39 0 0 1 5.68 5.36Z" style="fill:#6cc58d"></path>
    <path d="M1670 1099.69c-2.71 1.52-16.24 35.74-16.24 35.74L1544.38 1101s11.25-11.89 23.66-24.92c26.37-1.24 54.55 3.88 56.06 2.75 2-1.49 3.27-24.28 3.82-36.78a1.43 1.43 0 0 1 2.78-.39c2.13 6.41 5.35 15.72 8.58 23.38 5.52 13.06 30.72 34.65 30.72 34.65Z" style="fill:#f27c85"></path>
    <path d="M2432.45 2247.63 2214.1 2152l222-86.74a10.35 10.35 0 0 0 5.87-13.41 10.35 10.35 0 0 0-13.4-5.87l-222 86.75 95.67-218.35a10.35 10.35 0 0 0-19-8.31l-95.67 218.35-86.75-222a10.34 10.34 0 0 0-13.4-5.88 10.35 10.35 0 0 0-5.88 13.41l86.75 222-218.29-95.71a10.35 10.35 0 0 0-8.3 19l218.3 95.63-222 86.75a10.35 10.35 0 0 0-5.87 13.4 10.36 10.36 0 0 0 13.41 5.88l222-86.75-95.67 218.34a10.35 10.35 0 1 0 19 8.31l95.67-218.35 86.74 222.05a10.35 10.35 0 1 0 19.28-7.54l-86.75-222 218.35 95.67a10.35 10.35 0 0 0 8.31-19Z" style="fill:#aebfce"></path>
    <path d="M2450.43 2141.07h-238.38l168.56-168.57a10.34 10.34 0 0 0 0-14.63 10.34 10.34 0 0 0-14.63 0l-168.57 168.56v-238.38a10.35 10.35 0 1 0-20.7 0v238.38l-168.56-168.56a10.36 10.36 0 0 0-14.64 0 10.34 10.34 0 0 0 0 14.63l168.57 168.57h-238.39a10.35 10.35 0 0 0 0 20.7h238.39l-168.57 168.56a10.36 10.36 0 0 0 0 14.64 10.36 10.36 0 0 0 14.64 0l168.56-168.57v238.39a10.35 10.35 0 1 0 20.7 0V2176.4L2366 2345a10.35 10.35 0 0 0 14.63-14.64l-168.56-168.56h238.38a10.35 10.35 0 1 0 0-20.7Z" style="fill:#cddde8"></path>
    <path d="M2187.06 1853.07c-163.84 0-296.66 132.82-296.66 296.66s132.82 296.67 296.66 296.67 296.67-132.83 296.67-296.67-132.82-296.66-296.67-296.66Zm0 552.58c-141.34 0-255.92-114.58-255.92-255.92s114.58-255.92 255.92-255.92S2443 2008.39 2443 2149.73s-114.6 255.92-255.94 255.92Z" style="fill:#59707a"></path>
    <circle cx="2187.06" cy="2149.73" r="45.6" style="fill:#59707a"></circle>
    <path d="M1484 2247.63 1265.65 2152l222-86.74a10.35 10.35 0 0 0 5.87-13.41 10.35 10.35 0 0 0-13.41-5.87l-222 86.75 95.67-218.35a10.35 10.35 0 0 0-19-8.31l-95.67 218.35-86.74-222a10.35 10.35 0 0 0-13.41-5.88 10.36 10.36 0 0 0-5.87 13.41l86.75 222-218.35-95.67a10.35 10.35 0 0 0-8.31 19l218.35 95.67-222 86.75a10.34 10.34 0 0 0-5.88 13.4 10.36 10.36 0 0 0 13.41 5.88l222-86.75-95.67 218.34a10.35 10.35 0 1 0 19 8.31l95.67-218.35 86.75 222.05a10.35 10.35 0 1 0 19.27-7.54l-86.74-222 218.34 95.67a10.35 10.35 0 1 0 8.31-19Z" style="fill:#aebfce"></path>
    <path d="M1502 2141.07h-238.4l168.56-168.57a10.33 10.33 0 0 0 0-14.63 10.34 10.34 0 0 0-14.63 0L1249 2126.43v-238.38a10.35 10.35 0 1 0-20.69 0v238.38l-168.61-168.56a10.34 10.34 0 0 0-14.63 0 10.34 10.34 0 0 0 0 14.63l168.56 168.57H975.25a10.35 10.35 0 0 0 0 20.7h238.38l-168.56 168.56a10.36 10.36 0 0 0 0 14.64 10.34 10.34 0 0 0 14.63 0l168.57-168.57v238.39a10.35 10.35 0 1 0 20.69 0V2176.4l168.57 168.6a10.35 10.35 0 0 0 14.63-14.64l-168.56-168.59H1502a10.35 10.35 0 0 0 0-20.7Z" style="fill:#cddde8"></path>
    <path d="M1238.62 1853.07c-163.85 0-296.67 132.82-296.67 296.66s132.82 296.67 296.67 296.67 296.66-132.83 296.66-296.67-132.82-296.66-296.66-296.66Zm0 552.58c-141.34 0-255.92-114.58-255.92-255.92s114.58-255.92 255.92-255.92 255.92 114.58 255.92 255.92-114.54 255.92-255.92 255.92Z" style="fill:#59707a"></path>
    <circle cx="1238.62" cy="2149.73" r="45.6" style="fill:#59707a"></circle>
    <rect width="132.98" height="26.39" x="1693.95" y="2055.94" rx="9.75" style="fill:#f28c70"></rect>
    <path d="M1688.24 2011.18s-6.92 44.48 3.15 48.57 118.92 8.78 126.47 0-15.1-21.07-21.39-25.16-51-11.71-58.52-16.39-49.71-7.02-49.71-7.02Z" style="fill:#343468"></path>
    <path d="M1759.77 1811c-3.72 98.21-13 210.42-18 212.45s-21.88.06-35.41-1c-9.33-.7-17.16-.93-18.71 1-3.77 4.68-29.42-276.26-29.81-285.63s-140.08-113.54-140.08-113.54-30.55-36.11-45.77-71c-17.77-40.69-14.66-79.71 82.26-57.7 0 0 184.08 153.26 200.91 170.82.93 1 1.73 2.9 2.44 5.7 2.46 9.78 3.61 30.12 3.78 56.29.14 23.9-.48 52.61-1.61 82.61Z" style="fill:#2c4fa0"></path>
    <g style="opacity:.73">
      <path d="M1759.77 1811c-23-.72-52.39.46-53.21 11.1-1 12.57-.54 132.84-.24 200.37-9.33-.7-17.16-.93-18.71 1-3.77 4.68-29.42-276.26-29.81-285.63s-140.08-113.54-140.08-113.54-30.55-36.11-45.77-71l82.26-57.7s95.65 210.62 108.23 211.79 95.12-35.27 95.12-35.27v14.2s-71.21 30.43-75 39.8c-2.44 6 44.87 4.28 78.76 2.29.2 23.88-.42 52.59-1.55 82.59Z" style="fill:#273657"></path>
    </g>
    <path d="m1746.16 2081-57.28 36a12.89 12.89 0 0 1-11.93.14l-3.24-1.87c-3.17-1.83-3.13-4.77.07-6.57l60.52-34.09c3.35-1.89 8.81-1.79 11.93.22 2.77 1.72 2.77 4.39-.07 6.17Z" style="fill:#59707a"></path>
    <path d="M2094.51 2008.68c-41.45-72.22-60.56-251.39-65.06-299.62a11.24 11.24 0 0 1 10.81-12.29c15-.52 40.55-2.46 53.66-9.48 19.32-10.35 46.91-53.82 24.84-98.66s-77.27-46.22-77.27-46.22l-4.59 37.25s27.36-4.14 46 15.87 13.11 49.67-5.52 58c-13.53 6-59.1 8-83 8.67a14 14 0 0 0-13.57 15.29l2.46 26.75-463.27 37.48-7.53-21.79a10.8 10.8 0 0 0-1.48-2.81l-23-31.17c-7.09-9.6-22.16-1.86-18.48 9.5l14 43.13a10.49 10.49 0 0 1-1.1 8.83l-220.46 351.78a10.52 10.52 0 0 0 3.23 14.45l5.74 3.68a10.52 10.52 0 0 0 14.49-3.09l207.12-316.58a10.53 10.53 0 0 1 18.86 2.64l103.27 332.51a10.53 10.53 0 0 1-10.06 13.65h-300.8a10.52 10.52 0 0 0-10.52 10.53v5.7a10.52 10.52 0 0 0 10.52 10.53h444.93a10.52 10.52 0 0 0 8.94-5l243.43-391.6c5.6 61.79 19.94 171.77 53.84 232 35.28 62.69 91.12 120.54 119.52 147.92a19 19 0 0 0 29.67-4.32 19 19 0 0 0-4.94-24.36c-22.6-17.26-69.46-57.85-104.68-119.17Zm-364.79 132.92a10.54 10.54 0 0 1-8.87 4.85h-53.46a10.52 10.52 0 0 1-9.94-7.09l-127.52-368.81 461.28-38.61.27.6Z" style="fill:#fccd89"></path>
    <circle cx="2013.63" cy="1561.64" r="31.82" style="fill:#2c4fa0"></circle>
    <path d="M1761.37 2162.64a3 3 0 0 1-2.54-4.59l239.72-383a3 3 0 1 1 5.09 3.18l-239.72 383a3 3 0 0 1-2.55 1.41ZM1529.92 1773.55a3 3 0 0 1-.24-6l461.55-38a3 3 0 0 1 .5 6l-461.56 38ZM2103.51 2026.52a3 3 0 0 1-2.23-1c-22.48-24.89-41.91-85.75-57.74-180.87-11.74-70.55-17-134.72-17.08-135.36a3 3 0 1 1 6-.49c.21 2.55 21.31 255.15 73.3 312.69a3 3 0 0 1-.22 4.24 3 3 0 0 1-2.03.79ZM1297.35 2098.84a3 3 0 0 1-2.51-4.65L1489.93 1796a3 3 0 1 1 5 3.28l-195.09 298.19a3 3 0 0 1-2.49 1.37ZM1801.29 1719.51a3 3 0 0 1-.2-6L1983 1701.2a3 3 0 0 1 .4 6l-181.93 12.32ZM2035.92 1663.78c-3.83 0-6.31-.17-6.7-.2a3 3 0 0 1 .45-6c.37 0 36.83 2.54 53.93-13.34 5.76-5.35 8.68-12.33 8.68-20.73 0-16.15-7.8-28-23.18-35.11a71.15 71.15 0 0 0-23.77-6.06 3 3 0 1 1 .26-6 76 76 0 0 1 26 6.61c17.44 8.1 26.65 22.12 26.65 40.55 0 10.14-3.57 18.6-10.61 25.13-14.4 13.43-39.63 15.15-51.71 15.15Z" style="fill:#f28c70"></path>
    <path d="M2188.14 2165a9.45 9.45 0 0 1-1.61-.14c-10.24-1.86-30.12-13.62-93.54-88.65-33.75-39.93-52.12-82-61.58-110.35-10.27-30.7-12.52-51.67-12.61-52.55a3 3 0 0 1 6-.62c.09.84 9.45 84.69 72.8 159.64 62.89 74.4 81.5 85.07 90 86.63 3.57.65 11.92-5.19 15.89-12.28 1.22-2.16 2.94-6.14.86-8.46a3 3 0 0 1 4.48-4c3.38 3.79 3.34 9.25-.1 15.4-4.31 7.68-13.46 15.38-20.59 15.38Z" style="fill:#f28c70"></path>
    <rect width="317.7" height="35.18" x="1079.77" y="1792.84" rx="13.73" style="fill:#fccd89"></rect>
    <path d="m1128.4 1828.03 59.5 300.37h15.19l-48.81-300.37h-25.88zM1307.4 1828.03l-42.31 285.61h12.48l58.84-285.61h-29.01z" style="fill:#aebfce"></path>
    <circle cx="1647.73" cy="2142.1" r="97.45" style="fill:#fccd89"></circle>
    <circle cx="1647.73" cy="2142.1" r="74.51" style="fill:#f28c70"></circle>
    <circle cx="1647.73" cy="2142.1" r="68.91" style="fill:#fccd89"></circle>
    <circle cx="1236.11" cy="2153.84" r="71.28" style="fill:#fccd89"></circle>
    <circle cx="1236.11" cy="2153.84" r="54.5" style="fill:#f28c70"></circle>
    <circle cx="1236.11" cy="2153.84" r="50.4" style="fill:#fccd89"></circle>
    <path d="M1748.28 2142.1a100.67 100.67 0 0 0-100.55-100.55h-.29l-411.52 37.9a74.39 74.39 0 0 0 .08 148.77l411.62 14.42h.11a100.67 100.67 0 0 0 100.55-100.54Zm-100.51 94.35L1236.22 2222h-.11a68.18 68.18 0 0 1 0-136.36h.29l411.45-37.89a94.35 94.35 0 0 1-.08 188.69Z" style="fill:#59707a"></path>
    <circle cx="1647.73" cy="2142.1" r="23.63" style="fill:#59707a"></circle>
    <path d="m1647 2153.17-70.87 78.39a10.14 10.14 0 0 1-14.77.31l-4-4.09a10.15 10.15 0 0 1 .09-14.31l74.89-74.31a10.15 10.15 0 0 1 14.75.49 10.15 10.15 0 0 1-.09 13.52Z" style="fill:#59707a"></path>
    <path d="m1476.66 2186.65 112.55 71.14a9.5 9.5 0 0 1 2.51 13.73l-4 5.38a9.49 9.49 0 0 1-12.84 2.19l-112.54-74.84a9.48 9.48 0 0 1 1.61-16.66l4-1.68a9.49 9.49 0 0 1 8.71.74Z" style="fill:#fccd89"></path>
    <path d="M1501 2123s-32.6 54.33-28.46 61.05 125.74 84.86 133.5 81.76 15.52-17.08 11.9-26.91-54.33-70.89-57.43-77.09 2.58-19.15 2.58-19.15Z" style="fill:#343468"></path>
    <path d="M1653.07 1770.07c0 15.53-84.85 361.17-90 372.55a4.43 4.43 0 0 1-1.31 1.65c-9.76 7.81-58-7.86-62.85-7.86-5.17 0 1-81.75 10.35-175.92s37.25-183.17 37.25-189.38-175.92-130.39-209-172.82-16.51-124.14-16.51-124.14l163.08 27.25 71.88 12s97.11 241.15 97.11 256.67Z" style="fill:#2c4fa0"></path>
    <g style="opacity:.73">
      <path d="M1561.73 2144.27c-9.76 7.81-58-7.86-62.85-7.86-5.17 0 1-81.75 10.35-175.92s37.25-183.17 37.25-189.38-175.92-130.39-209-172.82-16.48-124.14-16.48-124.14l163.08 27.25c-43.3 15.71-106.14 43.38-92.68 67.52 20.17 36.19 190.92 188.3 190.92 199.17s-54.68 183.16-59.94 259.21c-4.61 66.38-21.93 107.37 39.35 116.97Z" style="fill:#273657"></path>
    </g>
    <path d="M1609.61 1494.89c-3.13 4.59-10.61 8.37-21.09 11.56-27.51 8.35-75.72 12.55-120.68 16.29-62.1 5.18-141.78-23.8-149-27.85a1.5 1.5 0 0 1-.57-1c-1.31-5.93 5.66-35 17.4-71.89 17.15-53.87 44.48-124.45 71.13-164.14 46.57-69.33 120-155.23 133.5-159.36s91.06-10.35 91.06-10.35c24.62-2.24 49.45 17.18 67.6 38.94 15.53 18.64 26.17 39 27.61 49 3.08 21.71-105.57 302.16-116.96 318.8Z" style="fill:#6cc58d"></path>
    <g style="opacity:.68">
      <path d="M1609.61 1494.89c-3.13 4.59-10.61 8.37-21.09 11.56 17.8-40 36.09-81.93 36.61-86.16 1-8.27-42.43-2.07-110.73 25.88-51.44 21-150.42 39.73-196.15 47.68-1.31-5.93 5.66-35 17.4-71.89 47.84-16 240.85-82 240.85-108.26 0-30 21.73-139.32 21.73-139.32s35.52 49.29 69.33 50-11.38-109.38-11.38-109.38c13.68-2.68 28.25 2 42.76 12 15.53 18.64 26.17 39 27.61 49 3.1 21.8-105.55 302.25-116.94 318.89Z" style="fill:#3e9a83"></path>
    </g>
    <path d="M1333.21 1429.76s106-21.19 184.64-56.38 113.42-67.73 113.42-67.73l19.59 37.07s-50.22 30.66-148.87 69.3-176.47 44.07-176.47 44.07Z" style="fill:#273657"></path>
    <path d="M1913.86 1553.89s11.73 21.63 24.83 30.95 38 7.58 41.74 9.65 13.8 8.63 18.63 8.28 2.07-5.86 2.07-11-23.46-15.86-27.6-18.62-9-12.08-6.9-15.53 20.7-24.79 25.19-25.68 32.42.85 36.56 3.61 16.21 22.42 17.25 23.11 9.31 3.79 9.31-1-6.21-28.28-8.28-33.46-43.81-20.35-48-19.31-40.35 13.11-45.53 14.14-13.8 1-13.8 1Z" style="fill:#ffb2a8"></path>
    <path d="M1919.72 1497.91s27.25 19.32 26.22 26.56-13.8 20-20 32.08-7.93 14.83-12.76 10.35-23.11-16.21-24.15-24.84 17.97-60.06 30.69-44.15Z" style="fill:#abdda8"></path>
    <path d="M1902.83 1543.4c-5.65 5.31-11 9.22-14.84 10.39-13.46 4.14-175.93-124.18-194.56-144.88s-80.71-125.22-97.27-191.45c-11-44.17 19.35-75 40.81-90.63a133.08 133.08 0 0 1 19.21-11.82c56.92-22.76 110.73 217.32 112.8 226.64.23 1 2.35 3.64 6 7.45 28.57 30.26 149.84 136.85 154.43 148.79 3.67 9.66-12.29 32.11-26.58 45.51Z" style="fill:#6cc58d"></path>
    <g style="opacity:.68">
      <path d="M1902.83 1543.4c-5.65 5.31-11 9.22-14.84 10.39-13.46 4.14-175.93-124.18-194.56-144.88s-80.71-125.22-97.27-191.45c-11-44.17 19.35-75 40.81-90.63-16.11 17.21-30.65 40.08-28 65.1 5.52 53.13 104.18 198.35 111.42 199.39s48.64-49.67 48.64-49.67l6 7.45s-24.6 50.48-18.39 57.72c3.82 4.57 85.81 80.68 146.19 136.58Z" style="fill:#3e9a83"></path>
    </g>
    <path d="M2736.37 2463.38c0 24.6-28.73 44.55-64.16 44.55h-46.66c0 29.08-34 52.66-75.83 52.66H1298.35c-41.88 0-75.83-23.58-75.83-52.66h-157.4c0 29.08-33.95 52.66-75.82 52.66H588.84c-41.84 0-75.84-23.59-75.84-52.66H384.11c-35.43 0-64.16-19.95-64.16-44.55h2416.42Z" style="fill:#dfe9f4"></path>
    <ellipse cx="1932.56" cy="2602.01" rx="252.98" ry="20.49" style="fill:#dfe9f4"></ellipse>
    <ellipse cx="1463.53" cy="2605.21" rx="138.34" ry="17.29" style="fill:#dfe9f4"></ellipse>
    <ellipse cx="1123.49" cy="2550.13" rx="67.59" ry="10.46" style="fill:#dfe9f4"></ellipse>
    <rect width="2493.86" height="23.03" x="257.36" y="2446.4" rx="7.2" style="fill:#92b1dd"></rect>
    <rect width="1139.29" height="20.62" x="1282.61" y="2506.63" rx="7.2" style="fill:#92b1dd"></rect>
    <rect width="677.8" height="19.73" x="506.43" y="2507.08" rx="7.03" style="fill:#92b1dd"></rect>
  </g>
</svg>
