<svg xmlns="http://www.w3.org/2000/svg" width="2752.442" height="2309.52" viewBox="123.779 345.249 2752.442 2309.52" id="man-picking-up-delivery-package-from-stores">
  <g id="ground">
    <path d="M900.81 1426.13v980.36l-305.11 8.82-305.1-8.82v-980.36a28.25 28.25 0 0 1 6.71-18.28L574.18 1082a28.23 28.23 0 0 1 43 0l276.87 325.87a28.2 28.2 0 0 1 6.76 18.26Z" style="fill:#f5f5f7"></path>
    <path d="M586.38 1400.62v-63.19a74.75 74.75 0 0 0-64.6 63.19ZM604.91 1400.62h64.71a74.74 74.74 0 0 0-64.71-63.21ZM604.91 1419.15v66.55a74.76 74.76 0 0 0 65.14-66.55ZM586.38 1419.15h-65a74.73 74.73 0 0 0 65 66.53ZM406.35 1673.39h58.46v85.77h-58.46zM339.59 1673.39h53.82v85.77h-53.82zM406.35 1660.45h58.47v-10.94a62.65 62.65 0 0 0-58.47-62.46ZM393.41 1660.45v-72.92a62.61 62.61 0 0 0-53.82 62v10.94ZM406.35 1772.1h58.46v61.88h-58.46zM339.59 1772.1h53.82v61.88h-53.82zM604.54 1673.39H663v85.77h-58.46zM537.78 1673.39h53.82v85.77h-53.82zM604.54 1660.45H663v-10.94a62.63 62.63 0 0 0-58.47-62.46ZM591.6 1660.45v-72.92a62.61 62.61 0 0 0-53.82 62v10.94ZM604.54 1772.1H663v61.88h-58.46zM537.78 1772.1h53.82v61.88h-53.82zM802.74 1673.39h58.46v85.77h-58.46zM735.97 1673.39h53.82v85.77h-53.82zM802.74 1660.45h58.46v-10.94a62.63 62.63 0 0 0-58.46-62.46ZM789.79 1660.45v-72.92a62.61 62.61 0 0 0-53.82 62v10.94ZM802.74 1772.1h58.46v61.88h-58.46zM735.97 1772.1h53.82v61.88h-53.82zM406.35 2038.21h58.46v85.77h-58.46zM339.59 2038.21h53.82v85.77h-53.82zM406.35 2025.27h58.47v-10.94a62.65 62.65 0 0 0-58.47-62.46ZM393.41 2025.27v-72.93a62.63 62.63 0 0 0-53.82 62v10.94ZM406.35 2136.92h58.46v61.88h-58.46zM339.59 2136.92h53.82v61.88h-53.82zM604.54 2038.21H663v85.77h-58.46zM537.78 2038.21h53.82v85.77h-53.82zM604.54 2025.27H663v-10.94a62.63 62.63 0 0 0-58.47-62.46ZM591.6 2025.27v-72.93a62.63 62.63 0 0 0-53.82 62v10.94ZM604.54 2136.92H663v61.88h-58.46zM537.78 2136.92h53.82v61.88h-53.82zM802.74 2038.21h58.46v85.77h-58.46zM735.97 2038.21h53.82v85.77h-53.82zM802.74 2025.27h58.46v-10.94a62.63 62.63 0 0 0-58.46-62.46ZM789.79 2025.27v-72.93a62.63 62.63 0 0 0-53.82 62v10.94ZM802.74 2136.92h58.46v61.88h-58.46zM735.97 2136.92h53.82v61.88h-53.82z" style="fill:#dfe9f4"></path>
    <path d="M1509.59 1426.13v980.36l-305.11 8.82-305.1-8.82v-980.36a28.2 28.2 0 0 1 6.72-18.28L1183 1082a28.23 28.23 0 0 1 43 0l276.87 325.87a28.2 28.2 0 0 1 6.72 18.26Z" style="fill:#f5f5f7"></path>
    <path d="M1195.16 1400.62v-63.19a74.75 74.75 0 0 0-64.6 63.19ZM1213.69 1400.62h64.72a74.76 74.76 0 0 0-64.72-63.21ZM1213.69 1419.15v66.55a74.76 74.76 0 0 0 65.14-66.55ZM1195.16 1419.15h-65a74.73 74.73 0 0 0 65 66.53ZM1015.13 1673.39h58.46v85.77h-58.46zM948.37 1673.39h53.82v85.77h-53.82zM1015.13 1660.45h58.47v-10.94a62.63 62.63 0 0 0-58.47-62.46ZM1002.19 1660.45v-72.92a62.61 62.61 0 0 0-53.82 62v10.94ZM1015.13 1772.1h58.46v61.88h-58.46zM948.37 1772.1h53.82v61.88h-53.82zM1213.33 1673.39h58.46v85.77h-58.46zM1146.56 1673.39h53.82v85.77h-53.82zM1213.33 1660.45h58.46v-10.94a62.63 62.63 0 0 0-58.46-62.46ZM1200.38 1660.45v-72.92a62.61 62.61 0 0 0-53.82 62v10.94ZM1213.33 1772.1h58.46v61.88h-58.46zM1146.56 1772.1h53.82v61.88h-53.82zM1411.52 1673.39h58.46v85.77h-58.46zM1344.76 1673.39h53.82v85.77h-53.82zM1411.52 1660.45H1470v-10.94a62.63 62.63 0 0 0-58.46-62.46ZM1398.57 1660.45v-72.92a62.6 62.6 0 0 0-53.81 62v10.94ZM1411.52 1772.1h58.46v61.88h-58.46zM1344.76 1772.1h53.82v61.88h-53.82zM1015.13 2038.21h58.46v85.77h-58.46zM948.37 2038.21h53.82v85.77h-53.82zM1015.13 2025.27h58.47v-10.94a62.63 62.63 0 0 0-58.47-62.46ZM1002.19 2025.27v-72.93a62.63 62.63 0 0 0-53.82 62v10.94ZM1015.13 2136.92h58.46v61.88h-58.46zM948.37 2136.92h53.82v61.88h-53.82zM1213.33 2038.21h58.46v85.77h-58.46zM1146.56 2038.21h53.82v85.77h-53.82zM1213.33 2025.27h58.46v-10.94a62.63 62.63 0 0 0-58.46-62.46ZM1200.38 2025.27v-72.93a62.63 62.63 0 0 0-53.82 62v10.94ZM1213.33 2136.92h58.46v61.88h-58.46zM1146.56 2136.92h53.82v61.88h-53.82zM1411.52 2038.21h58.46v85.77h-58.46zM1344.76 2038.21h53.82v85.77h-53.82zM1411.52 2025.27H1470v-10.94a62.63 62.63 0 0 0-58.46-62.46ZM1398.57 2025.27v-72.93a62.62 62.62 0 0 0-53.81 62v10.94ZM1411.52 2136.92h58.46v61.88h-58.46zM1344.76 2136.92h53.82v61.88h-53.82z" style="fill:#dfe9f4"></path>
    <path d="M2114.55 1426.13v980.36l-305.1 8.82-305.11-8.82v-980.36a28.2 28.2 0 0 1 6.72-18.28L1787.93 1082a28.23 28.23 0 0 1 43 0l276.86 325.87a28.2 28.2 0 0 1 6.76 18.26Z" style="fill:#f5f5f7"></path>
    <path d="M1800.12 1400.62v-63.19a74.75 74.75 0 0 0-64.6 63.19ZM1818.65 1400.62h64.72a74.76 74.76 0 0 0-64.72-63.21ZM1818.65 1419.15v66.55a74.76 74.76 0 0 0 65.14-66.55ZM1800.12 1419.15h-65a74.73 74.73 0 0 0 65 66.53ZM1620.09 1673.39h58.46v85.77h-58.46zM1553.33 1673.39h53.82v85.77h-53.82zM1620.09 1660.45h58.47v-10.94a62.63 62.63 0 0 0-58.47-62.46ZM1607.15 1660.45v-72.92a62.61 62.61 0 0 0-53.82 62v10.94ZM1620.09 1772.1h58.46v61.88h-58.46zM1553.33 1772.1h53.82v61.88h-53.82zM1818.29 1673.39h58.46v85.77h-58.46zM1751.53 1673.39h53.82v85.77h-53.82zM1818.29 1660.45h58.46v-10.94a62.63 62.63 0 0 0-58.46-62.46ZM1805.34 1660.45v-72.92a62.6 62.6 0 0 0-53.81 62v10.94ZM1818.29 1772.1h58.46v61.88h-58.46zM1751.53 1772.1h53.82v61.88h-53.82zM2016.48 1673.39h58.46v85.77h-58.46zM1949.72 1673.39h53.82v85.77h-53.82zM2016.48 1660.45h58.46v-10.94a62.63 62.63 0 0 0-58.46-62.46ZM2003.54 1660.45v-72.92a62.61 62.61 0 0 0-53.82 62v10.94ZM2016.48 1772.1h58.46v61.88h-58.46zM1949.72 1772.1h53.82v61.88h-53.82zM1620.09 2038.21h58.46v85.77h-58.46zM1553.33 2038.21h53.82v85.77h-53.82zM1620.09 2025.27h58.47v-10.94a62.63 62.63 0 0 0-58.47-62.46ZM1607.15 2025.27v-72.93a62.63 62.63 0 0 0-53.82 62v10.94ZM1620.09 2136.92h58.46v61.88h-58.46zM1553.33 2136.92h53.82v61.88h-53.82zM1818.29 2038.21h58.46v85.77h-58.46zM1751.53 2038.21h53.82v85.77h-53.82zM1818.29 2025.27h58.46v-10.94a62.63 62.63 0 0 0-58.46-62.46ZM1805.34 2025.27v-72.93a62.62 62.62 0 0 0-53.81 62v10.94ZM1818.29 2136.92h58.46v61.88h-58.46zM1751.53 2136.92h53.82v61.88h-53.82zM2016.48 2038.21h58.46v85.77h-58.46zM1949.72 2038.21h53.82v85.77h-53.82zM2016.48 2025.27h58.46v-10.94a62.63 62.63 0 0 0-58.46-62.46ZM2003.54 2025.27v-72.93a62.63 62.63 0 0 0-53.82 62v10.94ZM2016.48 2136.92h58.46v61.88h-58.46zM1949.72 2136.92h53.82v61.88h-53.82z" style="fill:#dfe9f4"></path>
    <path d="M2717.1 1426.13v980.36l-305.1 8.82-305.11-8.82v-980.36a28.2 28.2 0 0 1 6.72-18.28L2390.48 1082a28.23 28.23 0 0 1 43 0l276.87 325.87a28.25 28.25 0 0 1 6.75 18.26Z" style="fill:#f5f5f7"></path>
    <path d="M2402.67 1400.62v-63.19a74.73 74.73 0 0 0-64.59 63.19ZM2421.2 1400.62h64.72a74.75 74.75 0 0 0-64.72-63.21ZM2421.2 1419.15v66.55a74.75 74.75 0 0 0 65.14-66.55ZM2402.67 1419.15h-65a74.75 74.75 0 0 0 65 66.53ZM2222.65 1673.39h58.46v85.77h-58.46zM2155.89 1673.39h53.82v85.77h-53.82zM2222.65 1660.45h58.46v-10.94a62.63 62.63 0 0 0-58.46-62.46ZM2209.7 1660.45v-72.92a62.6 62.6 0 0 0-53.81 62v10.94ZM2222.65 1772.1h58.46v61.88h-58.46zM2155.89 1772.1h53.82v61.88h-53.82zM2420.84 1673.39h58.46v85.77h-58.46zM2354.08 1673.39h53.82v85.77h-53.82zM2420.84 1660.45h58.46v-10.94a62.63 62.63 0 0 0-58.46-62.46ZM2407.9 1660.45v-72.92a62.61 62.61 0 0 0-53.82 62v10.94ZM2420.84 1772.1h58.46v61.88h-58.46zM2354.08 1772.1h53.82v61.88h-53.82zM2619.03 1673.39h58.46v85.77h-58.46zM2552.27 1673.39h53.82v85.77h-53.82zM2619 1660.45h58.47v-10.94a62.65 62.65 0 0 0-58.47-62.46ZM2606.09 1660.45v-72.92a62.61 62.61 0 0 0-53.82 62v10.94ZM2619.03 1772.1h58.46v61.88h-58.46zM2552.27 1772.1h53.82v61.88h-53.82zM2222.65 2038.21h58.46v85.77h-58.46zM2155.89 2038.21h53.82v85.77h-53.82zM2222.65 2025.27h58.46v-10.94a62.63 62.63 0 0 0-58.46-62.46ZM2209.7 2025.27v-72.93a62.62 62.62 0 0 0-53.81 62v10.94ZM2222.65 2136.92h58.46v61.88h-58.46zM2155.89 2136.92h53.82v61.88h-53.82zM2420.84 2038.21h58.46v85.77h-58.46zM2354.08 2038.21h53.82v85.77h-53.82zM2420.84 2025.27h58.46v-10.94a62.63 62.63 0 0 0-58.46-62.46ZM2407.9 2025.27v-72.93a62.63 62.63 0 0 0-53.82 62v10.94ZM2420.84 2136.92h58.46v61.88h-58.46zM2354.08 2136.92h53.82v61.88h-53.82zM2619.03 2038.21h58.46v85.77h-58.46zM2552.27 2038.21h53.82v85.77h-53.82zM2619 2025.27h58.47v-10.94a62.65 62.65 0 0 0-58.47-62.46ZM2606.09 2025.27v-72.93a62.63 62.63 0 0 0-53.82 62v10.94ZM2619.03 2136.92h58.46v61.88h-58.46zM2552.27 2136.92h53.82v61.88h-53.82z" style="fill:#dfe9f4"></path>
    <path d="M295 2397.6s-51-27-39.67-54.26S295 2358 295 2358s-30.7-84.11 22.67-88.41 46.33 76.88 46.33 76.88 39.79-31.51 48.86-17.91 0 37 0 37 29.93-16.31 32.53 0-15.53 38.62-15.53 38.62ZM956.94 2395.27s-57.8-56-29.47-72.68 47.61 28.5 47.61 28.5-44.21-83.09-9.08-101.55 53.27 43.55 53.27 43.55-1.13-30.84 12.47-26 6.8 26 6.8 26 4.53-49 48.74-47 21.53 69.06 21.53 69.06 23.81-25.15 34-7 0 35.18 0 35.18 44.2-27.16 58.94 0a52.34 52.34 0 0 1 0 50.61ZM2295 857.18v1095a83.31 83.31 0 0 1-83.31 83.31H654.19a83.31 83.31 0 0 1-83.32-83.31v-1095a83.31 83.31 0 0 1 83.32-83.31H2211.7a83.31 83.31 0 0 1 83.3 83.31Z" style="fill:#cedbee"></path>
    <path d="M2250.81 889.64v1030.1c0 43.29-35.39 78.38-79 78.38H694.12c-43.66 0-79-35.09-79-78.38V889.64c0-43.28 35.39-78.37 79-78.37h1477.65c43.65 0 79.04 35.09 79.04 78.37Z" style="fill:#f5f5f7"></path>
    <path d="M2295 1828.08v124.13a83.31 83.31 0 0 1-83.31 83.31H654.19a83.31 83.31 0 0 1-83.32-83.31v-124.13ZM615.07 1796.54h1635.74v31.54H615.07z" style="fill:#cedbee"></path>
    <circle cx="1419.55" cy="1902.9" r="28.9" style="fill:#fff"></circle>
    <path d="M1760.15 1111.91v605.53a34.43 34.43 0 0 1-34.43 34.42h-1001a34.43 34.43 0 0 1-34.43-34.42v-605.53a34.42 34.42 0 0 1 34.43-34.42h1001a34.42 34.42 0 0 1 34.43 34.42Z" style="fill:#cedbee"></path>
    <path d="M1704.25 1098.67h-958c-18.19 0-33 14.44-33 32.26v184.29H1737.2v-184.29c0-17.82-14.76-32.26-32.95-32.26ZM713.26 1332.88H1737.2v178.3H713.26zM1737.2 1528.84v169.58c0 17.82-14.76 32.26-33 32.26h-958c-18.2 0-33-14.44-33-32.26v-169.58Z" style="fill:#aec6d3"></path>
    <rect width="211.86" height="19.15" x="778.84" y="1296.07" rx="6.8" style="fill:#cedbee"></rect>
    <path d="M786.84 1296.07s6.51-89.12 97.93-89.12 94.94 89.12 94.94 89.12Z" style="fill:#dfe9f4"></path>
    <ellipse cx="874.86" cy="1228.88" rx="9.91" ry="3.24" style="fill:#92b1dd"></ellipse>
    <ellipse cx="906.74" cy="1241.54" rx="14.71" ry="6.47" style="fill:#92b1dd"></ellipse>
    <ellipse cx="844.36" cy="1246.52" rx="11.18" ry="4.99" style="fill:#92b1dd"></ellipse>
    <rect width="211.86" height="19.15" x="1047.54" y="1296.07" rx="6.8" style="fill:#cedbee"></rect>
    <path d="M1055.55 1296.07s6.5-89.12 97.92-89.12 94.94 89.12 94.94 89.12Z" style="fill:#dfe9f4"></path>
    <ellipse cx="1143.56" cy="1228.88" rx="9.91" ry="3.24" style="fill:#92b1dd"></ellipse>
    <ellipse cx="1175.44" cy="1241.54" rx="14.71" ry="6.47" style="fill:#92b1dd"></ellipse>
    <ellipse cx="1113.06" cy="1246.52" rx="11.18" ry="4.99" style="fill:#92b1dd"></ellipse>
    <rect width="211.86" height="19.15" x="1316.24" y="1296.07" rx="6.8" style="fill:#cedbee"></rect>
    <path d="M1324.25 1296.07s6.51-89.12 97.92-89.12 94.94 89.12 94.94 89.12Z" style="fill:#dfe9f4"></path>
    <ellipse cx="1412.26" cy="1228.88" rx="9.91" ry="3.24" style="fill:#92b1dd"></ellipse>
    <ellipse cx="1444.14" cy="1241.54" rx="14.71" ry="6.47" style="fill:#92b1dd"></ellipse>
    <ellipse cx="1381.76" cy="1246.52" rx="11.18" ry="4.99" style="fill:#92b1dd"></ellipse>
    <rect width="191.46" height="62.89" x="773.34" y="1448.29" rx="26.6" style="fill:#dfe9f4"></rect>
    <path d="M830.23 1448.29s-33 28.06-19.42 28.06 34.72-28.06 34.72-28.06h25.9s-27.07 30.72-17.07 31.45 34.13-31.45 34.13-31.45h22.37s-23 26.88-17.66 28.06 34.13-28.06 34.13-28.06Z" style="fill:#cedbee"></path>
    <rect width="191.46" height="62.89" x="1010.16" y="1448.29" rx="26.6" style="fill:#dfe9f4"></rect>
    <path d="M1067.05 1448.29s-33 28.06-19.42 28.06 34.72-28.06 34.72-28.06h25.89s-27.07 30.72-17.06 31.45 34.13-31.45 34.13-31.45h22.36s-23 26.88-17.65 28.06 34.13-28.06 34.13-28.06Z" style="fill:#cedbee"></path>
    <rect width="191.46" height="62.89" x="1246.98" y="1448.29" rx="26.6" style="fill:#dfe9f4"></rect>
    <path d="M1303.87 1448.29s-33 28.06-19.42 28.06 34.72-28.06 34.72-28.06h25.89S1318 1479 1328 1479.74s34.13-31.45 34.13-31.45h22.36s-23 26.88-17.65 28.06 34.13-28.06 34.13-28.06Z" style="fill:#cedbee"></path>
    <rect width="422.78" height="72.49" x="778.84" y="1658.19" rx="30.66" style="fill:#dfe9f4"></rect>
    <path d="M849.85 1658.19s-28.22 25.5-22.43 27.07 45.58-27.07 45.58-27.07ZM904.18 1658.19s-28.21 25.5-22.42 27.07 45.57-27.07 45.57-27.07ZM958.52 1658.19s-28.21 25.5-22.43 27.07 45.58-27.07 45.58-27.07ZM1012.86 1658.19s-28.22 25.5-22.43 27.07 45.58-27.07 45.58-27.07ZM1067.2 1658.19s-28.22 25.5-22.43 27.07 45.58-27.07 45.58-27.07ZM1121.53 1658.19s-28.21 25.5-22.42 27.07 45.57-27.07 45.57-27.07Z" style="fill:#cedbee"></path>
    <rect width="330.93" height="59.36" x="826.64" y="1598.83" rx="23.54" style="fill:#cedbee"></rect>
    <path d="M882.22 1598.83s-22.09 20.88-17.56 22.17 35.68-22.17 35.68-22.17ZM924.75 1598.83s-22.08 20.88-17.55 22.17 35.67-22.17 35.67-22.17ZM967.28 1598.83s-22.08 20.88-17.55 22.17 35.67-22.17 35.67-22.17ZM1009.82 1598.83s-22.09 20.88-17.56 22.17 35.68-22.17 35.68-22.17ZM1052.35 1598.83s-22.09 20.88-17.56 22.17 35.68-22.17 35.68-22.17ZM1094.88 1598.83s-22.08 20.88-17.55 22.17 35.67-22.17 35.67-22.17Z" style="fill:#aec6d3"></path>
    <path d="M1414.22 1640.71c5-16.84 2.62-32.35-6.6-43.65s-23.92-16.71-41.4-15.24c-11.86 1-24.09 5.13-35.5 11.88-11.41-6.75-23.63-10.89-35.5-11.88-17.48-1.47-32.18 3.94-41.4 15.24s-11.56 26.81-6.59 43.65c4.63 15.72 15.23 30.92 29.84 42.83a98.14 98.14 0 0 0 23.75 14.42l-39.19 28.83a8.39 8.39 0 0 0-2.89 3.89h25.5l36.73-27c1.36.2 2.72.37 4.08.49 1.88.15 3.72.23 5.53.23h.28c1.82 0 3.66-.08 5.53-.23 1.64-.15 3.26-.36 4.89-.61l36.89 27.14h25.51a8.49 8.49 0 0 0-2.9-3.89l-39.54-29.09a99.22 99.22 0 0 0 23.15-14.16c14.61-11.93 25.2-27.13 29.83-42.85Zm-125.83 4.53a55.17 55.17 0 0 0-1.88 24.65c-11.53-9.67-19.84-21.66-23.42-33.87-3.39-11.44-2.12-21.57 3.53-28.51 5-6.13 13.12-9.41 23.12-9.41 1.35 0 2.71.06 4.11.18a64.78 64.78 0 0 1 22 6.17c-13.39 11.55-23.08 25.96-27.46 40.79Zm65.25 33.2c-4.94 6.07-12.82 9.12-22 9.33h-1.79c-9.19-.21-17.08-3.26-22-9.33-3.64-4.46-5.35-10.15-5.35-16.45 0-14.93 9.64-33.25 26.23-46.77l2-1.62c.69.53 1.37 1.07 2 1.62 23.62 19.22 33.18 48.17 20.91 63.22Zm21.29-8.55a54.89 54.89 0 0 0-1.88-24.65c-4.36-14.83-14.07-29.2-27.41-40.79a64.67 64.67 0 0 1 22-6.17c11.88-1 21.55 2.28 27.21 9.23s6.94 17.07 3.56 28.51c-3.65 12.21-11.94 24.2-23.48 33.87ZM1634.7 1640.71c5-16.84 2.63-32.35-6.58-43.65s-23.94-16.71-41.41-15.24c-11.86 1-24.1 5.13-35.5 11.88-11.4-6.75-23.63-10.89-35.5-11.88-17.47-1.47-32.19 3.94-41.41 15.24s-11.56 26.81-6.58 43.65c4.63 15.72 15.22 30.92 29.83 42.83a98.72 98.72 0 0 0 23.75 14.46l-39.18 28.83a8.35 8.35 0 0 0-2.9 3.89h25.51l36.72-27c1.36.2 2.73.37 4.08.49 1.89.15 3.73.23 5.53.23h.29c1.82 0 3.66-.08 5.53-.23 1.63-.15 3.26-.36 4.9-.61l36.88 27.14h25.5a8.22 8.22 0 0 0-2.9-3.89l-39.53-29.09a98.55 98.55 0 0 0 23.14-14.16c14.61-11.97 25.21-27.17 29.83-42.89Zm-125.81 4.53a54.9 54.9 0 0 0-1.89 24.65c-11.53-9.67-19.84-21.66-23.43-33.87-3.38-11.44-2.12-21.57 3.56-28.51 5-6.13 13.11-9.41 23.11-9.41 1.33 0 2.69.06 4.1.18a64.73 64.73 0 0 1 22 6.17c-13.4 11.55-23.09 25.96-27.45 40.79Zm65.25 33.2c-5 6.07-12.84 9.12-22 9.33h-1.77c-9.21-.21-17.09-3.26-22-9.33-3.65-4.46-5.37-10.16-5.37-16.46 0-14.92 9.66-33.25 26.24-46.76l2-1.62c.68.53 1.37 1.07 2 1.62 23.59 19.22 33.17 48.17 20.9 63.22Zm21.27-8.55a54.61 54.61 0 0 0-1.88-24.65c-4.36-14.83-14-29.2-27.41-40.79a64.65 64.65 0 0 1 22-6.17c11.87-1 21.54 2.28 27.22 9.23s6.92 17.07 3.54 28.51c-3.62 12.21-11.88 24.2-23.47 33.87ZM1642.53 1441.19h-133s-3.65-33.07 19.18-53.29c10-8.91 25.26-15.33 48.16-15.33 48 0 61.46 28.2 64.92 48.44a74.13 74.13 0 0 1 .74 20.18Z" style="fill:#dfe9f4"></path>
    <path d="M1642.53 1441.19h-133s-3.65-33.07 19.18-53.29c-5.34 14.77-8.47 30.69 1.34 33.5 13.11 3.77 74.68-4.24 111.74-.39a74.13 74.13 0 0 1 .74 20.18Z" style="fill:#cedbee"></path>
    <circle cx="1555.4" cy="1384.36" r="3.79" style="fill:#92b1dd"></circle>
    <ellipse cx="1583.18" cy="1386.87" rx="8.84" ry="4.23" style="fill:#92b1dd"></ellipse>
    <ellipse cx="1610.33" cy="1398.46" rx="4.42" ry="3.16" style="fill:#92b1dd"></ellipse>
    <ellipse cx="1533.26" cy="1398.46" rx="6.99" ry="3.16" style="fill:#92b1dd"></ellipse>
    <ellipse cx="1557.09" cy="1401.1" rx="9.26" ry="5.79" style="fill:#92b1dd"></ellipse>
    <ellipse cx="1581.08" cy="1407.3" rx="6.74" ry="3.16" style="fill:#92b1dd"></ellipse>
    <ellipse cx="1605.81" cy="1383.72" rx="4.52" ry="3.14" style="fill:#92b1dd"></ellipse>
    <path d="M1517.52 1511.18s-20.2-75-15.57-76.73 143.11-2.94 145.21 1.69-9.26 75-9.26 75Z" style="fill:#dfe9f4"></path>
    <path d="m1526.27 1433.36 10.19 77.82h3.79l-6.99-78.26-6.99.44zM1621.74 1433.36l-10.19 77.82h-3.78l6.98-78.26 6.99.44zM1569.29 1432.92l2.11 78.26h4.71l2.03-78.25-8.85-.01z" style="fill:#cedbee"></path>
    <g style="opacity:.35">
      <path d="M1760.15 1111.91v80.39a79.07 79.07 0 0 1-11.76-41.6 79.35 79.35 0 1 1-158.69 0 79.34 79.34 0 1 1-158.67 0 79.32 79.32 0 0 1-74.73 79.22c-1.52.1-3.06.15-4.61.15a79.35 79.35 0 0 1-79.35-79.37 79.34 79.34 0 1 1-158.68 0 79.34 79.34 0 1 1-158.68 0 79.33 79.33 0 0 1-70.44 78.86 76.94 76.94 0 0 1-8.9.51 80.12 80.12 0 0 1-10.58-.7 79.33 79.33 0 0 1-68.76-78.67 79.34 79.34 0 0 1-79.3 79.37c-1.24 0-2.47 0-3.7-.1a78.26 78.26 0 0 1-23-4.49v-113.57a34.42 34.42 0 0 1 34.43-34.42h1001a34.42 34.42 0 0 1 34.42 34.42Z" style="fill:#7394bc"></path>
    </g>
    <path d="M1270.63 2035.52h297.83v279.65h-297.83z" style="fill:#aec6d3"></path>
    <rect width="452.9" height="71.84" x="1184.36" y="2315.17" rx="21.18" style="fill:#92b1dd"></rect>
    <path d="M1270.63 2035.52h297.83v58.53h-297.83z" style="fill:#92b1dd"></path>
    <rect width="338.48" height="228.96" x="1806.62" y="1235.06" rx="12" style="fill:#cedbee"></rect>
    <path d="M2133.1 1468.52h-314.48a16.51 16.51 0 0 1-16.5-16.49v-205a16.52 16.52 0 0 1 16.5-16.5h314.48a16.52 16.52 0 0 1 16.5 16.5v205a16.51 16.51 0 0 1-16.5 16.49Zm-314.48-229a7.51 7.51 0 0 0-7.5 7.5v205a7.5 7.5 0 0 0 7.5 7.49h314.48a7.5 7.5 0 0 0 7.5-7.49v-205a7.51 7.51 0 0 0-7.5-7.5Z" style="fill:#aec6d3"></path>
    <path d="m2058.84 1275.66-7.23 24.31c-.16-.24-.3-.47-.47-.69a12.83 12.83 0 0 0-10.29-5.09H1905a12.93 12.93 0 0 0-12.58 15.91l15.66 66.07a12.9 12.9 0 0 0 12.59 9.95h97.72v16.78h-92.52v5.73H1938a10.26 10.26 0 1 0 18.39 0H1989a10.11 10.11 0 0 0-1.07 4.53 10.26 10.26 0 0 0 20.52 0 10.11 10.11 0 0 0-1.07-4.53h16.76V1386a13 13 0 0 0 11.09-9.42l18.13-66.07a10.94 10.94 0 0 0 .23-1.11l8.69-29.19h18.52v-4.58Zm-12.25 27.09a7.17 7.17 0 0 1 1.22 6.28l-3.7 13.47h-41.27l3.5-22.59h34.51a7.16 7.16 0 0 1 5.74 2.84Zm-93.59 52.84-4.8-27.36h48l-4.24 27.36Zm38.06 5.73-3 19.07h-30.76l-3.34-19.07Zm-88.43-33.09h39.76l4.79 27.36h-38.06Zm44.56-5.73-4-22.59h57.35l-3.5 22.59Zm-47.81-19.85a7.15 7.15 0 0 1 5.65-2.74h32.39l4 22.59h-39.43v2.86l-3.93-16.58a7.12 7.12 0 0 1 1.29-6.13Zm14.3 72.2-3.21-13.53h37.72l3.34 19.07h-30.83a7.19 7.19 0 0 1-7.05-5.54Zm116 .24a7.23 7.23 0 0 1-7 5.3h-28.87l3-19.07h36.64Zm4.56-16.64v-2.86h-36.53l4.24-27.36h40.59Z" style="fill:#fff"></path>
    <path d="M637.62 1041.66v67.07a79.35 79.35 0 1 1-158.69 0v-67.07ZM955 1041.66v67.07a79.34 79.34 0 1 1-158.68 0v-67.07ZM1272.35 1041.66v67.07a79.35 79.35 0 1 1-158.69 0v-67.07ZM1589.71 1041.66v67.07a79.34 79.34 0 1 1-158.68 0v-67.07ZM1907.08 1041.66v67.07a79.35 79.35 0 1 1-158.69 0v-67.07ZM2224.44 1041.66v67.07a79.34 79.34 0 1 1-158.68 0v-67.07Z" style="fill:#cedbee"></path>
    <path d="M796.3 1041.66v67.07a79.34 79.34 0 1 1-158.68 0v-67.07ZM1113.66 1041.66v67.07a79.34 79.34 0 1 1-158.68 0v-67.07ZM1431 1041.66v67.07a79.34 79.34 0 1 1-158.68 0v-67.07ZM1748.39 1041.66v67.07a79.34 79.34 0 1 1-158.68 0v-67.07ZM2065.76 1041.66v67.07a79.34 79.34 0 1 1-158.68 0v-67.07ZM2383.12 1041.66v67.07a79.34 79.34 0 1 1-158.68 0v-67.07Z" style="fill:#aec6d3"></path>
    <path d="M1431.03 811.27v230.39-230.39zM1580.11 811.27l9.6 230.39h158.68l-11.87-230.39h-156.41zM1857.22 811.27l49.86 230.39h158.68l-79.34-230.39h-129.2zM2252.51 850.28a89.42 89.42 0 0 0-73.85-39h-83.42l129.2 230.38h158.68ZM766.82 811.27l-129.2 230.39H796.3l79.34-230.39H766.82zM1004.83 811.27l-49.85 230.39h158.68l11.88-230.39h-120.71zM1281.94 811.27l-9.59 230.39h158.68V811.27h-149.09z" style="fill:#cedbee"></path>
    <path d="m1125.54 811.27-11.88 230.39h158.69l9.59-230.39h-156.4zM683.39 811.28a89.42 89.42 0 0 0-73.85 39l-130.61 191.38h158.69l129.2-230.38ZM875.64 811.27l-79.34 230.39h158.68l49.85-230.39H875.64zM1986.42 811.27l79.34 230.39h158.68l-129.2-230.39h-108.82zM1736.52 811.27l11.87 230.39h158.69l-49.86-230.39h-120.7zM1431.03 811.27v230.39h158.68l-9.6-230.39h-149.08z" style="fill:#f5f5f7"></path>
    <path d="M633.62 1045.66v63.07a75.35 75.35 0 1 1-150.69 0v-63.07h150.69m4-4H478.93v67.07a79.35 79.35 0 1 0 158.69 0v-67.07ZM951 1045.66v63.07a75.34 75.34 0 1 1-150.68 0v-63.07H951m4-4H796.3v67.07a79.34 79.34 0 1 0 158.68 0v-67.07ZM1268.35 1045.66v63.07a75.35 75.35 0 1 1-150.69 0v-63.07h150.69m4-4h-158.69v67.07a79.35 79.35 0 1 0 158.69 0v-67.07ZM1585.71 1045.66v63.07a75.34 75.34 0 1 1-150.68 0v-63.07h150.68m4-4H1431v67.07a79.34 79.34 0 1 0 158.68 0v-67.07ZM1903.08 1045.66v63.07a75.35 75.35 0 1 1-150.69 0v-63.07h150.69m4-4h-158.69v67.07a79.35 79.35 0 1 0 158.69 0v-67.07ZM2220.44 1045.66v63.07a75.34 75.34 0 1 1-150.68 0v-63.07h150.68m4-4h-158.68v67.07a79.34 79.34 0 1 0 158.68 0v-67.07Z" style="fill:#aec6d3"></path>
    <path d="M792.3 1045.66v63.07a75.34 75.34 0 1 1-150.68 0v-63.07H792.3m4-4H637.62v67.07a79.34 79.34 0 1 0 158.68 0v-67.07ZM1109.66 1045.66v63.07a75.34 75.34 0 1 1-150.68 0v-63.07h150.68m4-4H955v67.07a79.34 79.34 0 1 0 158.68 0v-67.07ZM1427 1045.66v63.07a75.34 75.34 0 1 1-150.68 0v-63.07H1427m4-4h-158.65v67.07a79.34 79.34 0 1 0 158.68 0v-67.07ZM1744.39 1045.66v63.07a75.34 75.34 0 1 1-150.68 0v-63.07h150.68m4-4h-158.68v67.07a79.34 79.34 0 1 0 158.68 0v-67.07ZM2061.76 1045.66v63.07a75.34 75.34 0 1 1-150.68 0v-63.07h150.68m4-4h-158.68v67.07a79.34 79.34 0 1 0 158.68 0v-67.07ZM2379.12 1045.66v63.07a75.34 75.34 0 1 1-150.68 0v-63.07h150.68m4-4h-158.68v67.07a79.34 79.34 0 1 0 158.68 0v-67.07ZM1431.03 811.27v230.39-230.39zM1732.72 815.28l11.46 222.38h-150.63l-9.27-222.38h148.44m3.8-4h-156.41l9.6 230.38h158.68l-11.87-230.38ZM1983.56 815.28l76.59 222.38H1910.3l-48.12-222.38h121.38m2.86-4h-129.2l49.86 230.38h158.68l-79.34-230.38ZM2178.66 815.28a85.34 85.34 0 0 1 70.54 37.26l126.35 185.12h-148.77l-124.71-222.38h76.59m0-4h-83.42l129.2 230.38h158.68l-130.61-191.38a89.42 89.42 0 0 0-73.85-39ZM870 815.28l-76.58 222.38h-149l124.74-222.38H870m5.61-4H766.82l-129.2 230.38H796.3l79.34-230.38ZM1121.33 815.28l-11.47 222.38H959.94l48.12-222.38h113.27m4.21-4h-120.71L955 1041.66h158.68l11.88-230.38ZM1427 815.28v222.38h-150.48l9.26-222.38H1427m4-4h-149l-9.6 230.38H1431V811.28Z" style="fill:#aec6d3"></path>
    <path d="m1277.78 815.28-9.27 222.38h-150.64l11.47-222.38h148.44m4.17-4h-156.41l-11.88 230.38h158.69l9.6-230.38ZM760 815.28l-124.73 222.38H486.5l126.35-185.12a85.34 85.34 0 0 1 70.54-37.26H760m6.83-4h-83.44a89.42 89.42 0 0 0-73.85 39l-130.61 191.38h158.69l129.2-230.38ZM999.87 815.28l-48.12 222.38H801.91l76.58-222.38h121.38m5-4H875.64l-79.34 230.38H955l49.85-230.38ZM2092.89 815.28l124.72 222.38h-149L1992 815.28h100.87m2.35-4h-108.8l79.34 230.38h158.68l-129.2-230.38ZM1854 815.28l48.12 222.38h-149.93l-11.46-222.38H1854m3.22-4h-120.7l11.87 230.38h158.69l-49.86-230.38ZM1576.27 815.28l9.27 222.38H1435V815.28h141.24m3.84-4H1431v230.38h158.68l-9.6-230.38Z" style="fill:#aec6d3"></path>
    <path d="M1841.06 576.76h-242.62a171.5 171.5 0 0 0-331 0H1021a41.35 41.35 0 0 0-41.35 41.35v151.81a41.35 41.35 0 0 0 41.35 41.35h820.07a41.35 41.35 0 0 0 41.35-41.35V618.11a41.35 41.35 0 0 0-41.36-41.35Z" style="fill:#cedbee"></path>
    <path d="M1021 793.54a23.64 23.64 0 0 1-23.62-23.62V618.11a23.64 23.64 0 0 1 23.62-23.62h260l3.55-13.1a153.76 153.76 0 0 1 296.76 0l3.55 13.1h256.19a23.65 23.65 0 0 1 23.62 23.62v151.81a23.65 23.65 0 0 1-23.62 23.62Z" style="fill:#fff"></path>
    <path d="M1474.94 670.71c-3.61 25.28-1.7 51.06.2 66.63l14 2.06c13.34 2 32.31-.79 39.35-2 4.27-24.57 16.22-71.13 46.06-79.52-.23-6.15-1.64-14.65-6.07-25.28-7.32-17.57-36.77-29.39-51.21-34.24-13.27 14.13-38.27 43.89-42.33 72.35ZM1289.41 666.05a254.64 254.64 0 0 0-16.2 29.27c-12.73 26.45-1.47 43.1 13.22 51.92 11.49 6.89 36.74-5.37 47.22-11-24.78-17.58-37.65-46.07-44.24-70.19ZM1341.06 729.45q6 4 11.29 7.77c1.45.14 3 .22 4.61.22 6.67 0 14-2.57 18.89-4.67-9.14-16.66-20.58-42-22.95-68.18-2.46-27.08 5.61-60.06 12.37-81.86-7.27-.65-20.57 1.32-41.13 15.62a67.35 67.35 0 0 0-29.06 47.91c4.61 25.09 16.34 63.46 45.98 83.19Z" style="fill:#cedbee"></path>
    <path d="M1465.24 669.33c4.34-30.34 29-60.64 43.41-76.08-2.43-8.27-13.92-33.34-64.52-37-39.46-2.86-58 10-66.2 19.35-6.69 19.73-18 58.42-15.28 88.12 2.48 27.31 16 54.49 25 69.89 8.53 4.49 24.54 11.69 39.41 11.69 14.35 0 29.72-3.68 38.42-6.15-2.03-16.03-4.09-42.89-.24-69.82ZM1573.43 669.37s.08-.24.21-.68c-22.26 10-32 50.19-35.58 71.43 8.55 3.64 23.64 8.78 35.86 6.14 18.12-3.92 25.95-13.71 24-34.28s-24.49-42.61-24.49-42.61Z" style="fill:#cedbee"></path>
    <path d="M2255.31 1835.31H610.57v-38.77a4.5 4.5 0 0 1 9 0v29.77h1626.74v-29.77a4.5 4.5 0 0 1 9 0ZM1576.1 1993.07H647.52a4.5 4.5 0 0 1 0-9h928.58a4.5 4.5 0 0 1 0 9ZM2145.1 1993.3h-495.77a4.5 4.5 0 0 1 0-9h495.77a4.5 4.5 0 0 1 0 9Z" style="fill:#aec6d3"></path>
    <path d="m1782.82 2367.21-34.76-94.08 91.1 41.95 2.64-5.75-91.1-41.94 94.08-34.76-2.19-5.93-94.08 34.76 41.94-91.1-5.74-2.65-41.94 91.1-34.76-94.07-5.93 2.19 34.75 94.07-91.09-41.94-2.65 5.75 91.1 41.94-94.07 34.76 2.19 5.93 94.07-34.76-41.94 91.1 5.74 2.64 41.95-91.09 34.75 94.07 5.94-2.19z" style="fill:#92b1dd"></path>
    <path d="M1850.37 2263.91h-100.29l70.92-70.92-4.47-4.47-70.92 70.91v-100.29h-6.32v100.29l-70.92-70.91-4.47 4.47 70.91 70.92h-100.29v6.32h100.29l-70.91 70.92 4.47 4.47 70.92-70.92v100.29h6.32V2274.7l70.92 70.92 4.47-4.47-70.92-70.92h100.29v-6.32z" style="fill:#aec6d3"></path>
    <path d="M1742.45 2131.32A134.7 134.7 0 1 0 1877.14 2266a134.7 134.7 0 0 0-134.69-134.68Zm0 233.76a99.07 99.07 0 1 1 99.06-99.06 99.07 99.07 0 0 1-99.06 99.06Z" style="fill:#343468"></path>
    <circle cx="1742.45" cy="2266.02" r="16.48" style="fill:#343468"></circle>
    <path d="m1745.46 2257.41 122.15-95a7.79 7.79 0 0 1 8.77-.54l4.55 2.71a7.8 7.8 0 0 1 .6 13l-126.69 92.28a7.8 7.8 0 0 1-9 .1 7.79 7.79 0 0 1-.38-12.55Z" style="fill:#343468"></path>
    <path d="m2604.21 2367.21-34.76-94.08 91.1 41.95 2.64-5.75-91.1-41.94 94.08-34.76-2.19-5.93-94.08 34.76 41.94-91.1-5.74-2.65-41.94 91.1-34.76-94.07-5.93 2.19 34.75 94.07-91.09-41.94-2.65 5.75 91.1 41.94-94.07 34.76 2.19 5.93 94.07-34.76-41.94 91.1 5.74 2.64 41.95-91.09 34.75 94.07 5.94-2.19z" style="fill:#92b1dd"></path>
    <path d="M2671.76 2263.91h-100.29l70.92-70.92-4.48-4.47-70.91 70.91v-100.29h-6.33v100.29l-70.91-70.91-4.47 4.47 70.91 70.92h-100.29v6.32h100.29l-70.91 70.92 4.47 4.47 70.91-70.92v100.29h6.33V2274.7l70.91 70.92 4.48-4.47-70.92-70.92h100.29v-6.32z" style="fill:#aec6d3"></path>
    <path d="M2563.84 2131.32A134.7 134.7 0 1 0 2698.53 2266a134.7 134.7 0 0 0-134.69-134.68Zm0 233.76a99.07 99.07 0 1 1 99.06-99.08 99.07 99.07 0 0 1-99.06 99.08Z" style="fill:#343468"></path>
    <circle cx="2563.84" cy="2266.02" r="16.48" style="fill:#343468"></circle>
    <path d="M2617.62 2134.35s-53.27 4.53-124.68 44.2c-44.66 24.82-75.56 63.39-92.43 88.8a57.41 57.41 0 0 1-47.8 25.74h-392a30 30 0 0 1-24.92-13.28l-58.76-87.59a30 30 0 0 0-24.93-13.29h-236.82a30 30 0 0 1-30-30V2121.51c.39-27.64 10.53-83.19 24.11-116.37a102.13 102.13 0 0 1 8.15-16.28c22.67-35.16 74.24-42.58 74.24-42.58l458.86-6.88s-27.21 23.8-38.54 79.34 14.73 174.55 32.87 184.75 188.15 15.87 202.89 9.07 46.47-79.34 54.4-205.16-43.07-193.82-43.07-193.82l35.14-13.6s26.41 22.64 62.84 62.54c12.48 13.66 26.13 29.36 40.3 46.86 55.53 68.62 120.15 224.97 120.15 224.97Z" style="fill:#6cc58d"></path>
    <g style="opacity:.57">
      <path d="M2413.6 1885s20.57 172.29-9.56 251.63-41.45 92.94-49.38 96.34-208.56 0-215.36-7.93-28.82-72.39-45.58-133.1-16.76-86.79-16.76-86.79h-467.57a102.13 102.13 0 0 1 8.15-16.28c22.67-35.16 74.24-42.58 74.24-42.58l458.86-6.88s-27.21 23.8-38.54 79.34 14.73 174.55 32.87 184.75 188.15 15.87 202.89 9.07 46.47-79.34 54.4-205.16-43.07-193.82-43.07-193.82l35.14-13.6s26.41 22.64 62.84 62.54Z" style="fill:#3e9a83"></path>
    </g>
    <path d="M2182 1926.49v2.67a17.11 17.11 0 0 1-17.1 17.12h-473.12a17.11 17.11 0 0 1-17.11-17.12v-2.67a17.12 17.12 0 0 1 17.11-17.11h473.14a17.11 17.11 0 0 1 17.08 17.11Z" style="fill:#2c4fa0"></path>
    <path d="M2355 1850.23s-21.16-46.85-8.32-55.16 65-12.84 71.79-9.82 49.87 45.34 46.85 53.65-90.64 43.82-110.32 11.33Z" style="fill:#abdda8"></path>
    <circle cx="2346.24" cy="1814.72" r="21.16" style="fill:#2c4fa0"></circle>
    <path d="M2414.27 2310.15c13.73 4.46 23.36-10.48 38.2-31.77a222.43 222.43 0 0 1 148.2-92.82c32.17-5 72.16-13.26 78.31-23.89 1.92-3.31.87-9.45-2.87-17-13-26.15-58.77-69-126.16-67.48-19.41.44-40.61 4.56-63.33 13.82-24.3 9.89-43.08 23.89-57.31 40.08-58.68 66.74-40.57 170.75-15.04 179.06Z" style="fill:#abdda8"></path>
    <path d="M2414.27 2310.15c13.72 4.47 23.36-10.47 38.19-31.77a222.48 222.48 0 0 1 148.21-92.82c32.17-5 72.15-13.26 78.31-23.89 1.92-3.31.88-9.45-2.87-17-12.82 10.27-31.89 19.51-59.86 21.75-69.86 5.58-93.45 17.85-133.38 46.18-29.77 21.12-46.81-46-53.56-81.51-58.68 66.73-40.57 170.75-15.04 179.06Z" style="fill:#6cc58d"></path>
    <path d="M1585.28 2121.51v1.63-1.63Z" style="fill:#fff"></path>
    <rect width="262.57" height="129.03" x="1655.32" y="2063.19" rx="54.58" style="fill:#abdda8"></rect>
    <path d="M1863.31 2067.79h-166.57a3 3 0 1 1 0-6h166.57a3 3 0 0 1 0 6ZM1877.05 2195.23a3 3 0 0 1-1.07-5.81c46.44-17.7 41.56-55.41 38.94-75.67-2.91-22.47-19.44-36.3-19.61-36.43a3 3 0 0 1 3.8-4.65c.76.62 18.54 15.41 21.76 40.31 2.63 20.34 8.11 62.66-42.76 82.05a3.06 3.06 0 0 1-1.06.2ZM1740.87 2194.33c-16.62 0-32.88-.18-44.27-.71-36.33-1.7-43.94-53.36-44.25-55.56a3 3 0 1 1 5.94-.83c.07.49 7.23 48.93 38.59 50.4 33.77 1.58 110.82 0 111.59 0h.07a3 3 0 0 1 .06 6c-.52 0-34.82.7-67.73.7Z" style="fill:#3e9a83"></path>
    <path d="M2139.31 2228a3 3 0 0 1-2.5-1.33c-31-46.06-58.45-196.48-62.37-218.56h-465a3 3 0 0 1 0-6h470.1l.43 2.49c.29 1.7 29.85 171.09 61.87 218.72a3 3 0 0 1-.81 4.17 3.05 3.05 0 0 1-1.72.51ZM2429.31 2134.12a3 3 0 0 1-2.19-5c.78-.84 19.55-20.72 49.68-37.1 40.07-21.79 81-26.53 118.35-13.72a3 3 0 0 1-2 5.68c-45.07-15.46-86.53-1.35-113.38 13.23a210.85 210.85 0 0 0-48.32 36 3 3 0 0 1-2.14.91ZM2393.05 2274.36a3 3 0 0 1-2.81-2c-9.87-26.83-8.12-58.24 5-90.83a186.91 186.91 0 0 1 23-41.48 3 3 0 1 1 4.73 3.69c-.5.64-49.82 65-27.19 126.55a3 3 0 0 1-1.78 3.85 2.9 2.9 0 0 1-.95.22ZM2354.66 2236a3 3 0 0 1-2-.77 3 3 0 0 1-.22-4.24c47.2-52.38 60.53-143.4 63.4-210.53a851.16 851.16 0 0 0-5.21-135l-.28-2.1 45.45-23.45a3 3 0 0 1 2.75 5.33l-41.7 21.51a868.19 868.19 0 0 1 5 133.89c-1.84 43.27-7.23 82.11-16 115.44-11 41.87-27.5 75.16-48.93 98.95a3 3 0 0 1-2.26.97Z" style="fill:#3e9a83"></path>
    <path d="M2386.88 2265.1h-462.94a3 3 0 0 1 0-6h462.94a3 3 0 0 1 0 6Z" style="fill:#3e9a83"></path>
    <rect width="408.02" height="283.91" x="1621.97" y="1625.47" rx="18" style="fill:#fccd89"></rect>
    <rect width="452.25" height="38" x="1598.65" y="1608.43" rx="11.77" style="fill:#fccd89"></rect>
    <g style="opacity:.49">
      <path d="M1621.97 1646.43h408.02v22.07h-408.02z" style="fill:#f28c70"></path>
    </g>
    <path d="M1905.66 1759.76c5-16.83 2.63-32.33-6.59-43.63s-23.93-16.73-41.41-15.26c-11.86 1-24.09 5.14-35.49 11.88-11.41-6.74-23.64-10.89-35.5-11.88-17.48-1.47-32.19 4-41.41 15.26s-11.56 26.8-6.59 43.63c4.64 15.72 15.23 30.93 29.84 42.84a98.85 98.85 0 0 0 23.75 14.42l-39.18 28.84a8.23 8.23 0 0 0-2.9 3.88h25.51l36.72-27c1.36.2 2.73.36 4.08.48 1.89.15 3.72.23 5.53.23h.29c1.81 0 3.66-.08 5.53-.23 1.62-.14 3.26-.35 4.9-.6l36.88 27.14h25.5a8.16 8.16 0 0 0-2.9-3.88l-39.53-29.1a98.49 98.49 0 0 0 23.13-14.16c14.61-11.93 25.18-27.14 29.84-42.86Zm-125.82 4.54a54.88 54.88 0 0 0-1.84 24.7c-11.54-9.68-19.85-21.66-23.44-33.86-3.37-11.44-2.11-21.58 3.56-28.52 5-6.13 13.11-9.41 23.11-9.41 1.33 0 2.7.06 4.1.18a64.38 64.38 0 0 1 22 6.17c-13.44 11.53-23.12 25.91-27.49 40.74Zm65.25 33.19c-4.95 6.08-12.84 9.12-22 9.34h-1.78c-9.2-.22-17.09-3.26-22-9.34-3.65-4.46-5.37-10.15-5.37-16.45 0-14.91 9.67-33.25 26.25-46.76.67-.56 1.35-1.09 2-1.62.68.53 1.36 1.06 2 1.62 23.6 19.22 33.17 48.17 20.9 63.21Zm21.28-8.54a54.6 54.6 0 0 0-1.88-24.65c-4.37-14.83-14-29.21-27.41-40.79a64.38 64.38 0 0 1 22-6.17c11.88-1 21.55 2.28 27.22 9.23s6.93 17.08 3.55 28.52c-3.63 12.2-11.94 24.18-23.48 33.91ZM1622 1870.7a3 3 0 0 1-3-3v-199.2a3 3 0 0 1 6 0v199.2a3 3 0 0 1-3 3ZM1883.79 1912.38H1640c-6.15 0-11.13-1.87-14.81-5.55-6.14-6.15-6.19-15.07-6.19-15.45a3 3 0 0 1 3-3 3 3 0 0 1 3 3c0 1.57.53 15 15 15h243.82a3 3 0 0 1 0 6ZM1928.34 1649.43H1622a3 3 0 0 1 0-6h306.37a3 3 0 0 1 0 6ZM1922 1611.43h-247.33a3 3 0 0 1 0-6H1922a3 3 0 0 1 0 6Z" style="fill:#f28c70"></path>
    <path d="M2150.77 1421.28s4.47 34.35 9.27 41.3 18 12.22 18 12.22-21.49 41.53-46.24 47.57-55.49-4.8-55.49-4.8l-11.52-40.57s33.09-20.84 35.29-28.18 50.69-27.54 50.69-27.54Z" style="fill:#ffb2a8"></path>
    <path d="M2061.13 1356.54a4.83 4.83 0 0 1-.53 4.39 23.57 23.57 0 0 0 11.27 4.23s.36-.87.92-2.34l76.92 46.24-5 6.39s11.11 7.34 22 2.55 9.57-17.2 9.57-17.2c.34-.08 13.72-3.39 16-13.13a24.45 24.45 0 0 0-.57-10.84 60.37 60.37 0 0 0 6.42-22c1.26-17.26-16.68-21.92-17.27-22.06 7.15-8.39 9-18.78.9-29.57l-.8 26.18c-.31-9.8-5.64-37.41-55.32-41.57-60.64-5.15-71.22 46.49-64.51 68.73Z" style="fill:#272744"></path>
    <path d="M2071.06 1324.59s-13.66 29.7-13 63.3 20.37 44.85 28.57 49.11a40.43 40.43 0 0 0 15.67 4.5l-5.09 17s-30.34 37.26-1.32 43.59 57.29-31.23 57.29-31.23-5.63-30-3.32-44.31 6.26-28.29 9.39-30.51 7.37 3.32 14-6.43-.71-23.61-7.09-24.55-17.26 25.19-20.08 24.75-7.21-1.87-5.13-5.75 7.67-13.37 6.66-16-14.25-16.06-18.24-24.85-4.19-12.47-4.19-12.47-9 5.22-27.47 1.89-26.65-8.04-26.65-8.04Z" style="fill:#ffb2a8"></path>
    <path d="M2102.27 1441.5s7.18 1.59 17.09-5.73 22.54-27.77 22.54-27.77a77.83 77.83 0 0 1-15.28 32.88c-12.67 15.94-29.44 17.69-29.44 17.69Z" style="fill:#f27c85"></path>
    <ellipse cx="2073.97" cy="1372.74" rx="4.31" ry="2.78" style="fill:#272744" transform="rotate(-77.28 2073.812 1372.757)"></ellipse>
    <ellipse cx="2105.36" cy="1376.55" rx="4.31" ry="2.78" style="fill:#272744" transform="rotate(-77.28 2105.19 1376.569)"></ellipse>
    <path d="M2100.6 1363.69c3-2.17 6.6-3.75 10.29-2.43 3.42 1.22 7.09 4.51 9.08 7.48.67 1 2.17-.09 1.51-1.08-2.36-3.5-6.6-7.31-10.76-8.44-4-1.09-8 .65-11.19 3a.93.93 0 0 0 1.07 1.51ZM2067.58 1357.82c4.41-2.72 8.82 1.15 11.92 4 .87.81 2-.63 1.16-1.44-3.83-3.58-8.94-7.33-14.16-4.12-1 .63.07 2.13 1.08 1.51Z" style="fill:#272744"></path>
    <g style="opacity:.49">
      <ellipse cx="2119" cy="1399.77" rx="7.37" ry="5.79" style="fill:#ff2d5e" transform="rotate(-50.96 2118.955 1399.762)"></ellipse>
    </g>
    <g style="opacity:.49">
      <ellipse cx="2064.79" cy="1395.09" rx="4.83" ry="4.06" style="fill:#ff2d5e" transform="rotate(-50.96 2064.743 1395.08)"></ellipse>
    </g>
    <path d="M2085.48 1400.54a13.49 13.49 0 0 1-2.36-.3 3.86 3.86 0 0 1-3.33-4.32 11.12 11.12 0 0 1 1.83-6.49 21.69 21.69 0 0 1 1.33-1.72 18.72 18.72 0 0 0 1.16-1.48 8.49 8.49 0 0 0 1.35-5.66 1.31 1.31 0 0 1 1.12-1.46 1.28 1.28 0 0 1 1.43 1.14 11.23 11.23 0 0 1-1.78 7.46c-.42.62-.88 1.17-1.32 1.7a17 17 0 0 0-1.17 1.5 8.41 8.41 0 0 0-1.38 4.91 2.11 2.11 0 0 0 .54 1.61 2.21 2.21 0 0 0 .74.25 12.56 12.56 0 0 0 6.52-.38 1.28 1.28 0 0 1 1.62.84 1.34 1.34 0 0 1-.83 1.65 15 15 0 0 1-5.47.75Z" style="fill:#f27c85"></path>
    <path d="M2081.76 1412.43s3.8 8 10.2 8.79 11.21-5.71 11.73-7.76 1.35-3.66.6-3.58-8.06 2.57-13.59 1.66-10.26-3-8.94.89Z" style="fill:#d63646"></path>
    <path d="m2180.91 1329.3-.11 3.39a23.93 23.93 0 0 0 .11-3.39Z" style="fill:#fff"></path>
    <path d="M2059.9 1346.73s46.92-12 75.9-.61 41.56 18.74 49.93 20.17a10.17 10.17 0 0 0 12.18-8.6s7.46-76.5-43.31-89.41c-5.62-1.44-15.2-7.12-22.36-6.79-71.68 3.24-73.29 45.56-73.34 62.16 0 3.24 0 6.07.08 8.57a122.86 122.86 0 0 0 .92 14.51Z" style="fill:#6cc58d"></path>
    <path d="M2059.9 1346.73s46.92-12 75.9-.61 41.56 18.74 49.93 20.17a10.17 10.17 0 0 0 12.18-8.6s7.46-76.5-43.31-89.41c6.15 6.82 14.22 17 18.69 27.54 7.89 18.64 2.16 53.87.31 52.51s-49.83-40-114.62-16.11a122.86 122.86 0 0 0 .92 14.51Z" style="fill:#3e9a83"></path>
    <path d="M2180 1364.71s-38.31-32.28-62.1-35.08-58.53 3.89-62.86 7.36-18.37 17.38-16.13 21.15 34.36-15.79 59.74-13.24 41.81 23.69 59.26 24.2 22.09-4.39 22.09-4.39Z" style="fill:#abdda8"></path>
    <path d="M2026.17 2340.28s7.69 38.46 0 44.75-100 9.79-101.39 4.19-2.8-18.17 11.19-23.07 59.37-25.87 59.37-25.87ZM2225.6 2340.28s7.69 38.46 0 44.75-100 9.79-101.39 4.19-2.8-18.17 11.19-23.07 59.37-25.87 59.37-25.87Z" style="fill:#343468"></path>
    <path d="M2225.44 2337.13c-3.15 10.49-30.41 8.39-35.66 7.55-1.76-.28-4.47-9.25-7.6-23.34-6.2-27.92-14.09-75.94-19.67-116.36-8.39-60.83-24.12-139.49-24.12-158.27 0-18.16-37.31-159.34-39.06-173.25a4.45 4.45 0 0 1 0-1 .75.75 0 0 0 0-.11c-.82 3.79-31.2 176.52-33.25 186.75-2.1 10.48 0 34.61 0 81.8s-35.66 191.94-39.85 199.28-22 4.2-30.83 0c-1.33-.64-2.23-5.66-2.79-13.91-3.16-46 4.07-192.37 3-231.51-1.19-46.15 2.25-59.79.15-88.11-1.74-23.47 12.61-185.26 17.57-240 1-11.3 1.65-18 1.65-18s168.52-131.1 197.89 7-1.05 268.84-1.05 280.38 11.53 90.2 18.88 130.06-2.11 160.56-5.26 171.04Z" style="fill:#2c4fa0"></path>
    <g style="opacity:.54">
      <path d="M2091.19 1831.44c4.09 13.44 7.89 39.67 8.08 41-.82 3.79-31.2 176.52-33.25 186.75-2.1 10.48 0 34.61 0 81.8s-35.66 191.94-39.85 199.28-22 4.2-30.83 0c-1.33-.64-2.23-5.66-2.79-13.91 7.77-2.24 15.24-6.47 17.88-14.41 6.3-18.88 37.76-207.67 33.57-227.59s0-21 5.24-36.71 37.76-230 41.95-216.21Z" style="fill:#273657"></path>
    </g>
    <g style="opacity:.54">
      <path d="M2225.44 2337.13c-3.15 10.49-30.41 8.39-35.66 7.55-1.76-.28-4.47-9.25-7.6-23.34 13.19-2.29 24.36-7 26.48-14.62 5.24-18.88-4.2-225.5-12.59-245.43s-9.44-29.36-5.24-36.71 7.34-159.42 2.1-198.22-10.49-53.82-10.49-53.82-13.92 17.33-92.07 11.86a262.71 262.71 0 0 1-77-17.62c1-11.3 1.65-18 1.65-18s168.52-131.1 197.89 7-1.05 268.84-1.05 280.38 11.53 90.2 18.88 130.06-2.15 160.43-5.3 170.91Z" style="fill:#273657"></path>
    </g>
    <path d="M2099.28 1872.51v1a4.45 4.45 0 0 1 0-1Z" style="fill:#fff"></path>
    <path d="M1895 1453s-8.74-10.5-10.84-11.2-27.29-18.2-34.29-24.14-8.05-12.25-4.55-10.85 26.24 13.65 25.89 11.55-28.34-22.4-29.39-27.64 1.05-7 4.9-4.55 25.89 22 24.84 18.89-25.19-29.74-25.19-34.29 3.15-5.6 6.3-2.8 28.34 30.79 28 26.59-18.19-27.64-16.8-31.84 7.35-1.4 11.2 4.2 21 38.84 24.49 32.19 2.45-17.49 6.65-19.24 4.9 5.25 6 9.45-.7 15.74-3.15 22.39 12.6 27.29 12.6 27.29-21.39 14.61-26.66 14Z" style="fill:#ffb2a8"></path>
    <path d="M1870 1422.51c-.6-9.94 5.11-21.73 13.31-27.42 1.24-.86.06-2.91-1.19-2-8.88 6.16-15.13 18.63-14.49 29.46.09 1.51 2.46 1.52 2.37 0ZM1897 1399.42c-1.44 6.8-2.67 13.66-.46 20.44.47 1.44 2.75.82 2.28-.63-2.09-6.39-.9-12.77.46-19.19.31-1.48-2-2.11-2.28-.62Z" style="fill:#f27c85"></path>
    <path d="M2208.85 1702.1c2.84 27.23 5.39 50.18 4 53.64-2.8 7-66.43 16.78-111.88 16.78s-82.5-16.78-86-23.78c-.58-1.17-.77-7-.69-15.93.42-44.18 7.69-163.84 7.69-163.84s-60.13 19.65-65.73 19-74.11-127.27-74.81-135 35-24.47 39.15-24.47 43.36 86.69 49 93 65-46.84 67.83-48.94 54.53-19.58 54.53-19.58l25.18 24.47 48.24-21.47 61.53 25s-19.57 38.45-20.28 43.35c-.06.42-.13 1.17-.21 2.24-.84 11.4-2.65 57.85-3.28 95-.06 3.63 0 7.64.13 11.93.6 19.79 3.2 45.71 5.6 68.6Z" style="fill:#6cc58d"></path>
    <path d="m2091.89 1453-6.28 2.13s16.07 40.17 18.87 38.77 12.23-14.33 12.23-14.33 7 16.15 11.54 14.37 44.93-34.75 44.93-34.75l-7.87-3.19-46.85 17.54Z" style="fill:#abdda8"></path>
    <path d="m1988.22 1579.62 41.44-53.93-7.69 43.28-33.75 10.65zM2203.2 1633.42c-20.85-46.81-14.12-107.73-14.12-107.73a47.18 47.18 0 0 1 17.27.85c-.84 11.4-2.65 57.85-3.28 95-.07 3.58-.01 7.59.13 11.88ZM2099.4 1772.54c-1.73-164.28 15.58-291.94 15.75-293.21l3.12.43c-.17 1.27-17.45 128.71-15.72 292.74Z" style="fill:#3e9a83"></path>
    <path d="M2090.48 1577.72c-.72 14.61-5 46.1-8 48.22-3.85 2.69-35.32 3.94-42 0-5.27-3.13-6.36-36.27-6.59-49.79-.06-3.51-.06-5.71-.06-5.71-.09-7.66 54.2-2.09 56.29 0 .48.47.56 3.21.36 7.28Z" style="fill:#abdda8"></path>
    <path d="M2090.48 1577.72c-6.45-1-13.95-2.06-21.31-2.73-13.06-1.19-27.41.37-35.26 1.16-.06-3.51-.06-5.71-.06-5.71-.09-7.66 54.2-2.09 56.29 0 .46.47.54 3.21.34 7.28Z" style="fill:#fff"></path>
    <g style="opacity:.57">
      <path d="M2212.86 1755.74c-2.8 7-66.43 16.78-111.88 16.78s-82.5-16.78-86-23.78c-.58-1.17-.77-7-.69-15.93 51.9 5.46 113.91 11.29 125.16 9.34 11.88-2.06 44.78-23.27 69.41-40.05 2.83 27.23 5.38 50.18 4 53.64Z" style="fill:#3e9a83"></path>
    </g>
    <path d="M2238.38 1697.35s-4.55 17.13-9.44 21.68-3.15 9.09 0 7.69 4.54-6.29 5.94-5.94 2.8 2.79 3.5 4.19-10.49 18.18-14.34 17.13-27.47-21.67-26.84-26.22 9.36-31.81 12.86-34.26 28.32 15.73 28.32 15.73Z" style="fill:#ffb2a8"></path>
    <path d="M2226.84 1481s-46.15 16.08-37.76 44.74 54.08 70.63 54.08 72.72-36.84 78.76-36.48 82.43 26.22 29.45 36.48 21.06 62-92.3 60.59-105.58-56.63-100.04-76.91-115.37Z" style="fill:#6cc58d"></path>
    <path d="M530.44 1408.78s-26.22-21.3-42.13.36 7.74 55.39 0 61.52a10.65 10.65 0 0 1-9.82 2.27 1.34 1.34 0 0 0-1.41 2.14c6.41 7.83 21.82 22.06 45.13 15 31.44-9.46 31.27-37.1 23.4-53.37s-15.17-27.92-15.17-27.92Z" style="fill:#343468"></path>
    <path d="M531.4 1397.36c4.63 20.25-7.42 17.19-7.42 17.19s17.83 45.77 40.28 54.15a15.57 15.57 0 0 1 3.19 1.6c25.27-7.67 80.26-46.6 80.26-46.6s22.58-31.2 17.2-58.2-34.32-8.1-34.32-8.1-14.05-28.68-61.32-13.34-42.5 33.06-37.87 53.3Z" style="fill:#343468"></path>
    <path d="M526.42 1515c.37 1.27 33.63 48.63 33.63 48.63s28.44 9.68 49 8.68c8.74 4.88 16.48 7.46 21.18 5.25 5.68-2.67 5.29-11.84 2.25-22.87 5.45-18 2-45.15-1.37-49.75a12 12 0 0 0-3.47-3c-6.76-4.07-18.81-5.91-21.41-8.27-3.15-2.86-6.78-21.86-6.78-21.86a.22.22 0 0 1 .1 0 24 24 0 0 0 7.53 1.06c-4.81-.83-7.63-1.1-7.63-1.1s-23.17-10-31.47-20.59c0 0-.33 5.46-1.05 13.94a49.74 49.74 0 0 1-1.58 7.45l-.12.4a.44.44 0 0 1 0 .1c-1.72 5.47-11.56 19.85-20.2 27.13-2.31 2-4.69 3.79-6.94 5.46-6.5 4.86-11.95 8.34-11.67 9.34Z" style="fill:#ffb2a8"></path>
    <path d="M580.53 1458.26c.29 1.14 9.67 37.57 16.77 43.64l4.82 4.14-2.46-27.68a68.27 68.27 0 0 1-9.1-5.4c-5.14-3.53-9.74-14.05-10.03-14.7Z" style="fill:#f27c85"></path>
    <path d="M538.71 1457.65a21.74 21.74 0 0 1 1.46 3.7c.18-.53.35-1.08.53-1.61a1.65 1.65 0 0 0-1.99-2.09Z" style="fill:#343468"></path>
    <path d="M538.71 1457.65a21.74 21.74 0 0 1 1.46 3.7c.18-.53.35-1.08.53-1.61a1.65 1.65 0 0 0-1.99-2.09ZM659.27 1380.65c4.51 14.37 9 31.66 4.79 46.6a34.82 34.82 0 0 1-24.9 24c-2.2.58-3.23-2.82-1-3.4a31.47 31.47 0 0 0 23.35-25.43c2.29-13.39-1.63-28.08-5.62-40.79-.68-2.19 2.72-3.21 3.4-1Z" style="fill:#343468"></path>
    <path d="M541 1447.25c1.25 4.47 6.66 6.59 11 7.58a35.86 35.86 0 0 0 5.63.85c10 11.25 38 21.8 38 21.8s3.41.28 9.21 1.16c6.7 0 16.62-1.44 28.31-7.86 6.06-3.33 9.71-11.49 11.81-21.54q.45-2.15.81-4.38c.2-1.25.38-2.53.54-3.81.1-.74.18-1.49.26-2.24.53-4.87.81-9.94.92-14.93.08-3.55.07-7.07 0-10.46 0-.74 0-1.48-.05-2.21-.43-15.16-2-27.17-2-27.17s-10-10.79-14-14.22l-4-3.43s-2.46 3.78-24.05 16.95-28.56 12.93-31.26 13.89-3.14 15.71-6.18 19.28a5.58 5.58 0 0 1-1.52 1.28 2.63 2.63 0 0 1-2 .29 3.77 3.77 0 0 1-1.87-1.3c-2.68-5-8-7.51-13.21-2.1-7.02 7.25-8.48 24.89-6.35 32.57Z" style="fill:#ffb2a8"></path>
    <path d="M556.85 1441.09c-1.19-1.47-2.59 2.66-3.12 3.21a4.4 4.4 0 0 1-3 1.41c-2.4.06-4.28-1.92-5-4.17-1.69-5.68.39-13.68 6.39-15.49 2.06-.63 3 2.66 1 3.29-3.31 1-4.34 4.34-4.45 7.57a10.57 10.57 0 0 0 .27 3.56q.93 3.09 2.81.28a4.57 4.57 0 0 1 .3-1.17c1.69-2.8 4.76-3.84 7-1 1.35 1.66-.92 4.24-2.29 2.56ZM622.34 1442.74a12.94 12.94 0 0 0 2-.26 3.91 3.91 0 0 0 1.43-.55 4 4 0 0 0 1.51-3.25 9.71 9.71 0 0 0-1.47-5.7 16.43 16.43 0 0 0-1.12-1.51c-.35-.45-.69-.86-1-1.3a7.46 7.46 0 0 1-1.07-5 1.11 1.11 0 1 0-2.19-.28 9.85 9.85 0 0 0 1.41 6.55A14.57 14.57 0 0 0 623 1433c.35.45.69.87 1 1.32a7.37 7.37 0 0 1 1.11 4.31 1.88 1.88 0 0 1-.5 1.42 1.92 1.92 0 0 1-.64.21 10.59 10.59 0 0 1-5.61-.33 1.12 1.12 0 0 0-1.41.74 1.15 1.15 0 0 0 .69 1.45 12.52 12.52 0 0 0 4.7.62Z" style="fill:#f27c85"></path>
    <path d="M625.34 1453.19s-3.41 7.08-8.94 7.73-9.56-5-10-6.82-1.11-3.22-.46-3.15 6.9 2.26 11.68 1.46 8.92-2.64 7.72.78Z" style="fill:#d63646"></path>
    <path d="M608.05 1418.06c-4.62-3.3-9.95-4.36-14.27.09-1.25 1.3-3.22-.68-2-2 5.15-5.33 12-4.57 17.65-.53 1.45 1 0 3.46-1.41 2.41ZM627.78 1415.7c4.72-3.37 10.48-4 14.78.48 1.25 1.29-.72 3.27-2 2-3.47-3.58-7.71-2.67-11.4 0-1.47 1-2.86-1.38-1.41-2.42ZM638.51 1403.5a10.23 10.23 0 0 0-5.16-2.77c-1.32-.28-.76-2.3.56-2A12.23 12.23 0 0 1 640 1402a1 1 0 0 1-1.48 1.48ZM605 1399.47a13.58 13.58 0 0 0-6.62 2.77c-1.05.82-2.54-.65-1.48-1.48a16.19 16.19 0 0 1 8.1-3.39c1.34-.17 1.32 1.92 0 2.1Z" style="fill:#343468"></path>
    <path d="M385.42 2316.1s-11.87 22-11 26.6 11.82 19.07 11.82 19.07-7.94 5.78-17.89 3-26.5-15.11-26.5-15.11 6.46-9.57 8.85-15.35 9.38-32.05 9.38-32.05 26.1 1.26 25.34 13.84Z" style="fill:#ffb2a8"></path>
    <path d="M332 2364.08s6.22-20.4 13.53-17.29 13 9.59 22.91 13.71 15.74-5.16 20.14-1 34.05 27.7 34.1 32.28-.72 5.08-4.35 5.82-25.66-8.34-42.53-14.88-26-14.09-26-14.09-3.15 2.92-4.57 2.31-14.76-2.61-13.23-6.86Z" style="fill:#343468"></path>
    <path d="M699.62 2329.15s-2.7 24.65-.14 28.65 18.22 13.56 18.22 13.56a21.79 21.79 0 0 1-15.5 9.13c-10.31.94-30.37-4.65-30.37-4.65s2.37-11.2 2.4-17.43-3.44-33.16-3.44-33.16 24.77-8.08 28.83 3.9Z" style="fill:#ffb2a8"></path>
    <path d="M700.08 2340.37c-.72 1.82-3.46 2.65-7 2.89-8 .54-20.22-2-22.36-3.06-3.08-1.51-12.14-44.16-23.44-102.53s-6.63-116.65-8.11-128.11-13.31-19-34.74-60.49c-16.29-31.56-24.06-89.54-26.85-115.5a2.26 2.26 0 0 0-4.43-.28c-9.77 39.68-39 157.88-42.93 166.25-4.68 10.07-141.37 226.82-149.49 227.9-6.36.85-16.24-8-21.88-12.92a41.75 41.75 0 0 0-3.54-2.92c-3.46-2.26 39.94-105.17 58.73-155.52s51.4-80.44 53.8-97.25 9.78-95.4 9-150.72 33.05-118.8 33.05-118.8l25.81 10.41 118.9 24.62s50 229.76 51.45 243.18-3.62 266.88-5.97 272.85Z" style="fill:#2c4fa0"></path>
    <g style="opacity:.54">
      <path d="M488.79 1905.35c-7.81 37-1.08 121.08 1.16 136.79s-1.32 30.26-22.31 55.94c-15.28 18.69-76.59 147.68-108.79 216.44a41.75 41.75 0 0 0-3.54-2.92c-3.46-2.26 39.94-105.17 58.73-155.52s51.4-80.44 53.8-97.25 10.46-83.84 9.71-139.16 33.05-118.79 33.05-118.79l25.13-1.16c-17.52 33.28-42.02 82.39-46.94 105.63Z" style="fill:#273657"></path>
    </g>
    <g style="opacity:.54">
      <path d="M693.08 2343.26c-8 .54-20.22-2-22.36-3.06-3.08-1.51-12.14-44.16-23.44-102.53s-6.63-116.65-8.11-128.11-13.31-19-34.74-60.49c-16.29-31.56-24.06-89.54-26.85-115.5l.25-50.16s32.84 121.27 52.38 152.77 39.21 39.46 39.17 48.43-15.17 21.22-9.65 76.18c3.55 35.41 21.27 123.96 33.35 182.47Z" style="fill:#273657"></path>
    </g>
    <path d="M668.14 2392.76s-2-21.19 6-20.89 15.69 4.32 26.5 4.63 12.68-10.4 18.33-8.12 42.17 13.68 44 17.93 1.26 5-1.84 7-27 1.35-45.2 1.25-29.48-3.9-29.48-3.9-1.83 3.84-3.37 3.78-14.74 2.82-14.94-1.68Z" style="fill:#343468"></path>
    <path d="M473.76 1561.58a30.32 30.32 0 0 1 4-34c5.89-6.73 12.21-13.57 15.6-16.06 7.47-5.48 54.29-17.93 54.29-17.93s50.35 36.82 58.35 35.82 7.47-31.88 9-31.88 31.37 1 31.37 1l48.82 65.75h-45.91s11.62 84-24.9 90S508.67 1631 508.67 1631l-13.79-29.2Z" style="fill:#6cc58d"></path>
    <path d="M509.74 1563.93s1.74 43.18 7 39.2 19.93-25.1 19.93-28.82-6.65-50.21-6.65-50.21h23.86s32.32 50 36.44 50.21 34.67 3.06 38 0 1.72-45.29 1.72-45.29 30.76 61.92 20.5 77.31S508.67 1631 508.67 1631l-24.58-49.74Z" style="fill:#3e9a83"></path>
    <path d="M704.07 1996.48c-.61 5.29-26.26 26.3-52.32 42-16.79 10.1-33.76 18-44.3 18-26.89 0-98.62-1-114.56-7.73s-68.73-24.16-72.72-39.62 90.66-211 94.64-236.9-11.95-134.15-5-144.77c2.17-3.31 6.37-7.93 11.17-13 10.57-11.32 24-25 24.69-32.37.81-8.56-15.84-58.89-22.35-78.17a7.63 7.63 0 0 1 5.28-9.75l3.39-1a8 8 0 0 1 9.5 4.26c8.63 19 34.87 75.86 43.7 83.35 10.62 9 57.11 12.89 58.43 3.87 1-6.84-14.4-58.86-21.91-83.62-1.73-5.73 3.63-11.1 9.59-9.59a7.86 7.86 0 0 1 3.53 1.92 7.67 7.67 0 0 1 2.08 3.36c5.82 19.35 30.1 99.72 35.94 110.47 6.64 12.25 8 24.48 12.61 39.3 1.08 3.44 1 8.25.34 13.91-2.32 18.73-12.08 46.64-13.62 63.71-1.25 14-2.11 18-.84 38 .75 11.83 2.24 29.26 4.83 57.62 6.98 76.27 28.9 168.05 27.9 176.75Z" style="fill:#fff"></path>
    <path d="M672.19 1724c-1.25 14-2.11 18-.84 38-.37-.58-13.13-20.93-15.09-20.93s-124.2 9.46-124.85 14.11-12.95 95-18.1 111.58-46.33 137.47-39 142.11 84.34 35.86 106.92 35.86c22.23 0 69.08-6.15 70.53-6.33-16.79 10.1-33.76 18-44.3 18-26.89 0-98.62-1-114.56-7.73s-68.73-24.16-72.72-39.62 90.66-211 94.64-236.9-11.95-134.15-5-144.77c2.17-3.31 6.37-7.93 11.17-13 0 0 1.78 47.08 7.26 50.07s97.12 13.45 104.6 13.45c5.16 0 35-10.85 53-17.56-2.36 18.66-12.12 46.58-13.66 63.66Z" style="fill:#cedbee"></path>
    <rect width="225.13" height="189.27" x="580.61" y="1558.31" rx="7.97" style="fill:#fccd89"></rect>
    <g style="opacity:.49">
      <path d="M805.75 1699.41v40.2a8 8 0 0 1-8 8H588.58a8 8 0 0 1-8-8v-173.33a8 8 0 0 1 8-8H631c.06.82.09 1.64.09 2.48v101.94a36.68 36.68 0 0 0 36.69 36.68Z" style="fill:#f28c70"></path>
    </g>
    <path d="m669.27 1713-49.54 34.54h-31.15a8 8 0 0 1-8-8v-39.36Z" style="fill:#f28c70"></path>
    <g style="opacity:.49">
      <path d="M580.61 1566.28h225.13v12.61H580.61z" style="fill:#f28c70"></path>
    </g>
    <rect width="247.71" height="22.32" x="569.32" y="1543.36" rx="8" style="fill:#fccd89"></rect>
    <path d="M738.89 1637.72c2.8-9.52 1.48-18.29-3.73-24.68s-13.53-9.46-23.42-8.62a47.73 47.73 0 0 0-20.07 6.71 47.77 47.77 0 0 0-20.08-6.71c-9.88-.84-18.2 2.23-23.41 8.62s-6.54 15.16-3.73 24.68c2.62 8.89 8.61 17.49 16.87 24.22a56.08 56.08 0 0 0 13.43 8.16l-22.15 16.31a4.69 4.69 0 0 0-1.64 2.19h14.42l20.77-15.28c.77.11 1.54.21 2.31.27 1.06.09 2.1.14 3.13.14h.16c1 0 2.07 0 3.13-.14s1.84-.2 2.76-.34l20.86 15.35h14.42a4.62 4.62 0 0 0-1.64-2.19L708.93 1670a55.59 55.59 0 0 0 13.08-8c8.26-6.79 14.26-15.39 16.88-24.28Zm-71.16 2.57a31 31 0 0 0-1.06 13.93c-6.53-5.47-11.22-12.24-13.25-19.15-1.91-6.47-1.2-12.2 2-16.12 2.82-3.47 7.41-5.32 13.07-5.32.75 0 1.52 0 2.31.1a36.18 36.18 0 0 1 12.42 3.49c-7.54 6.55-13.02 14.68-15.49 23.07Zm36.9 18.77c-2.8 3.43-7.26 5.15-12.46 5.27h-1c-5.21-.12-9.67-1.84-12.46-5.27a14.45 14.45 0 0 1-3-9.31c0-8.43 5.47-18.8 14.85-26.44.38-.32.76-.62 1.15-.92.38.3.77.6 1.16.92 13.29 10.87 18.7 27.24 11.76 35.75Zm12-4.84a31 31 0 0 0-1.07-13.93c-2.47-8.39-7.94-16.52-15.5-23.07a36.18 36.18 0 0 1 12.42-3.49c6.72-.57 12.19 1.29 15.4 5.22s3.91 9.65 2 16.12c-1.99 6.93-6.69 13.68-13.21 19.15Z" style="fill:#f28c70"></path>
    <path d="M602.52 1677.85s25.24-4 32.21-4 9.63 5.31 3.66 7.64-11.29 4.65-9.3 5.64 15.6 2.66 20.92 2.33 20.58-4.65 21.58-2.33-1.66 8-3.32 8h-1.66s5.42.83 5.2 4.74-4.54 5.23-4.54 5.23 4.32 5 2 8-18.93 8-23.25 8.31-24.9-5.65-32.87-7.31-17.27 0-17.27 0 2.05-36.79 6.64-36.25Z" style="fill:#ffb2a8"></path>
    <path d="M647 1700.94a84 84 0 0 1-11.79-1.53 1 1 0 0 1-.79-1.17 1 1 0 0 1 1.17-.78c4 .78 10.74 1.8 12.54 1.41 2.62-.57 19.74-4.68 19.91-4.73a1 1 0 0 1 1.2.74 1 1 0 0 1-.74 1.2c-.7.17-17.3 4.16-19.94 4.74a8.3 8.3 0 0 1-1.56.12ZM646.52 1712.71c-1.21 0-9-2.32-11.41-3a1 1 0 0 1-.67-1.24 1 1 0 0 1 1.24-.67c4.76 1.43 10.11 2.92 10.85 3 1.08-.13 13.11-4.11 20.42-6.59a1 1 0 1 1 .64 1.89c-5.93 1.9-19.87 6.61-21.07 6.61Z" style="fill:#f27c85"></path>
    <path d="M469 1541.33c6.69-15.85 26.19-22.25 40.58-12.82 4.65 3 8.28 7.46 9.24 13.86 3.33 21.91-15.93 118.87-11.29 120.2s85.68 6.64 90.32 15.28-.66 47.81-2.65 48.48-142.12-23.25-148.1-32.54c-4.99-7.79 2.42-106.25 21.9-152.46Z" style="fill:#6cc58d"></path>
    <rect width="65.25" height="20.92" x="561.26" y="1689.39" rx="4.75" style="fill:#abdda8" transform="rotate(-82.86 593.902 1699.855)"></rect>
    <path d="M562.13 1770.49s6 52.46 27.35 61.09 46.59 3.32 50.61-4.65 14.9-59.77 9.74-61.76-28.66 12.46-47 8.55-42.1-12.33-40.7-3.23Z" style="fill:#cedbee"></path>
    <path d="M650.15 1309.26c-2.11 14.44 4.17 44.36 4.17 44.36s-49.25-2.52-65.25 2.46c-8.12 2.53-22.2 6.84-34.12 10.5l-21.07 6.42s-2.79-44.83-7.5-50.3-28.3-9.47-33.36-27.9c-4.2-15.31 4.39-29.24 15.87-33.23a20.14 20.14 0 0 1 7.3-1.13c2.51.07 4.33.14 5.61.2 1.15-2.44 9.82-19.7 24.3-20.63 15.59-1 22.75 6 22.75 6s8.25-13 23.5-13 26 19.43 26 19.43 12.84-18.89 29.65-12.44 24.86 22.92 19.38 35.87c-4.14 9.8-10.71 15.61-14.56 24.12a32.19 32.19 0 0 0-2.11 6.17c-.21 1.01-.4 2.03-.56 3.1Z" style="fill:#fff"></path>
    <path d="M520 1262.52a72.84 72.84 0 0 0 8.92 20.9c4 6.32 9.24 10.33 13.94 15.76 3.24 3.74 3.79 9 4.79 14s2 10.14 2.89 15.23q2.75 15.27 4.9 30.68c.26 1.89 2.7 1.09 2.43-.79q-2.16-15.4-4.89-30.68-1.38-7.64-2.89-15.23c-.75-3.76-1.24-7.93-2.8-11.36-1.3-2.85-3.37-4.75-5.49-6.7a65.62 65.62 0 0 1-8.42-9.15 67.7 67.7 0 0 1-10.94-23.46c-.48-1.84-2.92-1-2.44.79ZM566.46 1245.5a89.77 89.77 0 0 0 2.66 25.82c2.16 8.31 6 15.77 8.42 23.93 5.16 17.28 3.77 37.29 4.17 55.35a1.28 1.28 0 1 0 2.53 0c-.38-17.28.73-35.92-3.34-52.7-2-8.33-5.86-15.77-8.35-23.88a86.25 86.25 0 0 1-3.55-28.52 1.28 1.28 0 1 0-2.53 0ZM616.87 1253.11c2.31 9 4.84 18.65 3.26 28.13-1.28 7.63-5.2 14.37-7.42 21.65a104.23 104.23 0 0 0-3.24 44.5c.27 1.9 2.7 1.09 2.44-.79a100.11 100.11 0 0 1 6-50.77c2.55-6.37 5-12.42 5.17-19.6.23-8.16-1.83-16.2-3.81-23.92-.47-1.83-2.91-1-2.44.8Z" style="fill:#f5f5f7"></path>
    <path d="M652.86 1300a32.19 32.19 0 0 0-2.11 6.17 114 114 0 0 0-14.79-.91c-30 0-91.55 16.44-91.55 19.43 0 1.49 5.29 21.89 10.54 41.88l-21.07 6.43s-2.79-44.83-7.5-50.3-28.3-9.47-33.36-27.9c-4.2-15.31 4.39-29.24 15.87-33.23-8 12.2-15.3 24.68-13.49 29.25 3.94 10 30.65 21.65 36.46 21s93-20.54 118.71-12.57c.79.29 1.55.52 2.29.75Z" style="fill:#cedbee"></path>
    <path d="M526.68 1391.44s-6.06-16.11 0-20.87 65.32-29.39 91.32-30.39 49.77 14 50.73 16.94 1.26 21.87-3.18 23.39-19.64-15.92-61.79-12.43-75.08 30.53-77.08 23.36Z" style="fill:#fff"></path>
    <path d="M2736.21 2409c0 21.77-28.82 39.42-64.38 39.42H2625c0 25.74-34.06 46.6-76.08 46.6H1293.36c-42 0-76.08-20.86-76.08-46.6h-157.92c0 25.74-34.07 46.6-76.08 46.6H581.47c-42 0-76.08-20.86-76.08-46.6H376.06c-35.55 0-64.37-17.65-64.37-39.42h2424.52Z" style="fill:#dfe9f4"></path>
    <ellipse cx="1929.7" cy="2531.65" rx="253.83" ry="18.14" style="fill:#dfe9f4"></ellipse>
    <ellipse cx="1459.1" cy="2534.48" rx="138.8" ry="15.3" style="fill:#dfe9f4"></ellipse>
    <ellipse cx="1117.93" cy="2485.74" rx="67.82" ry="9.26" style="fill:#dfe9f4"></ellipse>
    <rect width="2502.22" height="20.38" x="248.89" y="2393.95" rx="7.2" style="fill:#92b1dd"></rect>
    <rect width="1143.11" height="18.25" x="1277.58" y="2447.25" rx="7.2" style="fill:#92b1dd"></rect>
    <rect width="680.08" height="17.46" x="498.79" y="2447.65" rx="7.03" style="fill:#92b1dd"></rect>
  </g>
</svg>
