<svg xmlns="http://www.w3.org/2000/svg" width="2713.24" height="2178.99" viewBox="143.367 408.505 2713.24 2178.99" id="pizza-delivery-man-delivering-pizza-using-scooter">
  <g id="ground">
    <path d="M440.33 2145.15a5 5 0 0 1-3.57-1.78c-7.11-8.53-14-17.44-20.58-26.49a5 5 0 1 1 8.07-5.84c6.41 8.87 13.2 17.6 20.16 25.95a5 5 0 0 1-.63 7 4.91 4.91 0 0 1-3.45 1.16ZM383.87 2060.94a4.94 4.94 0 0 1-4.14-2.64 513.42 513.42 0 0 1-28.14-63 5 5 0 0 1 9.35-3.44 503 503 0 0 0 27.59 61.74 5 5 0 0 1-2.07 6.74 4.88 4.88 0 0 1-2.59.6Zm-47.13-127.87a5 5 0 0 1-4.61-3.9 510.41 510.41 0 0 1-10.39-68.17 5 5 0 1 1 9.93-.83 500.49 500.49 0 0 0 10.19 66.83 5 5 0 0 1-3.78 5.94 5.11 5.11 0 0 1-1.34.13Zm-11.22-135.81a5 5 0 0 1-4.69-5.26c.18-3.09.39-6.17.62-9.26 1.69-22.09 4.68-41.47 9.16-59.24a5 5 0 0 1 9.66 2.44c-4.34 17.21-7.24 36-8.89 57.56-.23 3-.43 6-.6 9.07a5 5 0 0 1-5.26 4.69Zm36-130.31a5 5 0 0 1-4-7.61c12.55-20.09 27.85-38.06 42.51-54.49a5 5 0 1 1 7.43 6.63c-14.37 16.1-29.34 33.68-41.5 53.14a5 5 0 0 1-4.48 2.38Zm87.2-105.12a5 5 0 0 1-3.62-8.1c16.62-20.59 27.76-38.59 35.06-56.62a5 5 0 0 1 9.24 3.73c-7.68 19-19.29 37.77-36.55 59.15a5 5 0 0 1-4.17 1.84Zm46.6-124.77a5 5 0 0 1-4.71-4.71c-1-19.32-5.24-40.16-13.23-65.59a5 5 0 0 1 9.51-3c8.24 26.24 12.59 47.86 13.67 68a5 5 0 0 1-4.71 5.24Zm-36.36-131.22a5 5 0 0 1-4.42-3.27c-3.82-10.5-8.73-24.33-12.88-38.29-2.7-9.07-5.12-18.38-7.19-27.67a5 5 0 0 1 9.73-2.17c2 9.07 4.37 18.15 7 27 4.08 13.7 8.93 27.36 12.7 37.73a5 5 0 0 1-3 6.38 4.92 4.92 0 0 1-1.98.29Zm-29.19-133a5 5 0 0 1-4.71-4.69 467.48 467.48 0 0 1-.08-50.93c.31-6 .73-12 1.27-18.07a5 5 0 1 1 9.92.88c-.52 5.9-.94 11.86-1.25 17.71a460.27 460.27 0 0 0 .09 49.85 5 5 0 0 1-4.69 5.25Zm11.61-135.77a4.5 4.5 0 0 1-.81-.11 5 5 0 0 1-3.8-5.93 621 621 0 0 1 18.51-66.33 5 5 0 1 1 9.43 3.2 613.32 613.32 0 0 0-18.21 65.26 5 5 0 0 1-5.16 3.93Zm43.49-129.33a4.85 4.85 0 0 1-1.8-.44 5 5 0 0 1-2.48-6.59c9.3-20.55 19.8-41.18 31.19-61.31a5 5 0 1 1 8.67 4.91c-11.25 19.87-21.6 40.23-30.79 60.51a5 5 0 0 1-4.83 2.94ZM552 788.91a4.91 4.91 0 0 1-2.59-.88 5 5 0 0 1-1.24-6.94c14.82-21.27 29.32-38.65 44.33-53.15a5 5 0 0 1 6.92 7.17c-14.54 14-28.63 30.94-43.07 51.68a5 5 0 0 1-4.35 2.12Zm98.33-93.19a5 5 0 0 1-2.24-9.29c18.43-10.68 38.89-20.26 62.57-29.27a5 5 0 1 1 3.54 9.31c-23.17 8.82-43.16 18.17-61.11 28.58a5.09 5.09 0 0 1-2.72.67ZM777.34 645.49a5 5 0 0 1-1.13-9.76c11.33-3.26 22.56-6.36 32-9a5 5 0 1 1 2.63 9.61c-9.46 2.58-20.65 5.67-31.91 8.91a4.91 4.91 0 0 1-1.59.24ZM1046 621.26a5 5 0 0 1-.88-9.82c10.74-2.54 21.88-4.6 33.11-6.13a5 5 0 1 1 1.35 9.87c-10.91 1.48-21.74 3.49-32.17 6a4.84 4.84 0 0 1-1.41.08ZM1748 1699.86c-11.81-.62-23.73-1.64-35.44-3a5 5 0 0 1 1.17-9.89 528.93 528.93 0 0 0 65.86 3.66 5 5 0 0 1 .07 10c-10.55.01-21.21-.23-31.66-.77Zm927.11 48.05a5.5 5.5 0 0 1-.88-.13 5 5 0 0 1-3.72-6 155.77 155.77 0 0 0 3.83-27.34 166.48 166.48 0 0 0-2.2-36.85 5 5 0 0 1 9.82-1.69 176.7 176.7 0 0 1 2.33 39.06 166 166 0 0 1-4.07 29.08 5 5 0 0 1-5.16 3.87Zm-829.34-52a5 5 0 0 1-.4-9.92c1.33-.17 2.66-.36 4-.55a586.52 586.52 0 0 0 60.8-12 5 5 0 0 1 2.43 9.67 598.8 598.8 0 0 1-61.82 12.25l-4.07.56a5.72 5.72 0 0 1-.99-.02Zm-198.36-11.07a5.43 5.43 0 0 1-1-.14 464.1 464.1 0 0 1-63.92-21 5 5 0 1 1 3.81-9.2 453.49 453.49 0 0 0 62.54 20.55 5 5 0 0 1-1.47 9.81Zm327.52-20.61a5 5 0 0 1-1.34-9.7c19-6.44 39.36-14 62.22-23a5 5 0 1 1 3.67 9.26c-23 9.12-43.53 16.71-62.7 23.21a4.94 4.94 0 0 1-1.9.22Zm-449.93-30.7a4.86 4.86 0 0 1-2.4-.77 337.69 337.69 0 0 1-45-34c-2.74-2.47-5.48-5-8.15-7.62a5 5 0 0 1 6.94-7.15c2.58 2.5 5.23 5 7.88 7.36a326.68 326.68 0 0 0 43.66 33 5 5 0 0 1-2.93 9.18Zm574-17.74a5 5 0 0 1-1.67-9.57l12.19-5.12c16.17-6.79 32.88-13.82 49.35-20.56a5 5 0 0 1 3.78 9.22c-16.43 6.73-33.12 13.74-49.27 20.53l-12.2 5.12a4.91 4.91 0 0 1-2.18.38Zm553.77 4.31a5 5 0 0 1-3.9-2.23c-1.39-2.12-2.87-4.21-4.37-6.24a190.34 190.34 0 0 0-40.63-40 5 5 0 0 1 5.88-8.05 200.14 200.14 0 0 1 42.74 42.08c1.61 2.17 3.19 4.42 4.69 6.69a5 5 0 0 1-4.41 7.72Zm-1222.22-79a5 5 0 0 1-3.94-2.29 270 270 0 0 1-29.29-61 5 5 0 0 1 9.46-3.12 259.64 259.64 0 0 0 28.21 58.77 5 5 0 0 1-4.44 7.67Zm792 24.83a5 5 0 0 1-1.45-9.66c22.82-8.32 43.63-15.16 63.63-20.9a5 5 0 0 1 2.75 9.57c-19.77 5.68-40.37 12.45-63 20.69a5 5 0 0 1-1.91.29Zm325.26-24.35a5.42 5.42 0 0 1-1.47-.3 304.84 304.84 0 0 0-63.52-15.72 5 5 0 0 1 1.38-9.87 315.27 315.27 0 0 1 65.59 16.24 5 5 0 0 1-2 9.65Zm-197.15-11.64a5 5 0 0 1-.61-9.88 498.71 498.71 0 0 1 66.79-7.4 5 5 0 0 1 .41 9.95 490.37 490.37 0 0 0-65.46 7.26 5.41 5.41 0 0 1-1.11.06Zm-960.61-114.09a5 5 0 0 1-4.72-4.82c-.2-6.62-.13-13.37.22-20.08a270.79 270.79 0 0 1 6.82-47.26 5 5 0 1 1 9.7 2.26 260.52 260.52 0 0 0-6.57 45.52c-.34 6.43-.41 12.91-.21 19.25a5 5 0 0 1-4.83 5.14Zm28.33-129a5 5 0 0 1-4.3-7 618.09 618.09 0 0 1 30.57-59.77 5 5 0 1 1 8.64 5 607.33 607.33 0 0 0-30.08 58.81 5 5 0 0 1-4.81 2.92Zm65.08-116.14a4.89 4.89 0 0 1-2.41-.77 5 5 0 0 1-1.53-6.88q5.1-8 10.19-16l2.84-4.44c8.5-13.28 15.79-25 22.29-35.92a5 5 0 1 1 8.55 5.1c-6.55 11-13.89 22.83-22.44 36.19l-2.85 4.44q-5.07 7.93-10.17 15.93a5 5 0 0 1-4.45 2.31Zm67.15-115a5 5 0 0 1-4.23-7.13 421 421 0 0 0 24.1-61.2 5 5 0 0 1 9.54 2.86 430.27 430.27 0 0 1-24.66 62.64 5 5 0 0 1-4.73 2.8Zm36.23-127.3a5 5 0 0 1-4.71-5.24v-.28a214.85 214.85 0 0 0-3.6-52.49c-.77-3.9-1.67-7.86-2.69-11.75a5 5 0 1 1 9.64-2.51c1.07 4.08 2 8.24 2.82 12.34a224.81 224.81 0 0 1 3.78 54.93v.28a5 5 0 0 1-5.22 4.69Zm-32.75-127a5 5 0 0 1-4-2.37 272.41 272.41 0 0 0-40.77-51 5 5 0 1 1 7-7.08 282 282 0 0 1 42.26 52.84 5 5 0 0 1-1.64 6.85 4.92 4.92 0 0 1-2.83.76ZM1460.65 708a5.11 5.11 0 0 1-2.46-.8 435.23 435.23 0 0 0-57.79-31.47 5 5 0 1 1 4.13-9.07 446.34 446.34 0 0 1 59.11 32.19 5 5 0 0 1-3 9.15Zm-120.45-56.15a4.82 4.82 0 0 1-1.34-.26c-8.27-2.8-17.08-5.64-26.2-8.45-12.75-3.91-25.28-7.49-37.25-10.63a5 5 0 1 1 2.52-9.64c12.11 3.18 24.77 6.79 37.65 10.75 9.21 2.83 18.12 5.7 26.48 8.54a5 5 0 0 1-1.86 9.69Zm-128.89-33.18a5.14 5.14 0 0 1-.55-.06 524.63 524.63 0 0 0-56.8-6.23c-2.93-.15-5.87-.27-8.8-.37a5 5 0 0 1 .32-10q4.5.15 9 .38a534.55 534.55 0 0 1 57.88 6.35 5 5 0 0 1-1 9.89ZM2619.38 1827.77a5 5 0 0 1-2.28-9.26 106.44 106.44 0 0 0 24.5-20 5 5 0 1 1 7.37 6.71 116.27 116.27 0 0 1-26.8 21.83 5 5 0 0 1-2.79.72ZM1700.3 781.52a72.86 72.86 0 1 1 72.86-72.86 72.94 72.94 0 0 1-72.86 72.86Zm0-135.75a62.9 62.9 0 1 0 62.9 62.89 63 63 0 0 0-62.9-62.89ZM372.14 1521.15a43.1 43.1 0 1 1 43.09-43.1 43.14 43.14 0 0 1-43.09 43.1Zm0-78.6a35.51 35.51 0 1 0 35.5 35.5 35.55 35.55 0 0 0-35.5-35.5ZM1298.14 1648.25a40.71 40.71 0 1 1 40.71-40.71 40.76 40.76 0 0 1-40.71 40.71Zm0-71.46a30.75 30.75 0 1 0 30.75 30.75 30.79 30.79 0 0 0-30.75-30.75ZM2528.75 1760.81a48.89 48.89 0 1 1 48.89-48.89 48.94 48.94 0 0 1-48.89 48.89Zm0-87.82a38.93 38.93 0 1 0 38.93 38.93 39 39 0 0 0-38.93-38.92ZM2060.32 984a38.95 38.95 0 1 1 38.95-38.94 39 39 0 0 1-38.95 38.94Zm0-67.93a29 29 0 1 0 29 29 29 29 0 0 0-29-29Z" style="fill:#f5f5f7"></path>
    <path d="M374.12 2344.68v-313.84c0-14.35 8.05-26 18-26h53.52c9.92 0 18-11.63 18-26v-784.42c0-14.34 8-26 18-26h179.69c9.92 0 18 11.64 18 26v338.41c0 14.35 8.05 26 18 26h39c9.92 0 18-11.63 18-26v-810.1c0-14.35 8.05-26 18-26h749.11c9.92 0 18 11.63 18 26V1055c0 14.35 8 26 18 26h145.55c9.92 0 18 11.64 18 26v468.89c0 14.34 8 26 18 26h53.87c9.92 0 18-11.64 18-26v-250.72c0-14.35 8-26 18-26h141.56c9.92 0 18 11.63 18 26v287c0 14.35 8.05 26 18 26h58.71c9.93 0 18 11.63 18 26v175.63c0 14.35 8 26 18 26 9.93 0 18 11.63 18 26v452.3c0 14.34-8 26-18 26l-1708.61.58c-10.35-.02-18.4-11.68-18.4-26Z" style="fill:#f5f5f7"></path>
    <path d="M1720.8 1159.93v17h-145.47c-3.25 0-5.89-3.8-5.89-8.5a10.61 10.61 0 0 1 1.73-6 5.16 5.16 0 0 1 4.16-2.51ZM1720.8 1244.71v17h-145.47c-3.25 0-5.89-3.8-5.89-8.5a10.61 10.61 0 0 1 1.73-6 5.15 5.15 0 0 1 4.16-2.5ZM1720.8 1329.48v17h-145.47c-3.25 0-5.89-3.8-5.89-8.5a10.62 10.62 0 0 1 1.73-6 5.15 5.15 0 0 1 4.16-2.5ZM1720.8 1414.25v17h-145.47c-3.25 0-5.89-3.8-5.89-8.5a10.65 10.65 0 0 1 1.73-6 5.15 5.15 0 0 1 4.16-2.5ZM1720.8 1499v17h-145.47c-3.25 0-5.89-3.8-5.89-8.5a10.65 10.65 0 0 1 1.73-6 5.15 5.15 0 0 1 4.16-2.5ZM1986.3 1342.94v12.48h-107.72c-2.41 0-4.36-2.78-4.36-6.23a7.8 7.8 0 0 1 1.28-4.42 3.82 3.82 0 0 1 3.08-1.83ZM1986.3 1405.12v12.49h-107.72c-2.41 0-4.36-2.79-4.36-6.24a7.74 7.74 0 0 1 1.28-4.41 3.81 3.81 0 0 1 3.08-1.84ZM1986.3 1467.31v12.48h-107.72c-2.41 0-4.36-2.79-4.36-6.23a7.8 7.8 0 0 1 1.28-4.42 3.82 3.82 0 0 1 3.08-1.83ZM1986.3 1529.49V1542h-107.72c-2.41 0-4.36-2.78-4.36-6.23a7.74 7.74 0 0 1 1.28-4.41 3.81 3.81 0 0 1 3.08-1.84ZM1986.3 1591.67v12.49h-107.72c-2.41 0-4.36-2.79-4.36-6.24a7.76 7.76 0 0 1 1.28-4.41 3.81 3.81 0 0 1 3.08-1.84Z" style="fill:#dddcec"></path>
    <path d="M636.21 1292.34v17H490.74c-3.25 0-5.89-3.8-5.89-8.5a10.61 10.61 0 0 1 1.73-6 5.16 5.16 0 0 1 4.16-2.51ZM636.21 1377.11v17H490.74c-3.25 0-5.89-3.8-5.89-8.5a10.61 10.61 0 0 1 1.73-6 5.16 5.16 0 0 1 4.16-2.51ZM636.21 1461.89v17H490.74c-3.25 0-5.89-3.8-5.89-8.5a10.61 10.61 0 0 1 1.73-6 5.15 5.15 0 0 1 4.16-2.5ZM636.21 1546.66v17H490.74c-3.25 0-5.89-3.8-5.89-8.5a10.62 10.62 0 0 1 1.73-6 5.15 5.15 0 0 1 4.16-2.5ZM636.21 1631.43v17H490.74c-3.25 0-5.89-3.8-5.89-8.5a10.65 10.65 0 0 1 1.73-6 5.15 5.15 0 0 1 4.16-2.5ZM636.21 1729.86v17H490.74c-3.25 0-5.89-3.8-5.89-8.5a10.61 10.61 0 0 1 1.73-6 5.16 5.16 0 0 1 4.16-2.51ZM636.21 1814.63v17H490.74c-3.25 0-5.89-3.8-5.89-8.5a10.61 10.61 0 0 1 1.73-6 5.16 5.16 0 0 1 4.16-2.51ZM636.21 1899.4v17H490.74c-3.25 0-5.89-3.8-5.89-8.5a10.61 10.61 0 0 1 1.73-6 5.16 5.16 0 0 1 4.16-2.51ZM636.21 1984.18v17H490.74c-3.25 0-5.89-3.8-5.89-8.5a10.61 10.61 0 0 1 1.73-6 5.15 5.15 0 0 1 4.16-2.5ZM636.21 2069v17H490.74c-3.25 0-5.89-3.8-5.89-8.5a10.62 10.62 0 0 1 1.73-6 5.15 5.15 0 0 1 4.16-2.5ZM1501.29 1145.56v61c0 6.82-3.82 12.37-8.55 12.37h-42.21c-4.73 0-8.55-5.55-8.55-12.37v-61c0-6.85 3.82-12.38 8.55-12.38h42.21c4.73 0 8.55 5.53 8.55 12.38ZM1501.29 992.46v61c0 6.83-3.82 12.37-8.55 12.37h-42.21c-4.73 0-8.55-5.54-8.55-12.37v-61c0-6.84 3.82-12.37 8.55-12.37h42.21c4.73 0 8.55 5.53 8.55 12.37ZM1501.29 839.36v61c0 6.83-3.82 12.38-8.55 12.38h-42.21c-4.73 0-8.55-5.55-8.55-12.38v-61c0-6.84 3.82-12.37 8.55-12.37h42.21c4.73.01 8.55 5.53 8.55 12.37ZM1501.29 1604.85v61.05c0 6.82-3.82 12.37-8.55 12.37h-42.21c-4.73 0-8.55-5.55-8.55-12.37v-61.05c0-6.85 3.82-12.38 8.55-12.38h42.21c4.73 0 8.55 5.53 8.55 12.38ZM1501.29 1451.75v61c0 6.83-3.82 12.37-8.55 12.37h-42.21c-4.73 0-8.55-5.54-8.55-12.37v-61c0-6.84 3.82-12.37 8.55-12.37h42.21c4.73 0 8.55 5.53 8.55 12.37ZM1501.29 1298.65v61c0 6.83-3.82 12.38-8.55 12.38h-42.21c-4.73 0-8.55-5.55-8.55-12.38v-61c0-6.84 3.82-12.37 8.55-12.37h42.21c4.73 0 8.55 5.53 8.55 12.37ZM868.24 1571.2v61c0 6.82-3.82 12.37-8.55 12.37h-42.21c-4.73 0-8.55-5.55-8.55-12.37v-61c0-6.85 3.82-12.38 8.55-12.38h42.21c4.73 0 8.55 5.53 8.55 12.38ZM868.24 1418.1v61.05c0 6.83-3.82 12.37-8.55 12.37h-42.21c-4.73 0-8.55-5.54-8.55-12.37v-61.05c0-6.84 3.82-12.37 8.55-12.37h42.21c4.73 0 8.55 5.53 8.55 12.37ZM868.24 1265v61c0 6.83-3.82 12.38-8.55 12.38h-42.21c-4.73 0-8.55-5.55-8.55-12.38v-61c0-6.84 3.82-12.37 8.55-12.37h42.21c4.73 0 8.55 5.53 8.55 12.37ZM868.24 2030.49v61c0 6.82-3.82 12.37-8.55 12.37h-42.21c-4.73 0-8.55-5.55-8.55-12.37v-61c0-6.85 3.82-12.38 8.55-12.38h42.21c4.73 0 8.55 5.53 8.55 12.38ZM868.24 1877.39v61c0 6.83-3.82 12.37-8.55 12.37h-42.21c-4.73 0-8.55-5.54-8.55-12.37v-61c0-6.84 3.82-12.37 8.55-12.37h42.21c4.73-.02 8.55 5.53 8.55 12.37ZM868.24 1724.29v61c0 6.83-3.82 12.38-8.55 12.38h-42.21c-4.73 0-8.55-5.55-8.55-12.38v-61c0-6.84 3.82-12.37 8.55-12.37h42.21c4.73 0 8.55 5.53 8.55 12.37ZM989.26 1571.2v61c0 6.82-3.82 12.37-8.56 12.37h-42.2c-4.73 0-8.56-5.55-8.56-12.37v-61c0-6.85 3.83-12.38 8.56-12.38h42.2c4.74 0 8.56 5.53 8.56 12.38ZM989.26 1418.1v61.05c0 6.83-3.82 12.37-8.56 12.37h-42.2c-4.73 0-8.56-5.54-8.56-12.37v-61.05c0-6.84 3.83-12.37 8.56-12.37h42.2c4.74 0 8.56 5.53 8.56 12.37ZM989.26 1265v61c0 6.83-3.82 12.38-8.56 12.38h-42.2c-4.73 0-8.56-5.55-8.56-12.38v-61c0-6.84 3.83-12.37 8.56-12.37h42.2c4.74 0 8.56 5.53 8.56 12.37ZM989.26 2030.49v61c0 6.82-3.82 12.37-8.56 12.37h-42.2c-4.73 0-8.56-5.55-8.56-12.37v-61c0-6.85 3.83-12.38 8.56-12.38h42.2c4.74 0 8.56 5.53 8.56 12.38ZM989.26 1877.39v61c0 6.83-3.82 12.37-8.56 12.37h-42.2c-4.73 0-8.56-5.54-8.56-12.37v-61c0-6.84 3.83-12.37 8.56-12.37h42.2c4.74-.02 8.56 5.53 8.56 12.37ZM989.26 1724.29v61c0 6.83-3.82 12.38-8.56 12.38h-42.2c-4.73 0-8.56-5.55-8.56-12.38v-61c0-6.84 3.83-12.37 8.56-12.37h42.2c4.74 0 8.56 5.53 8.56 12.37ZM1110.28 1571.2v61c0 6.82-3.83 12.37-8.56 12.37h-42.2c-4.74 0-8.56-5.55-8.56-12.37v-61c0-6.85 3.82-12.38 8.56-12.38h42.2c4.73 0 8.56 5.53 8.56 12.38ZM1110.28 1418.1v61.05c0 6.83-3.83 12.37-8.56 12.37h-42.2c-4.74 0-8.56-5.54-8.56-12.37v-61.05c0-6.84 3.82-12.37 8.56-12.37h42.2c4.73 0 8.56 5.53 8.56 12.37ZM1110.28 1265v61c0 6.83-3.83 12.38-8.56 12.38h-42.2c-4.74 0-8.56-5.55-8.56-12.38v-61c0-6.84 3.82-12.37 8.56-12.37h42.2c4.73 0 8.56 5.53 8.56 12.37ZM1110.28 2030.49v61c0 6.82-3.83 12.37-8.56 12.37h-42.2c-4.74 0-8.56-5.55-8.56-12.37v-61c0-6.85 3.82-12.38 8.56-12.38h42.2c4.73 0 8.56 5.53 8.56 12.38ZM1110.28 1877.39v61c0 6.83-3.83 12.37-8.56 12.37h-42.2c-4.74 0-8.56-5.54-8.56-12.37v-61c0-6.84 3.82-12.37 8.56-12.37h42.2c4.73-.02 8.56 5.53 8.56 12.37ZM1110.28 1724.29v61c0 6.83-3.83 12.38-8.56 12.38h-42.2c-4.74 0-8.56-5.55-8.56-12.38v-61c0-6.84 3.82-12.37 8.56-12.37h42.2c4.73 0 8.56 5.53 8.56 12.37ZM1231.29 1571.2v61c0 6.82-3.82 12.37-8.55 12.37h-42.21c-4.73 0-8.55-5.55-8.55-12.37v-61c0-6.85 3.82-12.38 8.55-12.38h42.21c4.73 0 8.55 5.53 8.55 12.38ZM1231.29 1418.1v61.05c0 6.83-3.82 12.37-8.55 12.37h-42.21c-4.73 0-8.55-5.54-8.55-12.37v-61.05c0-6.84 3.82-12.37 8.55-12.37h42.21c4.73 0 8.55 5.53 8.55 12.37ZM1231.29 1265v61c0 6.83-3.82 12.38-8.55 12.38h-42.21c-4.73 0-8.55-5.55-8.55-12.38v-61c0-6.84 3.82-12.37 8.55-12.37h42.21c4.73 0 8.55 5.53 8.55 12.37ZM1231.29 2030.49v61c0 6.82-3.82 12.37-8.55 12.37h-42.21c-4.73 0-8.55-5.55-8.55-12.37v-61c0-6.85 3.82-12.38 8.55-12.38h42.21c4.73 0 8.55 5.53 8.55 12.38ZM1231.29 1877.39v61c0 6.83-3.82 12.37-8.55 12.37h-42.21c-4.73 0-8.55-5.54-8.55-12.37v-61c0-6.84 3.82-12.37 8.55-12.37h42.21c4.73-.02 8.55 5.53 8.55 12.37ZM1231.29 1724.29v61c0 6.83-3.82 12.38-8.55 12.38h-42.21c-4.73 0-8.55-5.55-8.55-12.38v-61c0-6.84 3.82-12.37 8.55-12.37h42.21c4.73 0 8.55 5.53 8.55 12.37ZM1948.26 1773.4H1906c-4.72 0-8.55-5.53-8.55-12.37v-61c0-6.85 3.83-12.38 8.55-12.38h42.22c4.73 0 8.55 5.53 8.55 12.38v61c.04 6.84-3.77 12.37-8.51 12.37ZM1630.66 1773.4h-42.22c-4.72 0-8.55-5.53-8.55-12.37v-61c0-6.85 3.83-12.38 8.55-12.38h42.22c4.73 0 8.56 5.53 8.56 12.38v61c0 6.84-3.83 12.37-8.56 12.37ZM1736.53 1773.4h-42.22c-4.72 0-8.56-5.53-8.56-12.37v-61c0-6.85 3.84-12.38 8.56-12.38h42.22c4.73 0 8.55 5.53 8.55 12.38v61c0 6.84-3.82 12.37-8.55 12.37ZM1842.39 1773.4h-42.21c-4.72 0-8.56-5.53-8.56-12.37v-61c0-6.85 3.84-12.38 8.56-12.38h42.21c4.73 0 8.56 5.53 8.56 12.38v61c.05 6.84-3.83 12.37-8.56 12.37ZM1948.26 2018.82H1906c-4.72 0-8.55-5.52-8.55-12.37v-61c0-6.85 3.83-12.37 8.55-12.37h42.22c4.73 0 8.55 5.52 8.55 12.37v61c.04 6.85-3.77 12.37-8.51 12.37ZM1630.66 2018.82h-42.22c-4.72 0-8.55-5.52-8.55-12.37v-61c0-6.85 3.83-12.37 8.55-12.37h42.22c4.73 0 8.56 5.52 8.56 12.37v61c0 6.85-3.83 12.37-8.56 12.37ZM1736.53 2018.82h-42.22c-4.72 0-8.56-5.52-8.56-12.37v-61c0-6.85 3.84-12.37 8.56-12.37h42.22c4.73 0 8.55 5.52 8.55 12.37v61c0 6.85-3.82 12.37-8.55 12.37ZM1842.39 2018.82h-42.21c-4.72 0-8.56-5.52-8.56-12.37v-61c0-6.85 3.84-12.37 8.56-12.37h42.21c4.73 0 8.56 5.52 8.56 12.37v61c.05 6.85-3.83 12.37-8.56 12.37Z" style="fill:#dfe9f4"></path>
    <rect width="717.91" height="978.28" x="586.69" y="511.55" rx="32.31" style="fill:#cedbee"></rect>
    <path d="M1273.18 593.61v814.17c0 27.69-21.93 50.14-49 50.14H667.06c-27 0-49-22.45-49-50.14V593.61c0-27.69 21.93-50.14 49-50.14h557.16c27.03 0 48.96 22.45 48.96 50.14Z" style="fill:#f5f5f7"></path>
    <path d="m1100.91 1002.51 89.67-81.38 79.43 93.8 6.33-5.36-79.61-94.02 79.23-71.91-5.58-6.14-79.02 71.71-311.97-368.42-6.34 5.36 312.16 368.64-87.31 79.24-277.61-15.14-198.84-270.42-6.69 4.92 201.16 273.58 272.87 14.88-209.35 178.12-112.19-138.4-6.45 5.23 112.32 138.55-257.7 219.26 5.38 6.32 257.55-219.12 217.83 268.72 6.45-5.23-217.96-268.88 216.17-183.91h.07z" style="fill:#cddde8"></path>
    <path d="m735.64 810.87 68.35-42.07 60.05 98.49-64.2 29.92-64.2-86.34zM825.3 1282.42l52.03-39.86 80.8 104.05-44.97 40.96-87.86-105.15z" style="fill:#fff"></path>
    <path d="m618.11 747.5 141.88 214.18-141.88 127.85V747.5zM759.99 568.18h117.06l103.77 146.11-92.15 36.75-128.68-182.86zM941.53 1174.22l151.18-134.41 159.86 187.26v184.85h-126.19l-184.85-237.7zM704.65 1111.75l55.34-41.04 36.53 35.7-50.92 45.39-40.95-40.05zM1273.18 593.61v9l-123 71-98.36-105.43q-12.79-13.42-22.91-24.71h195.31c27.03 0 48.96 22.45 48.96 50.14Z" style="fill:#cedbee"></path>
    <path d="M1117.8 794.82c4.15 0 98.8-65.54 98.8-65.54l45.81 69.72-65.74 84.7Z" style="fill:#fff"></path>
    <path d="m803.99 1045.53 34.87-33.28 183.47 10.04-134.49 116.34-83.85-93.1zM906.94 770.74l83.02-34.87 51.47 44-88 57.29-46.49-66.42zM634.91 580.63l40.96-19.92 109.58 183.95-75.27 41.85-75.27-95.75V580.63zM652.62 1411.92l107.37-88.55 78.6 111.8-185.97-23.25zM930.18 931.86l58.11-40.83 63.53 76.18-121.64-35.35zM1028.91 857.91l52.37-32.02 45.66 50.28-39.02 30.61-59.01-48.87z" style="fill:#dfe9f4"></path>
    <path d="m618.11 1128.21 306.81-249.82-235.77-334.92h23.25l237.98 323.82 179.32-122.63-164.93-201.19h34.32l153.86 185.81 120.22-92.2v33.51l-262.46 187.32 262.46 313.64v28.84L990.79 871.93l-317.14 240.9 254.04 345.09h-36.53l-239.09-327.4-33.96 28.58v-30.89z" style="fill:#fff"></path>
    <path d="M838.86 650.3a68.07 68.07 0 0 0-68.07 68.08c0 27.9 37.49 94.51 56.82 127a13.09 13.09 0 0 0 22.5 0c19.34-32.5 56.83-99.11 56.83-127a68.08 68.08 0 0 0-68.08-68.08Zm0 96.06a30.78 30.78 0 1 1 30.78-30.78 30.78 30.78 0 0 1-30.78 30.78ZM795 1098.52a37.76 37.76 0 0 0-37.76 37.76c0 15.48 20.79 52.43 31.52 70.46a7.26 7.26 0 0 0 12.48 0c10.73-18 31.52-55 31.52-70.46a37.76 37.76 0 0 0-37.76-37.76Zm0 53.28a17.07 17.07 0 1 1 17.07-17.07A17.07 17.07 0 0 1 795 1151.8ZM1151 889.17a37.77 37.77 0 0 0-37.76 37.76c0 15.48 20.8 52.43 31.53 70.46a7.25 7.25 0 0 0 12.47 0c10.73-18 31.53-55 31.53-70.46a37.77 37.77 0 0 0-37.77-37.76Zm0 53.28a17.07 17.07 0 1 1 17.08-17.07 17.07 17.07 0 0 1-17.08 17.07Z" style="fill:#69bf8e"></path>
    <path d="M618.1 1262.29a4 4 0 0 1-4-4v-608a4 4 0 0 1 8 0v608a4 4 0 0 1-4 4ZM977.15 1467.27h-288.1a4 4 0 1 1 0-8h288.1a4 4 0 1 1 0 8ZM1273.18 1069.88a4 4 0 0 1-4-4V602.66a4 4 0 0 1 8 0v463.22a4 4 0 0 1-4 4ZM1126.94 515.55H717.45a4 4 0 0 1 0-8h409.49a4 4 0 1 1 0 8Z" style="fill:#92b1dd"></path>
    <path d="M2454.23 2137.62c-3.64 14.61-9.28 26.39-16.65 35.16-28.47 33.89-1347.53-29.83-1347.53-29.83l-173.63-256.19-17.2-25.38-3-4.47s1-43.07 15.33-101.73c9.66-39.52 25.42-86.15 51.08-131.44 35.56-62.79 88.12-138.18 127.62-192.54 9.84-13.55 18.86-25.78 26.61-36.18 16.92-22.7 27.79-36.75 27.79-36.75l104.31 12 30.9 3.56s-10.36 24.83-25.13 64.86c-27.23 73.88-69.4 199.58-88.75 316.54-29.81 180.3 9.86 198.91 63.92 238.59a275.4 275.4 0 0 0 64.94 35 359.21 359.21 0 0 0 72.54 19c9.76 1.52 19.93 2.78 30.52 3.71h.1a3.16 3.16 0 0 1 .32 0c30.91 2.69 65.39 2.66 103.85-.87 132.86-12.18 165.4-36.43 183-93.43 11.85-38.39-8.26-108.71-22.68-150.56-7-20.3-12.64-33.89-12.64-33.89H2184a218.33 218.33 0 0 1 110.38 29.9q3.3 1.93 6.66 4c47.39 28.78 106.29 75.65 128.38 139.63 29.15 84.47 35.22 149.51 24.81 191.31Z" style="fill:#fccd89"></path>
    <path d="M1294.82 2028.86c-22.31-.93-174-12.67-223.93-162.6-54-162 66.46-350.76 67.26-388.75.32-15.39-21.65-32-47.92-46.31 9.84-13.55 18.86-25.78 26.61-36.18 16.92-22.7 27.79-36.75 27.79-36.75l104.31 12 30.9 3.56s-10.36 24.83-25.13 64.86c-27.23 73.88-69.4 199.58-88.75 316.54-29.81 180.3 9.86 198.91 63.92 238.59a275.4 275.4 0 0 0 64.94 35.04Z" style="fill:#f28c70;opacity:.35"></path>
    <path d="M2222.77 2164.44a207.21 207.21 0 0 1-6.89 53.11q-2.12 8.09-4.89 15.91a207.22 207.22 0 0 1-195.36 138.13c-96 0-176.82-65.37-200.27-154a207.19 207.19 0 0 1 200.27-260.24c114.37-.04 207.14 92.65 207.14 207.09Z" style="fill:#343468"></path>
    <circle cx="2015.63" cy="2164.45" r="134.36" style="fill:#f2f2f2"></circle>
    <path d="M2150 2164.45a134.36 134.36 0 1 1-263.45-37.45 134.41 134.41 0 0 0 258.16 0 134.61 134.61 0 0 1 5.29 37.45Z" style="fill:#ccdbe2"></path>
    <circle cx="2015.63" cy="2164.45" r="44.69" style="fill:#343468"></circle>
    <g style="opacity:.32">
      <path d="M2222.77 2164.44a207.21 207.21 0 0 1-6.89 53.11h-400.52a207.19 207.19 0 0 1 200.27-260.24c114.37 0 207.14 92.69 207.14 207.13Z" style="fill:#272744"></path>
    </g>
    <path d="M1032.38 2164.44a207 207 0 0 1-11.77 69c-28.43 80.47-105.16 138.13-195.36 138.13-114.4 0-207.14-92.74-207.14-207.15a207.12 207.12 0 0 1 207.14-207.13c114.39.02 207.13 92.76 207.13 207.15Z" style="fill:#343468"></path>
    <circle cx="825.25" cy="2164.45" r="134.36" style="fill:#f2f2f2"></circle>
    <path d="M959.6 2164.45A134.36 134.36 0 1 1 696.16 2127a134.41 134.41 0 0 0 258.16 0 134.25 134.25 0 0 1 5.28 37.45Z" style="fill:#ccdbe2"></path>
    <circle cx="825.25" cy="2164.45" r="44.69" style="fill:#343468"></circle>
    <g style="opacity:.32">
      <path d="M1032.38 2164.44a207 207 0 0 1-11.77 69q-30.68-33.16-61.25-61-8.83-8.1-17.64-15.78c-58.75-51.29-116-88.89-167.72-116.43a785.08 785.08 0 0 0-79.17-36.7 206.26 206.26 0 0 1 130.43-46.21c114.38-.01 207.12 92.73 207.12 207.12Z" style="fill:#272744"></path>
    </g>
    <g style="opacity:.63">
      <path d="M1367.36 2047.85c-146.43-18.61-276.48-85.09-244-277.35 19.1-113.14 66.39-248.68 102.07-341.09L1116.84 1395c16.92-22.71 27.79-36.75 27.79-36.75l104.3 12 30.91 3.57s-10.37 24.82-25.13 64.85c-27.24 73.88-69.4 199.58-88.74 316.53-29.83 180.31 9.85 198.92 63.92 238.6 32.97 24.2 77.57 44.59 137.47 54.05Z" style="fill:#f28c70"></path>
    </g>
    <path d="M1336.1 1348.13c-4.06 28.88-31.65 44.7-38.52 45.6-2.36.31-11.88.27-23.38.08-22-.34-51.3-1.22-51.3-1.22s-71.84 5.42-88.11-7.45-14.24-40.68 0-75.91a86.27 86.27 0 0 1 9.49-17.3c17.93-25.65 47.57-42.75 61-48.71 16.27-7.21 82.22-22.12 92.3-17.37 4.44 2.09 13.24 20.5 21.35 42.92 4.48 12.41 8.76 26 12 38.79 4.07 16.44 6.44 31.44 5.17 40.57Z" style="fill:#fccd89"></path>
    <g style="opacity:.63">
      <path d="M1336.1 1348.13c-4.06 28.87-31.65 44.69-38.52 45.6s-74.67-1.14-74.67-1.14-71.85 5.43-88.12-7.45-14.24-40.67 0-75.92a86.12 86.12 0 0 1 9.49-17.28c-4.84 30.77-6.42 65.31 7.45 77.61 27.09 24 80.45-17.67 80.45-17.67l27 2.85s51.85-31.63 57.95-33.48c2.93-.89 8.34-9.91 13.78-13.7 4.09 16.45 6.47 31.45 5.19 40.58Z" style="fill:#f28c70"></path>
    </g>
    <g style="opacity:.63">
      <path d="M969.33 1751.76c-14.71 41.87-45.18 69.29-68.07 61.24-.29-.1-.56-.2-.84-.32-22.22-8.72-28.52-48.67-14-90 14.69-41.86 45.17-69.29 68.07-61.24 9 3.15 15.44 11.26 19.11 22.49v.14a64.26 64.26 0 0 1 2.26 9.21c2.89 16.42.92 37.27-6.53 58.48Z" style="fill:#f28c70"></path>
    </g>
    <ellipse cx="912.91" cy="1731.95" rx="80.34" ry="33.09" style="fill:#fccd89" transform="rotate(-70.65 912.86 1731.928)"></ellipse>
    <ellipse cx="905.98" cy="1729.52" rx="58.01" ry="22.89" style="fill:#fff" transform="rotate(-70.65 905.927 1729.494)"></ellipse>
    <g style="opacity:.63">
      <path d="M2454.23 2137.63c-3.64 14.6-9.27 26.38-16.65 35.15-28.47 33.89-1347.53-29.83-1347.53-29.83l-173.63-256.19a47.59 47.59 0 0 1 59.58-15.91c39.8 18.8 101.73 54.93 140.88 111.24 29.84 42.93 47.58 67.89 58 82.22a47.53 47.53 0 0 0 36 19.6l441.66 23.44a47.49 47.49 0 0 0 45.65-27.42c27.22-58.81 108.83-185.88 305.74-185.88 205.71 0 311.81 157 345.63 218.92a47.48 47.48 0 0 0 41.7 24.66Z" style="fill:#f28c70"></path>
    </g>
    <path d="M1055.15 2174.87c-19 4.57-30.38-16.56-48.14-46.8a300.58 300.58 0 0 0-190-140.57c-42.81-10.13-95.82-25.41-103-40.37-2.24-4.66-.19-12.83 5.64-22.57 20.29-33.87 86.4-86.81 177-77.7 26.1 2.62 54.23 10.39 83.88 25.24 31.69 15.87 55.53 36.69 73 60 72.16 96.01 36.88 234.24 1.62 242.77Z" style="fill:#fccd89"></path>
    <g style="opacity:.63">
      <path d="M1055.14 2174.87c-19 4.58-30.36-16.56-48.12-46.8a300.63 300.63 0 0 0-190-140.57c-42.81-10.13-95.82-25.41-103-40.37-2.24-4.67-.19-12.83 5.64-22.57 16.2 15.18 40.92 29.63 78.37 35.57 93.54 14.83 124 33.82 174.86 76.17 37.9 31.58 67.88-57 80.69-104.21 72.11 96.01 36.84 234.25 1.56 242.78Z" style="fill:#f28c70"></path>
    </g>
    <path d="M2301 2194.9h-570.73c-17.86 0-31.65-13.68-29.8-29.36a244.29 244.29 0 0 1 4.93-27.92c29.94-127 157.46-222.42 310.23-222.42s280.29 95.42 310.23 222.42a248.74 248.74 0 0 1 4.93 27.92c1.86 15.68-11.95 29.36-29.79 29.36Z" style="fill:#fccd89"></path>
    <rect width="192.5" height="23.68" x="1919.38" y="2022.09" rx="7.96" style="fill:#e99c82"></rect>
    <rect width="192.5" height="23.68" x="1919.38" y="2080.58" rx="7.96" style="fill:#e99c82"></rect>
    <g style="opacity:.63">
      <path d="M2301.08 1806.75h-638.56c-7-20.3-12.65-33.89-12.65-33.89H2184a218.33 218.33 0 0 1 110.38 29.9c2.22 1.29 4.45 2.62 6.7 3.99Z" style="fill:#f28c70"></path>
    </g>
    <path d="M1706.88 1982.09c-25.18 94.94-296.27 70.67-308.55 69.52 30.89 2.68 65.38 2.66 103.84-.87 132.86-12.17 165.39-36.43 183-93.43 11.86-38.39-8.26-108.71-22.67-150.56-7-20.3-12.65-33.89-12.65-33.89h34c13.7 37.58 43.24 133.02 23.03 209.23Z" style="fill:#fad28c"></path>
    <path d="M2217.05 1698.08v41c0 20.89-16 37.82-35.73 37.82h-521.39c-19.74 0-35.75-16.93-35.75-37.82v-41c0-20.89 16-37.84 35.75-37.84h521.39c19.74 0 35.73 16.95 35.73 37.84Z" style="fill:#2c4fa0"></path>
    <g style="opacity:.6">
      <path d="M2217.05 1722.52v16.58c0 20.89-16 37.82-35.73 37.82h-521.39c-19.74 0-35.75-16.93-35.75-37.82v-16.58Z" style="fill:#273657"></path>
    </g>
    <rect width="487.14" height="52.42" x="1996.54" y="1560.02" rx="14.33" style="fill:#fccd89"></rect>
    <path d="m2319.19 1612.44-120.12 165.91a18.39 18.39 0 0 1-14.9 7.61 18.4 18.4 0 0 1-15.86-27.73l85.8-145.79Z" style="fill:#e99c82"></path>
    <circle cx="2187.63" cy="1764.04" r="14.32" style="fill:#fff"></circle>
    <rect width="504.31" height="48.8" x="2003.77" y="1127.65" rx="3.92" style="fill:#aec6d3"></rect>
    <rect width="519.67" height="28.47" x="1996.54" y="1127.65" rx="4.5" style="fill:#cedbee"></rect>
    <g style="opacity:.78">
      <path d="M2002.64 1156.12h505.44v5.42h-505.44z" style="fill:#83a3b2"></path>
    </g>
    <rect width="504.31" height="48.8" x="1990.1" y="1176.45" rx="3.92" style="fill:#aec6d3"></rect>
    <rect width="519.67" height="28.47" x="1982.87" y="1176.45" rx="4.5" style="fill:#cedbee"></rect>
    <g style="opacity:.78">
      <path d="M1988.97 1204.92h505.44v5.42h-505.44z" style="fill:#83a3b2"></path>
    </g>
    <rect width="504.31" height="48.8" x="1951.12" y="1224.4" rx="3.92" style="fill:#aec6d3"></rect>
    <rect width="519.67" height="28.47" x="1943.89" y="1224.4" rx="4.5" style="fill:#cedbee"></rect>
    <g style="opacity:.78">
      <path d="M1949.99 1252.87h505.44v5.42h-505.44z" style="fill:#83a3b2"></path>
    </g>
    <rect width="504.31" height="48.8" x="1989.19" y="1271.48" rx="3.92" style="fill:#aec6d3"></rect>
    <rect width="519.67" height="28.47" x="1981.96" y="1271.48" rx="4.5" style="fill:#cedbee"></rect>
    <g style="opacity:.78">
      <path d="M1988.06 1299.95h505.44v5.42h-505.44z" style="fill:#83a3b2"></path>
    </g>
    <rect width="504.31" height="48.8" x="1976.54" y="1319.43" rx="3.92" style="fill:#aec6d3"></rect>
    <rect width="519.67" height="28.47" x="1969.31" y="1319.43" rx="4.5" style="fill:#cedbee"></rect>
    <g style="opacity:.78">
      <path d="M1975.41 1347.9h505.44v5.42h-505.44z" style="fill:#83a3b2"></path>
    </g>
    <rect width="504.31" height="48.8" x="1976.54" y="1367.38" rx="3.92" style="fill:#aec6d3"></rect>
    <rect width="519.67" height="28.47" x="1969.31" y="1367.38" rx="4.5" style="fill:#cedbee"></rect>
    <g style="opacity:.78">
      <path d="M1975.41 1395.85h505.44v5.42h-505.44z" style="fill:#83a3b2"></path>
    </g>
    <rect width="504.31" height="48.8" x="2016.31" y="1415.32" rx="3.92" style="fill:#aec6d3"></rect>
    <rect width="519.67" height="28.47" x="2009.08" y="1415.32" rx="4.5" style="fill:#cedbee"></rect>
    <g style="opacity:.78">
      <path d="M2015.18 1443.79h505.44v5.42h-505.44z" style="fill:#83a3b2"></path>
    </g>
    <rect width="504.31" height="48.8" x="1989.86" y="1463.27" rx="3.92" style="fill:#aec6d3"></rect>
    <rect width="519.67" height="28.47" x="1982.63" y="1463.27" rx="4.5" style="fill:#cedbee"></rect>
    <g style="opacity:.78">
      <path d="M1988.73 1491.74h505.44v5.42h-505.44z" style="fill:#83a3b2"></path>
    </g>
    <rect width="504.31" height="48.8" x="1958.24" y="1511.21" rx="3.92" style="fill:#aec6d3"></rect>
    <rect width="519.67" height="28.47" x="1951.01" y="1511.21" rx="4.5" style="fill:#cedbee"></rect>
    <g style="opacity:.78">
      <path d="M1957.11 1539.68h505.44v5.42h-505.44z" style="fill:#83a3b2"></path>
    </g>
    <path d="M2132.56 1560h-25.76v-434.83a8 8 0 0 1 8-8h9.76a8 8 0 0 1 8 8ZM2359 1560h-25.76v-434.83a8 8 0 0 1 8-8h9.76a8 8 0 0 1 8 8Z" style="fill:#92b1dd"></path>
    <path d="M1251.1 1260a6.79 6.79 0 0 1-3.29-7.61c4.56-17.88 20.89-77.79 39.26-96.23a138.57 138.57 0 0 1 32.94-24.9 6.78 6.78 0 0 1 9.74 4.35 6.79 6.79 0 0 1-4.24 8c-8.47 3.14-24.46 11.46-36.56 32-13.13 22.27-22.55 62.7-26.3 80.71a6.78 6.78 0 0 1-10 4.55Z" style="fill:#e99c82"></path>
    <ellipse cx="1357.47" cy="1126.26" rx="34.24" ry="49.33" style="fill:#2c4fa0"></ellipse>
    <g style="opacity:.63">
      <path d="M986.11 1789.81c-1.33 55.85-5.5 82.29-5.5 82.29-29.65-14.85-57.78-22.62-83.88-25.24.54-7.67 1.6-19.42 3.69-34.18.28.12.55.22.84.32 22.89 8 53.36-19.37 68.07-61.24 7.45-21.21 9.42-42.06 6.57-58.51 3.87 17.02 11.2 55.2 10.21 96.56Z" style="fill:#f28c70"></path>
    </g>
    <g style="opacity:.63">
      <path d="M2301 2194.9h-570.73c-17.86 0-31.65-13.68-29.8-29.36a244.29 244.29 0 0 1 4.93-27.92h620.46a248.74 248.74 0 0 1 4.93 27.92c1.86 15.68-11.95 29.36-29.79 29.36Z" style="fill:#f28c70"></path>
    </g>
    <g style="opacity:.63">
      <path d="M1336.1 1348.13c-4.06 28.88-31.65 44.7-38.52 45.6-2.36.31-11.88.27-23.38.08-1-1.31-1.59-2-1.59-2s-65.63-16.8-68.3-23.07 9.26-72.08 21-80.92c9.21-6.94 68.66-15.61 93.64-19 4.48 12.41 8.76 26 12 38.79 4.05 16.39 6.42 31.39 5.15 40.52Z" style="fill:#f28c70"></path>
    </g>
    <circle cx="1246.55" cy="1331.23" r="25.16" style="fill:#343468"></circle>
    <g style="opacity:.63">
      <path d="M1172 1972.25a4 4 0 0 1-3.14-1.52c-1.95-2.47-47.84-61.31-54.46-138.74-3.4-39.67 10-110.12 39.91-209.38 22.18-73.71 45.66-136.68 45.9-137.31a4 4 0 1 1 7.49 2.8c-.93 2.5-93.25 250.74-85.33 343.21 6.41 75 52.3 133.87 52.77 134.46a4 4 0 0 1-3.14 6.48Z" style="fill:#ea6a4b"></path>
    </g>
    <path d="M1599.74 2113h-.26l-388.92-25.06a4 4 0 1 1 .51-8L1600 2105a4 4 0 0 1-.25 8ZM2285.23 2051.85a4 4 0 0 1-3.34-1.79c-.15-.24-15.82-23.72-46.65-50.38-28.39-24.55-75.84-56.9-140.68-71.61a360.71 360.71 0 0 0-156.3-.72c-38.5 8.48-61.93 20.6-62.16 20.72a4 4 0 1 1-3.72-7.08c1-.51 24.4-12.66 63.86-21.38a368.38 368.38 0 0 1 160.09.66c66.57 15.11 115.25 48.34 144.37 73.55 31.58 27.36 47.22 50.85 47.87 51.83a4 4 0 0 1-1.14 5.54 4 4 0 0 1-2.2.66ZM2359 1564h-300.2a4 4 0 0 1 0-8H2359a4 4 0 0 1 0 8ZM1190 1401.79c-6.18 0-12.3-.11-18.17-.37-42.39-1.88-46.44-19.94-46.76-22l7.9-1.24v-.12c0 .14 3.45 13.77 39.24 15.35 39.58 1.76 91.28-3.39 91.8-3.44a4 4 0 1 1 .8 8c-.5.03-38.68 3.82-74.81 3.82Z" style="fill:#ea6a4b"></path>
    <path d="M1574.11 1957.31s32.22 44.27 24.41 58.92-24.74 25.39-60.54 30-99.6 15.21-102.52 7.27-2.93-24.51 18.55-31.36 77.08-35.42 77.08-35.42ZM1412 1973.26s-6.18 69.28-21.48 72.52-89.61-13.46-130.24-32.74-39.65-35.87-30.86-39.78 98.43 11.54 108.77 11.63 18.78-13.18 18.78-13.18Z" style="fill:#273657"></path>
    <path d="M1560.21 1629.8s18.81 73.19 22.73 144 3 193.1-5.16 197-47.36 21.61-54.42 13.92S1480.24 1745 1477.1 1724s61.16-141.69 83.11-94.2Z" style="fill:#273657"></path>
    <path d="M1911.59 1503.43s-70.7 154.14-157.46 161.4-218.68-13.49-218.68-13.49 1.65 58.59-25.21 130.51-89.72 202-95.4 202.91c-3.75.59-25.56-.72-41.41-4.71-8.1-2-14.63-4.78-16.43-8.34-4.53-8.9 56.52-309 83.73-401.52 0 0 9.26-25.94 32.28-32a.79.79 0 0 1 .22-.05c58.35-14.84 225.52-55.82 225.52-55.82l59.86 6Z" style="fill:#2c4fa0"></path>
    <g style="opacity:.6">
      <path d="M1911.59 1503.43s-70.7 154.14-157.46 161.4-218.68-13.49-218.68-13.49 1.65 58.59-25.21 130.51-89.72 202-95.4 202.91c-3.75.59-25.56-.72-41.41-4.71 97.72-72.47 131.24-348.29 143.49-366.74 12.48-18.84 154.47-3.14 200-27.08 25.06-13.17 36.47-59.19 41.64-98Z" style="fill:#273657"></path>
    </g>
    <path d="M1670 954.56s.83 89.87 24 108.87 41 14.48 41 14.48l4.8 24.23s-2 52.11 14.29 54.49 56-37.33 56-37.33l-6.63-26.1s-3.94-6.19-5.25-20.68 4.78-39.56 4.78-39.56 6-20.66 8.23-23.6 4-9.9 4-9.9 13.63-7 16.51-19-4.7-27.85-11.8-27.83-20.48 1-25.34 5.25-3.57 16.31-5.79 16.88-7.56 3.7-7.93-8.66-8.44-34-8.44-34a200.78 200.78 0 0 1-22.37 2.13c-14.63.74-31.37-4.49-31.37-4.49s-38.39 28.12-48.69 24.82Z" style="fill:#ffb2a8"></path>
    <path d="M1735.07 1077.91s24.51-3.85 34.72-12.67 21-19.86 21-19.86-34.11 65.26-36.76 64.16-18.96-31.63-18.96-31.63Z" style="fill:#f27c85"></path>
    <ellipse cx="1735.43" cy="976.15" rx="4.46" ry="7.93" style="fill:#343468" transform="rotate(-14.24 1735.696 976.247)"></ellipse>
    <ellipse cx="1693.97" cy="982.92" rx="4.46" ry="7.93" style="fill:#343468" transform="rotate(-14.24 1694.238 983.02)"></ellipse>
    <path d="M1714.91 983.64c.56 2.53 2 5 2.06 7.63a11.62 11.62 0 0 1-1.31 4.87 67.91 67.91 0 0 0-2.8 9c-.4 1.58-1 3.34-.18 5 .58 1.27 2.13 2.56 3 3.56s-.45 2.67-1.43 1.59c-1.37-1.51-3.69-3.48-4.21-5.64s.59-4.61 1.09-6.51a66.84 66.84 0 0 1 2.42-7.7c.85-2.14 1.42-3.94.85-6.44-.38-1.66-1.15-3.21-1.52-4.9a1 1 0 1 1 2-.5ZM1744 1027.13c-8.76 9.6-22.38 11.79-34.08 5.67-1.23-.65-.22-2.61 1-2a26 26 0 0 0 31.58-5.41c.93-1 2.43.69 1.5 1.7Z" style="fill:#ea6877"></path>
    <path d="M1740.09 966.51c-.45-1.28-2.28-2-3.3-2.47a6.07 6.07 0 0 0-3.83-.74c-1.3.26-1.88-2-.58-2.27a8.52 8.52 0 0 1 5.72 1.2c1.68.87 3.27 1.74 4 3.78.5 1.42-1.5 1.91-2 .5ZM1697.69 972.14a8.28 8.28 0 0 0-7.19-3.16c-1.31.11-1.33-2.21 0-2.33a10.26 10.26 0 0 1 8.64 3.91c.94 1.13-.49 2.71-1.43 1.58Z" style="fill:#343468"></path>
    <path d="M1799.19 969.77s9.43-11.88 15.71-8.14 11.76 14.8 9.82 17.66-7.69 10.55-10.55 9.79-4-4-2.39-5.91.53-6.07-2.38-3.55-4 5.45-6.54 4.62-8.26-9.76-3.67-14.47Z" style="fill:#fff;opacity:.55"></path>
    <g style="opacity:.57">
      <ellipse cx="1749.55" cy="1000.04" rx="8.03" ry="8.46" style="fill:#ff2d5e" transform="rotate(-14.24 1749.823 1000.167)"></ellipse>
    </g>
    <g style="opacity:.57">
      <ellipse cx="1691.97" cy="1007.7" rx="8.03" ry="8.46" style="fill:#ff2d5e" transform="rotate(-14.24 1692.238 1007.813)"></ellipse>
    </g>
    <ellipse cx="1732.12" cy="971.93" rx="2.16" ry="3.03" style="fill:#fff" transform="rotate(-14.24 1732.398 972.054)"></ellipse>
    <ellipse cx="1690.54" cy="978.73" rx="2.16" ry="3.03" style="fill:#fff" transform="rotate(-14.24 1690.775 978.848)"></ellipse>
    <path d="M1661.76 966.4s-33.5-94.07 63.15-110.82 128.24 48.57 136.75 92.11-9.72 81.18-23.09 86.93-58.93.72-63.8-3.19-1.7-72.9-11.82-81-99.36 22.98-101.19 15.97Z" style="fill:#343468"></path>
    <path d="M1914.17 1483.19c-.81 10.55-1.71 17.37-2.59 19-5.42 9.95-109.36-9.93-159.06-11.74s-51.51 7.23-53.78-8.13a78.68 78.68 0 0 1-.09-11.9c.66-15.69 3.16-43 5.12-73 2.08-31.68 3.57-66.37 1.66-93.55-1.35-19-2.48-40.06-3.43-60.06-2.14-45.16-3.26-85.07-3.26-85.07s2.71-54.22 4.75-55.58 85.41-32.54 90.15-32.54 80 10.85 80 14.92-12.87 32-12.87 36 29.82 44.67 46.09 103c13.62 48.82 11.53 203.92 7.31 258.65Z" style="fill:#6cc58d"></path>
    <path d="M1705.43 1303.87c-1.35-19-2.48-40.06-3.43-60.06 50.88-49.73 100-81.07 100-81.07s-19.9 123.79-59.46 184.72c-14.69 22.63-27.94 38.71-38.8 50 2.11-31.72 3.6-66.41 1.69-93.59Z" style="fill:#3e9a83"></path>
    <path d="M1914.17 1483.19c-.81 10.55-1.71 17.37-2.59 19-5.42 9.95-109.36-9.93-159.06-11.74s-51.51 7.23-53.78-8.13a78.68 78.68 0 0 1-.09-11.9c34.76 2.35 156.97 9.41 215.52 12.77Z" style="fill:#b1dbad"></path>
    <path d="M1860.75 1121.54s-48-16.11-52.83-16.11c-3.39 0-37.48 4-57.08 6.39a.69.69 0 0 1-.24-1.36c18-4 48.73-10.46 57.32-10.46 12.38 0 56.39 10.77 56.39 10.77Z" style="fill:#3e9a83"></path>
    <path d="M1381.18 1301.52s-60.67-1.35-68.12-2-57.62-18-63.38-14.91-41 29.13-39.65 35.74 6.1 9 8.13 8.65 32.88-20.33 35.93-20.33 16.94 8.46 18.3 11.68 2 18.82-4.75 24.24-13.89 7.8-8.47 10.17 12.2 5.42 18.64 2 27.45-13.56 38.3-19.32 56.94 4.74 63 1.69 8.89-35.91 2.07-37.61Z" style="fill:#ffb2a8"></path>
    <path d="M1413.72 1296s-38.64-3.73-43.39 3.39-3 41 0 43.72 45.13 6.59 45.42 2.71 1.07-49.56-2.03-49.82Z" style="fill:#b1dbad"></path>
    <path d="M1776.46 1232c-34.34 49.25-115.23 109.81-154.54 126.07s-210.13-.9-214.2-5c-1.23-1.23-2.17-5.91-2.75-12.26 0-.55-.09-1.12-.15-1.7q-.13-2-.24-4.11c-.72-14.33.12-33.22 3.14-42 4.37-12.69 103.26-6.94 132.41-6.86a40.21 40.21 0 0 0 7.64-.36 49.8 49.8 0 0 0 5.81-2.51 130.39 130.39 0 0 0 39.63-30.23c20.92-23.4 59-65.68 73.4-79.78 20.33-19.89 54.45-58.53 100.31-50.62 11.35 2 19.77 6.54 25.52 13.09a35.59 35.59 0 0 1 5.11 7.65 41.46 41.46 0 0 1 1.85 4.44c7.6 21.51-1.49 53.38-22.94 84.18Z" style="fill:#6cc58d"></path>
    <path d="M1799.46 1147.79c-20.49 28.94-70.88 75.21-102.36 103-50.93 44.93-103.75 86.93-115.21 93.1-5.78 3.1-20.62 4.27-39.58 4.27-44.49 0-111.62-6.4-137.49-9q-.13-2-.24-4.11c58.75 6.11 159.27 14 175.38 5.3 21.43-11.52 182-144 217.65-196.93a41.46 41.46 0 0 1 1.85 4.37Z" style="fill:#b1dbad"></path>
    <path d="M1776.46 1232c-34.34 49.25-115.23 109.81-154.54 126.07s-210.13-.9-214.2-5c-1.23-1.23-2.17-5.91-2.75-12.26 32.13 3.46 83.44 7.92 128.38 7.07 71.85-1.36 33.89-21 27.12-38a47.8 47.8 0 0 0-20.34-23.81l7.64-.36s14.68 3.83 27.56 20.1 21 43.38 42.7 36.6 157.94-120.65 174.2-168.78a60.2 60.2 0 0 0 .22-38c17.78 20.29 9.96 59.12-15.99 96.37Z" style="fill:#3e9a83;opacity:.73"></path>
    <path d="M1674.84 1167.08a2 2 0 0 1-1.44-3.39c1.43-1.48 35.15-36.24 61.28-41.36 19.65-3.85 32.11-1.8 32.63-1.71a2 2 0 1 1-.67 3.94c-.12 0-12.32-2-31.19 1.7-24.91 4.88-58.83 39.85-59.16 40.2a2 2 0 0 1-1.45.62Z" style="fill:#b1dbad"></path>
    <path d="M278.77 2390.67a48.53 48.53 0 0 0 48.53 48.53h67.06a41.52 41.52 0 0 0-.69 7.53 41.72 41.72 0 0 0 41.72 41.72h639.73a41.72 41.72 0 0 0 41.72-41.72 42.43 42.43 0 0 0-.69-7.53H1156a41.52 41.52 0 0 0-.69 7.53 41.72 41.72 0 0 0 41.72 41.72h1322.83a41.72 41.72 0 0 0 41.72-41.72 41.52 41.52 0 0 0-.69-7.53h86.36a48.53 48.53 0 0 0 48.53-48.53h-2417Z" style="fill:#dfe9f4"></path>
    <path d="M322.68 2376.16s-42.91-24.91-33-53.2 34.62 1.1 34.62 1.1-65.6-69.81-56.79-110.17 66 9.26 66 9.26-83.47-124.24-41.3-171.05 88.65 8.13 100.73 54.78 18.69 76 18.69 76 12.51-61.87 34.9-55.14 14 81.77 14 81.77 23.77-36.92 35.05-12.48-2.33 73.67-2.33 73.67 37.61-45.47 49.92-5.94-21.3 101.67-21.3 101.67ZM1336.47 2379.89s-61.08-58.11-47-86.33 62.23 18.26 62.23 18.26-8.13-58.11 34.93-66.42 47.78 67.25 47.78 67.25 31.69-37.36 64.12-17.43-18.19 84.67-18.19 84.67ZM2260.48 2378.17s60.37-107.25 83.61-102.2 27.08 16.67 27.08 16.67 9.45-101.28 52.62-89.66 41.51 77.45 41.51 77.45-11.62-110.29 44.83-109.64 54.43 65.4 54.43 65.4 13.64-202.71 76.74-198.49 83 31.17 61.43 119.81-34.87 105.24-34.87 105.24 73.06-21.58 64.76 29.89-61.44 88-61.44 88Z" style="fill:#cedbee"></path>
    <rect width="2427.72" height="25" x="268.06" y="2365.67" rx="7.2" style="fill:#92b1dd"></rect>
    <rect width="1374.6" height="22.39" x="1167.15" y="2428.01" rx="7.2" style="fill:#92b1dd"></rect>
    <rect width="629.26" height="21.42" x="438.56" y="2428.98" rx="7.2" style="fill:#92b1dd"></rect>
  </g>
</svg>
