<svg xmlns="http://www.w3.org/2000/svg" width="2506.366" height="2549.8" viewBox="246.814 225.1 2506.366 2549.8" id="pizza-delivery-man-delivering-fresh-pizza">
  <g id="bubbletext">
    <path d="M995 893.46v1615.43c0 22.88-19.08 41.42-42.62 41.42H411.52c-23.53 0-42.61-18.54-42.61-41.42V893.46c0-22.87 19.08-41.4 42.61-41.4H952.4c23.54 0 42.6 18.53 42.6 41.4ZM2631.65 893.46v1615.43c0 22.88-19.08 41.42-42.62 41.42h-540.88c-23.53 0-42.61-18.54-42.61-41.42V893.46c0-22.87 19.08-41.4 42.61-41.4H2589c23.57 0 42.65 18.53 42.65 41.4Z" style="fill:#f5f5f7"></path>
    <path d="M975.6 1040.56v41.35H502.41a20.68 20.68 0 0 1 0-41.35ZM975.6 1193.58v41.35H502.41a20.68 20.68 0 0 1 0-41.35ZM975.6 1346.59V1388H502.41a20.68 20.68 0 0 1 0-41.36ZM975.6 1499.61V1541H502.41a20.68 20.68 0 0 1 0-41.35ZM975.6 1652.63V1694H502.41a20.68 20.68 0 0 1 0-41.35ZM975.6 1805.65V1847H502.41a20.68 20.68 0 0 1 0-41.35ZM975.6 1958.66V2000H502.41a20.68 20.68 0 0 1 0-41.36ZM2367.91 1004v36.53a11.69 11.69 0 0 0 11.77 11.62h26.19V1004ZM2439.31 946.71h-59.63a11.69 11.69 0 0 0-11.77 11.62v38.3h38v-49.92h7.26v49.92h38v-38.3a11.7 11.7 0 0 0-11.86-11.62ZM2413.13 1052.15h26.18a11.7 11.7 0 0 0 11.78-11.62V1004h-38ZM2479.51 1004v36.53a11.69 11.69 0 0 0 11.77 11.62h26.19V1004ZM2550.91 946.71h-59.63a11.69 11.69 0 0 0-11.77 11.62v38.3h38v-49.92h7.26v49.92h38v-38.3a11.7 11.7 0 0 0-11.86-11.62ZM2524.73 1052.15h26.18a11.7 11.7 0 0 0 11.78-11.62V1004h-38ZM2367.91 1155.57v36.52a11.7 11.7 0 0 0 11.77 11.63h26.19v-48.15ZM2439.31 1098.27h-59.63a11.7 11.7 0 0 0-11.77 11.62v38.3h38v-49.92h7.26v49.92h38v-38.3a11.7 11.7 0 0 0-11.86-11.62ZM2413.13 1203.72h26.18a11.71 11.71 0 0 0 11.78-11.63v-36.52h-38ZM2479.51 1155.57v36.52a11.7 11.7 0 0 0 11.77 11.63h26.19v-48.15ZM2550.91 1098.27h-59.63a11.7 11.7 0 0 0-11.77 11.62v38.3h38v-49.92h7.26v49.92h38v-38.3a11.7 11.7 0 0 0-11.86-11.62ZM2524.73 1203.72h26.18a11.71 11.71 0 0 0 11.78-11.63v-36.52h-38ZM2367.91 1307.13v36.53a11.7 11.7 0 0 0 11.77 11.62h26.19v-48.15ZM2439.31 1249.84h-59.63a11.69 11.69 0 0 0-11.77 11.62v38.3h38v-49.92h7.26v49.92h38v-38.3a11.7 11.7 0 0 0-11.86-11.62ZM2413.13 1355.28h26.18a11.7 11.7 0 0 0 11.78-11.62v-36.53h-38ZM2479.51 1307.13v36.53a11.7 11.7 0 0 0 11.77 11.62h26.19v-48.15ZM2550.91 1249.84h-59.63a11.69 11.69 0 0 0-11.77 11.62v38.3h38v-49.92h7.26v49.92h38v-38.3a11.7 11.7 0 0 0-11.86-11.62ZM2524.73 1355.28h26.18a11.7 11.7 0 0 0 11.78-11.62v-36.53h-38ZM2367.91 1458.7v36.52a11.7 11.7 0 0 0 11.77 11.63h26.19v-48.15ZM2439.31 1401.4h-59.63a11.7 11.7 0 0 0-11.77 11.62v38.3h38v-49.92h7.26v49.92h38V1413a11.7 11.7 0 0 0-11.86-11.6ZM2413.13 1506.85h26.18a11.71 11.71 0 0 0 11.78-11.63v-36.52h-38ZM2479.51 1458.7v36.52a11.7 11.7 0 0 0 11.77 11.63h26.19v-48.15ZM2550.91 1401.4h-59.63a11.7 11.7 0 0 0-11.77 11.62v38.3h38v-49.92h7.26v49.92h38V1413a11.7 11.7 0 0 0-11.86-11.6ZM2524.73 1506.85h26.18a11.71 11.71 0 0 0 11.78-11.63v-36.52h-38ZM2367.91 1610.26v36.53a11.7 11.7 0 0 0 11.77 11.62h26.19v-48.15ZM2439.31 1553h-59.63a11.69 11.69 0 0 0-11.77 11.62v38.3h38V1553h7.26v49.92h38v-38.3a11.7 11.7 0 0 0-11.86-11.62ZM2413.13 1658.41h26.18a11.7 11.7 0 0 0 11.78-11.62v-36.53h-38ZM2479.51 1610.26v36.53a11.7 11.7 0 0 0 11.77 11.62h26.19v-48.15ZM2550.91 1553h-59.63a11.69 11.69 0 0 0-11.77 11.62v38.3h38V1553h7.26v49.92h38v-38.3a11.7 11.7 0 0 0-11.86-11.62ZM2524.73 1658.41h26.18a11.7 11.7 0 0 0 11.78-11.62v-36.53h-38ZM2367.91 1761.83v36.52a11.7 11.7 0 0 0 11.77 11.63h26.19v-48.15ZM2439.31 1704.53h-59.63a11.7 11.7 0 0 0-11.77 11.62v38.3h38v-49.92h7.26v49.92h38v-38.3a11.7 11.7 0 0 0-11.86-11.62ZM2413.13 1810h26.18a11.71 11.71 0 0 0 11.78-11.63v-36.52h-38ZM2479.51 1761.83v36.52a11.7 11.7 0 0 0 11.77 11.63h26.19v-48.15ZM2550.91 1704.53h-59.63a11.7 11.7 0 0 0-11.77 11.62v38.3h38v-49.92h7.26v49.92h38v-38.3a11.7 11.7 0 0 0-11.86-11.62ZM2524.73 1810h26.18a11.71 11.71 0 0 0 11.78-11.63v-36.52h-38ZM2367.91 1913.39v36.53a11.7 11.7 0 0 0 11.77 11.62h26.19v-48.15ZM2439.31 1856.1h-59.63a11.69 11.69 0 0 0-11.77 11.62V1906h38v-49.9h7.26v49.9h38v-38.3a11.7 11.7 0 0 0-11.86-11.6ZM2413.13 1961.54h26.18a11.7 11.7 0 0 0 11.78-11.62v-36.53h-38ZM2479.51 1913.39v36.53a11.7 11.7 0 0 0 11.77 11.62h26.19v-48.15ZM2550.91 1856.1h-59.63a11.69 11.69 0 0 0-11.77 11.62V1906h38v-49.9h7.26v49.9h38v-38.3a11.7 11.7 0 0 0-11.86-11.6ZM2524.73 1961.54h26.18a11.7 11.7 0 0 0 11.78-11.62v-36.53h-38ZM2367.91 2065v36.52a11.7 11.7 0 0 0 11.77 11.63h26.19V2065ZM2439.31 2007.66h-59.63a11.69 11.69 0 0 0-11.77 11.62v38.3h38v-49.92h7.26v49.92h38v-38.3a11.7 11.7 0 0 0-11.86-11.62ZM2413.13 2113.11h26.18a11.71 11.71 0 0 0 11.78-11.63V2065h-38ZM2479.51 2065v36.52a11.7 11.7 0 0 0 11.77 11.63h26.19V2065ZM2550.91 2007.66h-59.63a11.69 11.69 0 0 0-11.77 11.62v38.3h38v-49.92h7.26v49.92h38v-38.3a11.7 11.7 0 0 0-11.86-11.62ZM2524.73 2113.11h26.18a11.71 11.71 0 0 0 11.78-11.63V2065h-38ZM2292.56 964.55a12.54 12.54 0 0 1-2.69 8 8.42 8.42 0 0 1-6.5 3.29H2065v-22.53h218.42c5.03 0 9.14 5.04 9.14 11.24ZM2292.56 1063.4a12.53 12.53 0 0 1-2.69 7.94 8.43 8.43 0 0 1-6.5 3.3H2065v-22.49h218.42c5.03 0 9.14 5.04 9.14 11.25ZM2292.56 1162.24a12.54 12.54 0 0 1-2.69 8 8.45 8.45 0 0 1-6.5 3.29H2065V1151h218.42c5.03 0 9.14 5 9.14 11.24ZM2292.56 1261.08a12.54 12.54 0 0 1-2.69 8 8.42 8.42 0 0 1-6.5 3.29H2065v-22.48h218.42c5.03-.05 9.14 4.99 9.14 11.19ZM2292.56 1359.92a12.54 12.54 0 0 1-2.69 7.95 8.43 8.43 0 0 1-6.5 3.3H2065v-22.49h218.42c5.03 0 9.14 5.04 9.14 11.24ZM2292.56 1458.77a12.54 12.54 0 0 1-2.69 8 8.45 8.45 0 0 1-6.5 3.29H2065v-22.48h218.42c5.03-.05 9.14 4.98 9.14 11.19ZM2292.56 1557.61a12.54 12.54 0 0 1-2.69 8 8.42 8.42 0 0 1-6.5 3.29H2065v-22.48h218.42c5.03-.05 9.14 4.99 9.14 11.19ZM2292.56 1656.45a12.54 12.54 0 0 1-2.69 8 8.43 8.43 0 0 1-6.5 3.3H2065v-22.49h218.42c5.03-.05 9.14 4.99 9.14 11.19ZM2292.56 1755.3a12.54 12.54 0 0 1-2.69 8 8.45 8.45 0 0 1-6.5 3.29H2065v-22.49h218.42c5.03-.05 9.14 4.99 9.14 11.2ZM2065 484.58v2014.09c0 28.51-33.15 51.63-74 51.63h-939.73c-40.89 0-74-23.12-74-51.63V484.58c0-28.52 33.15-51.62 74-51.62h939.64c40.89.04 74.09 23.1 74.09 51.62Z" style="fill:#dfe9f4"></path>
    <path d="M1056 680.22v65a20.83 20.83 0 0 0 21 20.7h46.61v-85.7ZM1183.07 578.23h-106.15a20.82 20.82 0 0 0-21 20.69v68.17h67.57v-88.86h12.93v88.86H1204v-68.17a20.82 20.82 0 0 0-20.93-20.69ZM1136.46 765.94h46.61a20.83 20.83 0 0 0 21-20.7v-65h-67.57ZM1632.41 680.22v65a20.83 20.83 0 0 0 21 20.7H1700v-85.7ZM1759.52 578.23h-106.15a20.82 20.82 0 0 0-21 20.69v68.17H1700v-88.86h12.93v88.86h67.57v-68.17a20.82 20.82 0 0 0-20.98-20.69ZM1712.91 765.94h46.61a20.83 20.83 0 0 0 21-20.7v-65h-67.57ZM1842.8 680.22v65a20.83 20.83 0 0 0 21 20.7h46.61v-85.7ZM1969.91 578.23h-106.15a20.82 20.82 0 0 0-21 20.69v68.17h67.57v-88.86h12.93v88.86h67.57v-68.17a20.83 20.83 0 0 0-20.92-20.69ZM1923.3 765.94h46.61a20.84 20.84 0 0 0 21-20.7v-65h-67.61ZM1056 966.44v65a20.83 20.83 0 0 0 21 20.7h46.61v-85.7ZM1183.07 864.45h-106.15a20.82 20.82 0 0 0-21 20.68v68.18h67.57v-88.86h12.93v88.86H1204v-68.18a20.82 20.82 0 0 0-20.93-20.68ZM1136.46 1052.15h46.61a20.83 20.83 0 0 0 21-20.7v-65h-67.57ZM1254.63 966.44v65a20.83 20.83 0 0 0 21 20.7h46.61v-85.7ZM1381.74 864.45h-106.15a20.82 20.82 0 0 0-21 20.68v68.18h67.57v-88.86h12.93v88.86h67.57v-68.18a20.82 20.82 0 0 0-20.92-20.68ZM1335.13 1052.15h46.61a20.83 20.83 0 0 0 21-20.7v-65h-67.57ZM1632.41 966.44v65a20.83 20.83 0 0 0 21 20.7H1700v-85.7ZM1759.52 864.45h-106.15a20.82 20.82 0 0 0-21 20.68v68.18H1700v-88.86h12.93v88.86h67.57v-68.18a20.82 20.82 0 0 0-20.98-20.68ZM1712.91 1052.15h46.61a20.83 20.83 0 0 0 21-20.7v-65h-67.57ZM1842.8 966.44v65a20.83 20.83 0 0 0 21 20.7h46.61v-85.7ZM1969.91 864.45h-106.15a20.82 20.82 0 0 0-21 20.68v68.18h67.57v-88.86h12.93v88.86h67.57v-68.18a20.83 20.83 0 0 0-20.92-20.68ZM1923.3 1052.15h46.61a20.84 20.84 0 0 0 21-20.7v-65h-67.61ZM1056 1690.84v65a20.83 20.83 0 0 0 21 20.69h46.61v-85.71ZM1183.07 1588.85h-106.15a20.82 20.82 0 0 0-21 20.68v68.18h67.57v-88.86h12.93v88.86H1204v-68.18a20.82 20.82 0 0 0-20.93-20.68ZM1136.46 1776.55h46.61a20.83 20.83 0 0 0 21-20.69v-65h-67.57ZM1632.41 1690.84v65a20.83 20.83 0 0 0 21 20.69H1700v-85.71ZM1759.52 1588.85h-106.15a20.82 20.82 0 0 0-21 20.68v68.18H1700v-88.86h12.93v88.86h67.57v-68.18a20.82 20.82 0 0 0-20.98-20.68ZM1712.91 1776.55h46.61a20.83 20.83 0 0 0 21-20.69v-65h-67.57ZM1842.8 1690.84v65a20.83 20.83 0 0 0 21 20.69h46.61v-85.71ZM1969.91 1588.85h-106.15a20.82 20.82 0 0 0-21 20.68v68.18h67.57v-88.86h12.93v88.86h67.57v-68.18a20.83 20.83 0 0 0-20.92-20.68ZM1923.3 1776.55h46.61a20.83 20.83 0 0 0 21-20.69v-65h-67.61Z" style="fill:#cedbee"></path>
    <path d="M1921 2557.74s-65.91-29.79-57.79-101.22 76.47-103.28 64.44-149.83-73.66-47.67-60.6-107 54.52-71.53 48.23-104.76-66.71-112.91 32.23-106.73 139.33 85.42 117.12 147.81 53.5 67.75 50.49 118.15-77.7 108.6-42.12 133 34.16 140.84-152 170.58Z" style="fill:#aec6d3"></path>
    <path d="M1905.82 2583.69a2.72 2.72 0 0 0 .6-.53c.56-.66 56.93-68 91.84-187.89 35-120.18-14-259.43-14.48-260.82a2.88 2.88 0 0 0-5.42 1.94c.5 1.38 48.83 138.91 14.37 257.27-34.54 118.62-90.15 185.12-90.71 185.78a2.88 2.88 0 0 0 3.8 4.25Z" style="fill:#92b1dd"></path>
    <path d="M1932.12 2481.69s-31.73-66.29 19.89-117.61 124.38-32.27 144.7-76.93-26.34-85.48 21.37-124 87.35-21.34 103.62-51.74 20.45-132.65 92.57-63.65 52.83 157.92-3.86 192.95-1.92 88.32-36.25 126.29-128.71 35.68-116.83 78-63.22 133.69-225.21 36.69Z" style="fill:#cedbee"></path>
    <path d="M1904.72 2494.24a2.24 2.24 0 0 0 .73 0c.79-.14 80.32-15.09 175.3-80 95.22-65.07 141.85-192.81 142.3-194.1a2.65 2.65 0 1 0-5-1.79c-.45 1.27-46.52 127.43-140.3 191.51-94 64.21-172.47 79-173.25 79.14a2.65 2.65 0 0 0 .21 5.25Z" style="fill:#aebfce"></path>
    <path d="M2623.11 2503.62s24.19-22.38 13.35-55.75-56.72-18.35-56.72-18.35 21.69-76.73-27.52-99.25-78.41 45-81.75 42.54-10-24.19-34.19-16.69-32.53 40-32.53 40-6.68-15.85-19.19-15.85-14.18 27.53-14.18 27.53-36.7-50.88-83.41-37.54-69.23 75.07-69.23 75.07-7.51-60.89-57.55-37.53-50.88 95.78-50.88 95.78Z" style="fill:#dfe9f4"></path>
    <path d="M1097.72 2557.74s65.9-29.79 57.78-101.22-76.47-103.28-64.44-149.83 73.67-47.67 60.61-107-54.52-71.53-48.24-104.76 66.72-112.91-32.23-106.73-139.33 85.44-117.12 147.8-53.5 67.75-50.48 118.15 77.7 108.6 42.11 133-34.13 140.85 152.01 170.59Z" style="fill:#aec6d3"></path>
    <path d="M1112.91 2583.69a2.47 2.47 0 0 1-.59-.53c-.57-.66-56.94-68-91.85-187.89-35-120.18 14-259.43 14.48-260.82a2.88 2.88 0 1 1 5.42 1.94c-.49 1.38-48.83 138.91-14.37 257.27 34.54 118.62 90.15 185.12 90.71 185.78a2.88 2.88 0 0 1-3.8 4.25Z" style="fill:#92b1dd"></path>
    <path d="M1086.61 2481.69s31.73-66.29-19.88-117.61-124.38-32.27-144.73-76.93 26.34-85.48-21.37-124-87.34-21.34-103.62-51.74-20.44-132.65-92.57-63.65-52.83 157.92 3.87 192.95 1.93 88.29 36.26 126.29 128.71 35.68 116.84 78 63.21 133.69 225.2 36.69Z" style="fill:#cedbee"></path>
    <path d="M1114 2494.24a2.25 2.25 0 0 1-.73 0c-.79-.14-80.32-15.09-175.3-80-95.22-65.07-141.84-192.81-142.3-194.1a2.65 2.65 0 0 1 5-1.79c.46 1.27 46.52 127.43 140.3 191.51 94 64.21 172.47 79 173.26 79.14a2.65 2.65 0 0 1-.22 5.25Z" style="fill:#aebfce"></path>
    <path d="M395.62 2503.62s-24.19-22.38-13.35-55.75 56.73-18.35 56.73-18.35-21.69-76.73 27.53-99.25 78.4 45 81.74 42.54 10-24.19 34.2-16.69 32.53 40 32.53 40 6.67-15.85 19.18-15.85 14.18 27.53 14.18 27.53 36.7-50.88 83.41-37.54 69.23 75.11 69.23 75.11 7.51-60.89 57.55-37.53 50.89 95.78 50.89 95.78ZM368.91 2529.49h2262.74v52.26a77.25 77.25 0 0 1-77.25 77.25H446.15a77.25 77.25 0 0 1-77.25-77.25v-52.26Z" style="fill:#dfe9f4"></path>
    <rect width="2270.91" height="26.5" x="360.74" y="2502.99" rx="7.2" style="fill:#92b1dd"></rect>
    <rect width="989.38" height="23.74" x="1251.09" y="2572.31" rx="7.2" style="fill:#92b1dd"></rect>
    <rect width="588.62" height="22.71" x="577.04" y="2572.82" rx="7.03" style="fill:#92b1dd"></rect>
    <rect width="140.18" height="23.22" x="2294.8" y="2572.31" rx="7.03" style="fill:#92b1dd"></rect>
    <path d="M1627.05 1050.07s-122.3 69.83-146.53 69.83-151.86-58.53-151.86-58.53 55.83-44.53 66.12-108.55a126.66 126.66 0 0 0 1.62-20.05c0-74.57-19.43-92.86-19.43-92.86s168.37-115.38 186.19 31c0 0-11.75 47.15-7.76 89.47 2.2 23.33 9.19 45.18 25.55 56.86Z" style="fill:#ffb2a8"></path>
    <path d="M1555.4 960.33c-38.42 33.59-75.72 65.76-77.55 65.76-2.77 0-55.14-47.65-83.07-73.27a126.66 126.66 0 0 0 1.62-20.05c0-74.57-19.43-92.86-19.43-92.86s168.37-115.38 186.19 31c0-.05-11.75 47.09-7.76 89.42Z" style="fill:#f27c85"></path>
    <path d="M1281.84 714.7s-40.16-26.21-58 0 10 89.23 25.65 103.17 57.44 10.6 59.11 10.6-26.76-113.77-26.76-113.77Z" style="fill:#ffb2a8"></path>
    <path d="M1269.57 738.12s-12.83-13.94-21.75-8.92-2.79 37.92 7.25 52.42 14.5 19.52 20.63 19 9.48-7.25 3.35-12.82-5.62-10.1 3.25-6.14 5.49-6.28 0-15.68 3.38-17.93-12.73-27.86Z" style="fill:#f27c85"></path>
    <path d="M1673.87 714.7s40.16-26.21 58 0-10 89.23-25.65 103.17-57.44 10.6-59.11 10.6 26.76-113.77 26.76-113.77Z" style="fill:#ffb2a8"></path>
    <path d="M1686.14 738.12s12.83-13.94 21.75-8.92 2.79 37.92-7.25 52.42-14.5 19.52-20.63 19-9.48-7.25-3.35-12.82 5.62-10.1-3.25-6.14-5.49-6.28 0-15.68-3.41-17.93 12.73-27.86Z" style="fill:#f27c85"></path>
    <path d="M1477.33 531.08c-43.7-14.19-215.72-58.76-216.69 118.93 0 0 46 216.66 58.56 232.55 6.26 7.94 36.08 28.79 65.1 47.9 0 0 60.4 37.79 93 37.79s93-37.79 93-37.79c29-19.11 58.84-40 65.1-47.9C1648 866.67 1694 650 1694 650c-1-177.66-172.95-133.13-216.67-118.92Z" style="fill:#ffb2a8"></path>
    <path d="M1295.7 662.78s18.21 80 13 92.71c-3.36 8.12-15.56 14.5-23.88 18a7 7 0 0 1-9.61-5.18l-21-114.17S1357.85 574 1477.33 574s226.4 72.46 226.4 74.57-30.25 137.19-32.36 137.89-34.47-14.07-34.47-25.33 21.8-118.9 21.8-118.9-64.9-26-175.26-26-187.74 46.55-187.74 46.55Z" style="fill:#273657"></path>
    <path d="M1472.27 743.5c-5.76 9.94-3 20.8 4.2 29.7 3.61 4.48 8 8.38 12.19 12.4 3.15 3 5.7 5.23 3.91 9.48-1.34 3.21-4.86 6.59-7 9.44-3.3 4.46 4.71 8.81 8 4.36s8.94-9.68 10.05-15c1-4.63-2.47-8.22-5.69-11.49-9-9.11-25.56-20.92-17.69-34.5 2.73-4.7-5.26-9.09-8-4.36Z" style="fill:#f27c85"></path>
    <ellipse cx="1379.18" cy="734.76" rx="15.71" ry="19.55" style="fill:#273657"></ellipse>
    <circle cx="1389.43" cy="724.08" r="8.88" style="fill:#fff"></circle>
    <ellipse cx="1566.78" cy="734.76" rx="15.71" ry="19.55" style="fill:#273657"></ellipse>
    <path d="M1356.54 704.79c6.27-8 14.79-11.86 24.25-10.95 5.42.52 5.38-9 0-9.5-11.46-1.11-22.64 4-30.21 13.73-3.57 4.58 2.38 11.33 6 6.72ZM1591.1 698.07c-7.58-9.73-18.76-14.84-30.22-13.73-5.37.52-5.42 10 0 9.5 9.46-.91 18 2.9 24.25 10.95 3.58 4.61 9.53-2.14 6-6.72Z" style="fill:#273657"></path>
    <circle cx="1575.66" cy="724.08" r="8.88" style="fill:#fff"></circle>
    <path d="M1549.51 854.75a72.73 72.73 0 0 1-141.1 0 6.32 6.32 0 0 1 6.18-7.77h128.74a6.32 6.32 0 0 1 6.18 7.77Z" style="fill:#c66161"></path>
    <path d="M1539.33 847c-14.53 9.94-36.68 16.27-61.48 16.27s-46.94-6.33-61.47-16.27Z" style="fill:#fff"></path>
    <path d="M1525 893.41a72.66 72.66 0 0 1-92 0c12-7.36 28.15-11.87 46-11.87s34 4.51 46 11.87Z" style="fill:#f27c85"></path>
    <path d="M1864.78 2503h-352.1s-17-178.69-23-208.24-19.45 208.24-19.45 208.24h-346.89s.45-7.6 1.27-20.59c3.61-57.41 14.3-220 24.2-294.58 1.63-12.3 3.53-25.91 5.58-40.27.4-2.77.8-5.56 1.21-8.39 13.21-91.36 32-207.42 32-207.42s615-61.91 645.27 63.67c8.49 35.2 14.74 90.55 19.31 152 .22 2.77.42 5.55.62 8.33 8.46 118.16 11 256.18 11.68 316.45.25 19.42.3 30.8.3 30.8Z" style="fill:#2c4fa0"></path>
    <rect width="690.24" height="83.01" x="1168.06" y="1958.47" rx="7.56" style="fill:#273657"></rect>
    <rect width="124.61" height="74.22" x="1432.63" y="1980.99" rx="18.74" style="fill:#d66c54"></rect>
    <path d="M1864.78 2503h-352.1s-17-178.69-23-208.24-19.45 208.24-19.45 208.24h-346.89s.45-7.6 1.27-20.59c76.93-5.78 269-22 287.4-39.92 23-22.51 80.06-160.39 49.73-164.62s-64.68-29.54-56.6-27.19 48.51 20.62 84.5 20.62 87.33-14.07 83.29-9.37-64.7 23-65.1 25.79 33.36 152 53.37 163.22c13.33 7.5 188.08 16.23 303.3 21.24.23 19.44.28 30.82.28 30.82ZM1291.52 2014.6c-7 40.34-26.91 76.89-55.46 101.35a129.85 129.85 0 0 1-81.67 31.6c.4-2.77.8-5.56 1.21-8.39 27.46-.93 54.56-11.47 76.78-30.5 27-23.18 45.55-58.22 52.12-96.31.92-5.35 7.93-3.05 7.02 2.25ZM1852.82 2155.72c-12.22.45-24.44.68-36.48-2.15-27.28-6.43-48.8-27.82-62-55.61-13.1-27.49-19.65-58.41-29.93-87.34-1.78-5 5.27-7.21 7-2.24 12.1 34.08 18.79 72.73 38.71 102.29 10.41 15.43 24.48 26.66 40.6 32.5 13.48 4.88 27.47 4.77 41.49 4.22.21 2.77.41 5.55.61 8.33Z" style="fill:#273657"></path>
    <path d="m1472.66 2055.21 18.13 246.07 13.4-246.07h-31.53zM707.1 1284.75l-139.41-195.09a17.49 17.49 0 0 1 7.41-26.27l136.59-57.9a17.49 17.49 0 0 1 22.22 7.79l111 205.36a17.5 17.5 0 0 1-8.34 24.33l-108.19 47.62a17.47 17.47 0 0 1-21.28-5.84Z" style="fill:#273657"></path>
    <path d="m706.8 1259.28-109.47-158.73c-5.11-7.41-2.28-17.82 5.81-21.37l107.27-47.11a13.51 13.51 0 0 1 17.44 6.33L815 1205.49a14.46 14.46 0 0 1-6.55 19.79l-85 38.75a13.45 13.45 0 0 1-16.65-4.75Z" style="fill:#cedbee"></path>
    <path d="M799.72 1356.23s-42.4-32.8-56.53-35.29-46.55-10-46.55-10l135.5-75.64s-20.78-44.06-28.26-47.39-34.88-12.45-44.88-20.76-19.12-28.26-12.47-29.1 74-1.66 85.62 15 24.11 69.83 37.41 93.94 32.44 42.36 32.44 42.36Z" style="fill:#ffb2a8"></path>
    <path d="M752.34 1227.63c-10.47-6.39-25.3-1.18-33.13 11.64 7.83-12.82 5.7-28.39-4.77-34.79s-25.29-1.17-33.13 11.65c7.84-12.82 5.7-28.4-4.76-34.79s-25.3-1.18-33.13 11.64c7.83-12.82 5.69-28.4-4.77-34.79s-25.3-1.18-33.13 11.64l-27 44.2c-7.83 12.82-5.7 28.4 4.77 34.79s25.29 1.18 33.12-11.64c-7.83 12.82-5.69 28.39 4.77 34.79s25.3 1.18 33.13-11.65c-7.83 12.83-5.7 28.4 4.77 34.79s25.3 1.18 33.13-11.64c-7.83 12.82-5.7 28.4 4.77 34.79s25.29 1.18 33.13-11.64l27-44.2c7.83-12.82 5.69-28.42-4.77-34.79Z" style="fill:#ffb2a8"></path>
    <path d="M615.4 1238.85a1.81 1.81 0 0 1-.35-2.51l27-44.2a1.64 1.64 0 1 1 2.74 1.68l-27 44.19a1.8 1.8 0 0 1-2.39.84ZM653.3 1262a1.81 1.81 0 0 1-.35-2.51l27-44.2a1.64 1.64 0 1 1 2.74 1.67l-27 44.2a1.81 1.81 0 0 1-2.39.84ZM691.19 1285.15a1.82 1.82 0 0 1-.34-2.52l27-44.19a1.64 1.64 0 1 1 2.74 1.67l-27 44.2a1.83 1.83 0 0 1-2.4.84Z" style="fill:#f27c85"></path>
    <path d="M1800.4 1654c1 77.88 51.57 331.22 26.82 341.44s-438 19.34-528 13.72-121-57.69-123.82-64.73c-2.11-5.27 14.8-139 22.76-213.68 2.66-24.82 4.32-43.11 4-48-1.41-19.7-39.39-243.41-39.39-243.41s-126.63 146.33-136.48 154.77-33.77 4.22-57.69 0c-20.28-3.57-144.61-143.56-184.66-199.89-7.2-10.15-11.67-17.58-12.32-21-4.22-22.51 118.19-108.34 125.22-111.15 2.58-1 11 10.94 21.66 27.15 18.5 28.1 43.75 68.93 57.13 77C996.71 1378.79 1136 1096 1143 1087.54s271.55-69.34 271.55-69.34l48.68 28.29 97.07-28.29s235.79 41.66 267.44 62.77 123.3 250.11 123.3 250.11h-136.85s-1.73 28.62-4 69.4c-2.76 50.26-6.29 119-8.29 175.42-1.09 31.75-1.73 59.61-1.5 78.1Z" style="fill:#6cc58d"></path>
    <path d="M1827.22 1995.41c-24.73 10.21-438 19.34-528 13.72s-121-57.69-123.82-64.73c-2.11-5.27 14.8-139 22.76-213.68 107.75 3.06 212.22 4.72 230 .41 32.78-7.92 300-254.5 382-330.65-2.76 50.26-6.29 119-8.29 175.42-1.13 31.75-1.77 59.61-1.54 78.07 1.1 77.88 51.67 331.22 26.89 341.44Z" style="fill:#3e9a83;opacity:.36"></path>
    <rect width="18.39" height="261.55" x="1468.66" y="1032.35" rx="6.54" style="fill:#abdda8"></rect>
    <circle cx="1438.51" cy="1153.08" r="10.32" style="fill:#fff"></circle>
    <circle cx="1438.51" cy="1232.48" r="10.32" style="fill:#fff"></circle>
    <path d="M1307.17 1050.84s57.24-75 66.62-75 104.11 46.9 104.11 46.9 83.49-46.9 90-46.9c0 0 16.89 4.69 31 16.88s41.67 44.45 41.67 44.45-85.76 65.3-95.14 63.42-67.54-62.35-67.54-62.35-54.4 69.86-58.15 67-112.57-54.4-112.57-54.4ZM918.47 1289.16l-134.56 105c-7.2-10.15-11.67-17.58-12.32-21-4.22-22.51 118.19-108.34 125.22-111.15 2.58-1.01 10.99 10.99 21.66 27.15Z" style="fill:#abdda8"></path>
    <g style="opacity:.78">
      <path d="M975.6 1366.13c1.74 4.16 35 52.19 52.25 76.92a2 2 0 0 0 3.47-1.9l-36.68-90.41Z" style="fill:#3e9a83"></path>
    </g>
    <g style="opacity:.78">
      <path d="M1827.22 1995.41c-24.73 10.21-438 19.34-528 13.72s-121-57.69-123.82-64.73 28.14-242 26.73-261.7-39.39-243.41-39.39-243.41l51.49-97.66s-28.28 101.3-25.75 124.52 61.63 232.35 61.63 255.47 14.77 215.65 25.33 222.78c8.38 5.67 176.46 17.42 245.32 22A21.43 21.43 0 0 0 1543 1940l-6-25.18 71.76-339h193.18c-1.13 31.75-1.77 59.61-1.54 78.07 1.03 77.96 51.6 331.3 26.82 341.52Z" style="fill:#3e9a83"></path>
    </g>
    <path d="M1418.74 1360.38c-.17 45.21-2.56 135.7-4.15 139.41-2.11 4.93-47.14 46.43-95.68 45.73s-97.08-37.29-102.71-45.73c-4.22-6.33-7.64-95.58-9.1-139.94-.48-14.86-.75-24.68-.75-24.68-.14-5 78.09 9.85 97.09 9.85s112.56-12 114.67-9.85c.52.52.7 10.46.63 25.21Z" style="fill:#abdda8"></path>
    <path d="M1418.74 1360.38c-38.1 6.27-95.65 15.85-102.64 17.7-7.57 2-72.81-10.83-109-18.23-.48-14.86-.75-24.68-.75-24.68-.14-5 78.09 9.85 97.09 9.85s112.56-12 114.67-9.85c.52.52.7 10.46.63 25.21Z" style="fill:#fff"></path>
    <path d="M1420.25 1109.81a7.76 7.76 0 0 1-1.22-.12c-6.91-1.12-80.2-38.11-102.49-49.43a4.5 4.5 0 1 1 4.07-8c34.26 17.38 89.81 45 99.07 48.3 6.71-4.27 32.57-35.81 54.63-65l3.38-4.48 3.64 4.27c.14.16 13.84 16.2 29.37 31.63 28.53 28.31 36.78 28.46 38.15 28.2 12.91-2.46 56.18-34.41 71.76-46.51a4.5 4.5 0 1 1 5.52 7.11c-5.91 4.59-58.23 44.94-75.6 48.24-5.51 1-16.29-1-46.21-30.69-11-10.89-21-22.06-26.18-27.94-4.74 6.19-13.85 18-23.29 29.64-25.52 31.43-31.39 34.78-34.6 34.78Zm-1.21-8.91Z" style="fill:#3e9a83"></path>
    <path d="M1487.05 1291.86a4.49 4.49 0 0 1-4.5-4.5v-239.77a4.5 4.5 0 0 1 9 0v239.77a4.49 4.49 0 0 1-4.5 4.5ZM1322.86 1549.74c-61.67 0-107.82-44.78-109.82-46.74a4.5 4.5 0 0 1 6.32-6.41c.57.55 48.49 46.9 109.09 44 31.32-1.49 52-13.06 63.78-22.51a79.8 79.8 0 0 0 17.86-19.53v-131.3a4.5 4.5 0 0 1 9 0v133.64l-.53 1c-1 1.82-24.44 44.6-89.68 47.7q-3.03.15-6.02.15ZM1186.51 1289.85a4.23 4.23 0 0 1-.7-.06 4.5 4.5 0 0 1-3.76-5.13c12-77.9 0-126.38-12.12-153.33-13.1-29-29.2-39.93-29.37-40a4.5 4.5 0 0 1 4.94-7.53c.73.48 18.06 12 32.27 43.07 12.88 28.12 25.62 78.57 13.18 159.19a4.51 4.51 0 0 1-4.44 3.79ZM1809.37 1265.58a4.49 4.49 0 0 1-4.45-3.83c-13.14-88 18.29-181.31 18.61-182.24a4.5 4.5 0 1 1 8.51 2.91c-.31.92-31 92.23-18.22 178a4.5 4.5 0 0 1-3.78 5.11 3.85 3.85 0 0 1-.67.05ZM791.89 1392.45a4.5 4.5 0 0 1-2.77-8l126.58-98.79a4.5 4.5 0 0 1 5.53 7.1l-126.58 98.78a4.48 4.48 0 0 1-2.76.91Z" style="fill:#3e9a83"></path>
    <path d="M1676.29 1944.4h540.29v73.16h-540.29z" style="fill:#dfe9f4"></path>
    <path d="m2216.58 1944.4 139.3-84.42v54.88l-139.3 102.71v-73.17zM1676.29 1944.4 1537 1859.98v54.88l139.29 102.71v-73.17z" style="fill:#cedbee"></path>
    <path d="m2355.88 1859.98-139.3 84.42h-540.29L1537 1859.98l139.29-189.12h540.29l139.3 189.12z" style="fill:#92b1dd"></path>
    <ellipse cx="1951.08" cy="1810.74" rx="274.79" ry="128.04" style="fill:#fff"></ellipse>
    <ellipse cx="1951.08" cy="1810.74" rx="234.55" ry="99.9" style="fill:#fff"></ellipse>
    <g style="opacity:.49">
      <path d="M2225.87 1838.88c0 43.78-47.18 82.45-119.15 105.52h-311.28c-72-23.07-119.15-61.74-119.15-105.52 0-70.72 123-128 274.79-128s274.79 57.28 274.79 128Z" style="fill:#2c4fa0"></path>
    </g>
    <path d="M1676.29 1670.86v50.76l-109.03 156.7-30.26-18.34 139.29-189.12zM2216.58 1670.86v50.76l109.04 156.7 30.26-18.34-139.3-189.12z" style="fill:#aec6d3"></path>
    <path d="M1676.29 1670.86h540.29v50.76h-540.29z" style="fill:#92b1dd"></path>
    <path d="M2216.68 1179.13h-540.39l-67.53 97.08v299.68l67.53 94.97h540.39l67.53-94.97v-299.68l-67.53-97.08z" style="fill:#cedbee"></path>
    <path d="M2268.23 1286.43v279.1l-7.68 10.56-56.66 77.88h-514.82l-64.34-88.44v-279.1l64.34-90.41h514.82l64.34 90.41z" style="fill:#aec6d3"></path>
    <path d="m2260.55 1576.09-56.66 77.88h-514.82l-64.34-88.44v-279.1l64.34-90.41h64.38l-22.3 39.24v273.13l68.23 67.7h461.17z" style="fill:#92b1dd"></path>
    <g style="opacity:.49">
      <path d="M2019.16 1658.47h-332.38l-66.55-91.47v-280.57a4.5 4.5 0 1 1 9 0v277.63l62.13 85.41h327.8a4.5 4.5 0 0 1 0 9Z" style="fill:#2c4fa0"></path>
    </g>
    <g style="opacity:.49">
      <path d="M2268.23 1562.11a4.5 4.5 0 0 1-4.5-4.5v-271.18a4.5 4.5 0 1 1 9 0v271.18a4.49 4.49 0 0 1-4.5 4.5Z" style="fill:#2c4fa0"></path>
    </g>
    <g style="opacity:.49">
      <path d="M2237.19 1247.3a4.49 4.49 0 0 1-3.67-1.89l-31.95-44.89h-371a4.5 4.5 0 0 1 0-9h375.67l34.64 48.67a4.5 4.5 0 0 1-3.66 7.11Z" style="fill:#2c4fa0"></path>
    </g>
    <g style="opacity:.49">
      <path d="M2325.62 1882.82a4.5 4.5 0 0 1-3.62-1.82l-109.82-148.39v-61.75a4.5 4.5 0 0 1 9 0v58.79l108.06 146a4.5 4.5 0 0 1-3.62 7.18Z" style="fill:#2c4fa0"></path>
    </g>
    <g style="opacity:.49">
      <path d="M2216.68 1735.63h-544.89v-64.77a4.5 4.5 0 1 1 9 0v55.77h535.89a4.5 4.5 0 0 1 0 9Z" style="fill:#2c4fa0"></path>
    </g>
    <ellipse cx="1951.08" cy="1810.74" rx="299.37" ry="128.04" style="fill:#fccd89"></ellipse>
    <path d="M2206.61 1810.74v1.41c-.9 25.29-25.86 48.33-66.33 65.74q-1.91.83-3.87 1.62c-46.23 19-111.44 31-183.78 31.13h-3.06c-66.91-.16-127.69-10.36-173-27-1.33-.48-2.64-1-3.94-1.48-46.72-17.81-76-42.6-77-70v-2.82c.9-25.3 25.86-48.33 66.33-65.75 1.27-.55 2.56-1.08 3.87-1.62 46.24-19 111.44-31 183.78-31.12h3.06c66.91.16 127.69 10.36 173 27 1.33.48 2.64 1 3.94 1.48 46.72 17.81 76 42.6 77 70-.02.47 0 .94 0 1.41Z" style="fill:#f28c70"></path>
    <path d="M2199.87 1787.88c-10.06 16.79-30.93 31.95-59.61 44.29-1.27.55-2.56 1.08-3.87 1.62-46.23 19-111.44 31-183.78 31.12h-3.06c-66.91-.16-127.69-10.36-173-27-1.33-.48-2.64-1-3.94-1.48-34.17-13-59-29.79-70.29-48.6a44.7 44.7 0 0 0-6.72 21.46v2.82c1 27.45 30.29 52.24 77 70 1.3.51 2.61 1 3.94 1.48 45.34 16.6 106.12 26.8 173 27h3.06c72.34-.17 137.55-12.09 183.78-31.13q2-.79 3.87-1.62c40.47-17.41 65.43-40.45 66.33-65.74v-2.82a44.63 44.63 0 0 0-6.71-21.4Z" style="fill:#d66c54"></path>
    <path d="M2206.59 1812.15h-247.46l181.13 65.74q-1.91.83-3.87 1.62l-183.78-66.7v97.83h-3.06v-97.73l-173 70.77c-1.33-.48-2.64-1-3.94-1.48l171.3-70h-248.34v-2.82H1943l-181.13-65.75c1.27-.55 2.56-1.08 3.87-1.62l183.78 66.71v-97.83h3.06v97.73l173-70.77c1.33.48 2.64 1 3.94 1.48l-171.3 70h248.31v1.41c0 .47.06.94.06 1.41Z" style="fill:#d66c54"></path>
    <ellipse cx="1778.56" cy="1793.85" rx="21.84" ry="7.74" style="fill:#fccd89"></ellipse>
    <ellipse cx="1883.18" cy="1874.45" rx="21.84" ry="7.74" style="fill:#fccd89"></ellipse>
    <ellipse cx="1830.29" cy="1789.99" rx="16.09" ry="3.87" style="fill:#fccd89"></ellipse>
    <ellipse cx="2037.39" cy="1874.45" rx="16.09" ry="3.87" style="fill:#fccd89"></ellipse>
    <ellipse cx="1864.78" cy="1752.35" rx="18.39" ry="5.63" style="fill:#fccd89"></ellipse>
    <ellipse cx="1911.39" cy="1768.88" rx="12.41" ry="3.87" style="fill:#fccd89"></ellipse>
    <ellipse cx="1983.43" cy="1874.45" rx="12.41" ry="3.87" style="fill:#fccd89"></ellipse>
    <ellipse cx="1923.8" cy="1846.97" rx="12.41" ry="3.87" style="fill:#fccd89"></ellipse>
    <ellipse cx="1930.31" cy="1744.96" rx="11.88" ry="1.76" style="fill:#fccd89"></ellipse>
    <ellipse cx="1985.88" cy="1768.88" rx="9.96" ry="3.87" style="fill:#fccd89"></ellipse>
    <ellipse cx="1975.91" cy="1846.97" rx="9.96" ry="3.87" style="fill:#fccd89"></ellipse>
    <ellipse cx="2047.35" cy="1793.85" rx="9.96" ry="3.87" style="fill:#fccd89"></ellipse>
    <ellipse cx="2135.33" cy="1838.88" rx="9.96" ry="3.87" style="fill:#fccd89"></ellipse>
    <ellipse cx="2027.65" cy="1748.48" rx="25.68" ry="9.5" style="fill:#fccd89"></ellipse>
    <ellipse cx="2079" cy="1831.14" rx="25.68" ry="9.5" style="fill:#fccd89"></ellipse>
    <ellipse cx="2109.65" cy="1782.25" rx="25.68" ry="9.5" style="fill:#fccd89"></ellipse>
    <ellipse cx="1827.23" cy="1827.27" rx="13.03" ry="3.87" style="fill:#fccd89"></ellipse>
    <ellipse cx="1769.74" cy="1835.01" rx="13.03" ry="3.87" style="fill:#fccd89"></ellipse>
    <path d="M1788.65 1853.42s-3.19-14.19 7.54-12.78 15.71 3.32 18-.1 6.51-3.07 10.73-1.66 4.21 3.16 5.36 4.22-1.91 4-5.75 2.54-4.21 2.74-8.43 5.2-11.88 6.21-15.71 2.58-2.68 5.16-6.13 4.81-5.18-1.23-5.61-4.81ZM1998.32 1841s8.8-12 15.22-4 8.42 12.62 12.69 11.73 6.94 2.12 8.8 5.87.49 5 .48 6.47-4.48 1.57-6-2-5.07-.84-9.94-1.88-13.15-3.43-13-8.49-5.89 1.85-8-.65-2.74-4.24-.25-7.05ZM1745.87 1769.14s4-14 12.93-8.4 12.48 9.37 16.19 7.24 7.32-.1 10.42 2.87 2.25 4.56 2.77 6-3.66 2.83-6.38-.06-5.09.74-10.06 1.23-13.65.74-15.33-4.08-4.9 3.54-7.82 1.82-4.07-3.24-2.72-6.62ZM1870.71 1731.34s4-14 12.92-8.39 12.49 9.36 16.2 7.23 7.32-.1 10.42 2.88 2.25 4.55 2.77 6-3.66 2.83-6.38-.06-5.1.74-10.07 1.23-13.64.74-15.33-4.07-4.89 3.53-7.81 1.81-4.07-3.24-2.72-6.63ZM1968.94 1745.18s-8.57-12.17 2-14.42 16-2.12 16.75-6.08 4.87-5 9.35-5.11 5.18 1.55 6.67 2.16-.2 4.39-4.36 4.27-2.85 4-5.81 7.65-8.62 9.74-13.63 7.62-.47 5.7-3.82 6.52-5.33.58-7.15-2.61ZM2141 1795.74s-3.09-10.56 7.57-9.45 15.6 2.56 17.9 0 6.5-2.23 10.68-1.16 4.17 2.37 5.31 3.17-1.93 3-5.73 1.85-4.2 2-8.41 3.81-11.84 4.54-15.63 1.82-2.7 3.82-6.12 3.53-5.17-.91-5.57-3.57Z" style="fill:#fff"></path>
    <g style="opacity:.49">
      <path d="M1567.25 1882.82a4.5 4.5 0 0 1-3.61-7.18l109-147.19a4.5 4.5 0 1 1 7.23 5.36l-109 147.19a4.49 4.49 0 0 1-3.62 1.82Z" style="fill:#2c4fa0"></path>
    </g>
    <path d="M2065 2022.07h-393.21v-77.67a4.5 4.5 0 0 1 9 0v68.67H2065a4.5 4.5 0 0 1 0 9ZM2216.58 2022.07a4.51 4.51 0 0 1-4.5-4.5v-68.67h-221.21a4.5 4.5 0 0 1 0-9h230.21v77.67a4.5 4.5 0 0 1-4.5 4.5Z" style="fill:#92b1dd"></path>
    <path d="M2045.1 1968.32c-15.44 0-28 13.07-28 29.2 0-16.13-12.52-29.2-28-29.2s-28 13.07-28 29.2c0-16.13-12.52-29.2-28-29.2s-28 13.07-28 29.2c0-16.13-12.52-29.2-28-29.2s-28 13.07-28 29.2v55.58c0 16.12 12.52 29.19 28 29.19s28-13.07 28-29.19c0 16.12 12.52 29.19 28 29.19s28-13.07 28-29.19c0 16.12 12.52 29.19 28 29.19s28-13.07 28-29.19c0 16.12 12.52 29.19 28 29.19s28-13.07 28-29.19v-55.58c-.03-16.13-12.55-29.2-28-29.2Z" style="fill:#ffb2a8"></path>
    <path d="M1905.28 2055.21a2.07 2.07 0 0 1-2-2.11v-55.58a2 2 0 1 1 4 0v55.58a2.07 2.07 0 0 1-2 2.11ZM1961.21 2055.21a2.07 2.07 0 0 1-2-2.11v-55.58a2 2 0 1 1 4 0v55.58a2.07 2.07 0 0 1-2 2.11ZM2017.14 2055.21a2.07 2.07 0 0 1-2-2.11v-55.58a2 2 0 1 1 4 0v55.58a2.07 2.07 0 0 1-2 2.11Z" style="fill:#f27c85"></path>
    <path d="M1728.61 655.52c-1.3-17.53-7.84-20.54-7.84-20.54-67.34-62.6-237.33-56.59-237.33-56.59s-170-6-237.32 56.59c0 0-6.54 3-7.85 20.54s-1.3 38.56 23.54 34.05S1326.53 638 1483.44 638s196.79 47.07 221.64 51.58 24.84-16.58 23.53-34.06Z" style="fill:#6cc58d"></path>
    <path d="M1459 363.94s4.67-22.94 22.09-22.94 21.66 22.94 21.66 22.94Z" style="fill:#abdda8"></path>
    <path d="M1714.77 626.49c-4.25-16.14-4.68-16.14-6.38-42.91s-1.27-93-28.67-143.38c0 0-30-44-89.85-61.18s-54.17-24.21-106.43-24.21-46.52 7-106.42 24.21-89.85 61.18-89.85 61.18c-27.4 50.34-27 116.62-28.68 143.38s-2.12 26.77-6.37 42.91 0 15.72 0 15.72c116.62-31.23 231.32-54.8 231.32-54.8s114.71 23.57 231.33 54.8c0 0 4.23.42 0-15.72Z" style="fill:#6cc58d"></path>
    <path d="M1737.18 647.28c-1.36-17.52-8.12-20.53-8.12-20.53-69.7-62.6-245.62-56.59-245.62-56.59s-175.92-6-245.61 56.59c0 0-6.77 3-8.12 20.53s-1.35 38.57 24.36 34.06 67-51.58 229.37-51.58 203.67 47.07 229.38 51.58 25.71-16.53 24.36-34.06Z" style="fill:#abdda8"></path>
    <path d="M1260.65 615a4.5 4.5 0 0 1-2.42-8.3c.68-.42 16.89-10.56 52.92-20.71 32.94-9.29 89.57-20.35 172.29-20.35a4.5 4.5 0 0 1 0 9c-81.32 0-136.93 10.79-169.25 19.84-35 9.8-51 19.73-51.14 19.83a4.5 4.5 0 0 1-2.4.69ZM1680.25 602.68a4.44 4.44 0 0 1-2.13-.54c-39.57-21.39-145.72-27.59-146.78-27.65a4.5 4.5 0 0 1 .5-9c4.44.25 109.22 6.37 150.56 28.71a4.5 4.5 0 0 1-2.15 8.46ZM1647 657.52a4.71 4.71 0 0 1-1.33-.2c-.26-.08-26.16-7.93-96.7-18.66-70.28-10.7-170.21 7.78-171.21 8a4.5 4.5 0 1 1-1.66-8.84c1-.19 102.42-19 174.23-8 71.4 10.87 96.94 18.63 98 19a4.5 4.5 0 0 1-1.32 8.8Z" style="fill:#3e9a83"></path>
    <path d="M1254.63 621.4h-.39a4.49 4.49 0 0 1-4.09-4.87c.07-.91 8-90.9 23.07-156.42 6.63-28.78 34.73-54.8 83.49-77.33a438.65 438.65 0 0 1 70.41-25.07 4.5 4.5 0 1 1 2.14 8.74c-1.33.32-132.86 33.18-147.27 95.68-15 64.9-22.8 154.28-22.88 155.17a4.5 4.5 0 0 1-4.48 4.1Z" style="fill:#3e9a83"></path>
    <path d="M696.64 940.79a18.85 18.85 0 0 1-16.33-9.3c-30.5-51.25-101.43-175.85-101.43-225.79a117.76 117.76 0 0 1 235.52 0c0 49.94-70.93 174.54-101.43 225.79a18.85 18.85 0 0 1-16.33 9.3Zm0-299.88a59.77 59.77 0 1 0 59.77 59.77 59.83 59.83 0 0 0-59.77-59.77Z" style="fill:#6ec290"></path>
    <path d="M696.64 592.45A113.27 113.27 0 0 1 809.9 705.7c0 34.38-36.74 115.84-100.79 223.49a14.5 14.5 0 0 1-24.94 0c-64-107.65-100.79-189.11-100.79-223.49a113.27 113.27 0 0 1 113.26-113.25m0 172.5a64.27 64.27 0 1 0-64.27-64.27A64.34 64.34 0 0 0 696.64 765m0-181.5a122.25 122.25 0 0 0-122.26 122.2c0 50.11 67.33 169.73 102.06 228.09a23.49 23.49 0 0 0 40.4 0c34.73-58.36 102.06-178 102.06-228.09a122.25 122.25 0 0 0-122.26-122.25Zm0 172.5a55.27 55.27 0 1 1 55.27-55.27A55.28 55.28 0 0 1 696.64 756Z" style="fill:#3e9a83"></path>
    <path d="M1952.33 681.22a9.72 9.72 0 0 1-9.83-9.79v-53.27h-25.86a48.77 48.77 0 0 1-48.72-48.71V405.68a48.76 48.76 0 0 1 48.72-48.7h417a48.76 48.76 0 0 1 48.72 48.7v163.77a48.77 48.77 0 0 1-48.72 48.71h-306.38l-68.55 60.58a9.53 9.53 0 0 1-6.38 2.48Z" style="fill:#fccd89"></path>
    <path d="M2333.67 361.48a44.26 44.26 0 0 1 44.22 44.2v163.77a44.27 44.27 0 0 1-44.22 44.21h-308.11l-2.55 2.26-67.28 59.45a5 5 0 0 1-3.4 1.35 5.28 5.28 0 0 1-5.33-5.29v-57.77h-30.36a44.27 44.27 0 0 1-44.22-44.21V405.68a44.26 44.26 0 0 1 44.22-44.2h417m0-9h-417a53.21 53.21 0 0 0-53.22 53.2v163.77a53.21 53.21 0 0 0 53.22 53.21H1938v48.77a14.25 14.25 0 0 0 14.33 14.29 14 14 0 0 0 9.36-3.6l67.31-59.46h304.7a53.21 53.21 0 0 0 53.22-53.21V405.68a53.21 53.21 0 0 0-53.22-53.2Z" style="fill:#f28c70"></path>
    <circle cx="1991.46" cy="485.34" r="24.23" style="fill:#fff"></circle>
    <circle cx="2118.09" cy="485.34" r="24.23" style="fill:#fff"></circle>
    <circle cx="2244.72" cy="485.34" r="24.23" style="fill:#fff"></circle>
  </g>
</svg>
