<svg xmlns="http://www.w3.org/2000/svg" width="2526.547" height="2662.363" viewBox="236.726 168.843 2526.547 2662.363" id="restaurant-waiter-confirming-online-food-order">
  <g id="computer">
    <path d="M727.55 2113c-10-4.74-19.94-10-29.54-15.65l6.66-11.33c9.27 5.45 18.86 10.53 28.5 15.1ZM607.52 2004.12l-10 8.57a416.06 416.06 0 0 0 46.72 46.42l8.48-10a401.46 401.46 0 0 1-45.2-44.99Zm-67.78-107.86-12 5.31a461.2 461.2 0 0 0 30.84 58.11l11.13-7a447.23 447.23 0 0 1-29.97-56.42Zm1831.24.57a367.06 367.06 0 0 1-31.82 55.16l10.83 7.44a379.61 379.61 0 0 0 32.94-57.12ZM505.29 1773.54l-13 1.7a457 457 0 0 0 13.22 64.44l12.64-3.56a445.05 445.05 0 0 1-12.86-62.58Zm1899.18-1.18-10.42 1.5-2.58.38a183.43 183.43 0 0 1 1.84 26.14 211.53 211.53 0 0 1-3.25 36.38l4 .71 9 1.57a225 225 0 0 0 3.44-38.66 196.43 196.43 0 0 0-2.03-28.02Zm-34.8-80.23v22.39c.35.53.69 1.07 1 1.6l11.14-6.95a166.32 166.32 0 0 0-12.14-17.04ZM495.12 1644c-.9 5.09-1.73 10.28-2.46 15.43a415.76 415.76 0 0 0-4 50.11l13.13.26a408.33 408.33 0 0 1 3.91-48.53c.71-5 1.51-10 2.39-15Zm16.29-63.74 2.42.81v-7.84c-.83 2.34-1.64 4.67-2.42 7.02Zm1801.32-336.32c-.26-1.38-.55-2.75-.86-4.11l-12.81 2.9c.09.41.18.81.26 1.21a136.84 136.84 0 0 1 3.09 26.75h13.15a151.47 151.47 0 0 0-2.83-26.76Zm-1237.24-44.77c-9.66 2.61-19.49 5.14-29.19 7.5-3.27.79-6.62 1.59-10.11 2.4-7.23 1.7-15 3.46-23.45 5.31l2.82 12.83c7.36-1.61 14.2-3.15 20.63-4.64 4.6-1.07 9-2.12 13.22-3.14 9.81-2.38 19.75-4.93 29.51-7.57Zm122.44-40.54c-19.92 7.84-40.34 15.24-60.66 22l4.13 12.48c20.56-6.81 41.2-14.29 61.35-22.22Zm1044.53-17.75c-2.63-2.34-5.27-4.67-7.89-7l-8.77 9.79q4 3.55 7.95 7.06c13.2 11.7 26.86 23.78 38 37.24l10.11-8.4c-11.78-14.25-25.86-26.68-39.4-38.7Zm-927.3-36.07c-18.92 10-38.4 19.59-57.87 28.53l5.49 11.94c19.69-9 39.38-18.75 58.51-28.85Zm838.26-69-11.3 6.73a431.21 431.21 0 0 0 37.92 53.81l10.12-8.36a417.4 417.4 0 0 1-36.74-52.18Zm-731-1.24a546.62 546.62 0 0 1-51.74 37.84l7.14 11a557.27 557.27 0 0 0 53-38.75Zm82.38-96a290.82 290.82 0 0 1-36.51 51.72l9.88 8.66a304 304 0 0 0 38.17-54.08Zm600.56-20.63-12.75 3.06a435.22 435.22 0 0 0 20.18 62.64l12.16-5a425.39 425.39 0 0 1-19.57-60.74Zm-561.07-101.66-13.11.93c.44 6.15.67 12.21.67 18s-.23 11.77-.69 17.4a204 204 0 0 1-4.08 27.21l12.83 2.82a216.58 216.58 0 0 0 4.34-29c.5-6 .75-12.2.75-18.46s-.24-12.45-.71-18.9Zm549.83 14.64c-.06-3-.1-6-.1-9 0-9.7.3-19.85.89-31l-13.12-.7c-.6 11.41-.91 21.78-.91 31.72 0 3.08 0 6.15.1 9.22.16 8.19.58 16.53 1.24 24.78l13.1-1.05c-.64-7.97-1.05-16.04-1.2-23.97Zm-569-115.86c-2.2-8.84-4.47-18-6.58-26.91l-12.78 3c2.12 9 4.4 18.19 6.6 27.06 2.94 11.78 6 24 8.67 36l12.82-2.9c-2.72-12.13-5.77-24.4-8.72-36.25Zm567.24-54.16c-1.12 21.19-3.23 43.08-5.27 64.38l13.09 1.14c2-21.32 4.16-43.35 5.31-64.83Zm-582.25-98.23-12.83-2.8a192.39 192.39 0 0 0-4.32 41.82c0 7.87.41 16.19 1.23 24.76l13.08-1.25c-.78-8.15-1.17-16.06-1.17-23.51a180.55 180.55 0 0 1 4.02-39.02Zm581.33-31.81-12.38 4.4c6.63 18.66 10.81 38.85 12.81 61.72l13.09-1.14c-2.08-24-6.51-45.26-13.51-64.98Zm-519.68-79.29c-19.23 13.94-35.16 29.74-47.38 47l10.72 7.6c11.38-16.06 26.32-30.84 44.37-43.94Zm438.64-24.42L2003 438a211.5 211.5 0 0 1 46 42.58l10.3-8.16a224.62 224.62 0 0 0-48.89-45.27Zm-318.64-29.34a442.46 442.46 0 0 0-62.28 21.38l5.24 12.06a430.82 430.82 0 0 1 60.41-20.75Zm223.91-11.62c-9.26-2.11-18.87-3.85-28.56-5.15l-1.78 13c9.32 1.26 18.54 2.92 27.42 4.94a275.47 275.47 0 0 1 34.1 10.11l4.55-12.33a287.5 287.5 0 0 0-35.72-10.57Zm-94.41-8.26a536.66 536.66 0 0 0-65.34 6.49l2 13a524.45 524.45 0 0 1 63.73-6.32ZM2288.51 2036.84l-10-8.57c5.89-6.84 13.62-15.86 21.19-25l10.1 8.4c-7.58 9.23-15.36 18.33-21.29 25.17ZM1592.53 1880.79c-.22-10.44-.68-21.39-1.36-32.56l13.11-.81c.7 11.35 1.16 22.48 1.39 33.09ZM1589.24 1713.41l-13 1.82c3.12 22.37 6.14 44.29 8.77 66.47l13.06-1.54c-2.66-22.32-5.71-44.3-8.83-66.75Zm-13.85-109.74c-.77-7.86-1.43-15.68-2-23.24l-13.11 1c.57 7.67 1.24 15.59 2 23.55 1.29 13.42 2.89 27.68 4.88 43.62l13-1.63c-1.9-15.85-3.5-29.97-4.77-43.3Zm-12.82-157.74a578.91 578.91 0 0 0-4.55 67.78l13.14.15a567.52 567.52 0 0 1 4.44-66.23Zm39.08-130.24a284.59 284.59 0 0 0-6.39 13 364.37 364.37 0 0 0-18.9 50.55l12.62 3.69a348.86 348.86 0 0 1 18.21-48.72c1.92-4.15 4-8.33 6.1-12.41Zm325.26-61.45a134.37 134.37 0 0 0-37.48-40.31l-7.64 10.7a121 121 0 0 1 33.84 36.35 132.1 132.1 0 0 1 6.42 12.17l11.92-5.52a143.65 143.65 0 0 0-7.06-13.39Zm-234.72-40.4a241 241 0 0 0-52 45.13l9.9 8.64a227.7 227.7 0 0 1 49.14-42.68Zm63.88-26.57 2.67 12.86a165.13 165.13 0 0 1 64.17-.28l2.5-12.9a178.17 178.17 0 0 0-69.34.32ZM1942 1368.52c-1.09-11.51-2.11-21.89-3.52-32.42l13-1.73c1.43 10.75 2.47 21.26 3.57 32.9Z" style="fill:#e2eaed"></path>
    <path d="M1006.49 846.41H509.24a29.72 29.72 0 0 0-29.7 29.72v841.61a29.71 29.71 0 0 0 29.7 29.71h497.25a29.71 29.71 0 0 0 29.7-29.71V876.13a29.71 29.71 0 0 0-29.7-29.72Zm-4.59 833.71a29.71 29.71 0 0 1-29.71 29.71H543.54a29.71 29.71 0 0 1-29.71-29.71V913.75a29.7 29.7 0 0 1 29.71-29.7h428.65a29.7 29.7 0 0 1 29.71 29.7ZM904 431.22H723.6A10.78 10.78 0 0 0 712.83 442v305.4a10.77 10.77 0 0 0 10.77 10.77H904a10.78 10.78 0 0 0 10.78-10.77V442A10.78 10.78 0 0 0 904 431.22Zm-1.66 302.52a10.78 10.78 0 0 1-10.78 10.78H736a10.78 10.78 0 0 1-10.77-10.78V455.65A10.78 10.78 0 0 1 736 444.87h155.59a10.78 10.78 0 0 1 10.78 10.78ZM1361 301.06h-180.44a10.77 10.77 0 0 0-10.78 10.78v305.39a10.77 10.77 0 0 0 10.78 10.77H1361a10.78 10.78 0 0 0 10.78-10.78V311.84a10.78 10.78 0 0 0-10.78-10.78Zm-1.66 302.53a10.79 10.79 0 0 1-10.78 10.77H1193a10.78 10.78 0 0 1-10.78-10.77v-278.1a10.78 10.78 0 0 1 10.78-10.78h155.55a10.79 10.79 0 0 1 10.78 10.78ZM2372.93 1243.93H2019.3a21.12 21.12 0 0 0-21.12 21.12v598.54a21.13 21.13 0 0 0 21.12 21.13h353.63a21.13 21.13 0 0 0 21.12-21.13v-598.54a21.12 21.12 0 0 0-21.12-21.12Zm-3.26 592.9a21.12 21.12 0 0 1-21.12 21.12H2043.7a21.13 21.13 0 0 1-21.13-21.12v-545a21.13 21.13 0 0 1 21.13-21.12h304.85a21.12 21.12 0 0 1 21.12 21.12ZM2546 2120.7v428.72a26.2 26.2 0 0 1-26.14 24.64h-2014a26.2 26.2 0 0 1-26.14-24.64V2120.7Z" style="fill:#dfe9f4"></path>
    <path d="M480.37 2238.15h2064.78v18.07H480.37zM480.37 2382.7h2064.78v18.07H480.37z" style="fill:#fff"></path>
    <path d="M2600.17 2049.8v53.09a18 18 0 0 1-18.17 17.81H446.79a18 18 0 0 1-18.17-17.81v-53.09a18 18 0 0 1 18.17-17.8H2582a18 18 0 0 1 18.17 17.8Z" style="fill:#cedbee"></path>
    <g style="opacity:.5">
      <path d="M2600.17 2097.7v5.19a18 18 0 0 1-18.17 17.81H446.79a18 18 0 0 1-18.17-17.81v-5.19Z" style="fill:#7297b5"></path>
    </g>
    <g style="opacity:.65">
      <path d="M2546 2120.7v428.72a26.2 26.2 0 0 1-26.14 24.64h-2014a26.2 26.2 0 0 1-26.14-24.64v-50.1h1592.63a57.22 57.22 0 0 0 57.21-57.21V2120.7Z" style="fill:#aec6d3"></path>
    </g>
    <g style="opacity:.65">
      <path d="M479.54 2120.7h2066.42v55.85H479.54z" style="fill:#aec6d3"></path>
    </g>
    <g style="opacity:.5">
      <path d="M2545.92 2549.42a26.2 26.2 0 0 1-26.14 24.64h-2014a26.2 26.2 0 0 1-26.14-24.64Z" style="fill:#7297b5"></path>
    </g>
    <path d="M1568.82 2259.21H545.47a3 3 0 0 1 0-6h1023.35a3 3 0 0 1 0 6ZM2011.38 2385.7H794.24a3 3 0 1 1 0-6h1217.14a3 3 0 0 1 0 6ZM1845.9 2035.82H645.63a3 3 0 1 1 0-6H1845.9a3 3 0 0 1 0 6ZM2377.6 2259.21h-616.14a3 3 0 0 1 0-6h616.14a3 3 0 0 1 0 6Z" style="fill:#aec6d3"></path>
    <path d="M2648.43 2581c0 39.26-29.86 71.1-66.72 71.1h-309c-5.72 33.06-32.9 58.09-65.58 58.09H618.77c-32.68 0-59.86-25-65.6-58.09H418.29a64.58 64.58 0 0 1-47.18-20.82 73.36 73.36 0 0 1-19.54-50.28c0-1.26 0-2.5.08-3.75a78.6 78.6 0 0 1 1.2-10.19 10 10 0 0 1 8.86-5.55H2638.3a10 10 0 0 1 8.85 5.55 78.6 78.6 0 0 1 1.2 10.19c.05 1.2.08 2.44.08 3.75Z" style="fill:#dfe9f4"></path>
    <path d="M2648.43 2572.25v3.62a11.59 11.59 0 0 1-.08 1.33 10.36 10.36 0 0 1-10 9.46H361.71a10.37 10.37 0 0 1-10.06-9.46 11.59 11.59 0 0 1-.08-1.33v-3.62a11.16 11.16 0 0 1 1.28-5.24 10 10 0 0 1 8.86-5.55H2638.3a10 10 0 0 1 8.85 5.55 11.16 11.16 0 0 1 1.28 5.24Z" style="fill:#92b1dd"></path>
    <rect width="1171.25" height="26.02" x="545.47" y="2626.03" rx="8.68" style="fill:#92b1dd"></rect>
    <rect width="585.62" height="26.02" x="1794.59" y="2626.03" rx="8.68" style="fill:#92b1dd"></rect>
    <path d="M989.36 956.54s-13.77 105.76-28.53 127.16-55.3 37.61-55.3 37.61 66.18 127.88 142.36 146.47 170.83-14.78 170.83-14.78l35.37-124.84s-101.9-64.17-108.65-86.76-156.08-84.86-156.08-84.86Z" style="fill:#ffb2a8"></path>
    <path d="M1265.34 757.21c-1.61 5.34-.94 9.84 1.63 13.52-15.91 11.83-34.68 13-34.68 13s-1.12-2.68-2.85-7.19L992.63 918.92l15.37 19.67s-34.23 22.6-67.67 7.84-29.49-52.94-29.49-52.94c-1-.25-42.23-10.43-49.13-40.43-2.29-10.09-1-21.93 1.75-33.36-10.78-21.82-18-44.9-19.75-67.87-3.89-53.12 51.34-67.48 53.16-67.91h.06l-.06-.08c-22-25.84-27.71-57.81-2.76-91l2.46 80.61c.95-30.16 17.36-115.17 170.32-128 186.51-15.68 219.11 143.31 198.45 211.76Z" style="fill:#272744"></path>
    <path d="M1234.77 658.86s42 91.43 40.11 194.89-62.71 138.07-87.93 151.19-48.26 13.87-48.26 13.87l15.68 52.49s93.4 114.71 4.05 134.19S982 1109.34 982 1109.34s17.33-92.47 10.22-136.42S973 885.84 963.35 879s-22.68 10.24-43-19.79 2.19-72.68 21.85-75.58 53.11 77.56 61.8 76.21 22.21-5.78 15.81-17.7-23.61-41.17-20.5-49.4 43.86-49.43 56.14-76.5 12.89-38.39 12.89-38.39 27.7 16.07 84.58 5.8 81.85-24.79 81.85-24.79Z" style="fill:#ffb2a8"></path>
    <path d="M1138.69 1018.81s-22.12 4.89-52.62-17.65-69.38-85.56-69.38-85.56 8.06 52.16 47 101.23 90.64 54.47 90.64 54.47Z" style="fill:#f27c85"></path>
    <ellipse cx="1225.8" cy="807.11" rx="8.55" ry="13.26" style="fill:#272744" transform="rotate(-12.72 1226.305 807.343)"></ellipse>
    <ellipse cx="1129.19" cy="818.85" rx="8.55" ry="13.26" style="fill:#272744" transform="rotate(-12.72 1129.621 819.093)"></ellipse>
    <path d="M1143.82 779.23c-9.28-6.68-20.3-11.53-31.67-7.47-10.52 3.77-21.82 13.89-28 23-2 3.05-6.68-.27-4.64-3.31 7.25-10.78 20.31-22.54 33.12-26 12.35-3.34 24.56 2 34.46 9.13 3 2.14-.34 6.78-3.31 4.63ZM1245.49 761.17c-13.59-8.36-27.16 3.55-36.68 12.45-2.68 2.51-6.26-1.93-3.59-4.42 11.78-11 27.51-22.56 43.59-12.67 3.12 1.93-.21 6.55-3.32 4.64Z" style="fill:#272744"></path>
    <g style="opacity:.49">
      <ellipse cx="1087.17" cy="890.31" rx="17.81" ry="22.7" style="fill:#ff2d5e" transform="rotate(-39.04 1087.198 890.328)"></ellipse>
    </g>
    <g style="opacity:.49">
      <ellipse cx="1254.09" cy="875.91" rx="12.5" ry="14.88" style="fill:#ff2d5e" transform="rotate(-39.04 1254.12 875.916)"></ellipse>
    </g>
    <path d="M1190.39 892.7a45.62 45.62 0 0 0 7.26-.92 13.51 13.51 0 0 0 5.07-1.93c3.19-2.18 5-6.11 5.17-11.37a33.87 33.87 0 0 0-5.63-20 59.37 59.37 0 0 0-4.1-5.3c-1.29-1.55-2.52-3-3.56-4.56a26.28 26.28 0 0 1-4.17-17.44 4 4 0 0 0-3.45-4.5 4 4 0 0 0-4.4 3.52 34.48 34.48 0 0 0 5.5 23 63.12 63.12 0 0 0 4.06 5.24 53.17 53.17 0 0 1 3.58 4.6 25.79 25.79 0 0 1 4.27 15.13c-.1 2.5-.71 4.31-1.67 5a7.27 7.27 0 0 1-2.27.75 38.77 38.77 0 0 1-20.07-1.17 3.93 3.93 0 0 0-5 2.58 4.07 4.07 0 0 0 2.55 5.09 46.41 46.41 0 0 0 16.86 2.28Z" style="fill:#f27c85"></path>
    <path d="M1201.83 929.29s-11.71 24.8-31.4 27.07-34.5-17.57-36.12-23.89-4.16-11.25-1.84-11 24.8 7.93 41.83 5.1 31.58-9.26 27.53 2.72Z" style="fill:#d63646"></path>
    <path d="m896.58 673.35.33 10.45v.12-.15a75.87 75.87 0 0 1-.33-10.42Z" style="fill:#fff"></path>
    <path d="M1269.14 727s-144.46-36.91-233.67-1.87-128 57.71-153.74 62.09-36.86-17-37.49-26.47c0 0-23-235.51 133.32-275.27 17.31-4.42 46.81-21.91 68.86-20.91 220.68 10 225.65 140.28 225.79 191.39 0 10-.06 18.7-.24 26.38-.75 31.72-2.83 44.66-2.83 44.66Z" style="fill:#6cc58d"></path>
    <path d="M1269.14 727s-144.46-36.91-233.67-1.87-128 57.71-153.74 62.09-36.86-17-37.49-26.47c0 0-23-235.51 133.32-275.27-18.93 21-43.76 52.27-57.52 84.79-24.29 57.4-6.66 165.85-1 161.66s153.44-123.15 352.9-49.59c-.72 31.72-2.8 44.66-2.8 44.66Z" style="fill:#3e9a83"></path>
    <path d="M899.24 782.38s118-99.37 191.2-108 180.21 12 193.54 22.65 56.55 53.52 49.67 65.12-105.81-48.61-183.94-40.76-128.71 72.93-182.45 74.49-68.02-13.5-68.02-13.5Z" style="fill:#abdda8"></path>
    <path d="M1811.84 1917.42c0 20.24-4.92 73.39-14.78 87.47s-320.3-28.86-342.47-39.42-155.23-389.38-155.23-389.38l212.61-100s35.56 332.39 56.85 356.34a26.16 26.16 0 0 0 6.32 4.73c16.56 9.56 56.77 21.11 99.45 32.72 65.7 17.91 137.25 36.04 137.25 47.54Z" style="fill:#ffb2a8"></path>
    <path d="M1811.84 1917.42c0 20.24-4.92 73.39-14.78 87.47s-320.3-28.86-342.47-39.42-155.23-389.38-155.23-389.38l212.61-100s35.56 332.39 56.85 356.34a26.16 26.16 0 0 0 6.32 4.73c-49 5.19-113 15-120.55 31.54-12.32 27.08 12.32 69.56 101 86.51 69.68 13.32 106.43-55.3 119-85.33 65.7 17.91 137.25 36.04 137.25 47.54Z" style="fill:#f27c85"></path>
    <path d="M1568.6 1499.77c-6.57 27.94-207 90.36-207 90.36l-630.76 227.5 22.86-559 4.11-100.55s89.78-44.69 110.18-55 37.78-11.5 54.21 0 214.36 92.81 234.08 87.88 45.17-128.12 61.59-125.66 153.59 84.6 181.51 104.31c9.53 6.72 33 44 59.5 91.29 51.31 91.48 114.06 220.47 109.72 238.87Z" style="fill:#fad28c"></path>
    <path d="M905.53 1095.72s15.33-16.45 21.9-16.45 212.45 85.42 217.92 75.56 44.9-86 48.19-89.56 17.8 4.54 17.8 4.54-10.14 143.06-22.18 143.06-39.32-22-39.32-22-18.72 35.19-23.1 35.19-221.21-130.34-221.21-130.34Z" style="fill:#fff"></path>
    <path d="M1149.84 1190.82s42.37 149 47.41 220.2 0 75.62 0 75.62h-12.47s1.68-78.84-10.11-143.45-32.12-139.26-32.12-139.26Z" style="fill:#fff"></path>
    <circle cx="1131.36" cy="1275.54" r="11.19" style="fill:#fff"></circle>
    <circle cx="1149.84" cy="1373.3" r="11.19" style="fill:#fff"></circle>
    <g style="opacity:.64">
      <path d="M1568.6 1499.77c-6.57 27.94-207 90.36-207 90.36l-630.76 227.5 22.86-559a672.12 672.12 0 0 1 137.72 7.47s7 107.18-9.46 194.24-6.57 93.63 27.92 49.28 49.4-177.58 33.82-230.82-17.39-127.27-17.39-127.27l5-17s136.83 245.34 166.12 253.56 181-33.45 190.26-65.71-27.54-162.38-27.54-162.38l35.61 2.5s65.87 173 92.16 242c22.93 60.22 45.87-85 71-143.6 51.27 91.48 114.02 220.47 109.68 238.87Z" style="fill:#e99c82"></path>
    </g>
    <path d="M1126.35 1229.16c-1.85 0-4.62-1.07-9.52-3.46-4.74-2.32-11.45-5.93-19.95-10.73-14.25-8.06-33.78-19.61-58-34.33-41.28-25.05-82.52-51-82.93-51.22a3 3 0 1 1 3.2-5.08c58.47 36.75 153.44 94.83 166.36 98.62 4-4.8 15-22.29 21.79-33.69l1.68-2.8 2.65 1.91c12.55 9.07 32.7 21 38.19 19.08a.69.69 0 0 0 .52-.58c3.32-11.62 14.89-99.73 15-100.62a3 3 0 1 1 6 .78c-.48 3.64-11.75 89.44-15.19 101.49a6.64 6.64 0 0 1-4.32 4.59c-9.24 3.2-32.14-11.8-41-18-4.85 8-17.86 29.22-22 33.07a3.31 3.31 0 0 1-2.48.97Z" style="fill:#e99c82"></path>
    <path d="M1418.29 2032.82H776.61s17.78-411.48 26.27-412.3 118.53-43.52 149.74-120.75 11.5-176.07-23-258a467.56 467.56 0 0 0-32.5-62.78l-.07-.08c-26.94-44-51.1-69.73-44.09-73.31 0 0 32.33-18.62 44.09-11s57.75 58.05 86.24 153.32 43.79 163.54 73.36 175.4 231.06-21.76 243.11-49.31-8.76-134.86-35-202.75-66.81-113.88-57-115 44.91 1.1 54.76 14.24 92.53 268.29 113.89 381.63c12.3 65.31 24.32 248.17 32.31 391.4 5.89 105.37 9.57 189.29 9.57 189.29Z" style="fill:#6cc58d"></path>
    <path d="M1001.9 1597.49a5.43 5.43 0 0 1 6.92-5.23c20.93 6 87.62 22.11 175.41 12.65 79.68-8.58 119.11-20.41 134-25.86a5.43 5.43 0 0 1 7.28 5.11v22.6a5.44 5.44 0 0 1-3.77 5.17c-14.73 4.76-72 21.38-160.5 24.19-86 2.74-139.17-3-154.62-5.08a5.42 5.42 0 0 1-4.71-5.38Z" style="fill:#3e9a83"></path>
    <path d="M1418.29 2032.82H776.61s17.78-411.48 26.27-412.3 118.53-43.52 149.74-120.75 11.5-176.07-23-258a467.56 467.56 0 0 0-32.5-62.78c3 3.66 115.82 142.5 75.75 305.38-40.6 165.07-85 235.11-65.24 251.83s349.86 105.42 377 112.81c13.47 3.68 70.34-.39 124.14-5.42 5.84 105.31 9.52 189.23 9.52 189.23Z" style="fill:#3e9a83;opacity:.7"></path>
    <path d="M1169.14 1870.92c-51.18 0-99.29-1.73-126.64-4.71-21.46-2.33-26-4.8-27.76-7.11s-7.17-9.57-12.2-95.52c-2.45-42.09-3.63-83-3.64-83.38a3 3 0 0 1 6-.17c1.85 65.15 7.27 165.65 14.64 175.47.66.63 6.36 4.22 49.81 6.87 27.31 1.66 63.24 2.53 101.23 2.54 92-.05 147.44-5.13 153-9.88 2.76-2.38 8.78-17.55 5.13-106.88-2-49.59-6.12-98.09-6.16-98.57a3 3 0 1 1 6-.51c0 .49 4.15 49.1 6.18 98.81 1.2 29.24 1.46 53.15.77 71.07-1.18 30.94-4.88 38-8 40.62-9.32 8-80.07 10.36-121.42 11-12.36.25-24.74.35-36.94.35Z" style="fill:#3e9a83"></path>
    <path d="M1339.74 1977c-1.38 6.57-11.78-3.29-21.64-3.29s-37.78-32.85-41.06-34.49-46.59-14.47-47.62-14.77a61.2 61.2 0 0 1 9.84 21.34 53.78 53.78 0 0 1 1.38 11.32A104.67 104.67 0 0 1 1239 1977h-111.16c-1.3 0-9.94-8.41-20.45-18.19-14.06-13-31.44-28.51-39-29.45-13.14-1.64-34.49-14.78-115-11.5s-253-16.42-267.75-21.35-57.49-9.86-70.63-42.71c-8.82-22.06-9.49-119.68-9-181.43.24-30.2.77-51.82.77-51.82l207 23s-1.55 11.21-3.58 26.14c-2.35 17.3-5.36 39.57-7.36 55.21-1.21 9.53-2.07 16.59-2.17 18.52v.32a4.23 4.23 0 0 0 2.17 3.71c3.92 2.73 14 5.26 37.22 11.06 32.85 8.21 115 31.21 177.4 50.92s118.27 18.07 121.56 19.71 41.06 6.57 64.06 23 101.84 57.49 106.77 62.42 31.25 55.84 29.89 62.44Z" style="fill:#ffb2a8"></path>
    <path d="M1149.44 1939.66c.49.91 10.58 20 11.79 37.31h-4.92c-1.27-16.13-11.09-34.78-11.21-35a2.47 2.47 0 1 1 4.34-2.34ZM1206.88 1977H1202c.87-5.73.82-11.8-1.15-17.23-6.5-17.89-8.16-22.85-8.23-23.07a2.46 2.46 0 0 1 4.67-1.54s1.72 5.12 8.2 22.93c2.11 5.91 2.28 12.57 1.39 18.91ZM813.82 1643.51s-1.55 11.21-3.58 26.14l-204.16 2.69c.24-30.2.77-51.82.77-51.82ZM802.87 1747.45s-69.81-17.7-48.46-16.6 48.46-6 48.46-6-6.87 14.01 0 22.6Z" style="fill:#f27c85"></path>
    <path d="M1239 1977h-111.16c-1.3 0-9.94-8.41-20.45-18.19 47.44.55 107.15.64 133.25-1.7A104.67 104.67 0 0 1 1239 1977Z" style="fill:#f27c85"></path>
    <path d="M869.39 1431.9c-16.43 70.07-43.79 173-43.79 173l-207-89.8s7.64-27.45 19.37-66.9c26.94-90.76 75.46-245 102.19-274.76 38.32-42.71 107.31-42.71 141.26 15.34 8.53 14.58 13 32.77 14.77 52.94 5.16 60.06-14.5 137.71-26.8 190.18Z" style="fill:#fad28c"></path>
    <g style="opacity:.64">
      <path d="M869.39 1431.9c-16.43 70.07-43.79 173-43.79 173l-207-89.8s7.64-27.45 19.37-66.9c61.11 25.24 152.37 53.32 185.4 13.25 35.6-43.15 60.72-154.88 72.82-219.73 5.16 60.06-14.5 137.71-26.8 190.18Z" style="fill:#e99c82"></path>
    </g>
    <path d="M847.49 1588.49c0 14.24-7.67 60.23-15.32 63.52s-277.13-14.69-270.5-31.49a351.2 351.2 0 0 0 12.67-34.87c3-10.22 5.26-20.6 4.86-27.83-1.1-19.71 6.57-56.93 19.71-58 10.15-.86 152.83 44 217.32 71 19.04 7.99 31.26 14.43 31.26 17.67Z" style="fill:#fad28c"></path>
    <g style="opacity:.64">
      <path d="M832.64 1581.16a2.76 2.76 0 0 1-.75-.1 3 3 0 0 1-2.16-3.65c.13-.5 13.21-51.06 31.18-123 17.77-71 31.81-165.34 32.22-168.11 5.65-51.74-4.44-92-29.19-116.51-18.65-18.45-39.3-21.64-39.51-21.67a3 3 0 0 1 .85-5.94c.91.13 22.56 3.41 42.61 23.08 18.34 18 38.64 53.72 31.2 121.74v.12c-.14.95-14.33 96.71-32.34 168.75s-31.07 122.49-31.2 123a3 3 0 0 1-2.91 2.29Zm63.47-294.43Z" style="fill:#e99c82"></path>
    </g>
    <path d="M698 1602.16h-.24c-64.42-5.15-119.68-41.47-120.23-41.83a3 3 0 1 1 3.32-5c.54.36 54.56 35.82 117.39 40.85a3 3 0 0 1-.24 6Z" style="fill:#e99c82"></path>
    <path d="M1805.29 710.62h-371.16a67.77 67.77 0 0 0-67.77 67.76v224.49a67.77 67.77 0 0 0 67.77 67.76h66.48l7.86 48.65a6.17 6.17 0 0 0 11.06 2.66l37.54-51.31h248.22a67.77 67.77 0 0 0 67.77-67.76V778.38a67.77 67.77 0 0 0-67.77-67.76Z" style="fill:#fff;stroke:#cddde8;stroke-miterlimit:10;stroke-width:6px"></path>
    <path d="M1739.34 953.82v5.42a28.86 28.86 0 0 1-28.88 28.88h-201.08a28.88 28.88 0 0 1-28.66-25.32 29.85 29.85 0 0 1-.22-3.56v-5.42a28.89 28.89 0 0 1 28.88-28.89h201.08a28.89 28.89 0 0 1 28.88 28.89Z" style="fill:#cedbee"></path>
    <path d="M1739.34 953.82v5.42a28.89 28.89 0 0 1-16.29 26c-3.32-6.33-8.9-14.31-16.9-17.2-14-5.08-25.53-4.17-43.41 3.75s-31.59.7-48.83-3.77-15.64 1-32.55 3.43-31-9.5-48.84-2.79-15.32 0-32.23-6.17a26.4 26.4 0 0 0-19.57.31 29.85 29.85 0 0 1-.22-3.56v-5.42a28.89 28.89 0 0 1 28.88-28.89h201.08a28.89 28.89 0 0 1 28.88 28.89Z" style="fill:#aec6d3"></path>
    <path d="M1737.11 957.17c-8-2.56-12.13-2.56-23.62 2.55s-16.6-10.53-37-2.55-33.83 6.06-45.32.32-10.54-1.28-21.39-.32-16.28-8.3-27.77-2.56-16.59 10.85-32.55 3.83-22.34 4.47-34.79-1.38-7.66-8.19-24.26-3.08-24.89 3.83-21.91-3.52c1.65-4.06 6.29-8.11 10.1-10.92a65.42 65.42 0 0 1 5.6-3.71l237.29-5.15s13.46 3.48 22.56 9c3.83 2.32 6.89 5 7.87 7.92 3.28 9.89-6.83 12.12-14.81 9.57Z" style="fill:#cedbee"></path>
    <path d="M1744 939.67c-13.19 2.5-39.67 5.52-92.46 6.91-76.6 2-145.85-3.6-173-7a65.42 65.42 0 0 1 5.6-3.71l237.29-5.15s13.5 3.44 22.57 8.95Z" style="fill:#aec6d3"></path>
    <path d="M1747.81 916.66v.47a20.25 20.25 0 0 1-20.25 20.25H1492a20.25 20.25 0 0 1-20.25-20.25v-.47a20.24 20.24 0 0 1 20.25-20.24h235.6a20.22 20.22 0 0 1 20.25 20.24Z" style="fill:#aec6d3"></path>
    <path d="M1751.9 894.51s-49.72 16-88.21 27.31c-21.41 6.29-39.34 11.14-43.29 11-8.74-.33-98.48-24-135.78-34-9.93-2.64-16.14-4.31-16.14-4.31l24.68-2.13c8.08-2.98 258.74 2.13 258.74 2.13Z" style="fill:#dfe9f4"></path>
    <path d="M1744.68 875.38a13.87 13.87 0 0 1-12.68 8.07h-244.48a13.87 13.87 0 0 1-12.68-8.07c-2.08-4.62-3.67-11.75-3-22.57 1.71-26 28.52-84.26 137.88-84.26s136.18 58.3 137.88 84.26c.75 10.82-.83 17.95-2.92 22.57Z" style="fill:#cedbee"></path>
    <ellipse cx="1554.03" cy="790.04" rx="11.49" ry="4.04" style="fill:#fff"></ellipse>
    <ellipse cx="1622.89" cy="783.86" rx="11.49" ry="4.04" style="fill:#fff"></ellipse>
    <ellipse cx="1538.28" cy="816.35" rx="11.49" ry="4.04" style="fill:#fff"></ellipse>
    <ellipse cx="1589.22" cy="802.69" rx="11.49" ry="4.04" style="fill:#fff"></ellipse>
    <ellipse cx="1660.41" cy="806.73" rx="11.49" ry="4.04" style="fill:#fff"></ellipse>
    <rect width="233.63" height="11.06" x="1493.16" y="883.45" rx="2.87" style="fill:#aec6d3"></rect>
    <path d="M2172.09 289.86h-371.17a67.77 67.77 0 0 0-67.77 67.76v224.49a67.77 67.77 0 0 0 67.77 67.76h66.48l7.86 48.65a6.16 6.16 0 0 0 11.06 2.66l37.54-51.31h248.23a67.76 67.76 0 0 0 67.76-67.76V357.62a67.76 67.76 0 0 0-67.76-67.76Z" style="fill:#fff;stroke:#cddde8;stroke-miterlimit:10;stroke-width:6px"></path>
    <path d="m1987.51 436.15-77.42-120.72a2.4 2.4 0 0 0-3.26-.9l-4.31 2.44a3.17 3.17 0 0 0-.88 4.46l81.73 118.27c1.52 2.2 4.64 1 4.64-1.82a3.15 3.15 0 0 0-.5-1.73ZM1991.46 443.41l1.93-110.41a2.78 2.78 0 0 1 2.59-2.89h9.77a2.83 2.83 0 0 1 2.58 3.27l-10.59 110.42a2.73 2.73 0 0 1-2.58 2.63h-1.1a2.79 2.79 0 0 1-2.6-3.02Z" style="fill:#92b1dd"></path>
    <path d="M2075.84 434.69a65.64 65.64 0 0 1-27.71.77 1.77 1.77 0 0 0-1.93-1.12l-2.08.24q-3-.76-5.88-1.8c.93-1.38.35-4.15-1.73-4.43-3-.41-6.56-.93-10.31-1.35-10.58-6.45-19.42-15.23-31.88-17.33a65.2 65.2 0 0 0-19-.46c-4.82-5.49-10-10.38-16.65-13-13.18-5.2-32.69-.91-43.34 9.17-8.74 8.27-12.55 20.79-15 33.23a102.62 102.62 0 0 0-16.55 8.54c-2.56 1.64-.26 6.11 2.3 4.47a98.92 98.92 0 0 1 13.18-7c-.24 1.46-.47 2.91-.7 4.34-.51 3.25 3.89 4.65 4.4 1.37.4-2.54.82-5.14 1.28-7.77a139.45 139.45 0 0 1 37.41-8.26c-2.11 3.61-4 7.33-5.91 11-1.45 2.81 2.26 5.35 3.81 2.81-.89 8.68 4.69 13.36 9.22 22 1.49 2.87 5.44.26 3.94-2.61-4.15-7.93-11.27-13.73-7.22-24a20.28 20.28 0 0 1 8-10c7.53-.29 15-.25 22.44 0 1.07 0 2.14.07 3.21.12-12.37 4.41-21.85 15.8-25.26 30.57-.74 3.23 3.66 4.61 4.4 1.38.16-.67.35-1.32.54-2 .77 1.13 2.21 1.62 3.28.24a21.19 21.19 0 0 1 7.84-6.09 39.35 39.35 0 0 0 .23 4.58c.37 3.26 4.93 3.3 4.56 0a37.26 37.26 0 0 1-.16-6.33h.07c1.32-.07 2.64-.18 3.95-.31a22.31 22.31 0 0 0 .73 15.23c1.16 3.05 5.09.42 3.94-2.61-1.94-5.1-1.48-9.49.38-13.15 0 15.49 7.23 32.53 22.81 31 11.08-1.09 21.27-16.46 18.82-29.08 1.63.34 3.35.68 5.11 1 .94 1 1.86 2 2.77 3 1.25 1.41 2.91.65 3.59-.69a194.07 194.07 0 0 0 24.62 11.64c2.78 1.09 4-3.91 1.21-5-4.61-1.81-9.08-3.84-13.47-6a36.15 36.15 0 0 0 5.17.45c2.93 0 2.94-5.16 0-5.18a29.06 29.06 0 0 1-3.77-.29 10.07 10.07 0 0 0 1.14-.93q5 1 10.05 2.12c2.87.64 4.09-4.34 1.21-5s-5.56-1.21-8.35-1.77a2.92 2.92 0 0 0-.1-1.48c8 2.51 15.75 2.75 19.22-6.82a2.43 2.43 0 0 0 0-1.72c1.12-.22 2.24-.44 3.35-.71 2.9-.67 1.69-5.67-1.18-4.98Zm-45.2 1.36a84.42 84.42 0 0 0-12-.82 57.37 57.37 0 0 0-3.47-3.05q5.6-.07 11.16.32c2.08 1.22 4.21 2.33 6.39 3.36Zm-79.38-7.47c4.33-5.51 9.48-10 16.1-12.25a47 47 0 0 1 6.27-1.65c4 4.65 7.8 9.63 12 14l-.66.37-1.13-.13a40.67 40.67 0 0 0-23.69-3.37 24.87 24.87 0 0 0-8.27 3Zm60.23 7-1.21.14c-.68-.11-1.37-.24-2-.38a47.66 47.66 0 0 0-6.43-2.27 37.69 37.69 0 0 1 4.23-.57 30.3 30.3 0 0 1 5.41 3.06Zm-7.2 8.43c-.57-.62-1.15-1.24-1.74-1.84l.41-.1c1.55-.35 3.12-.63 4.69-.87 1.64 1 3.24 2 4.83 3.13a22.07 22.07 0 0 0-4.81-.12Zm-6.59-6.35c.3.14.62.25.92.38l-.34.12-.66-.54Zm-4.52 2.66c-1 .51-2 1.07-3 1.68a18.35 18.35 0 0 1 1.54-2.76c.5.33.98.69 1.46 1.06Zm-11 8.66a58.53 58.53 0 0 0-6.82 1.29c.13-.57.29-1.14.45-1.7a62.19 62.19 0 0 1 6.69 0c-.06.11-.16.25-.27.43Zm5.78-12a23.4 23.4 0 0 0-2.87 6.43c-2.45 0-4.89.07-7.32.21a25.53 25.53 0 0 1 3.48-5.26 30.64 30.64 0 0 1 6.75-1.44Zm-15.31 7.02c-.66.08-1.31.18-1.94.31a34 34 0 0 1 2.72-2.1c-.28.59-.54 1.18-.78 1.79Zm-1.7 5.31c-.12.52-.23 1-.33 1.55h-3.34a13.65 13.65 0 0 1 3.72-1.55Zm40.55-26.68c1.76 1.24 3.5 2.46 5.24 3.66a61.39 61.39 0 0 0-10.63.52 23.34 23.34 0 0 0-7.41-1.41 25 25 0 0 0-8.2 1.14c-.24-.22-.5-.44-.74-.68a148.18 148.18 0 0 1-10.49-11.94 49.78 49.78 0 0 1 32.23 8.71Zm-106.09 14.06c2.57-11.95 6.83-23.56 16.34-30.15 7.6-5.27 19.09-7.76 27.91-7.1 8 .59 14.33 4.95 20 10.83a37.82 37.82 0 0 0-11.18 4.68c-5.42 3.47-9.76 8.44-13.5 14-13.45 1.05-26.82 3.22-39.57 7.74Zm55.37 21.31c.34-.81.7-1.6 1.09-2.37h.05c.49.05 1 .07 1.45.11a25 25 0 0 0-2.59 2.26Zm59.93 4.48c-.56 8-5.77 16.31-12.87 18.14-13 3.35-20.31-12.28-20.11-26.42 1.15-.23 2.3-.47 3.45-.74a95.93 95.93 0 0 1 14.88.24c.39.55.78 1.09 1.15 1.64a2.38 2.38 0 0 0 4.35-1c2 .29 4.1.62 6.15 1 .68.13 1.43.29 2.23.46a15.73 15.73 0 0 1 .77 6.72Zm20.29-9.28-.17-.08.43.07Zm9.46-4.78a6.18 6.18 0 0 1-.58 1.08q-9.68-1.81-19.41-3.1a90.272 90.272 0 0 1-5.31-4.75q2.73-.15 5.43-.39c2.17.33 4.33.71 6.46 1.21 3.75.89 8.73 3.29 13.85 5.23a2.38 2.38 0 0 0-.46.72Zm-.7-7.33-.39-.15a69 69 0 0 0 19.72.23c-3.54 8.51-14.02 2.02-19.35-.08Z" style="fill:#cedbee"></path>
    <path d="m1993.44 594.7 4-135.76h-127.16L1893 585.69c.94 5.24 5 9 9.72 9Z" style="fill:#dfe9f4"></path>
    <path d="m1997.49 458.94-36.2-47.84a2.31 2.31 0 0 0-2-1l-124 10.32c-2.18.18-3 3.31-1.35 4.88l36.33 33.59ZM1997.49 458.94h96.81l-24.14 126.76c-1 5.25-5.09 9-9.82 9h-66.9Z" style="fill:#cedbee"></path>
    <path d="m1997.49 458.94 20.19-43.1a3.44 3.44 0 0 1 3.43-2.09l98.2 10.41c3 .32 4.29 4.59 2 6.92l-27 27.86Z" style="fill:#aec6d3"></path>
    <path d="M1955 574.28h-41.75c-5.45 0-10.14-4.41-11.16-10.49l-10.73-63.94a14.12 14.12 0 0 1 2.41-10.64 10.83 10.83 0 0 1 8.75-4.67h49.8c6.07 0 11.06 5.39 11.35 12.28l2.68 63.95a13.84 13.84 0 0 1-3.12 9.51 10.68 10.68 0 0 1-8.23 4Zm-52.48-84.56a6.49 6.49 0 0 0-5.24 2.79 8.47 8.47 0 0 0-1.44 6.37l10.73 63.94c.61 3.64 3.42 6.28 6.68 6.28H1955a6.41 6.41 0 0 0 4.93-2.39 8.32 8.32 0 0 0 1.87-5.7l-2.69-63.94c-.17-4.12-3.15-7.35-6.79-7.35Z" style="fill:#fff"></path>
    <path d="M2358.26 807.11H1987.1a67.77 67.77 0 0 0-67.77 67.76v224.49a67.77 67.77 0 0 0 67.77 67.76h66.48l7.86 48.65a6.16 6.16 0 0 0 11.06 2.66l37.54-51.31h248.22a67.77 67.77 0 0 0 67.77-67.76V874.87a67.77 67.77 0 0 0-67.77-67.76Z" style="fill:#fff;stroke:#cddde8;stroke-miterlimit:10;stroke-width:6px"></path>
    <path d="M2245.43 957.75s36.78-20 53.08-5.13-2.8 68.45-19.56 80.55-47.49 4.66-47.49 4.66l5.59-7.45s20.95 7 37.24-9.78 16.77-49.82 12.11-55.4-40.51 10.7-40.51 10.7Z" style="fill:#bcd0d8"></path>
    <ellipse cx="2165.81" cy="1073.68" rx="147.59" ry="24.68" style="fill:#bcd0d8"></ellipse>
    <ellipse cx="2163.95" cy="1069.02" rx="73.1" ry="11.64" style="opacity:.58;fill:#7297b5"></ellipse>
    <path d="M2168.14 1070.42c-29.59 0-50.21-10.26-64.51-25.27-26.61-27.87-31.51-72.08-31.94-97.18-.18-10.5 7.47-19.09 16.93-19.09H2242c9.13 0 16.6 8 16.93 18.12 1.25 38.18-5.51 123.42-90.79 123.42Z" style="fill:#cddde8"></path>
    <path d="M2168.14 1070.42c-29.59 0-50.21-10.26-64.51-25.27 27.62 3.31 58 4.41 76.15-2.67 30.66-11.94 44.7-81.75 49.58-113.6H2242c9.13 0 16.6 8 16.93 18.12 1.25 38.18-5.51 123.42-90.79 123.42Z" style="fill:#bcd0d8"></path>
    <path d="M2121.33 917.48a14.82 14.82 0 0 0 12.18-16.9 18.57 18.57 0 0 0-6.62-11.18c-1.45-1.2-3.31-1.8-4.74-2.92-6-4.74-5.29-10.21-1.45-15.66 2.08-3-2.76-5.74-4.82-2.82-3.67 5.2-7.5 12.27-3.25 18.36 1.94 2.79 5 3.85 7.8 5.52 7.73 4.58 12.07 17.84-.58 20.22-3.53.66-2 6 1.48 5.38ZM2156.72 846.42c-9.25.45-10.67 12.24-9.8 19.66.62 5.24 2.88 8.59 6.67 12.06 2.84 2.59 6.59 4.56 8.55 8 4.61 8.17-1.75 15.32-8.25 18.89-3.15 1.74-.33 6.56 2.82 4.83 8.29-4.56 14.95-13.46 11.67-23.37-1.6-4.8-5.17-7.59-8.89-10.74-2.9-2.47-5.71-4.41-6.8-8.53-.72-2.69-1.07-15 4-15.24 3.58-.17 3.6-5.76 0-5.59ZM2179.11 917.32c11.49-2.8 28-5.75 27.49-21-.22-5.92-3.33-9.19-7.25-13.13s-7.25-8.14-6.74-14.07c.8-9.32 7.47-12.92 15.14-16 3.29-1.33 1.86-6.73-1.48-5.38-12.29 5-21.87 12.5-18.68 27.17 1.45 6.67 5.33 9 9.6 13.73 13.4 14.79-9.15 20.78-19.57 23.32-3.49.85-2 6.24 1.49 5.39ZM2159.13 2032.82h-101.02l60.23-316.69 6.29 48.89 34.5 267.8z" style="fill:#cddde8"></path>
    <path d="M2159.13 2032.82H2077l47.63-267.8 34.5 267.8z" style="fill:#7297b5"></path>
    <path d="m2159.13 2032.82-40.92-309.15c-1.81-13.67 7.64-26 20-26h236.24c9.52 0 17.74 7.45 19.74 17.88l60.64 317.22Z" style="fill:#cddde8"></path>
    <path d="M2153.76 1716.13h210.89c8 0 15 6.28 16.69 15.08l51.71 266.42c2.31 11.94-5.8 23.22-16.7 23.22h-223.81c-8.37 0-15.51-6.8-16.86-16.07l-38.78-266.41c-1.69-11.66 6.33-22.24 16.86-22.24Z" style="fill:#fff"></path>
    <rect width="184.8" height="12.32" x="2164.06" y="1749.46" rx="3.75" style="fill:#cddde8"></rect>
    <rect width="184.8" height="12.32" x="2186.23" y="1868.49" rx="3.75" style="fill:#cddde8"></rect>
    <rect width="184.8" height="12.32" x="2173.09" y="1784.37" rx="3.75" style="fill:#cddde8"></rect>
    <rect width="184.8" height="12.32" x="2173.09" y="1836.52" rx="3.75" style="fill:#cddde8"></rect>
    <rect width="184.8" height="12.32" x="2205.94" y="1955.55" rx="3.75" style="fill:#cddde8"></rect>
    <rect width="184.8" height="12.32" x="2192.8" y="1923.58" rx="3.75" style="fill:#cddde8"></rect>
    <rect width="844.31" height="55.85" x="1076.64" y="1976.97" rx="14.83" style="fill:#92b1dd"></rect>
    <path d="M1675.19 2006.53h-24.64a33.48 33.48 0 0 0 32.91-39.71l-31.08-164H1677l31.08 164a33.48 33.48 0 0 1-32.89 39.71Z" style="fill:#cddde8"></path>
    <path d="m1369.73 1757.55 86.89-441.49a38 38 0 0 1 37.26-30.64h557.86a38 38 0 0 1 37.19 45.65l-91.1 441.48a38 38 0 0 1-37.19 30.3H1407a38 38 0 0 1-37.27-45.3Z" style="fill:#cddde8"></path>
    <path d="m1419 1757.55 86.89-441.49a38 38 0 0 1 37.26-30.64H2101a38 38 0 0 1 37.19 45.65l-91.1 441.48a38 38 0 0 1-37.19 30.3h-553.64a38 38 0 0 1-37.26-45.3Z" style="fill:#92b1dd"></path>
    <path d="m1617.33 1722.2 35-177.6a15.27 15.27 0 0 1 15-12.33h224.37a15.27 15.27 0 0 1 15 18.36l-36.7 177.61a15.27 15.27 0 0 1-15 12.19h-222.68a15.28 15.28 0 0 1-14.99-18.23Z" style="fill:#cddde8"></path>
    <path d="M1871 2006.54a48.3 48.3 0 0 1-42.62 25.46H1505a12.73 12.73 0 1 1 0-25.46h170.24a33.48 33.48 0 0 0 32.91-39.72l-.27-1.35-25.21-133-5.6-29.57h162.62l6.26 29.57 28.12 133 1.72 8.14a48 48 0 0 1-4.79 32.93Z" style="fill:#92b1dd"></path>
    <path d="M1871 2006.53h-195.81a33.48 33.48 0 0 0 32.91-39.71l-.27-1.35H1874l1.72 8.13a48 48 0 0 1-4.72 32.93ZM1845.89 1832.42h-163.27l-5.6-29.57h162.62l6.25 29.57z" style="fill:#7394bc"></path>
    <path d="m1632.11 1722.2 35-177.6a15.27 15.27 0 0 1 15-12.33h224.43a15.28 15.28 0 0 1 15 18.36l-36.65 177.61a15.28 15.28 0 0 1-15 12.19H1647.1a15.28 15.28 0 0 1-14.99-18.23Z" style="fill:#bcd0d8"></path>
    <path d="M1852 1604.91a5.79 5.79 0 0 1-5.75 5.75h-139.67a5.75 5.75 0 0 1-5.74-5.75 5.79 5.79 0 0 1 5.74-5.75h139.63a5.76 5.76 0 0 1 5.79 5.75ZM1845.39 1667.33a5.79 5.79 0 0 1-5.75 5.75H1700a5.76 5.76 0 0 1-5.75-5.75 5.81 5.81 0 0 1 5.75-5.75h139.63a5.76 5.76 0 0 1 5.76 5.75ZM1848.67 1636.12a5.77 5.77 0 0 1-5.75 5.75H1703.3a5.76 5.76 0 0 1-5.75-5.75 5.79 5.79 0 0 1 5.75-5.75h139.62a5.76 5.76 0 0 1 5.75 5.75Z" style="fill:#7297b5"></path>
    <path d="M1684.51 2005.22a26.78 26.78 0 0 1-26.78 26.78H1505a12.74 12.74 0 0 1-12.73-12.55c-.1-7.1 6.06-12.91 13.16-12.91h169.81a33.21 33.21 0 0 0 9.27-1.32Z" style="fill:#cddde8"></path>
    <path d="M1883.32 1534.77h-182.49a2.5 2.5 0 0 1 0-5h182.49a2.5 2.5 0 1 1 0 5ZM1888.77 1711.49a2.21 2.21 0 0 1-.51 0 2.5 2.5 0 0 1-1.94-3l25.57-123.92a2.5 2.5 0 1 1 4.9 1l-25.57 123.92a2.51 2.51 0 0 1-2.45 2ZM1860.91 1742.93h-228.59a2.5 2.5 0 0 1 0-5h228.59a2.5 2.5 0 0 1 0 5ZM1428.57 1711.49a2.7 2.7 0 0 1-.49 0 2.5 2.5 0 0 1-2-2.94l70.41-357.55a2.5 2.5 0 1 1 4.9 1L1431 1709.48a2.5 2.5 0 0 1-2.43 2.01ZM1845.39 1287.92h-254.22a2.5 2.5 0 0 1 0-5h254.22a2.5 2.5 0 1 1 0 5ZM1981.36 1802.37h-79.8a2.5 2.5 0 0 1 0-5h79.8a2.5 2.5 0 0 1 0 5ZM1702.23 1938.4a2.49 2.49 0 0 1-2.45-2l-19.62-103.49a2.5 2.5 0 0 1 4.91-.93l19.62 103.49a2.48 2.48 0 0 1-2.46 3ZM1877.1 1968h-169.27a2.5 2.5 0 0 1 0-5h163.1l-27.48-130a2.5 2.5 0 0 1 4.89-1Z" style="fill:#7394bc"></path>
    <path d="M1381.51 1700.22a2 2 0 0 1-.49 0 2.49 2.49 0 0 1-2-2.93l75.12-381.66a2.5 2.5 0 0 1 4.91 1L1384 1698.2a2.5 2.5 0 0 1-2.49 2.02Z" style="fill:#92b1dd"></path>
  </g>
</svg>
