<svg xmlns="http://www.w3.org/2000/svg" width="2752.651" height="2602.49" viewBox="123.69 196.755 2752.651 2602.49" id="woman-accepting-online-food-delivery-order">
  <g id="men">
    <path d="M320.8 2538.65s-134.53-262.29 38.56-485.13 209-519.41 92.12-699.38S300 661.07 782 752.36s664.21-390.2 1129.81-249.06 565.66 391.55 425.92 615c-56.61 90.5-74.77 208.86-40.13 312.14 15.68 46.74 45 94.16 84.5 128 45.57 39 105.92 43.7 152 79.4 149.79 116.15-123.17 314.11 22.75 432.49 14.3 11.6 32.83 18.36 50.62 22.59 230 54.76 115 450.36 115 450.36Z" style="fill:#f5f5f7"></path>
    <ellipse cx="2447.47" cy="1218.28" rx="48.24" ry="47.47" style="fill:#f5f5f7"></ellipse>
    <ellipse cx="361.96" cy="1293.85" rx="41.16" ry="40.51" style="fill:#f5f5f7"></ellipse>
    <path d="M780.55 2273.17c-12.94-13.42-26.22 20.21-45.59 26.22s22.19-38.86 34.46-72.67 11.76-117.85-1.53-137-24 18.95-45.32 23.89 19.49-77.73 16.78-116.4-43-110.79-57.11-118.68-68.51 23-83.6 36.84c-7.42 6.78-21.88 26.3-34.8 49.8-13.31 24.26-25 52.77-25.59 75.93-1 36.52 16.36 81.65 22.51 109.24 1.54 6.84 2.36 12.6 2.07 16.9-1.5 21.59-29.35 2.77-38.06-11.47a5.35 5.35 0 0 0-2.24-2.15c-11.47-5.78-42.84 35.9-29.41 77.42 14.46 44.67 68.78 67.75 82.55 82.86s13.6 60.69-24.42 40.19-47.58-1 1 61.76c20.73 26.78 62.41 43.92 103.39 54.8 45.76 12.14 90.62 16.46 104.5 17.57 2.82.23 4.37.32 4.37.32a22.41 22.41 0 0 0 6.18-3.88c18.16-16 14.89-62.07 17.73-102.3 3.16-44.3 5.06-95.79-7.87-109.19Zm-110.1-83.27c9.46-25.28 30.75-40.71 47.52-34.44s22.7 31.88 13.23 57.18-30.74 40.72-47.52 34.44-22.68-31.88-13.23-57.18Zm-112.39-95.21a57.71 57.71 0 0 1 .05-8.31c1.87-25.24 18.57-44.56 37.28-43.18s32.37 23 30.48 48.22a58.21 58.21 0 0 1-6.35 22.73c-6.88 13.1-18.46 21.38-30.93 20.44-16.59-1.23-29.24-18.4-30.53-39.9ZM575.12 2257a22.4 22.4 0 1 1 24-20.68 22.36 22.36 0 0 1-24 20.68Z" style="fill:#aec6d3"></path>
    <path d="M857.29 2543.21c-.07.21-.14.43-.23.64a4.66 4.66 0 0 1-4.59 2.73 4.61 4.61 0 0 1-1.55-.4c-.34-.15-2.53-1.13-6.21-3a465.39 465.39 0 0 1-71.46-44.72c-4.23-3.2-8.6-6.62-13.08-10.3-35.88-29.35-78.14-73.53-99.44-130.61a319.92 319.92 0 0 1-10.45-33.92c-2.6-10.32-4.83-21-6.7-31.78-20.31-116.65-1.85-255.18-1.62-256.84a4.63 4.63 0 1 1 9.17 1.26c-.26 2-26.42 198.34 18.28 318.07 20.87 55.88 62.67 99.58 101.31 130.28 43.66 34.67 83.25 52.77 84 53.1a4.64 4.64 0 0 1 2.57 5.49Z" style="fill:#aec6d3"></path>
    <path d="M654 2404.6c-.11-27.3-.77-56.89-3.75-80.94-1.53-12.43-3.68-23.38-6.7-31.78-2.24-6.27-5-11.1-8.28-14.06-16.27-14.54-28.86 25.88-50.95 34.59s22.54-47.3 33.93-87.85c7.1-25.28 6.7-72.94 1.24-110.39-3.29-22.6-8.45-41.48-14.92-49.48-16.14-20-25.22 18.92-46.54 30a24.19 24.19 0 0 1-4.31 1.79c-23.41 7.29 12.7-84.11 10.09-131.34-.12-2.1-.3-4.11-.58-6-6.53-44.93-59.8-125.65-77-133.63s-78 32.88-94.43 50.27-62.14 98.71-59.59 152.06 39.51 119.81 39.64 145.15-34 5.8-45.42-10.09-51.17 39.75-30.43 90.66 86.17 73.13 103.57 89.57 21.16 69.69-25 49-55.64 3 6.57 72.05c56.17 62.31 218.09 66.27 249 66.44h5.14a25.91 25.91 0 0 0 6.87-5.08c10.59-10.79 13.29-31.14 13.48-55 .21-20.64-1.53-43.98-1.63-65.94Zm-102-258.8a26.07 26.07 0 0 1 8.74 4.51c13.85 10.73 19.12 35.57 11.69 61.11-.14.44-.26.89-.42 1.33a77.14 77.14 0 0 1-16.37 29.37c-10.55 11.51-23.73 17.14-35.72 13.63-20.13-5.87-29.27-35.24-20.41-65.6 4.59-15.7 13.08-28.6 23-36.56 9.29-7.47 19.79-10.59 29.49-7.79Zm-158 130.94a26.23 26.23 0 1 1 26.22-26.22 26.23 26.23 0 0 1-26.22 26.22Zm5.13-144.08c-22 0-39.79-24-39.79-53.66s17.82-53.64 39.79-53.64 39.78 24 39.78 53.64-17.8 53.66-39.76 53.66Z" style="fill:#cedbee"></path>
    <path d="M669.9 2543.21h-21l-2.58-1.66c-5.21-3.37-10.63-7-16.18-10.9-44.47-31.18-97.63-79.1-127.46-143.87-63.73-138.41-50.07-372.67-49.91-375a5.42 5.42 0 0 1 10.82.68c-.13 2.31-13.63 233.89 49 369.8 29.21 63.46 81.84 110.86 129.61 143.33 9.5 6.46 18.8 12.31 27.7 17.62ZM1800 2464.09s202.71-12.33 262.93-90 48.4-101.89 1.29-76.51-47.32-31.1-30.25-49.8 84.34-47.28 102.25-102.62-28.44-110.89-39.21-93.25-45.28 41-47.14 14.2 31.95-99.78 30.45-156.26-56.1-138.67-74.8-155.74-86-55.39-103.56-45.63-67.39 99.1-70.75 147 47.19 150.3 20.79 144.19-39.66-53.35-56.13-29.59-17.09 127.87-1.9 169.75 66.68 97.48 42.69 90-40.45-49.1-56.48-32.49-13.67 80.4-9.8 135.24-1.38 118.54 29.62 131.51Zm205-312.42a27.74 27.74 0 1 1 29.72 25.61 27.74 27.74 0 0 1-29.72-25.61Zm-33.16-179.48c-2.33-31.26 14.58-58 37.76-59.72s43.86 22.22 46.19 53.48-14.59 58-37.77 59.73-43.91-22.23-46.23-53.49Zm-114.08 79.34c20.78-7.77 47.13 11.33 58.86 42.67s4.39 63-16.4 70.82-47.13-11.32-58.86-42.66-4.43-63.05 16.35-70.83Z" style="fill:#aec6d3"></path>
    <path d="M1691.09 2536a5.79 5.79 0 0 0 1.92-.49c1.82-.82 45.19-20.46 96.21-59.07 47.21-35.74 109.71-95 139.4-174.55 56.39-151 23.59-397.11 23.25-399.58a5.74 5.74 0 1 0-11.37 1.56c.33 2.44 32.73 245.7-22.63 394-55.06 147.46-227.82 226.37-229.56 227.15a5.75 5.75 0 0 0 2.78 11Z" style="fill:#aec6d3"></path>
    <path d="M2243.86 2513.6s153.4 56.67 223 18.94 68.72-59.4 25.77-56-24.78-38.27-6.14-46.52 77.5-7.48 108.65-42.45 15-90.95 1.35-81.45-46.65 15.5-39.34-4.82 55.91-63.18 73.13-105.28 3.65-120.41-4.6-139.05-45.44-68.74-61.52-67.23-81.81 51.18-99.83 85.4-14 126.07-31.46 113-11.92-52.18-31.77-40-54.07 88.69-56.46 124.48 17.51 93.47 2.25 80.2-13.88-49.31-31.08-42.27-36.16 54.82-51.09 96.49-39.51 86.96-20.86 106.56Zm252.4-163.77a22.34 22.34 0 1 1 13.59 28.52 22.33 22.33 0 0 1-13.59-28.52Zm33.78-143c8.43-23.79 29.57-38 47.21-31.76s25.11 30.61 16.68 54.4-29.56 38-47.2 31.76-25.12-30.63-16.73-54.43Zm-109.81 21.47c17.84 1 31.06 23.63 29.54 50.53s-17.23 47.89-35.06 46.88-31.07-23.64-29.54-50.54 17.22-47.92 35.06-46.9Z" style="fill:#cedbee"></path>
    <path d="M2140.26 2531.27a4.79 4.79 0 0 0 1.57.26c1.61 0 39.94-.41 90.07-12.32 46.39-11 111.69-34.45 159.36-83.42 90.55-93 146.22-285 146.77-286.93a4.62 4.62 0 1 0-8.89-2.54c-.54 1.9-55.58 191.69-144.5 283-88.42 90.82-241.34 92.92-242.87 92.94a4.62 4.62 0 0 0-1.51 9Z" style="fill:#aec6d3"></path>
    <path d="M857.29 2543.21c-.07.21-.14.43-.23.64a4.66 4.66 0 0 1-4.59 2.73 4.61 4.61 0 0 1-1.55-.4c-.34-.15-2.53-1.13-6.21-3Z" style="fill:#8ba9cc"></path>
    <path d="M262 2544.9a27 27 0 0 0 27 27h52.2v29.18a27 27 0 0 0 27 27h2098.69a27 27 0 0 0 27-27v-29.18h124.74a27 27 0 0 0 27-27ZM1264.16 2644.14c-84.23 0-152.51 8.24-152.51 18.41s68.28 18.4 152.51 18.4 152.5-8.24 152.5-18.4-68.28-18.41-152.5-18.41ZM1524.79 2644.14c-43.11 0-78.06 8.24-78.06 18.41s35 18.4 78.06 18.4 78.06-8.24 78.06-18.4-34.95-18.41-78.06-18.41Z" style="fill:#dfe9f4"></path>
    <rect width="2396.78" height="26.35" x="248.81" y="2518.56" rx="8.59" style="fill:#92b1dd"></rect>
    <rect width="1377.55" height="26.35" x="413.91" y="2574.05" rx="8.59" style="fill:#92b1dd"></rect>
    <rect width="584.92" height="26.35" x="1908.95" y="2574.05" rx="8.59" style="fill:#92b1dd"></rect>
    <path d="M1873.86 427v1984.44a108 108 0 0 1-108 107.94H799.25a107.94 107.94 0 0 1-107.94-107.94V427a108 108 0 0 1 107.94-107.95h966.65A108 108 0 0 1 1873.86 427Z" style="fill:#cedbee"></path>
    <path d="M1827.69 504.61v1795.8c0 53.94-44.56 97.68-99.52 97.68H837a100.46 100.46 0 0 1-45-10.56 99 99 0 0 1-22.66-15.53 96.48 96.48 0 0 1-31.86-71.6V504.61c0-53.94 44.57-97.68 99.51-97.68h891.18c54.96 0 99.52 43.74 99.52 97.68Z" style="fill:#f5f5f7"></path>
    <rect width="407.28" height="26.19" x="1078.95" y="352.57" rx="7.75" style="fill:#fff"></rect>
    <path d="M1827.69 1526.53v-25.35h-360.77l-2.76 1.44c-226.67 118-528.72 273.58-726.68 372.72v28.34q47.1-23.55 105-52.87l265.24 299.82L769.34 2372a99 99 0 0 0 22.66 15.53l332.77-217.7 126.83 143.36.54-.31 85.21 85.21h35.84l-98-98 552.58-308.19v-29L1257 2281.11l-110.84-125.31 290.73-190.2 390.8-245.35v-30l-397.28 249.42-321.58-224.9c180.63-92.83 341.46-176.43 364.29-188.29Zm-420.26 428.05-278.25 182L865.88 1839q66.57-33.77 145.88-74.36c23.93-12.24 47.88-24.52 71.57-36.69Z" style="fill:#fff"></path>
    <path d="m925.53 1841.27 151.43-78a18.22 18.22 0 0 1 19.26 1.61l203.07 151.93a18.23 18.23 0 0 1-.81 29.76l-173.81 115.9a18.22 18.22 0 0 1-23.31-2.59L920.68 1870a18.21 18.21 0 0 1 4.85-28.73ZM1203.33 1700.66l268.29-148.76a18.31 18.31 0 0 1 9.88-2.26l169.46 9.71c15.87.91 23 20.28 11.62 31.31l-264.74 255.52a18.23 18.23 0 0 1-22.84 2l-173-116.47a18.21 18.21 0 0 1 1.33-31.05ZM765.26 1926.26l52-30.93a18.23 18.23 0 0 1 23.38 4.06l114.22 138.47a18.23 18.23 0 0 1-4.58 27.16l-144.69 88.17a18.22 18.22 0 0 1-27.6-13.57l-21.5-195.7a18.25 18.25 0 0 1 8.77-17.66ZM1224.56 2140.92l187.86-127.51a18.21 18.21 0 0 1 23.75 2.86l50.73 56.09a18.23 18.23 0 0 1-3.36 27.36l-191.81 128.75a18.23 18.23 0 0 1-24.28-3.62l-46.77-57.33a18.22 18.22 0 0 1 3.88-26.6ZM1516.85 1972.39l87.19-54.76a18.22 18.22 0 0 1 24.23 4.44l35.71 47.22a18.23 18.23 0 0 1-4.44 26.17l-77.54 51.59a18.22 18.22 0 0 1-22.8-2.09l-45.39-44.06a18.23 18.23 0 0 1 3.04-28.51Z" style="fill:#cedbee"></path>
    <path d="M1827.7 504.61v902H737.48v-902c0-53.95 44.56-97.68 99.5-97.68h891.18c54.96 0 99.54 43.73 99.54 97.68Z" style="fill:#fff"></path>
    <path d="M1830.7 1409.6H734.48v-905c0-55.52 46-100.68 102.5-100.68h891.18c56.54 0 102.54 45.16 102.54 100.68Zm-1090.22-6H1824.7v-899c0-52.21-43.31-94.68-96.54-94.68H837c-53.21 0-96.5 42.47-96.5 94.68Z" style="fill:#cedbee"></path>
    <g style="opacity:.12">
      <path d="M1827.7 1406.6v893.81a96.32 96.32 0 0 1-26.21 66 100.06 100.06 0 0 1-73.33 31.65H837a100 100 0 0 1-73.31-31.65 96.3 96.3 0 0 1-26.19-66v-76.16h885.39c55 0 99.53-43.74 99.53-97.68v-720Z" style="fill:#92b1dd"></path>
    </g>
    <path d="M1801.49 2366.44a100.06 100.06 0 0 1-73.33 31.65H837a100 100 0 0 1-73.31-31.65Z" style="fill:#b6cad6"></path>
    <rect width="1001.24" height="346.75" x="781.97" y="474.23" rx="41.85" style="fill:#f5f5f7"></rect>
    <path d="M1741.36 824H823.82A44.9 44.9 0 0 1 779 779.14V516.08a44.9 44.9 0 0 1 44.85-44.85h917.54a44.9 44.9 0 0 1 44.85 44.85v263.06a44.9 44.9 0 0 1-44.88 44.86ZM823.82 477.23A38.89 38.89 0 0 0 785 516.08v263.06A38.89 38.89 0 0 0 823.82 818h917.54a38.9 38.9 0 0 0 38.85-38.85V516.08a38.9 38.9 0 0 0-38.85-38.85Z" style="fill:#cedbee"></path>
    <rect width="1001.24" height="399.13" x="781.97" y="891.12" rx="41.85" style="fill:#f5f5f7"></rect>
    <path d="M1741.36 1293.25H823.82A44.9 44.9 0 0 1 779 1248.4V933a44.9 44.9 0 0 1 44.85-44.85h917.54a44.9 44.9 0 0 1 44.82 44.85v315.4a44.9 44.9 0 0 1-44.85 44.85ZM823.82 894.12A38.89 38.89 0 0 0 785 933v315.4a38.89 38.89 0 0 0 38.85 38.85h917.54a38.9 38.9 0 0 0 38.85-38.85V933a38.9 38.9 0 0 0-38.85-38.85Z" style="fill:#cedbee"></path>
    <path d="M799.25 2519.38h-31.79a108 108 0 0 1-107.94-107.94V427a108 108 0 0 1 107.94-107.95h31.79A108 108 0 0 0 691.31 427v1984.44a107.94 107.94 0 0 0 107.94 107.94Z" style="fill:#92b1dd"></path>
    <ellipse cx="1033.17" cy="1543.33" rx="144.13" ry="31.21" style="fill:#cedbee"></ellipse>
    <path d="M1030.35 1227.58A105.41 105.41 0 0 0 924.94 1333c0 43.21 58 146.35 88 196.68a20.25 20.25 0 0 0 34.83 0c30-50.33 88-153.47 88-196.68a105.41 105.41 0 0 0-105.42-105.42Zm0 148.74a47.66 47.66 0 1 1 47.66-47.66 47.65 47.65 0 0 1-47.66 47.66Z" style="fill:#6ec290"></path>
    <g style="opacity:.43">
      <path d="M1230.41 658.75v324.47a45.62 45.62 0 0 1-45.61 45.62H691.31v-415.7h493.49a45.61 45.61 0 0 1 45.61 45.61Z" style="fill:#92b1dd"></path>
    </g>
    <rect width="659.41" height="400.34" x="637.07" y="576.84" rx="26.99" style="fill:#fff"></rect>
    <path d="M1269.49 981.19H664.06a31 31 0 0 1-31-31V603.83a31 31 0 0 1 31-31h605.43a31 31 0 0 1 31 31V950.2a31 31 0 0 1-31 30.99ZM664.06 580.84a23 23 0 0 0-23 23V950.2a23 23 0 0 0 23 23h605.43a23 23 0 0 0 23-23V603.83a23 23 0 0 0-23-23Z" style="fill:#cddde8"></path>
    <g style="opacity:.43">
      <rect width="43.73" height="43.73" x="845.52" y="635.08" rx="8.06" style="fill:#92b1dd"></rect>
      <path d="M933.75 860.65a10.15 10.15 0 0 1-14.28 1.35l-51.55-42.45a30 30 0 0 1-11-23.28v-55.85a10.14 10.14 0 1 1 20.27 0v55.89a9.8 9.8 0 0 0 3.61 7.62l51.56 42.45a10.14 10.14 0 0 1 1.39 14.27Z" style="fill:#92b1dd"></path>
      <path d="M889.25 664.61a134.88 134.88 0 0 0-14.84-.8 136.88 136.88 0 1 0 14.84.8Zm-14.84 242.64a106.52 106.52 0 1 1 106.52-106.51 106.51 106.51 0 0 1-106.52 106.51Z" style="fill:#92b1dd"></path>
      <path d="M933.75 860.65a10.15 10.15 0 0 1-14.28 1.35l-51.55-42.45a30 30 0 0 1-11-23.28v-55.85a10.14 10.14 0 1 1 20.27 0v55.89a9.8 9.8 0 0 0 3.61 7.62l51.56 42.45a10.14 10.14 0 0 1 1.39 14.27Z" style="fill:#92b1dd"></path>
      <path d="M933.75 860.65a10.15 10.15 0 0 1-14.28 1.35l-51.55-42.45a30 30 0 0 1-11-23.28v-55.85a10.14 10.14 0 1 1 20.27 0v55.89a9.8 9.8 0 0 0 3.61 7.62l51.56 42.45a10.14 10.14 0 0 1 1.39 14.27Z" style="fill:#92b1dd"></path>
    </g>
    <circle cx="1151.56" cy="789.43" r="74.92" style="fill:#6cc58d"></circle>
    <path d="M1137.3 825.23a15.71 15.71 0 0 1-10.3-3.83l-24-20.65a8.45 8.45 0 1 1 11-12.8l23.14 19.95 48.92-51.63a8.45 8.45 0 1 1 12.26 11.62l-49.65 52.41a15.74 15.74 0 0 1-11.37 4.93Z" style="fill:#fff"></path>
    <g style="opacity:.43">
      <rect width="884.03" height="39.06" x="845.52" y="1090.68" rx="12.74" style="fill:#92b1dd"></rect>
    </g>
    <g style="opacity:.43">
      <rect width="884.03" height="39.06" x="845.52" y="1168.76" rx="12.74" style="fill:#92b1dd"></rect>
    </g>
    <g style="opacity:.43">
      <rect width="420.04" height="66.66" x="1350.99" y="539.8" rx="12.74" style="fill:#92b1dd"></rect>
    </g>
    <g style="opacity:.43">
      <rect width="420.04" height="66.66" x="1350.99" y="673.04" rx="12.74" style="fill:#92b1dd"></rect>
    </g>
    <g style="opacity:.12">
      <path d="M1827.7 504.61v902h-105.3V406.93h5.76c54.96 0 99.54 43.73 99.54 97.68Z" style="fill:#92b1dd"></path>
    </g>
    <path d="M1827.69 1595.63a4 4 0 0 1-4-4v-944a4 4 0 0 1 8 0v944a4 4 0 0 1-4 4ZM737.4 2182.56a4 4 0 0 1-4-4v-867.83a4 4 0 0 1 8 0v867.83a4 4 0 0 1-4 4ZM1827.7 2140.6a4 4 0 0 1-4-4v-375.35a4 4 0 0 1 8 0v375.35a4 4 0 0 1-4 4ZM1548.32 410.93H889a4 4 0 0 1 0-8h659.28a4 4 0 0 1 0 8ZM1873.86 971.49a4 4 0 0 1-4-4V512.6a4 4 0 0 1 8 0v454.89a4 4 0 0 1-4 4ZM1282.59 323.05H767.46a4 4 0 0 1 0-8h515.13a4 4 0 0 1 0 8ZM1464.89 2523.38H844.71a4 4 0 0 1 0-8h620.18a4 4 0 1 1 0 8Z" style="fill:#b6cad6"></path>
    <path d="M2156.57 806.36h-546.86a27.15 27.15 0 0 0-27.15 27.15V930a27.15 27.15 0 0 0 27.15 27.15h402.69l44.42 35.64a7.14 7.14 0 0 0 11.61-5.57v-30.05h88.14a27.14 27.14 0 0 0 27.15-27.17v-96.49a27.14 27.14 0 0 0-27.15-27.15Z" style="fill:#fff"></path>
    <path d="M2061.27 997.39a10.12 10.12 0 0 1-6.33-2.24l-43.6-35h-401.63a30.18 30.18 0 0 1-30.15-30.15v-96.49a30.18 30.18 0 0 1 30.15-30.15h546.86a30.18 30.18 0 0 1 30.15 30.15V930a30.18 30.18 0 0 1-30.15 30.15h-85.14v27.07a10.18 10.18 0 0 1-10.16 10.15Zm-451.56-188a24.18 24.18 0 0 0-24.15 24.15V930a24.18 24.18 0 0 0 24.15 24.15h403.74l45.25 36.3a4.14 4.14 0 0 0 6.73-3.23v-33.05h91.14a24.17 24.17 0 0 0 24.15-24.17v-96.49a24.17 24.17 0 0 0-24.15-24.15Z" style="fill:#cddde8"></path>
    <path d="M1708.93 885.37a2.49 2.49 0 0 0-.73 2.19l2.59 15.05a2.49 2.49 0 0 1-3.62 2.61l-13.5-7.09a2.41 2.41 0 0 0-2.3 0l-13.5 7.09a2.49 2.49 0 0 1-3.62-2.61l2.59-15.05a2.49 2.49 0 0 0-.73-2.19l-10.92-10.65a2.48 2.48 0 0 1 1.38-4.23l15.09-2.21a2.47 2.47 0 0 0 1.88-1.35l6.76-13.68a2.47 2.47 0 0 1 4.44 0l6.76 13.68a2.47 2.47 0 0 0 1.88 1.35l15.09 2.21a2.48 2.48 0 0 1 1.38 4.23ZM1798.9 885.37a2.46 2.46 0 0 0-.72 2.19l2.58 15.05a2.49 2.49 0 0 1-3.61 2.61l-13.51-7.09a2.39 2.39 0 0 0-2.29 0l-13.51 7.09a2.49 2.49 0 0 1-3.61-2.61l2.58-15.05a2.46 2.46 0 0 0-.72-2.19l-10.92-10.65a2.48 2.48 0 0 1 1.38-4.23l15.09-2.21a2.46 2.46 0 0 0 1.87-1.35l6.76-13.68a2.48 2.48 0 0 1 4.45 0l6.76 13.68a2.46 2.46 0 0 0 1.87 1.35l15.09 2.21a2.48 2.48 0 0 1 1.38 4.23ZM1888.88 885.37a2.46 2.46 0 0 0-.73 2.19l2.59 15.05a2.49 2.49 0 0 1-3.62 2.61l-13.5-7.09a2.41 2.41 0 0 0-2.3 0l-13.5 7.09a2.49 2.49 0 0 1-3.62-2.61l2.59-15.05a2.49 2.49 0 0 0-.73-2.19l-10.92-10.65a2.48 2.48 0 0 1 1.38-4.23l15.09-2.21a2.47 2.47 0 0 0 1.88-1.35l6.76-13.68a2.47 2.47 0 0 1 4.44 0l6.76 13.68a2.46 2.46 0 0 0 1.88 1.35l15.09 2.21a2.48 2.48 0 0 1 1.37 4.23ZM1978.85 885.37a2.46 2.46 0 0 0-.72 2.19l2.58 15.05a2.49 2.49 0 0 1-3.61 2.61l-13.51-7.09a2.39 2.39 0 0 0-2.29 0l-13.51 7.09a2.49 2.49 0 0 1-3.61-2.61l2.58-15.05a2.46 2.46 0 0 0-.72-2.19l-10.92-10.65a2.48 2.48 0 0 1 1.38-4.23l15.09-2.21a2.46 2.46 0 0 0 1.87-1.35l6.76-13.68a2.48 2.48 0 0 1 4.45 0l6.76 13.68a2.46 2.46 0 0 0 1.87 1.35l15.09 2.21a2.48 2.48 0 0 1 1.38 4.23ZM2068.83 885.37a2.46 2.46 0 0 0-.73 2.19l2.59 15.05a2.49 2.49 0 0 1-3.62 2.61l-13.5-7.09a2.41 2.41 0 0 0-2.3 0l-13.5 7.09a2.49 2.49 0 0 1-3.62-2.61l2.59-15.05a2.49 2.49 0 0 0-.73-2.19l-10.92-10.65a2.48 2.48 0 0 1 1.38-4.23l15.09-2.21a2.47 2.47 0 0 0 1.88-1.35l6.76-13.68a2.47 2.47 0 0 1 4.44 0l6.76 13.68a2.46 2.46 0 0 0 1.88 1.35l15.09 2.21a2.48 2.48 0 0 1 1.37 4.23Z" style="fill:#fccd89"></path>
    <rect width="283.3" height="199.85" x="517.87" y="1379.48" rx="26.99" style="fill:#fff"></rect>
    <path d="M774.19 1582.33H544.86a30 30 0 0 1-30-30v-145.86a30 30 0 0 1 30-30h229.33a30 30 0 0 1 30 30v145.87a30 30 0 0 1-30 29.99Zm-229.33-199.85a24 24 0 0 0-24 24v145.87a24 24 0 0 0 24 24h229.33a24 24 0 0 0 24-24v-145.88a24 24 0 0 0-24-24Z" style="fill:#cddde8"></path>
    <rect width="283.3" height="199.85" x="1612.77" y="403.8" rx="26.99" style="fill:#fff"></rect>
    <path d="M1869.08 606.65h-229.32a30 30 0 0 1-30-30V430.79a30 30 0 0 1 30-30h229.32a30 30 0 0 1 30 30v145.87a30 30 0 0 1-30 29.99ZM1639.76 406.8a24 24 0 0 0-24 24v145.86a24 24 0 0 0 24 24h229.32a24 24 0 0 0 24-24V430.79a24 24 0 0 0-24-24Z" style="fill:#cddde8"></path>
    <rect width="283.3" height="199.85" x="891.51" y="1724.55" rx="26.99" style="fill:#fff"></rect>
    <path d="M1147.83 1927.4H918.5a30 30 0 0 1-30-30v-145.86a30 30 0 0 1 30-30h229.33a30 30 0 0 1 30 30v145.87a30 30 0 0 1-30 29.99ZM918.5 1727.55a24 24 0 0 0-24 24v145.87a24 24 0 0 0 24 24h229.33a24 24 0 0 0 24-24v-145.88a24 24 0 0 0-24-24Z" style="fill:#cddde8"></path>
    <path d="M994.75 1829s-17.7-57.44-16.62-64.14 7.55-7.88 10.84-7.34 18.79 53.61 18.79 53.61-2.53-70.37 0-71.72 9.75-5.51 10.11-2.8 8.78 76.11 8.78 76.11l16.51-.32s10.48-75.63 14.1-75.79 11.56 1.44 11.56 1.44l-7.59 72.44s15.53-49 17.34-48.92 10.12 4.23 10.12 5.67-13.37 69.1-13.37 69.1-75.32 10.3-80.57-7.34Z" style="fill:#aec6d3"></path>
    <path d="M1001.26 1814.3s-10.84-61-9.4-63.82 6.51-6.65 9.4-4.45 15.17 68.27 15.17 68.27-2.89-60.63 0-61.91 8.58-1.59 10.07.64 6.66 63.18 6.66 63.18.61-74.35 3.14-75.31 11.56-2.87 13 0 0 71.17 0 71.17 7.58-62.55 12.28-63.51 11.2 2.24 11.56 3.51-6.86 66.38-6.86 66.38-64.66 13.4-65.02-4.15Z" style="fill:#cedbee"></path>
    <path d="m1088.6 1812-13.52 63.66c-.52 2.43-3.22 4.21-6.4 4.21h-71c-3.17 0-5.87-1.78-6.39-4.21l-2.64-12.39-10.92-51.27c-.65-3.07 2.4-5.86 6.39-5.86h98.08c4 .03 7.05 2.86 6.4 5.86Z" style="fill:#cedbee"></path>
    <path d="m1088.6 1812-13.52 63.66c-.52 2.43-3.22 4.21-6.4 4.21h-71c-3.17 0-5.87-1.78-6.39-4.21l-2.64-12.39h32.53a22.15 22.15 0 0 0 21.11-15.44l13.28-41.69h26.67c3.96.03 7.01 2.86 6.36 5.86Z" style="fill:#aec6d3"></path>
    <path d="M730.16 1513v3.13a16.67 16.67 0 0 1-16.66 16.66h-116a16.68 16.68 0 0 1-16.5-14.61 17.24 17.24 0 0 1-.12-2V1513a16.66 16.66 0 0 1 16.66-16.66h116a16.66 16.66 0 0 1 16.62 16.66Z" style="fill:#cedbee"></path>
    <path d="M730.16 1513v3.13a16.65 16.65 0 0 1-9.4 15c-1.92-3.65-5.13-8.25-9.75-9.91-8.1-2.93-14.72-2.41-25 2.16s-18.22.4-28.16-2.18-9 .55-18.78 2-17.85-5.48-28.16-1.61-8.83 0-18.59-3.56a15.3 15.3 0 0 0-11.29.18 17.24 17.24 0 0 1-.12-2V1513a16.66 16.66 0 0 1 16.66-16.66h116a16.66 16.66 0 0 1 16.59 16.66Z" style="fill:#aec6d3"></path>
    <path d="M728.87 1514.93c-4.61-1.47-7-1.47-13.62 1.48s-9.58-6.08-21.36-1.48-19.51 3.5-26.13.19-6.08-.74-12.34-.19-9.38-4.78-16-1.47-9.57 6.26-18.77 2.21-12.89 2.58-20.07-.8-4.41-4.72-14-1.78-14.35 2.21-12.63-2c.95-2.35 3.63-4.68 5.82-6.3a35.83 35.83 0 0 1 3.23-2.14l136.85-3s7.76 2 13 5.18c2.21 1.34 4 2.89 4.54 4.57 1.91 5.72-3.92 7.01-8.52 5.53Z" style="fill:#cedbee"></path>
    <path d="M732.86 1504.84c-7.61 1.44-22.88 3.19-53.32 4-44.18 1.16-84.12-2.08-99.77-4.06a35.83 35.83 0 0 1 3.23-2.14l136.85-3s7.76 2.03 13.01 5.2Z" style="fill:#aec6d3"></path>
    <path d="M735 1491.57v.27a11.67 11.67 0 0 1-11.68 11.68H587.49a11.67 11.67 0 0 1-11.68-11.68v-.27a11.67 11.67 0 0 1 11.68-11.67h135.87a11.69 11.69 0 0 1 11.64 11.67Z" style="fill:#92b1dd"></path>
    <path d="M737.4 1478.8s-28.68 9.22-50.87 15.75c-12.35 3.62-22.69 6.42-25 6.33-5-.19-56.79-13.86-78.31-19.59l-9.3-2.49 14.23-1.23c4.69-1.72 149.25 1.23 149.25 1.23ZM733.23 1467.77a8 8 0 0 1-7.31 4.65h-141a8 8 0 0 1-7.31-4.65c-1.21-2.67-2.12-6.78-1.71-13 1-15 16.44-48.59 79.51-48.59s78.54 33.62 79.52 48.59c.42 6.23-.49 10.33-1.7 13Z" style="fill:#cedbee"></path>
    <ellipse cx="623.28" cy="1418.55" rx="6.63" ry="2.33" style="fill:#fff"></ellipse>
    <ellipse cx="663" cy="1414.99" rx="6.63" ry="2.33" style="fill:#fff"></ellipse>
    <ellipse cx="614.2" cy="1433.72" rx="6.63" ry="2.33" style="fill:#fff"></ellipse>
    <ellipse cx="643.58" cy="1425.85" rx="6.63" ry="2.33" style="fill:#fff"></ellipse>
    <ellipse cx="684.64" cy="1428.18" rx="6.63" ry="2.33" style="fill:#fff"></ellipse>
    <rect width="134.74" height="6.38" x="588.18" y="1472.42" rx="1.66" style="fill:#92b1dd"></rect>
    <path d="m1747.07 486.94-39.67-61.85a1.23 1.23 0 0 0-1.67-.46l-2.21 1.25a1.62 1.62 0 0 0-.45 2.28l41.88 60.6a1.31 1.31 0 0 0 2.38-.93 1.63 1.63 0 0 0-.26-.89ZM1749.1 490.66l1-56.58a1.43 1.43 0 0 1 1.33-1.48h5a1.45 1.45 0 0 1 1.32 1.67l-5.43 56.59a1.4 1.4 0 0 1-1.32 1.34h-.56a1.42 1.42 0 0 1-1.34-1.54Z" style="fill:#92b1dd"></path>
    <path d="M1792.33 486.2a33.7 33.7 0 0 1-14.2.39.9.9 0 0 0-1-.57l-1.06.12c-1-.26-2-.57-3-.92a1.52 1.52 0 0 0-.89-2.27c-1.56-.21-3.36-.48-5.28-.7-5.43-3.3-10-7.8-16.34-8.87a33.33 33.33 0 0 0-9.75-.24c-2.47-2.81-5.14-5.32-8.53-6.66-6.75-2.66-16.75-.46-22.21 4.7-4.48 4.24-6.43 10.65-7.66 17a52.86 52.86 0 0 0-8.48 4.38c-1.31.84-.13 3.13 1.18 2.29a49.28 49.28 0 0 1 6.75-3.6c-.12.74-.24 1.49-.35 2.22-.27 1.67 2 2.38 2.25.7.2-1.3.42-2.64.66-4a71.06 71.06 0 0 1 19.16-4.23c-1.08 1.85-2.07 3.75-3 5.62-.74 1.44 1.16 2.74 2 1.44-.46 4.45 2.4 6.84 4.72 11.28.77 1.47 2.79.14 2-1.34-2.13-4.06-5.78-7-3.7-12.27a10.49 10.49 0 0 1 4.09-5.12c3.86-.15 7.71-.12 11.5 0l1.65.06c-6.34 2.26-11.2 8.09-12.94 15.66-.38 1.66 1.87 2.36 2.25.71.08-.35.18-.68.27-1a1 1 0 0 0 1.69.12 10.92 10.92 0 0 1 4-3.12 20.67 20.67 0 0 0 .12 2.35c.19 1.67 2.53 1.69 2.34 0a18.49 18.49 0 0 1-.08-3.24c.68 0 1.35-.09 2-.16a11.36 11.36 0 0 0 .37 7.8c.59 1.56 2.61.21 2-1.34a8 8 0 0 1 .19-6.74c0 7.94 3.71 16.67 11.69 15.89 5.68-.56 10.9-8.44 9.65-14.9.83.17 1.71.35 2.61.5.48.51 1 1 1.42 1.54a1.08 1.08 0 0 0 1.84-.35 100.85 100.85 0 0 0 12.61 6c1.42.56 2-2 .62-2.56-2.36-.92-4.65-2-6.9-3.08a18.93 18.93 0 0 0 2.65.23c1.5 0 1.5-2.64 0-2.66a15.54 15.54 0 0 1-1.94-.14 4.58 4.58 0 0 0 .59-.48q2.58.51 5.15 1.08c1.47.34 2.1-2.22.62-2.55s-2.85-.63-4.28-.92a1.45 1.45 0 0 0-.05-.75c4.1 1.28 8.07 1.41 9.85-3.5a1.21 1.21 0 0 0 0-.88c.58-.11 1.15-.23 1.72-.36 1.52-.36.9-2.92-.57-2.56Zm-23.16.69a45.14 45.14 0 0 0-6.14-.42c-.58-.55-1.17-1.07-1.78-1.56 1.91 0 3.82 0 5.72.16 1.07.63 2.16 1.2 3.28 1.73Zm-40.67-3.83a17.91 17.91 0 0 1 8.25-6.27 23.71 23.71 0 0 1 3.21-.85c2 2.39 4 4.94 6.17 7.16l-.33.19-.59-.06a20.84 20.84 0 0 0-12.13-1.73 12.76 12.76 0 0 0-4.24 1.55Zm30.86 3.58-.62.08-1-.2a23.08 23.08 0 0 0-3.3-1.16 16.14 16.14 0 0 1 2.17-.29 15.57 15.57 0 0 1 2.75 1.57Zm-3.69 4.32c-.29-.32-.59-.63-.89-.94h.21q1.18-.27 2.4-.45c.84.5 1.66 1 2.47 1.6a11.21 11.21 0 0 0-2.46-.05Zm-3.38-3.25.47.2-.17.06-.34-.28Zm-2.31 1.36a16.26 16.26 0 0 0-1.53.86 9.11 9.11 0 0 1 .78-1.41Zm-5.61 4.44a29.57 29.57 0 0 0-3.5.66c.07-.29.15-.58.23-.87a30.18 30.18 0 0 1 3.43 0Zm3-6.17a11.88 11.88 0 0 0-1.47 3.3c-1.26 0-2.51 0-3.75.1a13.14 13.14 0 0 1 1.78-2.7 15.67 15.67 0 0 1 3.4-.7Zm-7.87 3.63c-.34 0-.67.09-1 .16a15.71 15.71 0 0 1 1.39-1.08c-.18.3-.31.61-.43.95Zm-.87 2.72c-.07.26-.12.53-.17.79h-1.72a7.06 7.06 0 0 1 1.85-.79Zm20.73-13.69 2.69 1.87a31.76 31.76 0 0 0-5.45.27 11.66 11.66 0 0 0-3.8-.72 12.87 12.87 0 0 0-4.19.58l-.39-.35a76 76 0 0 1-5.37-6.12 25.47 25.47 0 0 1 16.51 4.47Zm-54.36 7.2c1.32-6.12 3.5-12.07 8.38-15.45a24.05 24.05 0 0 1 14.3-3.64c4.09.31 7.34 2.54 10.25 5.56a19.32 19.32 0 0 0-5.73 2.39 24.43 24.43 0 0 0-6.91 7.18 78 78 0 0 0-20.29 3.98Zm28.37 10.94c.18-.41.36-.82.57-1.21l.74.06a13 13 0 0 0-1.31 1.17Zm30.71 2.29c-.28 4.1-2.95 8.36-6.59 9.3-6.68 1.72-10.41-6.29-10.31-13.54l1.77-.37a48.57 48.57 0 0 1 7.63.12c.19.28.39.55.58.84a1.23 1.23 0 0 0 2.24-.51c1 .15 2.1.32 3.15.52l1.14.23a8 8 0 0 1 .39 3.43Zm10.39-4.77h-.09.22Zm4.84-2.45a3.29 3.29 0 0 1-.29.56c-3.31-.63-6.62-1.16-10-1.59-.93-.76-1.83-1.58-2.72-2.44.93-.05 1.86-.12 2.78-.2 1.12.17 2.22.37 3.31.63a72.6 72.6 0 0 1 7.1 2.67 1.46 1.46 0 0 0-.18.39Zm-.35-3.76-.2-.07a35.24 35.24 0 0 0 10.1.12c-1.8 4.38-7.17 1.05-9.86-.03Z" style="fill:#cedbee"></path>
    <path d="m1750.11 568.18 2.08-69.56H1687l11.64 65a5.28 5.28 0 0 0 5 4.61Z" style="fill:#dfe9f4"></path>
    <path d="m1752.19 498.62-18.55-24.51a1.19 1.19 0 0 0-1-.49l-63.52 5.29a1.46 1.46 0 0 0-.69 2.5l18.57 17.21ZM1752.19 498.62h49.6l-12.37 65a5.35 5.35 0 0 1-5 4.61h-34.28ZM1752.19 498.62l10.34-22.08a1.75 1.75 0 0 1 1.76-1.07l50.31 5.33c1.56.17 2.2 2.36 1.05 3.55l-13.86 14.27Z" style="fill:#cedbee"></path>
    <path d="M1730.42 557.72H1709a6.08 6.08 0 0 1-5.72-5.37l-5.5-32.77a7.29 7.29 0 0 1 1.24-5.45 5.55 5.55 0 0 1 4.48-2.39h25.52c3.11 0 5.67 2.76 5.82 6.29l1.37 32.77a7 7 0 0 1-1.6 4.87 5.48 5.48 0 0 1-4.19 2.05Zm-26.89-43.33a3.3 3.3 0 0 0-2.68 1.44 4.29 4.29 0 0 0-.74 3.26l5.5 32.76a3.64 3.64 0 0 0 3.42 3.22h21.39a3.29 3.29 0 0 0 2.53-1.23 4.29 4.29 0 0 0 1-2.92l-1.38-32.76a3.72 3.72 0 0 0-3.48-3.77Z" style="fill:#fff"></path>
    <path d="M1705.28 1270.27a3.21 3.21 0 0 1-3.07-2.29 404.86 404.86 0 0 1-12.41-63.08c-5.24-46.55 0-81.27 15.54-103.21 11.64-16.41 29-25.25 51.5-26.28 22.28-1 41.2 6.26 56.23 21.64 20.38 20.85 33.4 55.89 38.72 104.15a417.93 417.93 0 0 1 1.91 66.08 3.2 3.2 0 1 1-6.39-.44c.08-1.17 7.51-117.91-38.83-165.32-13.69-14-31-20.64-51.35-19.71s-36.12 8.87-46.56 23.59c-35 49.41-2.55 159.63-2.22 160.74a3.22 3.22 0 0 1-3.07 4.13Z" style="fill:#e99c82"></path>
    <path d="M1954.78 1521.3a33.51 33.51 0 0 1-32.38 24.84h-258.8a33.48 33.48 0 0 1-33.16-38.17l35.81-252.86a33.48 33.48 0 0 1 33.15-28.79h187.21a33.49 33.49 0 0 1 33.15 28.79l35.81 252.89a33.51 33.51 0 0 1-.79 13.3Z" style="fill:#fccd89"></path>
    <path d="M1754.89 1372.8s6.41 91.56 10.68 94.31 16.18 3.66 17.09 0-15.56-94.31-15.56-94.31 15-5 17.32-8.46-3.89-46.7-5.49-47.61-3.67 0-3.67 2.52 1.61 34.79-.45 37.53-10.76 3.66-11.91 3-2.06-43.5-4.57-43.38-4.58 1.26-4.58 4.7 1.14 36.62-1.15 39.14-10.52.68-11.9-1.38-3.2-40.28-4.8-40.51-3.67 2.75-4.12 5.49-1.15 41.2 3.2 44.86 19.91 4.1 19.91 4.1ZM1833.22 1388.75s-15.44 79.15-12 80.81 10 1.39 12 .19 13.2-91.81 13.2-91.81 19.15-2.82 24.32-20.58-5.17-42.64-21.74-41.46-24.32 13-26.13 26.65 12.42 31.69 12.42 31.69Z" style="fill:#fff"></path>
    <circle cx="1718.1" cy="1267.06" r="11.44" style="fill:#e99c82"></circle>
    <circle cx="1863.32" cy="1267.06" r="11.44" style="fill:#e99c82"></circle>
    <path d="M1954.78 1521.3a33.5 33.5 0 0 1-32.37 24.85H1663.6a33.5 33.5 0 0 1-33.16-38.18l35.8-252.86a33.5 33.5 0 0 1 33.16-28.79h7.14c-12.2 80-39.51 261.67-35.31 258-.37 1-13 36.93 82.81 36.93ZM1947.72 1454.6a2 2 0 0 1-2-1.72l-26.45-186.71a2 2 0 1 1 4-.56l26.45 186.71a2 2 0 0 1-1.7 2.26 1.42 1.42 0 0 1-.3.02ZM1874.77 1230.48H1718.1a2 2 0 0 1 0-4h156.67a2 2 0 0 1 0 4Z" style="fill:#e99c82"></path>
    <path d="M1718.1 1270.27a3.21 3.21 0 0 1-3.1-2.27 404.86 404.86 0 0 1-12.41-63.08c-5.24-46.55 0-81.27 15.54-103.21 11.64-16.41 29-25.25 51.5-26.28 22.28-1 41.2 6.26 56.23 21.64 20.38 20.85 33.4 55.89 38.72 104.15a417.93 417.93 0 0 1 1.91 66.08 3.2 3.2 0 1 1-6.39-.44c.08-1.17 7.51-117.91-38.83-165.32-13.69-14-31-20.64-51.35-19.71s-36.12 8.87-46.56 23.59c-35 49.41-2.55 159.63-2.22 160.74a3.22 3.22 0 0 1-3.07 4.13Z" style="fill:#fccd89"></path>
    <path d="M2276.67 2459.33c.91 10.14 4.59 19 8.79 26.49 1.74 3.11 3.55 6 5.31 8.56 5.93 8.82 14.65 41 14.29 45.58s-28.23 12.59-32.44 12.33-4.76-3-27.71 8.81-64.74 20.57-77.79 17.86-20.48-6.3-26.26-12.7 11.42-19.73 25-23.67c9.85-2.86 22.93-10.5 34.22-15.91a82.63 82.63 0 0 1 11.91-4.85c12.7-3.75 20.32-13.63 17.09-52-.37-4.35-1.06-10-2-16.63-7.27-51.71-29.42-161.85-29.42-161.85-.85-19.07 45.32-23.16 57.16-23.71s8.2 4.64 14.77 39.34c6.08 32.28 5.81 123.72 6.78 148 .13 1.88.21 3.33.3 4.35Z" style="fill:#ffb2a8"></path>
    <path d="M2269.64 2307c6.08 32.28 5.81 123.72 6.78 148-16 .21-32.65-.49-49.29-1.79-7.27-51.71-29.42-161.85-29.42-161.85-.85-19.07 45.32-23.16 57.16-23.71s8.2 4.65 14.77 39.35Z" style="fill:#f27c85"></path>
    <path d="M2305.06 2540c-.36 4.56-28.22 12.59-32.44 12.33s-4.76-3-27.71 8.81-64.75 20.56-77.79 17.86-20.48-6.29-26.26-12.7 11.41-19.73 25-23.67c9.86-2.85 22.93-10.49 34.22-15.9.71 4.54 4.36 7.58 13.08 7.35 31.88-.8 44.87-44.51 60-48a35.37 35.37 0 0 1 12.28-.25c1.74 3.1 3.55 6 5.31 8.55 5.96 8.81 14.68 41.01 14.31 45.62Z" style="fill:#343468"></path>
    <path d="M2054.27 2475c-1 10.12.71 19.64 3.18 27.87 1 3.43 2.17 6.63 3.3 9.56 3.82 10 5.88 43.39 4.7 47.78s-28.25 6-32.07 4.77-3.82-4-27.07 2.39-63.26 5.58-74.75 0-17.65-10.75-21.77-18.31 14.13-16.73 27.37-17.53c9.58-.57 23-5.11 34.36-7.86a72.09 72.09 0 0 1 11.84-2.08c12.35-.81 21.18-8.76 25.3-47 .47-4.33.88-10 1.25-16.71 2.87-52.18 2.87-164.84 2.87-164.84 2.75-18.83 45.91-12.47 56.89-10.35s6.67 6.38 6.29 41.78c-.37 32.92-17.52 122.27-21.11 146.23-.27 1.87-.47 3.3-.58 4.3Z" style="fill:#ffb2a8"></path>
    <path d="M2076 2324.52c-.37 32.92-17.52 122.27-21.11 146.23-14.7-3.37-29.91-7.81-44.94-12.82 2.87-52.18 2.87-164.84 2.87-164.84 2.75-18.83 45.91-12.47 56.89-10.35s6.63 6.38 6.29 41.78Z" style="fill:#f27c85"></path>
    <path d="M2065.46 2560.23c-1.18 4.38-28.25 6-32.08 4.78s-3.82-4-27.07 2.39-63.27 5.57-74.75 0-17.65-10.75-21.77-18.32 14.12-16.72 27.37-17.51c9.58-.58 23-5.11 34.37-7.87-.19 4.6 2.6 8.39 10.65 10.13 29.43 6.37 49.44-33.44 64-33.44a31.74 31.74 0 0 1 11.32 2.51c1 3.43 2.17 6.63 3.3 9.56 3.77 9.95 5.83 43.39 4.66 47.77ZM2129.52 1137.14s26.42-59 111-19.84 40.37 126.34 63.91 148.79 58.14-2.08 74 39.16-42.76 55.91-1.92 88.26 22.58 111.35-22.58 110-196.76-22.79-213.05-66.13-13.73-79.36-25.27-89.8-23.08-12.53-13.47-43.86 11-39.67-8.89-63.69-12.25-103.42 36.27-102.89Z" style="fill:#343468"></path>
    <path d="M2238.63 1277.06a81.39 81.39 0 0 0 0 17.23c1 9.92-17.78 31.32-17.78 31.32s2.42 18.85 8.76 22.61 15.61 5.54 15.61 5.54-9.37 9.57-22 20.1l1 19.65h-28.42c-10.07 5.73-19.74 9-26.79 6.88-23.5-7.25-20.79-17.81-16.24-29.5s16.24-22.67 16.24-22.67l3.3-25.73s-24-4.71-45.64-33.42-4.81-100.77-4.81-100.77c5.29 14.62 29.8 24 58.15 35.51s39.89 23.49 42.77 26.62 4.32 3.14 4.32 3.14 3.36-15.14 13-23.5 18.27-4.18 15.86 16.19a46.37 46.37 0 0 1-17.33 30.8Z" style="fill:#ffb2a8"></path>
    <path d="m2172.27 1322.48 26.44 3.66-29.74 22.08 3.3-25.74z" style="fill:#f27c85"></path>
    <path d="M2108.36 1247.92c0 12.76 8.7 23.14 19.38 23.14s19.38-10.38 19.38-23.14a27.71 27.71 0 0 0-.31-4c7.39-3.63 11.86 0 12.93 1.06a28.66 28.66 0 0 0-.18 3c0 12.76 8.59 23.14 19.14 23.14s19.14-10.38 19.14-23.14a27.21 27.21 0 0 0-1.36-8.52 71 71 0 0 1 16.89.3c10.09 1.37 12.94 8.6 13.05 8.91l3.15-1.37c-.14-.38-3.61-9.54-15.78-11.2a71.72 71.72 0 0 0-18.79-.17c-3.37-6.63-9.4-11.08-16.3-11.08-8.54 0-15.78 6.8-18.24 16.15-3-2.06-8.05-3.58-14.46-.68-2.65-9-9.83-15.47-18.26-15.47-10.68-.06-19.38 10.32-19.38 23.07Zm54.6 0c0-10.72 7.06-19.45 15.74-19.45s15.74 8.73 15.74 19.45-7.06 19.45-15.74 19.45-15.7-8.72-15.7-19.45Zm-51.2 0c0-10.72 7.17-19.45 16-19.45s16 8.73 16 19.45-7.17 19.45-16 19.45-16-8.72-16-19.45Z" style="fill:#fff"></path>
    <ellipse cx="2177.12" cy="1250.16" rx="3.61" ry="5.22" style="fill:#343468"></ellipse>
    <ellipse cx="2130.44" cy="1250.16" rx="3.61" ry="5.22" style="fill:#343468"></ellipse>
    <path d="M2154.71 1262.64a75 75 0 0 0-2.54 9.23c-.24 1.16-1.05 3.4-.39 4.52.53.9 3.78 1.77 4.71 2.22 2 .94.28 4.12-1.71 3.18-2.76-1.3-6.84-2-6.7-6 .16-4.68 1.87-9.78 3.36-14.14.75-2.2 4-1.25 3.27 1Z" style="fill:#f27c85"></path>
    <path d="M2178.67 1287.9s-1.36 9.85-8.12 12.78-14.28-2.35-15.57-4.36-2.75-3.45-1.9-3.62 9.73 0 15.48-2.77 10.2-6.62 10.11-2.03Z" style="fill:#d63646"></path>
    <path d="M2376 2425.93c-1.37 27.91-17.91 4.49-46.84 21.75a34.81 34.81 0 0 1-14.54 5c-22.16 2.22-40.83-19.31-61.68-19.31a37.89 37.89 0 0 0-6.21.51 71.65 71.65 0 0 0-13.34 3.7c-15.62 5.61-32.28 14.21-56.27 7.85-.22 0-.45-.12-.69-.18a81.32 81.32 0 0 1-7.91-2.63c-1.47-.58-3-1.2-4.49-1.89a65.09 65.09 0 0 0-19.63-5.49c-23.68-2.59-43.1 9.32-67.75 9.85a76.36 76.36 0 0 1-27.18-4.36q-5.57-1.92-10.83-3.47a271.25 271.25 0 0 0-27-6.48c-27-5.12-47.25-5.56-62.75-14.38-7-4-7.47-20.84-4.13-48.82.3-2.64.66-5.38 1-8.21 5.06-37.73 15.68-92.77 26.47-161.69.54-3.39 1.06-6.82 1.58-10.28 6.33-41.18 12.61-87.06 17.76-137 7.07-68.49 15.56-127.29 23.83-175.57.62-3.64 1.23-7.2 1.86-10.72 16.8-95.37 32.18-146.58 32.18-146.58l133-2.43 10.05-.18 79.67-1.45s.6 3.87 1.7 11c3.5 22.88 12.14 79.27 23 150.73.44 3 .9 5.91 1.34 8.9 1 6.63 2 13.39 3.07 20.26 1.11 7.42 2.25 15 3.41 22.63.43 2.79.86 5.6 1.28 8.41 11.31 74.9 23.95 159.07 35.33 236.31.56 3.8 1.12 7.56 1.67 11.32 4.93 33.52 9.6 65.55 13.79 94.74.47 3.24.94 6.44 1.39 9.61 2.87 20.12 5.48 38.75 7.8 55.39.41 3 .83 6 1.22 8.94 5.73 41.55 9.1 69.06 8.84 74.22Z" style="fill:#2c4fa0"></path>
    <g style="opacity:.6">
      <path d="M2086.68 2059.26c-3.8 88.92-8.21 298.67-10 385.83a76.36 76.36 0 0 1-27.18-4.36q-5.57-1.92-10.83-3.47c19.17-118.33 52.14-474.59 48.01-378ZM2168.27 1903.14c3.1 41.7 2.9 405.59 8.86 542.29-.22 0-.45-.12-.69-.18a81.32 81.32 0 0 1-7.91-2.63c-1.47-.58-3-1.2-4.49-1.89a65.09 65.09 0 0 0-19.63-5.49c6.25-149.72 20.67-575.15 23.86-532.1ZM2246.74 2433.88a71.65 71.65 0 0 0-13.34 3.7c2.91-92.36 8.64-256.25 11.73-220.72 3.11 35.97-1.07 154.22 1.61 217.02Z" style="fill:#273657"></path>
      <path d="M2272.21 1713.5s.6 3.87 1.7 11c-24.35 23.89-51.52 47.44-74.25 59.3-56.49 29.46-99.2 33.87-110.22 60.39-9.46 22.72-67.52 457.71-77.79 586.55-27-5.12-47.25-5.56-62.75-14.38-7-4-7.47-20.84-4.13-48.82.3-2.64.66-5.38 1-8.21 5.06-37.73 15.68-92.77 26.47-161.69.54-3.39 1.06-6.82 1.58-10.28 6.33-41.18 12.61-87.06 17.76-137 7.07-68.49 15.56-127.29 23.83-175.57.62-3.64 1.23-7.2 1.86-10.72 16.8-95.37 32.18-146.58 32.18-146.58l133-2.43 10.05-.18ZM2376 2425.93c-1.37 27.91-17.91 4.49-46.84 21.75a34.81 34.81 0 0 1-14.54 5l-13.32-548.24c1.11 7.42 2.25 15 3.41 22.63.43 2.79.86 5.6 1.28 8.41 11.31 74.9 23.95 159.07 35.33 236.31.56 3.8 1.12 7.56 1.67 11.32 4.93 33.52 9.6 65.55 13.79 94.74.47 3.24.94 6.44 1.39 9.61 2.87 20.12 5.48 38.75 7.8 55.39.41 3 .83 6 1.22 8.94 5.7 41.47 9.07 68.98 8.81 74.14Z" style="fill:#273657"></path>
    </g>
    <path d="m2141.7 1342-25.16 67.49s-37.73 3.55-68.31 5.49c-18.4 1.18-34.23 1.77-37.66.67-9.15-3-76.57-68.55-76.57-68.55l-8.18-55.79s9.27 5.77 29 19.91 63.42 40.36 70.28 40.72c5 .27 65.3-5.19 97.16-8.13 11.59-1.09 19.44-1.81 19.44-1.81Z" style="fill:#ffb2a8"></path>
    <path d="m2141.7 1342-25.16 67.49s-37.73 3.55-68.31 5.49l74-71.17c11.62-1.09 19.47-1.81 19.47-1.81Z" style="fill:#f27c85"></path>
    <path d="M2293.12 1434.3a30.65 30.65 0 0 1-.46 4.41c-2 9.8-32 126.41-25.16 178 5.29 39.74 16 76.84 18.54 96.83.78 5.93.81 10.36-.24 12.9-2.2 5.31-23.12 14.89-49.48 22.56-28.44 8.31-63.24 14.39-87.75 10.58-47.27-7.37-112.84-21.36-109-42 .48-2.52 1.47-6.6 2.84-11.9 5.7-21.81 17.9-64.32 26.33-103.19 6.36-29.37 10.57-56.64 8.19-71.39a577.66 577.66 0 0 1-6.88-66.89 132.12 132.12 0 0 1 0-14.69c.76-8.1 70.14-105.31 71.66-107.52s26.43-3.93 26.43-3.93-17.28 36.82 0 41.24 61-35.83 69.64-35.83 49.29 17.67 51.34 24c1.8 5.76 4.88 50.52 4 66.82Z" style="fill:#fccd89"></path>
    <g style="opacity:.63">
      <path d="M2272.67 1426.8c-8.71 40.77-95.9 186.92-120.29 195-14.73 4.89-54.48-8.21-83.67-19.36 6.36-29.37 10.57-56.64 8.19-71.39a577.66 577.66 0 0 1-6.88-66.89c21.55 4.16 48.67 7.43 61 1 22.11-11.59 66.39-69.61 66.39-69.61s83.97-9.5 75.26 31.25Z" style="fill:#f28c70"></path>
    </g>
    <g style="opacity:.63">
      <path d="M2285.8 1726.4c-2.2 5.31-23.12 14.89-49.48 22.56-28.44 8.31-63.24 14.39-87.75 10.58-47.27-7.37-112.84-21.36-109-42 .48-2.52 1.47-6.6 2.84-11.9 45.94 16.48 99.86 34.38 123.95 36.94 15.72 1.68 42.69-4.33 71.38-13 16.13-4.85 32.81-10.53 48.33-16.14.75 5.99.78 10.42-.27 12.96Z" style="fill:#e99c82"></path>
    </g>
    <g style="opacity:.63">
      <path d="M2292.66 1438.71c-2 9.8-32 126.41-25.16 178 5.29 39.74 16 76.84 18.54 96.83.78 5.93.81 10.36-.24 12.9-2.2 5.31-23.12 14.89-49.48 22.56.44-6.23.91-12.71 1.39-19.32 4.39-61.36 9.95-135.15 12.26-149.05 4.07-24.56 43.15-146.29 43.15-146.29a30.65 30.65 0 0 1-.46 4.37Z" style="fill:#f28c70"></path>
    </g>
    <path d="M2046.94 1690.67a2.14 2.14 0 0 1-.5-.06 2 2 0 0 1-1.44-2.43l21.77-86.2a2 2 0 0 1 3.88 1l-21.78 86.2a2 2 0 0 1-1.93 1.49ZM2158.7 1743.6c-32.31 0-113.64-34.62-117.11-36.1a2 2 0 0 1 1.57-3.68c.85.36 84 35.78 115.53 35.78h.67c31.15-.52 77.41-11.78 77.87-11.89a2 2 0 1 1 .95 3.88c-.47.12-47.16 11.48-78.75 12ZM2237.71 1690.67h-.31a2 2 0 0 1-1.67-2.29c.06-.37 5.81-37.45 9.85-86 4.06-48.94 44.79-163.13 45.2-164.28a2 2 0 1 1 3.76 1.35c-.41 1.14-41 114.84-45 163.26-4 48.75-9.82 86-9.88 86.34a2 2 0 0 1-1.95 1.62Z" style="fill:#e99c82"></path>
    <path d="M2281.38 1386.05c-.37-14.33-11.3-26.35-26-28.6-11-1.68-25.09-2.18-33.92 3.68-16.26 10.8-81.83 143.36-81.83 143.36s-32.53-9.33-50.32-10.8-74.2-6.39-95.55-10.8-31.8-17.16-37.9-22.59l-6.1-5.43 2.66 18.15s-21.94.78-29.18.78-34.69-11.78-34.69-9.94 1.14 7.37 3.43 9.94 9.91 5.16 9.91 5.16-16.39-3-16.77.37-.39 3.31 2.28 6.26 8.39 4.41 8.39 4.41-12.2-2.57-12.58.37-.76 5.16 2.67 8.1 23.25 8.61 23.25 8.61.38 8 2.29 8.33 31.64 12.52 36.21 12.15 34.69-11.78 38.89-10.68 110.42 42.1 136.85 50.45 28.46 6.87 34.05 5.89 35.07-16.69 74.21-72.66c29.04-41.47 50.5-85.1 49.75-114.51Z" style="fill:#ffb2a8"></path>
    <path d="M1938.4 1516a1.17 1.17 0 0 1-.32 0l-9.65-2a168.36 168.36 0 0 1-19.79-5.57 1.47 1.47 0 0 1-.9-1.9 1.55 1.55 0 0 1 2-.87 162.88 162.88 0 0 0 19.35 5.46l9.66 2a1.48 1.48 0 0 1 1.18 1.75 1.52 1.52 0 0 1-1.53 1.13ZM1920.1 1498.35a1.59 1.59 0 0 1-.43-.06l-24.27-6.87a1.46 1.46 0 0 1-1-1.83 1.53 1.53 0 0 1 1.89-1l24.27 6.87a1.46 1.46 0 0 1 1 1.83 1.52 1.52 0 0 1-1.46 1.06ZM1921.63 1486.08h-.16c-5.21-.5-19.46-5.51-20.06-5.73a1.45 1.45 0 0 1-.91-1.89 1.55 1.55 0 0 1 2-.88c.15.06 14.49 5.1 19.33 5.57a1.48 1.48 0 0 1 1.36 1.61 1.51 1.51 0 0 1-1.56 1.32Z" style="fill:#f27c85"></path>
    <path d="m1540.7 1358.23-4.12 25.46s-15.29 3.86-55.08 4.29-35.77-32.78-32.09-47.31 4.6-55.53 4.35-70c-.15-9.6.68-18.13-.91-24.12 0 0 16.55 31.78 39 40.41a51.84 51.84 0 0 0 22.83 3.14l2.44 29.29Z" style="fill:#ffb2a8"></path>
    <path d="M1514.66 1289.87s-20.72 1.61-32.64-8.32a48.51 48.51 0 0 1-15.23-22.21s10.08 32.58 23.91 45.34 26.21 12.19 26.21 12.19Z" style="fill:#f27c85"></path>
    <path d="M1570.22 1167.12s-74 76.23-89.42 76.21c-11.49 0-44.21-12.87-60-19.39-5.41-2.21-8.84-3.69-8.84-3.69s-1.59-2.92-3.85-7.9v-.11c-1.66-3.73-37.77-87.09 47.55-109.34 87.16-22.77 112.28-7.1 114.56 64.22Z" style="fill:#3d237c"></path>
    <path d="M1560.2 1262.32c-12.34 25.82-37 27.55-37 27.55v.2a101.79 101.79 0 0 1-32.29-3.14c-31.74-8.63-55.14-40.41-55.14-40.41a11.84 11.84 0 0 0-6.75-7c-10.53-4.62-26.69-23-15.41-46.74s34.12-3.14 34.12-3.14 5.58 27.26 13 29.39 8.85-47.07 8.85-47.07 16.87-6.07 40.78-6 59.85 1.22 59.85 1.22.29 6.73-.08 19.48 2.41 49.83-9.93 75.66Z" style="fill:#ffb2a8"></path>
    <ellipse cx="1505.18" cy="1212.34" rx="4.78" ry="3.2" style="fill:#3d325e" transform="rotate(-89.92 1505.202 1212.332)"></ellipse>
    <ellipse cx="1548.32" cy="1212.4" rx="4.78" ry="3.2" style="fill:#3d325e" transform="rotate(-89.92 1548.348 1212.397)"></ellipse>
    <path d="M1511.87 1194.38v-.45l.68 1.23c-4-2.68-11-1.21-15.09.32-1.69.63-2.41-2.14-.74-2.76a24.93 24.93 0 0 1 11.78-1.52c2.13.26 6 .37 6.19 3.18.15 1.84-2.65 1.83-2.79 0ZM1556.83 1194.44v-.45l.69 1.24c-4-2.69-11-1.21-15.1.31-1.69.63-2.41-2.14-.74-2.76a24.93 24.93 0 0 1 11.78-1.52c2.13.26 6 .38 6.19 3.19.15 1.83-2.65 1.82-2.79 0Z" style="fill:#3d325e"></path>
    <path d="M1534 1257.82s-4 7.63-10.25 8-10.53-6.07-11-8.08-1.13-3.61-.4-3.51 7.64 2.88 13 2.25 10.14-2.38 8.65 1.34Z" style="fill:#d63646"></path>
    <path d="M1527.09 1219.74c1.72 4 8.81 15.51.39 16.63-2.26.29-2.29 3.89 0 3.59 3.85-.51 7.1-3 7.75-7 .77-4.82-3.25-10.81-5-15-.9-2.13-4-.3-3.1 1.81Z" style="fill:#f27c85"></path>
    <path d="M1408.05 1212.34Z" style="fill:#5e45ad"></path>
    <path d="M1570.78 1168.8s-60-15.45-97.16-.51-53.27 24.57-64 26.45a13 13 0 0 1-15.56-11.15s-9.26-99.59 55.78-116.59a82.43 82.43 0 0 1 24.51-2.37c91.74 4 97.8 52.52 97.79 74.15 0 4.22 0 7.9-.13 11.16-.35 13.37-1.23 18.86-1.23 18.86Z" style="fill:#6cc58d"></path>
    <path d="M1570.78 1168.8s-60-15.45-97.16-.51-53.27 24.57-64 26.45a13 13 0 0 1-15.56-11.15s-9.26-99.59 55.78-116.59c-7.9 8.91-18.26 22.17-24 36-10.17 24.31-3 70.17-.6 68.39s63.94-52.29 146.79-21.4c-.37 13.32-1.25 18.81-1.25 18.81Z" style="fill:#3e9a83"></path>
    <path d="M1416.91 1192.67s49.16-42.19 79.63-45.93 74.92 4.86 80.45 9.35 23.45 22.57 20.57 27.49-43.93-20.44-76.43-17-53.61 31-76 31.74-28.22-5.65-28.22-5.65Z" style="fill:#abdda8"></path>
    <path d="m1620.17 1367.06 28.05 15.31-12.89 91.06-41.79-30.42 26.63-75.95z" style="fill:#f27c85"></path>
    <path d="M1633.18 1371.73c0 6.1-35.31 90-35.31 90l-8.71-26.07-39.08-117.11s18.3 2.9 25.92 8.24c5.38 3.76 31.7 21.62 46.69 33.92 5.4 4.44 9.32 8.15 10.26 10.22a1.87 1.87 0 0 1 .23.8Z" style="fill:#6cc58d"></path>
    <path d="M1633.18 1371.73c0 6.1-35.31 90-35.31 90l-8.71-26.07 6.28-5.95 27.25-69 10.26 10.22a1.87 1.87 0 0 1 .23.8Z" style="fill:#abdda8"></path>
    <path d="M1650.42 2090.07c.08 30.42-70.32 440.44-70.32 440.44l-16-2.46-28.49-4.36s-5.67-22.82-5.08-118.74 22.93-295.09 18.78-307.26 0 0-24.71-71.6-33.4-199.88-33.4-199.88-62.72 232.93-67.81 240-324.84 291.63-327.5 288.35c-1.56-2-11.3-15.71-19.4-27.28-5.54-7.92-10.3-14.8-11.13-16.15-2.05-3.34 83.63-149.57 123.91-190.86s129-109.32 129.28-121 24.05-301.7 24.05-301.7c8.26-20 25.07-30.75 46.47-35.19 81.08-16.84 228.27 56.46 228.27 56.46s33.01 340.81 33.08 371.23Z" style="fill:#2c4fa0"></path>
    <g style="opacity:.6">
      <path d="M1589.17 2092.33c-5.52 6-36.39 321.11-25 435.72l-28.49-4.36s-5.67-22.82-5.08-118.74 22.93-295.09 18.78-307.26 0 0-24.71-71.6-33.4-199.88-33.4-199.88l2.71-45.49s40.14 198.29 56.13 239.53 45.53 65.05 39.06 72.08Z" style="fill:#273657"></path>
    </g>
    <g style="opacity:.6">
      <path d="M1389.11 1662.37c0 .71-.12 1.42-.19 2.15-1.08 11.47-20 334.55-38.67 355.73-16.42 18.63-223 201.75-273.72 307.05-5.54-7.92-10.3-14.8-11.13-16.15-2.05-3.34 83.63-149.57 123.91-190.86s129-109.32 129.28-121 24.05-301.7 24.05-301.7c8.26-20.04 25.07-30.78 46.47-35.22Z" style="fill:#273657"></path>
    </g>
    <path d="M1533.94 2509.53s-11.07 60.39 0 62.53 151.55 11.61 150-3.8-105.1-58.73-105.1-58.73ZM1069.07 2308.49s-48.55 32.74-42.41 42.86 96 126.45 105.41 114.7-32.2-122.42-32.2-122.42Z" style="fill:#343468"></path>
    <path d="M1627.85 1716.73c-5.08 6.51-123.51 22.38-157.06 16.68s-34.57-2.44-37.1-8.54-7.62-48.46-11.69-38.27-10.68 32.57-14.75 33.38c-3.2.65-14.29 2.56-30.54 1.13a141.39 141.39 0 0 1-14.18-1.94c-23.89-4.48-24.4-1.22-25.42-7.75s36.86-159.81 30-207.45c-2.57-17.87-8.67-41.7-15.3-64.52-7.22-24.81-15-48.4-19.6-61.81a16.25 16.25 0 0 1 6.39-18.77 346.67 346.67 0 0 1 35.63-20.41c31.51-15.88 60-28.5 65-27.69s77.77 35.43 78.79 31.76-1.53-29.72 3-28.91 24.4 2 29 4.89 44.22 98.11 54.89 158.28c.26 1.43.51 2.89.77 4.4 4 23.39 8.06 56.3 11.65 89.21 5.94 54.43 10.46 108.87 10.46 120.27.06 18.73 5.13 19.53.06 26.06Z" style="fill:#6cc58d"></path>
    <path d="M1617.39 1570.4c-51.65 23.6-141.61 64.6-145.17 64.6-3.34 0-32.15-20.91-50.89-34.77a12.93 12.93 0 0 0-20.33 7.69l-24.29 113.17a141.39 141.39 0 0 1-14.18-1.94c-23.89-4.48-24.4-1.22-25.42-7.75s36.86-159.81 30-207.45c-2.57-17.87-8.67-41.7-15.3-64.52l45.08-59.37s99.07 108.75 115.84 112.34c9.82 2.1 56.24-5 93-11.23 3.96 23.41 8.07 56.32 11.66 89.23Z" style="fill:#3e9a83"></path>
    <path d="M1437.59 1310.84s6.9-5.06 8.42-5.06 65.57 31.26 66 29 4.19-29.73 5.72-29 13.47 6.77 14.36 9.11-.64 39.3-2.16 38.54-14.48-13.9-15.82-11.33-7.06 18.19-9 18.57-58.03-26.1-67.52-49.83Z" style="fill:#abdda8"></path>
    <path d="m1506.13 1363.47-1.31-.48a167.77 167.77 0 0 1-24.86-12.25c-14.06-8.26-33.55-25.13-33.74-25.3a1.5 1.5 0 0 1 2-2.27c.19.17 19.47 16.86 33.29 25a175.07 175.07 0 0 0 23.07 11.51l8.89-19.85 15.31 11c.68-4.72 2.09-15.08 2-19.72a1.5 1.5 0 0 1 3 0c.06 6.32-2.34 22-2.44 22.63l-.37 2.41-16.31-11.69ZM1504.31 1735.39a369 369 0 0 1-69.46-6.5l-.92-.2-9.74-39.66a1.5 1.5 0 0 1 2.92-.72l9.29 37.83c7.27 1.45 56.71 10.65 108.49 3.66 56-7.57 72.31-10.15 72.47-10.18a1.5 1.5 0 0 1 .47 3c-.15 0-16.44 2.61-72.53 10.18a306.91 306.91 0 0 1-40.99 2.59ZM1593.54 1431.92a1.5 1.5 0 0 1-1.42-1l-25.95-74.09a1.5 1.5 0 1 1 2.83-1l26 74.1a1.49 1.49 0 0 1-.92 1.91 1.4 1.4 0 0 1-.54.08Z" style="fill:#3e9a83"></path>
    <path d="M1716.27 1507.48s9.55.09 10.31 4.44-5.94 9.6-6.19 10.2 2.94 3 2.59 5.76-20.77 15-23.69 16.53-45.79 6.17-54.67 5.76-32.15 6.62-41.12 7.48c-3.18.31-11.47 3.73-22.32 8.6-10.76 4.82-21.53 9.47-31 13.08-33.13 12.62-74.74 23.12-79.19 23.72s-16.53-5.8-20-9.37-12.55-10.28-27.88-24.65c-4.73-4.41-9.76-9.77-14.46-15.06-10.57-11.87-19.48-23.42-19.48-23.42l74.17-38.18s9.55 14.63 17.73 26.86c5.7 8.5 10.75 15.84 11.46 16.28 1.77 1.06 23.4-4.74 59.86-10.85 5.58-.94 12-2.16 18.93-3.57v-.08c27.63-6.44 52.4-12.86 54.6-14 3.89-2.06 14.15-9.82 17.53-14.17s9.23-10.2 15.32-17.3 14.55-6.78 16.47-5-1.37 6.57-7 11.16-11.68 16.51-13 19.93 19.35 5.89 31.51 2.16 23.84-10.6 25.62-12.07 4.62-2.45 8.39-1.82 3.82 5.31 3.05 9.62-7.54 7.96-7.54 7.96Z" style="fill:#ffb2a8"></path>
    <path d="M1481.12 1519.28a89.45 89.45 0 0 1-13.81 11.39c-16.65 11.16-40 18.69-58.62 23.36-10.57-11.88-19.48-23.44-19.48-23.44l74.18-38.17s9.55 14.64 17.73 26.86Z" style="fill:#f27c85"></path>
    <path d="M1458.59 1478c-.66 4.53-66.37 50.67-70.16 50.94s-50.19-44-65.24-100.53c-8.22-30.9-2.13-49.51 5.08-60 6-8.74 12.76-11.9 12.76-11.9 34.64-27.63 96 76.53 113 111 3.03 5.88 4.66 9.78 4.56 10.49Z" style="fill:#6cc58d"></path>
    <path d="M1458.59 1478c-.66 4.53-66.37 50.67-70.16 50.94s-50.19-44-65.24-100.53c-8.22-30.9-2.13-49.51 5.08-60a109.37 109.37 0 0 0-1.3 47.15c8.12 44.46 59.64 79.8 63.83 78.88 2.38-.51 35.29-14.77 63.26-27 3 5.95 4.63 9.85 4.53 10.56Z" style="fill:#3e9a83"></path>
    <path d="M1390.51 1546s-13.51-14.9-11.15-18.43 78.8-56.67 82.51-54.73 10.76 26.75 10.33 32.34-76.46 47.11-81.69 40.82Z" style="fill:#abdda8"></path>
    <path d="M1691.17 1518.69c-5.68 1.24-12.34 2.43-12.77 2.5a1.21 1.21 0 0 1-1.4-1 1.19 1.19 0 0 1 1-1.4c.16 0 15.6-2.79 19.45-4.22s18.18-8.14 18.32-8.2a1.2 1.2 0 0 1 1 2.18c-.59.28-14.5 6.79-18.5 8.28a64.48 64.48 0 0 1-7.1 1.86ZM1695.57 1533.58c-3.39.74-7.34 1.36-8 1.47a1.21 1.21 0 0 1-.37-2.39c3.92-.61 10.32-1.79 11.83-2.54 2.24-1.1 20.13-8.78 20.89-9.11a1.21 1.21 0 0 1 1 2.22c-.19.08-18.6 8-20.78 9.06a24.94 24.94 0 0 1-4.57 1.29ZM1491.64 1534.43a21.31 21.31 0 0 0-13.07 10.83c-.64 1.3 1.3 2.44 2 1.14a19 19 0 0 1 11.72-9.8 1.13 1.13 0 0 0-.6-2.17Z" style="fill:#f27c85"></path>
  </g>
</svg>
